<svg width="164" height="42" viewBox="0 0 164 42" fill="none" xmlns="http://www.w3.org/2000/svg">
<rect width="164" height="42" rx="20" fill="#1686FF"/>
<path d="M13 21.3823C13 15.7445 16.5826 12 21.9913 12C27.4087 12 31 15.7445 31 21.3823C31 23.9434 30.2261 26.775 28.9391 28.9641C28.6957 29.3783 28.2348 29.5051 27.7913 29.3022C27.3739 29.9024 26.6435 30.1475 25.8087 29.9108C24.7739 29.5981 24.2957 28.7275 24.6174 27.7132L25.8696 23.6982C26.1826 22.7009 27.0696 22.2444 28.113 22.5403C28.5652 22.6755 28.9043 22.9122 29.1217 23.2165C29.2174 22.5994 29.2609 21.9824 29.2609 21.3823C29.2609 16.7588 26.3478 13.682 21.9913 13.682C17.6348 13.682 14.7304 16.7588 14.7304 21.3823C14.7304 21.9824 14.7826 22.5994 14.8696 23.2165C15.087 22.9037 15.4261 22.667 15.8696 22.5403C16.9217 22.2444 17.8087 22.7009 18.1217 23.6982L19.3739 27.7132C19.687 28.719 19.2174 29.5981 18.1739 29.9108C17.3478 30.1475 16.6174 29.9024 16.1913 29.2938C15.7565 29.5051 15.2957 29.3783 15.0522 28.9641C13.7652 26.775 13 23.9434 13 21.3823Z" fill="white"/>
<path d="M39.48 26.5C39.3947 26.5 39.3147 26.468 39.24 26.404C39.176 26.3293 39.144 26.2493 39.144 26.164C39.144 26.1107 39.1493 26.0627 39.16 26.02L42.92 15.748C42.952 15.6307 43.016 15.5293 43.112 15.444C43.2187 15.348 43.3627 15.3 43.544 15.3H45.912C46.0933 15.3 46.232 15.348 46.328 15.444C46.4347 15.5293 46.504 15.6307 46.536 15.748L50.28 26.02C50.3013 26.0627 50.312 26.1107 50.312 26.164C50.312 26.2493 50.2747 26.3293 50.2 26.404C50.136 26.468 50.056 26.5 49.96 26.5H47.992C47.832 26.5 47.7093 26.4627 47.624 26.388C47.5493 26.3027 47.5013 26.228 47.48 26.164L46.856 24.532H42.584L41.976 26.164C41.9547 26.228 41.9067 26.3027 41.832 26.388C41.7573 26.4627 41.6293 26.5 41.448 26.5H39.48ZM43.24 22.228H46.216L44.712 18.004L43.24 22.228ZM54.3594 26.66C53.7514 26.66 53.2074 26.5213 52.7274 26.244C52.258 25.9667 51.89 25.5613 51.6234 25.028C51.3567 24.484 51.2234 23.8227 51.2234 23.044V18.58C51.2234 18.4627 51.2607 18.3667 51.3354 18.292C51.41 18.2173 51.506 18.18 51.6234 18.18H53.6234C53.7407 18.18 53.8367 18.2173 53.9114 18.292C53.986 18.3667 54.0234 18.4627 54.0234 18.58V22.948C54.0234 23.9933 54.4927 24.516 55.4314 24.516C55.8687 24.516 56.2154 24.3827 56.4714 24.116C56.738 23.8387 56.8714 23.4493 56.8714 22.948V18.58C56.8714 18.4627 56.9087 18.3667 56.9834 18.292C57.058 18.2173 57.154 18.18 57.2714 18.18H59.2714C59.3887 18.18 59.4847 18.2173 59.5594 18.292C59.634 18.3667 59.6714 18.4627 59.6714 18.58V26.1C59.6714 26.2173 59.634 26.3133 59.5594 26.388C59.4847 26.4627 59.3887 26.5 59.2714 26.5H57.4154C57.3087 26.5 57.2127 26.4627 57.1274 26.388C57.0527 26.3133 57.0154 26.2173 57.0154 26.1V25.492C56.738 25.876 56.3754 26.1693 55.9274 26.372C55.49 26.564 54.9674 26.66 54.3594 26.66ZM64.6574 26.66C64.1454 26.66 63.6814 26.58 63.2654 26.42C62.86 26.2493 62.508 26.004 62.2094 25.684C61.9214 25.3533 61.6974 24.9587 61.5374 24.5C61.3774 24.0307 61.2867 23.4973 61.2654 22.9C61.2547 22.6867 61.2494 22.5 61.2494 22.34C61.2494 22.1693 61.2547 21.9827 61.2654 21.78C61.2867 21.204 61.3774 20.6867 61.5374 20.228C61.6974 19.7693 61.9214 19.3747 62.2094 19.044C62.4974 18.7133 62.8494 18.4627 63.2654 18.292C63.6814 18.1107 64.1454 18.02 64.6574 18.02C65.1907 18.02 65.6494 18.1107 66.0334 18.292C66.4174 18.4627 66.7427 18.6867 67.0094 18.964V15.54C67.0094 15.4227 67.0467 15.3267 67.1214 15.252C67.196 15.1773 67.292 15.14 67.4094 15.14H69.3614C69.468 15.14 69.5587 15.1773 69.6334 15.252C69.7187 15.3267 69.7614 15.4227 69.7614 15.54V26.1C69.7614 26.2173 69.7187 26.3133 69.6334 26.388C69.5587 26.4627 69.468 26.5 69.3614 26.5H67.5534C67.436 26.5 67.34 26.4627 67.2654 26.388C67.1907 26.3133 67.1534 26.2173 67.1534 26.1V25.588C66.8974 25.8973 66.5667 26.1533 66.1614 26.356C65.756 26.5587 65.2547 26.66 64.6574 26.66ZM65.5214 24.516C65.884 24.516 66.1667 24.4413 66.3694 24.292C66.5827 24.132 66.7374 23.9293 66.8334 23.684C66.94 23.4387 66.9987 23.172 67.0094 22.884C67.02 22.6707 67.0254 22.468 67.0254 22.276C67.0254 22.084 67.02 21.8867 67.0094 21.684C66.9987 21.4173 66.94 21.172 66.8334 20.948C66.7267 20.7133 66.5667 20.5267 66.3534 20.388C66.14 20.2387 65.8627 20.164 65.5214 20.164C65.1694 20.164 64.8867 20.2387 64.6734 20.388C64.4707 20.5373 64.3267 20.74 64.2414 20.996C64.156 21.252 64.1027 21.5347 64.0814 21.844C64.0494 22.1747 64.0494 22.5053 64.0814 22.836C64.1027 23.1453 64.156 23.428 64.2414 23.684C64.3267 23.94 64.4707 24.1427 64.6734 24.292C64.8867 24.4413 65.1694 24.516 65.5214 24.516ZM72.0471 26.5C71.9298 26.5 71.8338 26.4627 71.7591 26.388C71.6845 26.3133 71.6471 26.2173 71.6471 26.1V18.58C71.6471 18.4627 71.6845 18.3667 71.7591 18.292C71.8338 18.2173 71.9298 18.18 72.0471 18.18H73.9351C74.0418 18.18 74.1325 18.2173 74.2071 18.292C74.2925 18.3667 74.3351 18.4627 74.3351 18.58V26.1C74.3351 26.2173 74.2925 26.3133 74.2071 26.388C74.1325 26.4627 74.0418 26.5 73.9351 26.5H72.0471ZM72.0311 16.98C71.9138 16.98 71.8178 16.9427 71.7431 16.868C71.6685 16.7933 71.6311 16.6973 71.6311 16.58V15.156C71.6311 15.0387 71.6685 14.9427 71.7431 14.868C71.8178 14.7827 71.9138 14.74 72.0311 14.74H73.9351C74.0525 14.74 74.1485 14.7827 74.2231 14.868C74.3085 14.9427 74.3511 15.0387 74.3511 15.156V16.58C74.3511 16.6973 74.3085 16.7933 74.2231 16.868C74.1485 16.9427 74.0525 16.98 73.9351 16.98H72.0311ZM80.1456 26.66C79.2496 26.66 78.4923 26.516 77.8736 26.228C77.2656 25.94 76.7963 25.5293 76.4656 24.996C76.1456 24.452 75.9643 23.8067 75.9216 23.06C75.911 22.8467 75.9056 22.6067 75.9056 22.34C75.9056 22.0627 75.911 21.8227 75.9216 21.62C75.9643 20.8627 76.1563 20.2173 76.4976 19.684C76.839 19.1507 77.3136 18.74 77.9216 18.452C78.5403 18.164 79.2816 18.02 80.1456 18.02C81.0203 18.02 81.7616 18.164 82.3696 18.452C82.9883 18.74 83.4683 19.1507 83.8096 19.684C84.151 20.2173 84.343 20.8627 84.3856 21.62C84.3963 21.8227 84.4016 22.0627 84.4016 22.34C84.4016 22.6067 84.3963 22.8467 84.3856 23.06C84.343 23.8067 84.1563 24.452 83.8256 24.996C83.5056 25.5293 83.0363 25.94 82.4176 26.228C81.8096 26.516 81.0523 26.66 80.1456 26.66ZM80.1456 24.708C80.6256 24.708 80.9723 24.564 81.1856 24.276C81.4096 23.988 81.5376 23.556 81.5696 22.98C81.5803 22.82 81.5856 22.6067 81.5856 22.34C81.5856 22.0733 81.5803 21.86 81.5696 21.7C81.5376 21.1347 81.4096 20.708 81.1856 20.42C80.9723 20.1213 80.6256 19.972 80.1456 19.972C79.6763 19.972 79.3296 20.1213 79.1056 20.42C78.8816 20.708 78.759 21.1347 78.7376 21.7C78.727 21.86 78.7216 22.0733 78.7216 22.34C78.7216 22.6067 78.727 22.82 78.7376 22.98C78.759 23.556 78.8816 23.988 79.1056 24.276C79.3296 24.564 79.6763 24.708 80.1456 24.708ZM89.7815 29.54C89.6642 29.54 89.5682 29.5027 89.4935 29.428C89.4188 29.3533 89.3815 29.2573 89.3815 29.14V18.58C89.3815 18.4627 89.4188 18.3667 89.4935 18.292C89.5682 18.2173 89.6642 18.18 89.7815 18.18H91.5895C91.6962 18.18 91.7868 18.2173 91.8615 18.292C91.9468 18.3667 91.9895 18.4627 91.9895 18.58V19.172C92.2348 18.8413 92.5602 18.5693 92.9655 18.356C93.3708 18.132 93.8722 18.02 94.4695 18.02C95.0028 18.02 95.4722 18.1053 95.8775 18.276C96.2828 18.436 96.6295 18.676 96.9175 18.996C97.2055 19.316 97.4295 19.7053 97.5895 20.164C97.7602 20.6227 97.8562 21.1507 97.8775 21.748C97.8882 21.9613 97.8935 22.1587 97.8935 22.34C97.8935 22.5213 97.8882 22.7187 97.8775 22.932C97.8562 23.508 97.7655 24.0253 97.6055 24.484C97.4455 24.9427 97.2215 25.332 96.9335 25.652C96.6455 25.972 96.2935 26.2227 95.8775 26.404C95.4722 26.5747 95.0028 26.66 94.4695 26.66C93.9468 26.66 93.4882 26.5693 93.0935 26.388C92.7095 26.196 92.3895 25.9293 92.1335 25.588V29.14C92.1335 29.2573 92.0962 29.3533 92.0215 29.428C91.9468 29.5027 91.8508 29.54 91.7335 29.54H89.7815ZM93.6055 24.516C93.9682 24.516 94.2508 24.4413 94.4535 24.292C94.6562 24.1427 94.8002 23.94 94.8855 23.684C94.9815 23.428 95.0402 23.1453 95.0615 22.836C95.0828 22.5053 95.0828 22.1747 95.0615 21.844C95.0402 21.5347 94.9815 21.252 94.8855 20.996C94.8002 20.74 94.6562 20.5373 94.4535 20.388C94.2508 20.2387 93.9682 20.164 93.6055 20.164C93.2535 20.164 92.9708 20.244 92.7575 20.404C92.5442 20.5533 92.3895 20.7507 92.2935 20.996C92.1975 21.2413 92.1442 21.508 92.1335 21.796C92.1228 21.9987 92.1175 22.196 92.1175 22.388C92.1175 22.58 92.1228 22.7827 92.1335 22.996C92.1442 23.2627 92.2028 23.5133 92.3095 23.748C92.4162 23.972 92.5762 24.1587 92.7895 24.308C93.0028 24.4467 93.2748 24.516 93.6055 24.516ZM103.411 26.66C102.515 26.66 101.758 26.516 101.139 26.228C100.531 25.94 100.062 25.5293 99.7313 24.996C99.4113 24.452 99.2299 23.8067 99.1873 23.06C99.1766 22.8467 99.1713 22.6067 99.1713 22.34C99.1713 22.0627 99.1766 21.8227 99.1873 21.62C99.2299 20.8627 99.4219 20.2173 99.7633 19.684C100.105 19.1507 100.579 18.74 101.187 18.452C101.806 18.164 102.547 18.02 103.411 18.02C104.286 18.02 105.027 18.164 105.635 18.452C106.254 18.74 106.734 19.1507 107.075 19.684C107.417 20.2173 107.609 20.8627 107.651 21.62C107.662 21.8227 107.667 22.0627 107.667 22.34C107.667 22.6067 107.662 22.8467 107.651 23.06C107.609 23.8067 107.422 24.452 107.091 24.996C106.771 25.5293 106.302 25.94 105.683 26.228C105.075 26.516 104.318 26.66 103.411 26.66ZM103.411 24.708C103.891 24.708 104.238 24.564 104.451 24.276C104.675 23.988 104.803 23.556 104.835 22.98C104.846 22.82 104.851 22.6067 104.851 22.34C104.851 22.0733 104.846 21.86 104.835 21.7C104.803 21.1347 104.675 20.708 104.451 20.42C104.238 20.1213 103.891 19.972 103.411 19.972C102.942 19.972 102.595 20.1213 102.371 20.42C102.147 20.708 102.025 21.1347 102.003 21.7C101.993 21.86 101.987 22.0733 101.987 22.34C101.987 22.6067 101.993 22.82 102.003 22.98C102.025 23.556 102.147 23.988 102.371 24.276C102.595 24.564 102.942 24.708 103.411 24.708ZM112.345 26.66C111.833 26.66 111.369 26.58 110.953 26.42C110.548 26.2493 110.196 26.004 109.897 25.684C109.609 25.3533 109.385 24.9587 109.225 24.5C109.065 24.0307 108.974 23.4973 108.953 22.9C108.942 22.6867 108.937 22.5 108.937 22.34C108.937 22.1693 108.942 21.9827 108.953 21.78C108.974 21.204 109.065 20.6867 109.225 20.228C109.385 19.7693 109.609 19.3747 109.897 19.044C110.185 18.7133 110.537 18.4627 110.953 18.292C111.369 18.1107 111.833 18.02 112.345 18.02C112.878 18.02 113.337 18.1107 113.721 18.292C114.105 18.4627 114.43 18.6867 114.697 18.964V15.54C114.697 15.4227 114.734 15.3267 114.809 15.252C114.884 15.1773 114.98 15.14 115.097 15.14H117.049C117.156 15.14 117.246 15.1773 117.321 15.252C117.406 15.3267 117.449 15.4227 117.449 15.54V26.1C117.449 26.2173 117.406 26.3133 117.321 26.388C117.246 26.4627 117.156 26.5 117.049 26.5H115.241C115.124 26.5 115.028 26.4627 114.953 26.388C114.878 26.3133 114.841 26.2173 114.841 26.1V25.588C114.585 25.8973 114.254 26.1533 113.849 26.356C113.444 26.5587 112.942 26.66 112.345 26.66ZM113.209 24.516C113.572 24.516 113.854 24.4413 114.057 24.292C114.27 24.132 114.425 23.9293 114.521 23.684C114.628 23.4387 114.686 23.172 114.697 22.884C114.708 22.6707 114.713 22.468 114.713 22.276C114.713 22.084 114.708 21.8867 114.697 21.684C114.686 21.4173 114.628 21.172 114.521 20.948C114.414 20.7133 114.254 20.5267 114.041 20.388C113.828 20.2387 113.55 20.164 113.209 20.164C112.857 20.164 112.574 20.2387 112.361 20.388C112.158 20.5373 112.014 20.74 111.929 20.996C111.844 21.252 111.79 21.5347 111.769 21.844C111.737 22.1747 111.737 22.5053 111.769 22.836C111.79 23.1453 111.844 23.428 111.929 23.684C112.014 23.94 112.158 24.1427 112.361 24.292C112.574 24.4413 112.857 24.516 113.209 24.516ZM123.159 26.66C122.369 26.66 121.671 26.516 121.063 26.228C120.455 25.94 119.969 25.524 119.607 24.98C119.255 24.4253 119.063 23.764 119.031 22.996C119.02 22.8253 119.015 22.612 119.015 22.356C119.015 22.0893 119.02 21.8707 119.031 21.7C119.063 20.9213 119.255 20.26 119.607 19.716C119.959 19.1613 120.439 18.74 121.047 18.452C121.665 18.164 122.369 18.02 123.159 18.02C123.895 18.02 124.524 18.1267 125.047 18.34C125.569 18.5427 125.996 18.7987 126.327 19.108C126.657 19.4173 126.903 19.7373 127.063 20.068C127.233 20.388 127.324 20.6707 127.335 20.916C127.345 21.0227 127.308 21.1187 127.223 21.204C127.137 21.2787 127.041 21.316 126.935 21.316H124.903C124.785 21.316 124.695 21.2893 124.631 21.236C124.567 21.1827 124.508 21.1027 124.455 20.996C124.327 20.6653 124.161 20.4307 123.959 20.292C123.767 20.1533 123.516 20.084 123.207 20.084C122.78 20.084 122.449 20.2227 122.215 20.5C121.991 20.7773 121.868 21.204 121.847 21.78C121.836 22.2067 121.836 22.5853 121.847 22.916C121.868 23.5027 121.991 23.9293 122.215 24.196C122.449 24.4627 122.78 24.596 123.207 24.596C123.537 24.596 123.799 24.5267 123.991 24.388C124.183 24.2493 124.337 24.0147 124.455 23.684C124.508 23.5773 124.567 23.4973 124.631 23.444C124.695 23.3907 124.785 23.364 124.903 23.364H126.935C127.041 23.364 127.137 23.4067 127.223 23.492C127.308 23.5667 127.345 23.6573 127.335 23.764C127.324 23.9453 127.271 24.1587 127.175 24.404C127.079 24.6387 126.929 24.8893 126.727 25.156C126.524 25.4227 126.257 25.6733 125.927 25.908C125.607 26.132 125.217 26.3133 124.759 26.452C124.3 26.5907 123.767 26.66 123.159 26.66ZM131.268 26.66C130.692 26.66 130.175 26.5533 129.716 26.34C129.268 26.116 128.911 25.8173 128.644 25.444C128.377 25.0707 128.244 24.6493 128.244 24.18C128.244 23.4227 128.553 22.8253 129.172 22.388C129.791 21.94 130.612 21.636 131.636 21.476L133.636 21.172V20.948C133.636 20.564 133.556 20.2707 133.396 20.068C133.236 19.8653 132.943 19.764 132.516 19.764C132.217 19.764 131.972 19.8227 131.78 19.94C131.599 20.0573 131.455 20.2173 131.348 20.42C131.252 20.5587 131.119 20.628 130.948 20.628H129.156C129.039 20.628 128.948 20.596 128.884 20.532C128.82 20.4573 128.793 20.372 128.804 20.276C128.804 20.084 128.873 19.8653 129.012 19.62C129.161 19.364 129.385 19.1133 129.684 18.868C129.983 18.6227 130.367 18.42 130.836 18.26C131.305 18.1 131.871 18.02 132.532 18.02C133.225 18.02 133.817 18.1 134.308 18.26C134.799 18.42 135.193 18.644 135.492 18.932C135.801 19.22 136.031 19.5613 136.18 19.956C136.329 20.34 136.404 20.7667 136.404 21.236V26.1C136.404 26.2173 136.361 26.3133 136.276 26.388C136.201 26.4627 136.111 26.5 136.004 26.5H134.148C134.031 26.5 133.935 26.4627 133.86 26.388C133.785 26.3133 133.748 26.2173 133.748 26.1V25.54C133.609 25.7427 133.423 25.9293 133.188 26.1C132.953 26.2707 132.676 26.404 132.356 26.5C132.047 26.6067 131.684 26.66 131.268 26.66ZM132.02 24.836C132.329 24.836 132.607 24.772 132.852 24.644C133.108 24.5053 133.305 24.2973 133.444 24.02C133.593 23.732 133.668 23.3747 133.668 22.948V22.724L132.308 22.964C131.807 23.0493 131.439 23.1827 131.204 23.364C130.98 23.5347 130.868 23.7373 130.868 23.972C130.868 24.1533 130.921 24.308 131.028 24.436C131.135 24.564 131.273 24.6653 131.444 24.74C131.615 24.804 131.807 24.836 132.02 24.836ZM141.634 26.66C140.94 26.66 140.348 26.5853 139.858 26.436C139.378 26.276 138.983 26.084 138.674 25.86C138.375 25.636 138.151 25.4067 138.002 25.172C137.852 24.9267 137.772 24.7187 137.762 24.548C137.751 24.4307 137.788 24.3347 137.874 24.26C137.959 24.1747 138.05 24.132 138.146 24.132H139.97C140.002 24.132 140.028 24.1373 140.05 24.148C140.071 24.1587 140.103 24.18 140.146 24.212C140.284 24.2867 140.423 24.3827 140.562 24.5C140.7 24.6067 140.86 24.7027 141.042 24.788C141.223 24.8733 141.442 24.916 141.698 24.916C141.996 24.916 142.247 24.8573 142.45 24.74C142.652 24.6227 142.754 24.4467 142.754 24.212C142.754 24.0413 142.706 23.9027 142.61 23.796C142.514 23.6787 142.316 23.5667 142.018 23.46C141.73 23.3533 141.292 23.2467 140.706 23.14C140.151 23.012 139.666 22.8467 139.25 22.644C138.834 22.4307 138.514 22.1587 138.29 21.828C138.066 21.4867 137.954 21.076 137.954 20.596C137.954 20.1693 138.092 19.7587 138.37 19.364C138.647 18.9693 139.052 18.6493 139.586 18.404C140.119 18.148 140.775 18.02 141.554 18.02C142.172 18.02 142.706 18.0947 143.154 18.244C143.612 18.3827 143.996 18.564 144.306 18.788C144.626 19.012 144.866 19.2413 145.026 19.476C145.186 19.7107 145.271 19.924 145.282 20.116C145.292 20.2227 145.26 20.3187 145.186 20.404C145.111 20.4787 145.026 20.516 144.93 20.516H143.266C143.223 20.516 143.18 20.5107 143.138 20.5C143.095 20.4787 143.058 20.4573 143.026 20.436C142.898 20.372 142.77 20.2867 142.642 20.18C142.514 20.0733 142.364 19.9773 142.194 19.892C142.023 19.8067 141.81 19.764 141.554 19.764C141.266 19.764 141.042 19.828 140.882 19.956C140.722 20.084 140.642 20.2493 140.642 20.452C140.642 20.5907 140.684 20.7187 140.77 20.836C140.866 20.9533 141.052 21.06 141.33 21.156C141.618 21.252 142.06 21.3587 142.658 21.476C143.394 21.5933 143.98 21.7853 144.418 22.052C144.855 22.308 145.164 22.612 145.346 22.964C145.527 23.3053 145.618 23.668 145.618 24.052C145.618 24.564 145.463 25.0173 145.154 25.412C144.855 25.8067 144.407 26.116 143.81 26.34C143.212 26.5533 142.487 26.66 141.634 26.66ZM151.263 26.5C150.58 26.5 149.988 26.3933 149.487 26.18C148.996 25.956 148.617 25.6147 148.351 25.156C148.084 24.6867 147.951 24.084 147.951 23.348V20.276H146.703C146.585 20.276 146.484 20.2387 146.399 20.164C146.324 20.0893 146.287 19.9933 146.287 19.876V18.58C146.287 18.4627 146.324 18.3667 146.399 18.292C146.484 18.2173 146.585 18.18 146.703 18.18H147.951V15.54C147.951 15.4227 147.988 15.3267 148.062 15.252C148.148 15.1773 148.244 15.14 148.351 15.14H150.207C150.324 15.14 150.42 15.1773 150.495 15.252C150.569 15.3267 150.607 15.4227 150.607 15.54V18.18H152.607C152.724 18.18 152.82 18.2173 152.895 18.292C152.969 18.3667 153.007 18.4627 153.007 18.58V19.876C153.007 19.9933 152.969 20.0893 152.895 20.164C152.82 20.2387 152.724 20.276 152.607 20.276H150.607V23.124C150.607 23.4867 150.676 23.7747 150.815 23.988C150.953 24.2013 151.188 24.308 151.519 24.308H152.751C152.868 24.308 152.964 24.3453 153.039 24.42C153.113 24.4947 153.151 24.5907 153.151 24.708V26.1C153.151 26.2173 153.113 26.3133 153.039 26.388C152.964 26.4627 152.868 26.5 152.751 26.5H151.263Z" fill="white"/>
</svg>
