<svg width="44" height="44" viewBox="0 0 44 44" fill="none" xmlns="http://www.w3.org/2000/svg">
<g clip-path="url(#clip0_1030_246)">
<path d="M39.875 22C39.875 17.2593 37.9917 12.7127 34.6395 9.36047C31.2873 6.00825 26.7407 4.125 22 4.125C17.2593 4.125 12.7127 6.00825 9.36047 9.36047C6.00825 12.7127 4.125 17.2593 4.125 22C4.125 26.7407 6.00825 31.2873 9.36047 34.6395C12.7127 37.9917 17.2593 39.875 22 39.875C26.7407 39.875 31.2873 37.9917 34.6395 34.6395C37.9917 31.2873 39.875 26.7407 39.875 22ZM0 22C0 16.1652 2.31785 10.5695 6.44365 6.44365C10.5695 2.31785 16.1652 0 22 0C27.8348 0 33.4306 2.31785 37.5564 6.44365C41.6822 10.5695 44 16.1652 44 22C44 27.8348 41.6822 33.4306 37.5564 37.5564C33.4306 41.6822 27.8348 44 22 44C16.1652 44 10.5695 41.6822 6.44365 37.5564C2.31785 33.4306 0 27.8348 0 22ZM15.168 27.5258C16.8523 25.9617 19.2328 24.75 22 24.75C24.7672 24.75 27.1477 25.9617 28.832 27.5258C30.4648 29.0555 31.625 31.1094 31.625 33C31.625 33.4641 31.393 33.8937 31.0062 34.1516C30.6195 34.4094 30.1297 34.4438 29.7 34.2633L28.2219 33.6188C26.2625 32.7594 24.1398 32.3211 22 32.3211C19.8602 32.3211 17.7375 32.768 15.7781 33.6188L14.3 34.2633C13.8789 34.4523 13.3805 34.4094 12.9937 34.1516C12.607 33.8937 12.375 33.4641 12.375 33C12.375 31.1094 13.5352 29.0555 15.168 27.5258ZM11.4727 12.607L19.1984 16.7234C20.118 17.2133 20.118 18.5367 19.1984 19.0266L11.4727 23.143C10.7937 23.5039 9.96875 23.0141 9.96875 22.2406C9.96875 22 10.0547 21.768 10.2094 21.5875L13.3031 17.875L10.2094 14.1625C10.0547 13.982 9.96875 13.75 9.96875 13.5094C9.96875 12.7359 10.7937 12.2461 11.4727 12.607ZM34.0312 13.5008C34.0312 13.7414 33.9453 13.9734 33.7906 14.1539L30.6969 17.8664L33.7906 21.5789C33.9453 21.7594 34.0312 21.9914 34.0312 22.232C34.0312 23.0055 33.2063 23.4953 32.5273 23.1344L24.8016 19.018C23.882 18.5281 23.882 17.2047 24.8016 16.7148L32.5273 12.5984C33.2063 12.2375 34.0312 12.7273 34.0312 13.5008Z" fill="#000"/>
</g>
<defs>
<clipPath id="clip0_1030_246">
<rect width="44" height="44" fill="white"/>
</clipPath>
</defs>
</svg>
