<svg width="40" height="40" viewBox="0 0 40 40" fill="none" xmlns="http://www.w3.org/2000/svg">
<g clip-path="url(#clip0_7886_17144)">
<path d="M20 0C8.96385 0 0 8.96385 0 20C0 31.0361 8.96385 40 20 40C31.0361 40 40 31.0361 40 20C40 8.96385 31.0361 0 20 0ZM20 38.2651C9.92771 38.2651 1.73494 30.0723 1.73494 20C1.73494 9.92771 9.92771 1.73494 20 1.73494C30.0723 1.73494 38.2651 9.92771 38.2651 20C38.2651 30.0723 30.0723 38.2651 20 38.2651Z" fill="#FD7E14"/>
<path d="M30.4133 15.6624H24.341V9.59013C24.341 9.1082 23.9555 8.72266 23.4735 8.72266H16.5338C16.0519 8.72266 15.6663 9.1082 15.6663 9.59013V15.6624H9.59403C9.1121 15.6624 8.72656 16.048 8.72656 16.5299V23.4696C8.72656 23.9516 9.1121 24.3371 9.59403 24.3371H15.6663V30.4094C15.6663 30.8913 16.0519 31.2769 16.5338 31.2769H23.4735C23.9555 31.2769 24.341 30.8913 24.341 30.4094V24.3371H30.4133C30.8952 24.3371 31.2808 23.9516 31.2808 23.4696V16.5299C31.2326 16.048 30.847 15.6624 30.4133 15.6624ZM29.594 22.6022H23.4735C22.9916 22.6022 22.6061 22.9877 22.6061 23.4696V29.5419H17.4013V23.4696C17.4013 22.9877 17.0157 22.6022 16.5338 22.6022H10.4615V17.3974H16.5338C17.0157 17.3974 17.4013 17.0118 17.4013 16.5299V10.4576H22.6543V16.5299C22.6543 17.0118 23.0398 17.3974 23.5217 17.3974H29.594V22.6022Z" fill="#FD7E14"/>
</g>
<defs>
<clipPath id="clip0_7886_17144">
<rect width="40" height="40" fill="white"/>
</clipPath>
</defs>
</svg>
