<svg width="54" height="54" viewBox="0 0 150 150" fill="none" xmlns="http://www.w3.org/2000/svg">
<path d="M70.7208 30.241V21.1524C67.7227 19.8572 64.9653 18.0324 63.8682 14.504C63.2287 12.2531 63.3533 9.85123 64.2229 7.68008C65.8602 3.02669 71.7518 -0.451799 77.111 0.0477706C81.4313 0.450508 84.3798 3.32656 84.9972 7.73879C86.0716 15.4143 84.0965 19.0993 77.2499 21.7853C77.1392 23.609 77.0211 25.5597 76.8657 28.1162C78.6963 26.7199 80.0583 25.6301 81.4729 24.6143C83.4676 23.0802 85.5387 21.6497 87.6777 20.3285C94.5917 16.3739 101.282 17.13 107.757 21.5287C110.703 23.5301 113.688 25.4796 116.721 27.3441C122.185 30.709 128.308 32.8409 134.668 33.593C136.326 33.8113 137.965 34.1584 139.57 34.6316C145.354 36.2845 146.809 41.514 142.514 45.6919C136.566 51.4795 129.203 54.4349 121.103 55.2312C112.847 55.9847 104.524 55.3926 96.4554 53.4777C90.8453 52.1967 85.2016 51.0662 79.5682 49.8926C78.4632 49.6619 77.3362 49.5398 76.0837 49.3467V77.5322C80.3551 75.8793 84.1785 74.5354 86.8425 71.2511C87.7976 70.009 88.4719 68.5714 88.8176 67.0387C89.424 64.4958 88.702 63.6965 86.4234 62.365C84.5444 61.2452 82.7976 59.9132 81.2172 58.3951C80.6218 57.8585 80.2229 57.1358 80.084 56.3431C79.9457 55.5503 80.0754 54.7336 80.453 54.0242C80.7454 53.2735 81.2918 52.6514 81.9961 52.2687C82.7003 51.8858 83.5159 51.7672 84.2991 51.9335C86.0857 52.2869 88.1299 52.7531 89.4386 53.8953C99.1628 62.3859 97.4582 73.5899 89.2184 79.9103C87.5664 81.1796 85.7473 82.2355 83.7588 83.5529C84.6949 83.8674 85.4469 84.1283 86.2062 84.3732C89.9336 85.4765 93.3937 87.3453 96.3691 89.8623C101.32 94.2277 101.845 99.8037 97.7678 104.989C94.1579 109.582 89.331 112.487 84.025 114.659C82.5057 115.281 80.9528 115.818 79.0133 116.544C80.412 117.551 81.5219 118.267 82.5375 119.099C86.3396 122.213 88.7173 125.954 87.5621 131.173C87.2555 132.567 86.6559 133.877 85.8036 135.018C84.9519 136.158 83.8671 137.101 82.6232 137.782C81.2294 138.619 79.9714 139.685 78.4442 140.799C80.2761 141.644 81.7483 142.186 83.0803 142.978C84.2685 143.687 85.3686 144.716 84.7182 146.333C84.0868 147.904 82.6569 148.107 81.2728 147.672C78.9007 146.925 76.5891 145.987 74.1031 145.075C73.3187 147.065 73.386 150.004 70.6254 150C69.3484 150 68.0745 148.323 66.4733 147.173C65.6615 147.468 64.3282 148.04 62.9442 148.428C61.7982 148.749 60.5206 148.746 59.9638 147.445C59.4187 146.17 60.2338 145.184 61.2218 144.505C62.6738 143.509 64.209 142.635 65.3629 141.922C62.5276 140.303 59.5424 138.802 56.7695 136.974C49.6108 132.255 50.622 124.598 54.6731 119.716C55.2752 118.991 55.9409 118.319 56.8275 117.349C50.6477 113.847 45.3071 109.597 45.2202 101.783C45.1363 94.2024 49.3017 88.9723 55.6925 84.9659C54.8359 84.264 54.1875 83.8033 53.6215 83.2562C52.2839 82.0826 51.0324 80.8127 49.8769 79.4558C45.9378 74.3417 45.5552 68.9346 48.7291 63.2352C51.3601 58.5068 55.3027 55.3866 60.0929 53.2156C62.1469 52.2849 63.7543 52.6765 64.8422 54.2128C65.1236 54.5995 65.3249 55.0393 65.4343 55.506C65.5437 55.9727 65.5588 56.4568 65.4789 56.9295C65.399 57.4023 65.2258 57.8539 64.9692 58.2578C64.7127 58.6615 64.3782 59.0092 63.9857 59.2802C62.3901 60.4704 60.6529 61.4546 58.8148 62.2102C57.5426 62.69 56.4031 63.4702 55.4923 64.486C54.5816 65.5018 53.9263 66.7229 53.5812 68.0471C53.2988 68.9537 53.2018 69.9085 53.2965 70.8533C53.3911 71.7988 53.6754 72.7147 54.1318 73.5455C56.4049 77.7807 60.3114 79.8178 64.6427 80.8848C66.1674 81.2604 68.0342 80.2274 70.0747 79.7623C70.3396 69.8702 70.6009 60.1263 70.8732 49.9647C69.7027 49.9809 68.534 50.0621 67.3721 50.2077C58.9285 51.7601 50.4905 53.3143 42.0659 54.9567C34.4208 56.4449 26.7752 57.5527 19.0144 55.8856C14.8844 54.9987 10.9182 53.6961 7.62704 50.8898C5.78413 49.3171 4.36033 47.4193 5.29524 44.8456C5.71553 43.5615 6.50657 42.4331 7.56669 41.6046C9.66178 40.2218 11.8941 39.0631 14.2278 38.1472C22.2902 34.9598 29.7235 30.764 36.1932 24.9091C37.5944 23.6411 39.0778 22.4638 40.5432 21.2704C43.6771 18.7158 47.2012 17.9732 51.1532 18.7842C57.0882 20.0011 61.8648 23.398 66.6043 26.8833C67.9204 27.8497 69.1471 28.9507 70.7208 30.241ZM75.828 43.7713C81.178 44.591 86.1383 45.2515 91.0631 46.1273C99.3005 47.5982 107.504 49.1074 115.948 48.8163C122.244 48.6236 128.38 46.7754 133.748 43.4549C134.491 42.9138 135.196 42.3225 135.859 41.6854C133.309 41.1488 131.163 40.8183 129.087 40.2404C120.31 37.7975 112.454 33.5073 105.194 28.0244C99.7771 23.9334 95.9255 23.8243 90.2451 27.4976C89.3597 28.0583 88.5056 28.6669 87.6857 29.3208C84.4318 31.966 81.2661 34.726 77.9321 37.2627C76.6197 38.2606 75.9546 39.298 76.0152 40.9256C76.0029 41.8774 75.9411 42.828 75.828 43.7731V43.7713ZM71.2293 40.0967C68.8033 38.2748 66.9004 37.0073 65.1804 35.524C61.1689 31.9787 56.6493 29.0644 51.7743 26.8797C48.3314 25.3791 45.2046 25.5895 42.2738 28.4012C34.1405 36.2038 24.6404 41.8193 14.1214 45.7283C13.0737 46.2115 12.0554 46.7569 11.072 47.362C13.1352 48.2717 14.5229 48.9909 15.9803 49.5077C22.48 51.8144 29.1154 51.728 35.7699 50.3946C43.9687 48.754 52.1334 46.9716 60.3298 45.3372C63.8895 44.6267 67.4884 44.1309 71.2293 43.5117V40.0967ZM69.7853 89.5064C65.1353 89.5138 57.7986 93.0182 55.2943 96.3141C52.5299 99.953 52.4949 104.455 55.9348 106.991C58.8961 109.175 62.4412 110.641 65.881 112.048C67.7319 112.804 69.0437 111.623 69.1588 109.563C69.4206 104.846 69.6066 100.127 69.7706 95.4038C69.8422 93.437 69.7853 91.4683 69.7853 89.5064ZM76.3621 109.323C78.7012 108.439 80.88 107.746 82.9481 106.806C86.3035 105.28 89.3921 103.305 91.7673 100.4C93.4273 98.3698 93.4194 97.1844 91.5281 95.5216C87.2623 91.7693 82.1148 90.5025 76.3621 90.1509V109.323ZM68.1712 121.412C64.3166 120.907 59.9754 123.817 59.3146 126.917C59.1524 127.587 59.1868 128.291 59.4135 128.942C59.6401 129.593 60.0493 130.163 60.5915 130.585C62.6345 132.33 64.7264 134.016 67.1433 136.012C67.5037 130.893 67.831 126.244 68.1712 121.414V121.412ZM78.5507 11.9258C78.5795 7.87929 77.133 6.57683 72.7724 6.28757C70.8028 6.15682 69.4506 7.16885 68.944 10.6726C68.5359 13.4912 70.8279 15.545 74.3828 15.7719C77.647 15.9835 78.5305 15.1707 78.5507 11.9284V11.9258ZM75.0387 124.163C74.8257 126.27 74.5327 128.341 74.4268 130.423C74.3216 132.539 74.4036 134.664 74.4036 137.098C76.9819 135.611 78.123 133.593 78.9747 131.3C80.4187 127.423 79.4165 125.485 75.0387 124.165V124.163Z" fill="#000"/>
</svg>
