<svg width="54" height="54" viewBox="0 0 150 150" fill="none" xmlns="http://www.w3.org/2000/svg">
<path d="M7.13475 85.4113C3.18334 78.7082 0.816942 71.222 0.209623 63.5045C-1.2265 44.9681 4.65655 29.2574 19.7121 17.4388C26.4579 12.1526 34.854 9.30041 43.4919 9.36054C47.9712 9.30573 52.4465 9.64819 56.8628 10.3839C64.7538 11.7475 72.1336 14.4178 77.7177 20.6076C80.7061 18.7534 83.5546 16.9402 86.4493 15.2004C93.0317 11.2385 100.462 8.8261 108.156 8.15285C119.053 7.15567 128.262 11.0997 136.184 18.1711C147.33 28.122 150.933 40.7806 149.802 55.1173C149.144 62.7401 147.072 70.1814 143.686 77.0748C143.374 77.7263 143.129 78.409 142.798 79.2104C143.568 79.5671 144.31 79.9794 145.018 80.4431C146.704 81.7278 146.539 83.4493 144.614 84.4276C143.859 84.8203 143.033 85.0668 142.182 85.1537C139.588 85.3672 138.093 86.8318 136.655 88.8567C127.827 101.227 117.365 112.397 105.544 122.075C99.337 127.19 92.875 132.012 86.4281 136.837C84.2464 138.339 81.9698 139.703 79.6121 140.922C78.5181 141.602 77.2544 141.975 75.9587 141.999C74.6631 142.023 73.3856 141.697 72.266 141.058C69.5961 139.559 67.1016 137.758 64.5509 136.059C61.4634 134.002 58.4688 131.802 55.3099 129.859C41.3052 121.242 28.4189 111.303 17.3807 99.1827C15.2509 96.8439 13.2988 94.3399 11.4094 91.8085C11.089 91.2756 10.6235 90.8413 10.0651 90.5531C9.50679 90.265 8.87758 90.1347 8.24806 90.1775C6.64684 90.1775 5.04792 90.0601 3.46456 89.8264C2.17143 89.6771 1.14676 88.9999 1.19547 87.6369C1.24792 86.1595 2.28387 85.4461 3.77432 85.4162C4.72154 85.396 5.67365 85.4113 7.13475 85.4113ZM69.0872 80.6395C72.0687 78.6207 75.3081 78.5106 78.6718 78.9192C81.3136 79.2918 83.9767 79.5047 86.6447 79.5555C101.384 79.5494 116.123 79.416 130.861 79.4086C132.832 79.4086 133.921 78.6507 134.87 77.0228C140.454 67.4473 143.445 57.2572 142.872 46.1592C142.165 32.4557 135.317 22.7232 122.909 16.6466C118.853 14.6949 114.321 13.8898 109.824 14.3218C103.519 14.7818 97.3807 16.5247 91.801 19.4392C88.3294 21.2745 84.9845 23.3423 81.5708 25.2859C78.3446 27.1212 76.2166 26.898 73.5698 24.3359C70.9729 21.6713 67.7085 19.7192 64.1026 18.6739C60.0985 17.6107 56.048 16.4685 51.945 16.0512C39.3802 14.7733 28.1141 17.7502 19.3931 27.208C5.71866 42.0402 3.34594 63.71 12.4204 81.0763C13.0379 82.2589 13.8078 83.3649 14.4366 84.3908C19.7964 83.7754 20.6287 83.2634 23.3942 79.4111C24.6088 77.5685 25.977 75.8274 27.4847 74.2062C29.9861 71.7267 32.8215 72.1874 34.6236 75.2211C35.3568 76.6361 36.0148 78.0878 36.5948 79.5702C37.1037 78.1307 37.4689 77.1953 37.7667 76.2403C38.6453 73.4452 39.2835 70.5509 40.4324 67.8713C41.2917 65.751 42.5474 63.8067 44.135 62.138C46.7213 59.5686 49.8851 60.2451 51.3118 63.5577C52.2098 65.6776 52.8176 67.9047 53.1195 70.1808C53.9068 75.9834 54.4446 81.8184 55.1121 87.6369C55.2745 88.5264 55.4858 89.4067 55.7451 90.2736C56.658 87.394 57.2262 84.9359 58.2303 82.6626C58.9607 81.0482 60.0028 79.5873 61.2992 78.3601C63.1397 76.6196 65.1297 76.7726 67.0054 78.4408C67.7054 79.0661 68.301 79.8014 69.0872 80.6395ZM47.7453 66.9812L46.7738 66.8766C46.3105 68.1331 45.786 69.3727 45.3951 70.6507C44.2937 74.2527 43.3438 77.9025 42.1394 81.4703C41.5311 83.3619 40.6646 85.1641 39.5637 86.8287C38.0776 88.9901 35.5052 88.976 33.9348 86.8654C33.1338 85.6401 32.5038 84.3156 32.0616 82.9263C31.6377 81.8116 31.426 80.6187 31.0208 79.0826C29.0614 81.5504 27.6732 84.0281 25.6058 85.7012C23.4741 87.427 20.6825 88.3698 17.8327 89.8331C20.4727 92.8264 23.0777 96.1342 26.0473 99.0811C35.8675 108.866 46.9588 117.342 59.0357 124.292C63.1666 126.665 67.1016 129.366 71.2332 131.739C73.4105 132.99 75.8757 133.497 78.2016 131.973C81.037 130.115 83.8181 128.173 86.5686 126.198C99.4556 117.027 111.236 106.449 121.682 94.6691C124.095 91.9296 126.375 89.0776 129.008 85.9294C128.347 85.7832 127.679 85.6725 127.006 85.5979C110.158 85.0473 93.2503 85.9233 76.4739 83.5417C75.3193 83.4756 74.1673 83.7026 73.1283 84.2012C71.6129 84.8301 70.0868 86.5033 68.7975 86.302C67.3413 86.075 66.1425 84.2648 64.6496 82.9875C64.1925 84.2826 63.6043 85.618 63.2559 87.0098C62.5965 89.6483 62.187 92.3493 61.4571 94.9664C61.0089 96.7907 60.2938 98.5421 59.3342 100.166C57.5653 102.93 54.176 102.768 52.6625 99.8831C51.6777 98.1457 50.9885 96.2621 50.6219 94.3075C49.8158 88.8353 49.2794 83.3239 48.7024 77.8211C48.3234 74.2123 48.06 70.5944 47.7453 66.9812Z" fill="#000"/>
</svg>
