<svg width="54" height="54" viewBox="0 0 150 150" fill="none" xmlns="http://www.w3.org/2000/svg">
<path d="M149.645 80.0887C149.711 68.4851 149.348 58.336 148.538 49.0626C147.403 36.0803 140.171 28.9282 127.625 28.3742C122.297 28.1391 116.873 28.3183 111.628 28.4862C109.244 28.564 106.778 28.6451 104.355 28.6854C103.572 28.6982 102.793 28.6942 102.122 28.6908H101.762C101.488 27.9102 101.226 27.1492 100.969 26.4028C100.338 24.5746 99.738 22.845 99.0835 21.1315C99.0589 21.0459 99.0359 20.9593 99.0113 20.8742C98.7025 19.6885 98.0653 18.6141 97.1735 17.7746C95.5237 15.8603 93.2457 14.9307 90.3533 15.004C86.4277 15.1064 82.4343 15.1792 78.5724 15.2491C72.6552 15.3566 66.5359 15.4674 60.5196 15.689C57.2888 15.8076 55.5204 16.3707 54.3756 17.806C53.6221 18.2524 53.005 18.8962 52.591 19.6681C51.1576 22.7162 50.3342 26.0154 50.1669 29.3797H49.1953C47.6518 29.3797 46.2263 29.3754 44.8002 29.3843C43.0923 29.3938 41.3836 29.3938 39.6751 29.3944C35.5178 29.3944 31.2183 29.3943 26.9906 29.5365C21.8405 29.7263 16.7716 30.8792 12.0461 32.9358C5.39648 35.7897 2.07274 40.4784 1.88421 47.2639C1.75665 51.8754 1.57766 56.5643 1.40479 61.098C1.25486 65.0274 1.09951 69.0907 0.978108 73.0894C0.913212 75.2405 0.909632 77.4279 0.905716 79.5431C0.899002 83.2604 0.891875 87.1048 0.550052 90.8428C-0.315413 100.303 -0.162747 107.893 1.03056 114.731C2.10917 120.908 5.00261 125.9 9.39989 129.168C13.4032 132.228 18.2642 133.956 23.3 134.111C25.9309 134.185 28.5616 134.266 31.1921 134.354C37.7282 134.564 44.4862 134.78 51.1386 134.832C65.2341 134.944 78.4522 135 91.1427 135C96.957 135 102.672 134.988 108.288 134.965C114.633 134.94 121.491 134.647 129.254 134.07C139.044 133.343 145.698 127.971 148.489 118.53C149.44 115.37 149.947 112.092 149.995 108.793C150.023 103.994 149.921 99.1179 149.822 94.4023C149.72 89.7085 149.616 84.858 149.645 80.0887ZM141.441 95.3625C141.492 99.9298 141.546 104.498 141.602 109.066C141.646 112.621 140.812 116.133 139.175 119.29C137.684 122.2 135.483 123.927 132.616 124.42C129.464 125.051 126.268 125.426 123.056 125.542C111.692 125.627 100.136 125.614 88.9597 125.603C84.9216 125.599 80.8846 125.596 76.8477 125.595C72.7206 125.595 68.5953 125.596 64.4716 125.6C54.5076 125.607 44.2064 125.615 34.076 125.559C30.2704 125.531 26.4691 125.302 22.6878 124.872C15.6651 124.081 10.6765 119.188 9.34445 111.782C7.86415 103.556 8.03377 95.1174 8.19713 86.9587C8.22566 85.5346 8.25319 84.1115 8.27445 82.6891C8.30835 80.2851 8.35943 77.8727 8.42768 75.4531C9.93013 75.7486 11.4529 75.9304 12.9828 75.9965C16.636 76.1185 20.349 76.1084 23.9406 76.0989C25.6514 76.095 27.3616 76.0894 29.0707 76.0989C29.7348 76.1028 30.3903 76.1408 31.1495 76.1845C31.3531 76.1968 31.5619 76.2085 31.7778 76.2203C31.7778 76.9047 31.7735 77.5706 31.7701 78.223C31.7618 80.0137 31.7532 81.7048 31.7884 83.3986C31.864 87.0163 33.3638 88.7398 36.8033 89.1623C40.0544 89.516 43.3234 89.6816 46.5936 89.6587H46.7094C53.0049 89.6587 55.3809 87.2368 55.4598 80.7613C55.4738 79.6198 55.47 78.4765 55.4661 77.3115V76.2354H97.5002C97.5002 76.3719 97.5002 76.5068 97.5002 76.6394C97.4958 77.3361 97.4913 77.9824 97.5103 78.6248C97.545 79.8039 97.5797 80.7865 97.6826 81.8055C98.0686 85.6375 99.7526 87.2687 103.501 87.4355C106.491 87.5686 109.695 87.5474 113.02 87.3666C116.27 87.192 118.238 85.3633 118.711 82.0775C118.916 80.6528 119.005 79.1967 119.098 77.6567C119.133 77.0888 119.169 76.5023 119.21 75.8907L123.896 75.8935C128.515 75.8963 133.035 75.9002 137.554 75.8784C138.772 75.8851 139.99 75.8292 141.203 75.7105C141.292 82.3142 141.367 88.9016 141.441 95.3625ZM65.9155 22.7436C69.7841 22.601 73.7075 22.5473 77.5582 22.5087C81.6326 22.6088 85.8184 22.7085 89.9466 22.7734C90.2912 22.7725 90.6347 22.8084 90.9715 22.8808C91.3631 23.2997 91.6154 23.8302 91.6921 24.3989C91.9528 25.5281 92.2923 26.6375 92.7086 27.719C92.7858 28.2062 92.8703 28.6929 92.9626 29.1794H57.9361C59.3509 22.9871 59.4444 22.9832 65.9183 22.7442L65.9155 22.7436ZM111.472 76.2287C111.451 76.4094 111.431 76.5885 111.41 76.767C111.329 77.6635 111.184 78.5526 110.976 79.4284C110.837 79.7927 110.564 80.0904 110.213 80.2599C108.522 80.4418 106.817 80.5224 105.013 80.608C104.535 80.6304 104.051 80.6533 103.559 80.6785L103.055 76.2287H111.472ZM47.3306 76.2908V81.6387H38.6562L37.9519 76.5689C39.7757 75.9047 44.1977 75.7693 47.3334 76.2908H47.3306ZM140.43 67.4125C140.242 67.4259 140.055 67.4388 139.867 67.4466C138.885 67.4869 137.904 67.5343 136.922 67.5819C134.791 67.6848 132.587 67.7907 130.423 67.8193C120.364 67.9529 110.304 68.0767 100.245 68.1909C91.2663 68.2972 82.2877 68.4068 73.3097 68.5199C56.0949 68.7437 38.8803 68.9788 21.6665 69.2253L8.60603 69.4079C8.74645 65.239 8.90987 61.0869 9.07155 57.0042C9.15658 54.8632 9.24045 52.7227 9.32285 50.5829C9.63279 42.4343 11.1241 40.5305 18.7125 38.5999C23.3861 37.3934 28.1863 36.7445 33.0125 36.6671C43.03 36.5457 53.2181 36.5626 63.0718 36.5783C71.0965 36.5917 79.396 36.6057 87.5583 36.5441C92.2017 36.51 96.9111 36.2978 101.468 36.093C105.091 35.9302 108.838 35.7618 112.521 35.6846C117.571 35.5777 122.795 35.4679 127.915 36.0001C135.422 36.7796 138.88 40.2692 139.846 48.0435C140.437 52.2879 140.807 56.5604 140.954 60.8434C140.996 63.0153 141.035 65.193 141.071 67.3761C140.856 67.3839 140.642 67.399 140.433 67.4125H140.43Z" fill="#000"/>
</svg>
