<svg width="54" height="54" viewBox="0 0 150 150" fill="none" xmlns="http://www.w3.org/2000/svg">
<path d="M52.4839 105.238C53.3732 107.083 54.6675 108.705 56.2707 109.982C57.8739 111.259 59.7448 112.159 61.7441 112.614C73.7046 115.626 85.0448 113.994 94.775 106.175C102.864 99.6752 105.52 90.3891 105.546 80.3869C105.489 73.9151 103.982 67.5387 101.135 61.7248C95.0975 62.4868 94.3129 62.3301 89.8553 59.5307C80.6728 65.8735 71.5176 72.1973 62.3894 78.5012C62.0402 78.7421 61.6811 78.9695 61.3164 79.1826C57.4611 81.4604 55.7264 81.1501 52.784 77.51C49.1656 79.9978 45.5448 82.5191 41.8854 84.9841C40.5941 85.9071 39.2229 86.7131 37.7883 87.3926C35.4407 88.4216 33.6183 87.8758 32.3388 85.6946C30.6797 82.8661 29.2344 79.9136 27.6683 77.0299C26.7547 75.3467 27.0742 74.0111 28.6347 72.9103C33.477 69.4926 38.3078 66.0705 43.1265 62.6435C43.1342 62.524 43.1209 62.4044 43.0875 62.2892C39.5912 56.2405 40.5488 56.3738 44.9264 52.5739C56.3257 42.5725 68.2746 33.2138 80.7175 24.5415C85.6905 21.1133 90.4638 17.395 95.332 13.8143C98.9051 11.1859 100.01 11.2603 103.242 14.302C103.544 14.5864 103.884 14.8298 104.24 15.1197C110.466 10.5975 116.676 6.16202 122.796 1.60629C125.836 -0.658559 127.702 -0.627071 130.106 2.33346C131.709 4.30913 133.206 6.36849 134.591 8.50293C137.002 12.2199 136.298 14.8218 132.64 17.3772C127.686 20.8358 122.818 24.4195 117.937 27.9815C116.931 28.7162 116.028 29.5922 114.921 30.5363C115.563 31.4036 116.025 32.0745 116.534 32.7045C118.947 35.6898 118.593 37.884 115.387 40.1197C113.307 41.57 111.28 43.0931 109.288 44.5434C109.502 46.5375 109.66 48.3099 109.899 50.0717C109.957 50.5871 110.149 51.0783 110.457 51.4966C116.167 58.5377 118.95 66.8189 120.35 75.5759C121.776 84.4786 121.414 93.3156 118.094 101.858C113.381 113.986 104.318 121.647 92.6253 126.61C91.5796 127.053 90.5128 127.448 89.4342 127.874L93.4793 137.79C94.5573 137.884 96.1172 137.976 97.6671 138.162C102.465 138.734 105.056 143.081 103.172 147.466C102.374 149.324 100.629 149.497 98.8778 149.548C93.5767 149.703 88.2762 149.988 82.9751 149.999C73.8522 150.016 64.7292 149.87 55.6062 149.77C54.8621 149.758 54.1222 149.654 53.4036 149.46C51.115 148.85 50.354 147.456 50.9848 145.147C52.1415 140.893 55.2104 138.343 59.655 137.961C60.705 137.872 61.7592 137.829 62.8025 137.766L65.4697 131.294C58.0002 130.244 50.5877 129.01 44.2986 124.558C37.9406 120.056 33.9087 113.787 31.0693 106.303C28.344 106.303 25.4989 106.387 22.6619 106.273C20.7568 106.219 18.8612 105.983 17.0011 105.568C16.1552 105.399 15.3943 104.942 14.8488 104.274C14.3032 103.607 14.0068 102.771 14.0102 101.909C13.9467 101.051 14.1807 100.197 14.6725 99.4906C15.1644 98.7838 15.8843 98.2677 16.7119 98.028C18.1118 97.5553 19.576 97.2989 21.0535 97.2691C33.1505 97.2096 45.248 97.2072 57.3458 97.2605C58.5029 97.3094 59.6474 97.52 60.7459 97.8861C62.0663 98.2783 63.1877 99.2756 62.9309 100.626C62.6031 101.798 61.8988 102.83 60.9263 103.562C60.1653 104.169 58.9714 104.305 57.9406 104.491C56.1971 104.801 54.4258 104.98 52.4839 105.238ZM110.146 35.3503C104.298 30.7327 102.157 23.8451 97.6405 18.7188C88.6056 23.6314 49.4359 53.4969 46.6511 57.5874L58.2731 73.0125L86.1557 53.6846C85.2532 48.274 84.3223 42.8008 90.0563 39.1811C95.2042 35.9331 100.414 34.8132 105.705 39.0084L110.146 35.3503ZM104.261 59.8156C108.558 67.7822 109.84 71.1968 110.074 80.6495C110.365 92.4334 106.792 103.005 96.9923 110.231C85.7568 118.516 72.921 120.205 59.5036 116.97C53.8291 115.603 49.6686 111.752 46.2598 107.094C45.7382 106.382 44.8954 105.359 44.2398 105.389C41.9958 105.49 39.6265 105.225 37.5338 106.347C39.0032 113.558 45.3922 121.135 52.5063 123.928C58.2714 126.114 64.4081 127.155 70.5724 126.993C78.4431 126.85 86.178 124.918 93.1909 121.345C104.427 115.745 112.174 107.192 114.62 94.6177C116.543 84.7227 115.344 75.0066 111.865 65.5805C110.753 62.5655 109.41 59.6335 108.082 56.4531L104.261 59.8156ZM112.324 25.2278L128.188 12.1568L125.029 6.93377C119.091 11.0775 113.325 15.1018 107.384 19.2487C108.668 20.8798 109.693 22.2091 110.75 23.5119C111.207 24.075 111.731 24.586 112.323 25.2278H112.324ZM90.1822 45.6635C90.754 48.0064 91.0009 50.1338 91.7948 52.0362C93.6679 56.5473 97.0481 57.2913 100.874 54.2497C103.487 52.1725 103.89 49.7186 102.171 46.3418C100.918 43.88 98.7116 42.9036 95.7829 43.6984C94.0617 44.1636 92.4125 44.8687 90.1797 45.6635H90.1822ZM70.3534 131.581L69.1644 136.561H85.5658C84.9716 134.021 84.4761 131.904 83.9873 129.816L70.3534 131.581ZM56.8628 144.867C70.3181 145.146 83.7764 145.294 97.3074 143.951C96.5011 143.234 95.6073 142.627 94.7024 142.616C92.4026 142.585 90.0985 142.946 87.7986 142.925C80.3943 142.863 72.9912 142.697 65.5875 142.566C62.5155 142.513 59.4751 142.594 56.8652 144.867H56.8628ZM46.3664 67.4464L32.9815 76.3856L36.4739 80.5194C40.8291 77.4053 45.3507 75.0543 48.6968 70.9682L46.3664 67.4464Z" fill="#000"/>
</svg>
