<svg width="54" height="54" viewBox="0 0 150 150" fill="none" xmlns="http://www.w3.org/2000/svg">
<g clip-path="url(#clip0_246_5107)">
<path d="M0.52646 73.596C0.52646 59.5469 0.564575 45.4955 0.502227 31.4491C0.485049 27.4563 0.134534 23.466 0.0104737 19.4726C-0.315265 8.92707 6.98271 1.18725 18.3136 0.966239C41.9315 0.505269 65.5471 -0.50011 89.179 0.298697C91.6799 0.383314 94.191 0.209649 96.6901 0.318893C98.2042 0.378328 99.7063 0.623118 101.161 1.04764C101.798 1.23072 102.359 1.61265 102.761 2.13683C103.162 2.66101 103.383 3.29952 103.391 3.95801C103.485 5.38702 102.966 6.65448 101.673 7.1887C100.076 7.83988 98.404 8.291 96.6958 8.53184C95.1772 8.67468 93.6496 8.67758 92.131 8.54062C72.4296 7.70203 52.719 7.80053 33.0119 8.15353C27.6906 8.27578 22.3805 8.69488 17.1067 9.40889C13.806 9.83891 10.7859 11.3166 9.50712 14.7689C8.93243 16.1573 8.62095 17.6391 8.58837 19.1398C8.73852 24.8571 9.08983 30.5695 9.37294 36.2836C9.46901 38.226 9.65854 40.1665 9.68017 42.1089C9.87994 59.8316 10.1484 77.5547 10.1974 95.2787C10.2279 106.3 9.85761 117.322 9.79526 128.345C9.86982 131.255 10.1035 134.159 10.4952 137.044C10.6987 138.994 11.7905 140.186 13.8435 140.391C14.4924 140.454 15.1343 140.675 15.7794 140.676C21.8679 140.68 27.9583 140.75 34.0443 140.613C41.771 140.436 49.4927 139.898 57.2194 139.845C76.0579 139.718 94.8979 139.734 113.737 139.787C119.069 139.802 124.399 140.153 129.732 140.325C131.701 140.455 133.658 139.92 135.284 138.809C136.91 137.697 138.11 136.072 138.689 134.199C138.923 133.492 139.039 132.751 139.033 132.007C138.961 126.289 138.476 120.551 138.807 114.858C139.956 95.0975 139.948 75.3243 139.941 55.5471C139.941 53.4942 139.971 51.4388 140.092 49.3903C140.145 48.203 140.335 47.0257 140.659 45.8813C140.828 45.2462 141.193 44.6794 141.702 44.2598C142.211 43.8402 142.84 43.5887 143.5 43.5404C145.033 43.3636 146.444 43.7526 147.099 45.1823C147.757 46.5356 148.172 47.9919 148.328 49.4864C148.809 56.0568 149.143 62.6386 149.512 69.2174C150.668 89.8664 149.488 110.488 148.876 131.116C148.767 133.272 148.363 135.403 147.674 137.451C147.048 139.588 145.926 141.55 144.397 143.178C142.869 144.807 140.976 146.056 138.873 146.827C134.808 148.395 130.48 149.18 126.12 149.14C112.076 149.105 98.0312 149.149 83.9869 149.132C78.6517 149.126 73.3145 148.914 67.9825 149.006C55.3579 149.229 42.7362 149.607 30.1126 149.865C24.9975 149.969 19.8735 150.086 14.7641 149.907C6.64291 149.622 1.49089 144.308 1.384 136.149C1.1098 115.299 0.928442 94.4477 0.709586 73.5973L0.52646 73.596Z" fill="#000"/>
<path d="M60.0047 86.7888C60.1133 85.8785 60.308 84.9791 60.5865 84.103C62.1941 79.7972 63.8083 75.4901 65.6085 71.2575C66.3053 69.7283 67.2408 68.3107 68.3822 67.0547C86.7811 45.991 105.478 25.1856 125.786 5.78744C126.615 4.96497 127.498 4.19529 128.431 3.48329C131.071 1.545 133.819 1.48356 136.464 3.43343C138.074 4.66147 139.601 5.98744 141.037 7.40326C143.57 9.82323 146.018 12.3248 148.522 14.7728C150.753 16.9538 150.22 19.7 148.502 21.517C147.119 22.9803 145.634 24.3521 144.171 25.7422C127.148 41.9223 109.957 57.9432 93.1945 74.3713C88.4228 79.1527 82.9461 83.228 76.9421 86.4656C74.0098 88.0186 70.9942 89.4252 67.9982 90.8635C67.2269 91.2421 66.4164 91.5415 65.5814 91.758C61.9585 92.6585 59.8873 91.0556 60.0047 86.7888ZM83.2291 74.3817L127.368 30.2852L120.679 20.617C105.532 36.355 90.6267 51.8405 75.4999 67.5583C78.2117 69.9539 80.801 72.2403 83.2266 74.3817H83.2291ZM126.15 15.7575L134.191 23.5863L140.403 18.2616C137.723 15.2295 135.253 12.4359 132.681 9.52447L126.15 15.7575ZM71.6057 73.7787C70.7927 75.6005 70.1869 76.9583 69.59 78.2973L72.0377 80.9349L75.7722 78.8344L71.6057 73.7787Z" fill="#000"/>
</g>
<defs>
<clipPath id="clip0_246_5107">
<rect width="150" height="150" fill="white"/>
</clipPath>
</defs>
</svg>
