<svg width="40" height="42" viewBox="0 0 40 42" fill="none" xmlns="http://www.w3.org/2000/svg">
<path 
    d="M18.8022 8.46747V5.92268C17.9628 5.56003 17.1907 5.04907 16.8835 4.06111C16.7044 3.43087 16.7393 2.75835 16.9828 2.15042C17.4412 0.847472 19.0909 -0.126504 20.5915 0.0133758C21.8012 0.126142 22.6267 0.931438 22.7996 2.16686C23.1004 4.316 22.5474 5.34781 20.6304 6.09988C20.5994 6.61052 20.5663 7.15673 20.5228 7.87253C21.0354 7.48156 21.4167 7.17642 21.8128 6.89199C22.3713 6.46244 22.9512 6.06192 23.5502 5.69198C25.4861 4.58469 27.3594 4.79641 29.1723 6.02804C29.9972 6.58842 30.8329 7.1343 31.6822 7.65634C33.2122 8.59852 34.9268 9.19546 36.7075 9.40604C37.1717 9.46716 37.6307 9.56435 38.0801 9.69684C39.6995 10.1596 40.1069 11.6239 38.9044 12.7937C37.2389 14.4142 35.1772 15.2418 32.9091 15.4647C30.5975 15.6757 28.2673 15.5099 26.0079 14.9738C24.4371 14.6151 22.8568 14.2985 21.2795 13.9699C20.9701 13.9053 20.6545 13.8711 20.3038 13.8171V21.709C21.4998 21.2462 22.5704 20.8699 23.3163 19.9503C23.5837 19.6025 23.7725 19.2 23.8693 18.7708C24.0391 18.0588 23.8369 17.835 23.1989 17.4622C22.6728 17.1487 22.1837 16.7757 21.7412 16.3506C21.5745 16.2004 21.4628 15.998 21.4239 15.7761C21.3852 15.5541 21.4215 15.3254 21.5272 15.1268C21.6091 14.9166 21.7621 14.7424 21.9593 14.6352C22.1565 14.528 22.3848 14.4948 22.6041 14.5414C23.1044 14.6403 23.6768 14.7709 24.0432 15.0907C26.766 17.4681 26.2887 20.6052 23.9815 22.3749C23.519 22.7303 23.0096 23.0259 22.4529 23.3948C22.715 23.4829 22.9255 23.5559 23.1381 23.6245C24.1818 23.9334 25.1506 24.4567 25.9837 25.1614C27.3699 26.3837 27.5169 27.945 26.3754 29.3969C25.3646 30.6831 24.0131 31.4964 22.5274 32.1045C22.102 32.2785 21.6672 32.429 21.1241 32.6324C21.5157 32.9144 21.8265 33.1147 22.1109 33.3477C23.1755 34.2196 23.8412 35.2671 23.5178 36.7284C23.4319 37.1187 23.2641 37.4857 23.0254 37.805C22.7869 38.1241 22.4832 38.3882 22.1349 38.579C21.7446 38.8133 21.3924 39.1117 20.9648 39.4236C21.4777 39.6602 21.8899 39.8122 22.2629 40.0339C22.5956 40.2323 22.9036 40.5204 22.7215 40.9734C22.5447 41.4132 22.1443 41.47 21.7568 41.3481C21.0926 41.1391 20.4453 40.8763 19.7493 40.6209C19.5296 41.1782 19.5485 42.0012 18.7755 42C18.418 42 18.0613 41.5305 17.6129 41.2084C17.3856 41.2909 17.0123 41.4512 16.6248 41.5598C16.3039 41.6498 15.9462 41.6489 15.7903 41.2845C15.6376 40.9276 15.8658 40.6515 16.1425 40.4615C16.5491 40.1824 16.9789 39.9377 17.302 39.7381C16.5081 39.2848 15.6723 38.8646 14.8959 38.3528C12.8914 37.0313 13.1746 34.8874 14.3089 33.5205C14.4774 33.3175 14.6638 33.1294 14.9121 32.8577C13.1818 31.877 11.6864 30.6872 11.662 28.4992C11.6386 26.3767 12.8049 24.9122 14.5943 23.7904C14.3544 23.5939 14.1729 23.4649 14.0144 23.3117C13.6399 22.9831 13.2895 22.6275 12.9659 22.2476C11.863 20.8157 11.7558 19.3017 12.6445 17.7059C13.3812 16.3819 14.4851 15.5082 15.8264 14.9004C16.4015 14.6398 16.8516 14.7494 17.1562 15.1796C17.235 15.2879 17.2914 15.411 17.322 15.5417C17.3526 15.6724 17.3569 15.8079 17.3345 15.9403C17.3121 16.0726 17.2636 16.1991 17.1918 16.3122C17.1199 16.4252 17.0263 16.5226 16.9164 16.5984C16.4696 16.9317 15.9832 17.2073 15.4685 17.4188C15.1123 17.5532 14.7933 17.7717 14.5382 18.0561C14.2832 18.3405 14.0998 18.6824 14.0031 19.0532C13.924 19.307 13.8969 19.5744 13.9234 19.8389C13.9499 20.1037 14.0295 20.3601 14.1573 20.5927C14.7937 21.7786 15.8876 22.349 17.1003 22.6478C17.5273 22.7529 18.05 22.4637 18.6213 22.3335C18.6955 19.5637 18.7686 16.8354 18.8449 13.9901C18.5171 13.9947 18.1899 14.0174 17.8646 14.0582C15.5004 14.4928 13.1377 14.928 10.7788 15.3879C8.63821 15.8046 6.49744 16.1148 4.32443 15.648C3.16802 15.3996 2.05748 15.0349 1.13596 14.2492C0.619948 13.8088 0.221283 13.2774 0.483058 12.5568C0.600738 12.1972 0.822229 11.8813 1.11906 11.6493C1.70569 11.2621 2.33074 10.9377 2.98417 10.6812C5.24164 9.78874 7.32297 8.61391 9.1345 6.97456C9.52682 6.6195 9.94217 6.28986 10.3525 5.9557C11.23 5.24041 12.2167 5.03249 13.3233 5.25958C14.9851 5.6003 16.3225 6.55145 17.6496 7.52732C18.0181 7.79793 18.3616 8.1062 18.8022 8.46747ZM20.2322 12.256C21.7302 12.4855 23.1191 12.6704 24.4981 12.9156C26.8045 13.3275 29.1016 13.7501 31.4659 13.6686C33.2286 13.6146 34.9468 13.0971 36.4498 12.1674C36.6578 12.0159 36.8553 11.8503 37.041 11.6719C36.3268 11.5217 35.7261 11.4291 35.1447 11.2673C32.6871 10.5833 30.4875 9.38204 28.4547 7.84682C26.938 6.70136 25.8595 6.67079 24.269 7.69934C24.0211 7.85632 23.7819 8.02673 23.5524 8.20982C22.6413 8.95049 21.7549 9.72328 20.8214 10.4336C20.4539 10.713 20.2677 11.0034 20.2846 11.4592C20.2812 11.7257 20.2639 11.9918 20.2322 12.2565V12.256ZM18.9446 11.2271C18.2653 10.7169 17.7325 10.362 17.2509 9.94672C16.1277 8.95403 14.8622 8.13803 13.4972 7.5263C12.5332 7.10615 11.6577 7.16505 10.8371 7.95235C8.55972 10.1371 5.89971 11.7094 2.95439 12.8039C2.66102 12.9392 2.37591 13.0919 2.10055 13.2614C2.67824 13.5161 3.06679 13.7174 3.47487 13.8622C5.2948 14.508 7.1527 14.4838 9.01596 14.1105C11.3116 13.6511 13.5977 13.1521 15.8927 12.6944C16.8895 12.4955 17.8971 12.3567 18.9446 12.1833V11.2271ZM18.5403 25.0618C17.2383 25.0639 15.184 26.0451 14.4828 26.968C13.7088 27.9868 13.699 29.2475 14.6621 29.9574C15.4913 30.5691 16.4839 30.9796 17.4471 31.3735C17.9653 31.585 18.3326 31.2543 18.3648 30.6777C18.4382 29.357 18.4902 28.0355 18.5362 26.7131C18.5562 26.1624 18.5403 25.6111 18.5403 25.0618ZM20.3818 30.6105C21.0367 30.3631 21.6468 30.1688 22.2259 29.9056C23.1654 29.4785 24.0302 28.9254 24.6952 28.112C25.16 27.5435 25.1578 27.2116 24.6283 26.746C23.4338 25.6954 21.9925 25.3407 20.3818 25.2423V30.6105ZM18.0883 33.9953C17.009 33.8538 15.7935 34.6688 15.6085 35.5367C15.5631 35.7244 15.5727 35.9215 15.6362 36.1036C15.6996 36.286 15.8142 36.4457 15.966 36.5637C16.538 37.0524 17.1238 37.5245 17.8005 38.0834C17.9014 36.65 17.9931 35.3483 18.0883 33.996V33.9953ZM20.9946 3.33923C21.0026 2.2062 20.5976 1.84151 19.3767 1.76052C18.8252 1.72391 18.4466 2.00728 18.3047 2.98834C18.1904 3.77753 18.8322 4.35259 19.8276 4.41614C20.7416 4.47538 20.9889 4.24779 20.9946 3.33995V3.33923ZM20.0112 34.7656C19.9516 35.3555 19.8695 35.9356 19.8399 36.5184C19.8104 37.111 19.8334 37.706 19.8334 38.3873C20.5553 37.971 20.8748 37.4059 21.1133 36.764C21.5176 35.6785 21.237 35.1359 20.0112 34.7663V34.7656Z" 
    fill="#000"
/>
</svg>
