<svg width="54" height="54" viewBox="0 0 150 150" fill="none" xmlns="http://www.w3.org/2000/svg">
<path d="M85.6094 77.5268C87.1636 83.0637 89.9263 87.5339 92.9041 91.9965C95.4336 95.7878 98.4435 97.1604 103.036 96.8915C109.587 96.5072 110.602 97.7524 111.106 104.321C111.48 109.198 111.826 114.077 112.214 119.344C113.664 119.344 114.925 119.344 116.192 119.344C120.343 119.344 123.536 122.207 123.708 126.133C123.856 129.539 124.308 132.934 124.627 136.33C124.885 139.079 125.317 141.826 125.36 144.579C125.423 148.734 123.877 150.105 119.65 149.994C107.898 149.682 96.1486 149.154 84.3957 149.09C69.406 149.009 54.414 149.299 39.423 149.429C37.2655 149.448 35.1053 149.541 32.9509 149.462C29.3477 149.329 27.31 147.269 27.5073 143.722C27.8226 138.083 28.3112 132.452 28.7683 126.821C28.9688 124.348 30.0773 122.574 32.7758 122.146C35.4087 121.728 38.0365 121.277 41.1303 120.764C41.3157 118.719 41.5717 116.423 41.7211 114.122C41.9386 110.715 42.0514 107.302 42.2557 103.893C42.5343 99.2591 44.2038 97.36 48.8391 96.7187C51.5016 96.3487 54.2077 96.2607 56.8973 96.1097C58.0038 96.0473 59.017 96.0405 59.6223 94.862C62.2545 89.733 65.2646 84.7726 66.7689 79.1451C66.9208 78.3915 67.026 77.6297 67.0842 76.8636C66.2803 76.5766 65.5999 76.3058 64.9019 76.0894C57.7535 73.8683 51.4324 69.5972 46.7397 63.8176C45.5242 62.3583 44.151 61.8686 42.3585 61.5616C32.337 59.8472 23.0518 56.3253 15.0699 49.9305C9.87663 45.7699 6.3692 40.5461 5.24694 33.8968C3.38008 22.7954 12.3486 11.8782 23.691 11.5694C27.4512 11.4671 31.2171 11.5531 35.0801 11.5531C35.6135 9.43628 36.0081 7.68498 36.4974 5.96556C37.2824 3.20489 38.6108 1.09246 42.0199 1.16171C43.3943 1.19103 44.7757 0.615868 46.1571 0.600271C66.7579 0.365279 87.359 0.165119 107.96 0C109.248 0.0187857 110.531 0.175476 111.784 0.467303C114.632 1.06561 116.197 2.96784 116.85 5.67861C117.102 6.7149 117.286 7.76621 117.562 9.11379C118.39 9.11379 119.214 9.12377 120.038 9.11379C123.704 9.05951 127.37 8.95845 131.036 8.95034C139.064 8.93224 145.686 14.9951 144.943 24.4138C143.543 42.1552 129.766 55.913 114.411 58.597C114.31 58.6331 114.203 58.654 114.095 58.6593C110.001 58.0298 108.282 60.5872 106.302 63.6055C101.538 70.8575 94.7439 75.5659 85.6094 77.5268ZM42.791 6.51345C42.6428 7.39313 42.5306 7.90589 42.4719 8.42559C41.1075 21.0849 42.3953 33.8865 46.2548 46.0313C50.3883 59.3693 59.423 67.793 73.8547 69.6316C83.0194 70.8001 91.3329 69.1019 97.5136 61.6946C99.4901 59.3069 101.152 56.6803 102.459 53.8779C109.016 39.8611 110.806 25.11 108.897 9.85796C108.771 8.84165 108.469 7.84669 108.178 6.51345H42.791ZM34.4225 128.308C34.8991 133.316 35.3392 137.941 35.795 142.739C37.2452 142.739 38.3006 142.779 39.3541 142.732C47.9634 142.358 56.5702 141.72 65.1819 141.634C81.2402 141.475 97.3011 141.634 113.361 141.654C114.286 141.654 115.21 141.564 116.241 141.51C116.727 136.701 117.183 132.19 117.666 127.41L34.4225 128.308ZM101.144 119.557C101.6 114.446 102.587 109.706 102.594 104.672C84.7166 104.301 67.2448 102.795 49.3366 103.633C49.9671 109.458 50.5673 114.988 51.1694 120.546L101.144 119.557ZM34.7662 17.6522C30.7589 18.2094 27.1637 18.7646 23.5536 19.1944C19.9088 19.6311 17.4947 21.6276 15.7747 24.707C12.9609 29.7511 13.5264 34.668 16.8466 39.0926C22.4402 46.5511 30.6371 49.8327 39.8018 52.448C35.7938 40.9866 34.9655 29.5896 34.7662 17.6522ZM113.257 48.9223C122.831 46.0625 129.126 40.5674 132.904 32.4519C134.266 29.3376 135.158 26.0422 135.552 22.6713C135.993 19.4477 134.446 17.493 131.585 17.0519C127.127 16.3694 122.641 16.8648 117.913 16.8025C118.516 27.7081 116.933 38.6238 113.257 48.9223ZM78.3916 78.2118L73.9247 77.9822C71.8214 84.022 69.8114 89.7917 67.7014 95.8496H85.2696L78.3916 78.2118Z" fill="#000"/>
</svg>
