<svg width="70" height="70" viewBox="0 0 70 70" fill="none" xmlns="http://www.w3.org/2000/svg">
<rect width="70" height="70" rx="18" fill="white"/>
<path d="M36.9688 19.25H33.0312C32.8572 19.25 32.6903 19.1809 32.5672 19.0578C32.4441 18.9347 32.375 18.7678 32.375 18.5938C32.375 18.4197 32.4441 18.2528 32.5672 18.1297C32.6903 18.0066 32.8572 17.9375 33.0312 17.9375H36.9688C37.1428 17.9375 37.3097 18.0066 37.4328 18.1297C37.5559 18.2528 37.625 18.4197 37.625 18.5938C37.625 18.7678 37.5559 18.9347 37.4328 19.0578C37.3097 19.1809 37.1428 19.25 36.9688 19.25ZM42.2188 54.6875H27.7812C26.9113 54.6865 26.0773 54.3404 25.4622 53.7253C24.8471 53.1102 24.501 52.2762 24.5 51.4062V29.0938C24.5 28.9197 24.5691 28.7528 24.6922 28.6297C24.8153 28.5066 24.9822 28.4375 25.1562 28.4375C25.3303 28.4375 25.4972 28.5066 25.6203 28.6297C25.7434 28.7528 25.8125 28.9197 25.8125 29.0938V51.4062C25.8125 52.4917 26.6958 53.375 27.7812 53.375H42.2188C43.3042 53.375 44.1875 52.4917 44.1875 51.4062V29.0938C44.1875 28.9197 44.2566 28.7528 44.3797 28.6297C44.5028 28.5066 44.6697 28.4375 44.8438 28.4375C45.0178 28.4375 45.1847 28.5066 45.3078 28.6297C45.4309 28.7528 45.5 28.9197 45.5 29.0938V51.4062C45.5 53.2149 44.0287 54.6875 42.2188 54.6875Z" fill="#1686FF"/>
<path d="M44.8438 33.6875C44.6697 33.6875 44.5028 33.6184 44.3797 33.4953C44.2566 33.3722 44.1875 33.2053 44.1875 33.0313V18.5938C44.1875 17.5083 43.3042 16.625 42.2188 16.625H27.7812C26.6958 16.625 25.8125 17.5083 25.8125 18.5938V33.0313C25.8125 33.2053 25.7434 33.3722 25.6203 33.4953C25.4972 33.6184 25.3303 33.6875 25.1562 33.6875C24.9822 33.6875 24.8153 33.6184 24.6922 33.4953C24.5691 33.3722 24.5 33.2053 24.5 33.0313V18.5938C24.5 16.7851 25.9713 15.3125 27.7812 15.3125H42.2188C44.0287 15.3125 45.5 16.7851 45.5 18.5938V33.0313C45.5 33.2053 45.4309 33.3722 45.3078 33.4953C45.1847 33.6184 45.0178 33.6875 44.8438 33.6875Z" fill="#1686FF"/>
<path d="M46.6038 49.4375C46.5059 49.4375 46.4093 49.4157 46.3209 49.3735C46.2326 49.3313 46.1548 49.2699 46.0932 49.1938C46.0317 49.1176 45.988 49.0287 45.9653 48.9335C45.9426 48.8382 45.9414 48.7392 45.962 48.6434L46.3951 46.6353C46.421 46.5147 46.4804 46.4039 46.5666 46.3156C46.6527 46.2274 46.7621 46.1653 46.8821 46.1366C47.5154 45.9813 48.1207 45.7285 48.6762 45.3871C48.781 45.3232 48.9016 45.2899 49.0243 45.2911C49.1471 45.2922 49.267 45.3278 49.3706 45.3937L50.6699 46.2245L51.4745 45.4134L50.6437 44.1245C50.577 44.0209 50.5408 43.9006 50.5392 43.7773C50.5375 43.6541 50.5706 43.5329 50.6345 43.4276C50.976 42.8722 51.2284 42.2668 51.3826 41.6334C51.4115 41.5138 51.4733 41.4047 51.5609 41.3184C51.6486 41.2321 51.7587 41.1721 51.8788 41.1451L53.375 40.8131V39.6883L51.8801 39.3562C51.76 39.3292 51.6499 39.2692 51.5623 39.1829C51.4746 39.0966 51.4128 38.9875 51.3839 38.8679C51.2291 38.2347 50.9767 37.6294 50.6358 37.0738C50.5714 36.9689 50.5379 36.8479 50.5393 36.7248C50.5407 36.6017 50.5769 36.4815 50.6437 36.3781L51.4758 35.0774L50.6726 34.2742L49.3719 35.1063C49.2684 35.1725 49.1485 35.2083 49.0257 35.2094C48.9029 35.2106 48.7822 35.1771 48.6776 35.1129C48.1217 34.772 47.5165 34.5192 46.8834 34.3634C46.7634 34.3347 46.654 34.2726 46.5679 34.1844C46.4817 34.0961 46.4223 33.9853 46.3964 33.8647L46.0736 32.375H45.5C45.326 32.375 45.159 32.3059 45.036 32.1828C44.9129 32.0597 44.8438 31.8928 44.8438 31.7188C44.8438 31.5447 44.9129 31.3778 45.036 31.2547C45.159 31.1316 45.326 31.0625 45.5 31.0625H46.6025C46.7524 31.0628 46.8977 31.1143 47.0143 31.2087C47.1308 31.303 47.2115 31.4344 47.243 31.5809L47.5934 33.1993C48.0738 33.3449 48.545 33.5418 48.9991 33.7873L50.4087 32.8856C50.5348 32.805 50.6846 32.77 50.8333 32.7862C50.982 32.8024 51.1207 32.869 51.2264 32.9748L52.7765 34.5236C52.8821 34.6294 52.9485 34.7682 52.9644 34.9169C52.9804 35.0656 52.9452 35.2153 52.8644 35.3413L51.9627 36.7509C52.2082 37.2063 52.4051 37.6775 52.5507 38.1592L54.1717 38.5188C54.4736 38.5857 54.6875 38.8535 54.6875 39.1606V41.3394C54.6874 41.4888 54.6364 41.6336 54.5429 41.7501C54.4493 41.8666 54.3188 41.9476 54.173 41.9799L52.5521 42.3395C52.4039 42.8271 52.2069 43.2985 51.9641 43.7465L52.8644 45.143C52.946 45.2685 52.982 45.4181 52.9664 45.5669C52.9509 45.7158 52.8848 45.8547 52.7791 45.9607L51.2291 47.5226C51.1233 47.6287 50.9844 47.6956 50.8355 47.712C50.6866 47.7285 50.5365 47.6936 50.4101 47.6131L49.0004 46.7114C48.5527 46.9538 48.0818 47.1508 47.5948 47.2994L47.2443 48.9177C47.2129 49.0645 47.1322 49.196 47.0157 49.2905C46.8992 49.3851 46.7539 49.4369 46.6038 49.4375Z" fill="#1686FF"/>
<path d="M47.3257 43.6339C47.1852 43.6337 47.0484 43.5883 46.9356 43.5045C46.8228 43.4207 46.7398 43.3029 46.699 43.1684C46.6581 43.034 46.6615 42.8899 46.7086 42.7575C46.7558 42.6251 46.8442 42.5114 46.9608 42.433C47.4646 42.0935 47.8351 41.59 48.0094 41.0081C48.1838 40.4262 48.1511 39.8019 47.9171 39.2414C47.683 38.6809 47.2619 38.2188 46.7255 37.9337C46.1892 37.6486 45.5706 37.5582 44.975 37.6778C44.8906 37.6951 44.8035 37.6956 44.7189 37.6793C44.6342 37.663 44.5536 37.6302 44.4816 37.5827C44.4097 37.5352 44.3477 37.474 44.2994 37.4026C44.2511 37.3312 44.2173 37.251 44.2 37.1666C44.1827 37.0821 44.1821 36.9951 44.1985 36.9104C44.2148 36.8258 44.2476 36.7451 44.2951 36.6732C44.3426 36.6012 44.4037 36.5393 44.4751 36.491C44.5465 36.4426 44.6268 36.4089 44.7112 36.3915C45.2833 36.2755 45.8741 36.288 46.4408 36.4281C47.0075 36.5681 47.5361 36.8323 47.9883 37.2015C48.4405 37.5707 48.8051 38.0357 49.0557 38.563C49.3063 39.0902 49.4367 39.6665 49.4375 40.2503C49.4377 40.8972 49.2783 41.5343 48.9736 42.105C48.6689 42.6757 48.2282 43.1625 47.6906 43.5223C47.5827 43.5949 47.4557 43.6338 47.3257 43.6339ZM24.5 33.6878C23.654 33.6889 22.8302 33.4174 22.1506 32.9136C21.471 32.4098 20.9718 31.7004 20.727 30.8906C20.4822 30.0808 20.5048 29.2136 20.7915 28.4177C21.0782 27.6218 21.6137 26.9394 22.3186 26.4717C22.4635 26.3812 22.6378 26.3508 22.8047 26.3868C22.9715 26.4229 23.1178 26.5225 23.2124 26.6646C23.307 26.8067 23.3426 26.9801 23.3114 27.1479C23.2803 27.3158 23.185 27.4649 23.0458 27.5637C22.5421 27.9018 22.1709 28.4038 21.9952 28.9845C21.8196 29.5653 21.8503 30.1889 22.0821 30.7495C22.314 31.3101 22.7327 31.7733 23.2672 32.0603C23.8017 32.3473 24.4191 32.4405 25.0145 32.3241C25.1852 32.2904 25.3623 32.3256 25.5071 32.422C25.6519 32.5184 25.7528 32.6681 25.7876 32.8386C25.8046 32.9231 25.8048 33.0101 25.7881 33.0946C25.7715 33.1791 25.7383 33.2595 25.6905 33.3312C25.6427 33.4029 25.5812 33.4645 25.5096 33.5124C25.438 33.5603 25.3576 33.5936 25.2731 33.6103C25.0187 33.6622 24.7597 33.6881 24.5 33.6878Z" fill="#1686FF"/>
<path d="M24.5 38.9371H23.3975C23.2476 38.9368 23.1023 38.8852 22.9857 38.7909C22.8692 38.6966 22.7885 38.5652 22.757 38.4186L22.4066 36.8003C21.9195 36.652 21.4485 36.455 21.0009 36.2123L19.5913 37.114C19.4652 37.1946 19.3154 37.2296 19.1667 37.2134C19.018 37.1972 18.8793 37.1306 18.7736 37.0248L17.2235 35.476C17.1179 35.3701 17.0516 35.2314 17.0356 35.0827C17.0196 34.934 17.0548 34.7842 17.1356 34.6583L18.0373 33.2487C17.7946 32.8001 17.5976 32.3283 17.4492 31.8404L15.8283 31.4808C15.6821 31.4485 15.5513 31.3673 15.4575 31.2506C15.3637 31.1339 15.3126 30.9887 15.3125 30.839V28.6602C15.3126 28.5108 15.3636 28.3659 15.4571 28.2495C15.5507 28.133 15.6811 28.052 15.827 28.0197L17.4479 27.6601C17.5936 27.1784 17.7905 26.7072 18.0359 26.2531L17.1369 24.8553C17.0554 24.7298 17.0194 24.5802 17.0349 24.4313C17.0504 24.2825 17.1165 24.1435 17.2222 24.0376L18.7722 22.4757C18.8776 22.3689 19.0166 22.3016 19.1657 22.2851C19.3148 22.2686 19.4651 22.3039 19.5913 22.3851L21.0009 23.2868C21.4487 23.0444 21.9196 22.8475 22.4066 22.6988L22.757 21.0805C22.7729 20.9941 22.806 20.9117 22.8543 20.8383C22.9026 20.7649 22.9652 20.702 23.0383 20.6532C23.1115 20.6045 23.1936 20.5709 23.28 20.5545C23.3663 20.5381 23.4551 20.5392 23.541 20.5578C23.6269 20.5763 23.7082 20.6119 23.78 20.6625C23.8519 20.7131 23.9129 20.7776 23.9594 20.8521C24.0059 20.9267 24.0369 21.0099 24.0506 21.0967C24.0643 21.1835 24.0605 21.2722 24.0393 21.3575L23.6062 23.3656C23.5804 23.4862 23.5209 23.597 23.4348 23.6853C23.3486 23.7735 23.2392 23.8356 23.1192 23.8643C22.4856 24.0198 21.8799 24.2727 21.3238 24.6138C21.219 24.6777 21.0984 24.711 20.9757 24.7098C20.8529 24.7087 20.733 24.6731 20.6294 24.6072L19.3301 23.7764L18.5242 24.5875L19.355 25.8764C19.4223 25.9798 19.4589 26.1002 19.4605 26.2235C19.4621 26.3469 19.4287 26.4682 19.3642 26.5733C19.0227 27.1287 18.7703 27.7341 18.6161 28.3675C18.5872 28.4871 18.5254 28.5962 18.4377 28.6825C18.3501 28.7688 18.24 28.8288 18.1199 28.8558L16.625 29.1865V30.3113L18.1199 30.6434C18.24 30.6703 18.3501 30.7304 18.4377 30.8167C18.5254 30.9029 18.5872 31.0121 18.6161 31.1316C18.7644 31.7511 19.0177 32.3549 19.3642 32.9258C19.4954 33.1398 19.4928 33.4101 19.3563 33.6215L18.5242 34.9208L19.3274 35.7241L20.6281 34.892C20.7318 34.8263 20.8517 34.791 20.9743 34.7898C21.097 34.7886 21.2176 34.8217 21.3224 34.8854C21.8947 35.2332 22.4984 35.4852 23.1166 35.6348C23.2366 35.6636 23.346 35.7256 23.4321 35.8139C23.5183 35.9021 23.5777 36.013 23.6036 36.1336L23.9264 37.6246H24.5C24.674 37.6246 24.841 37.6937 24.964 37.8168C25.0871 37.9399 25.1562 38.1068 25.1562 38.2808C25.1562 38.4549 25.0871 38.6218 24.964 38.7449C24.841 38.8679 24.674 38.9371 24.5 38.9371ZM34.3438 38.2808C34.244 38.2811 34.1455 38.2585 34.0558 38.2149C33.966 38.1712 33.8875 38.1077 33.8261 38.029C33.7647 37.9504 33.722 37.8588 33.7014 37.7612C33.6808 37.6635 33.6828 37.5625 33.7072 37.4658L35.0197 32.2158C35.0399 32.1318 35.0767 32.0528 35.1278 31.9832C35.1789 31.9135 35.2433 31.8548 35.3173 31.8103C35.3914 31.7659 35.4735 31.7366 35.5589 31.7242C35.6444 31.7118 35.7314 31.7165 35.8151 31.738C35.8987 31.7587 35.9775 31.7958 36.0468 31.847C36.1161 31.8982 36.1747 31.9626 36.2191 32.0365C36.2635 32.1104 36.2928 32.1923 36.3055 32.2776C36.3181 32.3629 36.3138 32.4498 36.2928 32.5334L34.9803 37.7834C34.9453 37.9257 34.8635 38.052 34.7481 38.1422C34.6326 38.2324 34.4903 38.2813 34.3438 38.2808ZM38.2812 38.2808C38.1516 38.2808 38.0248 38.2423 37.9169 38.1703C37.8091 38.0983 37.725 37.9959 37.6753 37.8761C37.6255 37.7563 37.6124 37.6245 37.6376 37.4973C37.6628 37.37 37.7251 37.2531 37.8166 37.1613L39.9783 34.9996L37.8179 32.8392C37.6984 32.7154 37.6322 32.5497 37.6337 32.3776C37.6352 32.2055 37.7043 32.0409 37.8259 31.9193C37.9476 31.7976 38.1122 31.7286 38.2843 31.7271C38.4563 31.7256 38.6221 31.7917 38.7459 31.9113L41.3709 34.5363C41.4939 34.6593 41.563 34.8262 41.563 35.0002C41.563 35.1743 41.4939 35.3411 41.3709 35.4642L38.7459 38.0892C38.6224 38.212 38.4554 38.2809 38.2812 38.2808ZM31.7188 38.2808C31.5446 38.2809 31.3776 38.212 31.2541 38.0892L28.6291 35.4642C28.5061 35.3411 28.437 35.1743 28.437 35.0002C28.437 34.8262 28.5061 34.6593 28.6291 34.5363L31.2541 31.9113C31.3779 31.7917 31.5437 31.7256 31.7157 31.7271C31.8878 31.7286 32.0524 31.7976 32.1741 31.9193C32.2957 32.0409 32.3648 32.2055 32.3663 32.3776C32.3678 32.5497 32.3016 32.7154 32.1821 32.8392L30.0217 34.9996L32.1821 37.16C32.274 37.2517 32.3367 37.3686 32.3621 37.4959C32.3876 37.6232 32.3747 37.7553 32.3251 37.8753C32.2755 37.9953 32.1914 38.0979 32.0835 38.1701C31.9755 38.2423 31.8486 38.2808 31.7188 38.2808Z" fill="#1686FF"/>
</svg>
