<svg width="170" height="52" viewBox="0 0 170 52" fill="none" xmlns="http://www.w3.org/2000/svg">
<rect x="0.5" y="0.5" width="169" height="51" rx="9.5" fill="white"/>
<rect x="0.5" y="0.5" width="169" height="51" rx="9.5" stroke="#212529"/>
<path d="M32.0454 25.4221C32.0747 23.1834 33.2977 21.0652 35.2378 19.8926C34.0139 18.1742 31.9639 17.0847 29.8311 17.0191C27.5563 16.7844 25.3509 18.3573 24.1917 18.3573C23.0101 18.3573 21.2253 17.0424 19.3034 17.0813C16.7983 17.1609 14.4629 18.561 13.2441 20.7141C10.6242 25.1734 12.5784 31.727 15.0881 35.3315C16.3437 37.0965 17.8112 39.0681 19.7314 38.9982C21.6104 38.9216 22.3122 37.8203 24.5803 37.8203C26.8273 37.8203 27.4857 38.9982 29.4449 38.9537C31.4611 38.9216 32.7315 37.1809 33.9431 35.3991C34.8452 34.1415 35.5394 32.7515 36 31.2807C33.6305 30.2955 32.0482 27.9513 32.0454 25.4221Z" fill="#212529"/>
<path d="M28.3449 14.6486C29.4443 13.3512 29.9859 11.6836 29.8547 10C28.1752 10.1734 26.6237 10.9626 25.5095 12.2102C24.42 13.4292 23.853 15.0674 23.9602 16.6867C25.6403 16.7037 27.2921 15.936 28.3449 14.6486Z" fill="#212529"/>
<path d="M46.21 20C46.1293 20 46.067 19.978 46.023 19.934C45.979 19.8827 45.957 19.8203 45.957 19.747V12.564C45.957 12.4833 45.979 12.421 46.023 12.377C46.067 12.3257 46.1293 12.3 46.21 12.3H49.224C49.774 12.3 50.2213 12.3917 50.566 12.575C50.918 12.751 51.1747 12.993 51.336 13.301C51.5047 13.609 51.589 13.9537 51.589 14.335C51.589 14.6357 51.5377 14.896 51.435 15.116C51.3397 15.3287 51.2187 15.5047 51.072 15.644C50.9253 15.776 50.7823 15.8787 50.643 15.952C50.929 16.0913 51.182 16.3187 51.402 16.634C51.6293 16.9493 51.743 17.3307 51.743 17.778C51.743 18.1813 51.6513 18.5517 51.468 18.889C51.2847 19.2263 51.0097 19.4977 50.643 19.703C50.2837 19.901 49.8363 20 49.301 20H46.21ZM47.035 19.109H49.158C49.6347 19.109 50.0013 18.9807 50.258 18.724C50.5147 18.4673 50.643 18.152 50.643 17.778C50.643 17.3893 50.5147 17.0703 50.258 16.821C50.0013 16.5643 49.6347 16.436 49.158 16.436H47.035V19.109ZM47.035 15.556H49.059C49.5283 15.556 49.884 15.4497 50.126 15.237C50.368 15.017 50.489 14.72 50.489 14.346C50.489 13.972 50.368 13.686 50.126 13.488C49.884 13.29 49.5283 13.191 49.059 13.191H47.035V15.556ZM55.7687 20.11C55.0133 20.11 54.412 19.879 53.9647 19.417C53.5173 18.9477 53.2717 18.3097 53.2277 17.503C53.2203 17.4077 53.2167 17.2867 53.2167 17.14C53.2167 16.986 53.2203 16.8613 53.2277 16.766C53.257 16.2453 53.378 15.7907 53.5907 15.402C53.8033 15.006 54.093 14.7017 54.4597 14.489C54.8337 14.2763 55.27 14.17 55.7687 14.17C56.326 14.17 56.7917 14.2873 57.1657 14.522C57.547 14.7567 57.8367 15.0903 58.0347 15.523C58.2327 15.9557 58.3317 16.4617 58.3317 17.041V17.228C58.3317 17.3087 58.306 17.371 58.2547 17.415C58.2107 17.459 58.152 17.481 58.0787 17.481H54.2727C54.2727 17.4883 54.2727 17.503 54.2727 17.525C54.2727 17.547 54.2727 17.5653 54.2727 17.58C54.2873 17.8807 54.3533 18.163 54.4707 18.427C54.588 18.6837 54.7567 18.8927 54.9767 19.054C55.1967 19.2153 55.4607 19.296 55.7687 19.296C56.0327 19.296 56.2527 19.2557 56.4287 19.175C56.6047 19.0943 56.7477 19.0063 56.8577 18.911C56.9677 18.8083 57.041 18.7313 57.0777 18.68C57.1437 18.5847 57.195 18.5297 57.2317 18.515C57.2683 18.493 57.327 18.482 57.4077 18.482H57.9357C58.009 18.482 58.0677 18.504 58.1117 18.548C58.163 18.5847 58.185 18.6397 58.1777 18.713C58.1703 18.823 58.1117 18.9587 58.0017 19.12C57.8917 19.274 57.734 19.428 57.5287 19.582C57.3233 19.736 57.074 19.8643 56.7807 19.967C56.4873 20.0623 56.15 20.11 55.7687 20.11ZM54.2727 16.722H57.2867V16.689C57.2867 16.359 57.2243 16.0657 57.0997 15.809C56.9823 15.5523 56.81 15.3507 56.5827 15.204C56.3553 15.05 56.084 14.973 55.7687 14.973C55.4533 14.973 55.182 15.05 54.9547 15.204C54.7347 15.3507 54.566 15.5523 54.4487 15.809C54.3313 16.0657 54.2727 16.359 54.2727 16.689V16.722ZM61.9569 20.11C61.5463 20.11 61.1943 20.0587 60.9009 19.956C60.6076 19.8533 60.3693 19.7287 60.1859 19.582C60.0026 19.4353 59.8633 19.2887 59.7679 19.142C59.6799 18.9953 59.6323 18.878 59.6249 18.79C59.6176 18.7093 59.6433 18.647 59.7019 18.603C59.7606 18.559 59.8193 18.537 59.8779 18.537H60.3619C60.4059 18.537 60.4389 18.5443 60.4609 18.559C60.4903 18.5663 60.5269 18.5957 60.5709 18.647C60.6663 18.7497 60.7726 18.8523 60.8899 18.955C61.0073 19.0577 61.1503 19.142 61.3189 19.208C61.4949 19.274 61.7113 19.307 61.9679 19.307C62.3419 19.307 62.6499 19.2373 62.8919 19.098C63.1339 18.9513 63.2549 18.7387 63.2549 18.46C63.2549 18.2767 63.2036 18.13 63.1009 18.02C63.0056 17.91 62.8296 17.811 62.5729 17.723C62.3236 17.635 61.9789 17.5433 61.5389 17.448C61.0989 17.3453 60.7506 17.2207 60.4939 17.074C60.2373 16.92 60.0539 16.7403 59.9439 16.535C59.8339 16.3223 59.7789 16.084 59.7789 15.82C59.7789 15.5487 59.8596 15.2883 60.0209 15.039C60.1823 14.7823 60.4169 14.5733 60.7249 14.412C61.0403 14.2507 61.4326 14.17 61.9019 14.17C62.2833 14.17 62.6096 14.2177 62.8809 14.313C63.1523 14.4083 63.3759 14.5293 63.5519 14.676C63.7279 14.8153 63.8599 14.9547 63.9479 15.094C64.0359 15.2333 64.0836 15.3507 64.0909 15.446C64.0983 15.5193 64.0763 15.5817 64.0249 15.633C63.9736 15.677 63.9149 15.699 63.8489 15.699H63.3869C63.3356 15.699 63.2916 15.688 63.2549 15.666C63.2256 15.644 63.1963 15.6183 63.1669 15.589C63.0936 15.4937 63.0056 15.3983 62.9029 15.303C62.8076 15.2077 62.6793 15.1307 62.5179 15.072C62.3639 15.006 62.1586 14.973 61.9019 14.973C61.5353 14.973 61.2603 15.05 61.0769 15.204C60.8936 15.358 60.8019 15.5523 60.8019 15.787C60.8019 15.9263 60.8423 16.051 60.9229 16.161C61.0036 16.271 61.1576 16.37 61.3849 16.458C61.6123 16.546 61.9496 16.6413 62.3969 16.744C62.8809 16.8393 63.2623 16.9677 63.5409 17.129C63.8196 17.2903 64.0176 17.4773 64.1349 17.69C64.2523 17.9027 64.3109 18.1483 64.3109 18.427C64.3109 18.735 64.2193 19.0173 64.0359 19.274C63.8599 19.5307 63.5959 19.736 63.2439 19.89C62.8993 20.0367 62.4703 20.11 61.9569 20.11ZM68.0484 20.11C67.579 20.11 67.1794 20.0073 66.8494 19.802C66.5267 19.5893 66.281 19.296 66.1124 18.922C65.9437 18.548 65.8594 18.119 65.8594 17.635V14.533C65.8594 14.4597 65.8814 14.401 65.9254 14.357C65.9767 14.3057 66.039 14.28 66.1124 14.28H66.6624C66.7357 14.28 66.7944 14.3057 66.8384 14.357C66.8897 14.401 66.9154 14.4597 66.9154 14.533V17.58C66.9154 18.6727 67.392 19.219 68.3454 19.219C68.8 19.219 69.163 19.076 69.4344 18.79C69.713 18.4967 69.8524 18.0933 69.8524 17.58V14.533C69.8524 14.4597 69.8744 14.401 69.9184 14.357C69.9697 14.3057 70.032 14.28 70.1054 14.28H70.6444C70.725 14.28 70.7874 14.3057 70.8314 14.357C70.8754 14.401 70.8974 14.4597 70.8974 14.533V19.747C70.8974 19.8203 70.8754 19.8827 70.8314 19.934C70.7874 19.978 70.725 20 70.6444 20H70.1384C70.065 20 70.0027 19.978 69.9514 19.934C69.9074 19.8827 69.8854 19.8203 69.8854 19.747V19.263C69.6874 19.5197 69.4454 19.725 69.1594 19.879C68.8807 20.033 68.5104 20.11 68.0484 20.11ZM75.1715 20.11C74.6509 20.11 74.1999 20.011 73.8185 19.813C73.4445 19.6077 73.1549 19.318 72.9495 18.944C72.7442 18.5627 72.6342 18.108 72.6195 17.58C72.6122 17.47 72.6085 17.3233 72.6085 17.14C72.6085 16.9567 72.6122 16.81 72.6195 16.7C72.6342 16.172 72.7442 15.721 72.9495 15.347C73.1549 14.9657 73.4445 14.676 73.8185 14.478C74.1999 14.2727 74.6509 14.17 75.1715 14.17C75.5969 14.17 75.9599 14.2287 76.2605 14.346C76.5685 14.4633 76.8215 14.6137 77.0195 14.797C77.2175 14.9803 77.3642 15.1783 77.4595 15.391C77.5622 15.6037 77.6172 15.8053 77.6245 15.996C77.6319 16.0693 77.6099 16.128 77.5585 16.172C77.5072 16.216 77.4449 16.238 77.3715 16.238H76.8435C76.7702 16.238 76.7152 16.2233 76.6785 16.194C76.6419 16.1573 76.6052 16.0987 76.5685 16.018C76.4365 15.6587 76.2569 15.4057 76.0295 15.259C75.8022 15.1123 75.5199 15.039 75.1825 15.039C74.7425 15.039 74.3832 15.1747 74.1045 15.446C73.8332 15.7173 73.6865 16.1537 73.6645 16.755C73.6572 17.019 73.6572 17.2757 73.6645 17.525C73.6865 18.1337 73.8332 18.5737 74.1045 18.845C74.3832 19.109 74.7425 19.241 75.1825 19.241C75.5199 19.241 75.8022 19.1677 76.0295 19.021C76.2569 18.8743 76.4365 18.6213 76.5685 18.262C76.6052 18.1813 76.6419 18.1263 76.6785 18.097C76.7152 18.0603 76.7702 18.042 76.8435 18.042H77.3715C77.4449 18.042 77.5072 18.064 77.5585 18.108C77.6099 18.152 77.6319 18.2107 77.6245 18.284C77.6172 18.438 77.5842 18.5957 77.5255 18.757C77.4669 18.9183 77.3715 19.0833 77.2395 19.252C77.1149 19.4133 76.9572 19.56 76.7665 19.692C76.5759 19.8167 76.3449 19.9193 76.0735 20C75.8095 20.0733 75.5089 20.11 75.1715 20.11ZM79.5249 20C79.4515 20 79.3892 19.978 79.3379 19.934C79.2939 19.8827 79.2719 19.8203 79.2719 19.747V12.443C79.2719 12.3697 79.2939 12.311 79.3379 12.267C79.3892 12.2157 79.4515 12.19 79.5249 12.19H80.0749C80.1555 12.19 80.2179 12.2157 80.2619 12.267C80.3059 12.311 80.3279 12.3697 80.3279 12.443V15.006C80.5259 14.7567 80.7679 14.555 81.0539 14.401C81.3399 14.247 81.7029 14.17 82.1429 14.17C82.6195 14.17 83.0229 14.2763 83.3529 14.489C83.6902 14.6943 83.9432 14.984 84.1119 15.358C84.2879 15.7247 84.3759 16.1537 84.3759 16.645V19.747C84.3759 19.8203 84.3539 19.8827 84.3099 19.934C84.2659 19.978 84.2035 20 84.1229 20H83.5729C83.4995 20 83.4372 19.978 83.3859 19.934C83.3419 19.8827 83.3199 19.8203 83.3199 19.747V16.7C83.3199 16.1867 83.1952 15.787 82.9459 15.501C82.6965 15.2077 82.3299 15.061 81.8459 15.061C81.3912 15.061 81.0245 15.2077 80.7459 15.501C80.4672 15.787 80.3279 16.1867 80.3279 16.7V19.747C80.3279 19.8203 80.3059 19.8827 80.2619 19.934C80.2179 19.978 80.1555 20 80.0749 20H79.5249ZM88.571 20.11C87.8157 20.11 87.2143 19.879 86.767 19.417C86.3197 18.9477 86.074 18.3097 86.03 17.503C86.0227 17.4077 86.019 17.2867 86.019 17.14C86.019 16.986 86.0227 16.8613 86.03 16.766C86.0593 16.2453 86.1803 15.7907 86.393 15.402C86.6057 15.006 86.8953 14.7017 87.262 14.489C87.636 14.2763 88.0723 14.17 88.571 14.17C89.1283 14.17 89.594 14.2873 89.968 14.522C90.3493 14.7567 90.639 15.0903 90.837 15.523C91.035 15.9557 91.134 16.4617 91.134 17.041V17.228C91.134 17.3087 91.1083 17.371 91.057 17.415C91.013 17.459 90.9543 17.481 90.881 17.481H87.075C87.075 17.4883 87.075 17.503 87.075 17.525C87.075 17.547 87.075 17.5653 87.075 17.58C87.0897 17.8807 87.1557 18.163 87.273 18.427C87.3903 18.6837 87.559 18.8927 87.779 19.054C87.999 19.2153 88.263 19.296 88.571 19.296C88.835 19.296 89.055 19.2557 89.231 19.175C89.407 19.0943 89.55 19.0063 89.66 18.911C89.77 18.8083 89.8433 18.7313 89.88 18.68C89.946 18.5847 89.9973 18.5297 90.034 18.515C90.0707 18.493 90.1293 18.482 90.21 18.482H90.738C90.8113 18.482 90.87 18.504 90.914 18.548C90.9653 18.5847 90.9873 18.6397 90.98 18.713C90.9727 18.823 90.914 18.9587 90.804 19.12C90.694 19.274 90.5363 19.428 90.331 19.582C90.1257 19.736 89.8763 19.8643 89.583 19.967C89.2897 20.0623 88.9523 20.11 88.571 20.11ZM87.075 16.722H90.089V16.689C90.089 16.359 90.0267 16.0657 89.902 15.809C89.7847 15.5523 89.6123 15.3507 89.385 15.204C89.1577 15.05 88.8863 14.973 88.571 14.973C88.2557 14.973 87.9843 15.05 87.757 15.204C87.537 15.3507 87.3683 15.5523 87.251 15.809C87.1337 16.0657 87.075 16.359 87.075 16.689V16.722ZM93.0323 20C92.9589 20 92.8966 19.978 92.8453 19.934C92.8013 19.8827 92.7793 19.8203 92.7793 19.747V14.533C92.7793 14.4597 92.8013 14.401 92.8453 14.357C92.8966 14.3057 92.9589 14.28 93.0323 14.28H93.5493C93.6226 14.28 93.6813 14.3057 93.7253 14.357C93.7766 14.401 93.8023 14.4597 93.8023 14.533V15.017C93.9929 14.7677 94.2313 14.566 94.5173 14.412C94.8106 14.2507 95.1846 14.17 95.6393 14.17C96.1159 14.17 96.5193 14.2763 96.8493 14.489C97.1866 14.6943 97.4396 14.984 97.6083 15.358C97.7769 15.7247 97.8613 16.1537 97.8613 16.645V19.747C97.8613 19.8203 97.8393 19.8827 97.7953 19.934C97.7513 19.978 97.6926 20 97.6193 20H97.0693C96.9959 20 96.9336 19.978 96.8823 19.934C96.8383 19.8827 96.8163 19.8203 96.8163 19.747V16.7C96.8163 16.1867 96.6916 15.787 96.4423 15.501C96.1929 15.2077 95.8263 15.061 95.3423 15.061C94.8876 15.061 94.5209 15.2077 94.2423 15.501C93.9709 15.787 93.8353 16.1867 93.8353 16.7V19.747C93.8353 19.8203 93.8096 19.8827 93.7583 19.934C93.7143 19.978 93.6556 20 93.5823 20H93.0323ZM105.424 20.11C104.786 20.11 104.251 20.0147 103.818 19.824C103.386 19.626 103.052 19.373 102.817 19.065C102.59 18.7497 102.469 18.416 102.454 18.064C102.454 18.0053 102.476 17.954 102.52 17.91C102.572 17.8587 102.63 17.833 102.696 17.833H103.257C103.345 17.833 103.411 17.855 103.455 17.899C103.499 17.943 103.529 17.9943 103.543 18.053C103.58 18.229 103.668 18.405 103.807 18.581C103.954 18.7497 104.156 18.8927 104.412 19.01C104.676 19.12 105.014 19.175 105.424 19.175C106.055 19.175 106.517 19.065 106.81 18.845C107.111 18.6177 107.261 18.317 107.261 17.943C107.261 17.6863 107.181 17.481 107.019 17.327C106.865 17.1657 106.627 17.0227 106.304 16.898C105.982 16.7733 105.564 16.6377 105.05 16.491C104.515 16.337 104.071 16.1683 103.719 15.985C103.367 15.8017 103.103 15.5743 102.927 15.303C102.759 15.0317 102.674 14.687 102.674 14.269C102.674 13.873 102.781 13.521 102.993 13.213C103.206 12.8977 103.51 12.6483 103.906 12.465C104.31 12.2817 104.797 12.19 105.369 12.19C105.824 12.19 106.22 12.2523 106.557 12.377C106.902 12.4943 107.188 12.6557 107.415 12.861C107.643 13.059 107.815 13.2753 107.932 13.51C108.05 13.7373 108.112 13.961 108.119 14.181C108.119 14.2323 108.101 14.2837 108.064 14.335C108.028 14.379 107.969 14.401 107.888 14.401H107.305C107.254 14.401 107.199 14.3863 107.14 14.357C107.089 14.3277 107.049 14.2727 107.019 14.192C106.975 13.8913 106.807 13.6383 106.513 13.433C106.22 13.2277 105.839 13.125 105.369 13.125C104.893 13.125 104.504 13.2167 104.203 13.4C103.91 13.5833 103.763 13.8693 103.763 14.258C103.763 14.5073 103.833 14.7163 103.972 14.885C104.112 15.0463 104.332 15.1893 104.632 15.314C104.933 15.4387 105.325 15.5707 105.809 15.71C106.396 15.8713 106.876 16.0437 107.25 16.227C107.624 16.403 107.899 16.6267 108.075 16.898C108.259 17.162 108.35 17.503 108.35 17.921C108.35 18.383 108.229 18.779 107.987 19.109C107.745 19.4317 107.404 19.681 106.964 19.857C106.532 20.0257 106.018 20.11 105.424 20.11ZM110.232 20C110.159 20 110.097 19.978 110.045 19.934C110.001 19.8827 109.979 19.8203 109.979 19.747V14.533C109.979 14.4597 110.001 14.401 110.045 14.357C110.097 14.3057 110.159 14.28 110.232 14.28H110.76C110.834 14.28 110.892 14.3057 110.936 14.357C110.98 14.401 111.002 14.4597 111.002 14.533V19.747C111.002 19.8203 110.98 19.8827 110.936 19.934C110.892 19.978 110.834 20 110.76 20H110.232ZM110.144 13.213C110.071 13.213 110.009 13.191 109.957 13.147C109.913 13.0957 109.891 13.0333 109.891 12.96V12.366C109.891 12.2927 109.913 12.234 109.957 12.19C110.009 12.1387 110.071 12.113 110.144 12.113H110.837C110.911 12.113 110.969 12.1387 111.013 12.19C111.065 12.234 111.09 12.2927 111.09 12.366V12.96C111.09 13.0333 111.065 13.0957 111.013 13.147C110.969 13.191 110.911 13.213 110.837 13.213H110.144ZM115.272 20.11C114.516 20.11 113.915 19.879 113.468 19.417C113.02 18.9477 112.775 18.3097 112.731 17.503C112.723 17.4077 112.72 17.2867 112.72 17.14C112.72 16.986 112.723 16.8613 112.731 16.766C112.76 16.2453 112.881 15.7907 113.094 15.402C113.306 15.006 113.596 14.7017 113.963 14.489C114.337 14.2763 114.773 14.17 115.272 14.17C115.829 14.17 116.295 14.2873 116.669 14.522C117.05 14.7567 117.34 15.0903 117.538 15.523C117.736 15.9557 117.835 16.4617 117.835 17.041V17.228C117.835 17.3087 117.809 17.371 117.758 17.415C117.714 17.459 117.655 17.481 117.582 17.481H113.776C113.776 17.4883 113.776 17.503 113.776 17.525C113.776 17.547 113.776 17.5653 113.776 17.58C113.79 17.8807 113.856 18.163 113.974 18.427C114.091 18.6837 114.26 18.8927 114.48 19.054C114.7 19.2153 114.964 19.296 115.272 19.296C115.536 19.296 115.756 19.2557 115.932 19.175C116.108 19.0943 116.251 19.0063 116.361 18.911C116.471 18.8083 116.544 18.7313 116.581 18.68C116.647 18.5847 116.698 18.5297 116.735 18.515C116.771 18.493 116.83 18.482 116.911 18.482H117.439C117.512 18.482 117.571 18.504 117.615 18.548C117.666 18.5847 117.688 18.6397 117.681 18.713C117.673 18.823 117.615 18.9587 117.505 19.12C117.395 19.274 117.237 19.428 117.032 19.582C116.826 19.736 116.577 19.8643 116.284 19.967C115.99 20.0623 115.653 20.11 115.272 20.11ZM113.776 16.722H116.79V16.689C116.79 16.359 116.727 16.0657 116.603 15.809C116.485 15.5523 116.313 15.3507 116.086 15.204C115.858 15.05 115.587 14.973 115.272 14.973C114.956 14.973 114.685 15.05 114.458 15.204C114.238 15.3507 114.069 15.5523 113.952 15.809C113.834 16.0657 113.776 16.359 113.776 16.689V16.722ZM124.64 20.11C124.171 20.11 123.771 20.0073 123.441 19.802C123.119 19.5893 122.873 19.296 122.704 18.922C122.536 18.548 122.451 18.119 122.451 17.635V14.533C122.451 14.4597 122.473 14.401 122.517 14.357C122.569 14.3057 122.631 14.28 122.704 14.28H123.254C123.328 14.28 123.386 14.3057 123.43 14.357C123.482 14.401 123.507 14.4597 123.507 14.533V17.58C123.507 18.6727 123.984 19.219 124.937 19.219C125.392 19.219 125.755 19.076 126.026 18.79C126.305 18.4967 126.444 18.0933 126.444 17.58V14.533C126.444 14.4597 126.466 14.401 126.51 14.357C126.562 14.3057 126.624 14.28 126.697 14.28H127.236C127.317 14.28 127.379 14.3057 127.423 14.357C127.467 14.401 127.489 14.4597 127.489 14.533V19.747C127.489 19.8203 127.467 19.8827 127.423 19.934C127.379 19.978 127.317 20 127.236 20H126.73C126.657 20 126.595 19.978 126.543 19.934C126.499 19.8827 126.477 19.8203 126.477 19.747V19.263C126.279 19.5197 126.037 19.725 125.751 19.879C125.473 20.033 125.102 20.11 124.64 20.11ZM129.707 20C129.633 20 129.571 19.978 129.52 19.934C129.476 19.8827 129.454 19.8203 129.454 19.747V14.533C129.454 14.4597 129.476 14.401 129.52 14.357C129.571 14.3057 129.633 14.28 129.707 14.28H130.224C130.297 14.28 130.356 14.3057 130.4 14.357C130.451 14.401 130.477 14.4597 130.477 14.533V15.017C130.667 14.7677 130.906 14.566 131.192 14.412C131.485 14.2507 131.859 14.17 132.314 14.17C132.79 14.17 133.194 14.2763 133.524 14.489C133.861 14.6943 134.114 14.984 134.283 15.358C134.451 15.7247 134.536 16.1537 134.536 16.645V19.747C134.536 19.8203 134.514 19.8827 134.47 19.934C134.426 19.978 134.367 20 134.294 20H133.744C133.67 20 133.608 19.978 133.557 19.934C133.513 19.8827 133.491 19.8203 133.491 19.747V16.7C133.491 16.1867 133.366 15.787 133.117 15.501C132.867 15.2077 132.501 15.061 132.017 15.061C131.562 15.061 131.195 15.2077 130.917 15.501C130.645 15.787 130.51 16.1867 130.51 16.7V19.747C130.51 19.8203 130.484 19.8827 130.433 19.934C130.389 19.978 130.33 20 130.257 20H129.707ZM138.434 20.11C138.024 20.11 137.672 20.0587 137.378 19.956C137.085 19.8533 136.847 19.7287 136.663 19.582C136.48 19.4353 136.341 19.2887 136.245 19.142C136.157 18.9953 136.11 18.878 136.102 18.79C136.095 18.7093 136.121 18.647 136.179 18.603C136.238 18.559 136.297 18.537 136.355 18.537H136.839C136.883 18.537 136.916 18.5443 136.938 18.559C136.968 18.5663 137.004 18.5957 137.048 18.647C137.144 18.7497 137.25 18.8523 137.367 18.955C137.485 19.0577 137.628 19.142 137.796 19.208C137.972 19.274 138.189 19.307 138.445 19.307C138.819 19.307 139.127 19.2373 139.369 19.098C139.611 18.9513 139.732 18.7387 139.732 18.46C139.732 18.2767 139.681 18.13 139.578 18.02C139.483 17.91 139.307 17.811 139.05 17.723C138.801 17.635 138.456 17.5433 138.016 17.448C137.576 17.3453 137.228 17.2207 136.971 17.074C136.715 16.92 136.531 16.7403 136.421 16.535C136.311 16.3223 136.256 16.084 136.256 15.82C136.256 15.5487 136.337 15.2883 136.498 15.039C136.66 14.7823 136.894 14.5733 137.202 14.412C137.518 14.2507 137.91 14.17 138.379 14.17C138.761 14.17 139.087 14.2177 139.358 14.313C139.63 14.4083 139.853 14.5293 140.029 14.676C140.205 14.8153 140.337 14.9547 140.425 15.094C140.513 15.2333 140.561 15.3507 140.568 15.446C140.576 15.5193 140.554 15.5817 140.502 15.633C140.451 15.677 140.392 15.699 140.326 15.699H139.864C139.813 15.699 139.769 15.688 139.732 15.666C139.703 15.644 139.674 15.6183 139.644 15.589C139.571 15.4937 139.483 15.3983 139.38 15.303C139.285 15.2077 139.157 15.1307 138.995 15.072C138.841 15.006 138.636 14.973 138.379 14.973C138.013 14.973 137.738 15.05 137.554 15.204C137.371 15.358 137.279 15.5523 137.279 15.787C137.279 15.9263 137.32 16.051 137.4 16.161C137.481 16.271 137.635 16.37 137.862 16.458C138.09 16.546 138.427 16.6413 138.874 16.744C139.358 16.8393 139.74 16.9677 140.018 17.129C140.297 17.2903 140.495 17.4773 140.612 17.69C140.73 17.9027 140.788 18.1483 140.788 18.427C140.788 18.735 140.697 19.0173 140.513 19.274C140.337 19.5307 140.073 19.736 139.721 19.89C139.377 20.0367 138.948 20.11 138.434 20.11ZM145.671 20C145.598 20 145.535 19.978 145.484 19.934C145.44 19.8827 145.418 19.8203 145.418 19.747V14.533C145.418 14.4597 145.44 14.401 145.484 14.357C145.535 14.3057 145.598 14.28 145.671 14.28H146.199C146.272 14.28 146.331 14.3057 146.375 14.357C146.419 14.401 146.441 14.4597 146.441 14.533V19.747C146.441 19.8203 146.419 19.8827 146.375 19.934C146.331 19.978 146.272 20 146.199 20H145.671ZM145.583 13.213C145.51 13.213 145.447 13.191 145.396 13.147C145.352 13.0957 145.33 13.0333 145.33 12.96V12.366C145.33 12.2927 145.352 12.234 145.396 12.19C145.447 12.1387 145.51 12.113 145.583 12.113H146.276C146.349 12.113 146.408 12.1387 146.452 12.19C146.503 12.234 146.529 12.2927 146.529 12.366V12.96C146.529 13.0333 146.503 13.0957 146.452 13.147C146.408 13.191 146.349 13.213 146.276 13.213H145.583ZM148.773 20C148.699 20 148.637 19.978 148.586 19.934C148.542 19.8827 148.52 19.8203 148.52 19.747V14.533C148.52 14.4597 148.542 14.401 148.586 14.357C148.637 14.3057 148.699 14.28 148.773 14.28H149.268C149.341 14.28 149.4 14.3057 149.444 14.357C149.495 14.401 149.521 14.4597 149.521 14.533V14.918C149.689 14.6907 149.902 14.511 150.159 14.379C150.415 14.2397 150.723 14.17 151.083 14.17C151.911 14.1627 152.498 14.5 152.843 15.182C153.011 14.874 153.257 14.6283 153.58 14.445C153.902 14.2617 154.269 14.17 154.68 14.17C155.061 14.17 155.406 14.258 155.714 14.434C156.029 14.61 156.275 14.8777 156.451 15.237C156.634 15.589 156.726 16.0327 156.726 16.568V19.747C156.726 19.8203 156.7 19.8827 156.649 19.934C156.605 19.978 156.546 20 156.473 20H155.956C155.882 20 155.82 19.978 155.769 19.934C155.725 19.8827 155.703 19.8203 155.703 19.747V16.667C155.703 16.2563 155.644 15.9337 155.527 15.699C155.409 15.4643 155.252 15.2993 155.054 15.204C154.856 15.1087 154.639 15.061 154.405 15.061C154.214 15.061 154.02 15.1087 153.822 15.204C153.624 15.2993 153.459 15.4643 153.327 15.699C153.202 15.9337 153.14 16.2563 153.14 16.667V19.747C153.14 19.8203 153.114 19.8827 153.063 19.934C153.019 19.978 152.96 20 152.887 20H152.37C152.296 20 152.234 19.978 152.183 19.934C152.139 19.8827 152.117 19.8203 152.117 19.747V16.667C152.117 16.2563 152.054 15.9337 151.93 15.699C151.805 15.4643 151.644 15.2993 151.446 15.204C151.248 15.1087 151.039 15.061 150.819 15.061C150.628 15.061 150.434 15.1087 150.236 15.204C150.038 15.2993 149.873 15.4643 149.741 15.699C149.616 15.9337 149.554 16.2527 149.554 16.656V19.747C149.554 19.8203 149.528 19.8827 149.477 19.934C149.433 19.978 149.374 20 149.301 20H148.773Z" fill="#212529"/>
<path d="M45.88 40C45.7627 40 45.66 39.956 45.572 39.868C45.484 39.78 45.44 39.6773 45.44 39.56C45.44 39.4867 45.4473 39.406 45.462 39.318L50.918 25.084C50.9767 24.9373 51.0573 24.82 51.16 24.732C51.2627 24.644 51.4167 24.6 51.622 24.6H53.118C53.3087 24.6 53.4553 24.644 53.558 24.732C53.6753 24.82 53.7633 24.9373 53.822 25.084L59.256 39.318C59.2853 39.406 59.3 39.4867 59.3 39.56C59.3 39.6773 59.256 39.78 59.168 39.868C59.08 39.956 58.9773 40 58.86 40H57.738C57.562 40 57.43 39.956 57.342 39.868C57.2687 39.78 57.2173 39.6993 57.188 39.626L55.978 36.502H48.762L47.552 39.626C47.5373 39.6993 47.486 39.78 47.398 39.868C47.31 39.956 47.178 40 47.002 40H45.88ZM49.4 34.61H55.34L52.37 26.8L49.4 34.61ZM61.2343 44.18C61.0876 44.18 60.9629 44.1287 60.8603 44.026C60.7723 43.938 60.7283 43.8207 60.7283 43.674V29.066C60.7283 28.9193 60.7723 28.802 60.8603 28.714C60.9629 28.6113 61.0876 28.56 61.2343 28.56H62.2463C62.3929 28.56 62.5103 28.6113 62.5983 28.714C62.7009 28.802 62.7523 28.9193 62.7523 29.066V30.034C63.1043 29.55 63.5736 29.1467 64.1603 28.824C64.7469 28.5013 65.4803 28.34 66.3603 28.34C67.1816 28.34 67.8783 28.4793 68.4503 28.758C69.0369 29.0367 69.5136 29.418 69.8803 29.902C70.2616 30.386 70.5476 30.936 70.7383 31.552C70.9289 32.168 71.0316 32.828 71.0463 33.532C71.0609 33.7667 71.0683 34.016 71.0683 34.28C71.0683 34.544 71.0609 34.7933 71.0463 35.028C71.0316 35.7173 70.9289 36.3773 70.7383 37.008C70.5476 37.624 70.2616 38.174 69.8803 38.658C69.5136 39.1273 69.0369 39.5087 68.4503 39.802C67.8783 40.0807 67.1816 40.22 66.3603 40.22C65.5096 40.22 64.7909 40.066 64.2043 39.758C63.6323 39.4353 63.1629 39.0393 62.7963 38.57V43.674C62.7963 43.8207 62.7523 43.938 62.6643 44.026C62.5763 44.1287 62.4516 44.18 62.2903 44.18H61.2343ZM65.8983 38.438C66.6609 38.438 67.2549 38.2767 67.6803 37.954C68.1203 37.6167 68.4356 37.184 68.6263 36.656C68.8169 36.1133 68.9269 35.534 68.9563 34.918C68.9709 34.4927 68.9709 34.0673 68.9563 33.642C68.9269 33.026 68.8169 32.454 68.6263 31.926C68.4356 31.3833 68.1203 30.9507 67.6803 30.628C67.2549 30.2907 66.6609 30.122 65.8983 30.122C65.1796 30.122 64.5929 30.2907 64.1383 30.628C63.6983 30.9653 63.3683 31.398 63.1483 31.926C62.9429 32.4393 62.8256 32.9673 62.7963 33.51C62.7816 33.7447 62.7743 34.0233 62.7743 34.346C62.7743 34.6687 62.7816 34.9547 62.7963 35.204C62.8109 35.7173 62.9283 36.2233 63.1483 36.722C63.3829 37.2207 63.7276 37.6313 64.1823 37.954C64.6369 38.2767 65.2089 38.438 65.8983 38.438ZM73.6798 44.18C73.5331 44.18 73.4084 44.1287 73.3058 44.026C73.2178 43.938 73.1738 43.8207 73.1738 43.674V29.066C73.1738 28.9193 73.2178 28.802 73.3058 28.714C73.4084 28.6113 73.5331 28.56 73.6798 28.56H74.6918C74.8384 28.56 74.9558 28.6113 75.0438 28.714C75.1464 28.802 75.1978 28.9193 75.1978 29.066V30.034C75.5498 29.55 76.0191 29.1467 76.6058 28.824C77.1924 28.5013 77.9258 28.34 78.8058 28.34C79.6271 28.34 80.3238 28.4793 80.8958 28.758C81.4824 29.0367 81.9591 29.418 82.3258 29.902C82.7071 30.386 82.9931 30.936 83.1838 31.552C83.3744 32.168 83.4771 32.828 83.4918 33.532C83.5064 33.7667 83.5138 34.016 83.5138 34.28C83.5138 34.544 83.5064 34.7933 83.4918 35.028C83.4771 35.7173 83.3744 36.3773 83.1838 37.008C82.9931 37.624 82.7071 38.174 82.3258 38.658C81.9591 39.1273 81.4824 39.5087 80.8958 39.802C80.3238 40.0807 79.6271 40.22 78.8058 40.22C77.9551 40.22 77.2364 40.066 76.6498 39.758C76.0778 39.4353 75.6084 39.0393 75.2418 38.57V43.674C75.2418 43.8207 75.1978 43.938 75.1098 44.026C75.0218 44.1287 74.8971 44.18 74.7358 44.18H73.6798ZM78.3438 38.438C79.1064 38.438 79.7004 38.2767 80.1258 37.954C80.5658 37.6167 80.8811 37.184 81.0718 36.656C81.2624 36.1133 81.3724 35.534 81.4018 34.918C81.4164 34.4927 81.4164 34.0673 81.4018 33.642C81.3724 33.026 81.2624 32.454 81.0718 31.926C80.8811 31.3833 80.5658 30.9507 80.1258 30.628C79.7004 30.2907 79.1064 30.122 78.3438 30.122C77.6251 30.122 77.0384 30.2907 76.5838 30.628C76.1438 30.9653 75.8138 31.398 75.5938 31.926C75.3884 32.4393 75.2711 32.9673 75.2418 33.51C75.2271 33.7447 75.2198 34.0233 75.2198 34.346C75.2198 34.6687 75.2271 34.9547 75.2418 35.204C75.2564 35.7173 75.3738 36.2233 75.5938 36.722C75.8284 37.2207 76.1731 37.6313 76.6278 37.954C77.0824 38.2767 77.6544 38.438 78.3438 38.438ZM95.5658 40.22C94.2898 40.22 93.2191 40.0293 92.3538 39.648C91.4885 39.252 90.8211 38.746 90.3518 38.13C89.8971 37.4993 89.6551 36.832 89.6258 36.128C89.6258 36.0107 89.6698 35.908 89.7578 35.82C89.8605 35.7173 89.9778 35.666 90.1098 35.666H91.2318C91.4078 35.666 91.5398 35.71 91.6278 35.798C91.7158 35.886 91.7745 35.9887 91.8038 36.106C91.8771 36.458 92.0531 36.81 92.3318 37.162C92.6251 37.4993 93.0285 37.7853 93.5418 38.02C94.0698 38.24 94.7445 38.35 95.5658 38.35C96.8271 38.35 97.7511 38.13 98.3378 37.69C98.9391 37.2353 99.2398 36.634 99.2398 35.886C99.2398 35.3727 99.0785 34.962 98.7558 34.654C98.4478 34.3313 97.9711 34.0453 97.3258 33.796C96.6805 33.5467 95.8445 33.2753 94.8178 32.982C93.7471 32.674 92.8598 32.3367 92.1558 31.97C91.4518 31.6033 90.9238 31.1487 90.5718 30.606C90.2345 30.0633 90.0658 29.374 90.0658 28.538C90.0658 27.746 90.2785 27.042 90.7038 26.426C91.1291 25.7953 91.7378 25.2967 92.5298 24.93C93.3365 24.5633 94.3118 24.38 95.4558 24.38C96.3651 24.38 97.1571 24.5047 97.8318 24.754C98.5211 24.9887 99.0931 25.3113 99.5478 25.722C100.002 26.118 100.347 26.5507 100.582 27.02C100.816 27.4747 100.941 27.922 100.956 28.362C100.956 28.4647 100.919 28.5673 100.846 28.67C100.772 28.758 100.655 28.802 100.494 28.802H99.3278C99.2251 28.802 99.1151 28.7727 98.9978 28.714C98.8951 28.6553 98.8145 28.5453 98.7558 28.384C98.6678 27.7827 98.3305 27.2767 97.7438 26.866C97.1571 26.4553 96.3945 26.25 95.4558 26.25C94.5025 26.25 93.7251 26.4333 93.1238 26.8C92.5371 27.1667 92.2438 27.7387 92.2438 28.516C92.2438 29.0147 92.3831 29.4327 92.6618 29.77C92.9405 30.0927 93.3805 30.3787 93.9818 30.628C94.5831 30.8773 95.3678 31.1413 96.3358 31.42C97.5091 31.7427 98.4698 32.0873 99.2178 32.454C99.9658 32.806 100.516 33.2533 100.868 33.796C101.234 34.324 101.418 35.006 101.418 35.842C101.418 36.766 101.176 37.558 100.692 38.218C100.208 38.8633 99.5258 39.362 98.6458 39.714C97.7805 40.0513 96.7538 40.22 95.5658 40.22ZM107.821 40C107 40 106.333 39.846 105.819 39.538C105.306 39.2153 104.932 38.768 104.697 38.196C104.463 37.6093 104.345 36.92 104.345 36.128V30.32H102.629C102.483 30.32 102.358 30.276 102.255 30.188C102.167 30.0853 102.123 29.9607 102.123 29.814V29.066C102.123 28.9193 102.167 28.802 102.255 28.714C102.358 28.6113 102.483 28.56 102.629 28.56H104.345V24.886C104.345 24.7393 104.389 24.622 104.477 24.534C104.58 24.4313 104.705 24.38 104.851 24.38H105.885C106.032 24.38 106.149 24.4313 106.237 24.534C106.34 24.622 106.391 24.7393 106.391 24.886V28.56H109.119C109.266 28.56 109.383 28.6113 109.471 28.714C109.574 28.802 109.625 28.9193 109.625 29.066V29.814C109.625 29.9607 109.574 30.0853 109.471 30.188C109.383 30.276 109.266 30.32 109.119 30.32H106.391V35.974C106.391 36.6633 106.509 37.206 106.743 37.602C106.978 37.998 107.396 38.196 107.997 38.196H109.339C109.486 38.196 109.603 38.2473 109.691 38.35C109.794 38.438 109.845 38.5553 109.845 38.702V39.494C109.845 39.6407 109.794 39.7653 109.691 39.868C109.603 39.956 109.486 40 109.339 40H107.821ZM115.975 40.22C114.86 40.22 113.929 40.0073 113.181 39.582C112.433 39.1567 111.861 38.57 111.465 37.822C111.069 37.0593 110.849 36.194 110.805 35.226C110.79 34.9767 110.783 34.6613 110.783 34.28C110.783 33.884 110.79 33.5687 110.805 33.334C110.849 32.3513 111.069 31.486 111.465 30.738C111.876 29.99 112.455 29.4033 113.203 28.978C113.951 28.5527 114.875 28.34 115.975 28.34C117.075 28.34 117.999 28.5527 118.747 28.978C119.495 29.4033 120.067 29.99 120.463 30.738C120.874 31.486 121.101 32.3513 121.145 33.334C121.16 33.5687 121.167 33.884 121.167 34.28C121.167 34.6613 121.16 34.9767 121.145 35.226C121.101 36.194 120.881 37.0593 120.485 37.822C120.089 38.57 119.517 39.1567 118.769 39.582C118.021 40.0073 117.09 40.22 115.975 40.22ZM115.975 38.526C116.884 38.526 117.61 38.24 118.153 37.668C118.696 37.0813 118.989 36.2307 119.033 35.116C119.048 34.896 119.055 34.6173 119.055 34.28C119.055 33.9427 119.048 33.664 119.033 33.444C118.989 32.3293 118.696 31.486 118.153 30.914C117.61 30.3273 116.884 30.034 115.975 30.034C115.066 30.034 114.332 30.3273 113.775 30.914C113.232 31.486 112.946 32.3293 112.917 33.444C112.902 33.664 112.895 33.9427 112.895 34.28C112.895 34.6173 112.902 34.896 112.917 35.116C112.946 36.2307 113.232 37.0813 113.775 37.668C114.332 38.24 115.066 38.526 115.975 38.526ZM123.768 40C123.621 40 123.497 39.956 123.394 39.868C123.306 39.7653 123.262 39.6407 123.262 39.494V29.088C123.262 28.9413 123.306 28.8167 123.394 28.714C123.497 28.6113 123.621 28.56 123.768 28.56H124.78C124.927 28.56 125.051 28.6113 125.154 28.714C125.257 28.8167 125.308 28.9413 125.308 29.088V30.056C125.601 29.5573 126.005 29.1833 126.518 28.934C127.031 28.6847 127.647 28.56 128.366 28.56H129.246C129.393 28.56 129.51 28.6113 129.598 28.714C129.686 28.802 129.73 28.9193 129.73 29.066V29.968C129.73 30.1147 129.686 30.232 129.598 30.32C129.51 30.408 129.393 30.452 129.246 30.452H127.926C127.134 30.452 126.511 30.6867 126.056 31.156C125.601 31.6107 125.374 32.234 125.374 33.026V39.494C125.374 39.6407 125.323 39.7653 125.22 39.868C125.117 39.956 124.993 40 124.846 40H123.768ZM135.298 40.22C133.788 40.22 132.585 39.758 131.69 38.834C130.796 37.8953 130.304 36.6193 130.216 35.006C130.202 34.8153 130.194 34.5733 130.194 34.28C130.194 33.972 130.202 33.7227 130.216 33.532C130.275 32.4907 130.517 31.5813 130.942 30.804C131.368 30.012 131.947 29.4033 132.68 28.978C133.428 28.5527 134.301 28.34 135.298 28.34C136.413 28.34 137.344 28.5747 138.092 29.044C138.855 29.5133 139.434 30.1807 139.83 31.046C140.226 31.9113 140.424 32.9233 140.424 34.082V34.456C140.424 34.6173 140.373 34.742 140.27 34.83C140.182 34.918 140.065 34.962 139.918 34.962H132.306C132.306 34.9767 132.306 35.006 132.306 35.05C132.306 35.094 132.306 35.1307 132.306 35.16C132.336 35.7613 132.468 36.326 132.702 36.854C132.937 37.3673 133.274 37.7853 133.714 38.108C134.154 38.4307 134.682 38.592 135.298 38.592C135.826 38.592 136.266 38.5113 136.618 38.35C136.97 38.1887 137.256 38.0127 137.476 37.822C137.696 37.6167 137.843 37.4627 137.916 37.36C138.048 37.1693 138.151 37.0593 138.224 37.03C138.298 36.986 138.415 36.964 138.576 36.964H139.632C139.779 36.964 139.896 37.008 139.984 37.096C140.087 37.1693 140.131 37.2793 140.116 37.426C140.102 37.646 139.984 37.9173 139.764 38.24C139.544 38.548 139.229 38.856 138.818 39.164C138.408 39.472 137.909 39.7287 137.322 39.934C136.736 40.1247 136.061 40.22 135.298 40.22ZM132.306 33.444H138.334V33.378C138.334 32.718 138.21 32.1313 137.96 31.618C137.726 31.1047 137.381 30.7013 136.926 30.408C136.472 30.1 135.929 29.946 135.298 29.946C134.668 29.946 134.125 30.1 133.67 30.408C133.23 30.7013 132.893 31.1047 132.658 31.618C132.424 32.1313 132.306 32.718 132.306 33.378V33.444Z" fill="#212529"/>
</svg>
