<svg width="154" height="52" viewBox="0 0 154 52" fill="none" xmlns="http://www.w3.org/2000/svg">
<rect x="0.5" y="0.5" width="153" height="51" rx="9.5" fill="white"/>
<rect x="0.5" y="0.5" width="153" height="51" rx="9.5" stroke="#212529"/>
<path d="M32.0454 25.4221C32.0747 23.1834 33.2977 21.0652 35.2378 19.8926C34.0139 18.1742 31.9639 17.0847 29.8311 17.0191C27.5563 16.7844 25.3509 18.3573 24.1917 18.3573C23.0101 18.3573 21.2253 17.0424 19.3034 17.0813C16.7983 17.1609 14.4629 18.561 13.2441 20.7141C10.6242 25.1734 12.5784 31.727 15.0881 35.3315C16.3437 37.0965 17.8112 39.0681 19.7314 38.9982C21.6104 38.9216 22.3122 37.8203 24.5803 37.8203C26.8273 37.8203 27.4857 38.9982 29.4449 38.9537C31.4611 38.9216 32.7315 37.1809 33.9431 35.3991C34.8452 34.1415 35.5394 32.7515 36 31.2807C33.6305 30.2955 32.0482 27.9513 32.0454 25.4221Z" fill="#212529"/>
<path d="M28.3449 14.6486C29.4443 13.3512 29.9859 11.6836 29.8547 10C28.1752 10.1734 26.6237 10.9626 25.5095 12.2102C24.42 13.4292 23.853 15.0674 23.9602 16.6867C25.6403 16.7037 27.2921 15.936 28.3449 14.6486Z" fill="#212529"/>
<path d="M48.245 20C48.135 20 48.047 19.9743 47.981 19.923C47.9223 19.8717 47.8747 19.802 47.838 19.714L45.385 12.641C45.3703 12.597 45.363 12.5567 45.363 12.52C45.363 12.4613 45.385 12.41 45.429 12.366C45.473 12.322 45.5243 12.3 45.583 12.3H46.155C46.243 12.3 46.309 12.3257 46.353 12.377C46.4043 12.421 46.4337 12.4613 46.441 12.498L48.597 18.735L50.753 12.498C50.7677 12.4613 50.797 12.421 50.841 12.377C50.885 12.3257 50.951 12.3 51.039 12.3H51.611C51.6697 12.3 51.721 12.322 51.765 12.366C51.8163 12.41 51.842 12.4613 51.842 12.52C51.842 12.5567 51.8347 12.597 51.82 12.641L49.356 19.714C49.3267 19.802 49.279 19.8717 49.213 19.923C49.1543 19.9743 49.07 20 48.96 20H48.245ZM53.4546 20C53.3813 20 53.319 19.978 53.2676 19.934C53.2236 19.8827 53.2016 19.8203 53.2016 19.747V14.533C53.2016 14.4597 53.2236 14.401 53.2676 14.357C53.319 14.3057 53.3813 14.28 53.4546 14.28H53.9826C54.056 14.28 54.1146 14.3057 54.1586 14.357C54.2026 14.401 54.2246 14.4597 54.2246 14.533V19.747C54.2246 19.8203 54.2026 19.8827 54.1586 19.934C54.1146 19.978 54.056 20 53.9826 20H53.4546ZM53.3666 13.213C53.2933 13.213 53.231 13.191 53.1796 13.147C53.1356 13.0957 53.1136 13.0333 53.1136 12.96V12.366C53.1136 12.2927 53.1356 12.234 53.1796 12.19C53.231 12.1387 53.2933 12.113 53.3666 12.113H54.0596C54.133 12.113 54.1916 12.1387 54.2356 12.19C54.287 12.234 54.3126 12.2927 54.3126 12.366V12.96C54.3126 13.0333 54.287 13.0957 54.2356 13.147C54.1916 13.191 54.133 13.213 54.0596 13.213H53.3666ZM58.2401 20.11C57.8295 20.11 57.4775 20.0587 57.1841 19.956C56.8908 19.8533 56.6525 19.7287 56.4691 19.582C56.2858 19.4353 56.1465 19.2887 56.0511 19.142C55.9631 18.9953 55.9155 18.878 55.9081 18.79C55.9008 18.7093 55.9265 18.647 55.9851 18.603C56.0438 18.559 56.1025 18.537 56.1611 18.537H56.6451C56.6891 18.537 56.7221 18.5443 56.7441 18.559C56.7735 18.5663 56.8101 18.5957 56.8541 18.647C56.9495 18.7497 57.0558 18.8523 57.1731 18.955C57.2905 19.0577 57.4335 19.142 57.6021 19.208C57.7781 19.274 57.9945 19.307 58.2511 19.307C58.6251 19.307 58.9331 19.2373 59.1751 19.098C59.4171 18.9513 59.5381 18.7387 59.5381 18.46C59.5381 18.2767 59.4868 18.13 59.3841 18.02C59.2888 17.91 59.1128 17.811 58.8561 17.723C58.6068 17.635 58.2621 17.5433 57.8221 17.448C57.3821 17.3453 57.0338 17.2207 56.7771 17.074C56.5205 16.92 56.3371 16.7403 56.2271 16.535C56.1171 16.3223 56.0621 16.084 56.0621 15.82C56.0621 15.5487 56.1428 15.2883 56.3041 15.039C56.4655 14.7823 56.7001 14.5733 57.0081 14.412C57.3235 14.2507 57.7158 14.17 58.1851 14.17C58.5665 14.17 58.8928 14.2177 59.1641 14.313C59.4355 14.4083 59.6591 14.5293 59.8351 14.676C60.0111 14.8153 60.1431 14.9547 60.2311 15.094C60.3191 15.2333 60.3668 15.3507 60.3741 15.446C60.3815 15.5193 60.3595 15.5817 60.3081 15.633C60.2568 15.677 60.1981 15.699 60.1321 15.699H59.6701C59.6188 15.699 59.5748 15.688 59.5381 15.666C59.5088 15.644 59.4795 15.6183 59.4501 15.589C59.3768 15.4937 59.2888 15.3983 59.1861 15.303C59.0908 15.2077 58.9625 15.1307 58.8011 15.072C58.6471 15.006 58.4418 14.973 58.1851 14.973C57.8185 14.973 57.5435 15.05 57.3601 15.204C57.1768 15.358 57.0851 15.5523 57.0851 15.787C57.0851 15.9263 57.1255 16.051 57.2061 16.161C57.2868 16.271 57.4408 16.37 57.6681 16.458C57.8955 16.546 58.2328 16.6413 58.6801 16.744C59.1641 16.8393 59.5455 16.9677 59.8241 17.129C60.1028 17.2903 60.3008 17.4773 60.4181 17.69C60.5355 17.9027 60.5941 18.1483 60.5941 18.427C60.5941 18.735 60.5025 19.0173 60.3191 19.274C60.1431 19.5307 59.8791 19.736 59.5271 19.89C59.1825 20.0367 58.7535 20.11 58.2401 20.11ZM62.4506 20C62.3772 20 62.3149 19.978 62.2636 19.934C62.2196 19.8827 62.1976 19.8203 62.1976 19.747V14.533C62.1976 14.4597 62.2196 14.401 62.2636 14.357C62.3149 14.3057 62.3772 14.28 62.4506 14.28H62.9786C63.0519 14.28 63.1106 14.3057 63.1546 14.357C63.1986 14.401 63.2206 14.4597 63.2206 14.533V19.747C63.2206 19.8203 63.1986 19.8827 63.1546 19.934C63.1106 19.978 63.0519 20 62.9786 20H62.4506ZM62.4176 13.455C62.3002 13.455 62.2416 13.3963 62.2416 13.279C62.2416 13.2203 62.2599 13.1727 62.2966 13.136L63.1216 12.146C63.1876 12.0653 63.2462 12.014 63.2976 11.992C63.3489 11.9627 63.4259 11.948 63.5286 11.948H64.2766C64.4159 11.948 64.4856 12.0177 64.4856 12.157C64.4856 12.2083 64.4672 12.2523 64.4306 12.289L63.1546 13.334C63.0959 13.3853 63.0409 13.4183 62.9896 13.433C62.9382 13.4477 62.8722 13.455 62.7916 13.455H62.4176ZM67.4246 20C67.014 20 66.6803 19.923 66.4236 19.769C66.167 19.6077 65.98 19.384 65.8626 19.098C65.7453 18.8047 65.6866 18.46 65.6866 18.064V15.16H64.8286C64.7553 15.16 64.693 15.138 64.6416 15.094C64.5976 15.0427 64.5756 14.9803 64.5756 14.907V14.533C64.5756 14.4597 64.5976 14.401 64.6416 14.357C64.693 14.3057 64.7553 14.28 64.8286 14.28H65.6866V12.443C65.6866 12.3697 65.7086 12.311 65.7526 12.267C65.804 12.2157 65.8663 12.19 65.9396 12.19H66.4566C66.53 12.19 66.5886 12.2157 66.6326 12.267C66.684 12.311 66.7096 12.3697 66.7096 12.443V14.28H68.0736C68.147 14.28 68.2056 14.3057 68.2496 14.357C68.301 14.401 68.3266 14.4597 68.3266 14.533V14.907C68.3266 14.9803 68.301 15.0427 68.2496 15.094C68.2056 15.138 68.147 15.16 68.0736 15.16H66.7096V17.987C66.7096 18.3317 66.7683 18.603 66.8856 18.801C67.003 18.999 67.212 19.098 67.5126 19.098H68.1836C68.257 19.098 68.3156 19.1237 68.3596 19.175C68.411 19.219 68.4366 19.2777 68.4366 19.351V19.747C68.4366 19.8203 68.411 19.8827 68.3596 19.934C68.3156 19.978 68.257 20 68.1836 20H67.4246ZM71.4135 20.11C71.0468 20.11 70.7132 20.0367 70.4125 19.89C70.1118 19.7433 69.8698 19.5453 69.6865 19.296C69.5032 19.0467 69.4115 18.7643 69.4115 18.449C69.4115 17.943 69.6168 17.5397 70.0275 17.239C70.4382 16.9383 70.9735 16.7403 71.6335 16.645L73.2725 16.414V16.095C73.2725 15.743 73.1698 15.468 72.9645 15.27C72.7665 15.072 72.4402 14.973 71.9855 14.973C71.6555 14.973 71.3878 15.039 71.1825 15.171C70.9845 15.303 70.8452 15.4717 70.7645 15.677C70.7205 15.787 70.6435 15.842 70.5335 15.842H70.0385C69.9578 15.842 69.8955 15.82 69.8515 15.776C69.8148 15.7247 69.7965 15.666 69.7965 15.6C69.7965 15.49 69.8368 15.3543 69.9175 15.193C70.0055 15.0317 70.1375 14.874 70.3135 14.72C70.4895 14.566 70.7132 14.4377 70.9845 14.335C71.2632 14.225 71.6005 14.17 71.9965 14.17C72.4365 14.17 72.8068 14.2287 73.1075 14.346C73.4082 14.456 73.6428 14.6063 73.8115 14.797C73.9875 14.9877 74.1122 15.204 74.1855 15.446C74.2662 15.688 74.3065 15.9337 74.3065 16.183V19.747C74.3065 19.8203 74.2808 19.8827 74.2295 19.934C74.1855 19.978 74.1268 20 74.0535 20H73.5475C73.4668 20 73.4045 19.978 73.3605 19.934C73.3165 19.8827 73.2945 19.8203 73.2945 19.747V19.274C73.1992 19.406 73.0708 19.538 72.9095 19.67C72.7482 19.7947 72.5465 19.901 72.3045 19.989C72.0625 20.0697 71.7655 20.11 71.4135 20.11ZM71.6445 19.285C71.9452 19.285 72.2202 19.2227 72.4695 19.098C72.7188 18.966 72.9132 18.7643 73.0525 18.493C73.1992 18.2217 73.2725 17.8807 73.2725 17.47V17.162L71.9965 17.349C71.4758 17.4223 71.0835 17.547 70.8195 17.723C70.5555 17.8917 70.4235 18.108 70.4235 18.372C70.4235 18.5773 70.4822 18.7497 70.5995 18.889C70.7242 19.021 70.8782 19.12 71.0615 19.186C71.2522 19.252 71.4465 19.285 71.6445 19.285ZM76.4708 20C76.3975 20 76.3352 19.978 76.2838 19.934C76.2398 19.8827 76.2178 19.8203 76.2178 19.747V14.533C76.2178 14.4597 76.2398 14.401 76.2838 14.357C76.3352 14.3057 76.3975 14.28 76.4708 14.28H76.9878C77.0612 14.28 77.1198 14.3057 77.1638 14.357C77.2152 14.401 77.2408 14.4597 77.2408 14.533V15.017C77.4315 14.7677 77.6698 14.566 77.9558 14.412C78.2492 14.2507 78.6232 14.17 79.0778 14.17C79.5545 14.17 79.9578 14.2763 80.2878 14.489C80.6252 14.6943 80.8782 14.984 81.0468 15.358C81.2155 15.7247 81.2998 16.1537 81.2998 16.645V19.747C81.2998 19.8203 81.2778 19.8827 81.2338 19.934C81.1898 19.978 81.1312 20 81.0578 20H80.5078C80.4345 20 80.3722 19.978 80.3208 19.934C80.2768 19.8827 80.2548 19.8203 80.2548 19.747V16.7C80.2548 16.1867 80.1302 15.787 79.8808 15.501C79.6315 15.2077 79.2648 15.061 78.7808 15.061C78.3262 15.061 77.9595 15.2077 77.6808 15.501C77.4095 15.787 77.2738 16.1867 77.2738 16.7V19.747C77.2738 19.8203 77.2482 19.8827 77.1968 19.934C77.1528 19.978 77.0942 20 77.0208 20H76.4708ZM85.5617 20.11C85.0044 20.11 84.5387 20.0037 84.1647 19.791C83.7907 19.5783 83.5047 19.285 83.3067 18.911C83.1087 18.5297 82.9987 18.097 82.9767 17.613C82.9694 17.4883 82.9657 17.3307 82.9657 17.14C82.9657 16.942 82.9694 16.7843 82.9767 16.667C82.9987 16.1757 83.1087 15.743 83.3067 15.369C83.5121 14.995 83.8017 14.7017 84.1757 14.489C84.5497 14.2763 85.0117 14.17 85.5617 14.17C86.1117 14.17 86.5737 14.2763 86.9477 14.489C87.3217 14.7017 87.6077 14.995 87.8057 15.369C88.0111 15.743 88.1247 16.1757 88.1467 16.667C88.1541 16.7843 88.1577 16.942 88.1577 17.14C88.1577 17.3307 88.1541 17.4883 88.1467 17.613C88.1247 18.097 88.0147 18.5297 87.8167 18.911C87.6187 19.285 87.3327 19.5783 86.9587 19.791C86.5847 20.0037 86.1191 20.11 85.5617 20.11ZM85.5617 19.263C86.0164 19.263 86.3794 19.12 86.6507 18.834C86.9221 18.5407 87.0687 18.1153 87.0907 17.558C87.0981 17.448 87.1017 17.3087 87.1017 17.14C87.1017 16.9713 87.0981 16.832 87.0907 16.722C87.0687 16.1647 86.9221 15.743 86.6507 15.457C86.3794 15.1637 86.0164 15.017 85.5617 15.017C85.1071 15.017 84.7404 15.1637 84.4617 15.457C84.1904 15.743 84.0474 16.1647 84.0327 16.722C84.0254 16.832 84.0217 16.9713 84.0217 17.14C84.0217 17.3087 84.0254 17.448 84.0327 17.558C84.0474 18.1153 84.1904 18.5407 84.4617 18.834C84.7404 19.12 85.1071 19.263 85.5617 19.263ZM91.8451 20.11C91.4345 20.11 91.0825 20.0587 90.7891 19.956C90.4958 19.8533 90.2575 19.7287 90.0741 19.582C89.8908 19.4353 89.7515 19.2887 89.6561 19.142C89.5681 18.9953 89.5205 18.878 89.5131 18.79C89.5058 18.7093 89.5315 18.647 89.5901 18.603C89.6488 18.559 89.7075 18.537 89.7661 18.537H90.2501C90.2941 18.537 90.3271 18.5443 90.3491 18.559C90.3785 18.5663 90.4151 18.5957 90.4591 18.647C90.5545 18.7497 90.6608 18.8523 90.7781 18.955C90.8955 19.0577 91.0385 19.142 91.2071 19.208C91.3831 19.274 91.5995 19.307 91.8561 19.307C92.2301 19.307 92.5381 19.2373 92.7801 19.098C93.0221 18.9513 93.1431 18.7387 93.1431 18.46C93.1431 18.2767 93.0918 18.13 92.9891 18.02C92.8938 17.91 92.7178 17.811 92.4611 17.723C92.2118 17.635 91.8671 17.5433 91.4271 17.448C90.9871 17.3453 90.6388 17.2207 90.3821 17.074C90.1255 16.92 89.9421 16.7403 89.8321 16.535C89.7221 16.3223 89.6671 16.084 89.6671 15.82C89.6671 15.5487 89.7478 15.2883 89.9091 15.039C90.0705 14.7823 90.3051 14.5733 90.6131 14.412C90.9285 14.2507 91.3208 14.17 91.7901 14.17C92.1715 14.17 92.4978 14.2177 92.7691 14.313C93.0405 14.4083 93.2641 14.5293 93.4401 14.676C93.6161 14.8153 93.7481 14.9547 93.8361 15.094C93.9241 15.2333 93.9718 15.3507 93.9791 15.446C93.9865 15.5193 93.9645 15.5817 93.9131 15.633C93.8618 15.677 93.8031 15.699 93.7371 15.699H93.2751C93.2238 15.699 93.1798 15.688 93.1431 15.666C93.1138 15.644 93.0845 15.6183 93.0551 15.589C92.9818 15.4937 92.8938 15.3983 92.7911 15.303C92.6958 15.2077 92.5675 15.1307 92.4061 15.072C92.2521 15.006 92.0468 14.973 91.7901 14.973C91.4235 14.973 91.1485 15.05 90.9651 15.204C90.7818 15.358 90.6901 15.5523 90.6901 15.787C90.6901 15.9263 90.7305 16.051 90.8111 16.161C90.8918 16.271 91.0458 16.37 91.2731 16.458C91.5005 16.546 91.8378 16.6413 92.2851 16.744C92.7691 16.8393 93.1505 16.9677 93.4291 17.129C93.7078 17.2903 93.9058 17.4773 94.0231 17.69C94.1405 17.9027 94.1991 18.1483 94.1991 18.427C94.1991 18.735 94.1075 19.0173 93.9241 19.274C93.7481 19.5307 93.4841 19.736 93.1321 19.89C92.7875 20.0367 92.3585 20.11 91.8451 20.11ZM101.106 20.11C100.351 20.11 99.7492 19.879 99.3018 19.417C98.8545 18.9477 98.6088 18.3097 98.5648 17.503C98.5575 17.4077 98.5538 17.2867 98.5538 17.14C98.5538 16.986 98.5575 16.8613 98.5648 16.766C98.5942 16.2453 98.7152 15.7907 98.9278 15.402C99.1405 15.006 99.4302 14.7017 99.7968 14.489C100.171 14.2763 100.607 14.17 101.106 14.17C101.663 14.17 102.129 14.2873 102.503 14.522C102.884 14.7567 103.174 15.0903 103.372 15.523C103.57 15.9557 103.669 16.4617 103.669 17.041V17.228C103.669 17.3087 103.643 17.371 103.592 17.415C103.548 17.459 103.489 17.481 103.416 17.481H99.6098C99.6098 17.4883 99.6098 17.503 99.6098 17.525C99.6098 17.547 99.6098 17.5653 99.6098 17.58C99.6245 17.8807 99.6905 18.163 99.8078 18.427C99.9252 18.6837 100.094 18.8927 100.314 19.054C100.534 19.2153 100.798 19.296 101.106 19.296C101.37 19.296 101.59 19.2557 101.766 19.175C101.942 19.0943 102.085 19.0063 102.195 18.911C102.305 18.8083 102.378 18.7313 102.415 18.68C102.481 18.5847 102.532 18.5297 102.569 18.515C102.606 18.493 102.664 18.482 102.745 18.482H103.273C103.346 18.482 103.405 18.504 103.449 18.548C103.5 18.5847 103.522 18.6397 103.515 18.713C103.508 18.823 103.449 18.9587 103.339 19.12C103.229 19.274 103.071 19.428 102.866 19.582C102.661 19.736 102.411 19.8643 102.118 19.967C101.825 20.0623 101.487 20.11 101.106 20.11ZM99.6098 16.722H102.624V16.689C102.624 16.359 102.562 16.0657 102.437 15.809C102.32 15.5523 102.147 15.3507 101.92 15.204C101.693 15.05 101.421 14.973 101.106 14.973C100.791 14.973 100.519 15.05 100.292 15.204C100.072 15.3507 99.9032 15.5523 99.7858 15.809C99.6685 16.0657 99.6098 16.359 99.6098 16.689V16.722ZM105.567 20C105.494 20 105.431 19.978 105.38 19.934C105.336 19.8827 105.314 19.8203 105.314 19.747V14.533C105.314 14.4597 105.336 14.401 105.38 14.357C105.431 14.3057 105.494 14.28 105.567 14.28H106.084C106.157 14.28 106.216 14.3057 106.26 14.357C106.311 14.401 106.337 14.4597 106.337 14.533V15.017C106.528 14.7677 106.766 14.566 107.052 14.412C107.345 14.2507 107.719 14.17 108.174 14.17C108.651 14.17 109.054 14.2763 109.384 14.489C109.721 14.6943 109.974 14.984 110.143 15.358C110.312 15.7247 110.396 16.1537 110.396 16.645V19.747C110.396 19.8203 110.374 19.8827 110.33 19.934C110.286 19.978 110.227 20 110.154 20H109.604C109.531 20 109.468 19.978 109.417 19.934C109.373 19.8827 109.351 19.8203 109.351 19.747V16.7C109.351 16.1867 109.226 15.787 108.977 15.501C108.728 15.2077 108.361 15.061 107.877 15.061C107.422 15.061 107.056 15.2077 106.777 15.501C106.506 15.787 106.37 16.1867 106.37 16.7V19.747C106.37 19.8203 106.344 19.8827 106.293 19.934C106.249 19.978 106.19 20 106.117 20H105.567Z" fill="#212529"/>
<path d="M45.88 40C45.7627 40 45.66 39.956 45.572 39.868C45.484 39.78 45.44 39.6773 45.44 39.56C45.44 39.4867 45.4473 39.406 45.462 39.318L50.918 25.084C50.9767 24.9373 51.0573 24.82 51.16 24.732C51.2627 24.644 51.4167 24.6 51.622 24.6H53.118C53.3087 24.6 53.4553 24.644 53.558 24.732C53.6753 24.82 53.7633 24.9373 53.822 25.084L59.256 39.318C59.2853 39.406 59.3 39.4867 59.3 39.56C59.3 39.6773 59.256 39.78 59.168 39.868C59.08 39.956 58.9773 40 58.86 40H57.738C57.562 40 57.43 39.956 57.342 39.868C57.2687 39.78 57.2173 39.6993 57.188 39.626L55.978 36.502H48.762L47.552 39.626C47.5373 39.6993 47.486 39.78 47.398 39.868C47.31 39.956 47.178 40 47.002 40H45.88ZM49.4 34.61H55.34L52.37 26.8L49.4 34.61ZM61.2343 44.18C61.0876 44.18 60.9629 44.1287 60.8603 44.026C60.7723 43.938 60.7283 43.8207 60.7283 43.674V29.066C60.7283 28.9193 60.7723 28.802 60.8603 28.714C60.9629 28.6113 61.0876 28.56 61.2343 28.56H62.2463C62.3929 28.56 62.5103 28.6113 62.5983 28.714C62.7009 28.802 62.7523 28.9193 62.7523 29.066V30.034C63.1043 29.55 63.5736 29.1467 64.1603 28.824C64.7469 28.5013 65.4803 28.34 66.3603 28.34C67.1816 28.34 67.8783 28.4793 68.4503 28.758C69.0369 29.0367 69.5136 29.418 69.8803 29.902C70.2616 30.386 70.5476 30.936 70.7383 31.552C70.9289 32.168 71.0316 32.828 71.0463 33.532C71.0609 33.7667 71.0683 34.016 71.0683 34.28C71.0683 34.544 71.0609 34.7933 71.0463 35.028C71.0316 35.7173 70.9289 36.3773 70.7383 37.008C70.5476 37.624 70.2616 38.174 69.8803 38.658C69.5136 39.1273 69.0369 39.5087 68.4503 39.802C67.8783 40.0807 67.1816 40.22 66.3603 40.22C65.5096 40.22 64.7909 40.066 64.2043 39.758C63.6323 39.4353 63.1629 39.0393 62.7963 38.57V43.674C62.7963 43.8207 62.7523 43.938 62.6643 44.026C62.5763 44.1287 62.4516 44.18 62.2903 44.18H61.2343ZM65.8983 38.438C66.6609 38.438 67.2549 38.2767 67.6803 37.954C68.1203 37.6167 68.4356 37.184 68.6263 36.656C68.8169 36.1133 68.9269 35.534 68.9563 34.918C68.9709 34.4927 68.9709 34.0673 68.9563 33.642C68.9269 33.026 68.8169 32.454 68.6263 31.926C68.4356 31.3833 68.1203 30.9507 67.6803 30.628C67.2549 30.2907 66.6609 30.122 65.8983 30.122C65.1796 30.122 64.5929 30.2907 64.1383 30.628C63.6983 30.9653 63.3683 31.398 63.1483 31.926C62.9429 32.4393 62.8256 32.9673 62.7963 33.51C62.7816 33.7447 62.7743 34.0233 62.7743 34.346C62.7743 34.6687 62.7816 34.9547 62.7963 35.204C62.8109 35.7173 62.9283 36.2233 63.1483 36.722C63.3829 37.2207 63.7276 37.6313 64.1823 37.954C64.6369 38.2767 65.2089 38.438 65.8983 38.438ZM73.6798 44.18C73.5331 44.18 73.4084 44.1287 73.3058 44.026C73.2178 43.938 73.1738 43.8207 73.1738 43.674V29.066C73.1738 28.9193 73.2178 28.802 73.3058 28.714C73.4084 28.6113 73.5331 28.56 73.6798 28.56H74.6918C74.8384 28.56 74.9558 28.6113 75.0438 28.714C75.1464 28.802 75.1978 28.9193 75.1978 29.066V30.034C75.5498 29.55 76.0191 29.1467 76.6058 28.824C77.1924 28.5013 77.9258 28.34 78.8058 28.34C79.6271 28.34 80.3238 28.4793 80.8958 28.758C81.4824 29.0367 81.9591 29.418 82.3258 29.902C82.7071 30.386 82.9931 30.936 83.1838 31.552C83.3744 32.168 83.4771 32.828 83.4918 33.532C83.5064 33.7667 83.5138 34.016 83.5138 34.28C83.5138 34.544 83.5064 34.7933 83.4918 35.028C83.4771 35.7173 83.3744 36.3773 83.1838 37.008C82.9931 37.624 82.7071 38.174 82.3258 38.658C81.9591 39.1273 81.4824 39.5087 80.8958 39.802C80.3238 40.0807 79.6271 40.22 78.8058 40.22C77.9551 40.22 77.2364 40.066 76.6498 39.758C76.0778 39.4353 75.6084 39.0393 75.2418 38.57V43.674C75.2418 43.8207 75.1978 43.938 75.1098 44.026C75.0218 44.1287 74.8971 44.18 74.7358 44.18H73.6798ZM78.3438 38.438C79.1064 38.438 79.7004 38.2767 80.1258 37.954C80.5658 37.6167 80.8811 37.184 81.0718 36.656C81.2624 36.1133 81.3724 35.534 81.4018 34.918C81.4164 34.4927 81.4164 34.0673 81.4018 33.642C81.3724 33.026 81.2624 32.454 81.0718 31.926C80.8811 31.3833 80.5658 30.9507 80.1258 30.628C79.7004 30.2907 79.1064 30.122 78.3438 30.122C77.6251 30.122 77.0384 30.2907 76.5838 30.628C76.1438 30.9653 75.8138 31.398 75.5938 31.926C75.3884 32.4393 75.2711 32.9673 75.2418 33.51C75.2271 33.7447 75.2198 34.0233 75.2198 34.346C75.2198 34.6687 75.2271 34.9547 75.2418 35.204C75.2564 35.7173 75.3738 36.2233 75.5938 36.722C75.8284 37.2207 76.1731 37.6313 76.6278 37.954C77.0824 38.2767 77.6544 38.438 78.3438 38.438ZM95.5658 40.22C94.2898 40.22 93.2191 40.0293 92.3538 39.648C91.4885 39.252 90.8211 38.746 90.3518 38.13C89.8971 37.4993 89.6551 36.832 89.6258 36.128C89.6258 36.0107 89.6698 35.908 89.7578 35.82C89.8605 35.7173 89.9778 35.666 90.1098 35.666H91.2318C91.4078 35.666 91.5398 35.71 91.6278 35.798C91.7158 35.886 91.7745 35.9887 91.8038 36.106C91.8771 36.458 92.0531 36.81 92.3318 37.162C92.6251 37.4993 93.0285 37.7853 93.5418 38.02C94.0698 38.24 94.7445 38.35 95.5658 38.35C96.8271 38.35 97.7511 38.13 98.3378 37.69C98.9391 37.2353 99.2398 36.634 99.2398 35.886C99.2398 35.3727 99.0785 34.962 98.7558 34.654C98.4478 34.3313 97.9711 34.0453 97.3258 33.796C96.6805 33.5467 95.8445 33.2753 94.8178 32.982C93.7471 32.674 92.8598 32.3367 92.1558 31.97C91.4518 31.6033 90.9238 31.1487 90.5718 30.606C90.2345 30.0633 90.0658 29.374 90.0658 28.538C90.0658 27.746 90.2785 27.042 90.7038 26.426C91.1291 25.7953 91.7378 25.2967 92.5298 24.93C93.3365 24.5633 94.3118 24.38 95.4558 24.38C96.3651 24.38 97.1571 24.5047 97.8318 24.754C98.5211 24.9887 99.0931 25.3113 99.5478 25.722C100.002 26.118 100.347 26.5507 100.582 27.02C100.816 27.4747 100.941 27.922 100.956 28.362C100.956 28.4647 100.919 28.5673 100.846 28.67C100.772 28.758 100.655 28.802 100.494 28.802H99.3278C99.2251 28.802 99.1151 28.7727 98.9978 28.714C98.8951 28.6553 98.8145 28.5453 98.7558 28.384C98.6678 27.7827 98.3305 27.2767 97.7438 26.866C97.1571 26.4553 96.3945 26.25 95.4558 26.25C94.5025 26.25 93.7251 26.4333 93.1238 26.8C92.5371 27.1667 92.2438 27.7387 92.2438 28.516C92.2438 29.0147 92.3831 29.4327 92.6618 29.77C92.9405 30.0927 93.3805 30.3787 93.9818 30.628C94.5831 30.8773 95.3678 31.1413 96.3358 31.42C97.5091 31.7427 98.4698 32.0873 99.2178 32.454C99.9658 32.806 100.516 33.2533 100.868 33.796C101.234 34.324 101.418 35.006 101.418 35.842C101.418 36.766 101.176 37.558 100.692 38.218C100.208 38.8633 99.5258 39.362 98.6458 39.714C97.7805 40.0513 96.7538 40.22 95.5658 40.22ZM107.821 40C107 40 106.333 39.846 105.819 39.538C105.306 39.2153 104.932 38.768 104.697 38.196C104.463 37.6093 104.345 36.92 104.345 36.128V30.32H102.629C102.483 30.32 102.358 30.276 102.255 30.188C102.167 30.0853 102.123 29.9607 102.123 29.814V29.066C102.123 28.9193 102.167 28.802 102.255 28.714C102.358 28.6113 102.483 28.56 102.629 28.56H104.345V24.886C104.345 24.7393 104.389 24.622 104.477 24.534C104.58 24.4313 104.705 24.38 104.851 24.38H105.885C106.032 24.38 106.149 24.4313 106.237 24.534C106.34 24.622 106.391 24.7393 106.391 24.886V28.56H109.119C109.266 28.56 109.383 28.6113 109.471 28.714C109.574 28.802 109.625 28.9193 109.625 29.066V29.814C109.625 29.9607 109.574 30.0853 109.471 30.188C109.383 30.276 109.266 30.32 109.119 30.32H106.391V35.974C106.391 36.6633 106.509 37.206 106.743 37.602C106.978 37.998 107.396 38.196 107.997 38.196H109.339C109.486 38.196 109.603 38.2473 109.691 38.35C109.794 38.438 109.845 38.5553 109.845 38.702V39.494C109.845 39.6407 109.794 39.7653 109.691 39.868C109.603 39.956 109.486 40 109.339 40H107.821ZM115.975 40.22C114.86 40.22 113.929 40.0073 113.181 39.582C112.433 39.1567 111.861 38.57 111.465 37.822C111.069 37.0593 110.849 36.194 110.805 35.226C110.79 34.9767 110.783 34.6613 110.783 34.28C110.783 33.884 110.79 33.5687 110.805 33.334C110.849 32.3513 111.069 31.486 111.465 30.738C111.876 29.99 112.455 29.4033 113.203 28.978C113.951 28.5527 114.875 28.34 115.975 28.34C117.075 28.34 117.999 28.5527 118.747 28.978C119.495 29.4033 120.067 29.99 120.463 30.738C120.874 31.486 121.101 32.3513 121.145 33.334C121.16 33.5687 121.167 33.884 121.167 34.28C121.167 34.6613 121.16 34.9767 121.145 35.226C121.101 36.194 120.881 37.0593 120.485 37.822C120.089 38.57 119.517 39.1567 118.769 39.582C118.021 40.0073 117.09 40.22 115.975 40.22ZM115.975 38.526C116.884 38.526 117.61 38.24 118.153 37.668C118.696 37.0813 118.989 36.2307 119.033 35.116C119.048 34.896 119.055 34.6173 119.055 34.28C119.055 33.9427 119.048 33.664 119.033 33.444C118.989 32.3293 118.696 31.486 118.153 30.914C117.61 30.3273 116.884 30.034 115.975 30.034C115.066 30.034 114.332 30.3273 113.775 30.914C113.232 31.486 112.946 32.3293 112.917 33.444C112.902 33.664 112.895 33.9427 112.895 34.28C112.895 34.6173 112.902 34.896 112.917 35.116C112.946 36.2307 113.232 37.0813 113.775 37.668C114.332 38.24 115.066 38.526 115.975 38.526ZM123.768 40C123.621 40 123.497 39.956 123.394 39.868C123.306 39.7653 123.262 39.6407 123.262 39.494V29.088C123.262 28.9413 123.306 28.8167 123.394 28.714C123.497 28.6113 123.621 28.56 123.768 28.56H124.78C124.927 28.56 125.051 28.6113 125.154 28.714C125.257 28.8167 125.308 28.9413 125.308 29.088V30.056C125.601 29.5573 126.005 29.1833 126.518 28.934C127.031 28.6847 127.647 28.56 128.366 28.56H129.246C129.393 28.56 129.51 28.6113 129.598 28.714C129.686 28.802 129.73 28.9193 129.73 29.066V29.968C129.73 30.1147 129.686 30.232 129.598 30.32C129.51 30.408 129.393 30.452 129.246 30.452H127.926C127.134 30.452 126.511 30.6867 126.056 31.156C125.601 31.6107 125.374 32.234 125.374 33.026V39.494C125.374 39.6407 125.323 39.7653 125.22 39.868C125.117 39.956 124.993 40 124.846 40H123.768ZM135.298 40.22C133.788 40.22 132.585 39.758 131.69 38.834C130.796 37.8953 130.304 36.6193 130.216 35.006C130.202 34.8153 130.194 34.5733 130.194 34.28C130.194 33.972 130.202 33.7227 130.216 33.532C130.275 32.4907 130.517 31.5813 130.942 30.804C131.368 30.012 131.947 29.4033 132.68 28.978C133.428 28.5527 134.301 28.34 135.298 28.34C136.413 28.34 137.344 28.5747 138.092 29.044C138.855 29.5133 139.434 30.1807 139.83 31.046C140.226 31.9113 140.424 32.9233 140.424 34.082V34.456C140.424 34.6173 140.373 34.742 140.27 34.83C140.182 34.918 140.065 34.962 139.918 34.962H132.306C132.306 34.9767 132.306 35.006 132.306 35.05C132.306 35.094 132.306 35.1307 132.306 35.16C132.336 35.7613 132.468 36.326 132.702 36.854C132.937 37.3673 133.274 37.7853 133.714 38.108C134.154 38.4307 134.682 38.592 135.298 38.592C135.826 38.592 136.266 38.5113 136.618 38.35C136.97 38.1887 137.256 38.0127 137.476 37.822C137.696 37.6167 137.843 37.4627 137.916 37.36C138.048 37.1693 138.151 37.0593 138.224 37.03C138.298 36.986 138.415 36.964 138.576 36.964H139.632C139.779 36.964 139.896 37.008 139.984 37.096C140.087 37.1693 140.131 37.2793 140.116 37.426C140.102 37.646 139.984 37.9173 139.764 38.24C139.544 38.548 139.229 38.856 138.818 39.164C138.408 39.472 137.909 39.7287 137.322 39.934C136.736 40.1247 136.061 40.22 135.298 40.22ZM132.306 33.444H138.334V33.378C138.334 32.718 138.21 32.1313 137.96 31.618C137.726 31.1047 137.381 30.7013 136.926 30.408C136.472 30.1 135.929 29.946 135.298 29.946C134.668 29.946 134.125 30.1 133.67 30.408C133.23 30.7013 132.893 31.1047 132.658 31.618C132.424 32.1313 132.306 32.718 132.306 33.378V33.444Z" fill="#212529"/>
</svg>
