<svg width="154" height="52" viewBox="0 0 154 52" fill="none" xmlns="http://www.w3.org/2000/svg">
<rect x="0.5" y="0.5" width="153" height="51" rx="9.5" fill="white"/>
<rect x="0.5" y="0.5" width="153" height="51" rx="9.5" stroke="#212529"/>
<path d="M32.0454 25.4221C32.0747 23.1834 33.2977 21.0652 35.2378 19.8926C34.0139 18.1742 31.9639 17.0847 29.8311 17.0191C27.5563 16.7844 25.3509 18.3573 24.1917 18.3573C23.0101 18.3573 21.2253 17.0424 19.3034 17.0813C16.7983 17.1609 14.4629 18.561 13.2441 20.7141C10.6242 25.1734 12.5784 31.727 15.0881 35.3315C16.3437 37.0965 17.8112 39.0681 19.7314 38.9982C21.6104 38.9216 22.3122 37.8203 24.5803 37.8203C26.8273 37.8203 27.4857 38.9982 29.4449 38.9537C31.4611 38.9216 32.7315 37.1809 33.9431 35.3991C34.8452 34.1415 35.5394 32.7515 36 31.2807C33.6305 30.2955 32.0482 27.9513 32.0454 25.4221Z" fill="#212529"/>
<path d="M28.3449 14.6486C29.4443 13.3512 29.9859 11.6836 29.8547 10C28.1752 10.1734 26.6237 10.9626 25.5095 12.2102C24.42 13.4292 23.853 15.0674 23.9602 16.6867C25.6403 16.7037 27.2921 15.936 28.3449 14.6486Z" fill="#212529"/>
<path d="M46.21 20C46.1293 20 46.067 19.978 46.023 19.934C45.979 19.8827 45.957 19.8203 45.957 19.747V12.564C45.957 12.4833 45.979 12.421 46.023 12.377C46.067 12.3257 46.1293 12.3 46.21 12.3H49.224C49.774 12.3 50.2213 12.3917 50.566 12.575C50.918 12.751 51.1747 12.993 51.336 13.301C51.5047 13.609 51.589 13.9537 51.589 14.335C51.589 14.6357 51.5377 14.896 51.435 15.116C51.3397 15.3287 51.2187 15.5047 51.072 15.644C50.9253 15.776 50.7823 15.8787 50.643 15.952C50.929 16.0913 51.182 16.3187 51.402 16.634C51.6293 16.9493 51.743 17.3307 51.743 17.778C51.743 18.1813 51.6513 18.5517 51.468 18.889C51.2847 19.2263 51.0097 19.4977 50.643 19.703C50.2837 19.901 49.8363 20 49.301 20H46.21ZM47.035 19.109H49.158C49.6347 19.109 50.0013 18.9807 50.258 18.724C50.5147 18.4673 50.643 18.152 50.643 17.778C50.643 17.3893 50.5147 17.0703 50.258 16.821C50.0013 16.5643 49.6347 16.436 49.158 16.436H47.035V19.109ZM47.035 15.556H49.059C49.5283 15.556 49.884 15.4497 50.126 15.237C50.368 15.017 50.489 14.72 50.489 14.346C50.489 13.972 50.368 13.686 50.126 13.488C49.884 13.29 49.5283 13.191 49.059 13.191H47.035V15.556ZM53.7447 20C53.6713 20 53.609 19.978 53.5577 19.934C53.5137 19.8827 53.4917 19.8203 53.4917 19.747V14.533C53.4917 14.4597 53.5137 14.401 53.5577 14.357C53.609 14.3057 53.6713 14.28 53.7447 14.28H54.2727C54.346 14.28 54.4047 14.3057 54.4487 14.357C54.4927 14.401 54.5147 14.4597 54.5147 14.533V19.747C54.5147 19.8203 54.4927 19.8827 54.4487 19.934C54.4047 19.978 54.346 20 54.2727 20H53.7447ZM53.6567 13.213C53.5833 13.213 53.521 13.191 53.4697 13.147C53.4257 13.0957 53.4037 13.0333 53.4037 12.96V12.366C53.4037 12.2927 53.4257 12.234 53.4697 12.19C53.521 12.1387 53.5833 12.113 53.6567 12.113H54.3497C54.423 12.113 54.4817 12.1387 54.5257 12.19C54.577 12.234 54.6027 12.2927 54.6027 12.366V12.96C54.6027 13.0333 54.577 13.0957 54.5257 13.147C54.4817 13.191 54.423 13.213 54.3497 13.213H53.6567ZM56.1557 21.21C56.0824 21.21 56.0201 21.1843 55.9687 21.133C55.9247 21.089 55.9027 21.0303 55.9027 20.957V19.373C55.9027 19.2997 55.9247 19.241 55.9687 19.197C56.0201 19.1457 56.0824 19.12 56.1557 19.12H56.2107C56.4087 19.1127 56.5774 19.0027 56.7167 18.79C56.8561 18.57 56.9624 18.229 57.0357 17.767C57.1091 17.2977 57.1457 16.689 57.1457 15.941V14.533C57.1457 14.4597 57.1677 14.401 57.2117 14.357C57.2631 14.3057 57.3254 14.28 57.3987 14.28H60.9077C60.9811 14.28 61.0397 14.3057 61.0837 14.357C61.1351 14.401 61.1607 14.4597 61.1607 14.533V19.098H61.6777C61.7584 19.098 61.8207 19.1237 61.8647 19.175C61.9087 19.219 61.9307 19.2777 61.9307 19.351V20.957C61.9307 21.0303 61.9087 21.089 61.8647 21.133C61.8207 21.1843 61.7584 21.21 61.6777 21.21H61.1607C61.0874 21.21 61.0251 21.1843 60.9737 21.133C60.9297 21.089 60.9077 21.0303 60.9077 20.957V20H56.9257V20.957C56.9257 21.0303 56.9001 21.089 56.8487 21.133C56.8047 21.1843 56.7461 21.21 56.6727 21.21H56.1557ZM57.5197 19.12L60.1377 19.098V15.16H58.1467V16.062C58.1467 16.8393 58.0917 17.4773 57.9817 17.976C57.8717 18.4673 57.7177 18.8487 57.5197 19.12ZM63.6644 20C63.5911 20 63.5288 19.978 63.4774 19.934C63.4334 19.8827 63.4114 19.8203 63.4114 19.747V14.533C63.4114 14.4597 63.4334 14.401 63.4774 14.357C63.5288 14.3057 63.5911 14.28 63.6644 14.28H65.9524C66.6418 14.28 67.1588 14.4193 67.5034 14.698C67.8554 14.9767 68.0314 15.3507 68.0314 15.82C68.0314 16.15 67.9691 16.3993 67.8444 16.568C67.7198 16.7367 67.5438 16.8797 67.3164 16.997C67.5951 17.1143 67.8041 17.305 67.9434 17.569C68.0901 17.8257 68.1634 18.0933 68.1634 18.372C68.1634 18.9 67.9764 19.3033 67.6024 19.582C67.2284 19.8607 66.7078 20 66.0404 20H63.6644ZM64.4234 19.197H65.9524C66.3044 19.197 66.5868 19.131 66.7994 18.999C67.0194 18.8597 67.1294 18.6507 67.1294 18.372C67.1294 18.0787 67.0304 17.866 66.8324 17.734C66.6344 17.5947 66.3411 17.525 65.9524 17.525H64.4234V19.197ZM64.4234 16.711H65.8864C66.2384 16.711 66.5171 16.634 66.7224 16.48C66.9351 16.326 67.0414 16.1097 67.0414 15.831C67.0414 15.545 66.9351 15.3507 66.7224 15.248C66.5171 15.138 66.2384 15.083 65.8864 15.083H64.4234V16.711ZM70.1604 20C70.0871 20 70.0248 19.978 69.9734 19.934C69.9294 19.8827 69.9074 19.8203 69.9074 19.747V14.533C69.9074 14.4597 69.9294 14.401 69.9734 14.357C70.0248 14.3057 70.0871 14.28 70.1604 14.28H70.6884C70.7618 14.28 70.8204 14.3057 70.8644 14.357C70.9084 14.401 70.9304 14.4597 70.9304 14.533V19.747C70.9304 19.8203 70.9084 19.8827 70.8644 19.934C70.8204 19.978 70.7618 20 70.6884 20H70.1604ZM70.0724 13.213C69.9991 13.213 69.9368 13.191 69.8854 13.147C69.8414 13.0957 69.8194 13.0333 69.8194 12.96V12.366C69.8194 12.2927 69.8414 12.234 69.8854 12.19C69.9368 12.1387 69.9991 12.113 70.0724 12.113H70.7654C70.8388 12.113 70.8974 12.1387 70.9414 12.19C70.9928 12.234 71.0184 12.2927 71.0184 12.366V12.96C71.0184 13.0333 70.9928 13.0957 70.9414 13.147C70.8974 13.191 70.8388 13.213 70.7654 13.213H70.0724ZM72.5715 21.21C72.4982 21.21 72.4358 21.1843 72.3845 21.133C72.3405 21.089 72.3185 21.0303 72.3185 20.957V19.373C72.3185 19.2997 72.3405 19.241 72.3845 19.197C72.4358 19.1457 72.4982 19.12 72.5715 19.12H72.6265C72.8245 19.1127 72.9932 19.0027 73.1325 18.79C73.2718 18.57 73.3782 18.229 73.4515 17.767C73.5248 17.2977 73.5615 16.689 73.5615 15.941V14.533C73.5615 14.4597 73.5835 14.401 73.6275 14.357C73.6788 14.3057 73.7412 14.28 73.8145 14.28H77.3235C77.3968 14.28 77.4555 14.3057 77.4995 14.357C77.5508 14.401 77.5765 14.4597 77.5765 14.533V19.098H78.0935C78.1742 19.098 78.2365 19.1237 78.2805 19.175C78.3245 19.219 78.3465 19.2777 78.3465 19.351V20.957C78.3465 21.0303 78.3245 21.089 78.2805 21.133C78.2365 21.1843 78.1742 21.21 78.0935 21.21H77.5765C77.5032 21.21 77.4408 21.1843 77.3895 21.133C77.3455 21.089 77.3235 21.0303 77.3235 20.957V20H73.3415V20.957C73.3415 21.0303 73.3158 21.089 73.2645 21.133C73.2205 21.1843 73.1618 21.21 73.0885 21.21H72.5715ZM73.9355 19.12L76.5535 19.098V15.16H74.5625V16.062C74.5625 16.8393 74.5075 17.4773 74.3975 17.976C74.2875 18.4673 74.1335 18.8487 73.9355 19.12ZM81.4222 20.11C81.0555 20.11 80.7219 20.0367 80.4212 19.89C80.1205 19.7433 79.8785 19.5453 79.6952 19.296C79.5119 19.0467 79.4202 18.7643 79.4202 18.449C79.4202 17.943 79.6255 17.5397 80.0362 17.239C80.4469 16.9383 80.9822 16.7403 81.6422 16.645L83.2812 16.414V16.095C83.2812 15.743 83.1785 15.468 82.9732 15.27C82.7752 15.072 82.4489 14.973 81.9942 14.973C81.6642 14.973 81.3965 15.039 81.1912 15.171C80.9932 15.303 80.8539 15.4717 80.7732 15.677C80.7292 15.787 80.6522 15.842 80.5422 15.842H80.0472C79.9665 15.842 79.9042 15.82 79.8602 15.776C79.8235 15.7247 79.8052 15.666 79.8052 15.6C79.8052 15.49 79.8455 15.3543 79.9262 15.193C80.0142 15.0317 80.1462 14.874 80.3222 14.72C80.4982 14.566 80.7219 14.4377 80.9932 14.335C81.2719 14.225 81.6092 14.17 82.0052 14.17C82.4452 14.17 82.8155 14.2287 83.1162 14.346C83.4169 14.456 83.6515 14.6063 83.8202 14.797C83.9962 14.9877 84.1209 15.204 84.1942 15.446C84.2749 15.688 84.3152 15.9337 84.3152 16.183V19.747C84.3152 19.8203 84.2895 19.8827 84.2382 19.934C84.1942 19.978 84.1355 20 84.0622 20H83.5562C83.4755 20 83.4132 19.978 83.3692 19.934C83.3252 19.8827 83.3032 19.8203 83.3032 19.747V19.274C83.2079 19.406 83.0795 19.538 82.9182 19.67C82.7569 19.7947 82.5552 19.901 82.3132 19.989C82.0712 20.0697 81.7742 20.11 81.4222 20.11ZM81.6532 19.285C81.9539 19.285 82.2289 19.2227 82.4782 19.098C82.7275 18.966 82.9219 18.7643 83.0612 18.493C83.2079 18.2217 83.2812 17.8807 83.2812 17.47V17.162L82.0052 17.349C81.4845 17.4223 81.0922 17.547 80.8282 17.723C80.5642 17.8917 80.4322 18.108 80.4322 18.372C80.4322 18.5773 80.4909 18.7497 80.6082 18.889C80.7329 19.021 80.8869 19.12 81.0702 19.186C81.2609 19.252 81.4552 19.285 81.6532 19.285ZM86.4685 20C86.4025 20 86.3439 19.978 86.2925 19.934C86.2485 19.8827 86.2265 19.8277 86.2265 19.769V14.533C86.2265 14.4597 86.2485 14.401 86.2925 14.357C86.3439 14.3057 86.4062 14.28 86.4795 14.28H87.0075C87.0809 14.28 87.1395 14.3057 87.1835 14.357C87.2275 14.401 87.2495 14.4597 87.2495 14.533V19.197L86.9635 18.9L90.2965 14.445C90.3332 14.401 90.3735 14.3643 90.4175 14.335C90.4615 14.2983 90.5165 14.28 90.5825 14.28H91.0885C91.1472 14.28 91.1985 14.302 91.2425 14.346C91.2939 14.39 91.3195 14.4413 91.3195 14.5V19.747C91.3195 19.8203 91.2939 19.8827 91.2425 19.934C91.1985 19.978 91.1399 20 91.0665 20H90.5495C90.4689 20 90.4065 19.978 90.3625 19.934C90.3185 19.8827 90.2965 19.8203 90.2965 19.747V15.358L90.6045 15.347L87.2495 19.835C87.2202 19.8717 87.1835 19.9083 87.1395 19.945C87.0955 19.9817 87.0369 20 86.9635 20H86.4685ZM88.8005 13.521C88.3752 13.521 88.0415 13.455 87.7995 13.323C87.5575 13.191 87.3889 13.0223 87.2935 12.817C87.1982 12.6043 87.1505 12.3843 87.1505 12.157C87.1505 12.0983 87.1652 12.0507 87.1945 12.014C87.2312 11.97 87.2862 11.948 87.3595 11.948H87.7335C87.7995 11.948 87.8509 11.97 87.8875 12.014C87.9242 12.0507 87.9425 12.0983 87.9425 12.157C87.9425 12.3257 87.9975 12.4833 88.1075 12.63C88.2249 12.7693 88.4559 12.839 88.8005 12.839C89.1525 12.839 89.3835 12.7693 89.4935 12.63C89.6035 12.4833 89.6585 12.3257 89.6585 12.157C89.6585 12.0983 89.6769 12.0507 89.7135 12.014C89.7502 11.97 89.8015 11.948 89.8675 11.948H90.2525C90.3185 11.948 90.3699 11.97 90.4065 12.014C90.4432 12.0507 90.4615 12.0983 90.4615 12.157C90.4615 12.3843 90.4102 12.6043 90.3075 12.817C90.2122 13.0223 90.0435 13.191 89.8015 13.323C89.5595 13.455 89.2259 13.521 88.8005 13.521ZM95.0087 20C94.9353 20 94.873 19.978 94.8217 19.934C94.7777 19.8827 94.7557 19.8203 94.7557 19.747V15.16H92.8417C92.7683 15.16 92.706 15.138 92.6547 15.094C92.6107 15.0427 92.5887 14.9803 92.5887 14.907V14.533C92.5887 14.4597 92.6107 14.401 92.6547 14.357C92.706 14.3057 92.7683 14.28 92.8417 14.28H97.6817C97.755 14.28 97.8137 14.3057 97.8577 14.357C97.909 14.401 97.9347 14.4597 97.9347 14.533V14.907C97.9347 14.9803 97.909 15.0427 97.8577 15.094C97.8137 15.138 97.755 15.16 97.6817 15.16H95.7677V19.747C95.7677 19.8203 95.7457 19.8827 95.7017 19.934C95.6577 19.978 95.5953 20 95.5147 20H95.0087ZM101.496 20.11C100.74 20.11 100.139 19.879 99.6916 19.417C99.2442 18.9477 98.9986 18.3097 98.9546 17.503C98.9472 17.4077 98.9436 17.2867 98.9436 17.14C98.9436 16.986 98.9472 16.8613 98.9546 16.766C98.9839 16.2453 99.1049 15.7907 99.3176 15.402C99.5302 15.006 99.8199 14.7017 100.187 14.489C100.561 14.2763 100.997 14.17 101.496 14.17C102.053 14.17 102.519 14.2873 102.893 14.522C103.274 14.7567 103.564 15.0903 103.762 15.523C103.96 15.9557 104.059 16.4617 104.059 17.041V17.228C104.059 17.3087 104.033 17.371 103.982 17.415C103.938 17.459 103.879 17.481 103.806 17.481H99.9996C99.9996 17.4883 99.9996 17.503 99.9996 17.525C99.9996 17.547 99.9996 17.5653 99.9996 17.58C100.014 17.8807 100.08 18.163 100.198 18.427C100.315 18.6837 100.484 18.8927 100.704 19.054C100.924 19.2153 101.188 19.296 101.496 19.296C101.76 19.296 101.98 19.2557 102.156 19.175C102.332 19.0943 102.475 19.0063 102.585 18.911C102.695 18.8083 102.768 18.7313 102.805 18.68C102.871 18.5847 102.922 18.5297 102.959 18.515C102.995 18.493 103.054 18.482 103.135 18.482H103.663C103.736 18.482 103.795 18.504 103.839 18.548C103.89 18.5847 103.912 18.6397 103.905 18.713C103.897 18.823 103.839 18.9587 103.729 19.12C103.619 19.274 103.461 19.428 103.256 19.582C103.05 19.736 102.801 19.8643 102.508 19.967C102.214 20.0623 101.877 20.11 101.496 20.11ZM99.9996 16.722H103.014V16.689C103.014 16.359 102.951 16.0657 102.827 15.809C102.709 15.5523 102.537 15.3507 102.31 15.204C102.082 15.05 101.811 14.973 101.496 14.973C101.18 14.973 100.909 15.05 100.682 15.204C100.462 15.3507 100.293 15.5523 100.176 15.809C100.058 16.0657 99.9996 16.359 99.9996 16.689V16.722ZM108.983 20C108.91 20 108.847 19.978 108.796 19.934C108.752 19.8827 108.73 19.8203 108.73 19.747V14.533C108.73 14.4597 108.752 14.401 108.796 14.357C108.847 14.3057 108.91 14.28 108.983 14.28H109.511C109.584 14.28 109.643 14.3057 109.687 14.357C109.731 14.401 109.753 14.4597 109.753 14.533V16.645H112.756V14.533C112.756 14.4597 112.778 14.401 112.822 14.357C112.873 14.3057 112.936 14.28 113.009 14.28H113.526C113.599 14.28 113.658 14.3057 113.702 14.357C113.753 14.401 113.779 14.4597 113.779 14.533V19.747C113.779 19.8203 113.753 19.8827 113.702 19.934C113.658 19.978 113.599 20 113.526 20H113.009C112.936 20 112.873 19.978 112.822 19.934C112.778 19.8827 112.756 19.8203 112.756 19.747V17.525H109.753V19.747C109.753 19.8203 109.731 19.8827 109.687 19.934C109.643 19.978 109.584 20 109.511 20H108.983ZM117.358 20.11C116.992 20.11 116.658 20.0367 116.357 19.89C116.057 19.7433 115.815 19.5453 115.631 19.296C115.448 19.0467 115.356 18.7643 115.356 18.449C115.356 17.943 115.562 17.5397 115.972 17.239C116.383 16.9383 116.918 16.7403 117.578 16.645L119.217 16.414V16.095C119.217 15.743 119.115 15.468 118.909 15.27C118.711 15.072 118.385 14.973 117.93 14.973C117.6 14.973 117.333 15.039 117.127 15.171C116.929 15.303 116.79 15.4717 116.709 15.677C116.665 15.787 116.588 15.842 116.478 15.842H115.983C115.903 15.842 115.84 15.82 115.796 15.776C115.76 15.7247 115.741 15.666 115.741 15.6C115.741 15.49 115.782 15.3543 115.862 15.193C115.95 15.0317 116.082 14.874 116.258 14.72C116.434 14.566 116.658 14.4377 116.929 14.335C117.208 14.225 117.545 14.17 117.941 14.17C118.381 14.17 118.752 14.2287 119.052 14.346C119.353 14.456 119.588 14.6063 119.756 14.797C119.932 14.9877 120.057 15.204 120.13 15.446C120.211 15.688 120.251 15.9337 120.251 16.183V19.747C120.251 19.8203 120.226 19.8827 120.174 19.934C120.13 19.978 120.072 20 119.998 20H119.492C119.412 20 119.349 19.978 119.305 19.934C119.261 19.8827 119.239 19.8203 119.239 19.747V19.274C119.144 19.406 119.016 19.538 118.854 19.67C118.693 19.7947 118.491 19.901 118.249 19.989C118.007 20.0697 117.71 20.11 117.358 20.11ZM117.589 19.285C117.89 19.285 118.165 19.2227 118.414 19.098C118.664 18.966 118.858 18.7643 118.997 18.493C119.144 18.2217 119.217 17.8807 119.217 17.47V17.162L117.941 17.349C117.421 17.4223 117.028 17.547 116.764 17.723C116.5 17.8917 116.368 18.108 116.368 18.372C116.368 18.5773 116.427 18.7497 116.544 18.889C116.669 19.021 116.823 19.12 117.006 19.186C117.197 19.252 117.391 19.285 117.589 19.285ZM124.473 20.11C123.952 20.11 123.501 20.011 123.12 19.813C122.746 19.6077 122.456 19.318 122.251 18.944C122.045 18.5627 121.935 18.108 121.921 17.58C121.913 17.47 121.91 17.3233 121.91 17.14C121.91 16.9567 121.913 16.81 121.921 16.7C121.935 16.172 122.045 15.721 122.251 15.347C122.456 14.9657 122.746 14.676 123.12 14.478C123.501 14.2727 123.952 14.17 124.473 14.17C124.898 14.17 125.261 14.2287 125.562 14.346C125.87 14.4633 126.123 14.6137 126.321 14.797C126.519 14.9803 126.665 15.1783 126.761 15.391C126.863 15.6037 126.918 15.8053 126.926 15.996C126.933 16.0693 126.911 16.128 126.86 16.172C126.808 16.216 126.746 16.238 126.673 16.238H126.145C126.071 16.238 126.016 16.2233 125.98 16.194C125.943 16.1573 125.906 16.0987 125.87 16.018C125.738 15.6587 125.558 15.4057 125.331 15.259C125.103 15.1123 124.821 15.039 124.484 15.039C124.044 15.039 123.684 15.1747 123.406 15.446C123.134 15.7173 122.988 16.1537 122.966 16.755C122.958 17.019 122.958 17.2757 122.966 17.525C122.988 18.1337 123.134 18.5737 123.406 18.845C123.684 19.109 124.044 19.241 124.484 19.241C124.821 19.241 125.103 19.1677 125.331 19.021C125.558 18.8743 125.738 18.6213 125.87 18.262C125.906 18.1813 125.943 18.1263 125.98 18.097C126.016 18.0603 126.071 18.042 126.145 18.042H126.673C126.746 18.042 126.808 18.064 126.86 18.108C126.911 18.152 126.933 18.2107 126.926 18.284C126.918 18.438 126.885 18.5957 126.827 18.757C126.768 18.9183 126.673 19.0833 126.541 19.252C126.416 19.4133 126.258 19.56 126.068 19.692C125.877 19.8167 125.646 19.9193 125.375 20C125.111 20.0733 124.81 20.11 124.473 20.11ZM131.841 20C131.768 20 131.706 19.978 131.654 19.934C131.61 19.8827 131.588 19.8203 131.588 19.747V14.533C131.588 14.4597 131.61 14.401 131.654 14.357C131.706 14.3057 131.768 14.28 131.841 14.28H134.129C134.819 14.28 135.336 14.4193 135.68 14.698C136.032 14.9767 136.208 15.3507 136.208 15.82C136.208 16.15 136.146 16.3993 136.021 16.568C135.897 16.7367 135.721 16.8797 135.493 16.997C135.772 17.1143 135.981 17.305 136.12 17.569C136.267 17.8257 136.34 18.0933 136.34 18.372C136.34 18.9 136.153 19.3033 135.779 19.582C135.405 19.8607 134.885 20 134.217 20H131.841ZM132.6 19.197H134.129C134.481 19.197 134.764 19.131 134.976 18.999C135.196 18.8597 135.306 18.6507 135.306 18.372C135.306 18.0787 135.207 17.866 135.009 17.734C134.811 17.5947 134.518 17.525 134.129 17.525H132.6V19.197ZM132.6 16.711H134.063C134.415 16.711 134.694 16.634 134.899 16.48C135.112 16.326 135.218 16.1097 135.218 15.831C135.218 15.545 135.112 15.3507 134.899 15.248C134.694 15.138 134.415 15.083 134.063 15.083H132.6V16.711Z" fill="#212529"/>
<path d="M45.88 40C45.7627 40 45.66 39.956 45.572 39.868C45.484 39.78 45.44 39.6773 45.44 39.56C45.44 39.4867 45.4473 39.406 45.462 39.318L50.918 25.084C50.9767 24.9373 51.0573 24.82 51.16 24.732C51.2627 24.644 51.4167 24.6 51.622 24.6H53.118C53.3087 24.6 53.4553 24.644 53.558 24.732C53.6753 24.82 53.7633 24.9373 53.822 25.084L59.256 39.318C59.2853 39.406 59.3 39.4867 59.3 39.56C59.3 39.6773 59.256 39.78 59.168 39.868C59.08 39.956 58.9773 40 58.86 40H57.738C57.562 40 57.43 39.956 57.342 39.868C57.2687 39.78 57.2173 39.6993 57.188 39.626L55.978 36.502H48.762L47.552 39.626C47.5373 39.6993 47.486 39.78 47.398 39.868C47.31 39.956 47.178 40 47.002 40H45.88ZM49.4 34.61H55.34L52.37 26.8L49.4 34.61ZM61.2343 44.18C61.0876 44.18 60.9629 44.1287 60.8603 44.026C60.7723 43.938 60.7283 43.8207 60.7283 43.674V29.066C60.7283 28.9193 60.7723 28.802 60.8603 28.714C60.9629 28.6113 61.0876 28.56 61.2343 28.56H62.2463C62.3929 28.56 62.5103 28.6113 62.5983 28.714C62.7009 28.802 62.7523 28.9193 62.7523 29.066V30.034C63.1043 29.55 63.5736 29.1467 64.1603 28.824C64.7469 28.5013 65.4803 28.34 66.3603 28.34C67.1816 28.34 67.8783 28.4793 68.4503 28.758C69.0369 29.0367 69.5136 29.418 69.8803 29.902C70.2616 30.386 70.5476 30.936 70.7383 31.552C70.9289 32.168 71.0316 32.828 71.0463 33.532C71.0609 33.7667 71.0683 34.016 71.0683 34.28C71.0683 34.544 71.0609 34.7933 71.0463 35.028C71.0316 35.7173 70.9289 36.3773 70.7383 37.008C70.5476 37.624 70.2616 38.174 69.8803 38.658C69.5136 39.1273 69.0369 39.5087 68.4503 39.802C67.8783 40.0807 67.1816 40.22 66.3603 40.22C65.5096 40.22 64.7909 40.066 64.2043 39.758C63.6323 39.4353 63.1629 39.0393 62.7963 38.57V43.674C62.7963 43.8207 62.7523 43.938 62.6643 44.026C62.5763 44.1287 62.4516 44.18 62.2903 44.18H61.2343ZM65.8983 38.438C66.6609 38.438 67.2549 38.2767 67.6803 37.954C68.1203 37.6167 68.4356 37.184 68.6263 36.656C68.8169 36.1133 68.9269 35.534 68.9563 34.918C68.9709 34.4927 68.9709 34.0673 68.9563 33.642C68.9269 33.026 68.8169 32.454 68.6263 31.926C68.4356 31.3833 68.1203 30.9507 67.6803 30.628C67.2549 30.2907 66.6609 30.122 65.8983 30.122C65.1796 30.122 64.5929 30.2907 64.1383 30.628C63.6983 30.9653 63.3683 31.398 63.1483 31.926C62.9429 32.4393 62.8256 32.9673 62.7963 33.51C62.7816 33.7447 62.7743 34.0233 62.7743 34.346C62.7743 34.6687 62.7816 34.9547 62.7963 35.204C62.8109 35.7173 62.9283 36.2233 63.1483 36.722C63.3829 37.2207 63.7276 37.6313 64.1823 37.954C64.6369 38.2767 65.2089 38.438 65.8983 38.438ZM73.6798 44.18C73.5331 44.18 73.4084 44.1287 73.3058 44.026C73.2178 43.938 73.1738 43.8207 73.1738 43.674V29.066C73.1738 28.9193 73.2178 28.802 73.3058 28.714C73.4084 28.6113 73.5331 28.56 73.6798 28.56H74.6918C74.8384 28.56 74.9558 28.6113 75.0438 28.714C75.1464 28.802 75.1978 28.9193 75.1978 29.066V30.034C75.5498 29.55 76.0191 29.1467 76.6058 28.824C77.1924 28.5013 77.9258 28.34 78.8058 28.34C79.6271 28.34 80.3238 28.4793 80.8958 28.758C81.4824 29.0367 81.9591 29.418 82.3258 29.902C82.7071 30.386 82.9931 30.936 83.1838 31.552C83.3744 32.168 83.4771 32.828 83.4918 33.532C83.5064 33.7667 83.5138 34.016 83.5138 34.28C83.5138 34.544 83.5064 34.7933 83.4918 35.028C83.4771 35.7173 83.3744 36.3773 83.1838 37.008C82.9931 37.624 82.7071 38.174 82.3258 38.658C81.9591 39.1273 81.4824 39.5087 80.8958 39.802C80.3238 40.0807 79.6271 40.22 78.8058 40.22C77.9551 40.22 77.2364 40.066 76.6498 39.758C76.0778 39.4353 75.6084 39.0393 75.2418 38.57V43.674C75.2418 43.8207 75.1978 43.938 75.1098 44.026C75.0218 44.1287 74.8971 44.18 74.7358 44.18H73.6798ZM78.3438 38.438C79.1064 38.438 79.7004 38.2767 80.1258 37.954C80.5658 37.6167 80.8811 37.184 81.0718 36.656C81.2624 36.1133 81.3724 35.534 81.4018 34.918C81.4164 34.4927 81.4164 34.0673 81.4018 33.642C81.3724 33.026 81.2624 32.454 81.0718 31.926C80.8811 31.3833 80.5658 30.9507 80.1258 30.628C79.7004 30.2907 79.1064 30.122 78.3438 30.122C77.6251 30.122 77.0384 30.2907 76.5838 30.628C76.1438 30.9653 75.8138 31.398 75.5938 31.926C75.3884 32.4393 75.2711 32.9673 75.2418 33.51C75.2271 33.7447 75.2198 34.0233 75.2198 34.346C75.2198 34.6687 75.2271 34.9547 75.2418 35.204C75.2564 35.7173 75.3738 36.2233 75.5938 36.722C75.8284 37.2207 76.1731 37.6313 76.6278 37.954C77.0824 38.2767 77.6544 38.438 78.3438 38.438ZM95.5658 40.22C94.2898 40.22 93.2191 40.0293 92.3538 39.648C91.4885 39.252 90.8211 38.746 90.3518 38.13C89.8971 37.4993 89.6551 36.832 89.6258 36.128C89.6258 36.0107 89.6698 35.908 89.7578 35.82C89.8605 35.7173 89.9778 35.666 90.1098 35.666H91.2318C91.4078 35.666 91.5398 35.71 91.6278 35.798C91.7158 35.886 91.7745 35.9887 91.8038 36.106C91.8771 36.458 92.0531 36.81 92.3318 37.162C92.6251 37.4993 93.0285 37.7853 93.5418 38.02C94.0698 38.24 94.7445 38.35 95.5658 38.35C96.8271 38.35 97.7511 38.13 98.3378 37.69C98.9391 37.2353 99.2398 36.634 99.2398 35.886C99.2398 35.3727 99.0785 34.962 98.7558 34.654C98.4478 34.3313 97.9711 34.0453 97.3258 33.796C96.6805 33.5467 95.8445 33.2753 94.8178 32.982C93.7471 32.674 92.8598 32.3367 92.1558 31.97C91.4518 31.6033 90.9238 31.1487 90.5718 30.606C90.2345 30.0633 90.0658 29.374 90.0658 28.538C90.0658 27.746 90.2785 27.042 90.7038 26.426C91.1291 25.7953 91.7378 25.2967 92.5298 24.93C93.3365 24.5633 94.3118 24.38 95.4558 24.38C96.3651 24.38 97.1571 24.5047 97.8318 24.754C98.5211 24.9887 99.0931 25.3113 99.5478 25.722C100.002 26.118 100.347 26.5507 100.582 27.02C100.816 27.4747 100.941 27.922 100.956 28.362C100.956 28.4647 100.919 28.5673 100.846 28.67C100.772 28.758 100.655 28.802 100.494 28.802H99.3278C99.2251 28.802 99.1151 28.7727 98.9978 28.714C98.8951 28.6553 98.8145 28.5453 98.7558 28.384C98.6678 27.7827 98.3305 27.2767 97.7438 26.866C97.1571 26.4553 96.3945 26.25 95.4558 26.25C94.5025 26.25 93.7251 26.4333 93.1238 26.8C92.5371 27.1667 92.2438 27.7387 92.2438 28.516C92.2438 29.0147 92.3831 29.4327 92.6618 29.77C92.9405 30.0927 93.3805 30.3787 93.9818 30.628C94.5831 30.8773 95.3678 31.1413 96.3358 31.42C97.5091 31.7427 98.4698 32.0873 99.2178 32.454C99.9658 32.806 100.516 33.2533 100.868 33.796C101.234 34.324 101.418 35.006 101.418 35.842C101.418 36.766 101.176 37.558 100.692 38.218C100.208 38.8633 99.5258 39.362 98.6458 39.714C97.7805 40.0513 96.7538 40.22 95.5658 40.22ZM107.821 40C107 40 106.333 39.846 105.819 39.538C105.306 39.2153 104.932 38.768 104.697 38.196C104.463 37.6093 104.345 36.92 104.345 36.128V30.32H102.629C102.483 30.32 102.358 30.276 102.255 30.188C102.167 30.0853 102.123 29.9607 102.123 29.814V29.066C102.123 28.9193 102.167 28.802 102.255 28.714C102.358 28.6113 102.483 28.56 102.629 28.56H104.345V24.886C104.345 24.7393 104.389 24.622 104.477 24.534C104.58 24.4313 104.705 24.38 104.851 24.38H105.885C106.032 24.38 106.149 24.4313 106.237 24.534C106.34 24.622 106.391 24.7393 106.391 24.886V28.56H109.119C109.266 28.56 109.383 28.6113 109.471 28.714C109.574 28.802 109.625 28.9193 109.625 29.066V29.814C109.625 29.9607 109.574 30.0853 109.471 30.188C109.383 30.276 109.266 30.32 109.119 30.32H106.391V35.974C106.391 36.6633 106.509 37.206 106.743 37.602C106.978 37.998 107.396 38.196 107.997 38.196H109.339C109.486 38.196 109.603 38.2473 109.691 38.35C109.794 38.438 109.845 38.5553 109.845 38.702V39.494C109.845 39.6407 109.794 39.7653 109.691 39.868C109.603 39.956 109.486 40 109.339 40H107.821ZM115.975 40.22C114.86 40.22 113.929 40.0073 113.181 39.582C112.433 39.1567 111.861 38.57 111.465 37.822C111.069 37.0593 110.849 36.194 110.805 35.226C110.79 34.9767 110.783 34.6613 110.783 34.28C110.783 33.884 110.79 33.5687 110.805 33.334C110.849 32.3513 111.069 31.486 111.465 30.738C111.876 29.99 112.455 29.4033 113.203 28.978C113.951 28.5527 114.875 28.34 115.975 28.34C117.075 28.34 117.999 28.5527 118.747 28.978C119.495 29.4033 120.067 29.99 120.463 30.738C120.874 31.486 121.101 32.3513 121.145 33.334C121.16 33.5687 121.167 33.884 121.167 34.28C121.167 34.6613 121.16 34.9767 121.145 35.226C121.101 36.194 120.881 37.0593 120.485 37.822C120.089 38.57 119.517 39.1567 118.769 39.582C118.021 40.0073 117.09 40.22 115.975 40.22ZM115.975 38.526C116.884 38.526 117.61 38.24 118.153 37.668C118.696 37.0813 118.989 36.2307 119.033 35.116C119.048 34.896 119.055 34.6173 119.055 34.28C119.055 33.9427 119.048 33.664 119.033 33.444C118.989 32.3293 118.696 31.486 118.153 30.914C117.61 30.3273 116.884 30.034 115.975 30.034C115.066 30.034 114.332 30.3273 113.775 30.914C113.232 31.486 112.946 32.3293 112.917 33.444C112.902 33.664 112.895 33.9427 112.895 34.28C112.895 34.6173 112.902 34.896 112.917 35.116C112.946 36.2307 113.232 37.0813 113.775 37.668C114.332 38.24 115.066 38.526 115.975 38.526ZM123.768 40C123.621 40 123.497 39.956 123.394 39.868C123.306 39.7653 123.262 39.6407 123.262 39.494V29.088C123.262 28.9413 123.306 28.8167 123.394 28.714C123.497 28.6113 123.621 28.56 123.768 28.56H124.78C124.927 28.56 125.051 28.6113 125.154 28.714C125.257 28.8167 125.308 28.9413 125.308 29.088V30.056C125.601 29.5573 126.005 29.1833 126.518 28.934C127.031 28.6847 127.647 28.56 128.366 28.56H129.246C129.393 28.56 129.51 28.6113 129.598 28.714C129.686 28.802 129.73 28.9193 129.73 29.066V29.968C129.73 30.1147 129.686 30.232 129.598 30.32C129.51 30.408 129.393 30.452 129.246 30.452H127.926C127.134 30.452 126.511 30.6867 126.056 31.156C125.601 31.6107 125.374 32.234 125.374 33.026V39.494C125.374 39.6407 125.323 39.7653 125.22 39.868C125.117 39.956 124.993 40 124.846 40H123.768ZM135.298 40.22C133.788 40.22 132.585 39.758 131.69 38.834C130.796 37.8953 130.304 36.6193 130.216 35.006C130.202 34.8153 130.194 34.5733 130.194 34.28C130.194 33.972 130.202 33.7227 130.216 33.532C130.275 32.4907 130.517 31.5813 130.942 30.804C131.368 30.012 131.947 29.4033 132.68 28.978C133.428 28.5527 134.301 28.34 135.298 28.34C136.413 28.34 137.344 28.5747 138.092 29.044C138.855 29.5133 139.434 30.1807 139.83 31.046C140.226 31.9113 140.424 32.9233 140.424 34.082V34.456C140.424 34.6173 140.373 34.742 140.27 34.83C140.182 34.918 140.065 34.962 139.918 34.962H132.306C132.306 34.9767 132.306 35.006 132.306 35.05C132.306 35.094 132.306 35.1307 132.306 35.16C132.336 35.7613 132.468 36.326 132.702 36.854C132.937 37.3673 133.274 37.7853 133.714 38.108C134.154 38.4307 134.682 38.592 135.298 38.592C135.826 38.592 136.266 38.5113 136.618 38.35C136.97 38.1887 137.256 38.0127 137.476 37.822C137.696 37.6167 137.843 37.4627 137.916 37.36C138.048 37.1693 138.151 37.0593 138.224 37.03C138.298 36.986 138.415 36.964 138.576 36.964H139.632C139.779 36.964 139.896 37.008 139.984 37.096C140.087 37.1693 140.131 37.2793 140.116 37.426C140.102 37.646 139.984 37.9173 139.764 38.24C139.544 38.548 139.229 38.856 138.818 39.164C138.408 39.472 137.909 39.7287 137.322 39.934C136.736 40.1247 136.061 40.22 135.298 40.22ZM132.306 33.444H138.334V33.378C138.334 32.718 138.21 32.1313 137.96 31.618C137.726 31.1047 137.381 30.7013 136.926 30.408C136.472 30.1 135.929 29.946 135.298 29.946C134.668 29.946 134.125 30.1 133.67 30.408C133.23 30.7013 132.893 31.1047 132.658 31.618C132.424 32.1313 132.306 32.718 132.306 33.378V33.444Z" fill="#212529"/>
</svg>
