<svg width="154" height="52" viewBox="0 0 154 52" fill="none" xmlns="http://www.w3.org/2000/svg">
<rect x="0.5" y="0.5" width="153" height="51" rx="9.5" fill="white"/>
<rect x="0.5" y="0.5" width="153" height="51" rx="9.5" stroke="#212529"/>
<path d="M32.0454 25.4221C32.0747 23.1834 33.2977 21.0652 35.2378 19.8926C34.0139 18.1742 31.9639 17.0847 29.8311 17.0191C27.5563 16.7844 25.3509 18.3573 24.1917 18.3573C23.0101 18.3573 21.2253 17.0424 19.3034 17.0813C16.7983 17.1609 14.4629 18.561 13.2441 20.7141C10.6242 25.1734 12.5784 31.727 15.0881 35.3315C16.3437 37.0965 17.8112 39.0681 19.7314 38.9982C21.6104 38.9216 22.3122 37.8203 24.5803 37.8203C26.8273 37.8203 27.4857 38.9982 29.4449 38.9537C31.4611 38.9216 32.7315 37.1809 33.9431 35.3991C34.8452 34.1415 35.5394 32.7515 36 31.2807C33.6305 30.2955 32.0482 27.9513 32.0454 25.4221Z" fill="#212529"/>
<path d="M28.3449 14.6486C29.4443 13.3512 29.9859 11.6836 29.8547 10C28.1752 10.1734 26.6237 10.9626 25.5095 12.2102C24.42 13.4292 23.853 15.0674 23.9602 16.6867C25.6403 16.7037 27.2921 15.936 28.3449 14.6486Z" fill="#212529"/>
<path d="M53.096 20.055L53.195 19.153C53.613 19.153 53.9063 19.1127 54.075 19.032C54.2437 18.9513 54.339 18.8083 54.361 18.603C54.3903 18.3977 54.3977 18.1117 54.383 17.745L54.196 12.146H55.109L55.285 17.723C55.2997 18.097 55.3583 18.3903 55.461 18.603C55.571 18.8083 55.7177 18.9513 55.901 19.032C56.0843 19.1127 56.286 19.153 56.506 19.153C56.66 19.153 56.77 19.197 56.836 19.285C56.9093 19.3657 56.946 19.4647 56.946 19.582C56.946 19.6993 56.8947 19.8093 56.792 19.912C56.6893 20.0073 56.5573 20.055 56.396 20.055C56.088 20.055 55.8313 20.0073 55.626 19.912C55.428 19.8093 55.2703 19.681 55.153 19.527C55.043 19.3657 54.9697 19.197 54.933 19.021L55.164 19.043C55.0907 19.263 54.9697 19.45 54.801 19.604C54.6397 19.7507 54.4197 19.8643 54.141 19.945C53.8623 20.0183 53.514 20.055 53.096 20.055ZM45.33 20.011C45.33 19.835 45.3447 19.648 45.374 19.45C45.4107 19.2447 45.462 19.0283 45.528 18.801C45.6013 18.5663 45.6893 18.3207 45.792 18.064L46.584 18.372C46.5107 18.5773 46.4447 18.7717 46.386 18.955C46.3347 19.1383 46.2943 19.3107 46.265 19.472C46.243 19.6333 46.232 19.7873 46.232 19.934C46.232 20.242 46.298 20.5023 46.43 20.715C46.5693 20.935 46.76 21.1147 47.002 21.254C47.244 21.3933 47.519 21.496 47.827 21.562C48.1423 21.628 48.476 21.661 48.828 21.661C49.2533 21.661 49.6493 21.6243 50.016 21.551C50.39 21.4777 50.7163 21.3713 50.995 21.232C51.281 21.1 51.5047 20.946 51.666 20.77C51.8273 20.6013 51.908 20.418 51.908 20.22C51.908 20.1247 51.8713 20.0367 51.798 19.956C51.7247 19.8753 51.6147 19.7983 51.468 19.725C51.3213 19.6517 51.1453 19.582 50.94 19.516C50.7347 19.4427 50.5 19.3693 50.236 19.296L50.445 18.383C50.8263 18.5297 51.1637 18.6543 51.457 18.757C51.7503 18.8523 52.007 18.9293 52.227 18.988C52.447 19.0467 52.6377 19.0907 52.799 19.12C52.9603 19.142 53.096 19.153 53.206 19.153C53.36 19.153 53.47 19.197 53.536 19.285C53.6093 19.3657 53.646 19.4647 53.646 19.582C53.646 19.6993 53.5947 19.8093 53.492 19.912C53.3893 20.0073 53.2573 20.055 53.096 20.055C53.052 20.055 53.008 20.055 52.964 20.055C52.92 20.055 52.8723 20.055 52.821 20.055C52.777 20.055 52.733 20.055 52.689 20.055C52.7037 20.121 52.7147 20.1723 52.722 20.209C52.7293 20.253 52.733 20.308 52.733 20.374C52.733 20.6453 52.6377 20.9093 52.447 21.166C52.2637 21.4227 51.9923 21.6537 51.633 21.859C51.2737 22.0717 50.8373 22.2403 50.324 22.365C49.818 22.4897 49.2387 22.552 48.586 22.552C48.0067 22.552 47.4677 22.4567 46.969 22.266C46.4777 22.0827 46.0817 21.804 45.781 21.43C45.4803 21.056 45.33 20.583 45.33 20.011ZM56.7275 20.055L56.8375 19.153C57.2995 19.153 57.6551 19.1493 57.9045 19.142C58.1611 19.1347 58.3481 19.1273 58.4655 19.12C58.5828 19.1053 58.6635 19.098 58.7075 19.098C58.5755 19.0247 58.4215 18.911 58.2455 18.757C58.0695 18.5957 57.9155 18.394 57.7835 18.152C57.6515 17.9027 57.5855 17.6093 57.5855 17.272C57.5855 16.854 57.6808 16.4873 57.8715 16.172C58.0695 15.8567 58.3371 15.611 58.6745 15.435C59.0191 15.259 59.4115 15.171 59.8515 15.171C60.0201 15.171 60.1998 15.1857 60.3905 15.215C60.5811 15.2443 60.7645 15.2883 60.9405 15.347L60.7535 16.194C60.6068 16.1573 60.4528 16.128 60.2915 16.106C60.1301 16.084 59.9835 16.073 59.8515 16.073C59.5875 16.073 59.3528 16.1243 59.1475 16.227C58.9421 16.3223 58.7808 16.458 58.6635 16.634C58.5461 16.81 58.4875 17.0227 58.4875 17.272C58.4875 17.4627 58.5278 17.6387 58.6085 17.8C58.6891 17.954 58.7955 18.0933 58.9275 18.218C59.0595 18.3427 59.2061 18.4453 59.3675 18.526C59.5288 18.6067 59.6865 18.669 59.8405 18.713C60.0018 18.757 60.1448 18.7753 60.2695 18.768C60.3575 18.7387 60.4381 18.713 60.5115 18.691C60.5848 18.669 60.6655 18.6433 60.7535 18.614C60.8488 18.5773 60.9625 18.5297 61.0945 18.471C61.2338 18.4123 61.4098 18.3353 61.6225 18.24L61.9305 19.043C61.4391 19.241 60.9368 19.417 60.4235 19.571C59.9175 19.725 59.3638 19.846 58.7625 19.934C58.1685 20.0147 57.4901 20.055 56.7275 20.055ZM68.817 20.055C68.2303 20.055 67.7793 19.989 67.464 19.857C67.156 19.725 66.9433 19.5197 66.826 19.241C66.7086 18.9623 66.6426 18.603 66.628 18.163L66.408 12.146H67.31L67.53 17.811C67.5446 18.1703 67.5776 18.449 67.629 18.647C67.6876 18.8377 67.8123 18.9697 68.003 19.043C68.201 19.1163 68.509 19.153 68.927 19.153C69.081 19.153 69.191 19.197 69.257 19.285C69.3303 19.3657 69.367 19.4647 69.367 19.582C69.367 19.6993 69.3156 19.8093 69.213 19.912C69.1103 20.0073 68.9783 20.055 68.817 20.055ZM69.1471 20.055L69.2571 19.153C69.6165 19.153 69.9025 19.131 70.1151 19.087C70.3278 19.043 70.4818 18.955 70.5771 18.823C70.6725 18.6837 70.7201 18.4783 70.7201 18.207C70.7201 18.0237 70.6908 17.8073 70.6321 17.558C70.5735 17.3013 70.4965 17.03 70.4011 16.744C70.3058 16.458 70.2031 16.1757 70.0931 15.897L70.9841 15.567C71.0795 15.8017 71.1675 16.0693 71.2481 16.37C71.3361 16.6707 71.4095 16.9677 71.4681 17.261C71.5268 17.5543 71.5561 17.811 71.5561 18.031C71.5561 18.3243 71.5231 18.5847 71.4571 18.812C71.3985 19.032 71.3068 19.2227 71.1821 19.384C71.0575 19.538 70.8961 19.6663 70.6981 19.769C70.5075 19.8643 70.2838 19.9377 70.0271 19.989C69.7705 20.033 69.4771 20.055 69.1471 20.055ZM70.5551 14.423C70.4011 14.423 70.2691 14.3717 70.1591 14.269C70.0565 14.159 70.0051 14.0307 70.0051 13.884C70.0051 13.7373 70.0565 13.609 70.1591 13.499C70.2691 13.389 70.4011 13.334 70.5551 13.334C70.7018 13.334 70.8265 13.389 70.9291 13.499C71.0391 13.609 71.0941 13.7373 71.0941 13.884C71.0941 14.0307 71.0391 14.159 70.9291 14.269C70.8265 14.3717 70.7018 14.423 70.5551 14.423ZM73.0692 22.53L72.8712 21.628C73.3112 21.5693 73.7146 21.485 74.0812 21.375C74.4552 21.2723 74.7742 21.122 75.0382 20.924C75.3096 20.726 75.5186 20.4657 75.6652 20.143C75.8119 19.8203 75.8852 19.417 75.8852 18.933C75.8852 18.7057 75.8632 18.4893 75.8192 18.284C75.7752 18.0713 75.7092 17.8843 75.6212 17.723C75.5332 17.5617 75.4269 17.4333 75.3022 17.338C75.1849 17.2427 75.0492 17.195 74.8952 17.195C74.7266 17.195 74.5726 17.261 74.4332 17.393C74.3012 17.5177 74.1949 17.679 74.1142 17.877C74.0409 18.075 74.0042 18.273 74.0042 18.471C74.0042 18.625 74.0336 18.7607 74.0922 18.878C74.1582 18.988 74.2646 19.0723 74.4112 19.131C74.5579 19.1897 74.7486 19.219 74.9832 19.219C75.1959 19.219 75.4086 19.197 75.6212 19.153C75.8412 19.109 76.0282 19.0503 76.1822 18.977L76.2262 19.747C76.0502 19.8717 75.8412 19.9597 75.5992 20.011C75.3646 20.0623 75.1262 20.088 74.8842 20.088C74.6056 20.088 74.3562 20.0587 74.1362 20C73.9236 19.9413 73.7402 19.857 73.5862 19.747C73.4396 19.6297 73.3259 19.483 73.2452 19.307C73.1719 19.131 73.1352 18.9257 73.1352 18.691C73.1352 18.4123 73.1792 18.1337 73.2672 17.855C73.3552 17.569 73.4799 17.3087 73.6412 17.074C73.8026 16.8393 73.9969 16.6523 74.2242 16.513C74.4516 16.3663 74.7046 16.293 74.9832 16.293C75.2766 16.293 75.5332 16.37 75.7532 16.524C75.9732 16.6707 76.1566 16.8723 76.3032 17.129C76.4499 17.3857 76.5599 17.6753 76.6332 17.998C76.7066 18.3207 76.7432 18.6543 76.7432 18.999C76.7432 19.681 76.6039 20.2677 76.3252 20.759C76.0539 21.2577 75.6432 21.6537 75.0932 21.947C74.5506 22.2403 73.8759 22.4347 73.0692 22.53ZM77.7252 22.53L77.4062 21.694C78.1468 21.4593 78.7152 21.177 79.1112 20.847C79.5145 20.5243 79.7895 20.187 79.9362 19.835C80.0902 19.483 80.1672 19.1457 80.1672 18.823C80.1672 18.6177 80.1452 18.4197 80.1012 18.229C80.0572 18.0383 79.9802 17.822 79.8702 17.58C79.7602 17.338 79.6062 17.0373 79.4082 16.678L80.2112 16.271C80.4898 16.7477 80.6878 17.1987 80.8052 17.624C80.9298 18.0493 80.9922 18.4233 80.9922 18.746C80.9922 19.208 80.9152 19.626 80.7612 20C80.6145 20.374 80.4165 20.704 80.1672 20.99C79.9252 21.2833 79.6575 21.5327 79.3642 21.738C79.0782 21.9433 78.7885 22.112 78.4952 22.244C78.2092 22.376 77.9525 22.4713 77.7252 22.53ZM82.6882 22.53L82.4902 21.628C82.9302 21.5693 83.3336 21.485 83.7002 21.375C84.0742 21.2723 84.3932 21.122 84.6572 20.924C84.9286 20.726 85.1376 20.4657 85.2842 20.143C85.4309 19.8203 85.5042 19.417 85.5042 18.933C85.5042 18.7057 85.4822 18.4893 85.4382 18.284C85.3942 18.0713 85.3282 17.8843 85.2402 17.723C85.1522 17.5617 85.0459 17.4333 84.9212 17.338C84.8039 17.2427 84.6682 17.195 84.5142 17.195C84.3456 17.195 84.1916 17.261 84.0522 17.393C83.9202 17.5177 83.8139 17.679 83.7332 17.877C83.6599 18.075 83.6232 18.273 83.6232 18.471C83.6232 18.625 83.6526 18.7607 83.7112 18.878C83.7772 18.988 83.8836 19.0723 84.0302 19.131C84.1769 19.1897 84.3676 19.219 84.6022 19.219C84.8149 19.219 85.0276 19.197 85.2402 19.153C85.4602 19.109 85.6472 19.0503 85.8012 18.977L85.8452 19.747C85.6692 19.8717 85.4602 19.9597 85.2182 20.011C84.9836 20.0623 84.7452 20.088 84.5032 20.088C84.2246 20.088 83.9752 20.0587 83.7552 20C83.5426 19.9413 83.3592 19.857 83.2052 19.747C83.0586 19.6297 82.9449 19.483 82.8642 19.307C82.7909 19.131 82.7542 18.9257 82.7542 18.691C82.7542 18.4123 82.7982 18.1337 82.8862 17.855C82.9742 17.569 83.0989 17.3087 83.2602 17.074C83.4216 16.8393 83.6159 16.6523 83.8432 16.513C84.0706 16.3663 84.3236 16.293 84.6022 16.293C84.8956 16.293 85.1522 16.37 85.3722 16.524C85.5922 16.6707 85.7756 16.8723 85.9222 17.129C86.0689 17.3857 86.1789 17.6753 86.2522 17.998C86.3256 18.3207 86.3622 18.6543 86.3622 18.999C86.3622 19.681 86.2229 20.2677 85.9442 20.759C85.6729 21.2577 85.2622 21.6537 84.7122 21.947C84.1696 22.2403 83.4949 22.4347 82.6882 22.53ZM87.3442 22.53L87.0252 21.694C87.7658 21.4593 88.3342 21.177 88.7302 20.847C89.1335 20.5243 89.4085 20.187 89.5552 19.835C89.7092 19.483 89.7862 19.1457 89.7862 18.823C89.7862 18.6177 89.7642 18.4197 89.7202 18.229C89.6762 18.0383 89.5992 17.822 89.4892 17.58C89.3792 17.338 89.2252 17.0373 89.0272 16.678L89.8302 16.271C90.1088 16.7477 90.3068 17.1987 90.4242 17.624C90.5488 18.0493 90.6112 18.4233 90.6112 18.746C90.6112 19.208 90.5342 19.626 90.3802 20C90.2335 20.374 90.0355 20.704 89.7862 20.99C89.5442 21.2833 89.2765 21.5327 88.9832 21.738C88.6972 21.9433 88.4075 22.112 88.1142 22.244C87.8282 22.376 87.5715 22.4713 87.3442 22.53ZM89.2472 15.006C89.0932 15.006 88.9612 14.9547 88.8512 14.852C88.7485 14.742 88.6972 14.6137 88.6972 14.467C88.6972 14.3203 88.7485 14.192 88.8512 14.082C88.9612 13.972 89.0932 13.917 89.2472 13.917C89.3938 13.917 89.5185 13.972 89.6212 14.082C89.7312 14.192 89.7862 14.3203 89.7862 14.467C89.7862 14.6137 89.7312 14.742 89.6212 14.852C89.5185 14.9547 89.3938 15.006 89.2472 15.006Z" fill="#212529"/>
<path d="M45.88 40C45.7627 40 45.66 39.956 45.572 39.868C45.484 39.78 45.44 39.6773 45.44 39.56C45.44 39.4867 45.4473 39.406 45.462 39.318L50.918 25.084C50.9767 24.9373 51.0573 24.82 51.16 24.732C51.2627 24.644 51.4167 24.6 51.622 24.6H53.118C53.3087 24.6 53.4553 24.644 53.558 24.732C53.6753 24.82 53.7633 24.9373 53.822 25.084L59.256 39.318C59.2853 39.406 59.3 39.4867 59.3 39.56C59.3 39.6773 59.256 39.78 59.168 39.868C59.08 39.956 58.9773 40 58.86 40H57.738C57.562 40 57.43 39.956 57.342 39.868C57.2687 39.78 57.2173 39.6993 57.188 39.626L55.978 36.502H48.762L47.552 39.626C47.5373 39.6993 47.486 39.78 47.398 39.868C47.31 39.956 47.178 40 47.002 40H45.88ZM49.4 34.61H55.34L52.37 26.8L49.4 34.61ZM61.2343 44.18C61.0876 44.18 60.9629 44.1287 60.8603 44.026C60.7723 43.938 60.7283 43.8207 60.7283 43.674V29.066C60.7283 28.9193 60.7723 28.802 60.8603 28.714C60.9629 28.6113 61.0876 28.56 61.2343 28.56H62.2463C62.3929 28.56 62.5103 28.6113 62.5983 28.714C62.7009 28.802 62.7523 28.9193 62.7523 29.066V30.034C63.1043 29.55 63.5736 29.1467 64.1603 28.824C64.7469 28.5013 65.4803 28.34 66.3603 28.34C67.1816 28.34 67.8783 28.4793 68.4503 28.758C69.0369 29.0367 69.5136 29.418 69.8803 29.902C70.2616 30.386 70.5476 30.936 70.7383 31.552C70.9289 32.168 71.0316 32.828 71.0463 33.532C71.0609 33.7667 71.0683 34.016 71.0683 34.28C71.0683 34.544 71.0609 34.7933 71.0463 35.028C71.0316 35.7173 70.9289 36.3773 70.7383 37.008C70.5476 37.624 70.2616 38.174 69.8803 38.658C69.5136 39.1273 69.0369 39.5087 68.4503 39.802C67.8783 40.0807 67.1816 40.22 66.3603 40.22C65.5096 40.22 64.7909 40.066 64.2043 39.758C63.6323 39.4353 63.1629 39.0393 62.7963 38.57V43.674C62.7963 43.8207 62.7523 43.938 62.6643 44.026C62.5763 44.1287 62.4516 44.18 62.2903 44.18H61.2343ZM65.8983 38.438C66.6609 38.438 67.2549 38.2767 67.6803 37.954C68.1203 37.6167 68.4356 37.184 68.6263 36.656C68.8169 36.1133 68.9269 35.534 68.9563 34.918C68.9709 34.4927 68.9709 34.0673 68.9563 33.642C68.9269 33.026 68.8169 32.454 68.6263 31.926C68.4356 31.3833 68.1203 30.9507 67.6803 30.628C67.2549 30.2907 66.6609 30.122 65.8983 30.122C65.1796 30.122 64.5929 30.2907 64.1383 30.628C63.6983 30.9653 63.3683 31.398 63.1483 31.926C62.9429 32.4393 62.8256 32.9673 62.7963 33.51C62.7816 33.7447 62.7743 34.0233 62.7743 34.346C62.7743 34.6687 62.7816 34.9547 62.7963 35.204C62.8109 35.7173 62.9283 36.2233 63.1483 36.722C63.3829 37.2207 63.7276 37.6313 64.1823 37.954C64.6369 38.2767 65.2089 38.438 65.8983 38.438ZM73.6798 44.18C73.5331 44.18 73.4084 44.1287 73.3058 44.026C73.2178 43.938 73.1738 43.8207 73.1738 43.674V29.066C73.1738 28.9193 73.2178 28.802 73.3058 28.714C73.4084 28.6113 73.5331 28.56 73.6798 28.56H74.6918C74.8384 28.56 74.9558 28.6113 75.0438 28.714C75.1464 28.802 75.1978 28.9193 75.1978 29.066V30.034C75.5498 29.55 76.0191 29.1467 76.6058 28.824C77.1924 28.5013 77.9258 28.34 78.8058 28.34C79.6271 28.34 80.3238 28.4793 80.8958 28.758C81.4824 29.0367 81.9591 29.418 82.3258 29.902C82.7071 30.386 82.9931 30.936 83.1838 31.552C83.3744 32.168 83.4771 32.828 83.4918 33.532C83.5064 33.7667 83.5138 34.016 83.5138 34.28C83.5138 34.544 83.5064 34.7933 83.4918 35.028C83.4771 35.7173 83.3744 36.3773 83.1838 37.008C82.9931 37.624 82.7071 38.174 82.3258 38.658C81.9591 39.1273 81.4824 39.5087 80.8958 39.802C80.3238 40.0807 79.6271 40.22 78.8058 40.22C77.9551 40.22 77.2364 40.066 76.6498 39.758C76.0778 39.4353 75.6084 39.0393 75.2418 38.57V43.674C75.2418 43.8207 75.1978 43.938 75.1098 44.026C75.0218 44.1287 74.8971 44.18 74.7358 44.18H73.6798ZM78.3438 38.438C79.1064 38.438 79.7004 38.2767 80.1258 37.954C80.5658 37.6167 80.8811 37.184 81.0718 36.656C81.2624 36.1133 81.3724 35.534 81.4018 34.918C81.4164 34.4927 81.4164 34.0673 81.4018 33.642C81.3724 33.026 81.2624 32.454 81.0718 31.926C80.8811 31.3833 80.5658 30.9507 80.1258 30.628C79.7004 30.2907 79.1064 30.122 78.3438 30.122C77.6251 30.122 77.0384 30.2907 76.5838 30.628C76.1438 30.9653 75.8138 31.398 75.5938 31.926C75.3884 32.4393 75.2711 32.9673 75.2418 33.51C75.2271 33.7447 75.2198 34.0233 75.2198 34.346C75.2198 34.6687 75.2271 34.9547 75.2418 35.204C75.2564 35.7173 75.3738 36.2233 75.5938 36.722C75.8284 37.2207 76.1731 37.6313 76.6278 37.954C77.0824 38.2767 77.6544 38.438 78.3438 38.438ZM95.5658 40.22C94.2898 40.22 93.2191 40.0293 92.3538 39.648C91.4885 39.252 90.8211 38.746 90.3518 38.13C89.8971 37.4993 89.6551 36.832 89.6258 36.128C89.6258 36.0107 89.6698 35.908 89.7578 35.82C89.8605 35.7173 89.9778 35.666 90.1098 35.666H91.2318C91.4078 35.666 91.5398 35.71 91.6278 35.798C91.7158 35.886 91.7745 35.9887 91.8038 36.106C91.8771 36.458 92.0531 36.81 92.3318 37.162C92.6251 37.4993 93.0285 37.7853 93.5418 38.02C94.0698 38.24 94.7445 38.35 95.5658 38.35C96.8271 38.35 97.7511 38.13 98.3378 37.69C98.9391 37.2353 99.2398 36.634 99.2398 35.886C99.2398 35.3727 99.0785 34.962 98.7558 34.654C98.4478 34.3313 97.9711 34.0453 97.3258 33.796C96.6805 33.5467 95.8445 33.2753 94.8178 32.982C93.7471 32.674 92.8598 32.3367 92.1558 31.97C91.4518 31.6033 90.9238 31.1487 90.5718 30.606C90.2345 30.0633 90.0658 29.374 90.0658 28.538C90.0658 27.746 90.2785 27.042 90.7038 26.426C91.1291 25.7953 91.7378 25.2967 92.5298 24.93C93.3365 24.5633 94.3118 24.38 95.4558 24.38C96.3651 24.38 97.1571 24.5047 97.8318 24.754C98.5211 24.9887 99.0931 25.3113 99.5478 25.722C100.002 26.118 100.347 26.5507 100.582 27.02C100.816 27.4747 100.941 27.922 100.956 28.362C100.956 28.4647 100.919 28.5673 100.846 28.67C100.772 28.758 100.655 28.802 100.494 28.802H99.3278C99.2251 28.802 99.1151 28.7727 98.9978 28.714C98.8951 28.6553 98.8145 28.5453 98.7558 28.384C98.6678 27.7827 98.3305 27.2767 97.7438 26.866C97.1571 26.4553 96.3945 26.25 95.4558 26.25C94.5025 26.25 93.7251 26.4333 93.1238 26.8C92.5371 27.1667 92.2438 27.7387 92.2438 28.516C92.2438 29.0147 92.3831 29.4327 92.6618 29.77C92.9405 30.0927 93.3805 30.3787 93.9818 30.628C94.5831 30.8773 95.3678 31.1413 96.3358 31.42C97.5091 31.7427 98.4698 32.0873 99.2178 32.454C99.9658 32.806 100.516 33.2533 100.868 33.796C101.234 34.324 101.418 35.006 101.418 35.842C101.418 36.766 101.176 37.558 100.692 38.218C100.208 38.8633 99.5258 39.362 98.6458 39.714C97.7805 40.0513 96.7538 40.22 95.5658 40.22ZM107.821 40C107 40 106.333 39.846 105.819 39.538C105.306 39.2153 104.932 38.768 104.697 38.196C104.463 37.6093 104.345 36.92 104.345 36.128V30.32H102.629C102.483 30.32 102.358 30.276 102.255 30.188C102.167 30.0853 102.123 29.9607 102.123 29.814V29.066C102.123 28.9193 102.167 28.802 102.255 28.714C102.358 28.6113 102.483 28.56 102.629 28.56H104.345V24.886C104.345 24.7393 104.389 24.622 104.477 24.534C104.58 24.4313 104.705 24.38 104.851 24.38H105.885C106.032 24.38 106.149 24.4313 106.237 24.534C106.34 24.622 106.391 24.7393 106.391 24.886V28.56H109.119C109.266 28.56 109.383 28.6113 109.471 28.714C109.574 28.802 109.625 28.9193 109.625 29.066V29.814C109.625 29.9607 109.574 30.0853 109.471 30.188C109.383 30.276 109.266 30.32 109.119 30.32H106.391V35.974C106.391 36.6633 106.509 37.206 106.743 37.602C106.978 37.998 107.396 38.196 107.997 38.196H109.339C109.486 38.196 109.603 38.2473 109.691 38.35C109.794 38.438 109.845 38.5553 109.845 38.702V39.494C109.845 39.6407 109.794 39.7653 109.691 39.868C109.603 39.956 109.486 40 109.339 40H107.821ZM115.975 40.22C114.86 40.22 113.929 40.0073 113.181 39.582C112.433 39.1567 111.861 38.57 111.465 37.822C111.069 37.0593 110.849 36.194 110.805 35.226C110.79 34.9767 110.783 34.6613 110.783 34.28C110.783 33.884 110.79 33.5687 110.805 33.334C110.849 32.3513 111.069 31.486 111.465 30.738C111.876 29.99 112.455 29.4033 113.203 28.978C113.951 28.5527 114.875 28.34 115.975 28.34C117.075 28.34 117.999 28.5527 118.747 28.978C119.495 29.4033 120.067 29.99 120.463 30.738C120.874 31.486 121.101 32.3513 121.145 33.334C121.16 33.5687 121.167 33.884 121.167 34.28C121.167 34.6613 121.16 34.9767 121.145 35.226C121.101 36.194 120.881 37.0593 120.485 37.822C120.089 38.57 119.517 39.1567 118.769 39.582C118.021 40.0073 117.09 40.22 115.975 40.22ZM115.975 38.526C116.884 38.526 117.61 38.24 118.153 37.668C118.696 37.0813 118.989 36.2307 119.033 35.116C119.048 34.896 119.055 34.6173 119.055 34.28C119.055 33.9427 119.048 33.664 119.033 33.444C118.989 32.3293 118.696 31.486 118.153 30.914C117.61 30.3273 116.884 30.034 115.975 30.034C115.066 30.034 114.332 30.3273 113.775 30.914C113.232 31.486 112.946 32.3293 112.917 33.444C112.902 33.664 112.895 33.9427 112.895 34.28C112.895 34.6173 112.902 34.896 112.917 35.116C112.946 36.2307 113.232 37.0813 113.775 37.668C114.332 38.24 115.066 38.526 115.975 38.526ZM123.768 40C123.621 40 123.497 39.956 123.394 39.868C123.306 39.7653 123.262 39.6407 123.262 39.494V29.088C123.262 28.9413 123.306 28.8167 123.394 28.714C123.497 28.6113 123.621 28.56 123.768 28.56H124.78C124.927 28.56 125.051 28.6113 125.154 28.714C125.257 28.8167 125.308 28.9413 125.308 29.088V30.056C125.601 29.5573 126.005 29.1833 126.518 28.934C127.031 28.6847 127.647 28.56 128.366 28.56H129.246C129.393 28.56 129.51 28.6113 129.598 28.714C129.686 28.802 129.73 28.9193 129.73 29.066V29.968C129.73 30.1147 129.686 30.232 129.598 30.32C129.51 30.408 129.393 30.452 129.246 30.452H127.926C127.134 30.452 126.511 30.6867 126.056 31.156C125.601 31.6107 125.374 32.234 125.374 33.026V39.494C125.374 39.6407 125.323 39.7653 125.22 39.868C125.117 39.956 124.993 40 124.846 40H123.768ZM135.298 40.22C133.788 40.22 132.585 39.758 131.69 38.834C130.796 37.8953 130.304 36.6193 130.216 35.006C130.202 34.8153 130.194 34.5733 130.194 34.28C130.194 33.972 130.202 33.7227 130.216 33.532C130.275 32.4907 130.517 31.5813 130.942 30.804C131.368 30.012 131.947 29.4033 132.68 28.978C133.428 28.5527 134.301 28.34 135.298 28.34C136.413 28.34 137.344 28.5747 138.092 29.044C138.855 29.5133 139.434 30.1807 139.83 31.046C140.226 31.9113 140.424 32.9233 140.424 34.082V34.456C140.424 34.6173 140.373 34.742 140.27 34.83C140.182 34.918 140.065 34.962 139.918 34.962H132.306C132.306 34.9767 132.306 35.006 132.306 35.05C132.306 35.094 132.306 35.1307 132.306 35.16C132.336 35.7613 132.468 36.326 132.702 36.854C132.937 37.3673 133.274 37.7853 133.714 38.108C134.154 38.4307 134.682 38.592 135.298 38.592C135.826 38.592 136.266 38.5113 136.618 38.35C136.97 38.1887 137.256 38.0127 137.476 37.822C137.696 37.6167 137.843 37.4627 137.916 37.36C138.048 37.1693 138.151 37.0593 138.224 37.03C138.298 36.986 138.415 36.964 138.576 36.964H139.632C139.779 36.964 139.896 37.008 139.984 37.096C140.087 37.1693 140.131 37.2793 140.116 37.426C140.102 37.646 139.984 37.9173 139.764 38.24C139.544 38.548 139.229 38.856 138.818 39.164C138.408 39.472 137.909 39.7287 137.322 39.934C136.736 40.1247 136.061 40.22 135.298 40.22ZM132.306 33.444H138.334V33.378C138.334 32.718 138.21 32.1313 137.96 31.618C137.726 31.1047 137.381 30.7013 136.926 30.408C136.472 30.1 135.929 29.946 135.298 29.946C134.668 29.946 134.125 30.1 133.67 30.408C133.23 30.7013 132.893 31.1047 132.658 31.618C132.424 32.1313 132.306 32.718 132.306 33.378V33.444Z" fill="#212529"/>
</svg>
