<svg width="154" height="52" viewBox="0 0 154 52" fill="none" xmlns="http://www.w3.org/2000/svg">
<rect x="0.5" y="0.5" width="153" height="51" rx="9.5" fill="white"/>
<rect x="0.5" y="0.5" width="153" height="51" rx="9.5" stroke="#212529"/>
<path d="M32.0454 25.4221C32.0747 23.1834 33.2977 21.0652 35.2378 19.8926C34.0139 18.1742 31.9639 17.0847 29.8311 17.0191C27.5563 16.7844 25.3509 18.3573 24.1917 18.3573C23.0101 18.3573 21.2253 17.0424 19.3034 17.0813C16.7983 17.1609 14.4629 18.561 13.2441 20.7141C10.6242 25.1734 12.5784 31.727 15.0881 35.3315C16.3437 37.0965 17.8112 39.0681 19.7314 38.9982C21.6104 38.9216 22.3122 37.8203 24.5803 37.8203C26.8273 37.8203 27.4857 38.9982 29.4449 38.9537C31.4611 38.9216 32.7315 37.1809 33.9431 35.3991C34.8452 34.1415 35.5394 32.7515 36 31.2807C33.6305 30.2955 32.0482 27.9513 32.0454 25.4221Z" fill="#212529"/>
<path d="M28.3449 14.6486C29.4443 13.3512 29.9859 11.6836 29.8547 10C28.1752 10.1734 26.6237 10.9626 25.5095 12.2102C24.42 13.4292 23.853 15.0674 23.9602 16.6867C25.6403 16.7037 27.2921 15.936 28.3449 14.6486Z" fill="#212529"/>
<path d="M48.245 20C48.135 20 48.047 19.9743 47.981 19.923C47.9223 19.8717 47.8747 19.802 47.838 19.714L45.385 12.641C45.3703 12.597 45.363 12.5567 45.363 12.52C45.363 12.4613 45.385 12.41 45.429 12.366C45.473 12.322 45.5243 12.3 45.583 12.3H46.155C46.243 12.3 46.309 12.3257 46.353 12.377C46.4043 12.421 46.4337 12.4613 46.441 12.498L48.597 18.735L50.753 12.498C50.7677 12.4613 50.797 12.421 50.841 12.377C50.885 12.3257 50.951 12.3 51.039 12.3H51.611C51.6697 12.3 51.721 12.322 51.765 12.366C51.8163 12.41 51.842 12.4613 51.842 12.52C51.842 12.5567 51.8347 12.597 51.82 12.641L49.356 19.714C49.3267 19.802 49.279 19.8717 49.213 19.923C49.1543 19.9743 49.07 20 48.96 20H48.245ZM53.4546 20C53.3813 20 53.319 19.978 53.2676 19.934C53.2236 19.8827 53.2016 19.8203 53.2016 19.747V14.533C53.2016 14.4597 53.2236 14.401 53.2676 14.357C53.319 14.3057 53.3813 14.28 53.4546 14.28H53.9826C54.056 14.28 54.1146 14.3057 54.1586 14.357C54.2026 14.401 54.2246 14.4597 54.2246 14.533V19.747C54.2246 19.8203 54.2026 19.8827 54.1586 19.934C54.1146 19.978 54.056 20 53.9826 20H53.4546ZM53.3666 13.213C53.2933 13.213 53.231 13.191 53.1796 13.147C53.1356 13.0957 53.1136 13.0333 53.1136 12.96V12.366C53.1136 12.2927 53.1356 12.234 53.1796 12.19C53.231 12.1387 53.2933 12.113 53.3666 12.113H54.0596C54.133 12.113 54.1916 12.1387 54.2356 12.19C54.287 12.234 54.3126 12.2927 54.3126 12.366V12.96C54.3126 13.0333 54.287 13.0957 54.2356 13.147C54.1916 13.191 54.133 13.213 54.0596 13.213H53.3666ZM58.2401 20.11C57.8295 20.11 57.4775 20.0587 57.1841 19.956C56.8908 19.8533 56.6525 19.7287 56.4691 19.582C56.2858 19.4353 56.1465 19.2887 56.0511 19.142C55.9631 18.9953 55.9155 18.878 55.9081 18.79C55.9008 18.7093 55.9265 18.647 55.9851 18.603C56.0438 18.559 56.1025 18.537 56.1611 18.537H56.6451C56.6891 18.537 56.7221 18.5443 56.7441 18.559C56.7735 18.5663 56.8101 18.5957 56.8541 18.647C56.9495 18.7497 57.0558 18.8523 57.1731 18.955C57.2905 19.0577 57.4335 19.142 57.6021 19.208C57.7781 19.274 57.9945 19.307 58.2511 19.307C58.6251 19.307 58.9331 19.2373 59.1751 19.098C59.4171 18.9513 59.5381 18.7387 59.5381 18.46C59.5381 18.2767 59.4868 18.13 59.3841 18.02C59.2888 17.91 59.1128 17.811 58.8561 17.723C58.6068 17.635 58.2621 17.5433 57.8221 17.448C57.3821 17.3453 57.0338 17.2207 56.7771 17.074C56.5205 16.92 56.3371 16.7403 56.2271 16.535C56.1171 16.3223 56.0621 16.084 56.0621 15.82C56.0621 15.5487 56.1428 15.2883 56.3041 15.039C56.4655 14.7823 56.7001 14.5733 57.0081 14.412C57.3235 14.2507 57.7158 14.17 58.1851 14.17C58.5665 14.17 58.8928 14.2177 59.1641 14.313C59.4355 14.4083 59.6591 14.5293 59.8351 14.676C60.0111 14.8153 60.1431 14.9547 60.2311 15.094C60.3191 15.2333 60.3668 15.3507 60.3741 15.446C60.3815 15.5193 60.3595 15.5817 60.3081 15.633C60.2568 15.677 60.1981 15.699 60.1321 15.699H59.6701C59.6188 15.699 59.5748 15.688 59.5381 15.666C59.5088 15.644 59.4795 15.6183 59.4501 15.589C59.3768 15.4937 59.2888 15.3983 59.1861 15.303C59.0908 15.2077 58.9625 15.1307 58.8011 15.072C58.6471 15.006 58.4418 14.973 58.1851 14.973C57.8185 14.973 57.5435 15.05 57.3601 15.204C57.1768 15.358 57.0851 15.5523 57.0851 15.787C57.0851 15.9263 57.1255 16.051 57.2061 16.161C57.2868 16.271 57.4408 16.37 57.6681 16.458C57.8955 16.546 58.2328 16.6413 58.6801 16.744C59.1641 16.8393 59.5455 16.9677 59.8241 17.129C60.1028 17.2903 60.3008 17.4773 60.4181 17.69C60.5355 17.9027 60.5941 18.1483 60.5941 18.427C60.5941 18.735 60.5025 19.0173 60.3191 19.274C60.1431 19.5307 59.8791 19.736 59.5271 19.89C59.1825 20.0367 58.7535 20.11 58.2401 20.11ZM62.4506 20C62.3772 20 62.3149 19.978 62.2636 19.934C62.2196 19.8827 62.1976 19.8203 62.1976 19.747V14.533C62.1976 14.4597 62.2196 14.401 62.2636 14.357C62.3149 14.3057 62.3772 14.28 62.4506 14.28H62.9786C63.0519 14.28 63.1106 14.3057 63.1546 14.357C63.1986 14.401 63.2206 14.4597 63.2206 14.533V19.747C63.2206 19.8203 63.1986 19.8827 63.1546 19.934C63.1106 19.978 63.0519 20 62.9786 20H62.4506ZM62.3626 13.213C62.2892 13.213 62.2269 13.191 62.1756 13.147C62.1316 13.0957 62.1096 13.0333 62.1096 12.96V12.366C62.1096 12.2927 62.1316 12.234 62.1756 12.19C62.2269 12.1387 62.2892 12.113 62.3626 12.113H63.0556C63.1289 12.113 63.1876 12.1387 63.2316 12.19C63.2829 12.234 63.3086 12.2927 63.3086 12.366V12.96C63.3086 13.0333 63.2829 13.0957 63.2316 13.147C63.1876 13.191 63.1289 13.213 63.0556 13.213H62.3626ZM67.4246 20C67.014 20 66.6803 19.923 66.4236 19.769C66.167 19.6077 65.98 19.384 65.8626 19.098C65.7453 18.8047 65.6866 18.46 65.6866 18.064V15.16H64.8286C64.7553 15.16 64.693 15.138 64.6416 15.094C64.5976 15.0427 64.5756 14.9803 64.5756 14.907V14.533C64.5756 14.4597 64.5976 14.401 64.6416 14.357C64.693 14.3057 64.7553 14.28 64.8286 14.28H65.6866V12.443C65.6866 12.3697 65.7086 12.311 65.7526 12.267C65.804 12.2157 65.8663 12.19 65.9396 12.19H66.4566C66.53 12.19 66.5886 12.2157 66.6326 12.267C66.684 12.311 66.7096 12.3697 66.7096 12.443V14.28H68.0736C68.147 14.28 68.2056 14.3057 68.2496 14.357C68.301 14.401 68.3266 14.4597 68.3266 14.533V14.907C68.3266 14.9803 68.301 15.0427 68.2496 15.094C68.2056 15.138 68.147 15.16 68.0736 15.16H66.7096V17.987C66.7096 18.3317 66.7683 18.603 66.8856 18.801C67.003 18.999 67.212 19.098 67.5126 19.098H68.1836C68.257 19.098 68.3156 19.1237 68.3596 19.175C68.411 19.219 68.4366 19.2777 68.4366 19.351V19.747C68.4366 19.8203 68.411 19.8827 68.3596 19.934C68.3156 19.978 68.257 20 68.1836 20H67.4246ZM74.9788 20.11C74.5094 20.11 74.1098 20.0073 73.7798 19.802C73.4571 19.5893 73.2114 19.296 73.0428 18.922C72.8741 18.548 72.7898 18.119 72.7898 17.635V14.533C72.7898 14.4597 72.8118 14.401 72.8558 14.357C72.9071 14.3057 72.9694 14.28 73.0428 14.28H73.5928C73.6661 14.28 73.7248 14.3057 73.7688 14.357C73.8201 14.401 73.8458 14.4597 73.8458 14.533V17.58C73.8458 18.6727 74.3224 19.219 75.2758 19.219C75.7304 19.219 76.0934 19.076 76.3648 18.79C76.6434 18.4967 76.7828 18.0933 76.7828 17.58V14.533C76.7828 14.4597 76.8048 14.401 76.8488 14.357C76.9001 14.3057 76.9624 14.28 77.0358 14.28H77.5748C77.6554 14.28 77.7178 14.3057 77.7618 14.357C77.8058 14.401 77.8278 14.4597 77.8278 14.533V19.747C77.8278 19.8203 77.8058 19.8827 77.7618 19.934C77.7178 19.978 77.6554 20 77.5748 20H77.0688C76.9954 20 76.9331 19.978 76.8818 19.934C76.8378 19.8827 76.8158 19.8203 76.8158 19.747V19.263C76.6178 19.5197 76.3758 19.725 76.0898 19.879C75.8111 20.033 75.4408 20.11 74.9788 20.11ZM81.772 20.11C81.3613 20.11 81.0093 20.0587 80.716 19.956C80.4226 19.8533 80.1843 19.7287 80.001 19.582C79.8176 19.4353 79.6783 19.2887 79.583 19.142C79.495 18.9953 79.4473 18.878 79.44 18.79C79.4326 18.7093 79.4583 18.647 79.517 18.603C79.5756 18.559 79.6343 18.537 79.693 18.537H80.177C80.221 18.537 80.254 18.5443 80.276 18.559C80.3053 18.5663 80.342 18.5957 80.386 18.647C80.4813 18.7497 80.5876 18.8523 80.705 18.955C80.8223 19.0577 80.9653 19.142 81.134 19.208C81.31 19.274 81.5263 19.307 81.783 19.307C82.157 19.307 82.465 19.2373 82.707 19.098C82.949 18.9513 83.07 18.7387 83.07 18.46C83.07 18.2767 83.0186 18.13 82.916 18.02C82.8206 17.91 82.6446 17.811 82.388 17.723C82.1386 17.635 81.794 17.5433 81.354 17.448C80.914 17.3453 80.5656 17.2207 80.309 17.074C80.0523 16.92 79.869 16.7403 79.759 16.535C79.649 16.3223 79.594 16.084 79.594 15.82C79.594 15.5487 79.6746 15.2883 79.836 15.039C79.9973 14.7823 80.232 14.5733 80.54 14.412C80.8553 14.2507 81.2476 14.17 81.717 14.17C82.0983 14.17 82.4246 14.2177 82.696 14.313C82.9673 14.4083 83.191 14.5293 83.367 14.676C83.543 14.8153 83.675 14.9547 83.763 15.094C83.851 15.2333 83.8986 15.3507 83.906 15.446C83.9133 15.5193 83.8913 15.5817 83.84 15.633C83.7886 15.677 83.73 15.699 83.664 15.699H83.202C83.1506 15.699 83.1066 15.688 83.07 15.666C83.0406 15.644 83.0113 15.6183 82.982 15.589C82.9086 15.4937 82.8206 15.3983 82.718 15.303C82.6226 15.2077 82.4943 15.1307 82.333 15.072C82.179 15.006 81.9736 14.973 81.717 14.973C81.3503 14.973 81.0753 15.05 80.892 15.204C80.7086 15.358 80.617 15.5523 80.617 15.787C80.617 15.9263 80.6573 16.051 80.738 16.161C80.8186 16.271 80.9726 16.37 81.2 16.458C81.4273 16.546 81.7646 16.6413 82.212 16.744C82.696 16.8393 83.0773 16.9677 83.356 17.129C83.6346 17.2903 83.8326 17.4773 83.95 17.69C84.0673 17.9027 84.126 18.1483 84.126 18.427C84.126 18.735 84.0343 19.0173 83.851 19.274C83.675 19.5307 83.411 19.736 83.059 19.89C82.7143 20.0367 82.2853 20.11 81.772 20.11ZM91.0987 20.11C90.5413 20.11 90.0757 20.0037 89.7017 19.791C89.3277 19.5783 89.0417 19.285 88.8437 18.911C88.6457 18.5297 88.5357 18.097 88.5137 17.613C88.5063 17.4883 88.5027 17.3307 88.5027 17.14C88.5027 16.942 88.5063 16.7843 88.5137 16.667C88.5357 16.1757 88.6457 15.743 88.8437 15.369C89.049 14.995 89.3387 14.7017 89.7127 14.489C90.0867 14.2763 90.5487 14.17 91.0987 14.17C91.6487 14.17 92.1107 14.2763 92.4847 14.489C92.8587 14.7017 93.1447 14.995 93.3427 15.369C93.548 15.743 93.6617 16.1757 93.6837 16.667C93.691 16.7843 93.6947 16.942 93.6947 17.14C93.6947 17.3307 93.691 17.4883 93.6837 17.613C93.6617 18.097 93.5517 18.5297 93.3537 18.911C93.1557 19.285 92.8697 19.5783 92.4957 19.791C92.1217 20.0037 91.656 20.11 91.0987 20.11ZM91.0987 19.263C91.5533 19.263 91.9163 19.12 92.1877 18.834C92.459 18.5407 92.6057 18.1153 92.6277 17.558C92.635 17.448 92.6387 17.3087 92.6387 17.14C92.6387 16.9713 92.635 16.832 92.6277 16.722C92.6057 16.1647 92.459 15.743 92.1877 15.457C91.9163 15.1637 91.5533 15.017 91.0987 15.017C90.644 15.017 90.2773 15.1637 89.9987 15.457C89.7273 15.743 89.5843 16.1647 89.5697 16.722C89.5623 16.832 89.5587 16.9713 89.5587 17.14C89.5587 17.3087 89.5623 17.448 89.5697 17.558C89.5843 18.1153 89.7273 18.5407 89.9987 18.834C90.2773 19.12 90.644 19.263 91.0987 19.263ZM95.6551 20C95.5818 20 95.5194 19.978 95.4681 19.934C95.4241 19.8827 95.4021 19.8203 95.4021 19.747V14.533C95.4021 14.4597 95.4241 14.401 95.4681 14.357C95.5194 14.3057 95.5818 14.28 95.6551 14.28H96.1721C96.2454 14.28 96.3041 14.3057 96.3481 14.357C96.3994 14.401 96.4251 14.4597 96.4251 14.533V15.017C96.6158 14.7677 96.8541 14.566 97.1401 14.412C97.4334 14.2507 97.8074 14.17 98.2621 14.17C98.7388 14.17 99.1421 14.2763 99.4721 14.489C99.8094 14.6943 100.062 14.984 100.231 15.358C100.4 15.7247 100.484 16.1537 100.484 16.645V19.747C100.484 19.8203 100.462 19.8827 100.418 19.934C100.374 19.978 100.315 20 100.242 20H99.6921C99.6188 20 99.5564 19.978 99.5051 19.934C99.4611 19.8827 99.4391 19.8203 99.4391 19.747V16.7C99.4391 16.1867 99.3144 15.787 99.0651 15.501C98.8158 15.2077 98.4491 15.061 97.9651 15.061C97.5104 15.061 97.1438 15.2077 96.8651 15.501C96.5938 15.787 96.4581 16.1867 96.4581 16.7V19.747C96.4581 19.8203 96.4324 19.8827 96.3811 19.934C96.3371 19.978 96.2784 20 96.2051 20H95.6551Z" fill="#212529"/>
<path d="M45.88 40C45.7627 40 45.66 39.956 45.572 39.868C45.484 39.78 45.44 39.6773 45.44 39.56C45.44 39.4867 45.4473 39.406 45.462 39.318L50.918 25.084C50.9767 24.9373 51.0573 24.82 51.16 24.732C51.2627 24.644 51.4167 24.6 51.622 24.6H53.118C53.3087 24.6 53.4553 24.644 53.558 24.732C53.6753 24.82 53.7633 24.9373 53.822 25.084L59.256 39.318C59.2853 39.406 59.3 39.4867 59.3 39.56C59.3 39.6773 59.256 39.78 59.168 39.868C59.08 39.956 58.9773 40 58.86 40H57.738C57.562 40 57.43 39.956 57.342 39.868C57.2687 39.78 57.2173 39.6993 57.188 39.626L55.978 36.502H48.762L47.552 39.626C47.5373 39.6993 47.486 39.78 47.398 39.868C47.31 39.956 47.178 40 47.002 40H45.88ZM49.4 34.61H55.34L52.37 26.8L49.4 34.61ZM61.2343 44.18C61.0876 44.18 60.9629 44.1287 60.8603 44.026C60.7723 43.938 60.7283 43.8207 60.7283 43.674V29.066C60.7283 28.9193 60.7723 28.802 60.8603 28.714C60.9629 28.6113 61.0876 28.56 61.2343 28.56H62.2463C62.3929 28.56 62.5103 28.6113 62.5983 28.714C62.7009 28.802 62.7523 28.9193 62.7523 29.066V30.034C63.1043 29.55 63.5736 29.1467 64.1603 28.824C64.7469 28.5013 65.4803 28.34 66.3603 28.34C67.1816 28.34 67.8783 28.4793 68.4503 28.758C69.0369 29.0367 69.5136 29.418 69.8803 29.902C70.2616 30.386 70.5476 30.936 70.7383 31.552C70.9289 32.168 71.0316 32.828 71.0463 33.532C71.0609 33.7667 71.0683 34.016 71.0683 34.28C71.0683 34.544 71.0609 34.7933 71.0463 35.028C71.0316 35.7173 70.9289 36.3773 70.7383 37.008C70.5476 37.624 70.2616 38.174 69.8803 38.658C69.5136 39.1273 69.0369 39.5087 68.4503 39.802C67.8783 40.0807 67.1816 40.22 66.3603 40.22C65.5096 40.22 64.7909 40.066 64.2043 39.758C63.6323 39.4353 63.1629 39.0393 62.7963 38.57V43.674C62.7963 43.8207 62.7523 43.938 62.6643 44.026C62.5763 44.1287 62.4516 44.18 62.2903 44.18H61.2343ZM65.8983 38.438C66.6609 38.438 67.2549 38.2767 67.6803 37.954C68.1203 37.6167 68.4356 37.184 68.6263 36.656C68.8169 36.1133 68.9269 35.534 68.9563 34.918C68.9709 34.4927 68.9709 34.0673 68.9563 33.642C68.9269 33.026 68.8169 32.454 68.6263 31.926C68.4356 31.3833 68.1203 30.9507 67.6803 30.628C67.2549 30.2907 66.6609 30.122 65.8983 30.122C65.1796 30.122 64.5929 30.2907 64.1383 30.628C63.6983 30.9653 63.3683 31.398 63.1483 31.926C62.9429 32.4393 62.8256 32.9673 62.7963 33.51C62.7816 33.7447 62.7743 34.0233 62.7743 34.346C62.7743 34.6687 62.7816 34.9547 62.7963 35.204C62.8109 35.7173 62.9283 36.2233 63.1483 36.722C63.3829 37.2207 63.7276 37.6313 64.1823 37.954C64.6369 38.2767 65.2089 38.438 65.8983 38.438ZM73.6798 44.18C73.5331 44.18 73.4084 44.1287 73.3058 44.026C73.2178 43.938 73.1738 43.8207 73.1738 43.674V29.066C73.1738 28.9193 73.2178 28.802 73.3058 28.714C73.4084 28.6113 73.5331 28.56 73.6798 28.56H74.6918C74.8384 28.56 74.9558 28.6113 75.0438 28.714C75.1464 28.802 75.1978 28.9193 75.1978 29.066V30.034C75.5498 29.55 76.0191 29.1467 76.6058 28.824C77.1924 28.5013 77.9258 28.34 78.8058 28.34C79.6271 28.34 80.3238 28.4793 80.8958 28.758C81.4824 29.0367 81.9591 29.418 82.3258 29.902C82.7071 30.386 82.9931 30.936 83.1838 31.552C83.3744 32.168 83.4771 32.828 83.4918 33.532C83.5064 33.7667 83.5138 34.016 83.5138 34.28C83.5138 34.544 83.5064 34.7933 83.4918 35.028C83.4771 35.7173 83.3744 36.3773 83.1838 37.008C82.9931 37.624 82.7071 38.174 82.3258 38.658C81.9591 39.1273 81.4824 39.5087 80.8958 39.802C80.3238 40.0807 79.6271 40.22 78.8058 40.22C77.9551 40.22 77.2364 40.066 76.6498 39.758C76.0778 39.4353 75.6084 39.0393 75.2418 38.57V43.674C75.2418 43.8207 75.1978 43.938 75.1098 44.026C75.0218 44.1287 74.8971 44.18 74.7358 44.18H73.6798ZM78.3438 38.438C79.1064 38.438 79.7004 38.2767 80.1258 37.954C80.5658 37.6167 80.8811 37.184 81.0718 36.656C81.2624 36.1133 81.3724 35.534 81.4018 34.918C81.4164 34.4927 81.4164 34.0673 81.4018 33.642C81.3724 33.026 81.2624 32.454 81.0718 31.926C80.8811 31.3833 80.5658 30.9507 80.1258 30.628C79.7004 30.2907 79.1064 30.122 78.3438 30.122C77.6251 30.122 77.0384 30.2907 76.5838 30.628C76.1438 30.9653 75.8138 31.398 75.5938 31.926C75.3884 32.4393 75.2711 32.9673 75.2418 33.51C75.2271 33.7447 75.2198 34.0233 75.2198 34.346C75.2198 34.6687 75.2271 34.9547 75.2418 35.204C75.2564 35.7173 75.3738 36.2233 75.5938 36.722C75.8284 37.2207 76.1731 37.6313 76.6278 37.954C77.0824 38.2767 77.6544 38.438 78.3438 38.438ZM95.5658 40.22C94.2898 40.22 93.2191 40.0293 92.3538 39.648C91.4885 39.252 90.8211 38.746 90.3518 38.13C89.8971 37.4993 89.6551 36.832 89.6258 36.128C89.6258 36.0107 89.6698 35.908 89.7578 35.82C89.8605 35.7173 89.9778 35.666 90.1098 35.666H91.2318C91.4078 35.666 91.5398 35.71 91.6278 35.798C91.7158 35.886 91.7745 35.9887 91.8038 36.106C91.8771 36.458 92.0531 36.81 92.3318 37.162C92.6251 37.4993 93.0285 37.7853 93.5418 38.02C94.0698 38.24 94.7445 38.35 95.5658 38.35C96.8271 38.35 97.7511 38.13 98.3378 37.69C98.9391 37.2353 99.2398 36.634 99.2398 35.886C99.2398 35.3727 99.0785 34.962 98.7558 34.654C98.4478 34.3313 97.9711 34.0453 97.3258 33.796C96.6805 33.5467 95.8445 33.2753 94.8178 32.982C93.7471 32.674 92.8598 32.3367 92.1558 31.97C91.4518 31.6033 90.9238 31.1487 90.5718 30.606C90.2345 30.0633 90.0658 29.374 90.0658 28.538C90.0658 27.746 90.2785 27.042 90.7038 26.426C91.1291 25.7953 91.7378 25.2967 92.5298 24.93C93.3365 24.5633 94.3118 24.38 95.4558 24.38C96.3651 24.38 97.1571 24.5047 97.8318 24.754C98.5211 24.9887 99.0931 25.3113 99.5478 25.722C100.002 26.118 100.347 26.5507 100.582 27.02C100.816 27.4747 100.941 27.922 100.956 28.362C100.956 28.4647 100.919 28.5673 100.846 28.67C100.772 28.758 100.655 28.802 100.494 28.802H99.3278C99.2251 28.802 99.1151 28.7727 98.9978 28.714C98.8951 28.6553 98.8145 28.5453 98.7558 28.384C98.6678 27.7827 98.3305 27.2767 97.7438 26.866C97.1571 26.4553 96.3945 26.25 95.4558 26.25C94.5025 26.25 93.7251 26.4333 93.1238 26.8C92.5371 27.1667 92.2438 27.7387 92.2438 28.516C92.2438 29.0147 92.3831 29.4327 92.6618 29.77C92.9405 30.0927 93.3805 30.3787 93.9818 30.628C94.5831 30.8773 95.3678 31.1413 96.3358 31.42C97.5091 31.7427 98.4698 32.0873 99.2178 32.454C99.9658 32.806 100.516 33.2533 100.868 33.796C101.234 34.324 101.418 35.006 101.418 35.842C101.418 36.766 101.176 37.558 100.692 38.218C100.208 38.8633 99.5258 39.362 98.6458 39.714C97.7805 40.0513 96.7538 40.22 95.5658 40.22ZM107.821 40C107 40 106.333 39.846 105.819 39.538C105.306 39.2153 104.932 38.768 104.697 38.196C104.463 37.6093 104.345 36.92 104.345 36.128V30.32H102.629C102.483 30.32 102.358 30.276 102.255 30.188C102.167 30.0853 102.123 29.9607 102.123 29.814V29.066C102.123 28.9193 102.167 28.802 102.255 28.714C102.358 28.6113 102.483 28.56 102.629 28.56H104.345V24.886C104.345 24.7393 104.389 24.622 104.477 24.534C104.58 24.4313 104.705 24.38 104.851 24.38H105.885C106.032 24.38 106.149 24.4313 106.237 24.534C106.34 24.622 106.391 24.7393 106.391 24.886V28.56H109.119C109.266 28.56 109.383 28.6113 109.471 28.714C109.574 28.802 109.625 28.9193 109.625 29.066V29.814C109.625 29.9607 109.574 30.0853 109.471 30.188C109.383 30.276 109.266 30.32 109.119 30.32H106.391V35.974C106.391 36.6633 106.509 37.206 106.743 37.602C106.978 37.998 107.396 38.196 107.997 38.196H109.339C109.486 38.196 109.603 38.2473 109.691 38.35C109.794 38.438 109.845 38.5553 109.845 38.702V39.494C109.845 39.6407 109.794 39.7653 109.691 39.868C109.603 39.956 109.486 40 109.339 40H107.821ZM115.975 40.22C114.86 40.22 113.929 40.0073 113.181 39.582C112.433 39.1567 111.861 38.57 111.465 37.822C111.069 37.0593 110.849 36.194 110.805 35.226C110.79 34.9767 110.783 34.6613 110.783 34.28C110.783 33.884 110.79 33.5687 110.805 33.334C110.849 32.3513 111.069 31.486 111.465 30.738C111.876 29.99 112.455 29.4033 113.203 28.978C113.951 28.5527 114.875 28.34 115.975 28.34C117.075 28.34 117.999 28.5527 118.747 28.978C119.495 29.4033 120.067 29.99 120.463 30.738C120.874 31.486 121.101 32.3513 121.145 33.334C121.16 33.5687 121.167 33.884 121.167 34.28C121.167 34.6613 121.16 34.9767 121.145 35.226C121.101 36.194 120.881 37.0593 120.485 37.822C120.089 38.57 119.517 39.1567 118.769 39.582C118.021 40.0073 117.09 40.22 115.975 40.22ZM115.975 38.526C116.884 38.526 117.61 38.24 118.153 37.668C118.696 37.0813 118.989 36.2307 119.033 35.116C119.048 34.896 119.055 34.6173 119.055 34.28C119.055 33.9427 119.048 33.664 119.033 33.444C118.989 32.3293 118.696 31.486 118.153 30.914C117.61 30.3273 116.884 30.034 115.975 30.034C115.066 30.034 114.332 30.3273 113.775 30.914C113.232 31.486 112.946 32.3293 112.917 33.444C112.902 33.664 112.895 33.9427 112.895 34.28C112.895 34.6173 112.902 34.896 112.917 35.116C112.946 36.2307 113.232 37.0813 113.775 37.668C114.332 38.24 115.066 38.526 115.975 38.526ZM123.768 40C123.621 40 123.497 39.956 123.394 39.868C123.306 39.7653 123.262 39.6407 123.262 39.494V29.088C123.262 28.9413 123.306 28.8167 123.394 28.714C123.497 28.6113 123.621 28.56 123.768 28.56H124.78C124.927 28.56 125.051 28.6113 125.154 28.714C125.257 28.8167 125.308 28.9413 125.308 29.088V30.056C125.601 29.5573 126.005 29.1833 126.518 28.934C127.031 28.6847 127.647 28.56 128.366 28.56H129.246C129.393 28.56 129.51 28.6113 129.598 28.714C129.686 28.802 129.73 28.9193 129.73 29.066V29.968C129.73 30.1147 129.686 30.232 129.598 30.32C129.51 30.408 129.393 30.452 129.246 30.452H127.926C127.134 30.452 126.511 30.6867 126.056 31.156C125.601 31.6107 125.374 32.234 125.374 33.026V39.494C125.374 39.6407 125.323 39.7653 125.22 39.868C125.117 39.956 124.993 40 124.846 40H123.768ZM135.298 40.22C133.788 40.22 132.585 39.758 131.69 38.834C130.796 37.8953 130.304 36.6193 130.216 35.006C130.202 34.8153 130.194 34.5733 130.194 34.28C130.194 33.972 130.202 33.7227 130.216 33.532C130.275 32.4907 130.517 31.5813 130.942 30.804C131.368 30.012 131.947 29.4033 132.68 28.978C133.428 28.5527 134.301 28.34 135.298 28.34C136.413 28.34 137.344 28.5747 138.092 29.044C138.855 29.5133 139.434 30.1807 139.83 31.046C140.226 31.9113 140.424 32.9233 140.424 34.082V34.456C140.424 34.6173 140.373 34.742 140.27 34.83C140.182 34.918 140.065 34.962 139.918 34.962H132.306C132.306 34.9767 132.306 35.006 132.306 35.05C132.306 35.094 132.306 35.1307 132.306 35.16C132.336 35.7613 132.468 36.326 132.702 36.854C132.937 37.3673 133.274 37.7853 133.714 38.108C134.154 38.4307 134.682 38.592 135.298 38.592C135.826 38.592 136.266 38.5113 136.618 38.35C136.97 38.1887 137.256 38.0127 137.476 37.822C137.696 37.6167 137.843 37.4627 137.916 37.36C138.048 37.1693 138.151 37.0593 138.224 37.03C138.298 36.986 138.415 36.964 138.576 36.964H139.632C139.779 36.964 139.896 37.008 139.984 37.096C140.087 37.1693 140.131 37.2793 140.116 37.426C140.102 37.646 139.984 37.9173 139.764 38.24C139.544 38.548 139.229 38.856 138.818 39.164C138.408 39.472 137.909 39.7287 137.322 39.934C136.736 40.1247 136.061 40.22 135.298 40.22ZM132.306 33.444H138.334V33.378C138.334 32.718 138.21 32.1313 137.96 31.618C137.726 31.1047 137.381 30.7013 136.926 30.408C136.472 30.1 135.929 29.946 135.298 29.946C134.668 29.946 134.125 30.1 133.67 30.408C133.23 30.7013 132.893 31.1047 132.658 31.618C132.424 32.1313 132.306 32.718 132.306 33.378V33.444Z" fill="#212529"/>
</svg>
