<svg width="154" height="52" viewBox="0 0 154 52" fill="none" xmlns="http://www.w3.org/2000/svg">
<rect x="0.5" y="0.5" width="153" height="51" rx="9.5" fill="white"/>
<rect x="0.5" y="0.5" width="153" height="51" rx="9.5" stroke="#212529"/>
<path d="M32.0454 25.4221C32.0747 23.1834 33.2977 21.0652 35.2378 19.8926C34.0139 18.1742 31.9639 17.0847 29.8311 17.0191C27.5563 16.7844 25.3509 18.3573 24.1917 18.3573C23.0101 18.3573 21.2253 17.0424 19.3034 17.0813C16.7983 17.1609 14.4629 18.561 13.2441 20.7141C10.6242 25.1734 12.5784 31.727 15.0881 35.3315C16.3437 37.0965 17.8112 39.0681 19.7314 38.9982C21.6104 38.9216 22.3122 37.8203 24.5803 37.8203C26.8273 37.8203 27.4857 38.9982 29.4449 38.9537C31.4611 38.9216 32.7315 37.1809 33.9431 35.3991C34.8452 34.1415 35.5394 32.7515 36 31.2807C33.6305 30.2955 32.0482 27.9513 32.0454 25.4221Z" fill="#212529"/>
<path d="M28.3449 14.6486C29.4443 13.3512 29.9859 11.6836 29.8547 10C28.1752 10.1734 26.6237 10.9626 25.5095 12.2102C24.42 13.4292 23.853 15.0674 23.9602 16.6867C25.6403 16.7037 27.2921 15.936 28.3449 14.6486Z" fill="#212529"/>
<path d="M53.3684 20.804L52.7194 20.1C52.9028 19.968 52.9944 19.8287 52.9944 19.682C52.9944 19.5867 52.9504 19.4877 52.8624 19.385C52.7744 19.2823 52.6058 19.1467 52.3564 18.978C52.1071 18.802 51.7404 18.5563 51.2564 18.241C50.7578 17.911 50.3618 17.6433 50.0684 17.438C49.7824 17.2327 49.5698 17.053 49.4304 16.899C49.2984 16.745 49.2104 16.5873 49.1664 16.426C49.1298 16.2647 49.1114 16.0667 49.1114 15.832V14.809C49.1114 14.5083 49.1114 14.215 49.1114 13.929C49.1188 13.643 49.1261 13.335 49.1334 13.005H48.2534L47.8794 12.29V12.18H52.5874C52.2721 11.6373 52.0044 11.2083 51.7844 10.893C51.5424 10.563 51.3298 10.332 51.1464 10.2C50.9631 10.0607 50.7688 9.991 50.5634 9.991C50.4461 9.991 50.2811 10.002 50.0684 10.024C49.8631 10.046 49.6761 10.0753 49.5074 10.112L49.0014 9.177L49.0124 9.1C49.2984 9.04867 49.5441 9.01567 49.7494 9.001C49.9548 8.98633 50.0904 8.979 50.1564 8.979C50.5304 8.979 50.8788 9.11833 51.2014 9.397C51.5241 9.67567 51.8504 10.0643 52.1804 10.563C52.4884 11.0323 52.8221 11.5713 53.1814 12.18H54.2814L54.6554 12.895V13.005H53.3574C53.3648 13.247 53.3684 13.5073 53.3684 13.786C53.3758 14.0647 53.3794 14.3287 53.3794 14.578C53.3868 14.82 53.3904 15.018 53.3904 15.172C53.3904 15.6047 53.3538 15.942 53.2804 16.184C53.2144 16.426 53.1081 16.624 52.9614 16.778C52.8148 16.932 52.6204 17.0933 52.3784 17.262L51.7184 16.547C51.8871 16.4297 52.0264 16.316 52.1364 16.206C52.2538 16.096 52.3418 15.9493 52.4004 15.766C52.4591 15.5753 52.4884 15.3187 52.4884 14.996C52.4884 14.6513 52.4848 14.3323 52.4774 14.039C52.4774 13.7383 52.4738 13.3937 52.4664 13.005H50.0574C50.0501 13.4083 50.0464 13.7567 50.0464 14.05V15.975C50.0464 16.1583 50.0611 16.316 50.0904 16.448C50.1198 16.5727 50.1858 16.6973 50.2884 16.822C50.3984 16.9393 50.5634 17.0823 50.7834 17.251C51.0034 17.4123 51.3041 17.6177 51.6854 17.867C52.1694 18.1823 52.5618 18.4463 52.8624 18.659C53.1704 18.8717 53.4014 19.0513 53.5554 19.198C53.7168 19.3447 53.8268 19.473 53.8854 19.583C53.9441 19.693 53.9734 19.8103 53.9734 19.935C53.9734 20.2577 53.7718 20.5473 53.3684 20.804ZM57.7307 17.152C57.4447 17.152 57.1697 17.086 56.9057 16.954C56.6417 16.822 56.4034 16.6533 56.1907 16.448C55.978 16.2427 55.8094 16.0263 55.6847 15.799C55.56 15.5717 55.494 15.3663 55.4867 15.183C55.4794 15.0803 55.4757 14.985 55.4757 14.897C55.4757 14.809 55.4757 14.7247 55.4757 14.644C55.4757 14.4093 55.4757 14.149 55.4757 13.863C55.483 13.577 55.4867 13.291 55.4867 13.005H54.7387L54.3647 12.29V12.18H60.7337L61.1077 12.895V13.005H59.8207L59.8427 19.11H59.7327L58.8527 18.538L58.8637 16.8C58.475 17.0347 58.0974 17.152 57.7307 17.152ZM58.8967 13.005H56.4217L56.4437 15.425C56.4437 15.777 56.5244 16.0337 56.6857 16.195C56.847 16.3563 57.0194 16.437 57.2027 16.437C57.4227 16.437 57.6684 16.3673 57.9397 16.228C58.2184 16.0887 58.53 15.898 58.8747 15.656L58.8967 13.005ZM67.7892 19.22H67.6792L65.7322 16.844C65.3728 16.3967 65.1308 16.0557 65.0062 15.821C64.8815 15.5863 64.8192 15.3993 64.8192 15.26C64.8192 15.128 64.8595 15.0327 64.9402 14.974C65.0282 14.9153 65.1712 14.886 65.3692 14.886C65.4792 14.886 65.6332 14.8933 65.8312 14.908C66.0292 14.9227 66.1942 14.9373 66.3262 14.952C66.3628 14.7687 66.3848 14.5597 66.3922 14.325C66.4068 14.083 66.4142 13.874 66.4142 13.698C66.4142 13.5733 66.4105 13.4523 66.4032 13.335C66.4032 13.2103 66.3995 13.1003 66.3922 13.005H64.3792L64.0052 12.29V12.18H74.4662L74.8402 12.895V13.005H73.1242C73.1242 13.2103 73.1242 13.4377 73.1242 13.687C73.1315 13.929 73.1352 14.16 73.1352 14.38V14.952L73.0032 15.04H71.5952C71.1258 15.04 70.7445 15.15 70.4512 15.37C70.1652 15.59 70.0222 15.9237 70.0222 16.371C70.0222 16.6863 70.0955 16.9503 70.2422 17.163C70.3962 17.3683 70.5978 17.5223 70.8472 17.625C71.0965 17.7277 71.3715 17.779 71.6722 17.779C72.0682 17.779 72.4238 17.702 72.7392 17.548C73.0618 17.394 73.3478 17.1923 73.5972 16.943L74.2572 17.614C73.9712 17.922 73.6522 18.164 73.3002 18.34C72.9482 18.5087 72.5742 18.593 72.1782 18.593C71.8188 18.593 71.4632 18.5233 71.1112 18.384C70.7592 18.2447 70.4365 18.0503 70.1432 17.801C69.8572 17.5443 69.6298 17.2473 69.4612 16.91C69.3878 16.778 69.3292 16.6387 69.2852 16.492C69.1385 16.5213 69.0102 16.536 68.9002 16.536C68.6948 16.536 68.4345 16.4957 68.1192 16.415C67.8038 16.327 67.4298 16.1143 66.9972 15.777C66.9165 15.931 66.7992 16.063 66.6452 16.173C66.4985 16.2757 66.3042 16.349 66.0622 16.393L68.3502 18.758L67.7892 19.22ZM68.6692 13.005H67.2832C67.2978 13.1517 67.3052 13.313 67.3052 13.489C67.3125 13.6577 67.3162 13.7897 67.3162 13.885C67.3162 14.1123 67.3052 14.3543 67.2832 14.611C67.2685 14.8677 67.2282 15.1097 67.1622 15.337C67.3602 15.447 67.5985 15.535 67.8772 15.601C68.1632 15.6597 68.4088 15.689 68.6142 15.689C68.7902 15.689 68.9552 15.667 69.1092 15.623C69.1458 15.6157 69.1788 15.6047 69.2082 15.59C69.2375 15.282 69.3328 15.0327 69.4942 14.842C69.6922 14.6147 69.9672 14.4533 70.3192 14.358C70.6785 14.2627 71.0928 14.215 71.5622 14.215H72.2222V13.005H68.6692ZM78.104 13.005H76.817L76.839 19.165H76.729L75.849 18.593L75.893 13.005H74.925L74.551 12.29V12.18H76.014C75.6987 11.6373 75.431 11.2083 75.211 10.893C74.969 10.563 74.7563 10.332 74.573 10.2C74.3897 10.0607 74.1953 9.991 73.99 9.991C73.8727 9.991 73.7113 10.002 73.506 10.024C73.2933 10.046 73.1027 10.0753 72.934 10.112L72.428 9.177L72.439 9.1C72.725 9.04867 72.9707 9.01567 73.176 9.001C73.3813 8.98633 73.517 8.979 73.583 8.979C73.957 8.979 74.3053 9.11833 74.628 9.397C74.9507 9.67567 75.277 10.0643 75.607 10.563C75.915 11.0323 76.2487 11.5713 76.608 12.18H77.73L78.104 12.895V13.005ZM81.6636 19.22H81.5536L79.3756 16.547C79.1043 16.217 78.9099 15.9493 78.7926 15.744C78.6826 15.5313 78.6276 15.3627 78.6276 15.238C78.6276 15.0033 78.8146 14.886 79.1886 14.886C79.2986 14.886 79.4489 14.8933 79.6396 14.908C79.8303 14.9227 79.9916 14.9373 80.1236 14.952C80.1603 14.7687 80.1823 14.5597 80.1896 14.325C80.2043 14.083 80.2116 13.874 80.2116 13.698C80.2116 13.544 80.2079 13.412 80.2006 13.302C80.2006 13.192 80.1969 13.093 80.1896 13.005H78.1876L77.8136 12.29V12.18H82.3896L82.7636 12.895V13.005H81.1026C81.1099 13.1443 81.1173 13.2983 81.1246 13.467C81.1319 13.6357 81.1356 13.753 81.1356 13.819C81.1356 14.4203 81.0916 14.897 81.0036 15.249C80.9156 15.601 80.7799 15.865 80.5966 16.041C80.4206 16.217 80.2006 16.3343 79.9366 16.393L82.2246 18.758L81.6636 19.22ZM89.0261 17.152C88.7401 17.152 88.4651 17.086 88.2011 16.954C87.9371 16.822 87.6988 16.6533 87.4861 16.448C87.2735 16.2427 87.1048 16.0263 86.9801 15.799C86.8555 15.5717 86.7895 15.3663 86.7821 15.183C86.7748 15.0803 86.7711 14.985 86.7711 14.897C86.7711 14.809 86.7711 14.7247 86.7711 14.644C86.7711 14.4093 86.7711 14.149 86.7711 13.863C86.7785 13.577 86.7821 13.291 86.7821 13.005H86.0341L85.6601 12.29V12.18H92.0291L92.4031 12.895V13.005H91.1161L91.1381 19.11H91.0281L90.1481 18.538L90.1591 16.8C89.7705 17.0347 89.3928 17.152 89.0261 17.152ZM90.1921 13.005H87.7171L87.7391 15.425C87.7391 15.777 87.8198 16.0337 87.9811 16.195C88.1425 16.3563 88.3148 16.437 88.4981 16.437C88.7181 16.437 88.9638 16.3673 89.2351 16.228C89.5138 16.0887 89.8255 15.898 90.1701 15.656L90.1921 13.005ZM95.9632 19.22H95.8532L93.6752 16.547C93.4038 16.217 93.2095 15.9493 93.0922 15.744C92.9822 15.5313 92.9272 15.3627 92.9272 15.238C92.9272 15.0033 93.1142 14.886 93.4882 14.886C93.5982 14.886 93.7485 14.8933 93.9392 14.908C94.1298 14.9227 94.2912 14.9373 94.4232 14.952C94.4598 14.7687 94.4818 14.5597 94.4892 14.325C94.5038 14.083 94.5112 13.874 94.5112 13.698C94.5112 13.544 94.5075 13.412 94.5002 13.302C94.5002 13.192 94.4965 13.093 94.4892 13.005H92.4872L92.1132 12.29V12.18H96.6892L97.0632 12.895V13.005H95.4022C95.4095 13.1443 95.4168 13.2983 95.4242 13.467C95.4315 13.6357 95.4352 13.753 95.4352 13.819C95.4352 14.4203 95.3912 14.897 95.3032 15.249C95.2152 15.601 95.0795 15.865 94.8962 16.041C94.7202 16.217 94.5002 16.3343 94.2362 16.393L96.5242 18.758L95.9632 19.22ZM105.108 20.331L104.987 20.804C104.107 20.584 103.399 20.3163 102.864 20.001C102.328 19.6857 101.936 19.3447 101.687 18.978C101.445 18.6113 101.324 18.241 101.324 17.867C101.324 17.493 101.43 17.1447 101.643 16.822C101.415 16.6313 101.217 16.3967 101.049 16.118C100.887 15.832 100.807 15.5423 100.807 15.249C100.807 14.8603 100.964 14.545 101.28 14.303C101.602 14.061 102.105 13.94 102.787 13.94H104.272V13.005H100.334L99.9597 12.29V12.18H106.054L106.428 12.895V13.005H105.174C105.174 13.2837 105.174 13.577 105.174 13.885C105.181 14.1857 105.185 14.4497 105.185 14.677L105.053 14.765H102.985C102.552 14.765 102.215 14.8347 101.973 14.974C101.731 15.1133 101.61 15.3333 101.61 15.634C101.61 15.7807 101.646 15.9273 101.72 16.074C101.793 16.2133 101.877 16.3307 101.973 16.426C102.207 16.2133 102.479 16.0447 102.787 15.92C103.102 15.7953 103.432 15.733 103.777 15.733C104.121 15.733 104.411 15.7917 104.646 15.909C104.888 16.019 105.078 16.162 105.218 16.338C105.364 16.514 105.471 16.6973 105.537 16.888C105.603 17.0787 105.636 17.251 105.636 17.405C105.636 18.0137 105.251 18.4793 104.481 18.802L103.964 18.065C104.206 17.9477 104.415 17.8047 104.591 17.636C104.774 17.46 104.866 17.2437 104.866 16.987C104.866 16.7743 104.792 16.6203 104.646 16.525C104.499 16.4223 104.297 16.371 104.041 16.371C103.696 16.371 103.384 16.4553 103.106 16.624C102.834 16.7853 102.618 16.998 102.457 17.262C102.303 17.5187 102.226 17.79 102.226 18.076C102.226 18.3327 102.31 18.6003 102.479 18.879C102.647 19.1503 102.941 19.4107 103.359 19.66C103.784 19.9093 104.367 20.133 105.108 20.331ZM107.31 15.59H107.904L107.915 13.005H106.518L106.144 12.29V12.18H113.118L113.492 12.895V13.005H112.205L112.227 19.11H112.117L111.237 18.538L111.248 16.415H108.839V17.207C108.839 17.3903 108.755 17.482 108.586 17.482C108.476 17.482 108.333 17.427 108.157 17.317C107.989 17.1997 107.816 17.053 107.64 16.877C107.472 16.701 107.329 16.5213 107.211 16.338C107.094 16.1473 107.035 15.9823 107.035 15.843C107.035 15.777 107.057 15.7183 107.101 15.667C107.145 15.6157 107.215 15.59 107.31 15.59ZM111.281 13.005H108.817L108.828 15.59H111.259L111.281 13.005ZM108.15 9.177L108.161 9.1C108.447 9.04867 108.692 9.01567 108.898 9.001C109.103 8.98633 109.239 8.979 109.305 8.979C109.679 8.979 110.027 9.11833 110.35 9.397C110.672 9.67567 110.999 10.068 111.329 10.574C111.659 11.0727 112.018 11.652 112.407 12.312H111.813C111.461 11.7033 111.167 11.234 110.933 10.904C110.691 10.5667 110.478 10.332 110.295 10.2C110.111 10.0607 109.917 9.991 109.712 9.991C109.594 9.991 109.433 10.002 109.228 10.024C109.015 10.046 108.824 10.0753 108.656 10.112L108.15 9.177ZM112.858 9.562L113.628 10.332L112.858 11.08L112.099 10.332L112.858 9.562ZM122.392 20.078H122.293L121.281 18.307C121.076 18.3657 120.845 18.395 120.588 18.395C120.207 18.395 119.84 18.318 119.488 18.164C119.136 18.0027 118.821 17.7863 118.542 17.515C118.263 17.2437 118.043 16.9393 117.882 16.602C117.721 16.2573 117.64 15.898 117.64 15.524C117.64 15.1427 117.735 14.8457 117.926 14.633C118.124 14.4203 118.395 14.2737 118.74 14.193C119.085 14.105 119.488 14.061 119.95 14.061H120.775V13.005H117.101L116.727 12.29V12.18H122.766L123.14 12.895V13.005H121.677C121.677 13.313 121.677 13.632 121.677 13.962C121.684 14.2847 121.688 14.5633 121.688 14.798L121.556 14.886H120.005C119.536 14.886 119.162 14.9777 118.883 15.161C118.604 15.3443 118.465 15.623 118.465 15.997C118.465 16.3417 118.538 16.6387 118.685 16.888C118.839 17.13 119.033 17.317 119.268 17.449C119.503 17.5737 119.748 17.636 120.005 17.636C120.137 17.636 120.276 17.625 120.423 17.603C120.577 17.5737 120.709 17.526 120.819 17.46C120.731 17.284 120.658 17.1227 120.599 16.976C120.548 16.8293 120.522 16.7047 120.522 16.602C120.522 16.4773 120.555 16.3893 120.621 16.338C120.694 16.2793 120.79 16.25 120.907 16.25C121.076 16.25 121.263 16.2977 121.468 16.393C121.681 16.4883 121.864 16.613 122.018 16.767C122.179 16.9137 122.26 17.075 122.26 17.251C122.26 17.3317 122.227 17.4527 122.161 17.614C122.095 17.7753 121.967 17.9257 121.776 18.065L122.964 19.715L122.392 20.078ZM117.604 9.177L117.615 9.1C117.901 9.04867 118.147 9.01567 118.352 9.001C118.558 8.98633 118.693 8.979 118.759 8.979C119.133 8.979 119.482 9.11833 119.804 9.397C120.127 9.67567 120.453 10.068 120.783 10.574C121.113 11.0727 121.473 11.652 121.861 12.312H121.267C120.915 11.7033 120.622 11.234 120.387 10.904C120.145 10.5667 119.933 10.332 119.749 10.2C119.566 10.0607 119.372 9.991 119.166 9.991C119.049 9.991 118.888 10.002 118.682 10.024C118.47 10.046 118.279 10.0753 118.11 10.112L117.604 9.177ZM127.038 19.22H126.928L124.75 16.547C124.478 16.217 124.284 15.9493 124.167 15.744C124.057 15.5313 124.002 15.3627 124.002 15.238C124.002 15.0033 124.189 14.886 124.563 14.886C124.665 14.886 124.801 14.8933 124.97 14.908C125.146 14.9227 125.3 14.9373 125.432 14.952C125.468 14.7687 125.49 14.5597 125.498 14.325C125.512 14.083 125.52 13.874 125.52 13.698C125.52 13.5513 125.516 13.4267 125.509 13.324C125.509 13.214 125.505 13.1077 125.498 13.005H123.562L123.188 12.29V12.18H132.395L132.769 12.895V13.005H131.482L131.504 19.11H131.394L130.514 18.538L130.525 16.679C130.217 16.921 129.956 17.086 129.744 17.174C129.531 17.2547 129.285 17.295 129.007 17.295C128.691 17.295 128.387 17.207 128.094 17.031C127.8 16.855 127.558 16.6203 127.368 16.327C127.184 16.0263 127.093 15.7037 127.093 15.359C127.093 15.0583 127.17 14.8017 127.324 14.589C127.478 14.369 127.683 14.2003 127.94 14.083C128.196 13.9657 128.475 13.907 128.776 13.907C129.458 13.907 130.044 14.2187 130.536 14.842L130.558 13.005H126.411C126.425 13.1663 126.433 13.3277 126.433 13.489C126.44 13.643 126.444 13.753 126.444 13.819C126.444 14.4203 126.4 14.897 126.312 15.249C126.224 15.601 126.095 15.865 125.927 16.041C125.758 16.217 125.553 16.3343 125.311 16.393L127.599 18.758L127.038 19.22ZM130.536 15.568V15.436C130.323 15.2087 130.085 15.0327 129.821 14.908C129.557 14.7833 129.296 14.721 129.04 14.721C128.724 14.721 128.453 14.8127 128.226 14.996C127.998 15.172 127.885 15.447 127.885 15.821C127.885 16.0923 127.965 16.294 128.127 16.426C128.288 16.5507 128.479 16.613 128.699 16.613C128.911 16.613 129.153 16.547 129.425 16.415C129.703 16.2757 130.074 15.9933 130.536 15.568ZM127.427 9.177L127.438 9.1C127.724 9.04867 127.97 9.01567 128.175 9.001C128.381 8.98633 128.516 8.979 128.582 8.979C128.956 8.979 129.305 9.11833 129.627 9.397C129.95 9.67567 130.276 10.068 130.606 10.574C130.936 11.0727 131.296 11.652 131.684 12.312H131.09C130.738 11.7033 130.445 11.234 130.21 10.904C129.968 10.5667 129.756 10.332 129.572 10.2C129.389 10.0607 129.195 9.991 128.989 9.991C128.872 9.991 128.711 10.002 128.505 10.024C128.293 10.046 128.102 10.0753 127.933 10.112L127.427 9.177ZM132.135 9.562L132.905 10.332L132.135 11.08L131.376 10.332L132.135 9.562Z" fill="black"/>
<path d="M45.88 40C45.7627 40 45.66 39.956 45.572 39.868C45.484 39.78 45.44 39.6773 45.44 39.56C45.44 39.4867 45.4473 39.406 45.462 39.318L50.918 25.084C50.9767 24.9373 51.0573 24.82 51.16 24.732C51.2627 24.644 51.4167 24.6 51.622 24.6H53.118C53.3087 24.6 53.4553 24.644 53.558 24.732C53.6753 24.82 53.7633 24.9373 53.822 25.084L59.256 39.318C59.2853 39.406 59.3 39.4867 59.3 39.56C59.3 39.6773 59.256 39.78 59.168 39.868C59.08 39.956 58.9773 40 58.86 40H57.738C57.562 40 57.43 39.956 57.342 39.868C57.2687 39.78 57.2173 39.6993 57.188 39.626L55.978 36.502H48.762L47.552 39.626C47.5373 39.6993 47.486 39.78 47.398 39.868C47.31 39.956 47.178 40 47.002 40H45.88ZM49.4 34.61H55.34L52.37 26.8L49.4 34.61ZM61.2343 44.18C61.0876 44.18 60.9629 44.1287 60.8603 44.026C60.7723 43.938 60.7283 43.8207 60.7283 43.674V29.066C60.7283 28.9193 60.7723 28.802 60.8603 28.714C60.9629 28.6113 61.0876 28.56 61.2343 28.56H62.2463C62.3929 28.56 62.5103 28.6113 62.5983 28.714C62.7009 28.802 62.7523 28.9193 62.7523 29.066V30.034C63.1043 29.55 63.5736 29.1467 64.1603 28.824C64.7469 28.5013 65.4803 28.34 66.3603 28.34C67.1816 28.34 67.8783 28.4793 68.4503 28.758C69.0369 29.0367 69.5136 29.418 69.8803 29.902C70.2616 30.386 70.5476 30.936 70.7383 31.552C70.9289 32.168 71.0316 32.828 71.0463 33.532C71.0609 33.7667 71.0683 34.016 71.0683 34.28C71.0683 34.544 71.0609 34.7933 71.0463 35.028C71.0316 35.7173 70.9289 36.3773 70.7383 37.008C70.5476 37.624 70.2616 38.174 69.8803 38.658C69.5136 39.1273 69.0369 39.5087 68.4503 39.802C67.8783 40.0807 67.1816 40.22 66.3603 40.22C65.5096 40.22 64.7909 40.066 64.2043 39.758C63.6323 39.4353 63.1629 39.0393 62.7963 38.57V43.674C62.7963 43.8207 62.7523 43.938 62.6643 44.026C62.5763 44.1287 62.4516 44.18 62.2903 44.18H61.2343ZM65.8983 38.438C66.6609 38.438 67.2549 38.2767 67.6803 37.954C68.1203 37.6167 68.4356 37.184 68.6263 36.656C68.8169 36.1133 68.9269 35.534 68.9563 34.918C68.9709 34.4927 68.9709 34.0673 68.9563 33.642C68.9269 33.026 68.8169 32.454 68.6263 31.926C68.4356 31.3833 68.1203 30.9507 67.6803 30.628C67.2549 30.2907 66.6609 30.122 65.8983 30.122C65.1796 30.122 64.5929 30.2907 64.1383 30.628C63.6983 30.9653 63.3683 31.398 63.1483 31.926C62.9429 32.4393 62.8256 32.9673 62.7963 33.51C62.7816 33.7447 62.7743 34.0233 62.7743 34.346C62.7743 34.6687 62.7816 34.9547 62.7963 35.204C62.8109 35.7173 62.9283 36.2233 63.1483 36.722C63.3829 37.2207 63.7276 37.6313 64.1823 37.954C64.6369 38.2767 65.2089 38.438 65.8983 38.438ZM73.6798 44.18C73.5331 44.18 73.4084 44.1287 73.3058 44.026C73.2178 43.938 73.1738 43.8207 73.1738 43.674V29.066C73.1738 28.9193 73.2178 28.802 73.3058 28.714C73.4084 28.6113 73.5331 28.56 73.6798 28.56H74.6918C74.8384 28.56 74.9558 28.6113 75.0438 28.714C75.1464 28.802 75.1978 28.9193 75.1978 29.066V30.034C75.5498 29.55 76.0191 29.1467 76.6058 28.824C77.1924 28.5013 77.9258 28.34 78.8058 28.34C79.6271 28.34 80.3238 28.4793 80.8958 28.758C81.4824 29.0367 81.9591 29.418 82.3258 29.902C82.7071 30.386 82.9931 30.936 83.1838 31.552C83.3744 32.168 83.4771 32.828 83.4918 33.532C83.5064 33.7667 83.5138 34.016 83.5138 34.28C83.5138 34.544 83.5064 34.7933 83.4918 35.028C83.4771 35.7173 83.3744 36.3773 83.1838 37.008C82.9931 37.624 82.7071 38.174 82.3258 38.658C81.9591 39.1273 81.4824 39.5087 80.8958 39.802C80.3238 40.0807 79.6271 40.22 78.8058 40.22C77.9551 40.22 77.2364 40.066 76.6498 39.758C76.0778 39.4353 75.6084 39.0393 75.2418 38.57V43.674C75.2418 43.8207 75.1978 43.938 75.1098 44.026C75.0218 44.1287 74.8971 44.18 74.7358 44.18H73.6798ZM78.3438 38.438C79.1064 38.438 79.7004 38.2767 80.1258 37.954C80.5658 37.6167 80.8811 37.184 81.0718 36.656C81.2624 36.1133 81.3724 35.534 81.4018 34.918C81.4164 34.4927 81.4164 34.0673 81.4018 33.642C81.3724 33.026 81.2624 32.454 81.0718 31.926C80.8811 31.3833 80.5658 30.9507 80.1258 30.628C79.7004 30.2907 79.1064 30.122 78.3438 30.122C77.6251 30.122 77.0384 30.2907 76.5838 30.628C76.1438 30.9653 75.8138 31.398 75.5938 31.926C75.3884 32.4393 75.2711 32.9673 75.2418 33.51C75.2271 33.7447 75.2198 34.0233 75.2198 34.346C75.2198 34.6687 75.2271 34.9547 75.2418 35.204C75.2564 35.7173 75.3738 36.2233 75.5938 36.722C75.8284 37.2207 76.1731 37.6313 76.6278 37.954C77.0824 38.2767 77.6544 38.438 78.3438 38.438ZM95.5658 40.22C94.2898 40.22 93.2191 40.0293 92.3538 39.648C91.4885 39.252 90.8211 38.746 90.3518 38.13C89.8971 37.4993 89.6551 36.832 89.6258 36.128C89.6258 36.0107 89.6698 35.908 89.7578 35.82C89.8605 35.7173 89.9778 35.666 90.1098 35.666H91.2318C91.4078 35.666 91.5398 35.71 91.6278 35.798C91.7158 35.886 91.7745 35.9887 91.8038 36.106C91.8771 36.458 92.0531 36.81 92.3318 37.162C92.6251 37.4993 93.0285 37.7853 93.5418 38.02C94.0698 38.24 94.7445 38.35 95.5658 38.35C96.8271 38.35 97.7511 38.13 98.3378 37.69C98.9391 37.2353 99.2398 36.634 99.2398 35.886C99.2398 35.3727 99.0785 34.962 98.7558 34.654C98.4478 34.3313 97.9711 34.0453 97.3258 33.796C96.6805 33.5467 95.8445 33.2753 94.8178 32.982C93.7471 32.674 92.8598 32.3367 92.1558 31.97C91.4518 31.6033 90.9238 31.1487 90.5718 30.606C90.2345 30.0633 90.0658 29.374 90.0658 28.538C90.0658 27.746 90.2785 27.042 90.7038 26.426C91.1291 25.7953 91.7378 25.2967 92.5298 24.93C93.3365 24.5633 94.3118 24.38 95.4558 24.38C96.3651 24.38 97.1571 24.5047 97.8318 24.754C98.5211 24.9887 99.0931 25.3113 99.5478 25.722C100.002 26.118 100.347 26.5507 100.582 27.02C100.816 27.4747 100.941 27.922 100.956 28.362C100.956 28.4647 100.919 28.5673 100.846 28.67C100.772 28.758 100.655 28.802 100.494 28.802H99.3278C99.2251 28.802 99.1151 28.7727 98.9978 28.714C98.8951 28.6553 98.8145 28.5453 98.7558 28.384C98.6678 27.7827 98.3305 27.2767 97.7438 26.866C97.1571 26.4553 96.3945 26.25 95.4558 26.25C94.5025 26.25 93.7251 26.4333 93.1238 26.8C92.5371 27.1667 92.2438 27.7387 92.2438 28.516C92.2438 29.0147 92.3831 29.4327 92.6618 29.77C92.9405 30.0927 93.3805 30.3787 93.9818 30.628C94.5831 30.8773 95.3678 31.1413 96.3358 31.42C97.5091 31.7427 98.4698 32.0873 99.2178 32.454C99.9658 32.806 100.516 33.2533 100.868 33.796C101.234 34.324 101.418 35.006 101.418 35.842C101.418 36.766 101.176 37.558 100.692 38.218C100.208 38.8633 99.5258 39.362 98.6458 39.714C97.7805 40.0513 96.7538 40.22 95.5658 40.22ZM107.821 40C107 40 106.333 39.846 105.819 39.538C105.306 39.2153 104.932 38.768 104.697 38.196C104.463 37.6093 104.345 36.92 104.345 36.128V30.32H102.629C102.483 30.32 102.358 30.276 102.255 30.188C102.167 30.0853 102.123 29.9607 102.123 29.814V29.066C102.123 28.9193 102.167 28.802 102.255 28.714C102.358 28.6113 102.483 28.56 102.629 28.56H104.345V24.886C104.345 24.7393 104.389 24.622 104.477 24.534C104.58 24.4313 104.705 24.38 104.851 24.38H105.885C106.032 24.38 106.149 24.4313 106.237 24.534C106.34 24.622 106.391 24.7393 106.391 24.886V28.56H109.119C109.266 28.56 109.383 28.6113 109.471 28.714C109.574 28.802 109.625 28.9193 109.625 29.066V29.814C109.625 29.9607 109.574 30.0853 109.471 30.188C109.383 30.276 109.266 30.32 109.119 30.32H106.391V35.974C106.391 36.6633 106.509 37.206 106.743 37.602C106.978 37.998 107.396 38.196 107.997 38.196H109.339C109.486 38.196 109.603 38.2473 109.691 38.35C109.794 38.438 109.845 38.5553 109.845 38.702V39.494C109.845 39.6407 109.794 39.7653 109.691 39.868C109.603 39.956 109.486 40 109.339 40H107.821ZM115.975 40.22C114.86 40.22 113.929 40.0073 113.181 39.582C112.433 39.1567 111.861 38.57 111.465 37.822C111.069 37.0593 110.849 36.194 110.805 35.226C110.79 34.9767 110.783 34.6613 110.783 34.28C110.783 33.884 110.79 33.5687 110.805 33.334C110.849 32.3513 111.069 31.486 111.465 30.738C111.876 29.99 112.455 29.4033 113.203 28.978C113.951 28.5527 114.875 28.34 115.975 28.34C117.075 28.34 117.999 28.5527 118.747 28.978C119.495 29.4033 120.067 29.99 120.463 30.738C120.874 31.486 121.101 32.3513 121.145 33.334C121.16 33.5687 121.167 33.884 121.167 34.28C121.167 34.6613 121.16 34.9767 121.145 35.226C121.101 36.194 120.881 37.0593 120.485 37.822C120.089 38.57 119.517 39.1567 118.769 39.582C118.021 40.0073 117.09 40.22 115.975 40.22ZM115.975 38.526C116.884 38.526 117.61 38.24 118.153 37.668C118.696 37.0813 118.989 36.2307 119.033 35.116C119.048 34.896 119.055 34.6173 119.055 34.28C119.055 33.9427 119.048 33.664 119.033 33.444C118.989 32.3293 118.696 31.486 118.153 30.914C117.61 30.3273 116.884 30.034 115.975 30.034C115.066 30.034 114.332 30.3273 113.775 30.914C113.232 31.486 112.946 32.3293 112.917 33.444C112.902 33.664 112.895 33.9427 112.895 34.28C112.895 34.6173 112.902 34.896 112.917 35.116C112.946 36.2307 113.232 37.0813 113.775 37.668C114.332 38.24 115.066 38.526 115.975 38.526ZM123.768 40C123.621 40 123.497 39.956 123.394 39.868C123.306 39.7653 123.262 39.6407 123.262 39.494V29.088C123.262 28.9413 123.306 28.8167 123.394 28.714C123.497 28.6113 123.621 28.56 123.768 28.56H124.78C124.927 28.56 125.051 28.6113 125.154 28.714C125.257 28.8167 125.308 28.9413 125.308 29.088V30.056C125.601 29.5573 126.005 29.1833 126.518 28.934C127.031 28.6847 127.647 28.56 128.366 28.56H129.246C129.393 28.56 129.51 28.6113 129.598 28.714C129.686 28.802 129.73 28.9193 129.73 29.066V29.968C129.73 30.1147 129.686 30.232 129.598 30.32C129.51 30.408 129.393 30.452 129.246 30.452H127.926C127.134 30.452 126.511 30.6867 126.056 31.156C125.601 31.6107 125.374 32.234 125.374 33.026V39.494C125.374 39.6407 125.323 39.7653 125.22 39.868C125.117 39.956 124.993 40 124.846 40H123.768ZM135.298 40.22C133.788 40.22 132.585 39.758 131.69 38.834C130.796 37.8953 130.304 36.6193 130.216 35.006C130.202 34.8153 130.194 34.5733 130.194 34.28C130.194 33.972 130.202 33.7227 130.216 33.532C130.275 32.4907 130.517 31.5813 130.942 30.804C131.368 30.012 131.947 29.4033 132.68 28.978C133.428 28.5527 134.301 28.34 135.298 28.34C136.413 28.34 137.344 28.5747 138.092 29.044C138.855 29.5133 139.434 30.1807 139.83 31.046C140.226 31.9113 140.424 32.9233 140.424 34.082V34.456C140.424 34.6173 140.373 34.742 140.27 34.83C140.182 34.918 140.065 34.962 139.918 34.962H132.306C132.306 34.9767 132.306 35.006 132.306 35.05C132.306 35.094 132.306 35.1307 132.306 35.16C132.336 35.7613 132.468 36.326 132.702 36.854C132.937 37.3673 133.274 37.7853 133.714 38.108C134.154 38.4307 134.682 38.592 135.298 38.592C135.826 38.592 136.266 38.5113 136.618 38.35C136.97 38.1887 137.256 38.0127 137.476 37.822C137.696 37.6167 137.843 37.4627 137.916 37.36C138.048 37.1693 138.151 37.0593 138.224 37.03C138.298 36.986 138.415 36.964 138.576 36.964H139.632C139.779 36.964 139.896 37.008 139.984 37.096C140.087 37.1693 140.131 37.2793 140.116 37.426C140.102 37.646 139.984 37.9173 139.764 38.24C139.544 38.548 139.229 38.856 138.818 39.164C138.408 39.472 137.909 39.7287 137.322 39.934C136.736 40.1247 136.061 40.22 135.298 40.22ZM132.306 33.444H138.334V33.378C138.334 32.718 138.21 32.1313 137.96 31.618C137.726 31.1047 137.381 30.7013 136.926 30.408C136.472 30.1 135.929 29.946 135.298 29.946C134.668 29.946 134.125 30.1 133.67 30.408C133.23 30.7013 132.893 31.1047 132.658 31.618C132.424 32.1313 132.306 32.718 132.306 33.378V33.444Z" fill="#212529"/>
</svg>
