<svg width="181" height="52" viewBox="0 0 181 52" fill="none" xmlns="http://www.w3.org/2000/svg">
<rect x="0.5" y="0.5" width="180" height="51" rx="9.5" fill="white"/>
<rect x="0.5" y="0.5" width="180" height="51" rx="9.5" stroke="#212529"/>
<path d="M32.0454 25.4221C32.0747 23.1834 33.2977 21.0652 35.2378 19.8926C34.0139 18.1742 31.9639 17.0847 29.8311 17.0191C27.5563 16.7844 25.3509 18.3573 24.1917 18.3573C23.0101 18.3573 21.2253 17.0424 19.3034 17.0813C16.7983 17.1609 14.4629 18.561 13.2441 20.7141C10.6242 25.1734 12.5784 31.727 15.0881 35.3315C16.3437 37.0965 17.8112 39.0681 19.7314 38.9982C21.6104 38.9216 22.3122 37.8203 24.5803 37.8203C26.8273 37.8203 27.4857 38.9982 29.4449 38.9537C31.4611 38.9216 32.7315 37.1809 33.9431 35.3991C34.8452 34.1415 35.5394 32.7515 36 31.2807C33.6305 30.2955 32.0482 27.9513 32.0454 25.4221Z" fill="#212529"/>
<path d="M28.3449 14.6486C29.4443 13.3512 29.9859 11.6836 29.8547 10C28.1752 10.1734 26.6237 10.9626 25.5095 12.2102C24.42 13.4292 23.853 15.0674 23.9602 16.6867C25.6403 16.7037 27.2921 15.936 28.3449 14.6486Z" fill="#212529"/>
<path d="M50.005 12.575C51.204 12.784 53.437 12.74 54.526 12.575V13.466C53.349 13.598 51.215 13.598 50.016 13.466L50.005 12.575ZM50.434 17.063C50.335 17.459 50.28 17.767 50.28 18.064C50.28 18.57 50.632 19.065 52.139 19.065C53.118 19.065 53.976 18.977 54.856 18.768L54.878 19.692C54.196 19.835 53.272 19.923 52.128 19.923C50.291 19.923 49.466 19.307 49.466 18.273C49.466 17.91 49.521 17.514 49.642 16.986L50.434 17.063ZM47.915 11.728C47.849 11.915 47.761 12.267 47.717 12.465C47.508 13.488 47.167 15.446 47.167 16.689C47.167 17.217 47.2 17.679 47.266 18.218C47.453 17.723 47.706 17.063 47.893 16.612L48.355 16.975C48.08 17.756 47.673 18.911 47.574 19.439C47.541 19.593 47.519 19.802 47.519 19.934C47.53 20.044 47.541 20.198 47.552 20.319L46.771 20.374C46.551 19.593 46.364 18.328 46.364 16.832C46.364 15.215 46.727 13.334 46.859 12.421C46.892 12.168 46.925 11.893 46.936 11.651L47.915 11.728ZM66.571 12.575C66.483 12.674 66.351 12.839 66.274 12.96C65.834 13.708 64.789 15.127 63.535 15.996L62.798 15.413C63.821 14.83 64.855 13.642 65.207 12.96C64.437 12.96 59.465 12.96 58.937 12.96C58.53 12.96 58.123 12.982 57.694 13.015V12.025C58.079 12.08 58.53 12.124 58.937 12.124C59.465 12.124 64.602 12.124 65.262 12.124C65.471 12.124 65.867 12.091 66.021 12.047L66.571 12.575ZM62.171 14.016C62.171 16.997 61.907 19.01 59.102 20.418L58.299 19.758C58.596 19.659 58.981 19.472 59.289 19.263C60.983 18.218 61.225 16.656 61.225 14.819C61.225 14.555 61.225 14.313 61.181 14.016H62.171ZM76.6931 13.125C76.6051 13.279 76.4951 13.532 76.4401 13.708C76.1431 14.819 75.4721 16.304 74.4931 17.503C73.4921 18.724 72.1721 19.725 70.1151 20.495L69.3121 19.769C71.3361 19.175 72.7001 18.185 73.7121 17.008C74.5591 16.007 75.2411 14.577 75.4611 13.576H71.3911L71.7431 12.784C72.1831 12.784 74.9001 12.784 75.2411 12.784C75.5381 12.784 75.7911 12.751 75.9671 12.685L76.6931 13.125ZM73.0081 11.464C72.8321 11.75 72.6341 12.124 72.5241 12.322C71.8751 13.543 70.7311 15.116 68.9601 16.282L68.1901 15.721C70.0931 14.588 71.1711 12.982 71.6551 12.003C71.7651 11.805 71.9301 11.409 71.9961 11.123L73.0081 11.464ZM81.7972 18.592C81.7972 17.58 81.7972 13.686 81.7972 12.52C81.7972 12.19 81.7862 11.827 81.7312 11.508H82.7652C82.7212 11.827 82.6882 12.201 82.6882 12.52C82.6882 13.675 82.6882 17.272 82.6882 18.361C82.6882 19.12 82.9742 19.362 84.2832 19.362C85.5592 19.362 86.6262 19.252 87.7152 19.032L87.6822 19.978C86.7032 20.121 85.6032 20.209 84.2282 20.209C82.1822 20.209 81.7972 19.67 81.7972 18.592ZM88.1882 13.675C88.1002 13.796 87.9902 13.983 87.9132 14.115C87.4072 15.028 86.5492 16.414 85.6582 17.316L84.8992 16.865C85.7242 16.106 86.5272 14.896 86.8572 14.247C86.5162 14.313 80.5872 15.501 79.2672 15.787L79.0912 14.863C80.4992 14.698 86.1202 13.565 86.9562 13.367C87.1872 13.312 87.4072 13.246 87.5392 13.169L88.1882 13.675ZM98.5611 12.652C98.4951 12.74 98.3521 12.982 98.2971 13.125C97.8571 14.214 97.0211 15.754 96.1081 16.766C94.8761 18.141 93.3031 19.45 91.5651 20.242L90.8611 19.505C92.6431 18.823 94.2601 17.503 95.3931 16.249C96.1411 15.402 96.9441 14.093 97.2301 13.18C96.8341 13.18 93.3141 13.18 92.9401 13.18C92.5441 13.18 91.9501 13.224 91.8291 13.235V12.245C91.9721 12.267 92.5991 12.311 92.9401 12.311C93.3691 12.311 96.7681 12.311 97.1861 12.311C97.5381 12.311 97.8351 12.278 98.0111 12.223L98.5611 12.652ZM96.2511 16.194C97.4391 17.184 98.9021 18.724 99.6501 19.637L98.8911 20.308C98.0991 19.263 96.8121 17.855 95.6241 16.81L96.2511 16.194ZM104.842 11.431C104.787 11.794 104.754 12.179 104.732 12.542C104.688 13.785 104.6 16.392 104.6 18.031C104.6 19.241 105.359 19.659 106.404 19.659C108.417 19.659 109.561 18.537 110.353 17.393L110.969 18.141C110.221 19.186 108.791 20.561 106.382 20.561C104.798 20.561 103.709 19.912 103.709 18.108C103.709 16.48 103.819 13.697 103.819 12.542C103.819 12.135 103.786 11.75 103.72 11.431H104.842ZM113.023 12.696C113.441 12.685 113.793 12.663 114.013 12.641C114.728 12.564 116.796 12.366 118.831 12.19C120.03 12.091 121.053 12.025 121.79 12.003L121.801 12.883C121.163 12.872 120.206 12.894 119.645 13.048C118.072 13.554 117.115 15.237 117.115 16.535C117.115 18.68 119.128 19.362 120.91 19.439L120.602 20.341C118.556 20.264 116.246 19.186 116.246 16.722C116.246 15.006 117.291 13.609 118.303 13.015C117.115 13.136 114.321 13.411 113.122 13.664L113.023 12.696ZM130.84 11.893C130.598 12.069 130.257 12.366 130.081 12.52C129.322 13.18 127.738 14.423 126.924 15.105C126.264 15.677 126.253 15.842 126.968 16.436C127.969 17.261 129.916 18.823 131.082 20L130.301 20.715C130.07 20.451 129.806 20.187 129.542 19.912C128.761 19.12 127.1 17.69 126.066 16.843C125.032 15.974 125.153 15.501 126.143 14.665C126.979 13.972 128.651 12.652 129.388 11.904C129.608 11.684 129.894 11.365 130.015 11.167L130.84 11.893ZM138.958 11.508C138.892 11.75 138.804 12.168 138.76 12.377C138.606 13.169 138.375 14.423 138.067 15.512C137.671 17.074 136.934 19.351 136.351 20.55L135.383 20.231C136.054 19.098 136.824 16.854 137.231 15.303C137.506 14.291 137.792 12.916 137.869 12.333C137.913 12.025 137.935 11.651 137.913 11.42L138.958 11.508ZM136.527 13.345C137.737 13.345 139.354 13.158 140.718 12.806V13.675C139.354 13.983 137.693 14.159 136.505 14.159C136.021 14.159 135.636 14.148 135.229 14.115L135.207 13.268C135.724 13.334 136.12 13.345 136.527 13.345ZM140.003 14.863C140.575 14.808 141.301 14.764 142.016 14.764C142.654 14.764 143.325 14.786 143.919 14.852L143.897 15.688C143.325 15.622 142.687 15.567 142.038 15.567C141.345 15.567 140.674 15.6 140.003 15.677V14.863ZM140.223 17.536C140.135 17.888 140.069 18.24 140.069 18.526C140.069 19.043 140.366 19.549 141.928 19.549C142.643 19.549 143.402 19.461 144.084 19.329L144.051 20.22C143.457 20.297 142.72 20.374 141.917 20.374C140.19 20.374 139.244 19.835 139.244 18.746C139.244 18.328 139.31 17.921 139.409 17.448L140.223 17.536ZM142.72 11.849C143.006 12.234 143.402 12.916 143.633 13.356L143.039 13.62C142.819 13.18 142.434 12.509 142.137 12.091L142.72 11.849ZM143.941 11.398C144.238 11.805 144.656 12.487 144.865 12.905L144.271 13.169C144.04 12.685 143.666 12.069 143.358 11.651L143.941 11.398ZM151.509 12.212C151.443 11.97 151.344 11.64 151.234 11.343L152.18 11.233C152.279 11.871 152.565 12.817 152.818 13.532C153.159 14.478 153.72 15.501 154.193 16.139C154.336 16.359 154.501 16.546 154.666 16.722L154.226 17.349C153.698 17.217 152.356 17.096 151.564 17.041L151.63 16.315C152.246 16.37 153.06 16.436 153.456 16.48C152.994 15.776 152.389 14.687 152.026 13.686C151.784 13.059 151.63 12.553 151.509 12.212ZM147.483 13.07C149.32 13.279 151.058 13.29 152.312 13.158C153.181 13.059 154.27 12.861 155.128 12.564L155.227 13.433C154.446 13.653 153.401 13.829 152.598 13.928C151.201 14.093 149.452 14.104 147.505 13.939L147.483 13.07ZM149.188 16.568C148.858 17.107 148.66 17.58 148.66 18.097C148.66 19.153 149.617 19.604 151.256 19.626C152.367 19.626 153.324 19.516 154.083 19.351L154.05 20.231C153.357 20.352 152.433 20.473 151.201 20.462C149.111 20.451 147.791 19.703 147.791 18.207C147.791 17.591 148.011 17.019 148.33 16.37L149.188 16.568ZM159.539 12.333C159.484 12.586 159.451 13.114 159.44 13.4C159.429 14.082 159.44 15.094 159.517 15.996C159.704 17.833 160.232 19.054 161.024 19.054C161.585 19.054 162.102 17.921 162.388 16.821L163.081 17.602C162.41 19.461 161.75 20.099 161.002 20.099C159.957 20.099 158.967 19.065 158.659 16.216C158.56 15.27 158.538 13.928 158.538 13.29C158.538 13.037 158.538 12.564 158.472 12.311L159.539 12.333ZM165.259 12.63C166.249 13.906 167.041 16.249 167.206 18.108L166.315 18.46C166.128 16.48 165.457 14.214 164.412 12.927L165.259 12.63Z" fill="#212529"/>
<path d="M45.88 40C45.7627 40 45.66 39.956 45.572 39.868C45.484 39.78 45.44 39.6773 45.44 39.56C45.44 39.4867 45.4473 39.406 45.462 39.318L50.918 25.084C50.9767 24.9373 51.0573 24.82 51.16 24.732C51.2627 24.644 51.4167 24.6 51.622 24.6H53.118C53.3087 24.6 53.4553 24.644 53.558 24.732C53.6753 24.82 53.7633 24.9373 53.822 25.084L59.256 39.318C59.2853 39.406 59.3 39.4867 59.3 39.56C59.3 39.6773 59.256 39.78 59.168 39.868C59.08 39.956 58.9773 40 58.86 40H57.738C57.562 40 57.43 39.956 57.342 39.868C57.2687 39.78 57.2173 39.6993 57.188 39.626L55.978 36.502H48.762L47.552 39.626C47.5373 39.6993 47.486 39.78 47.398 39.868C47.31 39.956 47.178 40 47.002 40H45.88ZM49.4 34.61H55.34L52.37 26.8L49.4 34.61ZM61.2343 44.18C61.0876 44.18 60.9629 44.1287 60.8603 44.026C60.7723 43.938 60.7283 43.8207 60.7283 43.674V29.066C60.7283 28.9193 60.7723 28.802 60.8603 28.714C60.9629 28.6113 61.0876 28.56 61.2343 28.56H62.2463C62.3929 28.56 62.5103 28.6113 62.5983 28.714C62.7009 28.802 62.7523 28.9193 62.7523 29.066V30.034C63.1043 29.55 63.5736 29.1467 64.1603 28.824C64.7469 28.5013 65.4803 28.34 66.3603 28.34C67.1816 28.34 67.8783 28.4793 68.4503 28.758C69.0369 29.0367 69.5136 29.418 69.8803 29.902C70.2616 30.386 70.5476 30.936 70.7383 31.552C70.9289 32.168 71.0316 32.828 71.0463 33.532C71.0609 33.7667 71.0683 34.016 71.0683 34.28C71.0683 34.544 71.0609 34.7933 71.0463 35.028C71.0316 35.7173 70.9289 36.3773 70.7383 37.008C70.5476 37.624 70.2616 38.174 69.8803 38.658C69.5136 39.1273 69.0369 39.5087 68.4503 39.802C67.8783 40.0807 67.1816 40.22 66.3603 40.22C65.5096 40.22 64.7909 40.066 64.2043 39.758C63.6323 39.4353 63.1629 39.0393 62.7963 38.57V43.674C62.7963 43.8207 62.7523 43.938 62.6643 44.026C62.5763 44.1287 62.4516 44.18 62.2903 44.18H61.2343ZM65.8983 38.438C66.6609 38.438 67.2549 38.2767 67.6803 37.954C68.1203 37.6167 68.4356 37.184 68.6263 36.656C68.8169 36.1133 68.9269 35.534 68.9563 34.918C68.9709 34.4927 68.9709 34.0673 68.9563 33.642C68.9269 33.026 68.8169 32.454 68.6263 31.926C68.4356 31.3833 68.1203 30.9507 67.6803 30.628C67.2549 30.2907 66.6609 30.122 65.8983 30.122C65.1796 30.122 64.5929 30.2907 64.1383 30.628C63.6983 30.9653 63.3683 31.398 63.1483 31.926C62.9429 32.4393 62.8256 32.9673 62.7963 33.51C62.7816 33.7447 62.7743 34.0233 62.7743 34.346C62.7743 34.6687 62.7816 34.9547 62.7963 35.204C62.8109 35.7173 62.9283 36.2233 63.1483 36.722C63.3829 37.2207 63.7276 37.6313 64.1823 37.954C64.6369 38.2767 65.2089 38.438 65.8983 38.438ZM73.6798 44.18C73.5331 44.18 73.4084 44.1287 73.3058 44.026C73.2178 43.938 73.1738 43.8207 73.1738 43.674V29.066C73.1738 28.9193 73.2178 28.802 73.3058 28.714C73.4084 28.6113 73.5331 28.56 73.6798 28.56H74.6918C74.8384 28.56 74.9558 28.6113 75.0438 28.714C75.1464 28.802 75.1978 28.9193 75.1978 29.066V30.034C75.5498 29.55 76.0191 29.1467 76.6058 28.824C77.1924 28.5013 77.9258 28.34 78.8058 28.34C79.6271 28.34 80.3238 28.4793 80.8958 28.758C81.4824 29.0367 81.9591 29.418 82.3258 29.902C82.7071 30.386 82.9931 30.936 83.1838 31.552C83.3744 32.168 83.4771 32.828 83.4918 33.532C83.5064 33.7667 83.5138 34.016 83.5138 34.28C83.5138 34.544 83.5064 34.7933 83.4918 35.028C83.4771 35.7173 83.3744 36.3773 83.1838 37.008C82.9931 37.624 82.7071 38.174 82.3258 38.658C81.9591 39.1273 81.4824 39.5087 80.8958 39.802C80.3238 40.0807 79.6271 40.22 78.8058 40.22C77.9551 40.22 77.2364 40.066 76.6498 39.758C76.0778 39.4353 75.6084 39.0393 75.2418 38.57V43.674C75.2418 43.8207 75.1978 43.938 75.1098 44.026C75.0218 44.1287 74.8971 44.18 74.7358 44.18H73.6798ZM78.3438 38.438C79.1064 38.438 79.7004 38.2767 80.1258 37.954C80.5658 37.6167 80.8811 37.184 81.0718 36.656C81.2624 36.1133 81.3724 35.534 81.4018 34.918C81.4164 34.4927 81.4164 34.0673 81.4018 33.642C81.3724 33.026 81.2624 32.454 81.0718 31.926C80.8811 31.3833 80.5658 30.9507 80.1258 30.628C79.7004 30.2907 79.1064 30.122 78.3438 30.122C77.6251 30.122 77.0384 30.2907 76.5838 30.628C76.1438 30.9653 75.8138 31.398 75.5938 31.926C75.3884 32.4393 75.2711 32.9673 75.2418 33.51C75.2271 33.7447 75.2198 34.0233 75.2198 34.346C75.2198 34.6687 75.2271 34.9547 75.2418 35.204C75.2564 35.7173 75.3738 36.2233 75.5938 36.722C75.8284 37.2207 76.1731 37.6313 76.6278 37.954C77.0824 38.2767 77.6544 38.438 78.3438 38.438ZM95.5658 40.22C94.2898 40.22 93.2191 40.0293 92.3538 39.648C91.4885 39.252 90.8211 38.746 90.3518 38.13C89.8971 37.4993 89.6551 36.832 89.6258 36.128C89.6258 36.0107 89.6698 35.908 89.7578 35.82C89.8605 35.7173 89.9778 35.666 90.1098 35.666H91.2318C91.4078 35.666 91.5398 35.71 91.6278 35.798C91.7158 35.886 91.7745 35.9887 91.8038 36.106C91.8771 36.458 92.0531 36.81 92.3318 37.162C92.6251 37.4993 93.0285 37.7853 93.5418 38.02C94.0698 38.24 94.7445 38.35 95.5658 38.35C96.8271 38.35 97.7511 38.13 98.3378 37.69C98.9391 37.2353 99.2398 36.634 99.2398 35.886C99.2398 35.3727 99.0785 34.962 98.7558 34.654C98.4478 34.3313 97.9711 34.0453 97.3258 33.796C96.6805 33.5467 95.8445 33.2753 94.8178 32.982C93.7471 32.674 92.8598 32.3367 92.1558 31.97C91.4518 31.6033 90.9238 31.1487 90.5718 30.606C90.2345 30.0633 90.0658 29.374 90.0658 28.538C90.0658 27.746 90.2785 27.042 90.7038 26.426C91.1291 25.7953 91.7378 25.2967 92.5298 24.93C93.3365 24.5633 94.3118 24.38 95.4558 24.38C96.3651 24.38 97.1571 24.5047 97.8318 24.754C98.5211 24.9887 99.0931 25.3113 99.5478 25.722C100.002 26.118 100.347 26.5507 100.582 27.02C100.816 27.4747 100.941 27.922 100.956 28.362C100.956 28.4647 100.919 28.5673 100.846 28.67C100.772 28.758 100.655 28.802 100.494 28.802H99.3278C99.2251 28.802 99.1151 28.7727 98.9978 28.714C98.8951 28.6553 98.8145 28.5453 98.7558 28.384C98.6678 27.7827 98.3305 27.2767 97.7438 26.866C97.1571 26.4553 96.3945 26.25 95.4558 26.25C94.5025 26.25 93.7251 26.4333 93.1238 26.8C92.5371 27.1667 92.2438 27.7387 92.2438 28.516C92.2438 29.0147 92.3831 29.4327 92.6618 29.77C92.9405 30.0927 93.3805 30.3787 93.9818 30.628C94.5831 30.8773 95.3678 31.1413 96.3358 31.42C97.5091 31.7427 98.4698 32.0873 99.2178 32.454C99.9658 32.806 100.516 33.2533 100.868 33.796C101.234 34.324 101.418 35.006 101.418 35.842C101.418 36.766 101.176 37.558 100.692 38.218C100.208 38.8633 99.5258 39.362 98.6458 39.714C97.7805 40.0513 96.7538 40.22 95.5658 40.22ZM107.821 40C107 40 106.333 39.846 105.819 39.538C105.306 39.2153 104.932 38.768 104.697 38.196C104.463 37.6093 104.345 36.92 104.345 36.128V30.32H102.629C102.483 30.32 102.358 30.276 102.255 30.188C102.167 30.0853 102.123 29.9607 102.123 29.814V29.066C102.123 28.9193 102.167 28.802 102.255 28.714C102.358 28.6113 102.483 28.56 102.629 28.56H104.345V24.886C104.345 24.7393 104.389 24.622 104.477 24.534C104.58 24.4313 104.705 24.38 104.851 24.38H105.885C106.032 24.38 106.149 24.4313 106.237 24.534C106.34 24.622 106.391 24.7393 106.391 24.886V28.56H109.119C109.266 28.56 109.383 28.6113 109.471 28.714C109.574 28.802 109.625 28.9193 109.625 29.066V29.814C109.625 29.9607 109.574 30.0853 109.471 30.188C109.383 30.276 109.266 30.32 109.119 30.32H106.391V35.974C106.391 36.6633 106.509 37.206 106.743 37.602C106.978 37.998 107.396 38.196 107.997 38.196H109.339C109.486 38.196 109.603 38.2473 109.691 38.35C109.794 38.438 109.845 38.5553 109.845 38.702V39.494C109.845 39.6407 109.794 39.7653 109.691 39.868C109.603 39.956 109.486 40 109.339 40H107.821ZM115.975 40.22C114.86 40.22 113.929 40.0073 113.181 39.582C112.433 39.1567 111.861 38.57 111.465 37.822C111.069 37.0593 110.849 36.194 110.805 35.226C110.79 34.9767 110.783 34.6613 110.783 34.28C110.783 33.884 110.79 33.5687 110.805 33.334C110.849 32.3513 111.069 31.486 111.465 30.738C111.876 29.99 112.455 29.4033 113.203 28.978C113.951 28.5527 114.875 28.34 115.975 28.34C117.075 28.34 117.999 28.5527 118.747 28.978C119.495 29.4033 120.067 29.99 120.463 30.738C120.874 31.486 121.101 32.3513 121.145 33.334C121.16 33.5687 121.167 33.884 121.167 34.28C121.167 34.6613 121.16 34.9767 121.145 35.226C121.101 36.194 120.881 37.0593 120.485 37.822C120.089 38.57 119.517 39.1567 118.769 39.582C118.021 40.0073 117.09 40.22 115.975 40.22ZM115.975 38.526C116.884 38.526 117.61 38.24 118.153 37.668C118.696 37.0813 118.989 36.2307 119.033 35.116C119.048 34.896 119.055 34.6173 119.055 34.28C119.055 33.9427 119.048 33.664 119.033 33.444C118.989 32.3293 118.696 31.486 118.153 30.914C117.61 30.3273 116.884 30.034 115.975 30.034C115.066 30.034 114.332 30.3273 113.775 30.914C113.232 31.486 112.946 32.3293 112.917 33.444C112.902 33.664 112.895 33.9427 112.895 34.28C112.895 34.6173 112.902 34.896 112.917 35.116C112.946 36.2307 113.232 37.0813 113.775 37.668C114.332 38.24 115.066 38.526 115.975 38.526ZM123.768 40C123.621 40 123.497 39.956 123.394 39.868C123.306 39.7653 123.262 39.6407 123.262 39.494V29.088C123.262 28.9413 123.306 28.8167 123.394 28.714C123.497 28.6113 123.621 28.56 123.768 28.56H124.78C124.927 28.56 125.051 28.6113 125.154 28.714C125.257 28.8167 125.308 28.9413 125.308 29.088V30.056C125.601 29.5573 126.005 29.1833 126.518 28.934C127.031 28.6847 127.647 28.56 128.366 28.56H129.246C129.393 28.56 129.51 28.6113 129.598 28.714C129.686 28.802 129.73 28.9193 129.73 29.066V29.968C129.73 30.1147 129.686 30.232 129.598 30.32C129.51 30.408 129.393 30.452 129.246 30.452H127.926C127.134 30.452 126.511 30.6867 126.056 31.156C125.601 31.6107 125.374 32.234 125.374 33.026V39.494C125.374 39.6407 125.323 39.7653 125.22 39.868C125.117 39.956 124.993 40 124.846 40H123.768ZM135.298 40.22C133.788 40.22 132.585 39.758 131.69 38.834C130.796 37.8953 130.304 36.6193 130.216 35.006C130.202 34.8153 130.194 34.5733 130.194 34.28C130.194 33.972 130.202 33.7227 130.216 33.532C130.275 32.4907 130.517 31.5813 130.942 30.804C131.368 30.012 131.947 29.4033 132.68 28.978C133.428 28.5527 134.301 28.34 135.298 28.34C136.413 28.34 137.344 28.5747 138.092 29.044C138.855 29.5133 139.434 30.1807 139.83 31.046C140.226 31.9113 140.424 32.9233 140.424 34.082V34.456C140.424 34.6173 140.373 34.742 140.27 34.83C140.182 34.918 140.065 34.962 139.918 34.962H132.306C132.306 34.9767 132.306 35.006 132.306 35.05C132.306 35.094 132.306 35.1307 132.306 35.16C132.336 35.7613 132.468 36.326 132.702 36.854C132.937 37.3673 133.274 37.7853 133.714 38.108C134.154 38.4307 134.682 38.592 135.298 38.592C135.826 38.592 136.266 38.5113 136.618 38.35C136.97 38.1887 137.256 38.0127 137.476 37.822C137.696 37.6167 137.843 37.4627 137.916 37.36C138.048 37.1693 138.151 37.0593 138.224 37.03C138.298 36.986 138.415 36.964 138.576 36.964H139.632C139.779 36.964 139.896 37.008 139.984 37.096C140.087 37.1693 140.131 37.2793 140.116 37.426C140.102 37.646 139.984 37.9173 139.764 38.24C139.544 38.548 139.229 38.856 138.818 39.164C138.408 39.472 137.909 39.7287 137.322 39.934C136.736 40.1247 136.061 40.22 135.298 40.22ZM132.306 33.444H138.334V33.378C138.334 32.718 138.21 32.1313 137.96 31.618C137.726 31.1047 137.381 30.7013 136.926 30.408C136.472 30.1 135.929 29.946 135.298 29.946C134.668 29.946 134.125 30.1 133.67 30.408C133.23 30.7013 132.893 31.1047 132.658 31.618C132.424 32.1313 132.306 32.718 132.306 33.378V33.444Z" fill="#212529"/>
</svg>
