<svg width="154" height="52" viewBox="0 0 154 52" fill="none" xmlns="http://www.w3.org/2000/svg">
<rect x="0.5" y="0.5" width="153" height="51" rx="9.5" fill="white"/>
<rect x="0.5" y="0.5" width="153" height="51" rx="9.5" stroke="#212529"/>
<path d="M32.0454 25.4221C32.0747 23.1834 33.2977 21.0652 35.2378 19.8926C34.0139 18.1742 31.9639 17.0847 29.8311 17.0191C27.5563 16.7844 25.3509 18.3573 24.1917 18.3573C23.0101 18.3573 21.2253 17.0424 19.3034 17.0813C16.7983 17.1609 14.4629 18.561 13.2441 20.7141C10.6242 25.1734 12.5784 31.727 15.0881 35.3315C16.3437 37.0965 17.8112 39.0681 19.7314 38.9982C21.6104 38.9216 22.3122 37.8203 24.5803 37.8203C26.8273 37.8203 27.4857 38.9982 29.4449 38.9537C31.4611 38.9216 32.7315 37.1809 33.9431 35.3991C34.8452 34.1415 35.5394 32.7515 36 31.2807C33.6305 30.2955 32.0482 27.9513 32.0454 25.4221Z" fill="#212529"/>
<path d="M28.3449 14.6486C29.4443 13.3512 29.9859 11.6836 29.8547 10C28.1752 10.1734 26.6237 10.9626 25.5095 12.2102C24.42 13.4292 23.853 15.0674 23.9602 16.6867C25.6403 16.7037 27.2921 15.936 28.3449 14.6486Z" fill="#212529"/>
<path d="M46.21 20C46.1293 20 46.067 19.978 46.023 19.934C45.979 19.8827 45.957 19.8203 45.957 19.747V12.564C45.957 12.4833 45.979 12.421 46.023 12.377C46.067 12.3257 46.1293 12.3 46.21 12.3H51.633C51.7137 12.3 51.776 12.3257 51.82 12.377C51.8713 12.421 51.897 12.4833 51.897 12.564V19.747C51.897 19.8203 51.8713 19.8827 51.82 19.934C51.776 19.978 51.7137 20 51.633 20H51.072C50.9987 20 50.9363 19.978 50.885 19.934C50.841 19.8827 50.819 19.8203 50.819 19.747V13.29H47.035V19.747C47.035 19.8203 47.0093 19.8827 46.958 19.934C46.914 19.978 46.8517 20 46.771 20H46.21ZM56.3288 20.11C55.7715 20.11 55.3058 20.0037 54.9318 19.791C54.5578 19.5783 54.2718 19.285 54.0738 18.911C53.8758 18.5297 53.7658 18.097 53.7438 17.613C53.7365 17.4883 53.7328 17.3307 53.7328 17.14C53.7328 16.942 53.7365 16.7843 53.7438 16.667C53.7658 16.1757 53.8758 15.743 54.0738 15.369C54.2791 14.995 54.5688 14.7017 54.9428 14.489C55.3168 14.2763 55.7788 14.17 56.3288 14.17C56.8788 14.17 57.3408 14.2763 57.7148 14.489C58.0888 14.7017 58.3748 14.995 58.5728 15.369C58.7781 15.743 58.8918 16.1757 58.9138 16.667C58.9211 16.7843 58.9248 16.942 58.9248 17.14C58.9248 17.3307 58.9211 17.4883 58.9138 17.613C58.8918 18.097 58.7818 18.5297 58.5838 18.911C58.3858 19.285 58.0998 19.5783 57.7258 19.791C57.3518 20.0037 56.8861 20.11 56.3288 20.11ZM56.3288 19.263C56.7835 19.263 57.1465 19.12 57.4178 18.834C57.6891 18.5407 57.8358 18.1153 57.8578 17.558C57.8651 17.448 57.8688 17.3087 57.8688 17.14C57.8688 16.9713 57.8651 16.832 57.8578 16.722C57.8358 16.1647 57.6891 15.743 57.4178 15.457C57.1465 15.1637 56.7835 15.017 56.3288 15.017C55.8741 15.017 55.5075 15.1637 55.2288 15.457C54.9575 15.743 54.8145 16.1647 54.7998 16.722C54.7925 16.832 54.7888 16.9713 54.7888 17.14C54.7888 17.3087 54.7925 17.448 54.7998 17.558C54.8145 18.1153 54.9575 18.5407 55.2288 18.834C55.5075 19.12 55.8741 19.263 56.3288 19.263ZM62.9422 20.11C62.4215 20.11 61.9705 20.011 61.5892 19.813C61.2152 19.6077 60.9255 19.318 60.7202 18.944C60.5149 18.5627 60.4049 18.108 60.3902 17.58C60.3829 17.47 60.3792 17.3233 60.3792 17.14C60.3792 16.9567 60.3829 16.81 60.3902 16.7C60.4049 16.172 60.5149 15.721 60.7202 15.347C60.9255 14.9657 61.2152 14.676 61.5892 14.478C61.9705 14.2727 62.4215 14.17 62.9422 14.17C63.3675 14.17 63.7305 14.2287 64.0312 14.346C64.3392 14.4633 64.5922 14.6137 64.7902 14.797C64.9882 14.9803 65.1349 15.1783 65.2302 15.391C65.3329 15.6037 65.3879 15.8053 65.3952 15.996C65.4025 16.0693 65.3805 16.128 65.3292 16.172C65.2779 16.216 65.2155 16.238 65.1422 16.238H64.6142C64.5409 16.238 64.4859 16.2233 64.4492 16.194C64.4125 16.1573 64.3759 16.0987 64.3392 16.018C64.2072 15.6587 64.0275 15.4057 63.8002 15.259C63.5729 15.1123 63.2905 15.039 62.9532 15.039C62.5132 15.039 62.1539 15.1747 61.8752 15.446C61.6039 15.7173 61.4572 16.1537 61.4352 16.755C61.4279 17.019 61.4279 17.2757 61.4352 17.525C61.4572 18.1337 61.6039 18.5737 61.8752 18.845C62.1539 19.109 62.5132 19.241 62.9532 19.241C63.2905 19.241 63.5729 19.1677 63.8002 19.021C64.0275 18.8743 64.2072 18.6213 64.3392 18.262C64.3759 18.1813 64.4125 18.1263 64.4492 18.097C64.4859 18.0603 64.5409 18.042 64.6142 18.042H65.1422C65.2155 18.042 65.2779 18.064 65.3292 18.108C65.3805 18.152 65.4025 18.2107 65.3952 18.284C65.3879 18.438 65.3549 18.5957 65.2962 18.757C65.2375 18.9183 65.1422 19.0833 65.0102 19.252C64.8855 19.4133 64.7279 19.56 64.5372 19.692C64.3465 19.8167 64.1155 19.9193 63.8442 20C63.5802 20.0733 63.2795 20.11 62.9422 20.11ZM69.3085 20.11C68.5532 20.11 67.9519 19.879 67.5045 19.417C67.0572 18.9477 66.8115 18.3097 66.7675 17.503C66.7602 17.4077 66.7565 17.2867 66.7565 17.14C66.7565 16.986 66.7602 16.8613 66.7675 16.766C66.7969 16.2453 66.9179 15.7907 67.1305 15.402C67.3432 15.006 67.6329 14.7017 67.9995 14.489C68.3735 14.2763 68.8099 14.17 69.3085 14.17C69.8659 14.17 70.3315 14.2873 70.7055 14.522C71.0869 14.7567 71.3765 15.0903 71.5745 15.523C71.7725 15.9557 71.8715 16.4617 71.8715 17.041V17.228C71.8715 17.3087 71.8459 17.371 71.7945 17.415C71.7505 17.459 71.6919 17.481 71.6185 17.481H67.8125C67.8125 17.4883 67.8125 17.503 67.8125 17.525C67.8125 17.547 67.8125 17.5653 67.8125 17.58C67.8272 17.8807 67.8932 18.163 68.0105 18.427C68.1279 18.6837 68.2965 18.8927 68.5165 19.054C68.7365 19.2153 69.0005 19.296 69.3085 19.296C69.5725 19.296 69.7925 19.2557 69.9685 19.175C70.1445 19.0943 70.2875 19.0063 70.3975 18.911C70.5075 18.8083 70.5809 18.7313 70.6175 18.68C70.6835 18.5847 70.7349 18.5297 70.7715 18.515C70.8082 18.493 70.8669 18.482 70.9475 18.482H71.4755C71.5489 18.482 71.6075 18.504 71.6515 18.548C71.7029 18.5847 71.7249 18.6397 71.7175 18.713C71.7102 18.823 71.6515 18.9587 71.5415 19.12C71.4315 19.274 71.2739 19.428 71.0685 19.582C70.8632 19.736 70.6139 19.8643 70.3205 19.967C70.0272 20.0623 69.6899 20.11 69.3085 20.11ZM67.8125 16.722H70.8265V16.689C70.8265 16.359 70.7642 16.0657 70.6395 15.809C70.5222 15.5523 70.3499 15.3507 70.1225 15.204C69.8952 15.05 69.6239 14.973 69.3085 14.973C68.9932 14.973 68.7219 15.05 68.4945 15.204C68.2745 15.3507 68.1059 15.5523 67.9885 15.809C67.8712 16.0657 67.8125 16.359 67.8125 16.689V16.722ZM75.2658 20C75.1925 20 75.1301 19.978 75.0788 19.934C75.0348 19.8827 75.0128 19.8203 75.0128 19.747V15.16H73.0988C73.0255 15.16 72.9631 15.138 72.9118 15.094C72.8678 15.0427 72.8458 14.9803 72.8458 14.907V14.533C72.8458 14.4597 72.8678 14.401 72.9118 14.357C72.9631 14.3057 73.0255 14.28 73.0988 14.28H77.9388C78.0121 14.28 78.0708 14.3057 78.1148 14.357C78.1661 14.401 78.1918 14.4597 78.1918 14.533V14.907C78.1918 14.9803 78.1661 15.0427 78.1148 15.094C78.0708 15.138 78.0121 15.16 77.9388 15.16H76.0248V19.747C76.0248 19.8203 76.0028 19.8827 75.9588 19.934C75.9148 19.978 75.8525 20 75.7718 20H75.2658ZM79.7177 20C79.6517 20 79.5931 19.978 79.5417 19.934C79.4977 19.8827 79.4757 19.8277 79.4757 19.769V14.533C79.4757 14.4597 79.4977 14.401 79.5417 14.357C79.5931 14.3057 79.6554 14.28 79.7287 14.28H80.2567C80.3301 14.28 80.3887 14.3057 80.4327 14.357C80.4767 14.401 80.4987 14.4597 80.4987 14.533V19.197L80.2127 18.9L83.5457 14.445C83.5824 14.401 83.6227 14.3643 83.6667 14.335C83.7107 14.2983 83.7657 14.28 83.8317 14.28H84.3377C84.3964 14.28 84.4477 14.302 84.4917 14.346C84.5431 14.39 84.5687 14.4413 84.5687 14.5V19.747C84.5687 19.8203 84.5431 19.8827 84.4917 19.934C84.4477 19.978 84.3891 20 84.3157 20H83.7987C83.7181 20 83.6557 19.978 83.6117 19.934C83.5677 19.8827 83.5457 19.8203 83.5457 19.747V15.358L83.8537 15.347L80.4987 19.835C80.4694 19.8717 80.4327 19.9083 80.3887 19.945C80.3447 19.9817 80.2861 20 80.2127 20H79.7177ZM88.2578 20C88.1845 20 88.1222 19.978 88.0708 19.934C88.0268 19.8827 88.0048 19.8203 88.0048 19.747V15.16H86.0908C86.0175 15.16 85.9552 15.138 85.9038 15.094C85.8598 15.0427 85.8378 14.9803 85.8378 14.907V14.533C85.8378 14.4597 85.8598 14.401 85.9038 14.357C85.9552 14.3057 86.0175 14.28 86.0908 14.28H90.9308C91.0042 14.28 91.0628 14.3057 91.1068 14.357C91.1582 14.401 91.1838 14.4597 91.1838 14.533V14.907C91.1838 14.9803 91.1582 15.0427 91.1068 15.094C91.0628 15.138 91.0042 15.16 90.9308 15.16H89.0168V19.747C89.0168 19.8203 88.9948 19.8827 88.9508 19.934C88.9068 19.978 88.8445 20 88.7638 20H88.2578ZM94.7448 20.11C93.9894 20.11 93.3881 19.879 92.9408 19.417C92.4934 18.9477 92.2478 18.3097 92.2038 17.503C92.1964 17.4077 92.1928 17.2867 92.1928 17.14C92.1928 16.986 92.1964 16.8613 92.2038 16.766C92.2331 16.2453 92.3541 15.7907 92.5668 15.402C92.7794 15.006 93.0691 14.7017 93.4358 14.489C93.8098 14.2763 94.2461 14.17 94.7448 14.17C95.3021 14.17 95.7678 14.2873 96.1418 14.522C96.5231 14.7567 96.8128 15.0903 97.0108 15.523C97.2088 15.9557 97.3078 16.4617 97.3078 17.041V17.228C97.3078 17.3087 97.2821 17.371 97.2308 17.415C97.1868 17.459 97.1281 17.481 97.0548 17.481H93.2488C93.2488 17.4883 93.2488 17.503 93.2488 17.525C93.2488 17.547 93.2488 17.5653 93.2488 17.58C93.2634 17.8807 93.3294 18.163 93.4468 18.427C93.5641 18.6837 93.7328 18.8927 93.9528 19.054C94.1728 19.2153 94.4368 19.296 94.7448 19.296C95.0088 19.296 95.2288 19.2557 95.4048 19.175C95.5808 19.0943 95.7238 19.0063 95.8338 18.911C95.9438 18.8083 96.0171 18.7313 96.0538 18.68C96.1198 18.5847 96.1711 18.5297 96.2078 18.515C96.2444 18.493 96.3031 18.482 96.3838 18.482H96.9118C96.9851 18.482 97.0438 18.504 97.0878 18.548C97.1391 18.5847 97.1611 18.6397 97.1538 18.713C97.1464 18.823 97.0878 18.9587 96.9778 19.12C96.8678 19.274 96.7101 19.428 96.5048 19.582C96.2994 19.736 96.0501 19.8643 95.7568 19.967C95.4634 20.0623 95.1261 20.11 94.7448 20.11ZM93.2488 16.722H96.2628V16.689C96.2628 16.359 96.2004 16.0657 96.0758 15.809C95.9584 15.5523 95.7861 15.3507 95.5588 15.204C95.3314 15.05 95.0601 14.973 94.7448 14.973C94.4294 14.973 94.1581 15.05 93.9308 15.204C93.7108 15.3507 93.5421 15.5523 93.4248 15.809C93.3074 16.0657 93.2488 16.359 93.2488 16.689V16.722ZM102.232 20C102.159 20 102.097 19.978 102.045 19.934C102.001 19.8827 101.979 19.8203 101.979 19.747V14.533C101.979 14.4597 102.001 14.401 102.045 14.357C102.097 14.3057 102.159 14.28 102.232 14.28H102.76C102.834 14.28 102.892 14.3057 102.936 14.357C102.98 14.401 103.002 14.4597 103.002 14.533V16.645H106.005V14.533C106.005 14.4597 106.027 14.401 106.071 14.357C106.123 14.3057 106.185 14.28 106.258 14.28H106.775C106.849 14.28 106.907 14.3057 106.951 14.357C107.003 14.401 107.028 14.4597 107.028 14.533V19.747C107.028 19.8203 107.003 19.8827 106.951 19.934C106.907 19.978 106.849 20 106.775 20H106.258C106.185 20 106.123 19.978 106.071 19.934C106.027 19.8827 106.005 19.8203 106.005 19.747V17.525H103.002V19.747C103.002 19.8203 102.98 19.8827 102.936 19.934C102.892 19.978 102.834 20 102.76 20H102.232ZM110.607 20.11C110.241 20.11 109.907 20.0367 109.606 19.89C109.306 19.7433 109.064 19.5453 108.88 19.296C108.697 19.0467 108.605 18.7643 108.605 18.449C108.605 17.943 108.811 17.5397 109.221 17.239C109.632 16.9383 110.167 16.7403 110.827 16.645L112.466 16.414V16.095C112.466 15.743 112.364 15.468 112.158 15.27C111.96 15.072 111.634 14.973 111.179 14.973C110.849 14.973 110.582 15.039 110.376 15.171C110.178 15.303 110.039 15.4717 109.958 15.677C109.914 15.787 109.837 15.842 109.727 15.842H109.232C109.152 15.842 109.089 15.82 109.045 15.776C109.009 15.7247 108.99 15.666 108.99 15.6C108.99 15.49 109.031 15.3543 109.111 15.193C109.199 15.0317 109.331 14.874 109.507 14.72C109.683 14.566 109.907 14.4377 110.178 14.335C110.457 14.225 110.794 14.17 111.19 14.17C111.63 14.17 112.001 14.2287 112.301 14.346C112.602 14.456 112.837 14.6063 113.005 14.797C113.181 14.9877 113.306 15.204 113.379 15.446C113.46 15.688 113.5 15.9337 113.5 16.183V19.747C113.5 19.8203 113.475 19.8827 113.423 19.934C113.379 19.978 113.321 20 113.247 20H112.741C112.661 20 112.598 19.978 112.554 19.934C112.51 19.8827 112.488 19.8203 112.488 19.747V19.274C112.393 19.406 112.265 19.538 112.103 19.67C111.942 19.7947 111.74 19.901 111.498 19.989C111.256 20.0697 110.959 20.11 110.607 20.11ZM110.838 19.285C111.139 19.285 111.414 19.2227 111.663 19.098C111.913 18.966 112.107 18.7643 112.246 18.493C112.393 18.2217 112.466 17.8807 112.466 17.47V17.162L111.19 17.349C110.67 17.4223 110.277 17.547 110.013 17.723C109.749 17.8917 109.617 18.108 109.617 18.372C109.617 18.5773 109.676 18.7497 109.793 18.889C109.918 19.021 110.072 19.12 110.255 19.186C110.446 19.252 110.64 19.285 110.838 19.285ZM117.722 20.11C117.201 20.11 116.75 20.011 116.369 19.813C115.995 19.6077 115.705 19.318 115.5 18.944C115.294 18.5627 115.184 18.108 115.17 17.58C115.162 17.47 115.159 17.3233 115.159 17.14C115.159 16.9567 115.162 16.81 115.17 16.7C115.184 16.172 115.294 15.721 115.5 15.347C115.705 14.9657 115.995 14.676 116.369 14.478C116.75 14.2727 117.201 14.17 117.722 14.17C118.147 14.17 118.51 14.2287 118.811 14.346C119.119 14.4633 119.372 14.6137 119.57 14.797C119.768 14.9803 119.914 15.1783 120.01 15.391C120.112 15.6037 120.167 15.8053 120.175 15.996C120.182 16.0693 120.16 16.128 120.109 16.172C120.057 16.216 119.995 16.238 119.922 16.238H119.394C119.32 16.238 119.265 16.2233 119.229 16.194C119.192 16.1573 119.155 16.0987 119.119 16.018C118.987 15.6587 118.807 15.4057 118.58 15.259C118.352 15.1123 118.07 15.039 117.733 15.039C117.293 15.039 116.933 15.1747 116.655 15.446C116.383 15.7173 116.237 16.1537 116.215 16.755C116.207 17.019 116.207 17.2757 116.215 17.525C116.237 18.1337 116.383 18.5737 116.655 18.845C116.933 19.109 117.293 19.241 117.733 19.241C118.07 19.241 118.352 19.1677 118.58 19.021C118.807 18.8743 118.987 18.6213 119.119 18.262C119.155 18.1813 119.192 18.1263 119.229 18.097C119.265 18.0603 119.32 18.042 119.394 18.042H119.922C119.995 18.042 120.057 18.064 120.109 18.108C120.16 18.152 120.182 18.2107 120.175 18.284C120.167 18.438 120.134 18.5957 120.076 18.757C120.017 18.9183 119.922 19.0833 119.79 19.252C119.665 19.4133 119.507 19.56 119.317 19.692C119.126 19.8167 118.895 19.9193 118.624 20C118.36 20.0733 118.059 20.11 117.722 20.11ZM125.09 20C125.017 20 124.955 19.978 124.903 19.934C124.859 19.8827 124.837 19.8203 124.837 19.747V14.533C124.837 14.4597 124.859 14.401 124.903 14.357C124.955 14.3057 125.017 14.28 125.09 14.28H127.378C128.068 14.28 128.585 14.4193 128.929 14.698C129.281 14.9767 129.457 15.3507 129.457 15.82C129.457 16.15 129.395 16.3993 129.27 16.568C129.146 16.7367 128.97 16.8797 128.742 16.997C129.021 17.1143 129.23 17.305 129.369 17.569C129.516 17.8257 129.589 18.0933 129.589 18.372C129.589 18.9 129.402 19.3033 129.028 19.582C128.654 19.8607 128.134 20 127.466 20H125.09ZM125.849 19.197H127.378C127.73 19.197 128.013 19.131 128.225 18.999C128.445 18.8597 128.555 18.6507 128.555 18.372C128.555 18.0787 128.456 17.866 128.258 17.734C128.06 17.5947 127.767 17.525 127.378 17.525H125.849V19.197ZM125.849 16.711H127.312C127.664 16.711 127.943 16.634 128.148 16.48C128.361 16.326 128.467 16.1097 128.467 15.831C128.467 15.545 128.361 15.3507 128.148 15.248C127.943 15.138 127.664 15.083 127.312 15.083H125.849V16.711Z" fill="#212529"/>
<path d="M45.88 40C45.7627 40 45.66 39.956 45.572 39.868C45.484 39.78 45.44 39.6773 45.44 39.56C45.44 39.4867 45.4473 39.406 45.462 39.318L50.918 25.084C50.9767 24.9373 51.0573 24.82 51.16 24.732C51.2627 24.644 51.4167 24.6 51.622 24.6H53.118C53.3087 24.6 53.4553 24.644 53.558 24.732C53.6753 24.82 53.7633 24.9373 53.822 25.084L59.256 39.318C59.2853 39.406 59.3 39.4867 59.3 39.56C59.3 39.6773 59.256 39.78 59.168 39.868C59.08 39.956 58.9773 40 58.86 40H57.738C57.562 40 57.43 39.956 57.342 39.868C57.2687 39.78 57.2173 39.6993 57.188 39.626L55.978 36.502H48.762L47.552 39.626C47.5373 39.6993 47.486 39.78 47.398 39.868C47.31 39.956 47.178 40 47.002 40H45.88ZM49.4 34.61H55.34L52.37 26.8L49.4 34.61ZM61.2343 44.18C61.0876 44.18 60.9629 44.1287 60.8603 44.026C60.7723 43.938 60.7283 43.8207 60.7283 43.674V29.066C60.7283 28.9193 60.7723 28.802 60.8603 28.714C60.9629 28.6113 61.0876 28.56 61.2343 28.56H62.2463C62.3929 28.56 62.5103 28.6113 62.5983 28.714C62.7009 28.802 62.7523 28.9193 62.7523 29.066V30.034C63.1043 29.55 63.5736 29.1467 64.1603 28.824C64.7469 28.5013 65.4803 28.34 66.3603 28.34C67.1816 28.34 67.8783 28.4793 68.4503 28.758C69.0369 29.0367 69.5136 29.418 69.8803 29.902C70.2616 30.386 70.5476 30.936 70.7383 31.552C70.9289 32.168 71.0316 32.828 71.0463 33.532C71.0609 33.7667 71.0683 34.016 71.0683 34.28C71.0683 34.544 71.0609 34.7933 71.0463 35.028C71.0316 35.7173 70.9289 36.3773 70.7383 37.008C70.5476 37.624 70.2616 38.174 69.8803 38.658C69.5136 39.1273 69.0369 39.5087 68.4503 39.802C67.8783 40.0807 67.1816 40.22 66.3603 40.22C65.5096 40.22 64.7909 40.066 64.2043 39.758C63.6323 39.4353 63.1629 39.0393 62.7963 38.57V43.674C62.7963 43.8207 62.7523 43.938 62.6643 44.026C62.5763 44.1287 62.4516 44.18 62.2903 44.18H61.2343ZM65.8983 38.438C66.6609 38.438 67.2549 38.2767 67.6803 37.954C68.1203 37.6167 68.4356 37.184 68.6263 36.656C68.8169 36.1133 68.9269 35.534 68.9563 34.918C68.9709 34.4927 68.9709 34.0673 68.9563 33.642C68.9269 33.026 68.8169 32.454 68.6263 31.926C68.4356 31.3833 68.1203 30.9507 67.6803 30.628C67.2549 30.2907 66.6609 30.122 65.8983 30.122C65.1796 30.122 64.5929 30.2907 64.1383 30.628C63.6983 30.9653 63.3683 31.398 63.1483 31.926C62.9429 32.4393 62.8256 32.9673 62.7963 33.51C62.7816 33.7447 62.7743 34.0233 62.7743 34.346C62.7743 34.6687 62.7816 34.9547 62.7963 35.204C62.8109 35.7173 62.9283 36.2233 63.1483 36.722C63.3829 37.2207 63.7276 37.6313 64.1823 37.954C64.6369 38.2767 65.2089 38.438 65.8983 38.438ZM73.6798 44.18C73.5331 44.18 73.4084 44.1287 73.3058 44.026C73.2178 43.938 73.1738 43.8207 73.1738 43.674V29.066C73.1738 28.9193 73.2178 28.802 73.3058 28.714C73.4084 28.6113 73.5331 28.56 73.6798 28.56H74.6918C74.8384 28.56 74.9558 28.6113 75.0438 28.714C75.1464 28.802 75.1978 28.9193 75.1978 29.066V30.034C75.5498 29.55 76.0191 29.1467 76.6058 28.824C77.1924 28.5013 77.9258 28.34 78.8058 28.34C79.6271 28.34 80.3238 28.4793 80.8958 28.758C81.4824 29.0367 81.9591 29.418 82.3258 29.902C82.7071 30.386 82.9931 30.936 83.1838 31.552C83.3744 32.168 83.4771 32.828 83.4918 33.532C83.5064 33.7667 83.5138 34.016 83.5138 34.28C83.5138 34.544 83.5064 34.7933 83.4918 35.028C83.4771 35.7173 83.3744 36.3773 83.1838 37.008C82.9931 37.624 82.7071 38.174 82.3258 38.658C81.9591 39.1273 81.4824 39.5087 80.8958 39.802C80.3238 40.0807 79.6271 40.22 78.8058 40.22C77.9551 40.22 77.2364 40.066 76.6498 39.758C76.0778 39.4353 75.6084 39.0393 75.2418 38.57V43.674C75.2418 43.8207 75.1978 43.938 75.1098 44.026C75.0218 44.1287 74.8971 44.18 74.7358 44.18H73.6798ZM78.3438 38.438C79.1064 38.438 79.7004 38.2767 80.1258 37.954C80.5658 37.6167 80.8811 37.184 81.0718 36.656C81.2624 36.1133 81.3724 35.534 81.4018 34.918C81.4164 34.4927 81.4164 34.0673 81.4018 33.642C81.3724 33.026 81.2624 32.454 81.0718 31.926C80.8811 31.3833 80.5658 30.9507 80.1258 30.628C79.7004 30.2907 79.1064 30.122 78.3438 30.122C77.6251 30.122 77.0384 30.2907 76.5838 30.628C76.1438 30.9653 75.8138 31.398 75.5938 31.926C75.3884 32.4393 75.2711 32.9673 75.2418 33.51C75.2271 33.7447 75.2198 34.0233 75.2198 34.346C75.2198 34.6687 75.2271 34.9547 75.2418 35.204C75.2564 35.7173 75.3738 36.2233 75.5938 36.722C75.8284 37.2207 76.1731 37.6313 76.6278 37.954C77.0824 38.2767 77.6544 38.438 78.3438 38.438ZM95.5658 40.22C94.2898 40.22 93.2191 40.0293 92.3538 39.648C91.4885 39.252 90.8211 38.746 90.3518 38.13C89.8971 37.4993 89.6551 36.832 89.6258 36.128C89.6258 36.0107 89.6698 35.908 89.7578 35.82C89.8605 35.7173 89.9778 35.666 90.1098 35.666H91.2318C91.4078 35.666 91.5398 35.71 91.6278 35.798C91.7158 35.886 91.7745 35.9887 91.8038 36.106C91.8771 36.458 92.0531 36.81 92.3318 37.162C92.6251 37.4993 93.0285 37.7853 93.5418 38.02C94.0698 38.24 94.7445 38.35 95.5658 38.35C96.8271 38.35 97.7511 38.13 98.3378 37.69C98.9391 37.2353 99.2398 36.634 99.2398 35.886C99.2398 35.3727 99.0785 34.962 98.7558 34.654C98.4478 34.3313 97.9711 34.0453 97.3258 33.796C96.6805 33.5467 95.8445 33.2753 94.8178 32.982C93.7471 32.674 92.8598 32.3367 92.1558 31.97C91.4518 31.6033 90.9238 31.1487 90.5718 30.606C90.2345 30.0633 90.0658 29.374 90.0658 28.538C90.0658 27.746 90.2785 27.042 90.7038 26.426C91.1291 25.7953 91.7378 25.2967 92.5298 24.93C93.3365 24.5633 94.3118 24.38 95.4558 24.38C96.3651 24.38 97.1571 24.5047 97.8318 24.754C98.5211 24.9887 99.0931 25.3113 99.5478 25.722C100.002 26.118 100.347 26.5507 100.582 27.02C100.816 27.4747 100.941 27.922 100.956 28.362C100.956 28.4647 100.919 28.5673 100.846 28.67C100.772 28.758 100.655 28.802 100.494 28.802H99.3278C99.2251 28.802 99.1151 28.7727 98.9978 28.714C98.8951 28.6553 98.8145 28.5453 98.7558 28.384C98.6678 27.7827 98.3305 27.2767 97.7438 26.866C97.1571 26.4553 96.3945 26.25 95.4558 26.25C94.5025 26.25 93.7251 26.4333 93.1238 26.8C92.5371 27.1667 92.2438 27.7387 92.2438 28.516C92.2438 29.0147 92.3831 29.4327 92.6618 29.77C92.9405 30.0927 93.3805 30.3787 93.9818 30.628C94.5831 30.8773 95.3678 31.1413 96.3358 31.42C97.5091 31.7427 98.4698 32.0873 99.2178 32.454C99.9658 32.806 100.516 33.2533 100.868 33.796C101.234 34.324 101.418 35.006 101.418 35.842C101.418 36.766 101.176 37.558 100.692 38.218C100.208 38.8633 99.5258 39.362 98.6458 39.714C97.7805 40.0513 96.7538 40.22 95.5658 40.22ZM107.821 40C107 40 106.333 39.846 105.819 39.538C105.306 39.2153 104.932 38.768 104.697 38.196C104.463 37.6093 104.345 36.92 104.345 36.128V30.32H102.629C102.483 30.32 102.358 30.276 102.255 30.188C102.167 30.0853 102.123 29.9607 102.123 29.814V29.066C102.123 28.9193 102.167 28.802 102.255 28.714C102.358 28.6113 102.483 28.56 102.629 28.56H104.345V24.886C104.345 24.7393 104.389 24.622 104.477 24.534C104.58 24.4313 104.705 24.38 104.851 24.38H105.885C106.032 24.38 106.149 24.4313 106.237 24.534C106.34 24.622 106.391 24.7393 106.391 24.886V28.56H109.119C109.266 28.56 109.383 28.6113 109.471 28.714C109.574 28.802 109.625 28.9193 109.625 29.066V29.814C109.625 29.9607 109.574 30.0853 109.471 30.188C109.383 30.276 109.266 30.32 109.119 30.32H106.391V35.974C106.391 36.6633 106.509 37.206 106.743 37.602C106.978 37.998 107.396 38.196 107.997 38.196H109.339C109.486 38.196 109.603 38.2473 109.691 38.35C109.794 38.438 109.845 38.5553 109.845 38.702V39.494C109.845 39.6407 109.794 39.7653 109.691 39.868C109.603 39.956 109.486 40 109.339 40H107.821ZM115.975 40.22C114.86 40.22 113.929 40.0073 113.181 39.582C112.433 39.1567 111.861 38.57 111.465 37.822C111.069 37.0593 110.849 36.194 110.805 35.226C110.79 34.9767 110.783 34.6613 110.783 34.28C110.783 33.884 110.79 33.5687 110.805 33.334C110.849 32.3513 111.069 31.486 111.465 30.738C111.876 29.99 112.455 29.4033 113.203 28.978C113.951 28.5527 114.875 28.34 115.975 28.34C117.075 28.34 117.999 28.5527 118.747 28.978C119.495 29.4033 120.067 29.99 120.463 30.738C120.874 31.486 121.101 32.3513 121.145 33.334C121.16 33.5687 121.167 33.884 121.167 34.28C121.167 34.6613 121.16 34.9767 121.145 35.226C121.101 36.194 120.881 37.0593 120.485 37.822C120.089 38.57 119.517 39.1567 118.769 39.582C118.021 40.0073 117.09 40.22 115.975 40.22ZM115.975 38.526C116.884 38.526 117.61 38.24 118.153 37.668C118.696 37.0813 118.989 36.2307 119.033 35.116C119.048 34.896 119.055 34.6173 119.055 34.28C119.055 33.9427 119.048 33.664 119.033 33.444C118.989 32.3293 118.696 31.486 118.153 30.914C117.61 30.3273 116.884 30.034 115.975 30.034C115.066 30.034 114.332 30.3273 113.775 30.914C113.232 31.486 112.946 32.3293 112.917 33.444C112.902 33.664 112.895 33.9427 112.895 34.28C112.895 34.6173 112.902 34.896 112.917 35.116C112.946 36.2307 113.232 37.0813 113.775 37.668C114.332 38.24 115.066 38.526 115.975 38.526ZM123.768 40C123.621 40 123.497 39.956 123.394 39.868C123.306 39.7653 123.262 39.6407 123.262 39.494V29.088C123.262 28.9413 123.306 28.8167 123.394 28.714C123.497 28.6113 123.621 28.56 123.768 28.56H124.78C124.927 28.56 125.051 28.6113 125.154 28.714C125.257 28.8167 125.308 28.9413 125.308 29.088V30.056C125.601 29.5573 126.005 29.1833 126.518 28.934C127.031 28.6847 127.647 28.56 128.366 28.56H129.246C129.393 28.56 129.51 28.6113 129.598 28.714C129.686 28.802 129.73 28.9193 129.73 29.066V29.968C129.73 30.1147 129.686 30.232 129.598 30.32C129.51 30.408 129.393 30.452 129.246 30.452H127.926C127.134 30.452 126.511 30.6867 126.056 31.156C125.601 31.6107 125.374 32.234 125.374 33.026V39.494C125.374 39.6407 125.323 39.7653 125.22 39.868C125.117 39.956 124.993 40 124.846 40H123.768ZM135.298 40.22C133.788 40.22 132.585 39.758 131.69 38.834C130.796 37.8953 130.304 36.6193 130.216 35.006C130.202 34.8153 130.194 34.5733 130.194 34.28C130.194 33.972 130.202 33.7227 130.216 33.532C130.275 32.4907 130.517 31.5813 130.942 30.804C131.368 30.012 131.947 29.4033 132.68 28.978C133.428 28.5527 134.301 28.34 135.298 28.34C136.413 28.34 137.344 28.5747 138.092 29.044C138.855 29.5133 139.434 30.1807 139.83 31.046C140.226 31.9113 140.424 32.9233 140.424 34.082V34.456C140.424 34.6173 140.373 34.742 140.27 34.83C140.182 34.918 140.065 34.962 139.918 34.962H132.306C132.306 34.9767 132.306 35.006 132.306 35.05C132.306 35.094 132.306 35.1307 132.306 35.16C132.336 35.7613 132.468 36.326 132.702 36.854C132.937 37.3673 133.274 37.7853 133.714 38.108C134.154 38.4307 134.682 38.592 135.298 38.592C135.826 38.592 136.266 38.5113 136.618 38.35C136.97 38.1887 137.256 38.0127 137.476 37.822C137.696 37.6167 137.843 37.4627 137.916 37.36C138.048 37.1693 138.151 37.0593 138.224 37.03C138.298 36.986 138.415 36.964 138.576 36.964H139.632C139.779 36.964 139.896 37.008 139.984 37.096C140.087 37.1693 140.131 37.2793 140.116 37.426C140.102 37.646 139.984 37.9173 139.764 38.24C139.544 38.548 139.229 38.856 138.818 39.164C138.408 39.472 137.909 39.7287 137.322 39.934C136.736 40.1247 136.061 40.22 135.298 40.22ZM132.306 33.444H138.334V33.378C138.334 32.718 138.21 32.1313 137.96 31.618C137.726 31.1047 137.381 30.7013 136.926 30.408C136.472 30.1 135.929 29.946 135.298 29.946C134.668 29.946 134.125 30.1 133.67 30.408C133.23 30.7013 132.893 31.1047 132.658 31.618C132.424 32.1313 132.306 32.718 132.306 33.378V33.444Z" fill="#212529"/>
</svg>
