<svg width="154" height="52" viewBox="0 0 154 52" fill="none" xmlns="http://www.w3.org/2000/svg">
<rect x="0.5" y="0.5" width="153" height="51" rx="9.5" fill="white"/>
<rect x="0.5" y="0.5" width="153" height="51" rx="9.5" stroke="#212529"/>
<path d="M32.0454 25.4221C32.0747 23.1834 33.2977 21.0652 35.2378 19.8926C34.0139 18.1742 31.9639 17.0847 29.8311 17.0191C27.5563 16.7844 25.3509 18.3573 24.1917 18.3573C23.0101 18.3573 21.2253 17.0424 19.3034 17.0813C16.7983 17.1609 14.4629 18.561 13.2441 20.7141C10.6242 25.1734 12.5784 31.727 15.0881 35.3315C16.3437 37.0965 17.8112 39.0681 19.7314 38.9982C21.6104 38.9216 22.3122 37.8203 24.5803 37.8203C26.8273 37.8203 27.4857 38.9982 29.4449 38.9537C31.4611 38.9216 32.7315 37.1809 33.9431 35.3991C34.8452 34.1415 35.5394 32.7515 36 31.2807C33.6305 30.2955 32.0482 27.9513 32.0454 25.4221Z" fill="#212529"/>
<path d="M28.3449 14.6486C29.4443 13.3512 29.9859 11.6836 29.8547 10C28.1752 10.1734 26.6237 10.9626 25.5095 12.2102C24.42 13.4292 23.853 15.0674 23.9602 16.6867C25.6403 16.7037 27.2921 15.936 28.3449 14.6486Z" fill="#212529"/>
<path d="M46.166 11.519L46.705 11.013C47.288 11.497 48.025 12.19 48.377 12.63L47.816 13.224C47.475 12.762 46.749 12.036 46.166 11.519ZM47.013 20.682L46.859 19.912L47.079 19.56L49.037 18.097C49.092 18.317 49.224 18.636 49.323 18.79C47.464 20.231 47.178 20.462 47.013 20.682ZM45.451 14.214H47.585V15.017H45.451V14.214ZM47.013 20.682C46.936 20.484 46.727 20.143 46.573 19.978C46.782 19.857 47.112 19.527 47.112 19.043V14.214H47.904V19.736C47.904 19.736 47.013 20.374 47.013 20.682ZM50.247 17.085H54.097V17.679H50.247V17.085ZM49.202 11.629H55.219V12.256H49.202V11.629ZM49.466 12.96H54.878V13.565H49.466V12.96ZM48.872 14.335H55.549V14.962H48.872V14.335ZM50.236 18.57H54.119V19.175H50.236V18.57ZM49.653 15.611H54.13V16.249H50.434V20.869H49.653V15.611ZM53.877 15.611H54.669V19.956C54.669 20.374 54.581 20.594 54.273 20.715C53.965 20.836 53.47 20.847 52.689 20.836C52.656 20.638 52.546 20.33 52.447 20.121C53.008 20.143 53.536 20.143 53.679 20.132C53.833 20.132 53.877 20.088 53.877 19.945V15.611ZM51.743 10.76H52.568V14.533H51.743V10.76ZM57.012 12.465H66.648V13.268H57.012V12.465ZM60.422 15.952H66.219V16.722H60.422V15.952ZM59.993 19.846H66.648V20.627H59.993V19.846ZM62.908 13.829H63.733V20.264H62.908V13.829ZM60.631 10.76L61.478 10.969C60.708 13.488 59.366 16.051 57.177 17.624C57.089 17.404 56.88 17.052 56.748 16.865C58.728 15.468 60.015 13.026 60.631 10.76ZM58.453 15.292H59.278V20.847H58.453V15.292ZM75.8563 14.324H80.3773V15.149H75.8563V14.324ZM71.2473 19.538H81.1253V20.363H71.2473V19.538ZM75.3833 10.925H76.2523V19.978H75.3833V10.925ZM86.1303 12.685H92.4993V13.499H86.1303V12.685ZM88.1763 15.116H91.1463V15.897H88.1763V15.116ZM90.8823 15.116H91.7073C91.7073 15.116 91.7073 15.391 91.6963 15.501C91.5533 18.845 91.4103 20.033 91.0693 20.429C90.8603 20.682 90.6403 20.759 90.3103 20.792C90.0023 20.825 89.4523 20.814 88.8913 20.781C88.8693 20.539 88.7813 20.209 88.6493 19.989C89.2213 20.044 89.7493 20.044 89.9583 20.044C90.1673 20.055 90.2663 20.033 90.3653 19.912C90.6183 19.637 90.7723 18.449 90.8823 15.27V15.116ZM87.7363 13.125H88.5613C88.4953 16.271 88.2973 19.252 86.3393 20.913C86.2073 20.715 85.9433 20.462 85.7343 20.33C87.5713 18.845 87.6703 16.029 87.7363 13.125ZM88.5283 10.98L89.3093 10.782C89.5183 11.31 89.7603 12.003 89.8703 12.421L89.0563 12.674C88.9573 12.245 88.7263 11.519 88.5283 10.98ZM83.3913 11.442L83.9743 10.947C84.4913 11.442 85.1953 12.124 85.5473 12.542L84.9423 13.125C84.6013 12.685 83.9083 11.959 83.3913 11.442ZM84.1063 20.385L83.9523 19.593L84.1723 19.241L86.2843 17.745C86.3393 17.954 86.4493 18.251 86.5263 18.405C84.5463 19.901 84.2603 20.154 84.1063 20.385ZM82.5223 14.203H84.7663V14.995H82.5223V14.203ZM84.1063 20.385C84.0183 20.198 83.7433 19.857 83.5893 19.703C83.8203 19.549 84.2163 19.164 84.2163 18.658V14.203H85.0413V19.373C85.0413 19.373 84.1063 20.066 84.1063 20.385ZM94.3583 13.246H95.1723V20.891H94.3583V13.246ZM94.4793 11.299L95.0843 10.914C95.6343 11.453 96.3823 12.234 96.7453 12.696L96.1183 13.147C95.7553 12.674 95.0403 11.882 94.4793 11.299ZM97.2513 11.387H103.059V12.157H97.2513V11.387ZM102.498 11.387H103.323V19.736C103.323 20.264 103.191 20.517 102.85 20.66C102.498 20.792 101.904 20.814 101.002 20.803C100.969 20.572 100.837 20.198 100.727 19.967C101.387 20 102.058 19.989 102.234 19.989C102.432 19.978 102.498 19.912 102.498 19.725V11.387ZM97.2953 14.104H100.749V18.152H97.2953V17.404H99.9463V14.852H97.2953V14.104ZM96.8773 14.104H97.6363V18.867H96.8773V14.104ZM112.409 11.486L113.036 11.057C113.685 11.607 114.455 12.388 114.818 12.894L114.136 13.378C113.806 12.85 113.058 12.058 112.409 11.486ZM105.281 14.016H115.082V14.808H105.281V14.016ZM105.116 17.25C106.425 17.008 108.493 16.568 110.429 16.15L110.495 16.898C108.691 17.316 106.744 17.767 105.358 18.075L105.116 17.25ZM107.646 11.882H108.471V19.824C108.471 20.363 108.339 20.605 107.987 20.737C107.635 20.869 107.052 20.902 106.139 20.891C106.095 20.671 105.952 20.297 105.831 20.055C106.535 20.088 107.184 20.077 107.382 20.066C107.58 20.066 107.646 20.011 107.646 19.813V11.882ZM109.736 10.892L110.319 11.585C109.043 12.025 107.173 12.366 105.6 12.586C105.556 12.399 105.457 12.091 105.347 11.904C106.898 11.662 108.68 11.288 109.736 10.892ZM110.836 10.859H111.694C111.672 15.908 112.75 20.088 114.092 20.088C114.389 20.088 114.521 19.516 114.587 18.097C114.763 18.284 115.06 18.471 115.291 18.559C115.137 20.385 114.84 20.924 114.015 20.924C111.859 20.924 110.88 16.095 110.836 10.859ZM113.817 15.314L114.554 15.622C113.476 17.635 111.661 19.406 109.637 20.473C109.505 20.264 109.274 20 109.065 19.813C111.023 18.867 112.838 17.173 113.817 15.314ZM122.331 11.167H125.642V11.926H122.331V11.167ZM125.323 11.167H126.148V19.846C126.148 20.341 126.027 20.583 125.686 20.715C125.356 20.847 124.795 20.858 123.926 20.858C123.893 20.649 123.772 20.286 123.662 20.066C124.289 20.099 124.894 20.088 125.081 20.077C125.257 20.066 125.323 20.011 125.323 19.835V11.167ZM120.186 11.123L120.824 10.771C121.308 11.431 121.891 12.333 122.144 12.883L121.462 13.279C121.22 12.718 120.67 11.794 120.186 11.123ZM119.724 12.982H120.527V20.88H119.724V12.982ZM118.47 10.826L119.24 11.035C118.69 12.938 117.832 14.874 116.842 16.161C116.765 15.974 116.534 15.534 116.391 15.325C117.26 14.214 118.019 12.52 118.47 10.826ZM117.601 13.598L118.36 12.828L118.393 12.85V20.88H117.601V13.598Z" fill="#212529"/>
<path d="M45.88 40C45.7627 40 45.66 39.956 45.572 39.868C45.484 39.78 45.44 39.6773 45.44 39.56C45.44 39.4867 45.4473 39.406 45.462 39.318L50.918 25.084C50.9767 24.9373 51.0573 24.82 51.16 24.732C51.2627 24.644 51.4167 24.6 51.622 24.6H53.118C53.3087 24.6 53.4553 24.644 53.558 24.732C53.6753 24.82 53.7633 24.9373 53.822 25.084L59.256 39.318C59.2853 39.406 59.3 39.4867 59.3 39.56C59.3 39.6773 59.256 39.78 59.168 39.868C59.08 39.956 58.9773 40 58.86 40H57.738C57.562 40 57.43 39.956 57.342 39.868C57.2687 39.78 57.2173 39.6993 57.188 39.626L55.978 36.502H48.762L47.552 39.626C47.5373 39.6993 47.486 39.78 47.398 39.868C47.31 39.956 47.178 40 47.002 40H45.88ZM49.4 34.61H55.34L52.37 26.8L49.4 34.61ZM61.2343 44.18C61.0876 44.18 60.9629 44.1287 60.8603 44.026C60.7723 43.938 60.7283 43.8207 60.7283 43.674V29.066C60.7283 28.9193 60.7723 28.802 60.8603 28.714C60.9629 28.6113 61.0876 28.56 61.2343 28.56H62.2463C62.3929 28.56 62.5103 28.6113 62.5983 28.714C62.7009 28.802 62.7523 28.9193 62.7523 29.066V30.034C63.1043 29.55 63.5736 29.1467 64.1603 28.824C64.7469 28.5013 65.4803 28.34 66.3603 28.34C67.1816 28.34 67.8783 28.4793 68.4503 28.758C69.0369 29.0367 69.5136 29.418 69.8803 29.902C70.2616 30.386 70.5476 30.936 70.7383 31.552C70.9289 32.168 71.0316 32.828 71.0463 33.532C71.0609 33.7667 71.0683 34.016 71.0683 34.28C71.0683 34.544 71.0609 34.7933 71.0463 35.028C71.0316 35.7173 70.9289 36.3773 70.7383 37.008C70.5476 37.624 70.2616 38.174 69.8803 38.658C69.5136 39.1273 69.0369 39.5087 68.4503 39.802C67.8783 40.0807 67.1816 40.22 66.3603 40.22C65.5096 40.22 64.7909 40.066 64.2043 39.758C63.6323 39.4353 63.1629 39.0393 62.7963 38.57V43.674C62.7963 43.8207 62.7523 43.938 62.6643 44.026C62.5763 44.1287 62.4516 44.18 62.2903 44.18H61.2343ZM65.8983 38.438C66.6609 38.438 67.2549 38.2767 67.6803 37.954C68.1203 37.6167 68.4356 37.184 68.6263 36.656C68.8169 36.1133 68.9269 35.534 68.9563 34.918C68.9709 34.4927 68.9709 34.0673 68.9563 33.642C68.9269 33.026 68.8169 32.454 68.6263 31.926C68.4356 31.3833 68.1203 30.9507 67.6803 30.628C67.2549 30.2907 66.6609 30.122 65.8983 30.122C65.1796 30.122 64.5929 30.2907 64.1383 30.628C63.6983 30.9653 63.3683 31.398 63.1483 31.926C62.9429 32.4393 62.8256 32.9673 62.7963 33.51C62.7816 33.7447 62.7743 34.0233 62.7743 34.346C62.7743 34.6687 62.7816 34.9547 62.7963 35.204C62.8109 35.7173 62.9283 36.2233 63.1483 36.722C63.3829 37.2207 63.7276 37.6313 64.1823 37.954C64.6369 38.2767 65.2089 38.438 65.8983 38.438ZM73.6798 44.18C73.5331 44.18 73.4084 44.1287 73.3058 44.026C73.2178 43.938 73.1738 43.8207 73.1738 43.674V29.066C73.1738 28.9193 73.2178 28.802 73.3058 28.714C73.4084 28.6113 73.5331 28.56 73.6798 28.56H74.6918C74.8384 28.56 74.9558 28.6113 75.0438 28.714C75.1464 28.802 75.1978 28.9193 75.1978 29.066V30.034C75.5498 29.55 76.0191 29.1467 76.6058 28.824C77.1924 28.5013 77.9258 28.34 78.8058 28.34C79.6271 28.34 80.3238 28.4793 80.8958 28.758C81.4824 29.0367 81.9591 29.418 82.3258 29.902C82.7071 30.386 82.9931 30.936 83.1838 31.552C83.3744 32.168 83.4771 32.828 83.4918 33.532C83.5064 33.7667 83.5138 34.016 83.5138 34.28C83.5138 34.544 83.5064 34.7933 83.4918 35.028C83.4771 35.7173 83.3744 36.3773 83.1838 37.008C82.9931 37.624 82.7071 38.174 82.3258 38.658C81.9591 39.1273 81.4824 39.5087 80.8958 39.802C80.3238 40.0807 79.6271 40.22 78.8058 40.22C77.9551 40.22 77.2364 40.066 76.6498 39.758C76.0778 39.4353 75.6084 39.0393 75.2418 38.57V43.674C75.2418 43.8207 75.1978 43.938 75.1098 44.026C75.0218 44.1287 74.8971 44.18 74.7358 44.18H73.6798ZM78.3438 38.438C79.1064 38.438 79.7004 38.2767 80.1258 37.954C80.5658 37.6167 80.8811 37.184 81.0718 36.656C81.2624 36.1133 81.3724 35.534 81.4018 34.918C81.4164 34.4927 81.4164 34.0673 81.4018 33.642C81.3724 33.026 81.2624 32.454 81.0718 31.926C80.8811 31.3833 80.5658 30.9507 80.1258 30.628C79.7004 30.2907 79.1064 30.122 78.3438 30.122C77.6251 30.122 77.0384 30.2907 76.5838 30.628C76.1438 30.9653 75.8138 31.398 75.5938 31.926C75.3884 32.4393 75.2711 32.9673 75.2418 33.51C75.2271 33.7447 75.2198 34.0233 75.2198 34.346C75.2198 34.6687 75.2271 34.9547 75.2418 35.204C75.2564 35.7173 75.3738 36.2233 75.5938 36.722C75.8284 37.2207 76.1731 37.6313 76.6278 37.954C77.0824 38.2767 77.6544 38.438 78.3438 38.438ZM95.5658 40.22C94.2898 40.22 93.2191 40.0293 92.3538 39.648C91.4885 39.252 90.8211 38.746 90.3518 38.13C89.8971 37.4993 89.6551 36.832 89.6258 36.128C89.6258 36.0107 89.6698 35.908 89.7578 35.82C89.8605 35.7173 89.9778 35.666 90.1098 35.666H91.2318C91.4078 35.666 91.5398 35.71 91.6278 35.798C91.7158 35.886 91.7745 35.9887 91.8038 36.106C91.8771 36.458 92.0531 36.81 92.3318 37.162C92.6251 37.4993 93.0285 37.7853 93.5418 38.02C94.0698 38.24 94.7445 38.35 95.5658 38.35C96.8271 38.35 97.7511 38.13 98.3378 37.69C98.9391 37.2353 99.2398 36.634 99.2398 35.886C99.2398 35.3727 99.0785 34.962 98.7558 34.654C98.4478 34.3313 97.9711 34.0453 97.3258 33.796C96.6805 33.5467 95.8445 33.2753 94.8178 32.982C93.7471 32.674 92.8598 32.3367 92.1558 31.97C91.4518 31.6033 90.9238 31.1487 90.5718 30.606C90.2345 30.0633 90.0658 29.374 90.0658 28.538C90.0658 27.746 90.2785 27.042 90.7038 26.426C91.1291 25.7953 91.7378 25.2967 92.5298 24.93C93.3365 24.5633 94.3118 24.38 95.4558 24.38C96.3651 24.38 97.1571 24.5047 97.8318 24.754C98.5211 24.9887 99.0931 25.3113 99.5478 25.722C100.002 26.118 100.347 26.5507 100.582 27.02C100.816 27.4747 100.941 27.922 100.956 28.362C100.956 28.4647 100.919 28.5673 100.846 28.67C100.772 28.758 100.655 28.802 100.494 28.802H99.3278C99.2251 28.802 99.1151 28.7727 98.9978 28.714C98.8951 28.6553 98.8145 28.5453 98.7558 28.384C98.6678 27.7827 98.3305 27.2767 97.7438 26.866C97.1571 26.4553 96.3945 26.25 95.4558 26.25C94.5025 26.25 93.7251 26.4333 93.1238 26.8C92.5371 27.1667 92.2438 27.7387 92.2438 28.516C92.2438 29.0147 92.3831 29.4327 92.6618 29.77C92.9405 30.0927 93.3805 30.3787 93.9818 30.628C94.5831 30.8773 95.3678 31.1413 96.3358 31.42C97.5091 31.7427 98.4698 32.0873 99.2178 32.454C99.9658 32.806 100.516 33.2533 100.868 33.796C101.234 34.324 101.418 35.006 101.418 35.842C101.418 36.766 101.176 37.558 100.692 38.218C100.208 38.8633 99.5258 39.362 98.6458 39.714C97.7805 40.0513 96.7538 40.22 95.5658 40.22ZM107.821 40C107 40 106.333 39.846 105.819 39.538C105.306 39.2153 104.932 38.768 104.697 38.196C104.463 37.6093 104.345 36.92 104.345 36.128V30.32H102.629C102.483 30.32 102.358 30.276 102.255 30.188C102.167 30.0853 102.123 29.9607 102.123 29.814V29.066C102.123 28.9193 102.167 28.802 102.255 28.714C102.358 28.6113 102.483 28.56 102.629 28.56H104.345V24.886C104.345 24.7393 104.389 24.622 104.477 24.534C104.58 24.4313 104.705 24.38 104.851 24.38H105.885C106.032 24.38 106.149 24.4313 106.237 24.534C106.34 24.622 106.391 24.7393 106.391 24.886V28.56H109.119C109.266 28.56 109.383 28.6113 109.471 28.714C109.574 28.802 109.625 28.9193 109.625 29.066V29.814C109.625 29.9607 109.574 30.0853 109.471 30.188C109.383 30.276 109.266 30.32 109.119 30.32H106.391V35.974C106.391 36.6633 106.509 37.206 106.743 37.602C106.978 37.998 107.396 38.196 107.997 38.196H109.339C109.486 38.196 109.603 38.2473 109.691 38.35C109.794 38.438 109.845 38.5553 109.845 38.702V39.494C109.845 39.6407 109.794 39.7653 109.691 39.868C109.603 39.956 109.486 40 109.339 40H107.821ZM115.975 40.22C114.86 40.22 113.929 40.0073 113.181 39.582C112.433 39.1567 111.861 38.57 111.465 37.822C111.069 37.0593 110.849 36.194 110.805 35.226C110.79 34.9767 110.783 34.6613 110.783 34.28C110.783 33.884 110.79 33.5687 110.805 33.334C110.849 32.3513 111.069 31.486 111.465 30.738C111.876 29.99 112.455 29.4033 113.203 28.978C113.951 28.5527 114.875 28.34 115.975 28.34C117.075 28.34 117.999 28.5527 118.747 28.978C119.495 29.4033 120.067 29.99 120.463 30.738C120.874 31.486 121.101 32.3513 121.145 33.334C121.16 33.5687 121.167 33.884 121.167 34.28C121.167 34.6613 121.16 34.9767 121.145 35.226C121.101 36.194 120.881 37.0593 120.485 37.822C120.089 38.57 119.517 39.1567 118.769 39.582C118.021 40.0073 117.09 40.22 115.975 40.22ZM115.975 38.526C116.884 38.526 117.61 38.24 118.153 37.668C118.696 37.0813 118.989 36.2307 119.033 35.116C119.048 34.896 119.055 34.6173 119.055 34.28C119.055 33.9427 119.048 33.664 119.033 33.444C118.989 32.3293 118.696 31.486 118.153 30.914C117.61 30.3273 116.884 30.034 115.975 30.034C115.066 30.034 114.332 30.3273 113.775 30.914C113.232 31.486 112.946 32.3293 112.917 33.444C112.902 33.664 112.895 33.9427 112.895 34.28C112.895 34.6173 112.902 34.896 112.917 35.116C112.946 36.2307 113.232 37.0813 113.775 37.668C114.332 38.24 115.066 38.526 115.975 38.526ZM123.768 40C123.621 40 123.497 39.956 123.394 39.868C123.306 39.7653 123.262 39.6407 123.262 39.494V29.088C123.262 28.9413 123.306 28.8167 123.394 28.714C123.497 28.6113 123.621 28.56 123.768 28.56H124.78C124.927 28.56 125.051 28.6113 125.154 28.714C125.257 28.8167 125.308 28.9413 125.308 29.088V30.056C125.601 29.5573 126.005 29.1833 126.518 28.934C127.031 28.6847 127.647 28.56 128.366 28.56H129.246C129.393 28.56 129.51 28.6113 129.598 28.714C129.686 28.802 129.73 28.9193 129.73 29.066V29.968C129.73 30.1147 129.686 30.232 129.598 30.32C129.51 30.408 129.393 30.452 129.246 30.452H127.926C127.134 30.452 126.511 30.6867 126.056 31.156C125.601 31.6107 125.374 32.234 125.374 33.026V39.494C125.374 39.6407 125.323 39.7653 125.22 39.868C125.117 39.956 124.993 40 124.846 40H123.768ZM135.298 40.22C133.788 40.22 132.585 39.758 131.69 38.834C130.796 37.8953 130.304 36.6193 130.216 35.006C130.202 34.8153 130.194 34.5733 130.194 34.28C130.194 33.972 130.202 33.7227 130.216 33.532C130.275 32.4907 130.517 31.5813 130.942 30.804C131.368 30.012 131.947 29.4033 132.68 28.978C133.428 28.5527 134.301 28.34 135.298 28.34C136.413 28.34 137.344 28.5747 138.092 29.044C138.855 29.5133 139.434 30.1807 139.83 31.046C140.226 31.9113 140.424 32.9233 140.424 34.082V34.456C140.424 34.6173 140.373 34.742 140.27 34.83C140.182 34.918 140.065 34.962 139.918 34.962H132.306C132.306 34.9767 132.306 35.006 132.306 35.05C132.306 35.094 132.306 35.1307 132.306 35.16C132.336 35.7613 132.468 36.326 132.702 36.854C132.937 37.3673 133.274 37.7853 133.714 38.108C134.154 38.4307 134.682 38.592 135.298 38.592C135.826 38.592 136.266 38.5113 136.618 38.35C136.97 38.1887 137.256 38.0127 137.476 37.822C137.696 37.6167 137.843 37.4627 137.916 37.36C138.048 37.1693 138.151 37.0593 138.224 37.03C138.298 36.986 138.415 36.964 138.576 36.964H139.632C139.779 36.964 139.896 37.008 139.984 37.096C140.087 37.1693 140.131 37.2793 140.116 37.426C140.102 37.646 139.984 37.9173 139.764 38.24C139.544 38.548 139.229 38.856 138.818 39.164C138.408 39.472 137.909 39.7287 137.322 39.934C136.736 40.1247 136.061 40.22 135.298 40.22ZM132.306 33.444H138.334V33.378C138.334 32.718 138.21 32.1313 137.96 31.618C137.726 31.1047 137.381 30.7013 136.926 30.408C136.472 30.1 135.929 29.946 135.298 29.946C134.668 29.946 134.125 30.1 133.67 30.408C133.23 30.7013 132.893 31.1047 132.658 31.618C132.424 32.1313 132.306 32.718 132.306 33.378V33.444Z" fill="#212529"/>
</svg>
