<svg width="154" height="52" viewBox="0 0 154 52" fill="none" xmlns="http://www.w3.org/2000/svg">
<rect x="0.5" y="0.5" width="153" height="51" rx="9.5" fill="white"/>
<rect x="0.5" y="0.5" width="153" height="51" rx="9.5" stroke="#212529"/>
<path d="M32.0454 25.4221C32.0747 23.1834 33.2977 21.0652 35.2378 19.8926C34.0139 18.1742 31.9639 17.0847 29.8311 17.0191C27.5563 16.7844 25.3509 18.3573 24.1917 18.3573C23.0101 18.3573 21.2253 17.0424 19.3034 17.0813C16.7983 17.1609 14.4629 18.561 13.2441 20.7141C10.6242 25.1734 12.5784 31.727 15.0881 35.3315C16.3437 37.0965 17.8112 39.0681 19.7314 38.9982C21.6104 38.9216 22.3122 37.8203 24.5803 37.8203C26.8273 37.8203 27.4857 38.9982 29.4449 38.9537C31.4611 38.9216 32.7315 37.1809 33.9431 35.3991C34.8452 34.1415 35.5394 32.7515 36 31.2807C33.6305 30.2955 32.0482 27.9513 32.0454 25.4221Z" fill="#212529"/>
<path d="M28.3449 14.6486C29.4443 13.3512 29.9859 11.6836 29.8547 10C28.1752 10.1734 26.6237 10.9626 25.5095 12.2102C24.42 13.4292 23.853 15.0674 23.9602 16.6867C25.6403 16.7037 27.2921 15.936 28.3449 14.6486Z" fill="#212529"/>
<path d="M46.21 20C46.1293 20 46.067 19.978 46.023 19.934C45.979 19.8827 45.957 19.8203 45.957 19.747V12.564C45.957 12.4833 45.979 12.421 46.023 12.377C46.067 12.3257 46.1293 12.3 46.21 12.3H48.707C49.4623 12.3 50.071 12.4137 50.533 12.641C50.995 12.8683 51.3323 13.2057 51.545 13.653C51.7577 14.093 51.8677 14.6357 51.875 15.281C51.8823 15.611 51.886 15.9007 51.886 16.15C51.886 16.3993 51.8823 16.6853 51.875 17.008C51.8603 17.6827 51.7467 18.2437 51.534 18.691C51.3287 19.131 50.9987 19.461 50.544 19.681C50.0967 19.8937 49.5027 20 48.762 20H46.21ZM47.035 19.065H48.707C49.213 19.065 49.6163 18.9953 49.917 18.856C50.2177 18.7167 50.434 18.493 50.566 18.185C50.7053 17.877 50.7787 17.47 50.786 16.964C50.8007 16.744 50.808 16.5533 50.808 16.392C50.808 16.2233 50.808 16.0583 50.808 15.897C50.808 15.7283 50.8007 15.5377 50.786 15.325C50.7713 14.6137 50.6027 14.0893 50.28 13.752C49.9573 13.4073 49.4147 13.235 48.652 13.235H47.035V19.065ZM53.981 20C53.9077 20 53.8453 19.978 53.794 19.934C53.75 19.8827 53.728 19.8203 53.728 19.747V14.533C53.728 14.4597 53.75 14.401 53.794 14.357C53.8453 14.3057 53.9077 14.28 53.981 14.28H54.509C54.5823 14.28 54.641 14.3057 54.685 14.357C54.729 14.401 54.751 14.4597 54.751 14.533V19.747C54.751 19.8203 54.729 19.8827 54.685 19.934C54.641 19.978 54.5823 20 54.509 20H53.981ZM53.893 13.213C53.8197 13.213 53.7573 13.191 53.706 13.147C53.662 13.0957 53.64 13.0333 53.64 12.96V12.366C53.64 12.2927 53.662 12.234 53.706 12.19C53.7573 12.1387 53.8197 12.113 53.893 12.113H54.586C54.6593 12.113 54.718 12.1387 54.762 12.19C54.8133 12.234 54.839 12.2927 54.839 12.366V12.96C54.839 13.0333 54.8133 13.0957 54.762 13.147C54.718 13.191 54.6593 13.213 54.586 13.213H53.893ZM58.7665 20.11C58.3558 20.11 58.0038 20.0587 57.7105 19.956C57.4172 19.8533 57.1788 19.7287 56.9955 19.582C56.8122 19.4353 56.6728 19.2887 56.5775 19.142C56.4895 18.9953 56.4418 18.878 56.4345 18.79C56.4272 18.7093 56.4528 18.647 56.5115 18.603C56.5702 18.559 56.6288 18.537 56.6875 18.537H57.1715C57.2155 18.537 57.2485 18.5443 57.2705 18.559C57.2998 18.5663 57.3365 18.5957 57.3805 18.647C57.4758 18.7497 57.5822 18.8523 57.6995 18.955C57.8168 19.0577 57.9598 19.142 58.1285 19.208C58.3045 19.274 58.5208 19.307 58.7775 19.307C59.1515 19.307 59.4595 19.2373 59.7015 19.098C59.9435 18.9513 60.0645 18.7387 60.0645 18.46C60.0645 18.2767 60.0132 18.13 59.9105 18.02C59.8152 17.91 59.6392 17.811 59.3825 17.723C59.1332 17.635 58.7885 17.5433 58.3485 17.448C57.9085 17.3453 57.5602 17.2207 57.3035 17.074C57.0468 16.92 56.8635 16.7403 56.7535 16.535C56.6435 16.3223 56.5885 16.084 56.5885 15.82C56.5885 15.5487 56.6692 15.2883 56.8305 15.039C56.9918 14.7823 57.2265 14.5733 57.5345 14.412C57.8498 14.2507 58.2422 14.17 58.7115 14.17C59.0928 14.17 59.4192 14.2177 59.6905 14.313C59.9618 14.4083 60.1855 14.5293 60.3615 14.676C60.5375 14.8153 60.6695 14.9547 60.7575 15.094C60.8455 15.2333 60.8932 15.3507 60.9005 15.446C60.9078 15.5193 60.8858 15.5817 60.8345 15.633C60.7832 15.677 60.7245 15.699 60.6585 15.699H60.1965C60.1452 15.699 60.1012 15.688 60.0645 15.666C60.0352 15.644 60.0058 15.6183 59.9765 15.589C59.9032 15.4937 59.8152 15.3983 59.7125 15.303C59.6172 15.2077 59.4888 15.1307 59.3275 15.072C59.1735 15.006 58.9682 14.973 58.7115 14.973C58.3448 14.973 58.0698 15.05 57.8865 15.204C57.7032 15.358 57.6115 15.5523 57.6115 15.787C57.6115 15.9263 57.6518 16.051 57.7325 16.161C57.8132 16.271 57.9672 16.37 58.1945 16.458C58.4218 16.546 58.7592 16.6413 59.2065 16.744C59.6905 16.8393 60.0718 16.9677 60.3505 17.129C60.6292 17.2903 60.8272 17.4773 60.9445 17.69C61.0618 17.9027 61.1205 18.1483 61.1205 18.427C61.1205 18.735 61.0288 19.0173 60.8455 19.274C60.6695 19.5307 60.4055 19.736 60.0535 19.89C59.7088 20.0367 59.2798 20.11 58.7665 20.11ZM62.9879 22.09C62.9146 22.09 62.8523 22.0643 62.8009 22.013C62.7569 21.969 62.7349 21.9103 62.7349 21.837V14.533C62.7349 14.4597 62.7569 14.401 62.8009 14.357C62.8523 14.3057 62.9146 14.28 62.9879 14.28H63.4939C63.5673 14.28 63.6259 14.3057 63.6699 14.357C63.7213 14.401 63.7469 14.4597 63.7469 14.533V15.017C63.9229 14.775 64.1576 14.5733 64.4509 14.412C64.7443 14.2507 65.1109 14.17 65.5509 14.17C65.9616 14.17 66.3099 14.2397 66.5959 14.379C66.8893 14.5183 67.1276 14.709 67.3109 14.951C67.5016 15.193 67.6446 15.468 67.7399 15.776C67.8353 16.084 67.8866 16.414 67.8939 16.766C67.9013 16.8833 67.9049 17.008 67.9049 17.14C67.9049 17.272 67.9013 17.3967 67.8939 17.514C67.8866 17.8587 67.8353 18.1887 67.7399 18.504C67.6446 18.812 67.5016 19.087 67.3109 19.329C67.1276 19.5637 66.8893 19.7543 66.5959 19.901C66.3099 20.0403 65.9616 20.11 65.5509 20.11C65.1256 20.11 64.7663 20.033 64.4729 19.879C64.1869 19.7177 63.9523 19.5197 63.7689 19.285V21.837C63.7689 21.9103 63.7469 21.969 63.7029 22.013C63.6589 22.0643 63.5966 22.09 63.5159 22.09H62.9879ZM65.3199 19.219C65.7013 19.219 65.9983 19.1383 66.2109 18.977C66.4309 18.8083 66.5886 18.592 66.6839 18.328C66.7793 18.0567 66.8343 17.767 66.8489 17.459C66.8563 17.2463 66.8563 17.0337 66.8489 16.821C66.8343 16.513 66.7793 16.227 66.6839 15.963C66.5886 15.6917 66.4309 15.4753 66.2109 15.314C65.9983 15.1453 65.7013 15.061 65.3199 15.061C64.9606 15.061 64.6673 15.1453 64.4399 15.314C64.2199 15.4827 64.0549 15.699 63.9449 15.963C63.8423 16.2197 63.7836 16.4837 63.7689 16.755C63.7616 16.8723 63.7579 17.0117 63.7579 17.173C63.7579 17.3343 63.7616 17.4773 63.7689 17.602C63.7763 17.8587 63.8349 18.1117 63.9449 18.361C64.0623 18.6103 64.2346 18.8157 64.4619 18.977C64.6893 19.1383 64.9753 19.219 65.3199 19.219ZM71.9497 20.11C71.3923 20.11 70.9267 20.0037 70.5527 19.791C70.1787 19.5783 69.8927 19.285 69.6947 18.911C69.4967 18.5297 69.3867 18.097 69.3647 17.613C69.3573 17.4883 69.3537 17.3307 69.3537 17.14C69.3537 16.942 69.3573 16.7843 69.3647 16.667C69.3867 16.1757 69.4967 15.743 69.6947 15.369C69.9 14.995 70.1897 14.7017 70.5637 14.489C70.9377 14.2763 71.3997 14.17 71.9497 14.17C72.4997 14.17 72.9617 14.2763 73.3357 14.489C73.7097 14.7017 73.9957 14.995 74.1937 15.369C74.399 15.743 74.5127 16.1757 74.5347 16.667C74.542 16.7843 74.5457 16.942 74.5457 17.14C74.5457 17.3307 74.542 17.4883 74.5347 17.613C74.5127 18.097 74.4027 18.5297 74.2047 18.911C74.0067 19.285 73.7207 19.5783 73.3467 19.791C72.9727 20.0037 72.507 20.11 71.9497 20.11ZM71.9497 19.263C72.4043 19.263 72.7673 19.12 73.0387 18.834C73.31 18.5407 73.4567 18.1153 73.4787 17.558C73.486 17.448 73.4897 17.3087 73.4897 17.14C73.4897 16.9713 73.486 16.832 73.4787 16.722C73.4567 16.1647 73.31 15.743 73.0387 15.457C72.7673 15.1637 72.4043 15.017 71.9497 15.017C71.495 15.017 71.1283 15.1637 70.8497 15.457C70.5783 15.743 70.4353 16.1647 70.4207 16.722C70.4133 16.832 70.4097 16.9713 70.4097 17.14C70.4097 17.3087 70.4133 17.448 70.4207 17.558C70.4353 18.1153 70.5783 18.5407 70.8497 18.834C71.1283 19.12 71.495 19.263 71.9497 19.263ZM76.5061 20C76.4327 20 76.3704 19.978 76.3191 19.934C76.2751 19.8827 76.2531 19.8203 76.2531 19.747V14.533C76.2531 14.4597 76.2751 14.401 76.3191 14.357C76.3704 14.3057 76.4327 14.28 76.5061 14.28H77.0231C77.0964 14.28 77.1551 14.3057 77.1991 14.357C77.2504 14.401 77.2761 14.4597 77.2761 14.533V15.017C77.4667 14.7677 77.7051 14.566 77.9911 14.412C78.2844 14.2507 78.6584 14.17 79.1131 14.17C79.5897 14.17 79.9931 14.2763 80.3231 14.489C80.6604 14.6943 80.9134 14.984 81.0821 15.358C81.2507 15.7247 81.3351 16.1537 81.3351 16.645V19.747C81.3351 19.8203 81.3131 19.8827 81.2691 19.934C81.2251 19.978 81.1664 20 81.0931 20H80.5431C80.4697 20 80.4074 19.978 80.3561 19.934C80.3121 19.8827 80.2901 19.8203 80.2901 19.747V16.7C80.2901 16.1867 80.1654 15.787 79.9161 15.501C79.6667 15.2077 79.3001 15.061 78.8161 15.061C78.3614 15.061 77.9947 15.2077 77.7161 15.501C77.4447 15.787 77.3091 16.1867 77.3091 16.7V19.747C77.3091 19.8203 77.2834 19.8827 77.2321 19.934C77.1881 19.978 77.1294 20 77.0561 20H76.5061ZM83.507 20C83.4336 20 83.3713 19.978 83.32 19.934C83.276 19.8827 83.254 19.8203 83.254 19.747V14.533C83.254 14.4597 83.276 14.401 83.32 14.357C83.3713 14.3057 83.4336 14.28 83.507 14.28H84.035C84.1083 14.28 84.167 14.3057 84.211 14.357C84.255 14.401 84.277 14.4597 84.277 14.533V19.747C84.277 19.8203 84.255 19.8827 84.211 19.934C84.167 19.978 84.1083 20 84.035 20H83.507ZM83.419 13.213C83.3456 13.213 83.2833 13.191 83.232 13.147C83.188 13.0957 83.166 13.0333 83.166 12.96V12.366C83.166 12.2927 83.188 12.234 83.232 12.19C83.2833 12.1387 83.3456 12.113 83.419 12.113H84.112C84.1853 12.113 84.244 12.1387 84.288 12.19C84.3393 12.234 84.365 12.2927 84.365 12.366V12.96C84.365 13.0333 84.3393 13.0957 84.288 13.147C84.244 13.191 84.1853 13.213 84.112 13.213H83.419ZM89.075 20.11C88.635 20.11 88.2684 20.033 87.975 19.879C87.6817 19.7177 87.447 19.5197 87.271 19.285V19.747C87.271 19.8203 87.2454 19.8827 87.194 19.934C87.15 19.978 87.0914 20 87.018 20H86.512C86.4387 20 86.3764 19.978 86.325 19.934C86.281 19.8827 86.259 19.8203 86.259 19.747V12.443C86.259 12.3697 86.281 12.311 86.325 12.267C86.3764 12.2157 86.4387 12.19 86.512 12.19H87.04C87.1207 12.19 87.183 12.2157 87.227 12.267C87.271 12.311 87.293 12.3697 87.293 12.443V14.973C87.4764 14.7457 87.711 14.555 87.997 14.401C88.2904 14.247 88.6497 14.17 89.075 14.17C89.4857 14.17 89.834 14.2433 90.12 14.39C90.4134 14.5293 90.6517 14.7237 90.835 14.973C91.0257 15.2223 91.1687 15.5047 91.264 15.82C91.3594 16.1353 91.4107 16.4653 91.418 16.81C91.4254 16.9273 91.429 17.0373 91.429 17.14C91.429 17.2427 91.4254 17.3527 91.418 17.47C91.4107 17.822 91.3594 18.1557 91.264 18.471C91.1687 18.7863 91.0257 19.0687 90.835 19.318C90.6517 19.56 90.4134 19.7543 90.12 19.901C89.834 20.0403 89.4857 20.11 89.075 20.11ZM88.844 19.219C89.2254 19.219 89.5224 19.1383 89.735 18.977C89.955 18.8083 90.1127 18.592 90.208 18.328C90.3034 18.0567 90.3584 17.767 90.373 17.459C90.3804 17.2463 90.3804 17.0337 90.373 16.821C90.3584 16.513 90.3034 16.227 90.208 15.963C90.1127 15.6917 89.955 15.4753 89.735 15.314C89.5224 15.1453 89.2254 15.061 88.844 15.061C88.4994 15.061 88.2134 15.1417 87.986 15.303C87.7587 15.4643 87.5864 15.6697 87.469 15.919C87.359 16.1683 87.3004 16.4213 87.293 16.678C87.2857 16.7953 87.282 16.9383 87.282 17.107C87.282 17.2683 87.2857 17.4077 87.293 17.525C87.3077 17.7963 87.3664 18.064 87.469 18.328C87.579 18.5847 87.744 18.7973 87.964 18.966C88.1914 19.1347 88.4847 19.219 88.844 19.219ZM93.384 20C93.3107 20 93.2483 19.978 93.197 19.934C93.153 19.8827 93.131 19.8203 93.131 19.747V12.443C93.131 12.3697 93.153 12.311 93.197 12.267C93.2483 12.2157 93.3107 12.19 93.384 12.19H93.901C93.9817 12.19 94.044 12.2157 94.088 12.267C94.132 12.311 94.154 12.3697 94.154 12.443V19.747C94.154 19.8203 94.132 19.8827 94.088 19.934C94.044 19.978 93.9817 20 93.901 20H93.384ZM98.4018 20.11C97.6465 20.11 97.0452 19.879 96.5978 19.417C96.1505 18.9477 95.9048 18.3097 95.8608 17.503C95.8535 17.4077 95.8498 17.2867 95.8498 17.14C95.8498 16.986 95.8535 16.8613 95.8608 16.766C95.8902 16.2453 96.0112 15.7907 96.2238 15.402C96.4365 15.006 96.7262 14.7017 97.0928 14.489C97.4668 14.2763 97.9032 14.17 98.4018 14.17C98.9592 14.17 99.4248 14.2873 99.7988 14.522C100.18 14.7567 100.47 15.0903 100.668 15.523C100.866 15.9557 100.965 16.4617 100.965 17.041V17.228C100.965 17.3087 100.939 17.371 100.888 17.415C100.844 17.459 100.785 17.481 100.712 17.481H96.9058C96.9058 17.4883 96.9058 17.503 96.9058 17.525C96.9058 17.547 96.9058 17.5653 96.9058 17.58C96.9205 17.8807 96.9865 18.163 97.1038 18.427C97.2212 18.6837 97.3898 18.8927 97.6098 19.054C97.8298 19.2153 98.0938 19.296 98.4018 19.296C98.6658 19.296 98.8858 19.2557 99.0618 19.175C99.2378 19.0943 99.3808 19.0063 99.4908 18.911C99.6008 18.8083 99.6742 18.7313 99.7108 18.68C99.7768 18.5847 99.8282 18.5297 99.8648 18.515C99.9015 18.493 99.9602 18.482 100.041 18.482H100.569C100.642 18.482 100.701 18.504 100.745 18.548C100.796 18.5847 100.818 18.6397 100.811 18.713C100.803 18.823 100.745 18.9587 100.635 19.12C100.525 19.274 100.367 19.428 100.162 19.582C99.9565 19.736 99.7072 19.8643 99.4138 19.967C99.1205 20.0623 98.7832 20.11 98.4018 20.11ZM96.9058 16.722H99.9198V16.689C99.9198 16.359 99.8575 16.0657 99.7328 15.809C99.6155 15.5523 99.4432 15.3507 99.2158 15.204C98.9885 15.05 98.7172 14.973 98.4018 14.973C98.0865 14.973 97.8152 15.05 97.5878 15.204C97.3678 15.3507 97.1992 15.5523 97.0818 15.809C96.9645 16.0657 96.9058 16.359 96.9058 16.689V16.722ZM107.913 20.11C107.158 20.11 106.557 19.879 106.109 19.417C105.662 18.9477 105.416 18.3097 105.372 17.503C105.365 17.4077 105.361 17.2867 105.361 17.14C105.361 16.986 105.365 16.8613 105.372 16.766C105.402 16.2453 105.523 15.7907 105.735 15.402C105.948 15.006 106.238 14.7017 106.604 14.489C106.978 14.2763 107.415 14.17 107.913 14.17C108.471 14.17 108.936 14.2873 109.31 14.522C109.692 14.7567 109.981 15.0903 110.179 15.523C110.377 15.9557 110.476 16.4617 110.476 17.041V17.228C110.476 17.3087 110.451 17.371 110.399 17.415C110.355 17.459 110.297 17.481 110.223 17.481H106.417C106.417 17.4883 106.417 17.503 106.417 17.525C106.417 17.547 106.417 17.5653 106.417 17.58C106.432 17.8807 106.498 18.163 106.615 18.427C106.733 18.6837 106.901 18.8927 107.121 19.054C107.341 19.2153 107.605 19.296 107.913 19.296C108.177 19.296 108.397 19.2557 108.573 19.175C108.749 19.0943 108.892 19.0063 109.002 18.911C109.112 18.8083 109.186 18.7313 109.222 18.68C109.288 18.5847 109.34 18.5297 109.376 18.515C109.413 18.493 109.472 18.482 109.552 18.482H110.08C110.154 18.482 110.212 18.504 110.256 18.548C110.308 18.5847 110.33 18.6397 110.322 18.713C110.315 18.823 110.256 18.9587 110.146 19.12C110.036 19.274 109.879 19.428 109.673 19.582C109.468 19.736 109.219 19.8643 108.925 19.967C108.632 20.0623 108.295 20.11 107.913 20.11ZM106.417 16.722H109.431V16.689C109.431 16.359 109.369 16.0657 109.244 15.809C109.127 15.5523 108.955 15.3507 108.727 15.204C108.5 15.05 108.229 14.973 107.913 14.973C107.598 14.973 107.327 15.05 107.099 15.204C106.879 15.3507 106.711 15.5523 106.593 15.809C106.476 16.0657 106.417 16.359 106.417 16.689V16.722ZM112.375 20C112.301 20 112.239 19.978 112.188 19.934C112.144 19.8827 112.122 19.8203 112.122 19.747V14.533C112.122 14.4597 112.144 14.401 112.188 14.357C112.239 14.3057 112.301 14.28 112.375 14.28H112.892C112.965 14.28 113.024 14.3057 113.068 14.357C113.119 14.401 113.145 14.4597 113.145 14.533V15.017C113.335 14.7677 113.574 14.566 113.86 14.412C114.153 14.2507 114.527 14.17 114.982 14.17C115.458 14.17 115.862 14.2763 116.192 14.489C116.529 14.6943 116.782 14.984 116.951 15.358C117.119 15.7247 117.204 16.1537 117.204 16.645V19.747C117.204 19.8203 117.182 19.8827 117.138 19.934C117.094 19.978 117.035 20 116.962 20H116.412C116.338 20 116.276 19.978 116.225 19.934C116.181 19.8827 116.159 19.8203 116.159 19.747V16.7C116.159 16.1867 116.034 15.787 115.785 15.501C115.535 15.2077 115.169 15.061 114.685 15.061C114.23 15.061 113.863 15.2077 113.585 15.501C113.313 15.787 113.178 16.1867 113.178 16.7V19.747C113.178 19.8203 113.152 19.8827 113.101 19.934C113.057 19.978 112.998 20 112.925 20H112.375Z" fill="#212529"/>
<path d="M45.88 40C45.7627 40 45.66 39.956 45.572 39.868C45.484 39.78 45.44 39.6773 45.44 39.56C45.44 39.4867 45.4473 39.406 45.462 39.318L50.918 25.084C50.9767 24.9373 51.0573 24.82 51.16 24.732C51.2627 24.644 51.4167 24.6 51.622 24.6H53.118C53.3087 24.6 53.4553 24.644 53.558 24.732C53.6753 24.82 53.7633 24.9373 53.822 25.084L59.256 39.318C59.2853 39.406 59.3 39.4867 59.3 39.56C59.3 39.6773 59.256 39.78 59.168 39.868C59.08 39.956 58.9773 40 58.86 40H57.738C57.562 40 57.43 39.956 57.342 39.868C57.2687 39.78 57.2173 39.6993 57.188 39.626L55.978 36.502H48.762L47.552 39.626C47.5373 39.6993 47.486 39.78 47.398 39.868C47.31 39.956 47.178 40 47.002 40H45.88ZM49.4 34.61H55.34L52.37 26.8L49.4 34.61ZM61.2343 44.18C61.0876 44.18 60.9629 44.1287 60.8603 44.026C60.7723 43.938 60.7283 43.8207 60.7283 43.674V29.066C60.7283 28.9193 60.7723 28.802 60.8603 28.714C60.9629 28.6113 61.0876 28.56 61.2343 28.56H62.2463C62.3929 28.56 62.5103 28.6113 62.5983 28.714C62.7009 28.802 62.7523 28.9193 62.7523 29.066V30.034C63.1043 29.55 63.5736 29.1467 64.1603 28.824C64.7469 28.5013 65.4803 28.34 66.3603 28.34C67.1816 28.34 67.8783 28.4793 68.4503 28.758C69.0369 29.0367 69.5136 29.418 69.8803 29.902C70.2616 30.386 70.5476 30.936 70.7383 31.552C70.9289 32.168 71.0316 32.828 71.0463 33.532C71.0609 33.7667 71.0683 34.016 71.0683 34.28C71.0683 34.544 71.0609 34.7933 71.0463 35.028C71.0316 35.7173 70.9289 36.3773 70.7383 37.008C70.5476 37.624 70.2616 38.174 69.8803 38.658C69.5136 39.1273 69.0369 39.5087 68.4503 39.802C67.8783 40.0807 67.1816 40.22 66.3603 40.22C65.5096 40.22 64.7909 40.066 64.2043 39.758C63.6323 39.4353 63.1629 39.0393 62.7963 38.57V43.674C62.7963 43.8207 62.7523 43.938 62.6643 44.026C62.5763 44.1287 62.4516 44.18 62.2903 44.18H61.2343ZM65.8983 38.438C66.6609 38.438 67.2549 38.2767 67.6803 37.954C68.1203 37.6167 68.4356 37.184 68.6263 36.656C68.8169 36.1133 68.9269 35.534 68.9563 34.918C68.9709 34.4927 68.9709 34.0673 68.9563 33.642C68.9269 33.026 68.8169 32.454 68.6263 31.926C68.4356 31.3833 68.1203 30.9507 67.6803 30.628C67.2549 30.2907 66.6609 30.122 65.8983 30.122C65.1796 30.122 64.5929 30.2907 64.1383 30.628C63.6983 30.9653 63.3683 31.398 63.1483 31.926C62.9429 32.4393 62.8256 32.9673 62.7963 33.51C62.7816 33.7447 62.7743 34.0233 62.7743 34.346C62.7743 34.6687 62.7816 34.9547 62.7963 35.204C62.8109 35.7173 62.9283 36.2233 63.1483 36.722C63.3829 37.2207 63.7276 37.6313 64.1823 37.954C64.6369 38.2767 65.2089 38.438 65.8983 38.438ZM73.6798 44.18C73.5331 44.18 73.4084 44.1287 73.3058 44.026C73.2178 43.938 73.1738 43.8207 73.1738 43.674V29.066C73.1738 28.9193 73.2178 28.802 73.3058 28.714C73.4084 28.6113 73.5331 28.56 73.6798 28.56H74.6918C74.8384 28.56 74.9558 28.6113 75.0438 28.714C75.1464 28.802 75.1978 28.9193 75.1978 29.066V30.034C75.5498 29.55 76.0191 29.1467 76.6058 28.824C77.1924 28.5013 77.9258 28.34 78.8058 28.34C79.6271 28.34 80.3238 28.4793 80.8958 28.758C81.4824 29.0367 81.9591 29.418 82.3258 29.902C82.7071 30.386 82.9931 30.936 83.1838 31.552C83.3744 32.168 83.4771 32.828 83.4918 33.532C83.5064 33.7667 83.5138 34.016 83.5138 34.28C83.5138 34.544 83.5064 34.7933 83.4918 35.028C83.4771 35.7173 83.3744 36.3773 83.1838 37.008C82.9931 37.624 82.7071 38.174 82.3258 38.658C81.9591 39.1273 81.4824 39.5087 80.8958 39.802C80.3238 40.0807 79.6271 40.22 78.8058 40.22C77.9551 40.22 77.2364 40.066 76.6498 39.758C76.0778 39.4353 75.6084 39.0393 75.2418 38.57V43.674C75.2418 43.8207 75.1978 43.938 75.1098 44.026C75.0218 44.1287 74.8971 44.18 74.7358 44.18H73.6798ZM78.3438 38.438C79.1064 38.438 79.7004 38.2767 80.1258 37.954C80.5658 37.6167 80.8811 37.184 81.0718 36.656C81.2624 36.1133 81.3724 35.534 81.4018 34.918C81.4164 34.4927 81.4164 34.0673 81.4018 33.642C81.3724 33.026 81.2624 32.454 81.0718 31.926C80.8811 31.3833 80.5658 30.9507 80.1258 30.628C79.7004 30.2907 79.1064 30.122 78.3438 30.122C77.6251 30.122 77.0384 30.2907 76.5838 30.628C76.1438 30.9653 75.8138 31.398 75.5938 31.926C75.3884 32.4393 75.2711 32.9673 75.2418 33.51C75.2271 33.7447 75.2198 34.0233 75.2198 34.346C75.2198 34.6687 75.2271 34.9547 75.2418 35.204C75.2564 35.7173 75.3738 36.2233 75.5938 36.722C75.8284 37.2207 76.1731 37.6313 76.6278 37.954C77.0824 38.2767 77.6544 38.438 78.3438 38.438ZM95.5658 40.22C94.2898 40.22 93.2191 40.0293 92.3538 39.648C91.4885 39.252 90.8211 38.746 90.3518 38.13C89.8971 37.4993 89.6551 36.832 89.6258 36.128C89.6258 36.0107 89.6698 35.908 89.7578 35.82C89.8605 35.7173 89.9778 35.666 90.1098 35.666H91.2318C91.4078 35.666 91.5398 35.71 91.6278 35.798C91.7158 35.886 91.7745 35.9887 91.8038 36.106C91.8771 36.458 92.0531 36.81 92.3318 37.162C92.6251 37.4993 93.0285 37.7853 93.5418 38.02C94.0698 38.24 94.7445 38.35 95.5658 38.35C96.8271 38.35 97.7511 38.13 98.3378 37.69C98.9391 37.2353 99.2398 36.634 99.2398 35.886C99.2398 35.3727 99.0785 34.962 98.7558 34.654C98.4478 34.3313 97.9711 34.0453 97.3258 33.796C96.6805 33.5467 95.8445 33.2753 94.8178 32.982C93.7471 32.674 92.8598 32.3367 92.1558 31.97C91.4518 31.6033 90.9238 31.1487 90.5718 30.606C90.2345 30.0633 90.0658 29.374 90.0658 28.538C90.0658 27.746 90.2785 27.042 90.7038 26.426C91.1291 25.7953 91.7378 25.2967 92.5298 24.93C93.3365 24.5633 94.3118 24.38 95.4558 24.38C96.3651 24.38 97.1571 24.5047 97.8318 24.754C98.5211 24.9887 99.0931 25.3113 99.5478 25.722C100.002 26.118 100.347 26.5507 100.582 27.02C100.816 27.4747 100.941 27.922 100.956 28.362C100.956 28.4647 100.919 28.5673 100.846 28.67C100.772 28.758 100.655 28.802 100.494 28.802H99.3278C99.2251 28.802 99.1151 28.7727 98.9978 28.714C98.8951 28.6553 98.8145 28.5453 98.7558 28.384C98.6678 27.7827 98.3305 27.2767 97.7438 26.866C97.1571 26.4553 96.3945 26.25 95.4558 26.25C94.5025 26.25 93.7251 26.4333 93.1238 26.8C92.5371 27.1667 92.2438 27.7387 92.2438 28.516C92.2438 29.0147 92.3831 29.4327 92.6618 29.77C92.9405 30.0927 93.3805 30.3787 93.9818 30.628C94.5831 30.8773 95.3678 31.1413 96.3358 31.42C97.5091 31.7427 98.4698 32.0873 99.2178 32.454C99.9658 32.806 100.516 33.2533 100.868 33.796C101.234 34.324 101.418 35.006 101.418 35.842C101.418 36.766 101.176 37.558 100.692 38.218C100.208 38.8633 99.5258 39.362 98.6458 39.714C97.7805 40.0513 96.7538 40.22 95.5658 40.22ZM107.821 40C107 40 106.333 39.846 105.819 39.538C105.306 39.2153 104.932 38.768 104.697 38.196C104.463 37.6093 104.345 36.92 104.345 36.128V30.32H102.629C102.483 30.32 102.358 30.276 102.255 30.188C102.167 30.0853 102.123 29.9607 102.123 29.814V29.066C102.123 28.9193 102.167 28.802 102.255 28.714C102.358 28.6113 102.483 28.56 102.629 28.56H104.345V24.886C104.345 24.7393 104.389 24.622 104.477 24.534C104.58 24.4313 104.705 24.38 104.851 24.38H105.885C106.032 24.38 106.149 24.4313 106.237 24.534C106.34 24.622 106.391 24.7393 106.391 24.886V28.56H109.119C109.266 28.56 109.383 28.6113 109.471 28.714C109.574 28.802 109.625 28.9193 109.625 29.066V29.814C109.625 29.9607 109.574 30.0853 109.471 30.188C109.383 30.276 109.266 30.32 109.119 30.32H106.391V35.974C106.391 36.6633 106.509 37.206 106.743 37.602C106.978 37.998 107.396 38.196 107.997 38.196H109.339C109.486 38.196 109.603 38.2473 109.691 38.35C109.794 38.438 109.845 38.5553 109.845 38.702V39.494C109.845 39.6407 109.794 39.7653 109.691 39.868C109.603 39.956 109.486 40 109.339 40H107.821ZM115.975 40.22C114.86 40.22 113.929 40.0073 113.181 39.582C112.433 39.1567 111.861 38.57 111.465 37.822C111.069 37.0593 110.849 36.194 110.805 35.226C110.79 34.9767 110.783 34.6613 110.783 34.28C110.783 33.884 110.79 33.5687 110.805 33.334C110.849 32.3513 111.069 31.486 111.465 30.738C111.876 29.99 112.455 29.4033 113.203 28.978C113.951 28.5527 114.875 28.34 115.975 28.34C117.075 28.34 117.999 28.5527 118.747 28.978C119.495 29.4033 120.067 29.99 120.463 30.738C120.874 31.486 121.101 32.3513 121.145 33.334C121.16 33.5687 121.167 33.884 121.167 34.28C121.167 34.6613 121.16 34.9767 121.145 35.226C121.101 36.194 120.881 37.0593 120.485 37.822C120.089 38.57 119.517 39.1567 118.769 39.582C118.021 40.0073 117.09 40.22 115.975 40.22ZM115.975 38.526C116.884 38.526 117.61 38.24 118.153 37.668C118.696 37.0813 118.989 36.2307 119.033 35.116C119.048 34.896 119.055 34.6173 119.055 34.28C119.055 33.9427 119.048 33.664 119.033 33.444C118.989 32.3293 118.696 31.486 118.153 30.914C117.61 30.3273 116.884 30.034 115.975 30.034C115.066 30.034 114.332 30.3273 113.775 30.914C113.232 31.486 112.946 32.3293 112.917 33.444C112.902 33.664 112.895 33.9427 112.895 34.28C112.895 34.6173 112.902 34.896 112.917 35.116C112.946 36.2307 113.232 37.0813 113.775 37.668C114.332 38.24 115.066 38.526 115.975 38.526ZM123.768 40C123.621 40 123.497 39.956 123.394 39.868C123.306 39.7653 123.262 39.6407 123.262 39.494V29.088C123.262 28.9413 123.306 28.8167 123.394 28.714C123.497 28.6113 123.621 28.56 123.768 28.56H124.78C124.927 28.56 125.051 28.6113 125.154 28.714C125.257 28.8167 125.308 28.9413 125.308 29.088V30.056C125.601 29.5573 126.005 29.1833 126.518 28.934C127.031 28.6847 127.647 28.56 128.366 28.56H129.246C129.393 28.56 129.51 28.6113 129.598 28.714C129.686 28.802 129.73 28.9193 129.73 29.066V29.968C129.73 30.1147 129.686 30.232 129.598 30.32C129.51 30.408 129.393 30.452 129.246 30.452H127.926C127.134 30.452 126.511 30.6867 126.056 31.156C125.601 31.6107 125.374 32.234 125.374 33.026V39.494C125.374 39.6407 125.323 39.7653 125.22 39.868C125.117 39.956 124.993 40 124.846 40H123.768ZM135.298 40.22C133.788 40.22 132.585 39.758 131.69 38.834C130.796 37.8953 130.304 36.6193 130.216 35.006C130.202 34.8153 130.194 34.5733 130.194 34.28C130.194 33.972 130.202 33.7227 130.216 33.532C130.275 32.4907 130.517 31.5813 130.942 30.804C131.368 30.012 131.947 29.4033 132.68 28.978C133.428 28.5527 134.301 28.34 135.298 28.34C136.413 28.34 137.344 28.5747 138.092 29.044C138.855 29.5133 139.434 30.1807 139.83 31.046C140.226 31.9113 140.424 32.9233 140.424 34.082V34.456C140.424 34.6173 140.373 34.742 140.27 34.83C140.182 34.918 140.065 34.962 139.918 34.962H132.306C132.306 34.9767 132.306 35.006 132.306 35.05C132.306 35.094 132.306 35.1307 132.306 35.16C132.336 35.7613 132.468 36.326 132.702 36.854C132.937 37.3673 133.274 37.7853 133.714 38.108C134.154 38.4307 134.682 38.592 135.298 38.592C135.826 38.592 136.266 38.5113 136.618 38.35C136.97 38.1887 137.256 38.0127 137.476 37.822C137.696 37.6167 137.843 37.4627 137.916 37.36C138.048 37.1693 138.151 37.0593 138.224 37.03C138.298 36.986 138.415 36.964 138.576 36.964H139.632C139.779 36.964 139.896 37.008 139.984 37.096C140.087 37.1693 140.131 37.2793 140.116 37.426C140.102 37.646 139.984 37.9173 139.764 38.24C139.544 38.548 139.229 38.856 138.818 39.164C138.408 39.472 137.909 39.7287 137.322 39.934C136.736 40.1247 136.061 40.22 135.298 40.22ZM132.306 33.444H138.334V33.378C138.334 32.718 138.21 32.1313 137.96 31.618C137.726 31.1047 137.381 30.7013 136.926 30.408C136.472 30.1 135.929 29.946 135.298 29.946C134.668 29.946 134.125 30.1 133.67 30.408C133.23 30.7013 132.893 31.1047 132.658 31.618C132.424 32.1313 132.306 32.718 132.306 33.378V33.444Z" fill="#212529"/>
</svg>
