<svg width="42" height="42" viewBox="0 0 42 42" fill="none" xmlns="http://www.w3.org/2000/svg">
<path d="M1.99773 23.9151C0.891335 22.0383 0.228744 19.9422 0.0586943 17.7813C-0.34342 12.5911 1.30383 8.19207 5.5194 4.88285C7.40822 3.40272 9.75912 2.6041 12.1777 2.62094C13.4319 2.60559 14.685 2.70148 15.9216 2.90749C18.1311 3.2893 20.1974 4.03698 21.7609 5.77013C22.5977 5.25094 23.3953 4.74326 24.2058 4.2561C26.0489 3.14676 28.1292 2.4713 30.2837 2.28279C33.3349 2.00358 35.9133 3.1079 38.1314 5.08788C41.2525 7.87415 42.2613 11.4186 41.9445 15.4328C41.7604 17.5672 41.1801 19.6508 40.2322 21.5809C40.1448 21.7634 40.0761 21.9545 39.9834 22.1789C40.199 22.2788 40.4068 22.3942 40.6051 22.5241C41.0771 22.8838 41.031 23.3658 40.492 23.6397C40.2804 23.7497 40.0493 23.8187 39.811 23.843C39.0846 23.9028 38.666 24.3129 38.2634 24.8799C35.7916 28.3434 32.8623 31.4711 29.5522 34.1811C27.8143 35.6131 26.005 36.9634 24.1999 38.3143C23.589 38.7348 22.9516 39.1168 22.2914 39.4582C21.9851 39.6486 21.6312 39.7529 21.2684 39.7596C20.9057 39.7665 20.548 39.6752 20.2345 39.4962C19.4869 39.0765 18.7884 38.5722 18.0742 38.0965C17.2098 37.5205 16.3713 36.9047 15.4868 36.3605C11.5655 33.9476 7.95728 31.1648 4.86659 27.7711C4.27024 27.1163 3.72368 26.4152 3.19463 25.7064C3.10491 25.5572 2.97459 25.4355 2.81824 25.3549C2.6619 25.2742 2.48572 25.2377 2.30946 25.2497C1.86112 25.2497 1.41342 25.2168 0.970078 25.1514C0.607999 25.1096 0.321094 24.92 0.334731 24.5383C0.349417 24.1246 0.639485 23.9249 1.05681 23.9165C1.32203 23.9109 1.58862 23.9151 1.99773 23.9151ZM19.3444 22.5791C20.1792 22.0138 21.0863 21.983 22.0281 22.0974C22.7678 22.2017 23.5135 22.2613 24.2605 22.2755C28.3874 22.2738 32.5144 22.2365 36.6411 22.2344C37.1931 22.2344 37.4978 22.0222 37.7635 21.5664C39.3271 18.8852 40.1647 16.032 40.0042 12.9246C39.8061 9.08759 37.8887 6.3625 34.4145 4.66104C33.2787 4.11456 32.01 3.88914 30.7507 4.01011C28.9852 4.1389 27.2666 4.62692 25.7043 5.44298C24.7322 5.95686 23.7956 6.53585 22.8398 7.08005C21.9365 7.59393 21.3406 7.53142 20.5995 6.81404C19.8724 6.06796 18.9584 5.52138 17.9487 5.22869C16.8276 4.93098 15.6934 4.61116 14.5446 4.49433C11.0265 4.1365 7.87195 4.97003 5.43006 7.61823C1.60123 11.7712 0.936863 17.8388 3.4777 22.7014C3.65061 23.0325 3.86618 23.3422 4.04224 23.6294C5.543 23.4571 5.77604 23.3137 6.55037 22.2351C6.89047 21.7192 7.27356 21.2317 7.69572 20.7777C8.3961 20.0835 9.19003 20.2125 9.69459 21.0619C9.89992 21.4581 10.0841 21.8646 10.2465 22.2796C10.389 21.8766 10.4913 21.6147 10.5747 21.3473C10.8207 20.5646 10.9994 19.7542 11.3211 19.0039C11.5617 18.4103 11.9133 17.8659 12.3578 17.3986C13.082 16.6792 13.9678 16.8686 14.3673 17.7962C14.6187 18.3897 14.7889 19.0133 14.8734 19.6506C15.0939 21.2753 15.2445 22.9091 15.4314 24.5383C15.4769 24.7874 15.536 25.0339 15.6086 25.2766C15.8642 24.4703 16.0233 23.782 16.3045 23.1455C16.509 22.6935 16.8008 22.2844 17.1638 21.9408C17.6791 21.4535 18.2363 21.4963 18.7615 21.9634C18.9575 22.1385 19.1243 22.3444 19.3444 22.5791ZM13.3687 18.7547L13.0967 18.7254C12.9669 19.0773 12.8201 19.4243 12.7106 19.7822C12.4022 20.7907 12.1363 21.8127 11.799 22.8117C11.6287 23.3413 11.3861 23.8459 11.0778 24.312C10.6617 24.9172 9.94146 24.9133 9.50175 24.3223C9.27746 23.9792 9.10106 23.6084 8.97726 23.2193C8.85854 22.9072 8.79928 22.5732 8.68581 22.1431C8.13719 22.8341 7.7485 23.5278 7.16963 23.9963C6.57275 24.4796 5.79109 24.7435 4.99315 25.1533C5.73235 25.9914 6.46175 26.9176 7.29325 27.7427C10.0429 30.4824 13.1485 32.8556 16.53 34.8017C17.6866 35.4663 18.7884 36.2226 19.9453 36.887C20.5549 37.2372 21.2452 37.3792 21.8964 36.9525C22.6904 36.4322 23.4691 35.8884 24.2392 35.3355C27.8476 32.7674 31.146 29.8058 34.0709 26.5073C34.7466 25.7403 35.3851 24.9417 36.1222 24.0602C35.9372 24.0193 35.7502 23.9883 35.5617 23.9674C30.8442 23.8132 26.1101 24.0585 21.4127 23.3917C21.0894 23.3732 20.7668 23.4367 20.4759 23.5763C20.0516 23.7524 19.6243 24.2209 19.2633 24.1645C18.8556 24.101 18.5199 23.5941 18.1019 23.2365C17.9739 23.5991 17.8092 23.973 17.7116 24.3627C17.527 25.1015 17.4124 25.8578 17.208 26.5906C17.0825 27.1014 16.8823 27.5918 16.6136 28.0466C16.1183 28.8205 15.1693 28.7749 14.7455 27.9673C14.4698 27.4808 14.2768 26.9534 14.1741 26.4061C13.9484 24.8739 13.7982 23.3307 13.6367 21.7899C13.5306 20.7794 13.4568 19.7664 13.3687 18.7547Z" fill="#1686FF"/>
</svg>
