<svg width="42" height="42" viewBox="0 0 42 42" fill="none" xmlns="http://www.w3.org/2000/svg">
<path d="M14.6954 29.4665C14.9444 29.9832 15.3068 30.4374 15.7557 30.795C16.2046 31.1525 16.7285 31.4045 17.2883 31.532C20.6372 32.3754 23.8125 31.9183 26.5369 29.7291C28.8019 27.9091 29.5455 25.3089 29.5528 22.5083C29.5368 20.6962 29.115 18.9108 28.3179 17.283C26.6272 17.4963 26.4075 17.4524 25.1594 16.6686C22.5883 18.4446 20.0248 20.2152 17.469 21.9803C17.3712 22.0478 17.2706 22.1115 17.1685 22.1711C16.089 22.8089 15.6033 22.722 14.7794 21.7028C13.7663 22.3994 12.7525 23.1054 11.7278 23.7955C11.3663 24.054 10.9823 24.2797 10.5806 24.4699C9.92332 24.7581 9.41305 24.6052 9.05478 23.9945C8.59023 23.2025 8.18556 22.3758 7.74705 21.5684C7.49125 21.0971 7.5807 20.7231 8.01764 20.4149C9.37349 19.4579 10.7261 18.4997 12.0753 17.5402C12.0775 17.5067 12.0738 17.4732 12.0644 17.441C11.0855 15.7473 11.3536 15.7847 12.5793 14.7207C15.7711 11.9203 19.1168 9.29985 22.6008 6.87162C23.9933 5.91171 25.3298 4.87059 26.6929 3.86802C27.6934 3.13204 28.0027 3.15289 28.9076 4.00456C28.9922 4.08418 29.0874 4.15235 29.1872 4.23352C30.9303 2.96729 32.6692 1.72536 34.3829 0.44976C35.2339 -0.184396 35.7566 -0.17558 36.4296 0.653368C36.8785 1.20656 37.2977 1.78318 37.6855 2.38082C38.3604 3.42156 38.1634 4.15011 37.1391 4.86562C35.7519 5.83402 34.389 6.83745 33.0223 7.83482C32.7406 8.04054 32.4879 8.28581 32.1779 8.55016C32.3576 8.793 32.4868 8.98085 32.6294 9.15726C33.3052 9.99314 33.206 10.6075 32.3083 11.2335C31.726 11.6396 31.1583 12.0661 30.6005 12.4721C30.6604 13.0305 30.7047 13.5268 30.7716 14.0201C30.7879 14.1644 30.8417 14.3019 30.9279 14.4191C32.5268 16.3906 33.3059 18.7093 33.6978 21.1613C34.0972 23.654 33.9958 26.1284 33.0664 28.5201C31.7465 31.9161 29.2089 34.0612 25.935 35.4508C25.6422 35.575 25.3435 35.6854 25.0415 35.8048L26.1741 38.5813C26.476 38.6075 26.9127 38.6333 27.3467 38.6854C28.6902 38.8456 29.4156 40.0626 28.888 41.2903C28.6647 41.8107 28.176 41.8593 27.6857 41.8735C26.2014 41.9169 24.7173 41.9967 23.233 41.9996C20.6785 42.0045 18.1241 41.9637 15.5697 41.9356C15.3613 41.9323 15.1541 41.9032 14.9529 41.8489C14.3121 41.678 14.099 41.2877 14.2757 40.6413C14.5995 39.4501 15.4588 38.736 16.7033 38.6292C16.9973 38.604 17.2925 38.5922 17.5846 38.5745L18.3314 36.7623C16.24 36.4683 14.1645 36.1229 12.4035 34.8761C10.6233 33.6156 9.49436 31.8604 8.69933 29.7649C7.93624 29.7649 7.13961 29.7883 6.34527 29.7565C5.81182 29.7414 5.28106 29.6754 4.76024 29.5591C4.52339 29.5118 4.31033 29.3838 4.15758 29.1968C4.00483 29.01 3.92182 28.7758 3.92278 28.5345C3.90501 28.2943 3.97051 28.0551 4.10823 27.8574C4.24595 27.6595 4.44753 27.515 4.67925 27.4478C5.07122 27.3155 5.4812 27.2437 5.8949 27.2354C9.28206 27.2187 12.6694 27.218 16.0568 27.2329C16.3807 27.2466 16.7012 27.3056 17.0088 27.4081C17.3785 27.5179 17.6925 27.7972 17.6206 28.1753C17.5288 28.5033 17.3316 28.7923 17.0593 28.9973C16.8462 29.1673 16.5119 29.2055 16.2233 29.2575C15.7351 29.3444 15.2392 29.3945 14.6954 29.4665ZM30.8407 9.89809C29.2034 8.60514 28.6039 6.67662 27.3393 5.24127C24.8095 6.61678 13.842 14.9791 13.0622 16.1245L16.3164 20.4435L24.1235 15.0317C23.8708 13.5167 23.6102 11.9842 25.2157 10.9707C26.6571 10.0613 28.1159 9.7477 29.5974 10.9223L30.8407 9.89809ZM29.1931 16.7484C30.3963 18.979 30.7552 19.9351 30.8205 22.5819C30.902 25.8814 29.9017 28.8414 27.1578 30.8647C24.0118 33.1846 20.4178 33.6574 16.6609 32.7516C15.0721 32.369 13.9071 31.2906 12.9527 29.9862C12.8066 29.7869 12.5706 29.5005 12.3871 29.509C11.7587 29.5373 11.0953 29.4629 10.5094 29.7772C10.9208 31.7962 12.7097 33.9178 14.7017 34.6999C16.3159 35.3118 18.0342 35.6034 19.7602 35.5581C21.964 35.5179 24.1298 34.9771 26.0934 33.9766C29.2395 32.4085 31.4087 30.0138 32.0935 26.493C32.6319 23.7223 32.2962 21.0019 31.3223 18.3625C31.0109 17.5183 30.6347 16.6974 30.2629 15.8069L29.1931 16.7484ZM31.4508 7.06379L35.8926 3.4039L35.0079 1.94146C33.3454 3.10171 31.7309 4.22851 30.0675 5.38963C30.427 5.84634 30.7139 6.21854 31.0098 6.58332C31.1378 6.74099 31.2846 6.88409 31.4504 7.06379H31.4508ZM25.2509 12.7858C25.4111 13.4418 25.4802 14.0375 25.7025 14.5701C26.2269 15.8333 27.1734 16.0416 28.2447 15.1899C28.9764 14.6083 29.0891 13.9212 28.6079 12.9757C28.2571 12.2864 27.6392 12.013 26.8191 12.2355C26.3372 12.3658 25.8754 12.5632 25.2502 12.7858H25.2509ZM19.6989 36.8426L19.366 38.237H23.9584C23.792 37.5258 23.6532 36.9331 23.5164 36.3486L19.6989 36.8426ZM15.9215 40.5629C19.689 40.6409 23.4573 40.6824 27.246 40.3061C27.0202 40.1056 26.77 39.9356 26.5166 39.9324C25.8727 39.9239 25.2275 40.025 24.5835 40.0191C22.5103 40.0017 20.4375 39.9552 18.3644 39.9185C17.5043 39.9036 16.653 39.9265 15.9222 40.5629H15.9215ZM12.9825 18.885L9.23474 21.388L10.2126 22.5454C11.4321 21.6735 12.6981 21.0152 13.635 19.8711L12.9825 18.885Z" fill="#1686FF"/>
</svg>
