<svg width="24" height="24" viewBox="0 0 50 50" fill="none" xmlns="http://www.w3.org/2000/svg">
<path fill-rule="evenodd" clip-rule="evenodd" d="M25 50C38.8075 50 50 38.8075 50 25C50 11.1925 38.8075 0 25 0C11.1925 0 0 11.1925 0 25C0 38.8075 11.1925 50 25 50ZM38.4275 17.0875C38.5445 16.967 38.6359 16.8242 38.6965 16.6676C38.757 16.511 38.7854 16.3438 38.7799 16.1759C38.7744 16.0081 38.7352 15.8431 38.6645 15.6908C38.5938 15.5385 38.4932 15.402 38.3686 15.2894C38.244 15.1768 38.098 15.0905 37.9394 15.0356C37.7807 14.9807 37.6126 14.9583 37.445 14.9698C37.2775 14.9813 37.114 15.0264 36.9643 15.1025C36.8146 15.1785 36.6818 15.284 36.5737 15.4125L21.6 31.9587L13.3625 24.095C13.1228 23.8659 12.8019 23.7414 12.4705 23.7489C12.139 23.7564 11.8241 23.8953 11.595 24.135C11.3659 24.3747 11.2414 24.6956 11.2489 25.027C11.2564 25.3585 11.3953 25.6734 11.635 25.9025L20.8025 34.6525L21.7313 35.54L22.5925 34.5875L38.4275 17.0875Z" fill="#000"/>
</svg>
