<svg width="201" height="165" viewBox="0 0 201 165" fill="none" xmlns="http://www.w3.org/2000/svg">
<path d="M227.698 226.549C200.382 254.125 153.241 278.112 112.027 254.203C112.027 254.203 80.3585 236.568 55.597 210.316C40.9009 194.736 32.8908 174.378 33.3821 153.86C33.8734 133.343 42.8324 114.412 58.2081 101.339C68.195 92.849 77.6373 83.4111 84.8834 72.4908C97.4946 53.4851 110.477 36.6256 136.321 38.6323C159.396 40.4238 185.746 46.3721 205.978 58.7858C219.727 67.2221 233.092 79.5032 243.152 92.0174C294.419 155.793 255.014 198.975 227.698 226.549Z" fill="#F4F7FA"/>
<path d="M101.31 148.136C101.31 148.136 127.661 173.403 157.671 155.333C187.68 137.262 211.604 83.1363 209.987 73.9117C208.663 66.3536 203.803 61.6239 198.033 57.0944C193.036 53.172 194.608 56.896 174.181 66.8954C153.753 76.8948 156.754 83.4178 133.838 90.0726C110.923 96.7269 84.1373 130.446 101.31 148.136Z" fill="#6AA694"/>
<path d="M198.975 74.1459C201.032 69.7807 201.191 64.7988 199.567 60.2544C199.559 60.2329 199.552 60.2114 199.544 60.1896C197.445 54.194 191.628 49.5474 171.2 59.5468C150.773 69.5462 149.843 74.6461 126.927 81.3004C104.012 87.9547 83.5903 130.324 100.763 148.014C100.763 148.014 102.096 149.294 103.799 150.239C115.587 153.731 130.412 153.92 146.141 143.831C167.808 129.933 187.256 98.9994 198.975 74.1459Z" fill="#80C0B1"/>
<path d="M112.083 148.543C105.915 147.678 100.793 143.289 99.1699 137.276C94.2379 119.002 110.383 89.6816 127.884 84.5991C142.696 80.2978 148.622 76.6153 156.124 71.9533C163.625 67.2918 192.779 47.2531 197.847 62.8696C200.583 71.2998 191.212 82.2993 187.375 89.1726C183.615 95.9044 179.566 102.481 175.153 108.805C170.766 115.089 165.731 123.307 159.588 128.011C155.21 131.363 138.775 152.291 112.083 148.543Z" fill="#F7CC7F"/>
<path d="M129.068 95.6086C141.536 86.3345 156.827 85.7849 163.221 94.3809C169.615 102.977 164.691 117.463 152.223 126.738C139.754 136.012 124.464 136.562 118.07 127.965C111.676 119.369 116.6 104.883 129.068 95.6086Z" fill="#D9B36F"/>
<path d="M141.03 72.6173C144.934 69.4889 146.728 62.5808 146.942 58.2974C147.221 52.7284 145.581 46.9532 142.324 42.0349C139.087 37.1482 134.442 33.3961 129.244 31.47C125.241 29.9866 120.63 29.4628 116.414 30.6644C114.524 31.2032 112.051 32.055 111.056 33.8024C109.911 35.8125 110.271 38.4701 111.508 40.3378C113.431 43.2419 117.129 44.1803 119.766 42.4333C119.773 42.4291 119.779 42.4242 119.786 42.4196L133.089 62.7382C133.076 62.7469 133.062 62.7548 133.048 62.764C130.411 64.511 129.832 68.281 131.755 71.1855C133.175 73.3288 135.961 74.734 138.526 73.9613C139.442 73.6848 140.275 73.2214 141.03 72.6173Z" fill="#F7CC7F"/>
<path d="M132.56 70.6517C130.936 68.199 131.391 65.0264 133.573 63.5737C133.589 63.5642 133.602 63.5558 133.615 63.5475C133.83 63.4076 133.981 63.1878 134.033 62.9367C134.086 62.6857 134.037 62.4238 133.897 62.2089C133.897 62.2089 120.591 41.8874 120.59 41.8862C120.446 41.6676 120.218 41.5173 119.961 41.4698C119.702 41.4224 119.436 41.4815 119.223 41.6343C117.034 43.0757 113.936 42.2563 112.312 39.804C111.184 38.1007 111.012 35.8291 111.895 34.2799C112.693 32.8793 114.87 32.1082 116.678 31.5928C120.366 30.5411 124.71 30.8188 128.909 32.3747C133.916 34.2303 138.394 37.8501 141.519 42.5673C144.663 47.3145 146.247 52.884 145.979 58.2487C145.787 62.087 144.149 68.8805 140.426 71.8633C139.741 72.4124 139.008 72.8071 138.247 73.0361C135.999 73.7135 133.684 72.3491 132.56 70.6517Z" fill="#FAE0B2"/>
<path d="M108.946 73.8779C103.529 70.988 100.547 66.486 100 60.3711C107.221 53.6458 115.336 48.2708 124.346 44.2463C129.762 47.1358 132.744 51.6382 133.291 57.7531C126.07 64.4788 117.955 69.8534 108.946 73.8779Z" fill="#FAE0B2"/>
<path d="M126.477 48.2375C126.477 48.2375 119.656 36.2033 119.096 36.4881C117.117 37.494 126.477 48.2375 126.477 48.2375Z" fill="#F7CC7F"/>
<path d="M127.274 48.1663C127.274 48.1663 124.588 34.5971 123.967 34.6912C121.772 35.023 127.274 48.1663 127.274 48.1663Z" fill="#F7CC7F"/>
<path d="M128.195 48.4344C128.195 48.4344 130.662 34.824 130.049 34.6837C127.886 34.1895 128.195 48.4344 128.195 48.4344Z" fill="#F7CC7F"/>
<path d="M129.066 49.2122C129.066 49.2122 137.535 38.2756 137.056 37.8688C135.365 36.4316 129.066 49.2122 129.066 49.2122Z" fill="#F7CC7F"/>
<path d="M129.42 50.0128C129.42 50.0128 140.917 42.3221 140.592 41.7846C139.443 39.8856 129.42 50.0128 129.42 50.0128Z" fill="#F7CC7F"/>
<path d="M129.994 53.3699C129.994 53.3699 139.601 63.3218 139.17 63.7777C137.645 65.3907 129.994 53.3699 129.994 53.3699Z" fill="#F7CC7F"/>
<path d="M130.299 52.4609C130.299 52.4609 142.882 58.2057 142.648 58.7882C141.819 60.847 130.299 52.4609 130.299 52.4609Z" fill="#F7CC7F"/>
<path d="M130.158 51.3023C130.158 51.3023 143.972 50.5924 144.033 51.2178C144.247 53.4265 130.158 51.3023 130.158 51.3023Z" fill="#F7CC7F"/>
<path d="M129.703 50.5544C129.703 50.5544 142.581 45.5049 142.837 46.0786C143.739 48.1063 129.703 50.5544 129.703 50.5544Z" fill="#F7CC7F"/>
<path d="M104 171.442L67.5934 94C46.2083 104.053 37.0222 129.54 47.0753 150.924C57.1288 172.31 82.6149 181.496 104 171.442Z" fill="#D5715B"/>
<path d="M72.3863 163.272L80.0097 136.63L56.0312 147.902C59.5521 154.815 65.2758 160.183 72.3863 163.272Z" fill="#FF8E75"/>
<path d="M84.2329 139.074L76.856 164.855C83.2188 166.622 89.9255 166.477 96.1578 164.44L84.2329 139.074Z" fill="#FF8E75"/>
<path d="M78.7081 132.013C69.9802 128.043 62.2872 124.661 54.3181 121.724C51.8133 128.842 51.7802 136.434 54.2203 143.525L78.7081 132.013Z" fill="#FF8E75"/>
<path d="M56.1968 117.373C63.5202 120.082 70.588 123.145 78.4065 126.681L67.9824 104.507C63.0063 107.655 58.9222 112.115 56.1968 117.373Z" fill="#FF8E75"/>
<path d="M84.5575 152.299C85.5531 152.452 86.5041 151.638 86.6819 150.481C86.8594 149.324 86.0517 146.02 85.0476 145.941C84.0435 145.862 83.2543 148.77 83.0768 149.927C82.8985 151.085 83.5619 152.146 84.5575 152.299Z" fill="#F7CC7F"/>
<path d="M90.6159 162.567C91.5788 162.271 92.0805 161.124 91.7363 160.005C91.3921 158.886 89.2257 156.263 88.2875 156.63C87.3492 156.997 87.9056 159.958 88.2498 161.077C88.5936 162.196 89.6531 162.863 90.6159 162.567Z" fill="#F7CC7F"/>
<path d="M66.0007 159.3C66.897 159.759 68.0566 159.288 68.591 158.246C69.1254 157.205 69.4033 153.814 68.4755 153.423C67.5476 153.031 65.8794 155.54 65.3455 156.581C64.8111 157.622 65.1045 158.84 66.0007 159.3Z" fill="#F7CC7F"/>
<path d="M65.7774 149.49C66.1632 150.421 67.3528 150.811 68.4339 150.362C69.5154 149.914 71.9201 147.509 71.4665 146.609C71.0122 145.71 68.1174 146.545 67.0364 146.993C65.9549 147.443 65.3913 148.56 65.7774 149.49Z" fill="#F7CC7F"/>
<path d="M57.6544 137.53C58.0401 138.461 59.2298 138.852 60.3112 138.403C61.3919 137.954 63.7974 135.549 63.3431 134.65C62.8892 133.751 59.9944 134.585 58.9129 135.034C57.8318 135.482 57.2682 136.6 57.6544 137.53Z" fill="#F7CC7F"/>
<path d="M65.8495 132.5C65.6378 133.484 66.3935 134.483 67.5381 134.729C68.6827 134.975 72.0287 134.366 72.1669 133.368C72.3051 132.37 69.4496 131.409 68.3054 131.163C67.1608 130.916 66.0613 131.515 65.8495 132.5Z" fill="#F7CC7F"/>
<path d="M61.6747 115.432C61.1037 116.262 61.4221 117.472 62.3865 118.136C63.3505 118.8 66.6769 119.511 67.1848 118.641C67.6926 117.771 65.4188 115.795 64.4548 115.131C63.4903 114.468 62.2456 114.602 61.6747 115.432Z" fill="#F7CC7F"/>
<path d="M68.8914 115.903C68.0036 116.379 67.7322 117.601 68.285 118.633C68.8379 119.665 71.4686 121.821 72.3187 121.281C73.1687 120.741 72.053 117.942 71.5002 116.91C70.9469 115.878 69.7792 115.428 68.8914 115.903Z" fill="#F7CC7F"/>
</svg>
