<svg width="70" height="70" viewBox="0 0 70 70" fill="none" xmlns="http://www.w3.org/2000/svg">
<g clip-path="url(#clip0_6789_1179)">
<path d="M35 70C54.33 70 70 54.33 70 35C70 15.67 54.33 0 35 0C15.67 0 0 15.67 0 35C0 54.33 15.67 70 35 70Z" fill="#FEB215"/>
<path d="M54.6474 61.5016H15.3486L21.2916 44.6096H48.7044L54.6474 61.5016Z" fill="#CC4701" stroke="white" stroke-miterlimit="10"/>
<path d="M40.6718 59.4176H40.6658C40.6776 59.4076 40.7114 59.3938 40.7114 59.4018L38.9284 54.4592H31.2838L29.503 59.3978C29.5108 59.3918 29.5346 59.3998 29.5268 59.4116L29.501 59.4018C29.501 59.691 29.8634 60 30.4836 60.2754L31.1372 58.336L32.3436 58.6708L31.6742 60.6656C32.312 60.826 33.0608 60.947 33.877 61.0064C34.0474 61.0182 34.2196 61.0302 34.396 61.036V58.9006H35.6598V61.04C35.852 61.032 36.0422 61.0242 36.2284 61.0102H36.2344C37.1 60.9508 37.8964 60.8202 38.57 60.6478L37.9044 58.6708L39.1128 58.336L39.7566 60.2516C40.3568 59.9842 40.7114 59.681 40.7114 59.4018L40.6718 59.4176ZM36.3274 56.7116L33.6334 59.5958V56.5768C33.0172 56.3154 32.621 55.8994 32.621 55.4298H37.7162C37.7162 55.9866 37.1516 56.4718 36.3274 56.7116Z" fill="white"/>
<path d="M54.327 63.332H15.6582L15.3135 61.6858L54.6894 61.6956L54.327 63.332Z" fill="#CC4701" stroke="white" stroke-miterlimit="10"/>
<path d="M18.8391 35.4041L22.8349 26.5529L27.7417 18.5618" stroke="white" stroke-width="6" stroke-miterlimit="10" stroke-linecap="round"/>
<path d="M51.3157 35.4041L47.3201 26.5529L42.4131 18.5618" stroke="white" stroke-width="6" stroke-miterlimit="10" stroke-linecap="round"/>
<path d="M34.6923 12.8091C37.7657 12.8091 40.2569 10.3177 40.2569 7.24451C40.2569 4.17127 37.7657 1.67993 34.6923 1.67993C31.6191 1.67993 29.1279 4.17127 29.1279 7.24451C29.1279 10.3177 31.6191 12.8091 34.6923 12.8091Z" fill="white"/>
<path d="M41.7613 24.9148L41.9041 33.0902L36.4127 36.6244C36.1889 35.822 35.5133 35.2436 34.7883 35.2436C34.1327 35.2436 33.5661 35.7132 33.2967 36.3946C33.2551 36.4996 33.1203 36.5312 33.0391 36.452L28.0193 31.6106L28.2591 25.515C28.3481 23.855 28.0331 22.1968 27.3399 20.6854C26.6147 19.1046 25.5193 18.0546 25.8223 16.9928C25.8403 16.9294 26.4207 16.3926 26.8011 16.2103C27.2843 15.9786 27.6211 15.7745 28.0529 15.622L31.2879 14.2789C33.4255 13.2825 36.1671 13.328 38.3323 14.2571L42.0961 15.6319C42.4983 15.7765 42.9281 16.0083 43.3007 16.2183C43.8255 16.5154 44.3129 16.8126 44.2297 16.9968C44.1207 17.2424 43.2511 19.5404 42.4251 21.3886C41.9317 22.492 41.7059 23.7024 41.7613 24.9148Z" fill="white"/>
<path d="M26.9573 53.7637L31.0163 31.8005" stroke="white" stroke-width="6" stroke-miterlimit="10" stroke-linecap="round"/>
<path d="M42.7045 53.7637L38.6455 31.8005" stroke="white" stroke-width="6" stroke-miterlimit="10" stroke-linecap="round"/>
<path d="M45.6455 20.408C45.6455 24.277 40.9763 18.1577 35.1245 18.1577C29.2727 18.1577 24.4531 24.277 24.4531 20.408C24.4531 16.5392 29.1975 13.4033 35.0493 13.4033C40.9011 13.4033 45.6455 16.5392 45.6455 20.408Z" fill="white"/>
</g>
<defs>
<clipPath id="clip0_6789_1179">
<rect width="70" height="70" fill="white"/>
</clipPath>
</defs>
</svg>

