<svg width="227" height="158" viewBox="0 0 227 158" fill="none" xmlns="http://www.w3.org/2000/svg">
<path d="M48.4461 106.239C37.9547 136.391 38.1003 180.508 72.9349 204.027C72.9349 204.027 99.1322 222.344 129.254 232.487C147.131 238.506 166.051 237.807 181.723 230.55C197.395 223.292 208.482 210.087 212.493 193.937C215.098 183.447 218.652 173.056 224.223 163.849C233.919 147.824 241.808 132.235 230.007 113.133C219.47 96.0767 204.42 77.9088 186.796 66.591C174.819 58.8997 160.022 52.7921 146.354 49.2915C76.7026 31.4528 58.9366 76.0886 48.4461 106.239Z" fill="#F4F7FA"/>
<path d="M109.446 147.076L171.48 163.168L170.539 166.794C169.164 172.095 163.752 175.278 158.452 173.902L115.615 162.79C110.314 161.415 107.131 156.003 108.507 150.701L109.446 147.076Z" fill="#FEBD45"/>
<path d="M191.87 84.5607L129.837 68.4693L130.777 64.8423C132.153 59.5408 137.564 56.3586 142.865 57.7341L185.701 68.846C191.003 70.2215 194.185 75.6332 192.81 80.9337L191.87 84.5607Z" fill="#FEBD45"/>
<path d="M191.362 46.2679L148.695 35.2L137.077 79.9883L179.744 91.0563L191.362 46.2679Z" fill="#7180CC"/>
<path d="M137.069 79.9733L131.491 78.5269L141.662 39.3164C142.461 36.2357 145.605 34.3868 148.686 35.1862L137.069 79.9733Z" fill="#808EC6"/>
<path d="M179.736 91.0403L185.313 92.4867L195.484 53.2771C196.283 50.1965 194.434 47.0526 191.354 46.2532L179.736 91.0403Z" fill="#808EC6"/>
<path opacity="0.09" d="M187.996 59.2474L145.329 48.1794L144.154 52.7091L186.821 63.7771L187.996 59.2474Z" fill="white"/>
<path d="M109.704 185.425L152.371 196.493L163.989 151.705L121.322 140.637L109.704 185.425Z" fill="#7180CC"/>
<path d="M163.995 151.723L169.572 153.17L159.401 192.38C158.602 195.461 155.458 197.31 152.377 196.51L163.995 151.723Z" fill="#808EC6"/>
<path d="M121.328 140.656L115.751 139.21L105.58 178.42C104.781 181.5 106.63 184.644 109.71 185.443L121.328 140.656Z" fill="#808EC6"/>
<path d="M187.36 75.7558L138.059 62.9674C129.547 60.7599 120.858 65.8697 118.65 74.3813L102.514 136.59C100.306 145.102 105.416 153.792 113.928 155.999L163.228 168.787C171.74 170.995 180.43 165.885 182.637 157.373L198.774 95.1645C200.981 86.653 195.871 77.9632 187.36 75.7558Z" fill="#FEBD45"/>
<path d="M187.934 83.5398L133.551 69.4335C129.846 68.4721 126.063 70.6968 125.102 74.4024L108.161 139.708C107.2 143.414 109.425 147.196 113.13 148.157L167.513 162.264C171.218 163.225 175.001 161.001 175.962 157.295L192.903 91.9891C193.863 88.2835 191.638 84.5012 187.934 83.5398Z" fill="#808EC6"/>
<path d="M115.561 86.2899C113.791 85.8308 112.729 84.025 113.188 82.2546L115.108 74.854C115.567 73.0846 117.373 72.0225 119.143 72.4817L115.561 86.2899Z" fill="#46AACC"/>
<path d="M109.284 110.488C107.515 110.029 106.452 108.223 106.912 106.454L108.831 99.0534C109.291 97.284 111.096 96.222 112.866 96.6811L109.284 110.488Z" fill="#46AACC"/>
<path d="M189.407 131.272L199.266 93.2646C201.036 93.7238 202.098 95.5296 201.639 97.299L193.442 128.899C192.982 130.668 191.177 131.731 189.407 131.272Z" fill="#46AACC"/>
<path d="M189.966 90.9932L172.911 156.742C172.481 158.402 170.779 159.402 169.12 158.971L113.327 144.499C111.667 144.069 110.668 142.368 111.098 140.708L128.153 74.9593C128.585 73.2944 130.283 72.2995 131.944 72.7299L187.736 87.2023C189.396 87.6327 190.398 89.3283 189.966 90.9932Z" fill="#7180CC"/>
<path d="M135.218 82.5698C138.125 83.3241 138.425 85.683 138.425 85.683C138.425 85.683 139.834 83.767 142.741 84.5213C145.648 85.2757 147.443 90.6682 135.697 96.1997C128.121 85.6571 132.311 81.8164 135.218 82.5698Z" fill="#EB5A4F"/>
<path d="M187.737 87.2024L155.113 78.7397L136.496 150.509L169.12 158.971C170.78 159.402 172.481 158.402 172.911 156.742L189.966 90.9933C190.398 89.3284 189.396 87.6328 187.737 87.2024Z" fill="#95A5DA"/>
<path d="M139.255 110.895C138.266 114.707 134.374 116.997 130.56 116.008C126.747 115.019 124.458 111.126 125.446 107.313C126.435 103.5 130.328 101.21 134.142 102.199C137.955 103.188 140.244 107.082 139.255 110.895Z" fill="#92EB85"/>
<path d="M129.22 111.386L128.684 109.171C128.569 108.695 128.861 108.215 129.337 108.1C129.814 107.985 130.294 108.277 130.409 108.753L130.726 110.062L135.723 107.451C136.158 107.224 136.694 107.392 136.921 107.826C137.148 108.261 136.98 108.797 136.545 109.025L130.722 112.067C130.12 112.382 129.381 112.047 129.22 111.386Z" fill="white"/>
<path d="M182.358 94.8122L157.663 88.4062L157.082 90.6442L181.777 97.0502L182.358 94.8122Z" fill="white"/>
<path d="M181.102 99.6516L156.407 93.2456L155.827 95.4835L180.522 101.889L181.102 99.6516Z" fill="white"/>
<path d="M179.847 104.492L155.151 98.0862L154.571 100.324L179.266 106.73L179.847 104.492Z" fill="white"/>
<path d="M177.797 137.91L172.912 156.742C172.482 158.402 170.78 159.402 169.121 158.971L113.328 144.499C111.668 144.069 110.669 142.368 111.099 140.708L115.983 121.876L177.797 137.91Z" fill="#808EC6"/>
<path d="M166.382 90.6653L157.665 88.4038L157.084 90.6417L165.802 92.9032L166.382 90.6653Z" fill="#46AACC"/>
<path d="M169.498 96.6411L156.407 93.2454L155.827 95.4833L168.917 98.8791L169.498 96.6411Z" fill="#46AACC"/>
<path d="M176.485 103.62L155.151 98.0859L154.571 100.324L175.904 105.858L176.485 103.62Z" fill="#46AACC"/>
<path d="M177.336 114.172L152.641 107.766L152.06 110.004L176.755 116.41L177.336 114.172Z" fill="white"/>
<path d="M176.08 119.011L151.385 112.605L150.805 114.843L175.5 121.249L176.08 119.011Z" fill="white"/>
<path d="M174.826 123.851L150.131 117.445L149.55 119.683L174.246 126.089L174.826 123.851Z" fill="white"/>
<path d="M173.974 113.299L152.641 107.765L152.06 110.003L173.394 115.537L173.974 113.299Z" fill="#46AACC"/>
<path d="M164.476 116.001L151.385 112.605L150.805 114.843L163.896 118.238L164.476 116.001Z" fill="#46AACC"/>
<path d="M158.85 119.706L150.132 117.444L149.552 119.682L158.27 121.943L158.85 119.706Z" fill="#46AACC"/>
<path d="M132.052 138.663C131.063 142.475 127.17 144.765 123.356 143.776C119.543 142.787 117.254 138.894 118.243 135.081C119.232 131.268 123.124 128.979 126.938 129.967C130.751 130.956 133.041 134.85 132.052 138.663Z" fill="#FEBD45"/>
<path d="M130.454 133.733L123.329 135.989L124.738 137.212L119.84 140.01L127.514 137.511L126.358 136.353L130.454 133.733Z" fill="white"/>
</svg>
