<svg width="444" height="423" viewBox="0 0 444 423" fill="none" xmlns="http://www.w3.org/2000/svg">
<path d="M31.536 368.058C31.536 372.283 27.9331 375.705 23.4858 375.705C19.0419 375.705 15.4355 372.283 15.4355 368.058C15.4355 363.833 19.0419 360.41 23.4858 360.41C27.9331 360.41 31.536 363.833 31.536 368.058Z" stroke="#72E7B5" stroke-width="1.3" stroke-miterlimit="10"/>
<path d="M415.533 53.6974C415.533 61.7008 409.226 68.1878 401.445 68.1878C393.664 68.1878 387.357 61.7008 387.357 53.6974C387.357 45.694 393.664 39.207 401.445 39.207C409.226 39.207 415.533 45.694 415.533 53.6974Z" stroke="#72E7B5" stroke-width="1.3" stroke-miterlimit="10"/>
<path d="M357.572 102.803C357.572 106.361 354.689 109.243 351.132 109.243C347.574 109.243 344.691 106.361 344.691 102.803C344.691 99.2451 347.574 96.3628 351.132 96.3628C354.689 96.3628 357.572 99.2451 357.572 102.803Z" stroke="#72E7B5" stroke-width="1.3" stroke-miterlimit="10"/>
<path d="M113.398 33.5578C113.398 42.3188 107.494 49.4215 100.209 49.4215C92.9244 49.4215 87.0195 42.3188 87.0195 33.5578C87.0195 24.7967 99.2043 14.9747 100.209 14.9747C101.317 14.9747 113.398 24.7967 113.398 33.5578Z" stroke="#72E7AF" stroke-miterlimit="10"/>
<path d="M83.7335 35.0657C86.7298 43.2987 83.6103 51.9921 76.7653 54.4837C69.9202 56.9752 61.9416 52.3206 58.9453 44.0876C55.949 35.8547 64.0395 22.4575 64.9838 22.1137C66.0247 21.7346 80.7372 26.8328 83.7335 35.0657Z" stroke="#72E7AF" stroke-miterlimit="10"/>
<path d="M56.3749 46.6298C62.006 53.3412 62.0478 62.5781 56.4674 67.2601C50.887 71.9421 41.7983 70.2982 36.1664 63.5868C30.5353 56.8753 33.5557 41.5179 34.3253 40.8723C35.1738 40.1606 50.7437 39.9183 56.3749 46.6298Z" stroke="#72E7AF" stroke-miterlimit="10"/>
<path d="M34.6186 66.8538C42.206 71.234 45.4051 79.9 41.7624 86.2082C38.1205 92.5171 29.0165 94.0789 21.4292 89.6987C13.8418 85.3178 11.4284 69.855 11.9307 68.9847C12.4846 68.0259 27.0313 62.4729 34.6186 66.8538Z" stroke="#72E7AF" stroke-miterlimit="10"/>
<path d="M21.0936 93.2983C29.7219 94.8198 35.6903 101.869 34.4256 109.043C33.1609 116.216 25.1405 120.799 16.5123 119.277C7.88404 117.756 0.327305 104.05 0.501993 103.061C0.694394 101.97 12.4654 91.7768 21.0936 93.2983Z" stroke="#72E7AF" stroke-miterlimit="10"/>
<path d="M17.4268 122.774C26.055 121.253 34.0746 125.835 35.3393 133.009C36.604 140.182 30.6356 147.231 22.0073 148.752C13.3791 150.274 1.59039 139.979 1.4157 138.99C1.2233 137.899 8.79855 124.296 17.4268 122.774Z" stroke="#72E7AF" stroke-miterlimit="10"/>
<path d="M24.0651 151.727C31.6524 147.346 40.7556 148.909 44.3975 155.217C48.0394 161.525 44.8419 170.191 37.2546 174.571C29.6672 178.952 15.0682 173.311 14.5659 172.441C14.012 171.482 16.4778 156.107 24.0651 151.727Z" stroke="#72E7AF" stroke-miterlimit="10"/>
<path d="M40.2031 176.662C45.835 169.951 54.9237 168.306 60.5041 172.988C66.0846 177.67 66.0427 186.907 60.4108 193.618C54.7796 200.33 39.1316 200.022 38.362 199.376C37.5135 198.664 34.572 183.374 40.2031 176.662Z" stroke="#72E7AF" stroke-miterlimit="10"/>
<path d="M63.8975 194.575C66.8938 186.342 74.8724 181.687 81.7175 184.179C88.5626 186.67 91.6828 195.364 88.6865 203.597C85.6902 211.83 70.8803 216.892 69.936 216.549C68.8951 216.17 60.9012 202.808 63.8975 194.575Z" stroke="#72E7AF" stroke-miterlimit="10"/>
<path d="M92.291 203.304C92.291 194.543 98.1958 187.441 105.48 187.441C112.765 187.441 118.67 194.543 118.67 203.304C118.67 212.065 106.485 221.888 105.48 221.888C104.373 221.888 92.291 212.065 92.291 203.304Z" stroke="#72E7AF" stroke-miterlimit="10"/>
<path d="M121.953 201.794C118.957 193.561 122.077 184.868 128.922 182.376C135.767 179.885 143.745 184.539 146.742 192.772C149.738 201.005 141.647 214.402 140.703 214.746C139.662 215.125 124.95 210.027 121.953 201.794Z" stroke="#72E7AF" stroke-miterlimit="10"/>
<path d="M149.314 190.231C143.683 183.52 143.641 174.283 149.222 169.601C154.802 164.919 163.892 166.563 169.523 173.274C175.155 179.986 172.133 195.343 171.364 195.989C170.515 196.701 154.946 196.943 149.314 190.231Z" stroke="#72E7AF" stroke-miterlimit="10"/>
<path d="M171.07 170.008C163.483 165.627 160.284 156.962 163.926 150.653C167.568 144.345 176.672 142.782 184.259 147.163C191.847 151.543 194.26 167.007 193.758 167.877C193.204 168.836 178.657 174.388 171.07 170.008Z" stroke="#72E7AF" stroke-miterlimit="10"/>
<path d="M184.594 143.563C175.966 142.042 169.997 134.992 171.262 127.819C172.526 120.645 180.547 116.063 189.175 117.585C197.803 119.106 205.36 132.812 205.185 133.801C204.993 134.892 193.222 145.085 184.594 143.563Z" stroke="#72E7AF" stroke-miterlimit="10"/>
<path d="M188.261 114.087C179.633 115.608 171.613 111.026 170.349 103.853C169.084 96.6792 175.052 89.6305 183.681 88.109C192.309 86.5875 204.098 96.8813 204.272 97.8707C204.465 98.9615 196.889 112.566 188.261 114.087Z" stroke="#72E7AF" stroke-miterlimit="10"/>
<path d="M181.623 85.1345C174.036 89.5147 164.932 87.9529 161.29 81.644C157.649 75.335 160.846 66.6698 168.433 62.2896C176.021 57.9095 190.62 63.5503 191.122 64.4205C191.676 65.3793 189.21 80.7536 181.623 85.1345Z" stroke="#72E7AF" stroke-miterlimit="10"/>
<path d="M165.483 60.1991C159.852 66.9105 150.763 68.5552 145.182 63.8732C139.602 59.1912 139.644 49.9544 145.276 43.2429C150.908 36.5315 166.555 36.8398 167.324 37.4854C168.173 38.197 171.115 53.4876 165.483 60.1991Z" stroke="#72E7AF" stroke-miterlimit="10"/>
<path d="M141.79 42.2852C138.794 50.5182 130.815 55.1728 123.97 52.6813C117.125 50.1897 114.005 41.4963 117.001 33.2634C119.997 25.0304 134.807 19.9676 135.752 20.3114C136.793 20.6905 144.786 34.0523 141.79 42.2852Z" stroke="#72E7AF" stroke-miterlimit="10"/>
<path d="M179.594 119.937C179.594 163.236 144.493 198.337 101.194 198.337C57.8955 198.337 22.7949 163.236 22.7949 119.937C22.7949 76.6386 57.8955 41.538 101.194 41.538C144.493 41.538 179.594 76.6386 179.594 119.937Z" stroke="#72E7AF" stroke-miterlimit="10"/>
<path d="M410.256 401.446C479.414 361.726 422.428 206.497 402.105 197.388C381.783 188.28 368.098 288.398 376.126 340.796C376.126 340.796 346.216 226.207 311.687 229.127C277.157 232.047 320.545 344.704 320.545 344.704C320.545 344.704 270.984 263.012 248.301 274.206C223.133 286.625 284.3 361.765 284.3 361.765C284.3 361.765 220.843 330.427 198.015 338.695C175.188 346.963 250.909 377.792 250.909 377.792C250.909 377.792 164.547 369.253 180.301 393.534C196.055 417.816 290.388 430.353 359.635 416.552C379.867 412.519 392.366 411.72 410.256 401.446Z" fill="#72E7AF"/>
<path d="M319.056 259.765C319.056 259.765 353.135 359.494 388.481 408.559" stroke="#72E7AF" stroke-miterlimit="10" stroke-linecap="round"/>
<path d="M266.675 307.262C266.675 307.262 332.722 383.693 348.447 412.791" stroke="#72E7AF" stroke-miterlimit="10" stroke-linecap="round"/>
<path d="M241.962 364.324C243.31 364.736 299.923 391.969 319.242 418.789" stroke="#72E7AF" stroke-miterlimit="10" stroke-linecap="round"/>
<path d="M211.473 394.817C213.936 395.322 269.367 405.416 297.082 420.558" stroke="#72E7AF" stroke-miterlimit="10" stroke-linecap="round"/>
<path d="M403.017 219.904C403.017 219.904 383.925 334.486 404.865 404.112" stroke="#72E7AF" stroke-miterlimit="10" stroke-linecap="round"/>
<path d="M316.52 289.374C317.364 289.374 332.842 301.475 332.842 301.475" stroke="#72E7AF" stroke-miterlimit="10" stroke-linecap="round"/>
<path d="M352.541 313.577L347.194 338.341" stroke="#72E7AF" stroke-miterlimit="10" stroke-linecap="round"/>
<path d="M280.781 343.687C282.188 343.969 294.851 346.22 294.851 346.22" stroke="#72E7AF" stroke-miterlimit="10" stroke-linecap="round"/>
<path d="M316.802 351.567C316.802 352.412 316.238 377.175 316.238 377.175" stroke="#72E7AF" stroke-miterlimit="10" stroke-linecap="round"/>
<path d="M311.173 392.653L332.561 401.94" stroke="#72E7AF" stroke-miterlimit="10" stroke-linecap="round"/>
<path d="M280.499 386.462L275.152 371.267" stroke="#72E7AF" stroke-miterlimit="10" stroke-linecap="round"/>
<path d="M279.093 401.095H297.103" stroke="#72E7AF" stroke-miterlimit="10" stroke-linecap="round"/>
<path d="M342.131 369.17C342.884 369.421 364.47 382.723 364.47 382.723" stroke="#72E7AF" stroke-miterlimit="10" stroke-linecap="round"/>
<path d="M374.259 403.053L380.032 379.711" stroke="#72E7AF" stroke-miterlimit="10" stroke-linecap="round"/>
<path d="M389.15 342.707C389.15 342.707 390.671 390.649 401.352 407.09" stroke="#4DA895" stroke-miterlimit="10"/>
<path d="M373.221 319.673C372.891 320.525 372.916 321.474 373.193 322.345C374.965 327.938 383.492 353.509 389.99 349.559C397.278 345.129 396.541 318.513 393.905 317.942C391.269 317.372 390.159 327.91 390.159 327.91C390.159 327.91 389.174 309.194 385.084 310.095C380.993 310.996 383.441 329.704 383.441 329.704C383.441 329.704 375.281 314.364 373.221 319.673Z" fill="#4DDCE3"/>
<path d="M391.893 375.303C391.893 375.303 381.191 342.984 376.521 349.099C371.852 355.214 385.499 370.358 391.893 375.303Z" fill="#4DA895"/>
<path d="M395.58 391.058C395.606 391.23 395.927 390.368 396.479 389.543C398.562 386.424 403.536 378.88 403.477 368.596C403.403 355.588 393.855 379.998 395.58 391.058Z" fill="#4DA895"/>
<path d="M354.998 337.155C354.998 337.155 357.601 379.47 373.933 406.134" stroke="#57BDA7" stroke-miterlimit="10"/>
<path d="M347.742 341.84C347.742 341.84 352.653 359.204 356.108 356.906C359.563 354.609 360.704 333.299 356.845 333.825C352.987 334.351 352.951 343.927 352.951 343.927C352.951 343.927 346.55 331.737 347.742 341.84Z" fill="#4DDCE3"/>
<path d="M365.108 406.575C365.512 407.639 370.776 391.438 367.722 387.307C364.668 383.177 362.669 400.16 365.108 406.575Z" fill="#57BDA7"/>
<path d="M339.074 321.408C340.113 321.865 362.271 388.811 353.687 418.801" stroke="#4DA895" stroke-miterlimit="10"/>
<path d="M323.978 310.586C323.978 310.586 332.497 333.878 340.952 333.13C349.407 332.381 345.471 301.839 341.747 300.318C338.023 298.797 338.569 310.882 338.569 310.882C338.569 310.882 332.856 296.308 330.148 299.097C327.441 301.886 332.357 314.53 332.357 314.53C332.357 314.53 322.869 304.959 323.978 310.586Z" fill="#4DDCE3"/>
<path d="M352.347 379.875C352.347 379.875 367.357 353.286 362.081 347.069C356.804 340.852 352.011 372.177 352.347 379.875Z" fill="#4DA895"/>
<path d="M353.381 390.603C353.381 390.603 334.6 381.828 335.102 371.844C335.605 361.861 352.313 389.887 353.381 390.603Z" fill="#4DA895"/>
<path d="M300.406 374.421C300.406 374.421 318.319 406.247 333.994 414.968" stroke="#4DA895" stroke-miterlimit="10"/>
<path d="M277.79 357.904C277.758 358.817 278.094 359.705 278.641 360.437C282.153 365.136 298.609 386.484 303.448 380.619C308.876 374.041 299.433 349.144 296.755 349.472C294.078 349.8 296.493 360.117 296.493 360.117C296.493 360.117 289.413 342.764 285.846 344.959C282.279 347.154 290.738 364.019 290.738 364.019C290.738 364.019 277.991 352.213 277.79 357.904Z" fill="#4DDCE3"/>
<path d="M313.705 404.309C313.705 404.309 292.977 377.302 290.576 384.612C288.176 391.922 306.041 401.74 313.705 404.309Z" fill="#4DA895"/>
<path d="M322.367 417.976C322.448 418.129 322.469 417.211 322.718 416.249C323.661 412.618 325.879 403.859 322.444 394.166C318.099 381.905 317.103 408.096 322.367 417.976Z" fill="#4DA895"/>
<path d="M222.586 160.022C222.586 160.022 228.185 220.911 291.543 190.568L294.214 175.861L226.689 157.558L222.586 160.022Z" fill="#4DDCE3"/>
<path d="M308.636 246.55L178.112 238.612L188.495 221.878L338.612 226.579L338.2 230.785L308.636 246.55Z" fill="#780000"/>
<path d="M308.394 241.574L178.636 234.407L189.02 217.673L338.725 226.579L308.394 241.574Z" fill="#600000"/>
<path d="M170.525 229.358C172.054 227.376 185.842 192.947 190.262 165.02C190.262 165.02 192.564 193.387 205.788 211.529" stroke="#9C6000" stroke-width="3" stroke-miterlimit="10"/>
<path d="M304.447 237.691C305.976 235.709 317.083 207.862 321.503 179.935C321.503 179.935 323.847 207.26 333.271 226.676" stroke="#9C6000" stroke-width="3" stroke-miterlimit="10"/>
<path d="M308.395 241.575L308.636 246.551L338.199 230.786L338.726 226.58L308.395 241.575Z" fill="#8C0000"/>
<path d="M258.922 141.993L267.328 145.935C267.328 145.935 277.819 150.668 277.692 151.213C277.683 151.241 272.651 166.435 272.642 166.462C269.186 177.585 268.469 187.803 268.469 187.803C254.813 197.208 245.135 188.222 245.135 188.222C245.135 188.222 236.664 166.961 236.668 162.428C236.675 154.258 247.168 144.451 247.168 144.451L258.922 141.993Z" fill="#E38365"/>
<path d="M270.933 122.074C270.933 122.074 268.056 121.317 267.826 121.955L264.827 121.795L258.117 124.671C258.117 124.671 254.82 126.748 253.611 129.802C250.711 135.966 251.479 142.062 257.376 150.653C263.842 160.072 284.838 158.579 292.153 149.19C300.466 138.521 290.577 129.932 285.104 131.602C281.002 132.854 277.747 125.538 276.734 122.672L270.933 122.074Z" fill="#600000"/>
<path d="M265.527 142.715C265.603 139.891 263.376 137.541 260.552 137.465C257.728 137.389 255.378 139.616 255.302 142.44C255.226 145.264 257.453 147.614 260.277 147.69C263.101 147.765 265.451 145.538 265.527 142.715Z" fill="#E38365"/>
<path d="M266.754 132.719L265.529 142.626C265.352 143.965 265.92 145.329 267.097 145.99L267.418 146.169C267.418 146.169 263.693 147.595 258.136 151.373C251.674 155.766 246.269 163.607 246.269 163.607C246.269 163.607 245.631 156.009 247.752 150.315C249.828 144.744 254.981 142.247 255.61 140.823C256.164 139.567 256.735 134.974 256.735 134.974L266.754 132.719Z" fill="#E38365"/>
<path d="M256.084 139.925C256.556 137.929 256.734 134.974 256.734 134.974L266.011 132.886C265.857 133.487 263.794 140.888 256.084 139.925Z" fill="#B55132"/>
<path d="M268.686 129.175C268.9 128.532 269.523 127.988 269.523 127.988C267.832 121.461 263.409 118.338 263.409 118.338C263.409 118.338 254.949 118.891 254.939 123.562C254.939 123.562 254.865 125.855 254.524 127.108C253.606 130.479 252.296 135.392 256.949 136.479C263.332 137.972 266.718 132.737 266.718 132.737L268.686 129.175Z" fill="#E38365"/>
<path d="M273.282 127.738C274.975 127.626 276.277 126.327 276.589 124.659C276.591 124.649 276.592 124.641 276.594 124.631C277.305 120.953 274.752 111.521 268.221 113.045C263.626 114.118 263.189 111.645 257.806 113.554C252.422 115.464 246.929 122.141 249.651 125.961C251.572 128.658 253.274 128.825 254.112 128.69C254.245 128.141 254.388 127.607 254.524 127.108C254.866 125.855 254.939 123.561 254.939 123.561C257.38 120.194 263.408 118.337 263.408 118.337C263.408 118.337 263.417 125.144 269.523 127.987C270.071 128.242 269.754 127.972 270.358 127.932L273.282 127.738Z" fill="#600000"/>
<path d="M286.953 176.596C286.953 176.596 296.014 178.563 308.99 176.547C312.506 176.001 316.258 174.762 320.231 173.292C320.231 173.292 320.362 173.206 320.595 173.058C321.273 174 322.024 175.258 322.431 176.678C321.878 176.993 318.326 179.033 314.071 181.428C309.24 184.139 303.497 187.312 300.141 188.959C295.45 191.266 290.394 192.738 287.251 193.025L286.953 176.596Z" fill="#E38365"/>
<path d="M290.474 178.081C286.741 175.363 281.511 176.185 278.793 179.917C276.075 183.65 276.897 188.879 280.63 191.598C284.362 194.316 289.592 193.494 292.31 189.761C295.028 186.029 294.206 180.799 290.474 178.081Z" fill="#E38365"/>
<path d="M315.915 174.756C315.915 174.756 313.996 177.678 317.638 179.332" stroke="#72E7AF" stroke-width="0.5" stroke-miterlimit="10" stroke-linecap="round"/>
<path d="M314.257 175.321C314.257 175.321 311.493 178.692 315.804 180.452" stroke="#72E7AF" stroke-width="0.5" stroke-miterlimit="10" stroke-linecap="round"/>
<path d="M278.303 189.009C274.048 181.132 269.92 168.952 269.92 168.952C269.92 168.952 284.866 158.412 285.133 159.094C285.4 159.777 292.563 180.287 292.563 180.287L278.303 189.009Z" fill="#E38365"/>
<path d="M275.221 145.391C277.596 146.545 279.668 147.972 281.703 150.241C287.748 156.981 292.484 173.406 292.484 173.406C292.484 173.406 286.093 179.464 273.908 181.5L270.595 174.142L267.847 165.846L269.884 160.197L275.221 145.391Z" fill="#3F6298"/>
<path d="M280.982 155.243C281.22 149.4 276.675 144.469 270.831 144.232C264.988 143.994 260.057 148.539 259.819 154.382C259.582 160.226 264.127 165.156 269.97 165.394C275.814 165.632 280.744 161.087 280.982 155.243Z" fill="#3F6298"/>
<path d="M225.325 181.379C223.472 181.964 214.6 178.533 207.528 169.097C203.139 163.229 193.225 148.002 193.225 148.002C190.548 148.035 188.738 145.302 188.205 144.357C188.696 141.64 190.343 139.283 191.499 137.941C191.905 138.269 192.325 138.707 192.697 139.273C193.905 141.107 196.769 146.058 196.769 146.058C210.264 160.696 227.849 166.256 227.849 166.256L225.325 181.379Z" fill="#E38365"/>
<path d="M229.527 180.013C233.085 177.574 233.992 172.713 231.553 169.155C229.114 165.597 224.253 164.69 220.695 167.129C217.138 169.568 216.231 174.43 218.669 177.987C221.108 181.545 225.97 182.452 229.527 180.013Z" fill="#E38365"/>
<path d="M194.342 149.71C194.342 149.71 196.922 148.308 196.791 146.085" stroke="#72E7AF" stroke-width="0.5" stroke-miterlimit="10" stroke-linecap="round"/>
<path d="M195.339 151.228C195.339 151.228 197.558 150.523 198.037 147.394" stroke="#72E7AF" stroke-width="0.5" stroke-miterlimit="10" stroke-linecap="round"/>
<path d="M221.955 166.424C221.955 166.424 242.95 150.695 243.413 150.13C243.876 149.564 248.183 161.491 248.183 161.491C248.183 161.491 240.666 174.56 229.745 179.859" fill="#E38365"/>
<path d="M249.837 166.766L237.44 177.562C237.44 177.562 233.299 176.222 229.514 173.251C226.486 170.891 223.697 167.477 223.451 162.882C223.451 162.882 233.851 148.94 240.531 145.778C243.623 144.319 245.619 143.727 248.451 142.916" fill="#3F6298"/>
<path d="M265.546 153.907C265.066 149.092 261.201 146.323 257.072 144.495C255.088 143.616 253.665 142.057 251.351 142.288C244.222 142.999 239.02 149.354 239.732 156.482C240.443 163.611 246.798 168.813 253.927 168.102C261.055 167.39 266.258 161.035 265.546 153.907Z" fill="#3F6298"/>
<path d="M241.012 174.33L237.438 177.562C237.438 177.562 233.297 176.222 229.513 173.251C229.409 173.049 229.351 172.933 229.351 172.933L244.602 158.41C244.509 158.689 242.616 164.529 242.029 167.759C241.505 170.687 241.012 174.33 241.012 174.33Z" fill="#304A73"/>
<path d="M271.171 174.126L270.075 179.783C270.075 179.783 268.033 179.815 264.942 179.735C258.169 179.54 246.37 178.737 240.008 175.63C240.008 175.63 238.894 175.196 238.55 167.51C238.23 160.392 251.137 142.31 251.137 142.31C253.274 141.936 255.514 141.515 255.514 141.515C255.514 141.515 258.818 147.423 265.444 142.603C265.444 142.603 266.782 142.7 268.798 143.166C270.403 143.529 272.631 144.201 274.742 145.15L271.171 174.126Z" fill="#3F6298"/>
<path d="M271.17 174.126L270.074 179.782C270.074 179.782 268.032 179.815 264.941 179.735L269.44 167.691L271.17 174.126Z" fill="#304A73"/>
<path d="M268.798 143.167C267.617 144.723 265.278 146.766 260.897 147.234C255.389 147.82 252.941 143.951 252.047 142.141C254.184 141.767 255.514 141.516 255.514 141.516C255.514 141.516 258.818 147.423 265.443 142.604C265.443 142.604 266.781 142.701 268.798 143.167Z" fill="#72E7AF"/>
<path d="M255.415 141.394C255.415 141.394 249.602 159.097 254.96 158.938C260.318 158.778 265.661 142.638 265.661 142.638" stroke="#72E7AF" stroke-width="0.5" stroke-miterlimit="10" stroke-linecap="round"/>
<path d="M255.442 141.421C255.442 141.421 252.111 152.583 257.469 152.423C262.827 152.264 265.528 142.801 265.528 142.801" stroke="#72E7AF" stroke-width="0.5" stroke-miterlimit="10" stroke-linecap="round"/>
<path d="M195.2 17.7981C195.2 17.7981 194.088 111.055 190.329 166.431" stroke="#9C6000" stroke-width="3" stroke-miterlimit="10"/>
<path d="M328.877 1C328.877 1 325.328 125.971 321.569 181.347" stroke="#9C6000" stroke-width="3" stroke-miterlimit="10"/>
<path d="M193.097 141.171C193.388 143.252 192.109 145.151 190.241 145.412C188.373 145.672 186.624 144.196 186.333 142.114C186.043 140.033 187.321 138.134 189.189 137.874C191.057 137.613 192.807 139.089 193.097 141.171Z" fill="#E38365"/>
<path d="M325.71 174.419C325.25 176.362 323.533 177.618 321.876 177.225C320.218 176.833 319.246 174.94 319.707 172.998C320.167 171.055 321.884 169.799 323.541 170.191C325.199 170.584 326.17 172.477 325.71 174.419Z" fill="#E38365"/>
<path d="M184.995 307.339C179.568 318.143 160.122 344.366 157.67 350.941C157.339 352.338 157.422 353.251 157.48 354.265C155.395 354.468 151.939 357.083 149.984 357.678C148.193 358.222 147.62 355.713 146.474 354.443C147.865 353.32 149.164 352.036 149.808 350.706C153.152 343.847 168.589 278.392 174.596 252.651C176.086 246.27 176.993 242.323 176.993 242.323L194.125 251.405L190.383 262.525C190.413 262.709 190.431 262.899 190.457 263.092C191.854 274.744 192.761 291.877 184.995 307.339Z" fill="#E38365"/>
<path d="M149.808 350.705C149.808 350.705 148.323 354.431 139.752 358.217C130.544 362.283 141.64 362.056 147.611 360.367C153.582 358.678 157.858 359.974 157.48 354.264C157.102 348.555 149.808 350.705 149.808 350.705Z" fill="#E38365"/>
<path d="M216.179 370.245C214.298 371.164 211.953 374.812 210.32 376.04C208.827 377.173 207.426 375.019 205.918 374.216C206.829 372.679 207.61 371.027 207.757 369.553C208.532 361.813 200.08 292.527 196.962 267.457C196.762 265.872 197.003 263.466 197.445 260.84C198.564 254.167 200.986 246.04 200.986 246.04L221.373 251.819L216.12 270.179L215.375 272.789C222.956 283.426 227.703 300.325 226.194 312.332C224.677 324.334 215.242 360.042 215.21 367.06C215.376 368.483 215.769 369.308 216.179 370.245Z" fill="#E38365"/>
<path d="M207.818 368.414C207.818 368.414 207.846 372.424 201.335 379.161C194.339 386.398 204.53 382.006 209.425 378.191C214.319 374.376 218.768 373.965 216.266 368.819C213.763 363.673 207.818 368.414 207.818 368.414Z" fill="#E38365"/>
<path d="M207.818 368.414C208.314 368.177 211.351 372.121 215.211 367.06" stroke="#72E7AF" stroke-width="0.5" stroke-miterlimit="10" stroke-linecap="round"/>
<path d="M239.036 202.374C239.201 202.803 237.042 203.636 233.736 205.02C232.106 205.704 230.197 206.518 228.151 207.486C224.679 209.135 220.8 211.215 217.209 213.825C217.209 213.825 218.212 162.728 221.356 158.774C224.495 154.829 228.941 154.694 228.941 154.694C228.941 154.694 238.651 201.379 239.036 202.374Z" fill="#4DDCE3"/>
<path d="M233.736 205.02C232.107 205.703 230.197 206.518 228.151 207.486C229.333 199.3 227.29 173.061 227.725 173.353C228.901 174.141 231.531 198.791 233.736 205.02Z" fill="#4DDCE3"/>
<path d="M171.7 319.813C171.7 319.813 172.322 319.461 173.429 318.914C172.102 322.142 170.833 325.026 169.676 327.521C164.98 329.247 154.614 335.229 144.444 325.033C144.444 325.033 145.528 323.158 147.26 319.804C157.338 327.463 165.932 321.984 170.298 320.373C171.197 320.043 171.7 319.813 171.7 319.813Z" fill="#3F6298"/>
<path d="M195.745 314.289C195.668 316.709 195.545 319.12 195.356 321.496C192.377 320.598 192.06 319.459 188.879 319.709C189.188 317.331 189.459 314.945 189.666 312.55C192.708 312.32 192.887 313.453 195.745 314.289Z" fill="#3F6298"/>
<path d="M242.9 335.293C243.136 337.643 243.279 339.976 243.319 342.266C230.113 344.604 211.472 345.609 203.347 335.145C202.632 331.308 201.807 326.928 200.884 322.245C201.104 322.702 201.316 323.179 201.509 323.674C202.157 325.297 202.985 326.732 203.968 327.998C211.885 338.188 229.775 337.502 242.9 335.293Z" fill="#3F6298"/>
<path d="M229.322 259.094C227.103 259.955 225.818 260.338 225.818 260.338C225.818 260.338 225.818 260.338 225.828 260.347C226.579 261.09 254.526 293.172 257.613 331.884C255.666 332.472 250.467 333.958 243.942 335.117C230.735 337.456 212.094 338.461 203.969 327.997C202.986 326.731 202.158 325.297 201.511 323.674C199.008 317.403 200.748 315.778 195.977 314.349C192.997 313.451 192.68 312.311 189.5 312.562C178.713 313.436 171.701 319.813 171.701 319.813C171.701 319.813 171.198 320.043 170.298 320.373C165.932 321.983 157.339 327.463 147.26 319.803C153.473 307.793 159.578 276.824 163.245 244.594C167.952 203.353 244.739 188.575 244.739 188.575C244.739 188.575 257.414 193.033 268.255 185.871C268.255 185.871 276.426 193.496 278.907 204.299C279.288 205.954 279.549 207.685 279.636 209.465C279.956 216.088 277.316 221.519 270.513 228.822C255.827 244.612 239.625 254.887 231.211 258.341C230.523 258.621 229.891 258.871 229.322 259.094Z" fill="#72E7AF"/>
<path d="M270.513 228.823C249.939 250.93 225.818 260.338 225.818 260.338L219.13 251.76C219.13 251.76 270.494 232.639 278.972 206.367C279.199 205.67 278.919 204.918 278.908 204.299C280.708 212.106 279.148 219.549 270.513 228.823Z" fill="#4DA895"/>
<path d="M203.347 335.145C202.364 333.879 201.536 332.445 200.889 330.822C198.387 324.551 200.126 322.926 195.355 321.497C195.544 319.121 195.667 316.709 195.744 314.289C195.828 314.306 195.902 314.324 195.976 314.35C200.367 315.666 198.343 316.898 200.884 322.236L200.884 322.245C201.807 326.928 202.633 331.308 203.347 335.145Z" fill="#304A73"/>
<path d="M200.885 322.235C198.344 316.898 200.368 315.665 195.978 314.349C195.903 314.323 195.829 314.306 195.745 314.289C196.537 289.154 194.736 265.936 194.736 265.936C199.651 278.137 196.714 300.974 200.885 322.235Z" fill="#4DA895"/>
<path d="M257.827 338.767C257.827 338.767 251.659 340.778 243.32 342.265C243.28 339.975 243.137 337.642 242.901 335.292C243.252 335.24 243.601 335.179 243.942 335.117C250.467 333.958 255.665 332.472 257.612 331.884C257.636 332.16 257.66 332.437 257.674 332.723C257.709 333.129 257.725 333.534 257.741 333.949C257.834 335.545 257.854 337.151 257.827 338.767Z" fill="#304A73"/>
<path d="M257.612 331.883C255.665 332.472 250.467 333.958 243.942 335.117C243.601 335.179 243.251 335.24 242.901 335.292C239.075 295.505 219.129 251.759 219.129 251.759C222.433 253.81 223.148 253.461 229.323 259.094C227.104 259.955 225.818 260.338 225.818 260.338C225.818 260.338 225.818 260.338 225.827 260.347C226.579 261.091 254.526 293.172 257.612 331.883Z" fill="#4DA895"/>
<path d="M189.666 312.55C189.459 314.945 189.187 317.331 188.878 319.71C178.092 320.583 171.08 326.96 171.08 326.96C171.08 326.96 170.576 327.191 169.677 327.521C170.833 325.026 172.102 322.141 173.43 318.914C176.843 317.229 181.35 313.224 189.499 312.562C189.555 312.561 189.61 312.551 189.666 312.55Z" fill="#304A73"/>
<path d="M189.665 312.55C189.609 312.551 189.555 312.561 189.499 312.562C181.35 313.223 176.843 317.229 173.429 318.914C181.084 300.24 187.106 273.615 185.904 240.687C185.904 240.687 193.069 275.432 189.665 312.55Z" fill="#4DA895"/>
<path d="M243.302 185.521L244.74 188.575C244.74 188.575 259.756 193.862 268.854 186.359L269.198 183.467C269.198 183.467 259.269 187.67 243.302 185.521Z" fill="#3F6298"/>
<path d="M256.012 129.368L261.423 130.474C261.423 130.474 259.451 132.86 257.518 132.736C255.584 132.612 256.012 129.368 256.012 129.368Z" fill="white"/>
<path d="M256.366 124.164C256.19 124.58 256.068 125.018 256.004 125.465C255.956 125.798 255.943 126.148 256.067 126.461C256.191 126.774 256.484 127.04 256.82 127.045C257.197 127.05 257.503 126.747 257.717 126.437C258.048 125.959 258.278 125.411 258.386 124.84" stroke="#650504" stroke-miterlimit="10"/>
<path d="M262.115 125.764C261.905 126.164 261.748 126.591 261.648 127.031C261.572 127.359 261.531 127.707 261.629 128.029C261.727 128.351 261.997 128.64 262.332 128.672C262.707 128.708 263.036 128.431 263.276 128.14C263.645 127.691 263.918 127.164 264.073 126.604" stroke="#650504" stroke-miterlimit="10"/>
<path d="M259.702 125.426C259.26 126.529 258.778 127.679 257.856 128.431C258.057 128.593 258.301 128.699 258.557 128.735" stroke="#B55132" stroke-miterlimit="10"/>
<path d="M256.015 123.416L255.981 123.664C255.981 123.664 257.589 122.746 258.909 123.45C258.909 123.45 259.368 122.678 259.255 122.437C258.883 121.645 257.249 121.767 256.015 123.416Z" fill="#600000"/>
<path d="M265.648 126.53L265.509 126.737C265.509 126.737 264.864 124.929 263.36 124.527C263.36 124.527 263.516 123.632 263.766 123.532C264.588 123.204 265.784 124.44 265.648 126.53Z" fill="#600000"/>
<path d="M260.956 121.791C260.813 122.3 260.941 122.782 261.241 122.866C261.541 122.951 261.9 122.606 262.044 122.096C262.187 121.587 262.059 121.106 261.759 121.021C261.459 120.936 261.1 121.281 260.956 121.791Z" fill="#B84825"/>
<path d="M307.846 218.759C307.846 218.759 306.853 218.457 305.629 218.698C304.397 218.948 302.925 219.749 302.018 221.992C300.988 224.511 297.513 226.446 293.799 227.584C292.726 227.91 291.64 228.165 290.581 228.36C288.813 228.668 287.133 228.775 285.8 228.661C285.8 228.661 285.104 175.818 292.519 173.47C292.519 173.47 298.852 171.643 301.905 176.718C304.958 181.793 307.969 216.093 307.846 218.759Z" fill="#4DDCE3"/>
<path d="M305.63 218.699C304.398 218.948 302.927 219.75 302.02 221.993C302.02 221.993 299.971 193.525 301.335 193.583C302.132 193.617 305.019 211.81 305.63 218.699Z" fill="#4DDCE3"/>
<path d="M293.799 227.585C292.727 227.911 291.64 228.165 290.582 228.361C290.416 222.625 290.71 208.696 291.059 208.007C291.185 207.759 293.249 220.126 293.799 227.585Z" fill="#4DDCE3"/>
<path d="M266.434 133.079C266.434 133.079 268.336 135.197 270.328 132.692C271.885 130.734 269.745 129.428 268.4 129.517C268.4 129.517 267.436 129.633 266.806 130.919C266.175 132.204 266.434 133.079 266.434 133.079Z" fill="#E38365"/>
<path d="M267.725 131.002C268.092 130.909 268.495 130.964 268.823 131.154C269.15 131.344 269.4 131.664 269.503 132.028" stroke="#B55132" stroke-miterlimit="10"/>
<path d="M268.221 131.116C268.305 131.373 268.212 131.677 267.999 131.844C267.786 132.01 267.469 132.027 267.239 131.884" stroke="#B55132" stroke-miterlimit="10"/>
<path d="M267.149 133.608C267.14 133.912 266.886 134.151 266.582 134.141C266.278 134.132 266.039 133.878 266.049 133.574C266.058 133.27 266.312 133.031 266.616 133.041C266.92 133.05 267.159 133.303 267.149 133.608Z" fill="#72E7AF"/>
<path d="M270.675 132.653C270.669 132.862 270.508 133.026 270.316 133.02C270.124 133.015 269.973 132.841 269.98 132.632C269.986 132.422 270.147 132.258 270.339 132.264C270.531 132.27 270.681 132.444 270.675 132.653Z" fill="#72E7AF"/>
<path d="M155.2 146.981C136.077 181.361 99.7853 189.161 69.6686 172.415C39.5567 155.67 27.0338 120.723 46.1564 86.3432C65.2801 51.9578 101.266 44.71 131.37 61.4593C161.487 78.2053 174.313 112.592 155.2 146.981Z" fill="#72E7AF"/>
<path d="M155.2 146.981C136.077 181.361 99.7853 189.161 69.6686 172.415C39.5567 155.67 27.0338 120.723 46.1564 86.3432C65.2801 51.9578 101.266 44.71 131.37 61.4593C161.487 78.2053 174.313 112.592 155.2 146.981Z" stroke="#3F6298" stroke-width="8" stroke-linejoin="round"/>
<path d="M79.736 128.816H97.64V134H72.968V128.816L90.824 105.584H73.784V100.4H97.592V105.584L79.736 128.816ZM117.978 107.024C123.93 107.024 127.482 110.912 127.482 117.344V134H122.058V118.448C122.058 114.368 120.282 112.208 116.298 112.208C111.642 112.208 109.146 115.232 109.146 120.32V134H103.722V107.6H109.146V111.968C111.018 108.896 113.85 107.024 117.978 107.024Z" fill="white"/>
</svg>
