<svg width="350" height="350" viewBox="0 0 350 350" fill="none" xmlns="http://www.w3.org/2000/svg">
<path d="M175 350C271.65 350 350 271.65 350 175C350 78.3502 271.65 0 175 0C78.3502 0 0 78.3502 0 175C0 271.65 78.3502 350 175 350Z" fill="#6CBA4B"/>
<path d="M171.447 113.169L91.9094 234.053H169.975C172.773 234.053 175.048 236.251 175.048 238.961V259.485C175.048 262.195 172.773 264.393 169.975 264.393H56.5454C53.7477 264.393 51.4727 262.195 51.4727 259.485V238.042C51.4727 236.899 51.8115 235.796 52.4311 234.837L132.22 113.953H58.9269C56.1291 113.953 53.8541 111.755 53.8541 109.045V88.5214C53.8541 85.8108 56.1291 83.6133 58.9269 83.6133H167.323C170.121 83.6133 172.396 85.8108 172.396 88.5214V109.974C172.405 111.116 172.076 112.22 171.447 113.169Z" fill="white"/>
<path d="M193.229 128.038H214.052C217.353 128.038 220.035 130.894 220.035 134.408V259.988C220.035 263.512 217.353 266.358 214.052 266.358H193.229C189.928 266.358 187.246 263.502 187.246 259.988V134.418C187.246 130.894 189.918 128.038 193.229 128.038ZM220.035 140.043C225.969 135.648 233.269 126.78 253.86 126.044C268.052 125.531 279.059 130.952 286.842 140.769C294.635 150.585 298.527 164.467 298.527 182.415V259.998C298.527 263.521 295.845 266.367 292.544 266.367H273.657C270.356 266.367 267.674 263.512 267.674 259.998V182.541C267.674 174.903 265.816 169.327 261.73 165.155C257.645 160.982 250.607 158.785 241.991 160.246C230.5 162.192 223.917 171.679 220.045 175.726" fill="white"/>
</svg>
