<svg width="611" height="584" viewBox="0 0 611 584" fill="none" xmlns="http://www.w3.org/2000/svg">
<g clip-path="url(#clip0_15473_34676)">
<g opacity="0.5">
<path d="M463.368 470.351C478.738 483.956 500.569 498.373 528.116 503.481C535.146 504.785 578.576 512.838 588.792 491.784C592.39 484.369 588.828 479.603 593.498 469.628C599.032 457.809 607.575 456.934 620.363 447.331C627.994 441.601 650.326 424.833 649.691 404.236C649.313 391.929 640.749 378.812 630.246 374.05C614.839 367.064 598.276 379.421 570.482 400.805C545.842 419.762 542.864 427.086 524.968 440.435C511.685 450.342 491.66 462.468 463.368 470.351Z" fill="url(#paint0_linear_15473_34676)"/>
<mask id="mask0_15473_34676" style="mask-type:luminance" maskUnits="userSpaceOnUse" x="463" y="371" width="187" height="136">
<path d="M463.142 471.578C478.282 484.963 499.851 499.074 527.248 503.817C534.24 505.028 577.433 512.504 587.908 491.349C591.598 483.898 588.112 479.186 592.905 469.165C598.585 457.292 607.115 456.308 619.999 446.553C627.686 440.732 650.183 423.699 649.834 403.141C649.625 390.857 641.266 377.871 630.859 373.253C615.593 366.478 598.909 379.031 570.901 400.745C546.072 419.993 543.002 427.345 524.975 440.907C511.595 450.972 491.461 463.34 463.142 471.578Z" fill="white"/>
</mask>
<g mask="url(#mask0_15473_34676)">
<path d="M430.099 459.449C433.159 461.212 436.315 462.796 439.569 464.203C465.384 475.364 496.142 474.144 530.988 460.576C567.201 446.476 598.768 422.564 618.872 404.988C632.871 392.75 644.782 376.106 654.276 355.517L653.568 355.239C644.133 375.701 632.304 392.234 618.41 404.381C598.362 421.908 566.888 445.751 530.797 459.803C496.151 473.293 465.585 474.513 439.95 463.431C420.708 455.114 404.826 440.465 392.743 419.894L392.051 420.39C402.167 437.612 414.936 450.71 430.099 459.449Z" fill="white"/>
<path d="M576.552 438.301L576.943 438.298C631.971 437.995 657.117 404.545 663.514 394.301C663.645 394.091 663.728 393.955 663.767 393.904L663.177 393.435C663.124 393.502 663.056 393.61 662.866 393.914C656.549 404.03 631.751 437.008 577.438 437.467C577.722 435.356 579.217 425.394 583.665 412.986C588.268 400.143 597.066 381.973 612.84 368.353L612.383 367.744C596.44 381.51 587.56 399.849 582.917 412.81C577.891 426.844 576.611 437.781 576.598 437.889L576.552 438.301Z" fill="white"/>
<path d="M554.388 481.016C561.376 485.046 569.459 487.914 578.615 488.436C591.552 489.173 600.628 484.783 600.718 484.739L600.46 483.999C600.371 484.043 591.456 488.347 578.712 487.609C557.495 486.38 542.068 472.359 532.829 460.741C533.8 457.865 544.771 426.558 571.794 395.31L600.41 362.222L599.854 361.713L571.238 394.801C542.885 427.586 532.117 460.456 532.011 460.783L531.942 460.997L532.067 461.154C537.433 467.93 544.899 475.545 554.388 481.016Z" fill="white"/>
</g>
</g>
<g opacity="0.5">
<path d="M218.254 553.037C203.85 566.398 183.299 580.705 157.122 586.307C150.441 587.737 109.171 596.568 99.0325 576.807C95.4611 569.846 98.7687 565.216 94.1273 555.848C88.6278 544.749 80.4632 544.147 68.0857 535.352C60.7003 530.104 39.0862 514.747 39.3046 495.128C39.4347 483.406 47.3561 470.693 57.2842 465.878C71.8473 458.816 87.8759 470.13 114.787 489.733C138.643 507.111 141.621 514.001 158.94 526.224C171.795 535.295 191.121 546.297 218.254 553.037Z" fill="url(#paint1_linear_15473_34676)"/>
<mask id="mask1_15473_34676" style="mask-type:luminance" maskUnits="userSpaceOnUse" x="39" y="463" width="180" height="127">
<path d="M218.235 553.83C203.986 567.086 183.618 581.238 157.567 586.633C150.919 588.01 109.849 596.515 99.5774 576.655C95.9591 569.66 99.218 565.053 94.5131 555.64C88.9382 544.487 80.7937 543.818 68.3811 534.916C60.9748 529.604 39.2994 514.06 39.3541 494.427C39.3864 482.696 47.1778 470.037 57.0353 465.299C71.495 458.349 87.5683 469.802 114.56 489.639C138.487 507.223 141.513 514.143 158.88 526.516C171.771 535.698 191.13 546.865 218.235 553.83Z" fill="white"/>
</mask>
<g mask="url(#mask1_15473_34676)">
<path d="M249.049 541.606C246.16 543.383 243.177 544.994 240.099 546.438C215.679 557.893 186.385 557.702 153.034 545.869C118.373 533.572 88.0012 511.774 68.6269 495.653C55.1356 484.429 43.5723 468.938 34.2567 449.61L34.9268 449.323C44.1846 468.532 55.6683 483.919 69.058 495.06C88.379 511.136 118.661 532.871 153.205 545.126C186.365 556.892 215.476 557.088 239.726 545.713C257.928 537.176 272.847 522.709 284.068 502.716L284.733 503.168C275.339 519.905 263.363 532.795 249.049 541.606Z" fill="white"/>
<path d="M109.559 525.23L109.185 525.241C56.731 526.697 32.3109 495.569 26.0748 485.995C25.9466 485.798 25.8662 485.672 25.8285 485.624L26.3841 485.157C26.4353 485.22 26.5017 485.321 26.6871 485.605C32.8448 495.06 56.9269 525.748 108.702 524.463C108.404 522.458 106.843 512.996 102.436 501.295C97.8755 489.183 89.2438 472.121 74.0249 459.622L74.4524 459.025C89.8338 471.659 98.5462 488.88 103.147 501.104C108.127 514.339 109.495 524.736 109.509 524.839L109.559 525.23Z" fill="white"/>
<path d="M131.429 565.528C124.812 569.6 117.134 572.599 108.4 573.39C96.0589 574.508 87.3362 570.603 87.249 570.564L87.4862 569.849C87.5719 569.888 96.14 573.716 108.296 572.604C128.535 570.751 143.075 556.862 151.74 545.467C150.774 542.751 139.883 513.19 113.667 484.198L85.9064 453.499L86.4303 452.995L114.191 483.694C141.697 514.111 152.416 545.172 152.522 545.481L152.59 545.684L152.472 545.838C147.44 552.483 140.415 559.996 131.429 565.528Z" fill="white"/>
</g>
</g>
<path d="M225.128 653.177C224.849 653.506 223.233 655.406 220.764 656.034C205.907 659.81 208.236 605.252 166.408 575.433C149.359 563.279 132.309 560.464 124.55 542.013C123.141 538.663 118.944 528.276 121.454 514.28C123.032 505.477 126.084 501.834 129.909 492.771C141.925 464.308 132.282 451.784 141.609 445.269C152.02 437.997 177.862 443.941 185.111 458.881C193.09 475.327 173.568 492.429 183.111 505.121C190.535 514.993 204.337 507.293 215.096 518.066C229.378 532.366 218.999 559.894 217.644 563.353C211.601 578.78 205.224 577.77 201.91 588.696C192.904 618.39 235.363 641.139 225.128 653.177Z" fill="#FCAC70" fill-opacity="0.72"/>
<path d="M157.409 450.398C155.781 452.923 154.328 455.463 153.01 458.024C151.681 460.583 150.466 463.155 149.384 465.731C148.296 468.307 147.299 470.889 146.443 473.468C145.614 476.044 144.827 478.625 144.224 481.189C143.886 482.476 143.68 483.746 143.401 485.027C143.204 486.296 142.947 487.576 142.801 488.837C142.64 490.101 142.473 491.368 142.396 492.616C142.351 493.242 142.285 493.873 142.258 494.495L142.212 496.352C142.157 497.598 142.253 498.804 142.276 500.03C142.329 501.247 142.474 502.438 142.571 503.644C142.759 504.819 142.902 506.012 143.132 507.173L143.513 508.902C143.633 509.481 143.763 510.057 143.953 510.608C145.257 515.103 147.258 519.309 149.948 523.088L150.959 524.504L152.001 525.833L154.085 528.489C155.484 530.254 156.832 532.05 158.209 533.83C163.672 540.972 168.929 548.244 173.99 555.631C184.084 570.428 193.247 585.761 200.04 602.39C203.644 610.689 207.969 618.576 212.591 626.279C217.227 633.974 222.2 641.463 227.537 648.724L228.192 648.319C223.489 640.69 219.067 632.896 214.853 625.001C212.77 621.041 210.742 617.051 208.837 613.003C206.924 608.96 205.096 604.873 203.5 600.686C200.403 592.202 196.591 583.967 192.393 576.015C188.131 568.083 183.423 560.408 178.482 552.884C173.543 545.356 168.229 538.065 162.812 530.849C161.442 529.055 160.098 527.243 158.706 525.464L156.631 522.786L155.595 521.448L154.631 520.13C152.059 516.616 150.128 512.694 148.846 508.478C148.487 507.442 148.268 506.342 147.969 505.277C147.712 504.194 147.539 503.077 147.318 501.978C147.189 500.845 147.009 499.729 146.919 498.582C146.859 497.425 146.724 496.29 146.739 495.11C146.624 490.44 146.977 485.612 147.898 480.676C148.298 478.217 148.883 475.727 149.511 473.229C150.186 470.726 150.918 468.213 151.759 465.689C153.486 460.646 155.49 455.55 158.037 450.496L157.409 450.398Z" fill="#FECBA1"/>
<path d="M497.528 498.675C495.62 499.86 492.51 500.516 490.494 499.369C482.712 494.946 500.78 469.112 504.459 434.858C508.718 395.196 490.016 378.415 505.101 358.37C512.356 348.729 519.049 349.465 525.624 337.589C534.78 321.052 526.297 311.504 533.618 298.575C542.038 283.704 566.347 273.219 583.58 279.222C606.755 287.294 610.916 323.015 599.796 342.934C592.573 355.872 577.966 363.82 579.893 367.054C581.731 370.14 594.393 361.82 602.004 366.432C611.971 372.472 611.063 399.349 597.396 410.163C584.816 420.117 562.712 415.441 561.901 419.734C561.582 421.424 565.002 422.155 565.238 424.224C565.659 427.918 555.753 434.236 519.465 445.596C509.844 452.669 505.69 459.636 503.687 464.783C497.775 479.969 504.807 494.155 497.528 498.675Z" fill="#8BC248"/>
<path d="M565.081 309.566C565.249 317.718 564.607 325.888 562.949 333.912C561.306 341.939 558.639 349.763 554.989 357.214C553.153 360.937 551.117 364.587 548.951 368.186C547.832 369.973 546.746 371.77 545.582 373.543C544.45 375.325 543.299 377.108 542.138 378.886L535.147 389.592L533.414 392.287L531.723 395.01C530.586 396.819 529.495 398.657 528.394 400.488C526.193 404.15 524.092 407.863 522.033 411.594C521.021 413.467 519.996 415.335 519.037 417.231L517.577 420.065L516.158 422.917L514.746 425.772L513.383 428.646L512.025 431.521L510.72 434.417L509.433 437.318L508.207 440.242C507.391 442.191 506.564 444.136 505.815 446.107L504.663 449.054L504.088 450.526L503.55 452.011C502.853 453.997 502.132 455.974 501.455 457.964L499.525 463.958C498.895 465.959 498.361 467.983 497.79 469.995C495.61 478.068 493.911 486.238 492.981 494.438L493.452 494.476C495.111 486.364 497.289 478.357 499.884 470.457L500.891 467.502C501.232 466.519 501.525 465.525 501.903 464.551L504.074 458.689C505.62 454.808 507.161 450.93 508.833 447.093C509.635 445.164 510.514 443.261 511.383 441.354L512.686 438.496L514.05 435.659L515.396 432.816L516.795 429.994L518.197 427.173L519.647 424.372C523.538 416.914 527.615 409.538 531.994 402.313C536.375 395.09 541 387.989 545.617 380.809C546.767 379.011 547.923 377.216 549.043 375.391C550.176 373.579 551.246 371.718 552.341 369.878C554.462 366.151 556.496 362.364 558.27 358.463C558.707 357.486 559.103 356.492 559.52 355.507L560.136 354.028L560.685 352.525C561.042 351.522 561.434 350.529 561.762 349.518L562.707 346.478C563.046 345.471 563.272 344.44 563.531 343.416L563.911 341.881C564.04 341.369 564.17 340.858 564.26 340.341C564.65 338.279 565.093 336.226 565.383 334.159C566.561 325.895 566.646 317.578 565.556 309.505L565.081 309.566Z" fill="#71B520"/>
<path d="M705.798 522.887C700.707 509.818 696.909 495.947 692.756 481.296C689.958 471.423 685.447 460.375 675.665 457.263C666.151 454.236 655.907 460.51 650.054 468.598C644.201 476.684 641.253 486.49 636.247 495.127C627.176 510.78 611.105 517.34 597.827 503.578C578.857 483.921 570.319 457.127 558.29 433.151C549.557 415.745 542.248 395.368 531.246 379.325C514.468 354.862 491.462 334.003 460.867 334.003C441.473 336.941 424.387 354.113 412.823 375.572C401.259 397.031 394.512 422.552 388.763 448.013C378.308 494.314 370.648 541.689 363.001 589.003C363.001 589.003 748.997 584.502 749.001 584.502C747.467 584.52 738.002 571.875 736.189 570.121C721.368 555.784 712.474 540.024 705.798 522.887Z" fill="#F4F5F8"/>
<path d="M388.001 586.001C377.964 548.118 367.87 510.217 356.072 473.527C349.418 452.838 342.076 432.23 331.879 415.678C321.681 399.128 308.17 386.916 294.607 387.002C273.706 391.039 260.225 411.647 251.382 434.47C245.583 449.435 242.772 467.566 238.671 483.382C233.02 505.167 230.057 528.866 219.203 547.928C211.604 561.272 199.924 557.866 192.052 545.878C187.707 539.263 184.644 531.393 179.78 525.352C174.915 519.311 167.246 515.378 161.07 519.184C154.723 523.097 152.823 532.998 151.969 541.684C150.701 554.575 149.59 566.761 147.513 578.441C147.061 580.984 146.558 583.502 146.001 585.998H388.001V586.001Z" fill="#F4F5F8"/>
<path d="M470.514 557.592L200.859 494.072C193.381 492.311 188.806 484.759 190.641 477.204L280.384 107.843C282.219 100.288 289.771 95.5924 297.249 97.3539L566.903 160.874C574.382 162.636 578.957 170.187 577.121 177.742L487.379 547.104C485.543 554.659 477.992 559.354 470.514 557.592Z" fill="#FDC398"/>
<path d="M260.313 190.438L190.645 477.119C188.807 484.682 193.389 492.242 200.876 494.005L470.858 557.589C478.347 559.353 485.906 554.652 487.744 547.09L501.494 490.51L260.313 190.438Z" fill="#FFE2CA"/>
<path d="M465.717 537.095L214.561 477.931C211.505 477.211 209.635 474.124 210.385 471.037L295.153 122.139C295.903 119.052 298.988 117.132 302.045 117.852L553.2 177.017C556.257 177.737 558.126 180.824 557.376 183.911L472.609 532.809C471.858 535.896 468.772 537.815 465.717 537.095Z" fill="white"/>
<path d="M455.518 127.624C455.63 127.25 455.758 126.888 455.851 126.506C458.954 113.823 451.355 101.173 438.877 98.2541C426.399 95.3349 413.769 103.251 410.666 115.935C410.572 116.318 410.52 116.699 410.445 117.079L377.233 109.31L368.668 144.32L480.166 170.404L488.731 135.394L455.518 127.624Z" fill="#FF7716"/>
<path d="M377.249 109.021L368.67 144.196L480.353 170.404L377.249 109.021Z" fill="#FF7716"/>
<path d="M435.199 134.12C442.399 132.912 447.346 126.186 446.249 119.097C445.152 112.008 438.426 107.241 431.226 108.449C424.026 109.657 419.079 116.383 420.176 123.472C421.274 130.561 428 135.328 435.199 134.12Z" fill="#FF7716"/>
<path d="M426.488 110.107C420.321 113.966 418.33 122.094 422.041 128.259C425.751 134.426 433.758 136.297 439.924 132.437L426.488 110.107Z" fill="#FCAC70"/>
<path d="M480.655 170.317L368.69 143.612L368.098 146.081L480.063 172.786L480.655 170.317Z" fill="white"/>
<path d="M354.229 190.521L312.045 180.645L301.592 223.405L343.776 233.281L354.229 190.521Z" stroke="#FCAC70" stroke-miterlimit="10"/>
<path d="M318.689 207.228L329.047 220.557L361.63 200.872" stroke="#F3F4F6" stroke-width="4" stroke-miterlimit="10"/>
<path d="M316.496 203.654L326.853 216.984L359.437 197.298" stroke="#FF7716" stroke-width="4" stroke-miterlimit="10"/>
<path d="M510.106 240.852L371.732 207.853C370.829 207.638 370.279 206.705 370.503 205.771C370.727 204.836 371.64 204.253 372.544 204.468L510.918 237.468C511.821 237.683 512.371 238.616 512.147 239.55C511.923 240.484 511.01 241.068 510.106 240.852Z" fill="#FCAC70"/>
<path d="M508.38 248.063L370.006 215.063C369.104 214.848 368.553 213.915 368.777 212.981C369.002 212.047 369.915 211.463 370.818 211.678L509.193 244.678C510.095 244.893 510.646 245.826 510.422 246.76C510.197 247.694 509.284 248.278 508.38 248.063Z" fill="#FCAC70"/>
<path d="M506.656 255.273L368.282 222.274C367.379 222.058 366.829 221.126 367.053 220.191C367.277 219.257 368.19 218.673 369.094 218.889L507.468 251.888C508.371 252.104 508.921 253.036 508.697 253.971C508.472 254.906 507.56 255.489 506.656 255.273Z" fill="#FCAC70"/>
<path d="M504.931 262.484L366.557 229.485C365.654 229.27 365.104 228.337 365.328 227.403C365.552 226.469 366.465 225.885 367.369 226.1L505.744 259.1C506.646 259.315 507.197 260.248 506.972 261.182C506.748 262.116 505.835 262.7 504.931 262.484Z" fill="#FCAC70"/>
<path d="M337.869 258.9L295.686 249.024L285.233 291.784L327.416 301.661L337.869 258.9Z" stroke="#FCAC70" stroke-miterlimit="10"/>
<path d="M493.748 309.231L355.373 276.231C354.471 276.016 353.92 275.083 354.145 274.149C354.369 273.215 355.282 272.631 356.186 272.846L494.56 305.846C495.462 306.061 496.013 306.994 495.789 307.928C495.564 308.864 494.652 309.446 493.748 309.231Z" fill="#FCAC70"/>
<path d="M492.021 316.442L353.647 283.443C352.744 283.227 352.194 282.295 352.418 281.36C352.642 280.426 353.555 279.842 354.459 280.058L492.833 313.057C493.736 313.273 494.286 314.205 494.062 315.14C493.838 316.074 492.925 316.658 492.021 316.442Z" fill="#FCAC70"/>
<path d="M490.296 323.652L351.922 290.653C351.02 290.438 350.469 289.505 350.693 288.571C350.918 287.637 351.831 287.053 352.735 287.268L491.109 320.268C492.011 320.483 492.562 321.416 492.338 322.35C492.113 323.284 491.2 323.868 490.296 323.652Z" fill="#FCAC70"/>
<path d="M488.571 330.863L350.197 297.863C349.294 297.648 348.743 296.717 348.968 295.781C349.192 294.847 350.105 294.263 351.009 294.479L489.383 327.478C490.286 327.693 490.837 328.625 490.612 329.56C490.387 330.496 489.475 331.078 488.571 330.863Z" fill="#FCAC70"/>
<path d="M321.512 327.279L279.328 317.402L268.875 360.163L311.059 370.039L321.512 327.279Z" stroke="#FCAC70" stroke-miterlimit="10"/>
<path d="M477.389 377.61L339.015 344.611C338.112 344.396 337.562 343.464 337.786 342.529C338.01 341.595 338.923 341.011 339.827 341.226L478.202 374.226C479.104 374.441 479.655 375.374 479.43 376.308C479.206 377.242 478.293 377.826 477.389 377.61Z" fill="#FCAC70"/>
<path d="M475.665 384.819L337.29 351.82C336.388 351.605 335.837 350.672 336.062 349.738C336.286 348.804 337.199 348.22 338.103 348.435L476.477 381.435C477.379 381.65 477.93 382.583 477.706 383.517C477.482 384.451 476.569 385.035 475.665 384.819Z" fill="#FCAC70"/>
<path d="M473.939 392.03L335.565 359.031C334.662 358.816 334.112 357.883 334.336 356.949C334.56 356.014 335.473 355.431 336.377 355.646L474.751 388.646C475.654 388.861 476.204 389.794 475.98 390.728C475.756 391.664 474.843 392.246 473.939 392.03Z" fill="#FCAC70"/>
<path d="M472.214 399.24L333.84 366.241C332.938 366.026 332.387 365.094 332.611 364.159C332.836 363.224 333.749 362.641 334.652 362.856L473.027 395.856C473.929 396.071 474.48 397.002 474.256 397.938C474.031 398.874 473.118 399.456 472.214 399.24Z" fill="#FCAC70"/>
<path d="M305.153 395.659L262.97 385.782L252.517 428.542L294.7 438.419L305.153 395.659Z" stroke="#FCAC70" stroke-miterlimit="10"/>
<path d="M461.032 445.989L322.658 412.989C321.755 412.774 321.205 411.841 321.429 410.907C321.653 409.973 322.566 409.389 323.47 409.605L461.844 442.604C462.747 442.819 463.297 443.752 463.073 444.686C462.848 445.622 461.936 446.204 461.032 445.989Z" fill="#FCAC70"/>
<path d="M459.307 453.2L320.933 420.201C320.03 419.986 319.48 419.053 319.704 418.119C319.928 417.184 320.841 416.601 321.745 416.816L460.12 449.816C461.022 450.031 461.573 450.964 461.348 451.898C461.124 452.832 460.211 453.416 459.307 453.2Z" fill="#FCAC70"/>
<path d="M457.583 460.411L319.208 427.411C318.306 427.196 317.755 426.263 317.98 425.329C318.204 424.395 319.117 423.811 320.021 424.027L458.395 457.026C459.297 457.241 459.848 458.174 459.624 459.108C459.399 460.043 458.487 460.626 457.583 460.411Z" fill="#FCAC70"/>
<path d="M455.857 467.621L317.483 434.621C316.58 434.406 316.03 433.473 316.254 432.539C316.478 431.605 317.391 431.021 318.295 431.237L456.669 464.236C457.572 464.451 458.122 465.384 457.898 466.318C457.674 467.252 456.761 467.836 455.857 467.621Z" fill="#FCAC70"/>
<path d="M560.189 113.72C582.707 100.09 589.254 70.7621 574.811 48.2148C560.368 25.6674 530.406 18.4385 507.888 32.0686C485.37 45.6987 478.823 75.0263 493.266 97.5737C507.709 120.121 537.671 127.35 560.189 113.72Z" fill="url(#paint2_linear_15473_34676)"/>
<path d="M559.318 112.363C581.087 99.1857 587.416 70.8333 573.454 49.0356C559.491 27.238 530.525 20.2494 508.756 33.4263C486.986 46.6032 480.658 74.9556 494.62 96.7533C508.582 118.551 537.549 125.539 559.318 112.363Z" fill="url(#paint3_linear_15473_34676)"/>
<path opacity="0.95" d="M574.428 82.1081C579.346 61.3057 565.874 40.4591 544.338 35.546C522.802 30.6329 501.357 43.5137 496.44 64.3161C491.522 85.1185 504.993 105.965 526.529 110.878C548.065 115.791 569.51 102.91 574.428 82.1081Z" fill="white"/>
<path d="M552.154 42.8619L549.159 40.8758C548.759 40.6099 548.243 40.5777 547.808 40.7912C547.372 41.0047 547.082 41.4312 547.047 41.9103L546.415 50.5793C546.403 50.7492 546.501 50.907 546.66 50.9714C546.818 51.0361 547.001 50.9927 547.115 50.8638L552.41 44.8598C552.667 44.5681 552.786 44.1817 552.737 43.7994C552.689 43.417 552.476 43.0755 552.154 42.8619Z" fill="url(#paint4_linear_15473_34676)"/>
<path d="M555.758 49.1462C555.448 48.9731 555.067 48.9775 554.759 49.1582L549.177 52.4259C549.067 52.4899 549.01 52.6158 549.036 52.7385C549.061 52.8612 549.163 52.9537 549.288 52.9679L555.144 53.6367C555.429 53.6693 555.715 53.5786 555.93 53.3882C556.144 53.1978 556.267 52.9258 556.266 52.6413L556.259 49.9977C556.258 49.644 556.067 49.3194 555.758 49.1462Z" fill="url(#paint5_linear_15473_34676)"/>
<g clip-path="url(#clip1_15473_34676)">
<path fill-rule="evenodd" clip-rule="evenodd" d="M526.391 54.3678C523.467 55.6478 521 57.7854 519.316 60.4978C517.633 63.2103 516.813 66.3698 516.965 69.5585C517.116 72.7472 518.232 75.8147 520.165 78.3554C522.097 80.8961 524.756 82.7902 527.789 83.7872L527.799 83.793C529.458 84.3394 530.717 84.7523 531.623 85.0644C532.476 85.354 533.158 85.6013 533.549 85.8024L533.589 85.8232C534.32 86.1996 534.953 86.5291 535.494 87.0192C536.032 87.508 536.418 88.1114 536.863 88.8015L536.888 88.8415C537.116 89.1953 537.344 89.6515 537.617 90.2459L545.119 86.9641C544.868 86.3603 544.687 85.8835 544.583 85.4755L544.57 85.4299C544.365 84.6349 544.184 83.9416 544.19 83.215C544.197 82.4854 544.386 81.7964 544.605 81.0044L544.617 80.9611C544.735 80.5373 545.016 79.8687 545.382 79.0456C545.768 78.168 546.32 76.9632 547.044 75.3741L547.049 75.3618C548.376 72.4579 548.789 69.2197 548.235 66.0757C547.681 62.9317 546.185 60.0299 543.946 57.7544C541.707 55.4788 538.83 53.9367 535.695 53.332C532.56 52.7273 529.316 53.0885 526.391 54.3678ZM546.504 90.1823L539.04 93.4472C539.145 93.6646 539.243 93.8572 539.334 94.025C539.587 94.4877 539.739 94.6304 539.829 94.6957C540.076 94.8776 540.366 94.9913 540.671 95.0255C540.779 95.0395 540.989 95.0345 541.49 94.8688C542.012 94.6938 542.679 94.4048 543.708 93.9546C544.737 93.5043 545.403 93.2132 545.885 92.9462C546.348 92.6928 546.491 92.5411 546.556 92.4514C546.738 92.2042 546.851 91.9136 546.886 91.6086C546.9 91.5005 546.897 91.2902 546.729 90.79C546.667 90.6097 546.592 90.4071 546.504 90.1823ZM515.056 76.5341C513.768 73.5896 513.237 70.3697 513.512 67.1676C513.786 63.9655 514.857 60.8829 516.627 58.2005C518.397 55.518 520.81 53.3209 523.646 51.8091C526.482 50.2974 529.651 49.519 532.865 49.5448C536.079 49.5707 539.235 50.3999 542.046 51.9571C544.858 53.5143 547.235 55.75 548.962 58.4606C550.688 61.1712 551.709 64.2706 551.932 67.4767C552.155 70.6828 551.573 73.8937 550.238 76.8171C549.68 78.0292 549.129 79.2442 548.584 80.4619C548.393 80.8952 548.21 81.3322 548.036 81.7725L547.995 81.8896C547.739 82.8199 547.695 83.0508 547.695 83.2422C547.692 83.4345 547.732 83.6646 547.974 84.5985C548.07 84.9673 548.321 85.5607 549.024 87.1677L549.054 87.2362C549.466 88.1777 549.822 88.9908 550.052 89.6804C550.297 90.4146 550.461 91.174 550.369 91.9966C550.267 92.9139 549.925 93.788 549.378 94.5311C548.886 95.1972 548.251 95.6436 547.575 96.0158C546.933 96.3677 546.122 96.7225 545.183 97.1334L545.044 97.1943C544.102 97.6061 543.289 97.9618 542.6 98.1921C541.865 98.4368 541.106 98.6007 540.283 98.5094C539.366 98.407 538.492 98.0649 537.749 97.5174C537.083 97.0262 536.636 96.3904 536.264 95.7145C535.912 95.0731 535.557 94.2621 535.146 93.3227L535.116 93.2521C534.414 91.6472 534.148 91.0573 533.941 90.7371C533.42 89.9249 533.276 89.7407 533.135 89.6111C532.995 89.4815 532.795 89.3573 531.937 88.9116L531.906 88.8996L531.824 88.8619L531.525 88.7451C531.182 88.6177 530.837 88.495 530.49 88.3772C529.606 88.0756 528.364 87.6677 526.691 87.1175C524.115 86.2735 521.747 84.8943 519.741 83.0703C517.736 81.2463 516.139 79.0188 515.056 76.5341ZM531.803 79.0232C531.939 78.8378 532.11 78.681 532.307 78.5619C532.504 78.4428 532.723 78.3637 532.95 78.329C533.178 78.2944 533.41 78.3049 533.633 78.36C533.857 78.415 534.067 78.5136 534.252 78.65C534.665 78.9545 535.151 79.1448 535.66 79.202C536.17 79.2591 536.686 79.1809 537.156 78.9754C537.625 78.7699 538.033 78.4442 538.337 78.0311C538.641 77.6181 538.831 77.1323 538.887 76.6225C538.913 76.3938 538.984 76.1724 539.095 75.9709C539.206 75.7695 539.356 75.592 539.536 75.4485C539.716 75.305 539.923 75.1984 540.144 75.1347C540.365 75.071 540.597 75.0515 540.826 75.0774C541.054 75.1032 541.276 75.1738 541.477 75.2852C541.679 75.3966 541.856 75.5465 542 75.7265C542.143 75.9065 542.25 76.113 542.313 76.3342C542.377 76.5554 542.397 76.787 542.371 77.0157C542.182 78.6759 541.356 80.1979 540.067 81.261L541.335 84.1583C541.521 84.5839 541.53 85.0661 541.361 85.4987C541.192 85.9314 540.858 86.279 540.432 86.4652C540.006 86.6514 539.524 86.6609 539.091 86.4916C538.659 86.3222 538.311 85.988 538.125 85.5624L536.858 82.665C535.202 82.89 533.524 82.4634 532.177 81.4751C531.991 81.3388 531.834 81.1673 531.715 80.9704C531.596 80.7735 531.517 80.555 531.482 80.3275C531.448 80.1 531.458 79.8679 531.513 79.6445C531.568 79.421 531.666 79.2085 531.803 79.0232Z" fill="#FF7716"/>
</g>
<path d="M219.562 347.283C236.659 337.45 242.055 315.592 231.615 298.459C221.175 281.327 198.852 275.409 181.755 285.241C164.658 295.073 159.262 316.932 169.702 334.064C180.143 351.197 202.466 357.115 219.562 347.283Z" fill="#8BC14B"/>
<path d="M218.933 346.251C235.461 336.746 240.678 315.614 230.585 299.051C220.492 282.489 198.911 276.767 182.383 286.272C165.855 295.777 160.638 316.91 170.731 333.472C180.824 350.035 202.405 355.756 218.933 346.251Z" fill="#6AAB1D"/>
<path opacity="0.95" d="M230.759 323.841C234.792 308.341 225.051 292.499 209.001 288.457C192.952 284.416 176.671 293.704 172.638 309.205C168.605 324.705 178.347 340.547 194.396 344.588C210.446 348.63 226.726 339.342 230.759 323.841Z" fill="white"/>
<g clip-path="url(#clip2_15473_34676)">
<path fill-rule="evenodd" clip-rule="evenodd" d="M191.845 308.108C191.492 307.25 191.495 306.286 191.852 305.43C192.21 304.573 192.893 303.894 193.752 303.541L196.989 302.21C197.847 301.857 198.811 301.86 199.668 302.218C200.524 302.575 201.204 303.258 201.557 304.117L204.218 310.591L210.692 307.93C211.551 307.577 212.514 307.58 213.371 307.938C214.228 308.295 214.907 308.978 215.26 309.837L216.59 313.074C216.943 313.933 216.941 314.896 216.583 315.753C216.226 316.61 215.542 317.289 214.684 317.642L208.209 320.303L210.87 326.778C211.223 327.636 211.221 328.6 210.863 329.456C210.505 330.313 209.822 330.992 208.964 331.345L205.726 332.676C204.868 333.029 203.904 333.026 203.048 332.669C202.191 332.311 201.511 331.628 201.159 330.769L198.498 324.295L192.023 326.956C191.165 327.309 190.201 327.306 189.344 326.948C188.488 326.591 187.808 325.908 187.455 325.049L186.125 321.812C185.772 320.953 185.775 319.99 186.132 319.133C186.49 318.276 187.173 317.597 188.032 317.244L194.506 314.583L191.845 308.108ZM198.319 305.447L195.082 306.778L198.409 314.871C198.585 315.3 198.584 315.782 198.405 316.21C198.226 316.639 197.884 316.978 197.455 317.155L189.362 320.481L190.693 323.718L198.786 320.392C199.215 320.216 199.697 320.217 200.125 320.396C200.553 320.575 200.893 320.916 201.07 321.346L204.396 329.439L207.633 328.108L204.307 320.015C204.13 319.586 204.132 319.104 204.31 318.676C204.489 318.247 204.831 317.908 205.26 317.731L213.353 314.405L212.023 311.168L203.93 314.494C203.5 314.67 203.019 314.669 202.59 314.49C202.162 314.311 201.822 313.97 201.646 313.541L198.319 305.447Z" fill="#8BC14B"/>
</g>
<g clip-path="url(#clip3_15473_34676)">
<path d="M507.302 589.297C510.113 576.532 501.514 565.272 492.39 557.334L322.656 407.891L319.831 405.399C320.361 403.776 320.384 402.641 319.811 402.137L300.556 385.189C298.162 383.077 286.402 392.528 274.287 406.277C274.273 406.292 274.26 406.306 274.244 406.33C274.239 406.347 274.217 406.359 274.204 406.374C262.095 420.134 254.211 432.994 256.604 435.105C256.723 435.213 256.879 435.285 257.042 435.33L275.932 451.962C276.513 452.469 277.636 452.302 279.179 451.567L451.739 603.502C453.141 604.75 454.622 605.983 456.168 607.151C456.177 607.153 456.185 607.155 456.191 607.166C456.658 607.52 457.129 607.857 457.609 608.196C457.694 608.257 457.788 608.32 457.872 608.381C458.344 608.718 458.829 609.04 459.313 609.362C459.392 609.412 459.462 609.459 459.541 609.509C460.568 610.179 461.625 610.81 462.696 611.389C462.76 611.426 462.815 611.46 462.881 611.488C463.404 611.774 463.931 612.043 464.464 612.295C464.545 612.336 464.62 612.367 464.701 612.408C465.239 612.671 465.791 612.919 466.34 613.147C466.365 613.154 466.391 613.162 466.408 613.166C466.956 613.395 467.498 613.612 468.056 613.806C468.116 613.823 468.174 613.849 468.232 613.874C468.781 614.066 469.324 614.246 469.881 614.412C469.975 614.439 470.07 614.465 470.164 614.492C470.715 614.647 471.274 614.804 471.834 614.924C471.894 614.941 471.954 614.958 472.017 614.966C472.559 615.082 473.105 615.189 473.655 615.278C473.706 615.293 473.769 615.301 473.823 615.307C474.384 615.391 474.941 615.455 475.503 615.501C475.611 615.513 475.722 615.516 475.83 615.528C476.386 615.564 476.944 615.591 477.501 615.59C477.594 615.588 477.679 615.584 477.772 615.583C478.329 615.582 478.882 615.561 479.434 615.512C479.474 615.505 479.51 615.506 479.556 615.509C480.127 615.456 480.695 615.384 481.27 615.286C481.377 615.27 481.492 615.256 481.601 615.231C482.159 615.128 482.722 615.008 483.28 614.868C483.381 614.84 483.49 614.815 483.593 614.779C484.176 614.619 484.764 614.441 485.351 614.235C491.004 612.215 495.826 609.09 499.645 604.68C503.528 600.344 506.024 595.164 507.313 589.291L507.302 589.297Z" fill="#F4F5F8"/>
<path d="M273.032 430.864L448.596 585.444C457.621 593.502 469.884 600.607 482.184 596.197C487.836 594.178 492.659 591.052 496.478 586.643C500.36 582.307 502.856 577.126 504.146 571.254C506.956 558.489 498.358 547.228 489.234 539.29L313.67 384.711L273.032 430.864Z" fill="#A7C9D0"/>
<path d="M275.092 428.52L448.663 581.343C457.529 589.245 469.418 596.393 480.862 592.782C486.124 591.126 490.556 588.401 493.981 584.437C497.48 580.541 499.62 575.799 500.589 570.374C502.724 558.56 494.132 547.673 485.162 539.88L311.599 387.06L275.092 428.52Z" fill="#F6F6F6"/>
<path d="M352.449 423.034C354.441 424.791 347.888 435.492 337.803 446.936C327.725 458.391 317.937 466.243 315.944 464.486L448.664 581.343C457.529 589.246 469.418 596.393 480.862 592.783C486.125 591.127 490.556 588.402 493.981 584.438C497.48 580.541 499.621 575.799 500.59 570.375C502.724 558.561 494.132 547.673 485.162 539.88L352.451 423.025L352.449 423.034Z" fill="#C8E3FF"/>
<path d="M330.589 440.583C320.511 452.038 313.957 462.739 315.952 464.488C317.944 466.245 327.727 458.382 337.811 446.938C347.898 435.486 354.451 424.785 352.457 423.036C350.464 421.279 340.675 429.131 330.597 440.586L330.589 440.583Z" fill="#8DC6FF"/>
<path opacity="0.6" d="M316.647 463.7C314.676 461.967 321.056 451.486 330.941 440.19C330.82 440.323 330.71 440.45 330.589 440.583C320.511 452.038 313.957 462.739 315.952 464.488C317.945 466.245 327.727 458.382 337.811 446.938C337.932 446.805 338.042 446.678 338.154 446.543C328.193 457.78 318.616 465.441 316.647 463.7Z" fill="white"/>
<path d="M490.649 546.201C492.127 549.224 492.864 552.512 492.965 555.881C493.179 562.807 491.241 570.028 487.071 575.619C484.995 578.413 482.428 580.613 479.546 582.317C474.032 586.352 468.142 587.303 463.106 587.028C460.492 587.119 457.884 586.859 455.437 586.059C463.047 591.363 471.936 594.893 480.581 592.165C485.743 590.536 490.083 587.869 493.45 583.982C496.881 580.159 498.979 575.507 499.938 570.182C501.58 561.077 496.733 552.542 490.32 545.589C490.429 545.796 490.54 545.994 490.646 546.21L490.649 546.201Z" fill="#8DC6FF"/>
<path d="M491.41 580.644C487.189 586.285 480.991 590.341 473.959 591.361C471.03 591.78 468.11 591.739 465.226 591.336C470.224 593.196 475.447 593.793 480.589 592.168C485.751 590.539 490.092 587.872 493.459 583.985C496.89 580.162 498.987 575.509 499.947 570.184C501.105 563.755 499.022 557.603 495.44 552.095C498.242 561.763 497.589 572.398 491.419 580.646L491.41 580.644Z" fill="#1686FF"/>
<path d="M271.347 423.821L286.757 437.387C288.675 439.077 298.085 431.517 307.788 420.504C317.483 409.489 323.793 399.193 321.872 397.511L306.462 383.946L271.347 423.821Z" fill="#FCAC70"/>
<path d="M305.271 394.253L474.595 543.339C479.009 546.844 483.109 550.873 486.655 555.257C490.083 559.496 493.941 564.023 494.245 569.741C494.666 577.811 489.084 586.475 481.799 589.78C475.972 592.419 469.53 593.585 463.224 592.285C459.82 591.588 456.345 590.453 453.023 589.101C461.437 595.439 471.791 599.928 482.19 596.209C487.842 594.189 492.665 591.064 496.484 586.654C500.366 582.318 502.862 577.138 504.152 571.265C506.962 558.5 498.364 547.239 489.24 539.301L313.67 384.711L305.271 394.253Z" fill="#CCE8EE"/>
<path d="M312.746 387.206L486.618 539.686C495.674 547.503 504.203 558.614 501.433 571.27C500.16 577.082 497.702 582.227 493.861 586.547C490.126 590.888 485.402 593.994 479.868 596.019C480.432 595.862 480.99 595.695 481.548 595.49C487.127 593.468 491.886 590.371 495.648 586.001C499.472 581.705 501.92 576.566 503.179 570.768C505.922 558.142 497.382 547.037 488.337 539.214L313.727 386.091L312.746 387.206Z" fill="#E0E0E0"/>
<path d="M278.694 434.516L448.874 584.353C448.874 584.353 463.544 596.56 474.37 595.772C474.37 595.772 464.921 595.982 449.63 583.777L279.443 433.669L278.694 434.516Z" fill="#202020"/>
<path d="M319.499 389.848L313.661 384.708L273.023 430.862L279.953 436.967C287.712 431.782 308.993 416.881 319.491 389.845L319.499 389.848Z" fill="#FFC487"/>
<path d="M274.01 425.637L449.627 580.259C449.627 580.259 469.087 598.36 485.834 589.588C485.834 589.588 474.151 591.34 460.134 580.245C446.115 569.158 279.575 420.893 279.575 420.893L274.01 425.637Z" fill="#8DC6FF"/>
<path d="M297.327 367.236C299.721 369.348 291.845 382.21 279.728 395.968C267.613 409.716 255.853 419.167 253.459 417.056C251.065 414.944 258.941 402.082 271.059 388.325C283.165 374.573 294.925 365.123 297.327 367.236Z" fill="#BB1A2E"/>
<path d="M253.54 416.968L272.795 433.916C275.189 436.027 286.947 426.585 299.064 412.828C311.173 399.068 319.057 386.208 316.661 384.105L297.399 367.146L253.54 416.968Z" fill="#8BC248"/>
<path opacity="0.8" d="M261.448 407.983L257.263 412.735C264.505 419.086 271.763 425.414 278.98 431.786C280.473 430.767 282.167 429.462 283.998 427.899C276.472 421.273 268.959 414.632 261.448 407.983Z" fill="#A4D28D"/>
<path d="M295.463 369.347L285.948 380.153C293.642 386.909 301.344 393.668 309.027 400.431C312.728 395.32 315.362 390.902 316.481 387.914C309.46 381.736 302.463 375.537 295.466 369.339L295.463 369.347Z" fill="#9FCF7F"/>
<path d="M297.4 367.146C299.793 369.257 291.918 382.12 279.803 395.868C267.694 409.628 255.936 419.07 253.54 416.967C251.146 414.856 259.022 401.994 271.14 388.236C283.246 374.485 295.006 365.034 297.4 367.146Z" fill="#71B520"/>
<path d="M254.775 417.231C258.731 416.757 269.129 407.99 279.803 395.868C290.483 383.757 297.864 372.324 297.825 368.341C296.447 373.437 289.26 384.146 279.31 395.442C269.372 406.732 259.653 415.225 254.772 417.239L254.775 417.231Z" fill="white"/>
</g>
</g>
<defs>
<linearGradient id="paint0_linear_15473_34676" x1="566.292" y1="446.766" x2="609.696" y2="501.176" gradientUnits="userSpaceOnUse">
<stop stop-color="#F8D9C0"/>
<stop offset="0.9964" stop-color="#FECBA1"/>
</linearGradient>
<linearGradient id="paint1_linear_15473_34676" x1="119.646" y1="533.36" x2="79.4953" y2="586.476" gradientUnits="userSpaceOnUse">
<stop stop-color="#A4D28D"/>
<stop offset="0.9964" stop-color="#8BC248"/>
</linearGradient>
<linearGradient id="paint2_linear_15473_34676" x1="481.554" y1="-42.5739" x2="506.041" y2="15.766" gradientUnits="userSpaceOnUse">
<stop stop-color="#FCAC71"/>
<stop offset="1" stop-color="#FF7716"/>
</linearGradient>
<linearGradient id="paint3_linear_15473_34676" x1="485.535" y1="-103.331" x2="505.942" y2="-19.1977" gradientUnits="userSpaceOnUse">
<stop stop-color="#FF7716"/>
<stop offset="1" stop-color="#FF7716"/>
</linearGradient>
<linearGradient id="paint4_linear_15473_34676" x1="544.506" y1="47.665" x2="552.267" y2="42.8169" gradientUnits="userSpaceOnUse">
<stop stop-color="#FF7716"/>
<stop offset="1" stop-color="#FCAC70"/>
</linearGradient>
<linearGradient id="paint5_linear_15473_34676" x1="550.082" y1="54.4473" x2="556.65" y2="50.3446" gradientUnits="userSpaceOnUse">
<stop stop-color="#FF7716"/>
<stop offset="1" stop-color="#FCAC70"/>
</linearGradient>
<clipPath id="clip0_15473_34676">
<rect width="611" height="584" fill="white"/>
</clipPath>
<clipPath id="clip1_15473_34676">
<rect width="56.0545" height="56.0545" fill="white" transform="translate(498.139 59.7161) rotate(-23.6267)"/>
</clipPath>
<clipPath id="clip2_15473_34676">
<rect width="42" height="42" fill="white" transform="translate(173.951 306.003) rotate(-22.3429)"/>
</clipPath>
<clipPath id="clip3_15473_34676">
<rect width="291.975" height="191.456" fill="white" transform="translate(268.83 359) rotate(15.707)"/>
</clipPath>
</defs>
</svg>
