<svg width="563" height="537" viewBox="0 0 563 537" fill="none" xmlns="http://www.w3.org/2000/svg">
<path d="M410.47 124.975C410.47 124.975 366.737 86.516 307.506 100.697C248.276 114.877 221.893 164.497 186.998 197.994C168.724 215.536 142.47 221.29 121.04 234.524C52.517 276.837 58.7473 377.813 108.947 417.656C152.404 452.149 208.076 457.622 281.572 436.031C355.068 414.439 407.562 401.78 455.125 334.005C502.688 266.231 464.178 176.969 410.47 124.975Z" fill="#85B9CD"/>
<path opacity="0.7" d="M410.47 124.975C410.47 124.975 366.737 86.516 307.506 100.697C248.276 114.877 221.893 164.497 186.998 197.994C168.724 215.536 142.47 221.29 121.04 234.524C52.517 276.837 58.7472 377.813 108.947 417.656C152.404 452.149 208.076 457.622 281.572 436.031C355.068 414.439 407.562 401.78 455.125 334.005C502.688 266.231 464.178 176.969 410.47 124.975Z" fill="white"/>
<path d="M61.1289 463.394H489.655" stroke="#263238" stroke-width="1.074" stroke-miterlimit="10"/>
<path d="M272.23 505.114C374.748 505.114 457.855 497.342 457.855 487.756C457.855 478.169 374.748 470.398 272.23 470.398C169.713 470.398 86.6055 478.169 86.6055 487.756C86.6055 497.342 169.713 505.114 272.23 505.114Z" fill="#85B9CD"/>
<path opacity="0.5" d="M272.23 505.114C374.748 505.114 457.855 497.342 457.855 487.756C457.855 478.169 374.748 470.398 272.23 470.398C169.713 470.398 86.6055 478.169 86.6055 487.756C86.6055 497.342 169.713 505.114 272.23 505.114Z" fill="white"/>
<path d="M387.413 459.694C387.413 459.694 352.1 405.842 357.397 393.482C362.694 381.123 381.233 402.31 381.233 402.31C381.233 402.31 353.866 329.919 372.405 314.029C390.944 298.138 397.124 379.358 397.124 379.358C397.124 379.358 413.898 332.568 427.14 350.225C440.383 367.881 406.835 404.96 406.835 404.96C406.835 404.96 429.789 405.843 423.609 420.851C417.429 435.859 400.655 451.75 400.655 451.75L387.413 459.694Z" fill="#85B9CD"/>
<path d="M377.705 447.335C377.705 447.335 356.517 417.319 367.111 411.139C377.705 404.959 383.002 423.499 383.002 423.499C383.002 423.499 383.885 342.278 400.658 348.458C417.432 354.638 411.252 404.076 411.252 404.076C411.252 404.076 432.44 389.951 431.557 410.256C430.674 430.561 402.424 448.218 402.424 448.218" stroke="#263238" stroke-width="1.074" stroke-miterlimit="10" stroke-linecap="round" stroke-linejoin="round"/>
<path d="M397.121 449.1L378.582 428.795" stroke="#263238" stroke-width="1.074" stroke-miterlimit="10" stroke-linecap="round" stroke-linejoin="round"/>
<path d="M398.008 458.811L397.125 408.491" stroke="#263238" stroke-width="1.074" stroke-miterlimit="10" stroke-linecap="round" stroke-linejoin="round"/>
<path d="M398.887 442.038L415.66 419.968" stroke="#263238" stroke-width="1.074" stroke-miterlimit="10" stroke-linecap="round" stroke-linejoin="round"/>
<path d="M413.895 443.803H367.105L371.785 485.296H409.216L413.895 443.803Z" fill="#263238" stroke="#263238" stroke-width="1.074" stroke-miterlimit="10" stroke-linecap="round" stroke-linejoin="round"/>
<path d="M265.8 181.217C265.8 181.217 266.368 168.454 256.511 164.474C246.654 160.493 232.815 166.37 229.435 173.795C226.055 181.219 226.498 186.748 215.188 204.347C203.878 221.945 194.812 237.774 157.816 242.326C120.82 246.877 82.148 220.561 88.591 181.891C95.0339 143.219 127.323 129.506 151.682 145.839C176.041 162.171 182.772 176.735 205.361 170.953C227.95 165.171 221.059 98.9499 195.341 75.5722C169.623 52.1944 145.171 84.3575 146.183 116.867C147.196 149.377 166.311 179.643 185.773 184.445C205.235 189.245 226.623 168.456 228.991 148.394C231.359 128.331 244.186 109.817 263.837 116.988C283.489 124.159 289.05 153.919 311.261 163.271C333.472 172.621 371.983 147.281 380.259 111.644C388.536 76.0061 366.291 36.4517 328.979 37.0532C291.667 37.6557 301.242 87.7621 288.478 87.1939C275.715 86.6258 291.32 63.1191 266.614 52.3791C241.908 41.6391 217.802 48.3377 210.947 71.9378C204.093 95.5389 220.935 137.115 243.555 141.663C266.177 146.211 279.667 145.927 294.928 167.757C310.188 189.587 331.041 191.893 349.554 184.846C368.067 177.8 364.022 147.123 386.2 126.27C408.378 105.418 439.435 125.984 438.994 160.199C438.554 194.415 420.071 191.92 395.46 192.3C370.848 192.68 352.366 210.057 352.494 231.509C352.622 252.962 385.511 256.688 407.626 254.917C429.742 253.147 426.613 243.858 428.412 216.688C430.211 189.518 466.418 185.03 462.565 216.339C458.713 247.648 438.397 242.121 430.437 261.836C422.476 281.55 443.55 296.556 416.664 308.248C389.778 319.938 391.103 296.781 391.166 277.698C391.228 258.615 385.162 262.281 357.739 257.322C330.315 252.363 318.814 227.847 339.412 207.121C360.01 186.395 345.003 187.596 331.418 196.632C317.833 205.669 283.362 162.323 271.736 156.101C260.109 149.877 268.703 157.933 270.378 168.927C272.055 179.921 265.8 181.217 265.8 181.217Z" stroke="#85B9CD" stroke-width="1.074" stroke-miterlimit="10" stroke-linecap="round" stroke-linejoin="round"/>
<path d="M163.003 210.187C170.68 195.864 165.291 178.03 150.968 170.353C136.645 162.676 118.81 168.064 111.134 182.387C103.457 196.709 108.846 214.544 123.169 222.22C137.492 229.897 155.327 224.51 163.003 210.187Z" stroke="#263238" stroke-width="1.074" stroke-miterlimit="10" stroke-linecap="round" stroke-linejoin="round"/>
<path d="M160.703 199.806C162.656 186.748 153.653 174.579 140.595 172.626C127.537 170.673 115.368 179.676 113.415 192.735C111.462 205.793 120.465 217.962 133.523 219.915C146.582 221.868 158.75 212.865 160.703 199.806Z" stroke="#263238" stroke-width="1.074" stroke-miterlimit="10" stroke-linecap="round" stroke-linejoin="round"/>
<path d="M135.51 194.386L124.828 187.213L124.043 188.382L134.726 195.555C134.869 195.094 135.143 194.688 135.51 194.386Z" fill="#263238"/>
<path d="M135.293 197.958L125.426 215.232L126.648 215.93L136.515 198.656C136.041 198.546 135.619 198.302 135.293 197.958Z" fill="#263238"/>
<path d="M139.506 196.082C139.398 194.731 138.216 193.725 136.866 193.833C135.516 193.94 134.51 195.122 134.617 196.472C134.726 197.822 135.907 198.829 137.257 198.721C138.607 198.614 139.613 197.432 139.506 196.082Z" stroke="#263238" stroke-width="1.074" stroke-miterlimit="10" stroke-linecap="round" stroke-linejoin="round"/>
<path d="M203.198 114.95L179.08 116.881C178.438 116.933 177.877 116.454 177.825 115.811L177.191 107.89C177.14 107.247 177.619 106.686 178.261 106.634L202.379 104.703C203.021 104.651 203.583 105.13 203.634 105.773L204.268 113.693C204.319 114.337 203.84 114.899 203.198 114.95Z" stroke="#263238" stroke-width="1.074" stroke-miterlimit="10" stroke-linecap="round" stroke-linejoin="round"/>
<path d="M179.571 116.841L175.778 155.783C175.634 157.259 176.054 158.736 176.954 159.916C178.166 161.508 180.105 162.373 182.099 162.214L207.183 160.205C209.311 160.034 211.18 158.724 212.065 156.78L212.515 155.79C213.123 154.455 213.21 152.94 212.758 151.545L202.708 114.989" stroke="#263238" stroke-width="1.074" stroke-miterlimit="10" stroke-linecap="round" stroke-linejoin="round"/>
<path d="M179.694 105.855C179.694 105.855 178.98 105.247 180.474 103.131C181.968 101.015 185.813 103.036 186.849 99.6264C187.885 96.2164 184.907 95.1886 184.644 90.2192C184.381 85.2509 190.489 83.7956 193.061 86.7223C196.683 90.8432 195.385 96.239 195.385 96.239C195.385 96.239 193.748 100.781 197.404 100.444C198.447 100.347 202.648 101.687 201.894 104.742" stroke="#263238" stroke-width="1.074" stroke-miterlimit="10" stroke-linecap="round" stroke-linejoin="round"/>
<path d="M191.554 119.304L182.264 120.047L179.743 152.065C179.622 153.608 180.165 155.129 181.238 156.243C182.364 157.414 183.956 158.019 185.575 157.889L189.853 157.546" stroke="#263238" stroke-width="1.074" stroke-miterlimit="10" stroke-linecap="round" stroke-linejoin="round"/>
<path d="M206.11 155.716L202.657 155.992C201.455 156.089 200.393 155.213 200.258 154.016L196.285 118.925L201.545 118.504" stroke="#263238" stroke-width="1.074" stroke-miterlimit="10" stroke-linecap="round" stroke-linejoin="round"/>
<path d="M272.296 111.266L223.966 115.135C222.897 115.221 221.962 114.424 221.877 113.355L219.6 84.9101C219.514 83.8415 220.311 82.906 221.38 82.8212L269.71 78.9526C270.778 78.8667 271.714 79.6636 271.799 80.7323L274.076 109.177C274.161 110.245 273.365 111.18 272.296 111.266Z" stroke="#263238" stroke-width="1.074" stroke-miterlimit="10" stroke-linecap="round" stroke-linejoin="round"/>
<path d="M272.713 92.2178L220.516 96.3965L221.391 107.333L273.589 103.155L272.713 92.2178Z" stroke="#263238" stroke-width="1.074" stroke-miterlimit="10" stroke-linecap="round" stroke-linejoin="round"/>
<path d="M255.924 86.7731C256.709 86.5158 257.137 85.6707 256.88 84.8855C256.622 84.1003 255.777 83.6723 254.992 83.9296C254.207 84.1869 253.779 85.032 254.036 85.8172C254.293 86.6024 255.139 87.0304 255.924 86.7731Z" stroke="#263238" stroke-width="1.074" stroke-miterlimit="10" stroke-linecap="round" stroke-linejoin="round"/>
<path d="M262.741 84.7739C262.807 85.5977 262.193 86.3183 261.37 86.3849C260.546 86.4504 259.825 85.8361 259.759 85.0134C259.692 84.1907 260.308 83.469 261.13 83.4024C261.953 83.3358 262.676 83.9501 262.741 84.7739Z" stroke="#263238" stroke-width="1.074" stroke-miterlimit="10" stroke-linecap="round" stroke-linejoin="round"/>
<path d="M268.542 84.31C268.608 85.1338 267.994 85.8544 267.17 85.921C266.347 85.9865 265.626 85.3733 265.559 84.5495C265.494 83.7258 266.107 83.0051 266.931 82.9385C267.755 82.8719 268.476 83.4863 268.542 84.31Z" stroke="#263238" stroke-width="1.074" stroke-miterlimit="10" stroke-linecap="round" stroke-linejoin="round"/>
<path d="M303.588 77.3914C303.588 77.3914 302.434 91.6327 310.505 101.694C318.576 111.755 333.334 119.369 329.49 133.442L368.579 105.84C368.579 105.84 368.898 95.4894 362.013 90.6865C355.127 85.8835 348.775 82.9515 346.495 73.5734C344.215 64.1963 342.785 55.8975 342.785 55.8975L303.588 77.3914Z" stroke="#263238" stroke-width="1.074" stroke-miterlimit="10" stroke-linecap="round" stroke-linejoin="round"/>
<path d="M305.253 92.6699L286.816 103.952C286.816 103.952 291.57 112.288 296.712 118.685C301.855 125.083 314.446 129.25 317.24 136.926C320.033 144.602 318.183 152.104 318.183 152.104L354.297 126.878C354.297 126.878 355.759 121.313 352.164 117.243" stroke="#263238" stroke-width="1.074" stroke-miterlimit="10" stroke-linecap="round" stroke-linejoin="round"/>
<path d="M324.957 107.437L350.831 90.3838" stroke="#263238" stroke-width="1.074" stroke-miterlimit="10" stroke-linecap="round" stroke-linejoin="round"/>
<path d="M327.531 112.405L356.067 94.5947" stroke="#263238" stroke-width="1.074" stroke-miterlimit="10" stroke-linecap="round" stroke-linejoin="round"/>
<path d="M331.758 117.515L360.186 98.3516" stroke="#263238" stroke-width="1.074" stroke-miterlimit="10" stroke-linecap="round" stroke-linejoin="round"/>
<path d="M310.914 125.992L323.592 117.624" stroke="#263238" stroke-width="1.074" stroke-miterlimit="10" stroke-linecap="round" stroke-linejoin="round"/>
<path d="M315.324 129.998L326.442 122.57" stroke="#263238" stroke-width="1.074" stroke-miterlimit="10" stroke-linecap="round" stroke-linejoin="round"/>
<path d="M320.706 85.7319C321.113 86.8457 321.468 87.8531 321.125 89.013C322.383 89.4222 322.97 90.5435 323.647 91.6669C323.679 91.7206 323.792 91.9128 323.822 91.9687C324.286 92.8493 324.903 93.9233 324.909 94.8889C324.914 95.8533 324.532 96.1122 323.847 96.603C323.163 97.0938 322.273 97.4546 321.56 97.9379C319.364 93.3176 317.225 88.7434 315.203 84.035C315.906 83.6999 316.641 83.1994 317.354 82.9449C318.067 82.6904 318.455 82.5303 319.135 83.0244C319.816 83.5184 320.19 84.4915 320.544 85.3088C320.576 85.3872 320.676 85.6525 320.706 85.7319ZM319.141 89.1601C319.328 89.0044 319.488 89.0463 319.682 88.8519C319.876 88.6575 320.038 88.6403 319.968 88.1968C319.899 87.7543 319.689 87.1518 319.465 86.6158C319.399 86.4601 319.233 86.0144 319.125 85.7459C319.018 85.4774 318.788 84.9318 318.566 84.731C318.344 84.5291 318.177 84.5828 317.965 84.645C317.754 84.7073 317.648 84.8061 317.455 84.8749C318.037 86.2979 318.571 87.7296 319.141 89.1601ZM322.365 95.3872C322.563 95.2358 322.708 95.2508 322.922 95.0682C323.136 94.8856 323.32 94.7772 323.244 94.3572C323.167 93.9362 322.841 93.2972 322.618 92.9181C322.394 92.5379 322.267 92.3048 322.053 91.9257C321.84 91.5466 321.496 90.9441 321.22 90.6455C320.944 90.3469 320.777 90.3952 320.498 90.4651C320.219 90.5359 320.107 90.7003 319.858 90.7883C320.639 92.351 321.461 93.8965 322.365 95.3872Z" fill="#263238"/>
<path d="M327.018 95.0455C324.409 90.5755 322.413 86.2441 320.539 81.3896C321.011 81.1544 321.478 80.9084 321.942 80.6582C323.788 85.6373 325.648 89.8269 328.4 94.3367C327.943 94.5805 327.481 94.8124 327.018 95.0455Z" fill="#263238"/>
<path d="M329.871 93.5419C326.894 88.9463 325.231 85.0477 323.434 79.827C323.933 79.5434 324.427 79.2502 324.922 78.957C326.555 83.5097 327.524 87.1409 330.349 91.0728C331.023 90.6765 331.693 90.2748 332.356 89.8635C332.701 90.3984 333.036 90.9418 333.379 91.4788C332.221 92.1876 331.051 92.8739 329.871 93.5419Z" fill="#263238"/>
<path d="M334.298 90.9128C331.521 86.446 329.707 82.1017 327.82 77.1731C328.359 76.8316 328.895 76.4858 329.432 76.1421C331.137 80.2974 332.673 84.3496 334.968 88.202C335.674 87.7434 336.38 87.2838 337.086 86.8219C337.4 87.3879 337.709 87.9582 338.023 88.5242C336.786 89.3276 335.544 90.1234 334.298 90.9128Z" fill="#263238"/>
<path d="M336.664 84.325C336.531 84.0952 336.232 83.4819 336.087 83.193C336.596 82.8225 337.128 82.4917 337.657 82.1566C337.874 82.6056 338.096 83.0158 338.324 83.4712C338.553 83.9266 338.946 84.5763 339.282 84.89C339.618 85.2036 339.796 85.1756 340.107 85.0017C340.419 84.8277 340.507 84.6859 340.442 84.2799C340.377 83.874 340.173 83.4368 339.934 83.0137C339.696 82.5895 339.354 82.0718 338.956 81.7227C338.557 81.3726 338.061 81.0773 337.583 80.8635C337.105 80.6498 336.752 80.5403 336.251 80.2986C335.751 80.057 335.164 79.7272 334.715 79.2998C334.266 78.8713 333.842 78.2075 333.614 77.6351C333.242 76.705 332.891 75.6922 333.007 74.7417C333.123 73.7923 333.563 73.2768 334.286 72.8322C335.009 72.3875 335.635 72.2189 336.394 72.7763C337.154 73.3348 337.729 74.3787 338.108 75.3099C338.174 75.471 338.542 75.9811 338.433 76.1272C338.158 76.4956 337.445 76.7125 337.066 77.0379C336.904 76.6696 336.8 76.4204 336.636 76.0273C336.473 75.6353 336.181 74.9726 335.9 74.6719C335.619 74.3712 335.462 74.3873 335.172 74.5377C334.882 74.688 334.791 74.8728 334.777 75.224C334.764 75.5752 334.893 75.9715 335.049 76.3205C335.205 76.6696 335.378 77.0143 335.685 77.2817C335.993 77.5492 336.361 77.7307 336.741 77.9294C337.121 78.1291 337.748 78.432 338.097 78.621C338.797 78.998 339.402 79.4201 339.936 79.9238C340.472 80.4275 340.937 81.1589 341.227 81.7367C341.728 82.7344 342.167 83.7601 342.18 84.7793C342.193 85.7986 341.79 86.2249 341.032 86.7093C340.274 87.1937 339.599 87.3773 338.727 86.8382C337.856 86.3012 337.234 85.3099 336.664 84.325Z" fill="#263238"/>
<path d="M304.779 109.296C305.347 110.275 305.846 111.161 305.598 112.239C307.018 112.512 307.785 113.483 308.648 114.448C308.69 114.494 308.834 114.66 308.873 114.708C309.477 115.471 310.27 116.397 310.383 117.271C310.496 118.145 310.106 118.41 309.412 118.909C308.718 119.407 307.786 119.804 307.06 120.299C304.148 116.282 301.305 112.3 298.574 108.19C299.305 107.831 300.054 107.319 300.805 107.032C301.557 106.746 301.962 106.571 302.761 106.965C303.56 107.359 304.075 108.212 304.553 108.926C304.599 108.993 304.738 109.227 304.779 109.296ZM303.448 112.528C303.635 112.372 303.814 112.398 304.004 112.206C304.196 112.015 304.372 111.986 304.246 111.589C304.12 111.193 303.825 110.664 303.521 110.195C303.433 110.06 303.201 109.668 303.054 109.434C302.907 109.199 302.595 108.722 302.33 108.557C302.065 108.392 301.89 108.453 301.664 108.526C301.44 108.599 301.334 108.697 301.131 108.774C301.924 110.018 302.666 111.275 303.448 112.528ZM307.659 117.922C307.86 117.769 308.02 117.771 308.234 117.589C308.446 117.406 308.638 117.293 308.507 116.919C308.376 116.543 307.949 115.989 307.662 115.662C307.376 115.334 307.21 115.134 306.935 114.806C306.66 114.478 306.218 113.96 305.883 113.709C305.548 113.46 305.372 113.516 305.074 113.603C304.777 113.69 304.672 113.847 304.409 113.946C305.437 115.304 306.507 116.641 307.659 117.922Z" fill="#263238"/>
<path d="M312.709 117.247C309.363 113.398 306.702 109.626 304.117 105.371C304.607 105.12 305.09 104.861 305.57 104.598C308.139 108.968 310.635 112.622 314.141 116.496C313.669 116.753 313.189 116.999 312.709 117.247Z" fill="#263238"/>
<path d="M315.666 115.66C311.903 111.726 309.655 108.32 307.113 103.727C307.628 103.43 308.136 103.125 308.644 102.821C310.931 106.822 312.393 110.04 315.915 113.383C316.606 112.972 317.295 112.555 317.976 112.129C318.412 112.587 318.838 113.052 319.272 113.513C318.084 114.246 316.882 114.962 315.666 115.66Z" fill="#263238"/>
<path d="M387.728 145.221L389.486 147.937C389.904 147.613 390.342 147.316 390.794 147.038L388.903 144.458C389.128 144.153 389.425 143.584 389.245 143.324C388.971 142.927 388.172 143.001 387.461 143.49C386.75 143.98 386.397 144.7 386.671 145.098C386.833 145.332 387.407 145.286 387.728 145.221Z" stroke="#263238" stroke-width="1.074" stroke-miterlimit="10"/>
<path d="M380.231 151.903L384.739 154.208C384.968 153.639 385.222 153.083 385.517 152.549L380.93 150.53C380.977 150.115 380.946 149.41 380.633 149.261C380.153 149.032 379.433 149.543 379.025 150.401C378.618 151.258 378.676 152.138 379.156 152.366C379.44 152.503 379.961 152.143 380.231 151.903Z" stroke="#263238" stroke-width="1.074" stroke-miterlimit="10"/>
<path d="M380.556 161.94L383.797 161.775C383.762 161.512 383.715 161.254 383.694 160.987C383.672 160.719 383.678 160.457 383.67 160.192L380.482 160.541C380.33 160.193 379.985 159.653 379.671 159.678C379.189 159.716 378.853 160.444 378.923 161.306C378.992 162.166 379.439 162.833 379.921 162.794C380.206 162.772 380.453 162.252 380.556 161.94Z" stroke="#263238" stroke-width="1.074" stroke-miterlimit="10"/>
<path d="M396.258 139.922L396.516 144.983C396.818 144.94 397.117 144.889 397.425 144.864C397.734 144.84 398.037 144.843 398.342 144.837L397.796 139.841C398.178 139.675 398.773 139.296 398.745 138.949C398.703 138.419 397.901 138.051 396.955 138.126C396.009 138.202 395.276 138.693 395.318 139.222C395.344 139.536 395.915 139.808 396.258 139.922Z" stroke="#263238" stroke-width="1.074" stroke-miterlimit="10"/>
<path d="M404.32 145.955C404.811 146.157 405.291 146.381 405.755 146.633L407.043 143.708C407.42 143.751 408.06 143.723 408.196 143.437C408.404 143.001 407.94 142.346 407.16 141.975C406.38 141.605 405.58 141.658 405.373 142.095C405.25 142.352 405.577 142.826 405.795 143.072L404.32 145.955Z" stroke="#263238" stroke-width="1.074" stroke-miterlimit="10"/>
<path d="M410.406 150.558C410.783 151.037 411.122 151.547 411.438 152.072L415.487 149.103C415.822 149.351 416.449 149.677 416.734 149.479C417.172 149.177 417.09 148.299 416.552 147.517C416.013 146.735 415.221 146.346 414.784 146.648C414.525 146.826 414.576 147.457 414.649 147.81L410.406 150.558Z" stroke="#263238" stroke-width="1.074" stroke-miterlimit="10"/>
<path d="M417.321 156.79C417.037 156.812 416.79 157.332 416.687 157.644L413.445 157.809C413.481 158.072 413.527 158.33 413.548 158.597C413.57 158.865 413.565 159.127 413.572 159.392L416.761 159.043C416.912 159.391 417.257 159.931 417.572 159.906C418.054 159.868 418.388 159.139 418.319 158.278C418.25 157.417 417.804 156.751 417.321 156.79Z" stroke="#263238" stroke-width="1.074" stroke-miterlimit="10"/>
<path d="M417.013 167.681L412.505 165.376C412.275 165.946 412.022 166.502 411.727 167.036L416.314 169.055C416.266 169.469 416.297 170.174 416.611 170.323C417.091 170.551 417.811 170.042 418.219 169.184C418.627 168.327 418.568 167.446 418.088 167.218C417.804 167.082 417.282 167.442 417.013 167.681Z" stroke="#263238" stroke-width="1.074" stroke-miterlimit="10"/>
<path d="M409.519 174.364L407.761 171.647C407.343 171.971 406.905 172.268 406.453 172.546L408.344 175.126C408.119 175.431 407.822 176 408.002 176.26C408.276 176.659 409.075 176.584 409.786 176.094C410.497 175.604 410.85 174.885 410.576 174.486C410.414 174.252 409.841 174.298 409.519 174.364Z" stroke="#263238" stroke-width="1.074" stroke-miterlimit="10"/>
<path d="M386.836 169.027C386.46 168.548 386.121 168.038 385.804 167.513L381.755 170.481C381.42 170.233 380.794 169.908 380.508 170.104C380.07 170.406 380.153 171.285 380.691 172.066C381.23 172.848 382.021 173.237 382.458 172.935C382.717 172.757 382.667 172.127 382.594 171.773L386.836 169.027Z" stroke="#263238" stroke-width="1.074" stroke-miterlimit="10"/>
<path d="M400.984 179.663L400.727 174.601C400.424 174.644 400.125 174.696 399.817 174.72C399.509 174.745 399.205 174.742 398.9 174.747L399.446 179.743C399.064 179.91 398.469 180.289 398.497 180.636C398.539 181.165 399.341 181.534 400.287 181.459C401.234 181.382 401.967 180.891 401.924 180.362C401.898 180.048 401.326 179.777 400.984 179.663Z" stroke="#263238" stroke-width="1.074" stroke-miterlimit="10"/>
<path d="M392.925 173.63C392.435 173.427 391.955 173.204 391.491 172.951L390.203 175.877C389.826 175.834 389.186 175.862 389.049 176.147C388.842 176.583 389.306 177.239 390.086 177.609C390.866 177.98 391.666 177.926 391.873 177.49C391.995 177.232 391.669 176.758 391.451 176.513L392.925 173.63Z" stroke="#263238" stroke-width="1.074" stroke-miterlimit="10"/>
<path d="M401.145 174.551C409.297 173.157 414.776 165.418 413.383 157.266C411.989 149.113 404.25 143.634 396.098 145.027C387.945 146.421 382.466 154.16 383.859 162.312C385.253 170.465 392.992 175.944 401.145 174.551Z" stroke="#263238" stroke-width="1.074" stroke-miterlimit="10"/>
<path d="M398.871 148.302C398.936 149.111 398.301 149.821 397.451 149.888C396.603 149.956 395.862 149.357 395.797 148.548C395.733 147.739 396.368 147.029 397.217 146.962C398.067 146.894 398.807 147.493 398.871 148.302Z" stroke="#263238" stroke-width="1.074" stroke-miterlimit="10"/>
<path d="M390.535 160.882C390.6 161.691 389.964 162.4 389.116 162.468C388.267 162.536 387.526 161.935 387.462 161.128C387.397 160.319 388.032 159.609 388.881 159.541C389.73 159.473 390.471 160.073 390.535 160.882Z" stroke="#263238" stroke-width="1.074" stroke-miterlimit="10"/>
<path d="M397.11 156.526C397.174 157.334 396.538 158.044 395.69 158.112C394.841 158.18 394.1 157.58 394.036 156.772C393.971 155.963 394.607 155.253 395.456 155.185C396.304 155.118 397.045 155.717 397.11 156.526Z" stroke="#263238" stroke-width="1.074" stroke-miterlimit="10"/>
<path d="M394.539 169.546C394.604 170.355 393.969 171.065 393.119 171.132C392.271 171.2 391.53 170.6 391.465 169.792C391.401 168.983 392.037 168.273 392.885 168.206C393.735 168.137 394.475 168.737 394.539 169.546Z" stroke="#263238" stroke-width="1.074" stroke-miterlimit="10"/>
<path d="M410.805 162.058C410.869 162.865 410.233 163.576 409.385 163.644C408.537 163.712 407.795 163.112 407.731 162.304C407.667 161.495 408.302 160.785 409.151 160.717C410 160.649 410.74 161.249 410.805 162.058Z" stroke="#263238" stroke-width="1.074" stroke-miterlimit="10"/>
<path d="M399.969 164.937C400.033 165.746 399.398 166.456 398.549 166.524C397.701 166.591 396.96 165.992 396.895 165.183C396.831 164.375 397.465 163.665 398.315 163.597C399.163 163.529 399.904 164.13 399.969 164.937Z" stroke="#263238" stroke-width="1.074" stroke-miterlimit="10"/>
<path d="M404.481 158.686C404.545 159.494 403.91 160.204 403.061 160.272C402.212 160.34 401.471 159.74 401.407 158.932C401.342 158.123 401.977 157.413 402.827 157.345C403.675 157.276 404.416 157.877 404.481 158.686Z" stroke="#263238" stroke-width="1.074" stroke-miterlimit="10"/>
<path d="M407.645 151.569C407.709 152.378 407.073 153.088 406.225 153.155C405.376 153.223 404.635 152.623 404.571 151.815C404.506 151.006 405.141 150.296 405.991 150.229C406.839 150.161 407.58 150.762 407.645 151.569Z" stroke="#263238" stroke-width="1.074" stroke-miterlimit="10"/>
<path d="M405.504 169.404C405.569 170.213 404.934 170.923 404.084 170.99C403.236 171.058 402.495 170.459 402.43 169.65C402.366 168.841 403.001 168.131 403.85 168.064C404.7 167.996 405.44 168.597 405.504 169.404Z" stroke="#263238" stroke-width="1.074" stroke-miterlimit="10"/>
<path d="M391.406 151.533C391.471 152.341 390.835 153.051 389.987 153.119C389.138 153.187 388.397 152.587 388.333 151.779C388.268 150.97 388.903 150.26 389.752 150.192C390.601 150.124 391.341 150.724 391.406 151.533Z" stroke="#263238" stroke-width="1.074" stroke-miterlimit="10"/>
<path d="M367.506 208.172L416.837 208.791C416.837 208.791 415.567 237.98 408.516 245.998L359.262 240.325C359.262 240.325 368.347 230.703 367.506 208.172Z" stroke="#263238" stroke-width="1.074" stroke-miterlimit="10" stroke-linecap="round" stroke-linejoin="round"/>
<path d="M416.835 208.791L419.273 242.251L411.496 241.191" stroke="#263238" stroke-width="1.074" stroke-miterlimit="10" stroke-linecap="round" stroke-linejoin="round"/>
<path d="M371.797 216.725L411.832 218.328C411.832 218.328 410.428 233.826 406.808 239.645L366.086 235.452C366.086 235.452 372.027 225.6 371.797 216.725Z" stroke="#263238" stroke-width="1.074" stroke-miterlimit="10" stroke-linecap="round" stroke-linejoin="round"/>
<path d="M375.654 216.896C375.654 216.896 374.059 230.006 369.961 235.862" stroke="#263238" stroke-width="1.074" stroke-miterlimit="10" stroke-linecap="round" stroke-linejoin="round"/>
<path d="M380.986 217.43C380.986 217.43 379.391 230.539 375.293 236.396" stroke="#263238" stroke-width="1.074" stroke-miterlimit="10" stroke-linecap="round" stroke-linejoin="round"/>
<path d="M385.803 217.526C385.803 217.526 384.208 230.635 380.109 236.492" stroke="#263238" stroke-width="1.074" stroke-miterlimit="10" stroke-linecap="round" stroke-linejoin="round"/>
<path d="M390.142 217.66C390.142 217.66 388.548 230.769 384.449 236.626" stroke="#263238" stroke-width="1.074" stroke-miterlimit="10" stroke-linecap="round" stroke-linejoin="round"/>
<path d="M394.74 218.012C394.74 218.012 393.145 231.121 389.047 236.978" stroke="#263238" stroke-width="1.074" stroke-miterlimit="10" stroke-linecap="round" stroke-linejoin="round"/>
<path d="M399.097 218.385C399.097 218.385 397.559 232.21 393.461 238.068" stroke="#263238" stroke-width="1.074" stroke-miterlimit="10" stroke-linecap="round" stroke-linejoin="round"/>
<path d="M403.176 218.299C403.176 218.299 401.419 232.382 397.32 238.24" stroke="#263238" stroke-width="1.074" stroke-miterlimit="10" stroke-linecap="round" stroke-linejoin="round"/>
<path d="M407.291 218.69C407.291 218.69 406.251 232.717 402.152 238.573" stroke="#263238" stroke-width="1.074" stroke-miterlimit="10" stroke-linecap="round" stroke-linejoin="round"/>
<path d="M371.605 220.345L411.018 223.2" stroke="#263238" stroke-width="1.074" stroke-miterlimit="10" stroke-linecap="round" stroke-linejoin="round"/>
<path d="M370.719 224.263L410.409 227.576" stroke="#263238" stroke-width="1.074" stroke-miterlimit="10" stroke-linecap="round" stroke-linejoin="round"/>
<path d="M369.594 228.199L409.322 231.99" stroke="#263238" stroke-width="1.074" stroke-miterlimit="10" stroke-linecap="round" stroke-linejoin="round"/>
<path d="M368.203 231.916L407.951 235.946" stroke="#263238" stroke-width="1.074" stroke-miterlimit="10" stroke-linecap="round" stroke-linejoin="round"/>
<path d="M375.537 210.896C374.152 211.007 372.926 209.813 372.8 208.23C372.673 206.647 373.693 205.273 375.079 205.163C376.464 205.052 377.69 206.245 377.816 207.829" stroke="#263238" stroke-width="1.074" stroke-miterlimit="10" stroke-linecap="round" stroke-linejoin="round"/>
<path d="M381.326 211.154C379.941 211.264 378.715 210.071 378.589 208.488C378.462 206.905 379.482 205.531 380.868 205.421C382.253 205.31 383.479 206.503 383.605 208.086" stroke="#263238" stroke-width="1.074" stroke-miterlimit="10" stroke-linecap="round" stroke-linejoin="round"/>
<path d="M387.115 211.41C385.73 211.521 384.505 210.327 384.378 208.744C384.251 207.161 385.271 205.788 386.657 205.677C388.042 205.566 389.268 206.76 389.394 208.343" stroke="#263238" stroke-width="1.074" stroke-miterlimit="10" stroke-linecap="round" stroke-linejoin="round"/>
<path d="M392.908 211.668C391.523 211.778 390.298 210.585 390.171 209.002C390.044 207.419 391.064 206.045 392.45 205.935C393.835 205.824 395.061 207.017 395.187 208.601" stroke="#263238" stroke-width="1.074" stroke-miterlimit="10" stroke-linecap="round" stroke-linejoin="round"/>
<path d="M398.697 211.926C397.312 212.036 396.087 210.843 395.96 209.26C395.833 207.677 396.853 206.303 398.239 206.193C399.624 206.082 400.85 207.275 400.977 208.858" stroke="#263238" stroke-width="1.074" stroke-miterlimit="10" stroke-linecap="round" stroke-linejoin="round"/>
<path d="M404.487 212.183C403.101 212.294 401.876 211.101 401.749 209.518C401.622 207.935 402.642 206.561 404.028 206.45C405.413 206.34 406.639 207.533 406.766 209.116" stroke="#263238" stroke-width="1.074" stroke-miterlimit="10" stroke-linecap="round" stroke-linejoin="round"/>
<path d="M410.276 212.441C408.89 212.552 407.665 211.359 407.538 209.776C407.411 208.193 408.432 206.819 409.817 206.708C411.202 206.598 412.428 207.791 412.555 209.374" stroke="#263238" stroke-width="1.074" stroke-miterlimit="10" stroke-linecap="round" stroke-linejoin="round"/>
<path d="M151.68 145.837C151.68 145.837 128.615 115.888 141.568 79.0807C154.52 42.2736 196.539 50.8334 200.553 71.1793C204.566 91.5251 180.112 83.9437 179.448 65.7147C178.783 47.4857 202.951 21.7033 240.516 24.2605C278.082 26.8177 271.732 56.7372 286.739 55.5354C301.746 54.3346 296.089 33.3251 325.851 27.7628C355.612 22.2006 364.332 31.8365 366.893 73.7611C369.454 115.686 378.806 113.348 407.367 112.651C435.927 111.955 459.687 150.592 440.353 167.243C421.019 183.894 403.421 172.584 371.828 194.986C340.235 217.387 321.943 217.262 340.932 245.948C359.922 274.635 397.896 252.517 409.84 282.562C421.784 312.607 413.792 341.863 389.559 327.11C365.326 312.357 330.411 243.611 311.486 235.587C292.561 227.563 227.795 232.748 193.486 260.931C159.177 289.114 110.301 284.283 97.409 242.391C84.5168 200.499 77.0911 177.245 109.916 160.311C142.74 143.375 170.323 160.244 186.784 177.209C203.245 194.174 238.976 173.826 238.122 153.226C237.269 132.627 199.101 92.7581 209.463 63.3122C219.824 33.8663 261.211 34.5279 273.282 66.1529C285.353 97.7779 274.706 113.733 282.068 136.196C289.431 158.659 316.476 178.751 339.728 171.325C362.98 163.9 362.38 146.46 383.135 117.773C403.89 89.085 456.115 96.0327 461.899 138.494C467.682 180.956 428.065 182.538 427.939 200.83C427.813 219.123 454.383 203.483 447.623 238.205C440.864 272.926 414.451 260.733 393.221 273.561C371.991 286.388 384.124 318.803 356.51 311.475C356.51 311.475 344.681 314.122 336.848 273.212C329.014 232.301 296.808 209.669 267.213 217.503" stroke="#85B9CD" stroke-width="1.074" stroke-miterlimit="10"/>
<path d="M212.956 387.232L212.672 388.703L193.679 487.266C193.181 489.848 195.283 492.225 198.065 492.225C200.124 492.225 201.915 490.894 202.398 489.005L227.708 390.017L212.956 387.232Z" fill="white" stroke="#263238" stroke-width="1.074" stroke-miterlimit="10" stroke-linecap="round" stroke-linejoin="round"/>
<path d="M298.405 387.232L298.688 388.703L317.682 487.266C318.179 489.848 316.077 492.225 313.296 492.225C311.237 492.225 309.446 490.894 308.962 489.005L283.652 390.017L298.405 387.232Z" fill="white" stroke="#263238" stroke-width="1.074" stroke-miterlimit="10" stroke-linecap="round" stroke-linejoin="round"/>
<path d="M274.438 261.247C274.438 261.247 255.164 256.052 238.157 262.402C221.15 268.751 214.915 279.72 197.908 304.543C180.901 329.366 182.035 345.53 186.57 360.539C191.105 375.548 204.144 392.867 243.826 399.794C271.53 404.63 320.117 397.009 330.706 365.598C334.783 353.504 333.371 340.191 330.346 328.023C325.094 306.896 312.836 289.112 298.813 272.792C290.878 263.557 274.438 261.247 274.438 261.247Z" fill="#5E5E5E" stroke="#263238" stroke-width="1.074" stroke-miterlimit="10" stroke-linecap="round" stroke-linejoin="round"/>
<path d="M272.989 267.484C272.989 267.484 255.459 262.758 239.991 268.534C224.523 274.31 218.851 284.285 203.382 306.863C187.915 329.441 188.946 344.143 193.07 357.794C197.195 371.446 209.053 387.197 245.146 393.498C270.344 397.897 314.536 390.966 324.168 362.395C327.876 351.394 326.592 339.287 323.84 328.219C319.063 309.003 307.914 292.828 295.16 277.985C287.942 269.583 272.989 267.484 272.989 267.484Z" fill="#3B3B3B" stroke="#263238" stroke-width="1.074" stroke-miterlimit="10" stroke-linecap="round" stroke-linejoin="round"/>
<path d="M223.159 313.428C223.159 313.428 204.27 325.426 198.018 343C191.767 360.574 201.689 378.098 219.885 385.481C238.081 392.863 277.628 392.197 298.913 382.418C320.199 372.638 321.348 357.573 319.279 341.478C317.211 325.382 303.429 312.629 291.235 303.569C279.041 294.51 241.702 300 234.094 304.917C226.486 309.833 223.159 313.428 223.159 313.428Z" fill="#85B9CD" stroke="#263238" stroke-width="1.074" stroke-miterlimit="10" stroke-linecap="round" stroke-linejoin="round"/>
<path opacity="0.3" d="M226.1 318.062C226.1 318.062 220.672 318.966 213.888 325.298C207.103 331.631 201.675 341.129 205.746 338.415C209.816 335.701 215.696 328.464 220.672 329.821C225.648 331.177 223.838 341.581 236.051 345.199C248.263 348.818 253.238 347.913 267.712 344.295C282.187 340.677 286.257 340.225 294.398 345.199C302.54 350.175 309.777 350.175 309.777 341.581C309.777 332.987 302.088 328.464 290.328 323.036C278.568 317.609 245.549 312.183 226.1 318.062Z" fill="black"/>
<path d="M250.363 240.409C250.363 240.409 233.422 243.613 217.412 251.11C201.402 258.608 203.665 271.001 207.268 285.125C210.872 299.249 225.504 328.482 229.017 333.694C232.53 338.908 249.764 330.089 249.764 330.089C249.764 330.089 265.415 333.048 276.322 331.861C287.228 330.674 288.754 330.615 288.754 330.615C288.754 330.615 307.231 327.607 308.209 326.55C309.186 325.493 316.015 312.539 319.724 301.652C327.729 278.163 327.648 269.507 327.264 259.587C326.964 251.852 306.717 242.045 299.557 241.304C292.396 240.563 277.038 238.611 271.717 239.326C266.395 240.042 259.518 240.053 250.363 240.409Z" fill="#263238" stroke="#263238" stroke-width="1.074" stroke-miterlimit="10" stroke-linecap="round" stroke-linejoin="round"/>
<path d="M290.925 228.904C290.925 228.904 293.987 229.04 294.194 234.381C294.401 239.722 291.213 242.902 289.482 244.243C287.751 245.583 284.69 245.448 284.611 243.412C284.532 241.378 287.805 227.242 287.805 227.242L290.925 228.904Z" fill="white" stroke="#263238" stroke-width="1.074" stroke-miterlimit="10" stroke-linecap="round" stroke-linejoin="round"/>
<path d="M243.153 231.775C243.153 231.775 239.836 231.649 240.015 236.226C240.192 240.804 240.819 243.837 241.916 245.831C243.012 247.826 246.563 247.434 246.563 247.434L244.171 231.735L243.153 231.775Z" fill="white" stroke="#263238" stroke-width="1.074" stroke-miterlimit="10" stroke-linecap="round" stroke-linejoin="round"/>
<path d="M241.898 232.332C241.898 232.332 244.357 243.189 246.374 249.224C248.391 255.258 250.592 259.503 256.375 264.118C262.157 268.733 263.557 271.99 269.553 268.956C275.548 265.922 281.993 261.343 285.169 251.286C288.345 241.229 291.022 231.447 291.472 229.901C291.921 228.356 289.071 213.948 284.98 206.975C280.889 200.001 274.765 199.729 264.829 206.227C254.893 212.725 243.274 221.836 241.898 232.332Z" fill="white"/>
<mask id="mask0_7686_8785" style="mask-type:luminance" maskUnits="userSpaceOnUse" x="241" y="201" width="51" height="70">
<path d="M241.898 232.332C241.898 232.332 244.357 243.189 246.374 249.224C248.391 255.258 250.592 259.503 256.375 264.118C262.157 268.733 263.557 271.99 269.553 268.956C275.548 265.922 281.993 261.343 285.169 251.286C288.345 241.229 291.022 231.447 291.472 229.901C291.921 228.356 289.071 213.948 284.98 206.975C280.889 200.001 274.765 199.729 264.829 206.227C254.893 212.725 243.274 221.836 241.898 232.332Z" fill="white"/>
</mask>
<g mask="url(#mask0_7686_8785)">
<path opacity="0.3" d="M288.676 239.701C290.151 234.646 291.206 230.819 291.472 229.9C291.922 228.355 289.071 213.947 284.98 206.974C280.889 200 274.765 199.728 264.829 206.226C254.893 212.724 243.275 221.835 241.898 232.331C241.898 232.331 242.53 235.117 243.414 238.649C249.231 239.284 267.558 240.153 272.081 226.667C274.02 220.886 275.405 216.683 276.388 213.66C275.105 220.714 275.792 231.668 288.676 239.701Z" fill="black"/>
</g>
<path d="M241.898 232.332C241.898 232.332 244.357 243.189 246.374 249.224C248.391 255.258 250.592 259.503 256.375 264.118C262.157 268.733 263.557 271.99 269.553 268.956C275.548 265.922 281.993 261.343 285.169 251.286C288.345 241.229 291.022 231.447 291.472 229.901C291.921 228.356 289.071 213.948 284.98 206.975C280.889 200.001 274.765 199.729 264.829 206.227C254.893 212.725 243.274 221.836 241.898 232.332Z" stroke="#263238" stroke-width="1.074" stroke-miterlimit="10" stroke-linecap="round" stroke-linejoin="round"/>
<path d="M268.399 239.2C268.399 239.2 268.001 248.64 268.09 250.928C268.179 253.217 264.139 254.137 262.984 250.617" stroke="#263238" stroke-width="1.074" stroke-miterlimit="10" stroke-linecap="round" stroke-linejoin="round"/>
<path d="M259.031 240.582C259.102 242.408 258.418 243.917 257.506 243.953C256.593 243.988 255.795 242.536 255.724 240.71C255.653 238.884 256.336 237.375 257.249 237.34C258.163 237.306 258.96 238.757 259.031 240.582Z" fill="#263238"/>
<path d="M275.308 239.952C275.379 241.778 274.696 243.287 273.783 243.322C272.87 243.358 272.072 241.906 272.001 240.08C271.93 238.254 272.613 236.745 273.526 236.71C274.44 236.674 275.237 238.126 275.308 239.952Z" fill="#263238"/>
<path d="M253.004 236.231L261.483 231.572" stroke="#263238" stroke-width="1.074" stroke-miterlimit="10" stroke-linecap="round" stroke-linejoin="round"/>
<path d="M271.688 231.942L280.522 236.439" stroke="#263238" stroke-width="1.074" stroke-miterlimit="10" stroke-linecap="round" stroke-linejoin="round"/>
<path d="M281.675 187.49C281.675 187.49 284.275 182.295 293.528 177.861C302.78 173.428 319.069 179.673 325.048 189.374C331.028 199.076 333.095 213.005 333.095 213.005C333.095 213.005 329.438 217.221 323.179 220.011C316.919 222.801 309.094 224.633 309.094 224.633C309.094 224.633 312.144 217.892 309.04 203.494C305.935 189.096 297.56 183.309 293.041 185.012C288.523 186.715 284.043 189.436 284.043 189.436C284.043 189.436 281.305 191.069 281.675 187.49Z" fill="#263238" stroke="#263238" stroke-width="1.074" stroke-miterlimit="10" stroke-linecap="round" stroke-linejoin="round"/>
<path d="M284.973 187.108C284.973 187.108 292.522 178.155 305.092 180.469C317.662 182.784 327.421 204.564 326.329 215.814" stroke="#6E6E6E" stroke-width="1.074" stroke-miterlimit="10" stroke-linecap="round" stroke-linejoin="round"/>
<path d="M286.477 186.539C286.477 186.539 294.877 179.846 304.992 184.548C315.108 189.25 316.295 200.156 316.295 200.156" stroke="#6E6E6E" stroke-width="1.074" stroke-miterlimit="10" stroke-linecap="round" stroke-linejoin="round"/>
<path d="M277.392 188.674C277.392 188.674 270.444 180.283 254.795 183.946C239.146 187.61 232.408 197.804 229.82 209.876C227.232 221.948 225.375 226.605 226.461 228.345C227.546 230.086 233.828 234.428 244.549 235.031C255.27 235.635 262.722 230.761 268.834 224.156C274.946 217.552 277.478 210.576 277.478 210.576C277.478 210.576 277.364 220.768 281.415 226.725C285.466 232.681 293.518 236.699 294.535 236.659C295.552 236.62 298.513 227.59 299.751 213.534C300.99 199.477 293.2 189.081 286.519 187.557C279.837 186.032 277.392 188.674 277.392 188.674Z" fill="#263238" stroke="#263238" stroke-width="1.074" stroke-miterlimit="10" stroke-linecap="round" stroke-linejoin="round"/>
<path d="M275.283 193.341C275.283 193.341 268.521 183.16 254.416 187.272C240.312 191.385 235.767 205.57 235.797 206.333" stroke="#6E6E6E" stroke-width="1.074" stroke-miterlimit="10" stroke-linecap="round" stroke-linejoin="round"/>
<path d="M275.912 202.995C275.912 202.995 269.676 219.537 254.887 225.714C240.099 231.891 234.032 226.523 230.793 221.809" stroke="#6E6E6E" stroke-width="1.074" stroke-miterlimit="10" stroke-linecap="round" stroke-linejoin="round"/>
<path d="M274.021 200.267C274.021 200.267 269.633 211.898 256.047 216.246C242.462 220.593 241.637 212.474 241.637 212.474" stroke="#6E6E6E" stroke-width="1.074" stroke-miterlimit="10" stroke-linecap="round" stroke-linejoin="round"/>
<path d="M279.395 200.822C279.395 200.822 287.083 202.052 288.152 209.907C289.221 217.761 290.348 227.142 295.435 226.945" stroke="#6E6E6E" stroke-width="1.074" stroke-miterlimit="10" stroke-linecap="round" stroke-linejoin="round"/>
<path d="M280.301 197.985C280.301 197.985 291.891 194.734 296.754 201.932" stroke="#6E6E6E" stroke-width="1.074" stroke-miterlimit="10" stroke-linecap="round" stroke-linejoin="round"/>
<path d="M281.68 187.49C281.68 187.49 282.145 173.208 296.797 170.093" stroke="#6E6E6E" stroke-width="1.074" stroke-miterlimit="10" stroke-linecap="round" stroke-linejoin="round"/>
<path d="M277.394 188.674C277.394 188.674 270.131 172.146 246.031 181.231" stroke="#6E6E6E" stroke-width="1.074" stroke-miterlimit="10" stroke-linecap="round" stroke-linejoin="round"/>
<path d="M236.592 259.79C236.592 259.79 235.328 253.472 235.289 252.455C235.25 251.438 238.389 246.986 239.816 244.384C241.244 241.781 242.173 239.453 243.044 242.221C243.915 244.988 244.219 246.25 243.535 248.315C242.85 250.379 241.189 253.5 241.248 255.026C241.306 256.551 237.767 263.82 236.592 259.79Z" fill="white" stroke="#263238" stroke-width="1.074" stroke-miterlimit="10" stroke-linecap="round" stroke-linejoin="round"/>
<path d="M225.863 324.647C227.019 328.169 231.551 339.963 234.457 342.653C237.364 345.342 242.637 349.976 247.692 342.394C252.748 334.811 257.623 316.029 258.589 308.096C259.555 300.162 260.684 283.308 261.319 279.972C261.954 276.636 264.53 257.688 263.719 256.446C262.907 255.204 242.176 246.074 242.176 246.074C242.176 246.074 235.783 258.548 236.41 261.581C237.037 264.613 247.831 280.24 247.909 282.276C247.988 284.31 244 293.125 239.395 299.162C234.789 305.199 230.104 309.201 228.278 314.62" fill="white"/>
<mask id="mask1_7686_8785" style="mask-type:luminance" maskUnits="userSpaceOnUse" x="225" y="246" width="39" height="101">
<path d="M225.863 324.647C227.019 328.169 231.551 339.963 234.457 342.653C237.364 345.342 242.637 349.976 247.692 342.394C252.748 334.811 257.623 316.029 258.589 308.096C259.555 300.162 260.684 283.308 261.319 279.972C261.954 276.636 264.53 257.688 263.719 256.446C262.907 255.204 242.176 246.074 242.176 246.074C242.176 246.074 235.783 258.548 236.41 261.581C237.037 264.613 247.831 280.24 247.909 282.276C247.988 284.31 244 293.125 239.395 299.162C234.789 305.199 230.104 309.201 228.278 314.62" fill="white"/>
</mask>
<g mask="url(#mask1_7686_8785)">
<path opacity="0.3" d="M234.145 305.502C243.102 310.177 254.502 307.401 259.138 302.92C259.956 294.39 260.802 282.692 261.319 279.973C261.628 278.348 262.397 273.022 263.012 267.84C261.333 268.329 257.063 269.118 250.761 267.128C243.671 264.889 238.195 260.1 236.776 258.78C236.443 259.975 236.282 260.971 236.409 261.581C237.036 264.613 247.829 280.24 247.908 282.276C247.986 284.31 243.998 293.125 239.393 299.162C237.597 301.516 235.791 303.56 234.145 305.502Z" fill="black"/>
</g>
<path d="M225.863 324.647C227.019 328.169 231.551 339.963 234.457 342.653C237.364 345.342 242.637 349.976 247.692 342.394C252.748 334.811 257.623 316.029 258.589 308.096C259.555 300.162 260.684 283.308 261.319 279.972C261.954 276.636 264.53 257.688 263.719 256.446C262.907 255.204 242.176 246.074 242.176 246.074C242.176 246.074 235.783 258.548 236.41 261.581C237.037 264.613 247.831 280.24 247.909 282.276C247.988 284.31 244 293.125 239.395 299.162C234.789 305.199 230.104 309.201 228.278 314.62" stroke="#263238" stroke-width="1.074" stroke-miterlimit="10" stroke-linecap="round" stroke-linejoin="round"/>
<path d="M235.221 304.238C232.185 307.784 229.544 310.861 228.277 314.62L225.863 324.647C227.019 328.168 231.551 339.963 234.457 342.653C237.364 345.342 242.637 349.976 247.692 342.395C251.544 336.618 255.289 324.343 257.282 315.315C239.978 316.972 236.074 308.661 235.221 304.238Z" fill="#263238" stroke="#263238" stroke-width="1.074" stroke-miterlimit="10" stroke-linecap="round" stroke-linejoin="round"/>
<path d="M247.109 248.431L243.582 262.576" stroke="#263238" stroke-width="1.074" stroke-miterlimit="10" stroke-linecap="round" stroke-linejoin="round"/>
<path d="M254.13 252.233L251.836 265.313" stroke="#263238" stroke-width="1.074" stroke-miterlimit="10" stroke-linecap="round" stroke-linejoin="round"/>
<path d="M260.089 254.805L258.039 267.619" stroke="#263238" stroke-width="1.074" stroke-miterlimit="10" stroke-linecap="round" stroke-linejoin="round"/>
<path d="M293.958 258.331C293.958 258.331 294.73 251.933 294.69 250.916C294.65 249.899 291.177 245.703 289.552 243.219C287.927 240.734 286.822 238.485 286.167 241.312C285.513 244.139 285.307 245.421 286.148 247.425C286.99 249.431 288.889 252.413 288.948 253.939C289.008 255.467 293.099 262.44 293.958 258.331Z" fill="white" stroke="#263238" stroke-width="1.074" stroke-miterlimit="10" stroke-linecap="round" stroke-linejoin="round"/>
<path d="M309.679 322.163C308.8 325.763 305.194 337.873 302.505 340.78C299.816 343.686 294.917 348.715 289.29 341.546C283.663 334.379 277.348 316.029 275.771 308.194C274.193 300.36 271.763 283.644 270.872 280.367C269.98 277.09 265.945 258.398 266.658 257.098C267.372 255.796 287.333 245.089 287.333 245.089C287.333 245.089 294.672 257.031 294.283 260.103C293.893 263.174 284.341 279.591 284.419 281.626C284.497 283.66 289.156 292.14 294.215 297.802C299.273 303.464 304.254 307.092 306.495 312.354" fill="white"/>
<mask id="mask2_7686_8785" style="mask-type:luminance" maskUnits="userSpaceOnUse" x="266" y="245" width="44" height="101">
<path d="M309.679 322.163C308.8 325.763 305.194 337.873 302.505 340.78C299.816 343.686 294.917 348.715 289.29 341.546C283.663 334.379 277.348 316.029 275.771 308.194C274.193 300.36 271.763 283.644 270.872 280.367C269.98 277.09 265.945 258.398 266.658 257.098C267.372 255.796 287.333 245.089 287.333 245.089C287.333 245.089 294.672 257.031 294.283 260.103C293.893 263.174 284.341 279.591 284.419 281.626C284.497 283.66 289.156 292.14 294.215 297.802C299.273 303.464 304.254 307.092 306.495 312.354" fill="white"/>
</mask>
<g mask="url(#mask2_7686_8785)">
<path opacity="0.3" d="M284.419 281.625C284.341 279.591 293.892 263.173 294.283 260.102C294.323 259.777 294.275 259.35 294.161 258.852C293.646 259.861 292.663 260.909 290.788 261.472C286.437 262.777 274.854 272.089 269.552 268.956C269.087 268.681 268.655 268.512 268.25 268.425C269.263 273.536 270.439 278.773 270.872 280.366C271.763 283.643 274.194 300.358 275.771 308.193C276.122 309.936 276.709 312.201 277.468 314.746C281.785 309.207 286.569 302.011 290.672 293.321C287.171 288.408 284.478 283.166 284.419 281.625Z" fill="black"/>
</g>
<path d="M309.679 322.163C308.8 325.763 305.194 337.873 302.505 340.78C299.816 343.686 294.917 348.715 289.29 341.546C283.663 334.378 277.348 316.029 275.771 308.194C274.193 300.36 271.763 283.644 270.872 280.367C269.98 277.09 265.945 258.398 266.658 257.098C267.372 255.796 287.333 245.089 287.333 245.089C287.333 245.089 294.672 257.031 294.283 260.103C293.893 263.174 284.341 279.591 284.419 281.626C284.497 283.66 289.156 292.14 294.215 297.802C299.273 303.464 304.254 307.092 306.495 312.354" stroke="#263238" stroke-width="1.074" stroke-miterlimit="10" stroke-linecap="round" stroke-linejoin="round"/>
<path d="M306.496 312.352C304.776 308.315 301.442 305.236 297.699 301.465C290.395 316.579 280.056 314.042 276.914 312.83C279.412 321.775 284.59 335.558 289.289 341.545C294.915 348.713 299.815 343.685 302.503 340.779C305.192 337.872 308.798 325.762 309.678 322.162L306.496 312.352Z" fill="#263238" stroke="#263238" stroke-width="1.074" stroke-miterlimit="10" stroke-linecap="round" stroke-linejoin="round"/>
<path d="M282.602 247.819L287.213 261.649" stroke="#263238" stroke-width="1.074" stroke-miterlimit="10" stroke-linecap="round" stroke-linejoin="round"/>
<path d="M275.891 252.154L279.191 265.017" stroke="#263238" stroke-width="1.074" stroke-miterlimit="10" stroke-linecap="round" stroke-linejoin="round"/>
<path d="M270.152 255.179L273.189 267.796" stroke="#263238" stroke-width="1.074" stroke-miterlimit="10" stroke-linecap="round" stroke-linejoin="round"/>
<path d="M240.708 348.855C240.708 348.855 259.182 348.524 269.596 348.89C280.008 349.257 278.876 369.713 269.869 375.839C260.864 381.965 253.882 380.696 244.608 379.9C235.333 379.104 234.498 357.568 240.708 348.855Z" fill="#263238" stroke="#263238" stroke-width="1.074" stroke-miterlimit="10" stroke-linecap="round" stroke-linejoin="round"/>
<path d="M255.6 368.683C255.745 361.438 253.29 354.807 245.762 350.2C237.477 345.13 226.519 350.561 218.256 365.902C209.992 381.243 205.047 412.63 208.468 431.37C211.891 450.109 216.515 479.97 219.844 486.388C223.175 492.807 232.657 498.986 236.977 501.13C241.296 503.274 249.506 506.422 257.138 504.585C264.77 502.749 266.66 491.892 262.96 485.873C259.26 479.854 244.942 478.098 240.813 470.941C236.684 463.783 233.708 456.581 235.009 450.369C236.309 444.156 237.722 420.993 245.438 401.436C248.955 392.52 255.376 379.871 255.6 368.683Z" fill="white"/>
<mask id="mask3_7686_8785" style="mask-type:luminance" maskUnits="userSpaceOnUse" x="207" y="348" width="58" height="158">
<path d="M255.6 368.683C255.745 361.438 253.29 354.807 245.762 350.199C237.477 345.129 226.519 350.56 218.256 365.901C209.992 381.242 205.047 412.63 208.468 431.369C211.891 450.108 216.515 479.97 219.844 486.388C223.175 492.806 232.657 498.986 236.977 501.13C241.296 503.273 249.506 506.421 257.138 504.585C264.77 502.748 266.66 491.891 262.96 485.872C259.26 479.854 244.942 478.098 240.813 470.941C236.684 463.782 233.708 456.58 235.009 450.368C236.309 444.155 237.722 420.992 245.438 401.436C248.955 392.519 255.376 379.871 255.6 368.683Z" fill="white"/>
</mask>
<g mask="url(#mask3_7686_8785)">
<path opacity="0.3" d="M262.96 485.872C259.26 479.854 244.943 478.098 240.813 470.94C236.685 463.782 233.709 456.58 235.009 450.368C236.309 444.155 237.722 420.992 245.438 401.436C248.955 392.52 255.377 379.872 255.6 368.684C255.745 361.439 253.29 354.808 245.762 350.2C244.147 349.211 242.429 348.628 240.65 348.434L240.703 348.857C240.703 348.857 251.626 355.013 251.626 368.5C251.626 381.987 242.49 395.91 225.958 409.831C220.233 414.652 213.467 419.734 207.715 425.709C207.893 427.694 208.142 429.589 208.468 431.37C211.891 450.109 216.514 479.971 219.844 486.389C223.174 492.807 232.656 498.987 236.976 501.131C241.296 503.274 249.505 506.422 257.137 504.586C264.77 502.748 266.66 491.891 262.96 485.872Z" fill="black"/>
</g>
<path d="M255.6 368.683C255.745 361.438 253.29 354.807 245.762 350.2C237.477 345.13 226.519 350.561 218.256 365.902C209.992 381.243 205.047 412.63 208.468 431.37C211.891 450.109 216.515 479.97 219.844 486.388C223.175 492.807 232.657 498.986 236.977 501.13C241.296 503.274 249.506 506.422 257.138 504.585C264.77 502.749 266.66 491.892 262.96 485.873C259.26 479.854 244.942 478.098 240.813 470.941C236.684 463.783 233.708 456.581 235.009 450.369C236.309 444.156 237.722 420.993 245.438 401.436C248.955 392.52 255.376 379.871 255.6 368.683Z" stroke="#263238" stroke-width="1.074" stroke-miterlimit="10" stroke-linecap="round" stroke-linejoin="round"/>
<path d="M262.964 485.873C259.448 480.155 246.366 478.274 241.527 471.963C239.22 470.869 232.969 468.515 229.739 473.296C225.733 479.229 227.23 488.028 227.23 488.028C227.23 488.028 221.99 483.995 218.004 481.072C218.649 483.429 219.269 485.27 219.849 486.388C223.179 492.806 232.662 498.986 236.981 501.13C241.301 503.274 249.511 506.421 257.143 504.585C264.773 502.748 266.664 491.891 262.964 485.873Z" fill="#525252" stroke="#263238" stroke-width="1.074" stroke-miterlimit="10" stroke-linecap="round" stroke-linejoin="round"/>
<path d="M257.14 504.585C263.415 503.075 265.8 495.469 264.395 489.465C263.156 496.211 259.723 503.294 250.513 502.531C239.752 501.64 227.834 493.688 221.293 488.678C225.378 494.229 233.177 499.244 236.979 501.131C241.298 503.272 249.509 506.421 257.14 504.585Z" fill="white" stroke="#263238" stroke-width="1.074" stroke-miterlimit="10" stroke-linecap="round" stroke-linejoin="round"/>
<path d="M288.948 361.235C288.948 361.235 278.828 348.533 269.598 348.89C260.368 349.248 256.082 357.887 256.958 370.562C257.835 383.238 265.89 412.196 269.977 428.214C274.064 444.231 270.254 465.177 269.339 471.375C268.424 477.573 266.591 479.954 265.451 480.383C264.313 480.813 251.816 486.304 243.076 489.338C234.336 492.373 232.946 496.278 239.248 499.885C245.548 503.49 260.702 507.139 271.734 503.635C296.419 495.797 291.187 489.447 295.049 465.621C300.344 432.951 311.331 389.874 288.948 361.235Z" fill="white"/>
<mask id="mask4_7686_8785" style="mask-type:luminance" maskUnits="userSpaceOnUse" x="235" y="348" width="68" height="158">
<path d="M288.952 361.235C288.952 361.235 278.832 348.533 269.602 348.89C260.372 349.248 256.086 357.887 256.962 370.562C257.839 383.238 265.894 412.196 269.981 428.214C274.068 444.231 270.258 465.177 269.343 471.375C268.428 477.573 266.595 479.954 265.455 480.383C264.317 480.813 251.82 486.304 243.08 489.338C234.339 492.373 232.95 496.278 239.252 499.885C245.552 503.49 260.706 507.139 271.738 503.635C296.423 495.797 291.191 489.447 295.053 465.621C300.347 432.951 311.335 389.874 288.952 361.235Z" fill="white"/>
</mask>
<g mask="url(#mask4_7686_8785)">
<path opacity="0.3" d="M290.327 363.107C291.392 365.612 292.305 368.413 292.971 371.543C297.322 391.991 285.14 404.174 270.347 405.043C267.984 405.183 265.901 405.225 264.027 405.211C266.174 413.692 268.381 421.945 269.981 428.214C274.068 444.232 270.258 465.177 269.343 471.375C268.428 477.573 266.595 479.954 265.455 480.383C264.317 480.813 251.82 486.304 243.08 489.338C234.339 492.374 232.95 496.279 239.252 499.885C245.552 503.491 260.706 507.139 271.738 503.636C296.423 495.798 291.191 489.447 295.053 465.621C300.234 433.653 310.845 391.726 290.327 363.107Z" fill="black"/>
</g>
<path d="M288.948 361.235C288.948 361.235 278.828 348.533 269.598 348.89C260.368 349.248 256.082 357.887 256.958 370.562C257.835 383.238 265.89 412.196 269.977 428.214C274.064 444.231 270.254 465.177 269.339 471.375C268.424 477.573 266.591 479.954 265.451 480.383C264.313 480.813 251.816 486.304 243.076 489.338C234.336 492.373 232.946 496.278 239.248 499.885C245.548 503.49 260.702 507.139 271.734 503.635C296.419 495.797 291.187 489.447 295.049 465.621C300.344 432.951 311.331 389.874 288.948 361.235Z" stroke="#263238" stroke-width="1.074" stroke-miterlimit="10" stroke-linecap="round" stroke-linejoin="round"/>
<path d="M292.877 492.416C293.592 490.107 293.489 487.174 293.331 483.573C287.266 487.017 281.561 488.617 281.561 488.617C281.561 488.617 281.338 482.849 276.914 478.014C273.672 474.47 269.029 477.392 266.778 479.206C266.298 479.865 265.835 480.239 265.451 480.383C264.313 480.812 251.816 486.303 243.076 489.338C234.336 492.373 232.946 496.278 239.248 499.885C245.55 503.492 260.712 507.14 271.745 503.632C282.777 500.125 290.823 499.044 292.877 492.416Z" fill="#525252" stroke="#263238" stroke-width="1.074" stroke-miterlimit="10" stroke-linecap="round" stroke-linejoin="round"/>
<path d="M292.875 492.415C292.966 492.123 293.043 491.821 293.108 491.509C282.135 498.463 268.838 503.332 252.795 501.671C240.047 500.351 236.616 496.407 235.732 493.965C234.703 495.903 235.843 497.937 239.246 499.885C245.548 503.492 260.71 507.141 271.743 503.632C282.775 500.124 290.821 499.043 292.875 492.415Z" fill="white" stroke="#263238" stroke-width="1.074" stroke-miterlimit="10" stroke-linecap="round" stroke-linejoin="round"/>
</svg>
