<svg width="563" height="537" viewBox="0 0 563 537" fill="none" xmlns="http://www.w3.org/2000/svg">
<g clip-path="url(#clip0_7686_4787)">
<path fill-rule="evenodd" clip-rule="evenodd" d="M147.239 52.0563C215.97 15.1255 293.529 59.0141 367.064 84.7501C428.912 106.396 493.857 126.745 525.094 184.3C559.149 247.049 567.452 326.024 531.6 387.917C497.214 447.276 424.727 468.023 356.531 475.291C296.953 481.639 244.719 455.265 193.752 423.92C124.936 381.596 32.5625 350.06 22.5327 269.874C11.6224 182.649 69.6782 93.7313 147.239 52.0563Z" fill="#FFEABE"/>
<path d="M7.66797 392.075L11.8668 406.834L412.394 523.147L550.162 432.227V419.827L7.66797 392.075Z" fill="#E0E0E0"/>
<path d="M151.35 325.347L550.162 419.828L412.394 509.726L7.66797 392.075L151.35 325.347Z" fill="#EBEBEB"/>
<path d="M422.773 503.511C422.915 503.59 420.656 507.936 417.728 513.217C414.8 518.5 412.312 522.718 412.17 522.639C412.029 522.56 414.287 518.215 417.216 512.932C420.142 507.651 422.631 503.433 422.773 503.511Z" fill="#EBEBEB"/>
<path d="M435.937 494.926C436.079 495.005 433.82 499.351 430.892 504.632C427.964 509.915 425.476 514.133 425.334 514.054C425.193 513.976 427.451 509.63 430.38 504.347C433.307 499.066 435.795 494.848 435.937 494.926Z" fill="#EBEBEB"/>
<path d="M449.097 486.342C449.239 486.421 446.98 490.768 444.053 496.049C441.124 501.332 438.636 505.55 438.495 505.471C438.353 505.392 440.611 501.047 443.54 495.764C446.467 490.483 448.955 486.264 449.097 486.342Z" fill="#EBEBEB"/>
<path d="M462.257 477.758C462.399 477.837 460.14 482.184 457.213 487.465C454.284 492.748 451.797 496.966 451.655 496.887C451.513 496.808 453.772 492.463 456.7 487.18C459.627 481.899 462.115 477.68 462.257 477.758Z" fill="#EBEBEB"/>
<path d="M475.421 469.173C475.563 469.252 473.304 473.598 470.377 478.879C467.448 484.163 464.961 488.381 464.819 488.302C464.677 488.223 466.936 483.878 469.864 478.594C472.791 473.314 475.279 469.094 475.421 469.173Z" fill="#EBEBEB"/>
<path d="M488.585 460.588C488.727 460.667 486.468 465.014 483.541 470.295C480.612 475.578 478.125 479.796 477.983 479.717C477.841 479.638 480.1 475.293 483.028 470.01C485.955 464.729 488.443 460.51 488.585 460.588Z" fill="#EBEBEB"/>
<path d="M501.745 452.004C501.887 452.083 499.629 456.429 496.701 461.71C493.772 466.993 491.285 471.211 491.143 471.133C491.001 471.054 493.26 466.708 496.189 461.425C499.115 456.144 501.604 451.925 501.745 452.004Z" fill="#EBEBEB"/>
<path d="M514.913 443.419C515.055 443.498 512.797 447.844 509.869 453.125C506.94 458.408 504.453 462.626 504.311 462.548C504.169 462.469 506.428 458.123 509.357 452.84C512.283 447.559 514.772 443.34 514.913 443.419Z" fill="#EBEBEB"/>
<path d="M528.074 434.835C528.215 434.914 525.957 439.26 523.029 444.541C520.1 449.824 517.613 454.042 517.471 453.964C517.329 453.885 519.588 449.539 522.517 444.256C525.444 438.975 527.933 434.757 528.074 434.835Z" fill="#EBEBEB"/>
<path d="M541.238 426.25C541.38 426.329 539.121 430.675 536.193 435.956C533.264 441.239 530.777 445.457 530.635 445.379C530.493 445.3 532.752 440.955 535.681 435.671C538.608 430.39 541.097 426.172 541.238 426.25Z" fill="#EBEBEB"/>
<path d="M550.168 425.304C550.31 425.382 548.998 428.018 547.241 431.191C545.482 434.366 543.941 436.874 543.8 436.795C543.658 436.717 544.968 434.082 546.728 430.908C548.486 427.735 550.026 425.226 550.168 425.304Z" fill="#EBEBEB"/>
<path d="M408.871 521.905C408.813 521.958 407.914 521.091 406.537 519.617C405.16 518.144 403.311 516.058 401.356 513.681C399.401 511.303 397.709 509.087 396.529 507.452C395.349 505.816 394.671 504.767 394.735 504.72C394.801 504.671 395.596 505.632 396.859 507.2C398.245 508.91 399.938 510.999 401.809 513.308C403.714 515.589 405.437 517.652 406.848 519.342C408.143 520.883 408.933 521.849 408.871 521.905Z" fill="#EBEBEB"/>
<path d="M390.301 516.628C390.243 516.68 389.344 515.813 387.967 514.339C386.59 512.867 384.741 510.78 382.786 508.403C380.83 506.025 379.139 503.809 377.959 502.174C376.778 500.539 376.101 499.49 376.164 499.443C376.232 499.393 377.026 500.355 378.289 501.922C379.675 503.632 381.367 505.721 383.239 508.031C385.144 510.312 386.867 512.375 388.278 514.065C389.573 515.606 390.363 516.571 390.301 516.628Z" fill="#EBEBEB"/>
<path d="M371.735 511.35C371.676 511.403 370.778 510.536 369.401 509.062C368.023 507.589 366.175 505.503 364.22 503.126C362.265 500.747 360.573 498.532 359.393 496.897C358.213 495.262 357.535 494.212 357.598 494.165C357.665 494.115 358.459 495.077 359.723 496.644C361.109 498.355 362.801 500.443 364.672 502.753C366.578 505.034 368.3 507.097 369.711 508.787C371.006 510.329 371.797 511.295 371.735 511.35Z" fill="#EBEBEB"/>
<path d="M353.169 506.073C353.112 506.126 352.212 505.259 350.835 503.785C349.458 502.313 347.609 500.226 345.653 497.849C343.699 495.471 342.006 493.255 340.826 491.62C339.646 489.985 338.968 488.936 339.031 488.89C339.098 488.84 339.893 489.802 341.155 491.369C342.541 493.079 344.234 495.168 346.105 497.478C348.01 499.759 349.733 501.822 351.144 503.512C352.441 505.052 353.231 506.017 353.169 506.073Z" fill="#EBEBEB"/>
<path d="M334.603 500.796C334.546 500.849 333.646 499.982 332.269 498.508C330.892 497.035 329.043 494.949 327.087 492.572C325.131 490.194 323.441 487.978 322.26 486.343C321.08 484.708 320.402 483.658 320.465 483.611C320.531 483.562 321.326 484.523 322.59 486.091C323.976 487.801 325.668 489.89 327.54 492.199C329.445 494.48 331.168 496.543 332.578 498.233C333.875 499.775 334.664 500.74 334.603 500.796Z" fill="#EBEBEB"/>
<path d="M316.039 495.519C315.981 495.572 315.082 494.705 313.705 493.231C312.328 491.759 310.479 489.672 308.525 487.295C306.569 484.917 304.877 482.701 303.697 481.066C302.517 479.431 301.839 478.382 301.902 478.334C301.969 478.285 302.764 479.246 304.026 480.814C305.412 482.524 307.105 484.613 308.976 486.922C310.881 489.204 312.604 491.266 314.015 492.957C315.311 494.498 316.1 495.463 316.039 495.519Z" fill="#EBEBEB"/>
<path d="M297.461 490.242C297.404 490.294 296.504 489.427 295.127 487.953C293.75 486.48 291.901 484.394 289.946 482.017C287.99 479.639 286.299 477.423 285.119 475.788C283.939 474.153 283.261 473.104 283.324 473.057C283.391 473.007 284.186 473.969 285.448 475.536C286.834 477.246 288.526 479.335 290.398 481.644C292.303 483.926 294.026 485.989 295.437 487.679C296.733 489.22 297.523 490.185 297.461 490.242Z" fill="#EBEBEB"/>
<path d="M278.895 483.921C278.836 483.974 277.938 483.107 276.561 481.633C275.184 480.16 273.335 478.072 271.38 475.696C269.424 473.318 267.733 471.102 266.553 469.467C265.372 467.832 264.695 466.783 264.758 466.736C264.824 466.686 265.619 467.648 266.882 469.215C268.268 470.926 269.96 473.014 271.831 475.324C273.737 477.605 275.459 479.668 276.87 481.358C278.166 482.899 278.957 483.864 278.895 483.921Z" fill="#EBEBEB"/>
<path d="M258.227 478.176C258.17 478.229 257.27 477.362 255.893 475.888C254.516 474.415 252.667 472.329 250.712 469.952C248.756 467.574 247.065 465.358 245.885 463.722C244.704 462.087 244.027 461.037 244.09 460.99C244.156 460.941 244.951 461.902 246.214 463.47C247.6 465.18 249.292 467.269 251.164 469.578C253.069 471.859 254.791 473.922 256.202 475.612C257.498 477.154 258.289 478.12 258.227 478.176Z" fill="#EBEBEB"/>
<path d="M237.559 472.43C237.5 472.482 236.602 471.615 235.225 470.141C233.848 468.669 231.999 466.582 230.044 464.205C228.088 461.827 226.397 459.611 225.217 457.976C224.036 456.341 223.359 455.292 223.422 455.245C223.49 455.195 224.283 456.157 225.546 457.724C226.932 459.434 228.624 461.523 230.496 463.832C232.401 466.114 234.124 468.177 235.534 469.867C236.83 471.408 237.62 472.374 237.559 472.43Z" fill="#EBEBEB"/>
<path d="M216.762 465.757C216.705 465.81 215.805 464.943 214.428 463.469C213.051 461.996 211.202 459.91 209.247 457.533C207.291 455.155 205.6 452.939 204.42 451.304C203.24 449.669 202.562 448.619 202.625 448.573C202.692 448.524 203.487 449.485 204.75 451.053C206.136 452.763 207.828 454.852 209.7 457.161C211.605 459.442 213.328 461.505 214.739 463.195C216.032 464.736 216.823 465.701 216.762 465.757Z" fill="#EBEBEB"/>
<path d="M195.969 459.936C195.912 459.988 195.012 459.121 193.635 457.648C192.258 456.175 190.409 454.088 188.454 451.711C186.498 449.333 184.807 447.117 183.627 445.481C182.447 443.846 181.769 442.797 181.832 442.749C181.9 442.7 182.694 443.661 183.957 445.229C185.343 446.939 187.035 449.028 188.907 451.337C190.812 453.619 192.535 455.681 193.946 457.372C195.241 458.913 196.031 459.879 195.969 459.936Z" fill="#EBEBEB"/>
<path d="M175.041 453.819C174.983 453.872 174.083 453.005 172.706 451.531C171.329 450.058 169.48 447.971 167.524 445.594C165.569 443.216 163.877 441 162.697 439.365C161.517 437.73 160.839 436.681 160.902 436.634C160.97 436.584 161.764 437.546 163.027 439.113C164.413 440.824 166.106 442.912 167.977 445.222C169.882 447.503 171.605 449.566 173.016 451.256C174.312 452.797 175.102 453.762 175.041 453.819Z" fill="#EBEBEB"/>
<path d="M154.891 448.155C154.832 448.208 153.934 447.341 152.557 445.867C151.18 444.394 149.331 442.307 147.376 439.93C145.42 437.552 143.729 435.336 142.549 433.701C141.369 432.065 140.691 431.017 140.754 430.97C140.82 430.92 141.615 431.882 142.878 433.449C144.264 435.159 145.956 437.248 147.828 439.558C149.733 441.839 151.456 443.902 152.866 445.592C154.162 447.132 154.952 448.098 154.891 448.155Z" fill="#EBEBEB"/>
<path d="M134.219 442.75C134.162 442.803 133.262 441.936 131.885 440.462C130.508 438.99 128.659 436.903 126.704 434.526C124.748 432.148 123.057 429.932 121.877 428.296C120.696 426.661 120.019 425.612 120.082 425.564C120.15 425.515 120.944 426.476 122.206 428.044C123.592 429.754 125.284 431.843 127.156 434.152C129.061 436.434 130.784 438.496 132.195 440.187C133.489 441.729 134.28 442.694 134.219 442.75Z" fill="#EBEBEB"/>
<path d="M116.059 436.692C116.002 436.745 115.102 435.878 113.725 434.404C112.348 432.931 110.499 430.844 108.544 428.467C106.589 426.089 104.897 423.873 103.717 422.238C102.536 420.603 101.859 419.554 101.922 419.507C101.988 419.457 102.783 420.419 104.046 421.986C105.432 423.697 107.124 425.785 108.996 428.095C110.901 430.376 112.624 432.439 114.034 434.129C115.33 435.669 116.12 436.635 116.059 436.692Z" fill="#EBEBEB"/>
<path d="M97.8949 430.631C97.8363 430.684 96.9378 429.817 95.5607 428.343C94.1836 426.87 92.3347 424.783 90.38 422.407C88.4252 420.029 86.7328 417.813 85.5528 416.178C84.3716 414.543 83.6949 413.493 83.758 413.446C83.8244 413.397 84.6193 414.358 85.8816 415.926C87.2677 417.636 88.9601 419.725 90.8315 422.034C92.7367 424.315 94.4595 426.378 95.8703 428.068C97.1664 429.61 97.9568 430.575 97.8949 430.631Z" fill="#EBEBEB"/>
<path d="M81.43 426.128C81.3715 426.181 80.4729 425.314 79.0958 423.84C77.7187 422.367 75.8699 420.281 73.9151 417.904C71.9593 415.526 70.268 413.31 69.088 411.675C67.9068 410.039 67.2301 408.991 67.2931 408.943C67.3607 408.894 68.1545 409.855 69.4179 411.423C70.804 413.133 72.4964 415.222 74.3678 417.531C76.273 419.812 77.9957 421.875 79.4066 423.565C80.7015 425.107 81.492 426.072 81.43 426.128Z" fill="#EBEBEB"/>
<path d="M62.5589 420.97C62.5015 421.023 61.6019 420.156 60.2248 418.682C58.8477 417.209 56.9988 415.123 55.044 412.746C53.0882 410.368 51.3969 408.152 50.2169 406.517C49.0357 404.882 48.359 403.832 48.422 403.785C48.4896 403.735 49.2834 404.697 50.5468 406.264C51.9329 407.975 53.6253 410.064 55.4967 412.373C57.4019 414.654 59.1246 416.717 60.5355 418.407C61.8304 419.949 62.6198 420.915 62.5589 420.97Z" fill="#EBEBEB"/>
<path d="M45.3832 415.98C45.3246 416.033 44.4261 415.166 43.049 413.692C41.6719 412.219 39.823 410.133 37.8682 407.756C35.9124 405.378 34.2211 403.162 33.0411 401.527C31.861 399.891 31.1832 398.843 31.2462 398.795C31.3127 398.746 32.1076 399.707 33.3699 401.275C34.756 402.985 36.4484 405.074 38.3198 407.383C40.225 409.665 41.9477 411.727 43.3586 413.418C44.6546 414.959 45.4451 415.924 45.3832 415.98Z" fill="#EBEBEB"/>
<path d="M25.973 409.921C25.9145 409.974 25.0159 409.107 23.6388 407.633C22.2617 406.16 20.4128 404.074 18.4581 401.697C16.5022 399.319 14.811 397.103 13.6309 395.468C12.4498 393.833 11.773 392.783 11.8361 392.736C11.9025 392.687 12.6975 393.648 13.9608 395.216C15.3469 396.926 17.0393 399.015 18.9107 401.324C20.8159 403.605 22.5387 405.668 23.9496 407.358C25.2445 408.9 26.0349 409.865 25.973 409.921Z" fill="#EBEBEB"/>
<path d="M90.2082 401.264C82.2541 397.854 81.3454 386.889 88.7129 382.349C93.1347 379.624 99.0068 377.303 106.589 376.653C114.662 375.961 121.304 377.763 126.444 380.273C134.203 384.06 134.389 396.369 125.632 400.666C113.051 406.84 102.422 406.5 90.2082 401.264Z" fill="#263238"/>
<path d="M103.198 249.994C103.198 249.994 103.557 249.946 104.346 249.867C105.165 249.79 106.374 249.675 108.026 249.52L108.104 249.512L108.106 249.592C108.444 264.352 109.302 317.653 110.211 381.056C110.214 381.189 110.215 381.321 110.217 381.442L110.222 381.716L109.948 381.738C108.527 381.855 107.128 381.971 105.825 382.08L105.513 382.105L105.507 381.794C104.829 345.131 104.22 312.152 103.779 288.316C103.582 276.449 103.423 266.859 103.312 260.214C103.266 256.928 103.23 254.371 103.206 252.613C103.198 251.764 103.192 251.112 103.188 250.648C103.188 250.209 103.198 249.994 103.198 249.994C103.198 249.994 103.217 250.236 103.233 250.689C103.247 251.161 103.267 251.825 103.293 252.691C103.338 254.463 103.404 257.042 103.488 260.356C103.641 267.016 103.861 276.627 104.133 288.521C104.633 312.302 105.325 345.205 106.094 381.785L105.776 381.499C107.08 381.39 108.479 381.274 109.9 381.157L109.63 381.454C109.628 381.332 109.627 381.199 109.625 381.067C108.715 317.663 108.043 264.36 107.957 249.597L108.037 249.669C106.401 249.785 105.202 249.87 104.391 249.928C103.595 249.98 103.198 249.994 103.198 249.994Z" fill="#263238"/>
<path d="M95.2344 262.471C95.2344 262.471 95.4258 262.328 95.8289 262.055C96.2512 261.772 96.8513 261.369 97.6328 260.845C99.2486 259.774 101.601 258.211 104.63 256.201C110.752 252.156 119.592 246.316 130.531 239.088C152.517 224.615 182.937 204.592 216.748 182.337L216.999 182.172L217.158 182.427C217.984 183.761 218.875 185.201 219.77 186.645C219.862 186.795 219.955 186.944 220.041 187.083L220.193 187.328L219.951 187.484C160.364 225.981 110.455 258.112 97.519 266.316L97.4593 266.354L97.4244 266.293C96.6757 264.998 96.125 264.044 95.749 263.396C95.3898 262.766 95.2344 262.471 95.2344 262.471C95.2344 262.471 95.4359 262.778 95.8176 263.398C96.2039 264.031 96.7702 264.96 97.5404 266.223L97.4458 266.201C110.242 257.781 160.047 225.489 219.634 186.991L219.544 187.392C219.457 187.252 219.365 187.104 219.272 186.954C218.377 185.509 217.486 184.07 216.66 182.736L217.07 182.827C183.279 204.959 152.874 224.871 130.9 239.263C119.896 246.444 111.004 252.246 104.845 256.265C101.772 258.26 99.3837 259.811 97.7454 260.876C96.9391 261.394 96.3221 261.791 95.8863 262.072C95.4652 262.336 95.2344 262.471 95.2344 262.471Z" fill="#263238"/>
<path d="M111.417 259.527C111.528 262.992 108.809 265.892 105.343 266.003C101.878 266.115 98.9781 263.396 98.8666 259.93C98.7551 256.464 101.474 253.564 104.94 253.453C108.406 253.343 111.306 256.061 111.417 259.527Z" fill="#263238"/>
<path d="M212.193 192.447C212.193 192.447 197.138 200.999 207.574 236.971C207.574 236.971 248.706 236.455 264.086 212.965C264.086 212.965 249.386 182.375 230.926 185.39L212.193 192.447Z" fill="#DF9A5B"/>
<path d="M212.665 186.063L209.374 177.434C207.902 173.575 210.094 169.29 214.086 168.227C217.516 167.314 221.083 169.126 222.367 172.435L226.061 181.954L212.665 186.063Z" fill="#DF9A5B"/>
<path d="M212.195 192.447L212.46 185.522L225.339 180.088L230.929 185.391L212.195 192.447Z" fill="#263238"/>
<path d="M130.901 384.39C130.921 384.391 130.92 384.605 130.899 385.012C130.891 385.421 130.812 386.02 130.674 386.786C130.369 388.299 129.655 390.513 127.944 392.745C126.256 394.977 123.553 397.102 120.15 398.536C116.75 399.99 112.707 400.743 108.479 400.911C106.362 400.994 104.295 400.956 102.305 400.848C100.315 400.74 98.3898 400.556 96.5803 400.2C92.9636 399.519 89.8221 398.033 87.8121 396.06C85.7572 394.13 84.7911 391.961 84.4589 390.446C84.2945 389.682 84.2517 389.075 84.254 388.666C84.2664 388.256 84.2821 388.044 84.3024 388.044C84.3722 388.04 84.2911 388.912 84.6807 390.391C85.0726 391.852 86.0657 393.921 88.0948 395.756C90.0788 397.628 93.1257 399.025 96.6816 399.668C98.4585 400.003 100.359 400.174 102.334 400.273C104.311 400.373 106.361 400.406 108.454 400.324C112.634 400.157 116.603 399.431 119.94 398.036C123.28 396.66 125.932 394.628 127.617 392.487C129.323 390.347 130.083 388.21 130.452 386.734C130.802 385.243 130.838 384.384 130.901 384.39Z" fill="#455A64"/>
<path d="M257.734 205.535C257.748 205.55 257.614 205.7 257.345 205.97C257.023 206.283 256.628 206.668 256.148 207.135C255.629 207.643 254.98 208.249 254.187 208.91C253.4 209.575 252.528 210.365 251.487 211.142C250.466 211.943 249.34 212.814 248.077 213.672C246.843 214.575 245.453 215.431 244.004 216.353C241.063 218.127 237.728 219.916 234.095 221.511C230.449 223.078 226.866 224.299 223.561 225.238C221.898 225.668 220.323 226.101 218.822 226.388C217.332 226.727 215.928 226.956 214.645 227.156C213.367 227.387 212.194 227.486 211.171 227.607C210.148 227.737 209.262 227.798 208.537 227.83C207.868 227.863 207.318 227.889 206.868 227.91C206.487 227.921 206.286 227.918 206.285 227.898C206.284 227.877 206.482 227.841 206.861 227.792C207.305 227.741 207.853 227.678 208.517 227.603C209.236 227.534 210.117 227.442 211.131 227.282C212.147 227.13 213.309 227.003 214.577 226.747C215.849 226.522 217.241 226.271 218.717 225.913C220.206 225.607 221.765 225.16 223.414 224.718C226.688 223.755 230.241 222.529 233.86 220.973C237.466 219.387 240.785 217.627 243.722 215.89C245.169 214.986 246.561 214.15 247.799 213.271C249.068 212.436 250.2 211.59 251.233 210.813C252.285 210.061 253.171 209.297 253.975 208.659C254.784 208.025 255.452 207.446 255.994 206.967C256.503 206.533 256.921 206.175 257.263 205.884C257.559 205.641 257.721 205.521 257.734 205.535Z" fill="white"/>
<path d="M348.938 490.872C356.282 490.833 363.504 486.999 367.651 480.937C369.552 478.16 370.991 474.809 373.941 473.187C378.695 470.575 384.377 473.756 389.254 476.132C399.274 481.012 411.619 482.434 421.427 477.141C426.496 474.404 430.672 470.031 436.101 468.101C441.036 466.346 446.45 466.808 451.661 467.35C456.871 467.892 462.251 468.475 467.257 466.933C472.263 465.392 476.834 461.113 476.951 455.875C477.059 451.043 473.325 446.769 468.895 444.838C464.464 442.907 459.461 442.871 454.633 443.098C427.694 444.371 401.242 452.858 374.3 451.664C369.032 451.429 363.334 450.93 358.898 453.779C353.111 457.497 351.833 465.32 351.626 472.194C351.419 479.068 351.5 486.625 347.07 491.885" fill="#E0E0E0"/>
<path d="M347.771 426.661C347.376 427.188 345.457 430.994 345.27 431.625C344.216 435.183 340.334 447.842 345.293 454.455C350.886 461.916 382.448 461.707 384.981 461.679C385.089 461.678 385.195 461.674 385.302 461.666L431.174 458.43C431.659 458.396 432.138 458.298 432.598 458.139L471.948 444.598C472.902 444.27 473.749 443.69 474.399 442.92C476.417 440.528 476.079 436.946 473.648 434.975L444.195 411.113C443.584 410.619 442.882 410.258 442.123 410.057C436.637 408.605 412.552 402.99 385.057 408.084C366.439 411.534 357.09 414.214 347.771 426.661Z" fill="#DF9A5B"/>
<path d="M470.383 443.762C468.07 445.296 467.389 448.817 468.962 451.101C470.808 453.782 474.938 454.119 477.715 452.421C480.491 450.723 482.046 447.532 482.684 444.341C483.133 442.095 483.075 439.452 481.385 437.906C480.235 436.853 478.595 436.565 477.049 436.358C472.667 435.77 468.246 435.466 463.824 435.448" fill="#DF9A5B"/>
<g opacity="0.3">
<path d="M456.188 436.772C459.257 437.84 465.8 439.874 469.049 439.975C472.297 440.076 475.745 439.047 477.815 436.541C478.161 436.12 478.477 435.655 478.936 435.36C479.395 435.065 480.059 434.996 480.452 435.373C480.957 435.859 480.726 436.706 480.403 437.33C478.55 440.907 474.663 443.337 470.635 443.436C466.609 443.534 458.213 440.254 456.188 436.772Z" fill="black"/>
</g>
<path d="M456.796 399.591C456.796 399.591 438.236 402.22 443.359 422.453C448.483 442.686 469.012 441.765 472.671 441.244C473.587 441.113 474.749 440.634 476 439.907C481.582 436.663 485.139 430.802 485.83 424.381L485.934 423.412L496.734 413.26C496.734 413.26 493.616 411.563 482.547 412.825L469.031 402.425C469.031 402.425 470.602 389.833 468.952 388.893C467.302 387.953 456.796 399.591 456.796 399.591Z" fill="#DF9A5B"/>
<path d="M344.991 434.417C341.651 440.332 342.881 447.661 344.141 454.336C345.401 461.011 346.475 468.408 342.907 474.188C340.265 478.465 335.17 481.103 330.152 480.787C325.857 480.517 321.969 478.309 317.972 476.712C313.976 475.116 309.25 474.16 305.51 476.289C301.525 478.558 299.987 483.909 301.254 488.316C302.521 492.723 306.077 496.18 310.105 498.371C318.555 502.969 329.303 502.517 337.813 498.03C346.322 493.543 352.595 485.358 355.664 476.242C358.734 467.124 358.758 457.151 356.723 447.748" fill="#DF9A5B"/>
<path d="M464.055 419.191L464.447 424.749L468.982 422.959C468.982 422.959 467.313 419.549 464.055 419.191Z" fill="#263238"/>
<g opacity="0.3">
<path d="M405.603 460.52C408.686 459.451 410.828 456.372 411.257 453.137C411.686 449.902 410.58 446.591 408.714 443.913C404.493 437.856 396.181 435.003 389.13 437.191C387.808 437.601 386.378 438.345 386.052 439.691C385.789 440.779 386.372 441.925 387.205 442.673C388.038 443.42 389.092 443.863 390.097 444.357C397.173 447.841 402.522 454.649 404.234 462.348" fill="black"/>
</g>
<path d="M380.859 435.531C387.8 434.352 395.253 436.777 400.169 441.816C405.085 446.855 407.328 454.365 405.978 461.274C408.829 462.164 411.898 461.485 414.835 460.943C417.772 460.401 420.973 460.039 423.601 461.458C426.229 462.877 427.646 466.787 425.578 468.943C424.521 470.045 422.918 470.382 421.417 470.665C413.13 472.232 404.534 473.792 396.348 471.763C391.481 470.556 387.015 468.134 382.61 465.735C377.729 463.076 378.17 464.056 373.289 461.397" fill="#DF9A5B"/>
<g opacity="0.3">
<path d="M460.18 447.849C458.684 447.491 457.187 447.132 455.691 446.774C453.584 446.27 451.442 445.752 449.568 444.665C447.693 443.579 446.088 441.823 445.71 439.689C445.392 437.898 446.243 435.748 448.003 435.286C449.395 434.92 450.81 435.683 452.048 436.418C455.551 438.498 459.055 440.579 462.558 442.659C463.327 443.116 464.144 443.624 464.502 444.442C464.981 445.539 464.438 446.886 463.491 447.619C462.544 448.352 461.297 448.576 460.099 448.595" fill="black"/>
</g>
<path d="M427.012 442.094C427.292 446.944 430.05 451.484 433.938 454.396C437.826 457.308 442.746 458.668 447.604 458.706C452.469 458.745 457.476 457.541 462.116 459.002C465.12 459.949 467.698 461.946 470.672 462.979C473.647 464.014 477.536 463.729 479.189 461.048C480.708 458.586 479.537 455.185 477.354 453.288C475.171 451.391 472.252 450.628 469.446 449.923C465.175 448.85 460.904 447.777 456.632 446.704C453.993 446.041 451.273 445.34 449.113 443.683C446.954 442.027 445.491 439.145 446.316 436.552" fill="#DF9A5B"/>
<path d="M469.558 428.085C469.589 428.129 468.699 428.553 467.209 428.252C466.488 428.085 465.606 427.758 464.901 426.97C464.565 426.579 464.285 426.022 464.329 425.4C464.365 424.812 464.686 424.137 465.36 423.872L465.595 424.408C465.483 424.457 465.367 424.521 465.241 424.564C464.082 425.014 462.833 424.915 461.865 424.486C460.877 424.059 460.22 423.291 459.857 422.6C459.134 421.156 459.447 420.119 459.494 420.154C459.602 420.143 459.469 421.141 460.219 422.395C460.595 423.001 461.206 423.644 462.077 423.988C462.935 424.338 464.031 424.406 465.028 424.016C465.136 423.979 465.236 423.924 465.333 423.883L465.568 424.419C465.179 424.561 464.93 425.008 464.897 425.441C464.857 425.874 465.044 426.292 465.311 426.628C465.866 427.3 466.659 427.66 467.308 427.857C468.651 428.239 469.548 427.981 469.558 428.085Z" fill="#263238"/>
<path d="M479.295 427.32C479.323 427.387 478.929 427.653 478.188 427.823C477.457 427.994 476.36 428.029 475.253 427.612C474.142 427.201 473.346 426.424 472.936 425.79C472.52 425.148 472.443 424.672 472.509 424.65C472.593 424.615 472.802 425.014 473.266 425.539C473.725 426.06 474.472 426.698 475.46 427.064C477.475 427.82 479.262 427.149 479.295 427.32Z" fill="#263238"/>
<path d="M443.579 401.715C443.627 401.672 447.22 405.758 451.603 410.838C455.986 415.92 459.499 420.072 459.45 420.115C459.401 420.157 455.808 416.073 451.425 410.991C447.043 405.912 443.529 401.758 443.579 401.715Z" fill="#263238"/>
<path d="M448.607 395.632C448.665 395.604 451.169 400.686 454.199 406.98C457.231 413.277 459.64 418.404 459.582 418.431C459.523 418.459 457.019 413.378 453.988 407.082C450.958 400.787 448.548 395.661 448.607 395.632Z" fill="#263238"/>
<path d="M425.541 469.241C425.49 469.249 425.521 468.679 425.111 467.917C424.717 467.162 423.818 466.275 422.572 465.852C421.319 465.434 420.091 465.469 419.225 465.514C418.354 465.567 417.813 465.631 417.809 465.595C417.806 465.58 417.938 465.545 418.18 465.498C418.422 465.452 418.774 465.396 419.213 465.35C420.082 465.262 421.341 465.197 422.648 465.631C423.958 466.076 424.884 467.031 425.259 467.843C425.452 468.249 425.533 468.608 425.551 468.857C425.571 469.104 425.554 469.241 425.541 469.241Z" fill="#263238"/>
<path d="M426.038 465.291C425.996 465.305 425.873 464.809 425.429 464.141C424.998 463.479 424.181 462.66 423.033 462.257C421.882 461.859 420.734 461.994 419.985 462.244C419.222 462.491 418.817 462.803 418.793 462.766C418.786 462.755 418.877 462.666 419.065 462.534C419.253 462.401 419.544 462.235 419.93 462.087C420.69 461.788 421.894 461.614 423.109 462.035C424.322 462.461 425.159 463.345 425.569 464.052C425.779 464.408 425.904 464.719 425.968 464.939C426.035 465.16 426.052 465.287 426.038 465.291Z" fill="#263238"/>
<path d="M358.222 437.067C358.286 437.097 357.211 437.999 356.676 440.05C356.41 441.06 356.294 442.316 356.421 443.693C356.543 445.073 356.922 446.558 357.372 448.098C357.824 449.641 358.281 451.111 358.54 452.491C358.802 453.869 358.87 455.144 358.77 456.203C358.67 457.263 358.421 458.097 358.186 458.641C357.952 459.187 357.755 459.453 357.755 459.453C357.732 459.441 357.897 459.157 358.102 458.607C358.309 458.06 358.528 457.234 358.606 456.19C358.682 455.146 358.599 453.892 358.328 452.533C358.061 451.171 357.599 449.71 357.147 448.164C356.695 446.619 356.318 445.117 356.205 443.711C356.09 442.31 356.225 441.03 356.516 440.006C356.81 438.98 357.241 438.217 357.602 437.746C357.961 437.271 358.222 437.067 358.222 437.067Z" fill="#263238"/>
<path d="M429.896 435.693C429.903 435.694 429.899 435.778 429.882 435.934C429.855 436.149 429.828 436.373 429.799 436.613C429.71 437.2 429.645 438.059 429.629 439.118C429.604 440.177 429.692 441.439 429.9 442.823C430.134 444.203 430.505 445.701 431.067 447.217C431.648 448.726 432.36 450.095 433.097 451.286C433.857 452.462 434.625 453.467 435.344 454.246C436.056 455.03 436.673 455.631 437.128 456.012C437.309 456.173 437.477 456.323 437.639 456.467C437.755 456.573 437.813 456.632 437.808 456.638C437.808 456.638 436.693 455.912 435.222 454.358C434.481 453.588 433.691 452.583 432.914 451.402C432.161 450.206 431.434 448.825 430.847 447.3C430.28 445.769 429.911 444.252 429.686 442.857C429.488 441.457 429.416 440.182 429.463 439.114C429.539 436.976 429.896 435.693 429.896 435.693Z" fill="#263238"/>
<path d="M466.64 449.345C466.631 449.364 466.293 449.213 465.667 448.985C465.041 448.755 464.12 448.464 462.96 448.187C460.654 447.584 457.334 447.3 453.841 446.144C452.109 445.546 450.528 444.714 449.334 443.645C448.139 442.579 447.342 441.336 446.907 440.21C446.475 439.078 446.39 438.082 446.437 437.412C446.484 436.739 446.612 436.385 446.612 436.385C446.695 436.365 446.156 437.912 447.06 440.149C447.505 441.243 448.3 442.45 449.475 443.483C450.65 444.518 452.205 445.332 453.916 445.922C457.365 447.066 460.689 447.379 462.999 448.026C464.16 448.325 465.08 448.641 465.699 448.899C466.32 449.155 466.64 449.345 466.64 449.345Z" fill="#263238"/>
<path d="M478.004 462.777C477.968 462.796 477.738 462.368 477.265 461.755C476.795 461.141 476.048 460.362 475.067 459.704C474.083 459.051 473.077 458.66 472.329 458.462C471.58 458.262 471.097 458.214 471.102 458.173C471.103 458.157 471.224 458.156 471.445 458.167C471.666 458.175 471.982 458.219 472.368 458.301C473.141 458.461 474.187 458.838 475.197 459.509C476.205 460.184 476.953 461.005 477.398 461.657C477.622 461.982 477.784 462.258 477.877 462.458C477.972 462.658 478.019 462.77 478.004 462.777Z" fill="#263238"/>
<path d="M480.419 459.325C480.38 459.338 480.255 458.884 479.862 458.255C479.477 457.63 478.772 456.841 477.759 456.35C476.744 455.861 475.687 455.799 474.958 455.887C474.222 455.971 473.788 456.156 473.774 456.116C473.768 456.102 473.869 456.043 474.066 455.962C474.262 455.881 474.558 455.787 474.936 455.723C475.682 455.59 476.794 455.624 477.861 456.138C478.927 456.654 479.646 457.503 480.005 458.171C480.188 458.506 480.3 458.796 480.358 459C480.417 459.204 480.433 459.322 480.419 459.325Z" fill="#263238"/>
<path d="M477.17 443.066C477.159 443.116 476.428 442.84 475.202 442.82C473.991 442.794 472.253 443.099 470.726 444.188C469.956 444.71 469.325 445.348 468.91 446.031C468.495 446.716 468.309 447.43 468.253 448.032C468.143 449.25 468.413 449.999 468.348 450.007C468.348 450.007 468.019 449.28 468.088 448.019C468.125 447.395 468.3 446.644 468.724 445.921C469.148 445.2 469.801 444.53 470.593 443.996C472.166 442.874 473.974 442.584 475.206 442.655C475.831 442.682 476.328 442.787 476.662 442.882C476.998 442.974 477.174 443.053 477.17 443.066Z" fill="#263238"/>
<path d="M475.886 446.271C475.904 446.284 475.65 446.612 475.058 446.888C474.483 447.164 473.523 447.334 472.58 446.956C471.64 446.57 471.07 445.777 470.849 445.179C470.617 444.569 470.666 444.155 470.687 444.159C470.73 444.153 470.744 444.553 471.003 445.114C471.25 445.666 471.803 446.383 472.668 446.738C473.535 447.087 474.431 446.959 474.994 446.735C475.57 446.514 475.859 446.238 475.886 446.271Z" fill="#263238"/>
<path d="M475.061 449.046C475.074 449.065 474.725 449.342 474.05 449.567C473.383 449.795 472.364 449.926 471.305 449.632C470.247 449.337 469.442 448.697 468.989 448.159C468.528 447.616 468.371 447.198 468.393 447.189C468.427 447.168 468.635 447.552 469.112 448.046C469.582 448.539 470.364 449.125 471.369 449.405C472.374 449.685 473.346 449.587 474.002 449.408C474.666 449.232 475.042 449.01 475.061 449.046Z" fill="#263238"/>
<path d="M479.743 456.473C479.693 456.506 479.392 455.628 478.349 454.645C477.321 453.648 475.554 452.715 473.522 451.908C471.484 451.108 469.6 450.471 468.247 449.988C467.683 449.787 467.153 449.598 466.642 449.416C466.265 449.277 466.058 449.194 466.063 449.179C466.067 449.163 466.284 449.218 466.671 449.329C467.189 449.489 467.727 449.654 468.299 449.83C469.668 450.274 471.559 450.885 473.609 451.689C475.649 452.499 477.441 453.473 478.463 454.524C478.978 455.04 479.311 455.533 479.496 455.895C479.686 456.255 479.743 456.473 479.743 456.473Z" fill="#263238"/>
<path d="M463.656 439.44C463.656 439.44 462.344 438.865 460.418 437.4C458.508 435.945 456.008 433.499 454.132 429.966L454.338 429.886C454.778 431.566 455.608 433.312 456.846 434.84L457.236 435.322L456.7 435.018C456.494 434.9 456.272 434.774 456.05 434.648C451.187 431.867 448.193 427.504 446.817 424.185C446.11 422.513 445.732 421.087 445.539 420.094C445.352 419.098 445.309 418.539 445.309 418.539C445.309 418.539 445.348 418.675 445.399 418.935C445.457 419.194 445.506 419.585 445.628 420.074C445.848 421.059 446.248 422.469 446.969 424.12C448.375 427.397 451.36 431.696 456.165 434.446C456.386 434.571 456.606 434.696 456.808 434.812L456.663 434.989C455.403 433.433 454.563 431.655 454.123 429.945L453.885 429.023L454.329 429.865C456.172 433.369 458.627 435.817 460.504 437.293C461.445 438.037 462.245 438.563 462.8 438.909C463.039 439.054 463.249 439.182 463.441 439.299C463.585 439.385 463.659 439.435 463.656 439.44Z" fill="#263238"/>
<path d="M406.232 430.914C406.226 430.929 406.068 430.88 405.79 430.778C405.51 430.679 405.114 430.512 404.632 430.286C403.669 429.836 402.382 429.109 401.088 428.124C399.797 427.135 398.755 426.086 398.068 425.275C397.724 424.871 397.458 424.532 397.288 424.287C397.116 424.045 397.028 423.907 397.04 423.897C397.071 423.873 397.476 424.389 398.191 425.165C398.905 425.94 399.952 426.959 401.23 427.937C402.509 428.911 403.768 429.652 404.706 430.136C405.642 430.623 406.246 430.878 406.232 430.914Z" fill="#263238"/>
<path d="M406.226 429.385C406.184 429.435 404.975 428.472 403.526 427.236C402.076 425.998 400.935 424.957 400.978 424.907C401.019 424.858 402.229 425.82 403.678 427.058C405.127 428.293 406.268 429.336 406.226 429.385Z" fill="#263238"/>
<path d="M408.4 428.797C408.372 428.851 407.47 428.409 406.519 427.627C405.564 426.849 404.955 426.052 405.003 426.013C405.054 425.967 405.732 426.682 406.668 427.446C407.6 428.214 408.435 428.737 408.4 428.797Z" fill="#263238"/>
<g opacity="0.3">
<path d="M407.636 406.027C411.026 405.959 408.673 411.675 407.241 414.338C405.811 416.997 403.105 418.943 400.119 419.385C397.212 419.816 394.216 418.91 391.325 419.442C385.303 420.548 381.957 427.245 376.361 429.732C372.55 431.426 367.833 430.867 364.524 428.33C361.215 425.793 360.371 419.052 361.018 414.932C361.018 414.932 372.28 406.745 407.636 406.027Z" fill="white"/>
</g>
<g opacity="0.3">
<path d="M430.447 442.099C431.896 440.937 434.171 441.245 435.998 441.572C437.826 441.9 439.501 442.818 440.999 443.913C442.455 444.978 443.862 446.378 444.097 448.167C444.371 450.241 443.012 452.142 441.715 453.783C441.184 454.454 440.642 455.133 439.941 455.622C439.241 456.113 438.349 456.398 437.519 456.188C436.614 455.958 435.952 455.201 435.379 454.464C433.644 452.23 432.16 449.801 430.965 447.237C430.208 445.616 429.58 443.665 430.447 442.099Z" fill="white"/>
</g>
<path d="M405.984 461.276C405.984 461.276 405.996 461.132 406.041 460.862C406.078 460.59 406.175 460.198 406.234 459.683C406.388 458.659 406.525 457.155 406.394 455.309C406.242 453.468 405.747 451.294 404.737 449.063C403.715 446.853 402.342 444.486 400.555 442.321C398.687 440.202 396.345 438.767 394.147 437.716C391.926 436.683 389.812 436.015 388.021 435.541C386.226 435.072 384.751 434.786 383.728 434.601C383.276 434.522 382.888 434.455 382.549 434.396C382.28 434.348 382.141 434.311 382.141 434.311C382.141 434.311 384.443 434.49 388.061 435.379C389.864 435.835 391.994 436.489 394.237 437.519C396.457 438.568 398.83 440.011 400.73 442.166C402.549 444.371 403.907 446.731 404.933 448.974C405.943 451.231 406.426 453.436 406.558 455.296C406.669 457.162 406.505 458.673 406.323 459.696C406.142 460.722 405.984 461.276 405.984 461.276Z" fill="#263238"/>
<path d="M463.306 415.375C463.31 415.446 462.792 415.554 461.961 415.413C461.139 415.279 460.001 414.837 459.059 413.929C458.116 413.022 457.631 411.901 457.467 411.085C457.294 410.259 457.383 409.738 457.454 409.739C457.544 409.735 457.606 410.234 457.866 410.973C458.12 411.71 458.619 412.689 459.466 413.507C460.314 414.323 461.313 414.784 462.059 415.01C462.806 415.241 463.307 415.285 463.306 415.375Z" fill="#263238"/>
<path d="M467.318 426.554C467.158 426.58 466.998 426.416 466.961 426.187C466.924 425.959 467.023 425.753 467.183 425.727C467.343 425.701 467.503 425.865 467.54 426.094C467.577 426.322 467.478 426.529 467.318 426.554Z" fill="#263238"/>
<path d="M468.976 426.04C468.842 426.131 468.635 426.06 468.515 425.882C468.393 425.703 468.403 425.485 468.537 425.395C468.671 425.304 468.878 425.375 468.999 425.552C469.12 425.731 469.11 425.95 468.976 426.04Z" fill="#263238"/>
<path d="M468.951 427.202C468.845 427.324 468.668 427.345 468.556 427.247C468.444 427.15 468.439 426.972 468.546 426.85C468.652 426.727 468.828 426.707 468.941 426.805C469.052 426.902 469.057 427.079 468.951 427.202Z" fill="#263238"/>
<path d="M461.96 422.076C461.868 422.21 461.615 422.196 461.393 422.044C461.171 421.892 461.067 421.661 461.158 421.527C461.249 421.393 461.502 421.407 461.724 421.559C461.946 421.711 462.051 421.942 461.96 422.076Z" fill="#263238"/>
<path d="M462.684 420.415C462.523 420.427 462.38 420.267 462.364 420.057C462.35 419.848 462.469 419.67 462.63 419.659C462.791 419.648 462.934 419.807 462.949 420.017C462.965 420.225 462.845 420.404 462.684 420.415Z" fill="#263238"/>
<path d="M463.01 422.602C462.849 422.582 462.73 422.479 462.743 422.373C462.757 422.267 462.897 422.198 463.059 422.218C463.22 422.238 463.339 422.341 463.325 422.446C463.312 422.552 463.17 422.622 463.01 422.602Z" fill="#263238"/>
<path d="M492.159 442.551C492.123 442.605 487.375 439.541 481.555 435.708C475.732 431.874 471.042 428.723 471.078 428.669C471.114 428.615 475.862 431.678 481.684 435.513C487.504 439.344 492.195 442.497 492.159 442.551Z" fill="#263238"/>
<path d="M499.443 438.378C499.442 438.386 499.341 438.373 499.153 438.344C498.965 438.311 498.686 438.271 498.332 438.194C497.621 438.055 496.6 437.814 495.354 437.45C492.859 436.737 489.516 435.438 485.867 433.932C482.286 432.458 479.047 431.126 476.512 430.083C475.416 429.621 474.476 429.225 473.688 428.891C473.411 428.77 473.16 428.659 472.924 428.557C472.751 428.478 472.661 428.433 472.664 428.425C472.668 428.417 472.763 428.448 472.942 428.513C473.182 428.603 473.439 428.7 473.723 428.807C474.52 429.121 475.469 429.494 476.575 429.929C479.117 430.955 482.364 432.266 485.955 433.715C489.607 435.22 492.928 436.54 495.403 437.291C496.637 437.673 497.649 437.937 498.353 438.105C498.648 438.175 498.913 438.238 499.163 438.298C499.348 438.342 499.445 438.37 499.443 438.378Z" fill="#263238"/>
<g opacity="0.3">
<path d="M461.126 399.683C462.418 399.571 463.998 398.795 464.937 397.9C465.922 396.959 466.492 395.649 466.767 394.314C467.042 392.978 467.044 391.605 467.045 390.242C465.767 391.456 464.489 392.67 463.212 393.884C462.398 394.657 461.583 395.432 460.842 396.275C460.46 396.71 460.091 397.177 459.919 397.73C459.746 398.283 459.808 398.942 460.208 399.359C460.609 399.777 461.382 399.826 461.738 399.37" fill="black"/>
</g>
<g opacity="0.3">
<path d="M486.281 422.571C486.356 420.238 487.352 417.948 489.006 416.301C490.66 414.655 492.956 413.671 495.289 413.608C493.454 417.415 488.872 419.05 486.277 422.386" fill="black"/>
</g>
<path d="M395.467 294.655C394.982 294.908 394.495 295.16 394.01 295.413C393.208 314.304 392.405 333.195 391.604 352.085C391.161 362.501 390.75 373.115 394.633 383.335L456.971 399.939C459.522 395.658 460.955 390.857 461.371 386.091C463.874 357.419 463.758 341.914 463.254 323.143C463.079 316.57 463.663 301.32 457.584 297.238C447.37 290.381 437.927 292.689 427.601 290.413C417.274 288.136 406.662 293.672 396.057 293.559" fill="#263238"/>
<path d="M365.435 361.298L347.058 332.2C346.292 332.2 292.843 342.92 292.843 342.92C292.843 342.92 255.628 346.136 254.709 346.749C253.79 347.361 242.457 368.343 242.457 368.343C249.962 369.568 253.025 359.92 253.025 359.92L260.529 355.632L269.719 356.704C267.098 357.901 264.885 359.084 264.206 359.92C262.215 362.37 261.143 367.117 262.368 367.27C263.593 367.423 265.831 363.901 271.604 363.135C277.377 362.37 292.026 359.306 292.026 359.306L297.286 359.92L365.435 361.298Z" fill="#B78876"/>
<path d="M278.922 352.948C278.972 353.109 276.58 353.966 273.711 355.2C270.837 356.426 268.569 357.566 268.486 357.419C268.409 357.285 270.573 355.901 273.48 354.66C276.384 353.413 278.879 352.799 278.922 352.948Z" fill="#A36957"/>
<path d="M319.45 184.388C321.25 205.05 322.798 227.052 313.059 245.364C315.216 244.927 317.189 243.641 318.458 241.843C317.654 248.689 316.852 255.645 317.977 262.446C319.102 269.247 322.434 275.995 328.26 279.681C328.344 278.828 328.428 277.974 328.513 277.121C330.753 291.696 343.575 303.971 358.235 305.573C364.569 306.265 371.835 304.638 375.196 299.224C377.751 295.108 377.429 289.898 377.022 285.07C374.376 253.697 371.731 222.323 369.085 190.949C368.347 182.197 367.452 172.993 362.431 165.785C356.778 157.669 346.02 153.472 336.363 155.618C326.707 157.763 318.738 166.119 317.053 175.865" fill="#263238"/>
<path d="M361.593 244.891C361.593 244.891 346.351 253.712 341.704 261.032C337.058 268.352 338.79 288.882 338.79 288.882C338.79 288.882 335.621 300.28 335.59 310.818C335.554 322.678 344.767 331.364 347.112 337.733C349.459 344.101 347.845 373.151 347.845 373.151L434.591 375.273V315.521L446.118 316.57C446.118 316.57 449.869 258.246 432.441 250.872C415.011 243.498 394.036 236.178 394.036 236.178L361.593 244.891Z" fill="#DF9A5B"/>
<path d="M446.546 299.459C446.546 299.459 446.365 299.83 445.862 300.425C445.366 301.021 444.522 301.836 443.218 302.555C441.924 303.28 440.16 303.863 438.055 304.037C435.948 304.226 433.518 303.862 431.018 302.999C428.507 302.145 425.935 300.791 423.239 299.286C420.541 297.795 417.672 296.136 414.398 295.075C411.139 293.97 407.436 293.887 403.794 294.719C400.146 295.578 396.564 297.169 392.916 298.813C389.265 300.457 385.643 302.055 381.908 302.899C378.189 303.737 374.327 303.58 371.017 302.372C367.691 301.206 364.858 299.418 362.254 297.767C359.653 296.099 357.234 294.55 354.871 293.436C352.515 292.317 350.23 291.63 348.17 291.448C346.113 291.253 344.312 291.46 342.917 291.866C340.096 292.69 338.956 294.011 338.906 293.913C338.906 293.913 339.176 293.602 339.806 293.144C340.43 292.684 341.433 292.086 342.853 291.647C344.265 291.2 346.098 290.955 348.199 291.121C350.305 291.277 352.649 291.951 355.046 293.061C357.453 294.166 359.905 295.71 362.514 297.356C365.124 298.988 367.941 300.737 371.194 301.861C372.815 302.427 374.544 302.793 376.337 302.837C377.229 302.954 378.135 302.795 379.047 302.778C379.955 302.677 380.87 302.516 381.784 302.337C385.439 301.504 389.026 299.921 392.675 298.277C396.324 296.634 399.94 295.028 403.667 294.158C407.382 293.311 411.235 293.412 414.564 294.56C417.91 295.661 420.79 297.353 423.478 298.86C426.16 300.383 428.693 301.742 431.155 302.606C433.61 303.479 435.972 303.861 438.033 303.708C440.093 303.569 441.828 303.031 443.111 302.352C444.403 301.68 445.257 300.908 445.774 300.345C446.297 299.785 446.517 299.439 446.546 299.459Z" fill="#FAFAFA"/>
<path d="M443.755 277.726C443.762 277.734 443.691 277.801 443.545 277.922C443.397 278.04 443.187 278.234 442.881 278.444C442.27 278.861 441.302 279.418 439.937 279.808C437.225 280.636 432.9 280.508 428.232 278.523C425.9 277.549 423.491 276.195 420.879 274.842C418.269 273.502 415.401 272.144 412.16 271.592C408.929 271.003 405.427 271.172 401.91 271.843C398.384 272.51 394.83 273.662 391.244 274.978C387.652 276.291 384.156 277.65 380.668 278.66C377.189 279.673 373.704 280.332 370.35 280.342C363.61 280.394 357.793 278.22 353.325 275.977C348.824 273.701 345.5 271.318 343.238 269.66C342.119 268.811 341.254 268.146 340.684 267.674C340.422 267.456 340.209 267.279 340.037 267.136C339.893 267.013 339.823 266.946 339.828 266.938C339.835 266.93 339.917 266.982 340.074 267.089C340.255 267.22 340.48 267.381 340.757 267.579C341.394 268.04 342.267 268.672 343.373 269.474C345.67 271.072 349.021 273.393 353.51 275.604C357.969 277.785 363.73 279.883 370.345 279.801C373.637 279.777 377.064 279.118 380.51 278.107C383.962 277.099 387.445 275.742 391.046 274.426C394.643 273.107 398.23 271.946 401.807 271.278C405.374 270.605 408.949 270.441 412.258 271.059C415.585 271.642 418.495 273.046 421.106 274.409C423.722 275.789 426.105 277.154 428.398 278.141C432.973 280.142 437.207 280.331 439.88 279.588C442.586 278.86 443.706 277.63 443.755 277.726Z" fill="#FAFAFA"/>
<path d="M404.834 334.18C404.842 334.199 404.635 334.306 404.234 334.493C403.833 334.679 403.238 334.946 402.463 335.274C400.911 335.915 398.656 336.867 395.712 337.573C392.804 338.275 389.015 338.629 385.183 337.243C381.346 335.917 377.814 333.194 374.012 330.7C370.235 328.132 366.125 326.578 362.231 325.966C360.285 325.671 358.412 325.583 356.661 325.619C354.912 325.703 353.284 325.871 351.825 326.179C348.894 326.747 346.629 327.658 345.121 328.369C343.605 329.074 342.814 329.569 342.782 329.513C342.772 329.497 342.962 329.365 343.337 329.128C343.715 328.899 344.259 328.528 345.02 328.164C346.51 327.384 348.776 326.402 351.74 325.773C353.215 325.435 354.866 325.239 356.643 325.132C358.422 325.074 360.329 325.146 362.314 325.433C366.274 326.019 370.517 327.61 374.332 330.208C378.165 332.728 381.647 335.42 385.364 336.733C389.062 338.103 392.734 337.809 395.62 337.168C398.534 336.524 400.806 335.637 402.379 335.061C403.116 334.784 403.715 334.56 404.189 334.382C404.605 334.232 404.826 334.162 404.834 334.18Z" fill="#FAFAFA"/>
<path d="M404.67 355.52C404.655 355.577 403.867 355.357 402.413 355.148C400.962 354.936 398.833 354.793 396.219 354.992C393.604 355.193 390.524 355.77 387.172 356.683C383.816 357.586 380.186 358.823 376.29 359.882C372.396 360.934 368.565 361.644 365.034 361.608C361.51 361.578 358.359 360.852 355.916 359.79C353.468 358.721 351.737 357.367 350.712 356.296C350.203 355.753 349.828 355.317 349.609 354.991C349.38 354.676 349.267 354.506 349.283 354.493C349.337 354.45 349.805 355.127 350.87 356.133C351.929 357.138 353.661 358.409 356.076 359.408C358.488 360.398 361.581 361.068 365.035 361.068C368.492 361.076 372.269 360.361 376.136 359.317C380.006 358.264 383.644 357.042 387.031 356.162C390.413 355.27 393.539 354.73 396.19 354.579C398.841 354.429 400.995 354.638 402.449 354.923C403.176 355.07 403.736 355.201 404.107 355.323C404.483 355.433 404.675 355.501 404.67 355.52Z" fill="#FAFAFA"/>
<path d="M404.566 329.051C404.404 329.051 404.273 320.886 404.273 310.817C404.273 300.745 404.405 292.583 404.566 292.583C404.727 292.583 404.859 300.745 404.859 310.817C404.859 320.887 404.728 329.051 404.566 329.051Z" fill="#263238"/>
<path d="M396.375 340.079C396.377 340.1 396.216 340.122 395.906 340.147C395.597 340.163 395.139 340.219 394.55 340.207C393.371 340.226 391.658 340.123 389.579 339.727C385.453 338.971 379.766 336.69 375.194 332.03C370.63 327.36 368.469 321.625 367.801 317.484C367.449 315.397 367.382 313.681 367.426 312.504C367.426 311.915 367.492 311.459 367.514 311.149C367.545 310.841 367.571 310.68 367.592 310.681C367.729 310.677 367.41 313.303 368.209 317.407C368.971 321.47 371.152 327.054 375.613 331.619C380.081 336.173 385.617 338.473 389.662 339.32C393.75 340.206 396.381 339.942 396.375 340.079Z" fill="#263238"/>
<g opacity="0.3">
<path d="M350.596 367.771C363.198 360.27 380.089 361.548 391.432 352.252C396.771 347.877 400.247 341.564 402.323 334.982C404.401 328.399 405.187 321.49 405.964 314.632C406.683 327.362 407.401 340.093 408.121 352.825C408.268 355.432 408.325 358.325 406.63 360.311C405.196 361.993 402.881 362.563 400.724 363.043C391.517 365.091 382.309 367.138 373.101 369.187C365.627 370.848 357.632 372.48 350.484 369.734" fill="black"/>
</g>
<g opacity="0.2">
<path d="M386.647 272.852C384.27 275.777 381.853 278.776 380.558 282.316C379.263 285.856 379.275 290.102 381.539 293.116C384.008 296.404 388.642 297.488 392.675 296.681C396.707 295.876 400.241 293.499 403.449 290.929C405.044 289.651 406.789 288.236 408.832 288.283C410.045 288.311 411.183 288.864 412.378 289.075C415.692 289.661 418.979 287.501 420.873 284.719C422.767 281.936 423.607 278.597 424.685 275.408C425.762 272.219 427.219 268.971 429.918 266.959C432.424 265.093 435.925 264.331 437.486 261.625C439.442 258.231 436.881 253.673 433.298 252.09C429.716 250.506 425.597 251.034 421.719 251.593" fill="black"/>
</g>
<g opacity="0.2">
<path d="M392.635 339.643C392.844 339.966 392.58 340.647 391.678 341.436C390.787 342.222 389.218 343.058 387.097 343.451C384.987 343.833 382.346 343.739 379.617 342.782C376.875 341.831 374.244 340.017 372.085 337.671C369.933 335.321 368.43 332.714 367.416 330.289C366.398 327.862 365.821 325.621 365.467 323.74C364.797 319.974 364.932 317.597 365.692 317.367C366.481 317.128 367.779 319.172 369.4 322.428C371.056 325.657 373.062 330.074 376.398 333.7C378.056 335.496 379.877 336.899 381.667 337.783C383.466 338.68 385.296 339.13 386.866 339.311C390.021 339.681 392.168 338.924 392.635 339.643Z" fill="black"/>
</g>
<path d="M446.121 316.569C446.107 316.73 436.791 316.015 425.319 314.972C413.841 313.928 404.552 312.952 404.566 312.791C404.581 312.63 413.894 313.345 425.372 314.388C436.844 315.432 446.136 316.408 446.121 316.569Z" fill="#263238"/>
<path d="M377.298 153.449C382.426 157.912 386.388 161.487 391.818 164.91C397.247 168.333 402.863 172.422 404.875 178.517C406.339 182.949 405.8 188.2 408.737 191.827C411.246 194.927 415.503 195.835 419.022 197.713C425.208 201.014 429.301 207.909 429.236 214.92C429.194 219.4 427.662 224.207 429.777 228.155C431.626 231.604 435.762 233.288 437.815 236.62C439.771 239.794 439.475 243.83 438.833 247.502C437.852 253.117 435.771 259.193 430.747 261.885C427.339 263.711 423.116 263.573 419.504 262.193C415.892 260.814 412.813 258.311 410.099 255.557C404.876 250.257 400.76 243.871 398.09 236.925C394.893 228.61 393.793 219.669 392.249 210.896C389.42 194.82 385.022 179.021 379.138 163.797C377.7 160.081 375.127 156.792 377.298 153.449Z" fill="#263238"/>
<path d="M419.72 223.951C419.708 223.931 420.02 223.742 420.606 223.375C421.189 223.004 422.041 222.441 423.06 221.618C424.077 220.797 425.257 219.695 426.36 218.207C427.439 216.721 428.452 214.791 428.744 212.498C429.006 210.228 428.537 207.558 426.947 205.363C426.152 204.288 425.086 203.317 423.754 202.804C422.442 202.24 420.921 202.18 419.373 202.066C417.836 201.956 416.126 201.804 414.664 200.866C413.199 199.953 412.225 198.382 411.735 196.725C411.235 195.055 411.119 193.271 411.279 191.5C411.442 189.737 411.797 187.99 412.037 186.225C412.278 184.463 412.385 182.699 412.062 181.023C411.741 179.349 410.999 177.798 410.04 176.447C408.108 173.717 405.383 171.825 402.683 170.353C399.966 168.873 397.233 167.721 394.776 166.421C392.312 165.14 390.1 163.794 388.134 162.489C384.205 159.867 381.297 157.372 379.367 155.58C378.401 154.682 377.678 153.958 377.197 153.457C376.98 153.225 376.803 153.036 376.658 152.881C376.539 152.749 376.481 152.678 376.489 152.67C376.496 152.663 376.568 152.72 376.701 152.838C376.857 152.982 377.047 153.158 377.281 153.371C377.786 153.844 378.534 154.54 379.52 155.408C381.491 157.144 384.426 159.578 388.362 162.141C390.331 163.415 392.541 164.734 394.999 165.987C397.445 167.258 400.181 168.391 402.941 169.876C405.681 171.355 408.493 173.281 410.508 176.111C411.508 177.514 412.292 179.14 412.634 180.91C412.977 182.681 412.861 184.513 412.617 186.3C412.373 188.092 412.02 189.83 411.859 191.551C411.702 193.258 411.815 194.977 412.285 196.555C412.747 198.125 413.644 199.56 414.964 200.389C416.276 201.242 417.88 201.409 419.413 201.524C420.949 201.646 422.531 201.708 423.95 202.323C425.38 202.887 426.512 203.933 427.341 205.075C428.999 207.406 429.454 210.182 429.157 212.545C428.822 214.938 427.752 216.897 426.623 218.398C425.472 219.9 424.252 220.991 423.203 221.793C422.152 222.596 421.273 223.132 420.668 223.472C420.367 223.645 420.127 223.76 419.969 223.841C419.808 223.923 419.724 223.959 419.72 223.951Z" fill="#263238"/>
<path d="M312.211 216.086L331.776 204.254C332.579 203.769 333.622 204.026 334.107 204.828C334.592 205.63 334.335 206.674 333.533 207.159L313.967 218.991L312.211 216.086Z" fill="#DF9A5B"/>
<g opacity="0.4">
<path d="M333.534 207.159L331.777 204.254C332.58 203.769 333.623 204.026 334.108 204.828C334.592 205.63 334.336 206.674 333.534 207.159Z" fill="black"/>
</g>
<g opacity="0.4">
<path d="M313.412 218.062L332.965 206.237L332.475 205.428L312.923 217.253L313.412 218.062Z" fill="black"/>
</g>
<path d="M313.969 218.991L308.98 220.025L312.212 216.086L313.969 218.991Z" fill="#DF9A5B"/>
<g opacity="0.5">
<path d="M313.969 218.991L308.98 220.025L312.212 216.086L313.969 218.991Z" fill="white"/>
</g>
<path d="M310.603 219.688L310.031 218.744L308.98 220.025L310.603 219.688Z" fill="#263238"/>
<path d="M343.17 160.551C329.146 165.175 321.241 179.994 325.184 194.226C328.239 205.251 331.757 217.187 334.441 224.099C340.686 240.182 353.91 239.541 353.91 239.541C353.91 239.541 356.378 249.925 358.551 259.827C360.621 269.261 370.517 275.307 380.666 273.336C390.714 271.384 397.262 262.292 395.368 252.923L378.784 180.632C375.142 164.757 358.639 155.452 343.17 160.551Z" fill="#B78876"/>
<path d="M331.571 199.726C331.775 200.862 332.905 201.626 334.096 201.435C335.284 201.244 336.086 200.169 335.881 199.033C335.677 197.897 334.547 197.13 333.358 197.322C332.168 197.513 331.367 198.59 331.571 199.726Z" fill="#263238"/>
<path d="M330.1 197.129C330.425 197.35 331.784 195.804 334.084 195.313C336.374 194.79 338.316 195.607 338.504 195.272C338.6 195.121 338.222 194.677 337.372 194.3C336.534 193.924 335.188 193.673 333.758 193.988C332.328 194.305 331.238 195.092 330.663 195.782C330.074 196.477 329.943 197.033 330.1 197.129Z" fill="#263238"/>
<path d="M355.098 195.527C355.302 196.663 356.432 197.428 357.624 197.238C358.813 197.046 359.613 195.972 359.41 194.836C359.206 193.7 358.074 192.934 356.886 193.124C355.694 193.315 354.894 194.391 355.098 195.527Z" fill="#263238"/>
<path d="M354.268 192.779C354.593 193.001 355.954 191.452 358.253 190.962C360.543 190.439 362.485 191.257 362.673 190.922C362.768 190.771 362.393 190.326 361.539 189.95C360.702 189.574 359.356 189.323 357.926 189.638C356.496 189.956 355.406 190.743 354.83 191.432C354.243 192.126 354.111 192.682 354.268 192.779Z" fill="#263238"/>
<path d="M349.603 211.627C349.585 211.495 348.103 211.556 345.724 211.761C345.124 211.828 344.544 211.831 344.358 211.452C344.128 211.058 344.237 210.372 344.374 209.628C344.618 208.088 344.875 206.475 345.144 204.784C346.179 197.899 346.792 192.291 346.514 192.251C346.237 192.212 345.173 197.76 344.138 204.644C343.897 206.339 343.665 207.954 343.448 209.499C343.37 210.214 343.152 211.053 343.642 211.868C343.894 212.273 344.394 212.498 344.793 212.518C345.193 212.551 345.526 212.487 345.819 212.441C348.174 212.061 349.622 211.759 349.603 211.627Z" fill="#263238"/>
<path d="M353.91 239.168C353.91 239.168 365.27 237.468 374.927 228.396C374.927 228.396 371.989 241.007 354.984 243.051L353.91 239.168Z" fill="#A36957"/>
<path d="M359.972 184.409C359.81 184.883 357.978 184.656 355.797 184.782C353.613 184.875 351.814 185.284 351.605 184.829C351.384 184.413 353.14 183.147 355.709 183.024C358.275 182.889 360.15 183.973 359.972 184.409Z" fill="#263238"/>
<path d="M336.438 186.585C336.455 187.081 334.58 187.533 332.367 188.19C330.148 188.829 328.326 189.461 328.073 189.033C327.822 188.631 329.414 187.216 331.873 186.503C334.329 185.777 336.433 186.111 336.438 186.585Z" fill="#263238"/>
<path d="M422.376 246.756C422.376 246.756 413.325 236.828 414.059 225.436C414.794 214.045 411.227 206.652 404.856 204.03C400.387 202.19 398.608 197.583 397.915 193.748C396.754 187.31 395.003 180.985 392.255 175.049C388.289 166.485 383.013 157.673 375.66 152.129C366.1 144.92 351.088 140.099 341.854 147.72C337.571 151.255 335.042 151.815 331.215 157.835C331.215 157.835 326.604 159.448 324.235 160.526C316.054 164.249 313.063 174.921 313.929 181.886C315.933 198.004 325.697 200.041 329.512 210.318C329.512 210.318 324.931 187.952 325.292 181.789C325.71 174.638 331.015 169.788 331.015 169.788C337.5 168.614 340.935 171.691 344.664 177.124C348.395 182.557 350.824 187.015 356.93 189.493C362.682 191.827 367.815 197.035 375.607 191.521C375.607 191.521 379.702 195.863 380.254 201.462C380.806 207.062 375.293 210.186 379.335 218.821C383.377 227.456 390.943 233.312 391.731 236.749" fill="#263238"/>
<path d="M353.832 216.271C354.338 215.224 355.444 214.483 356.667 214.373C357.516 214.296 358.433 214.528 359.074 215.103C359.714 215.679 360.012 216.617 359.682 217.353C359.312 218.183 358.265 218.566 357.3 218.489C356.336 218.413 355.429 217.969 354.563 217.519C354.323 217.394 354.078 217.263 353.903 217.063C353.729 216.861 353.642 216.569 353.764 216.35" fill="#DF9A5B"/>
<path d="M357.999 212.019C357.684 212.062 358.095 214.14 356.612 215.97C355.134 217.804 352.873 218.013 352.915 218.307C352.911 218.443 353.489 218.612 354.428 218.45C355.351 218.298 356.63 217.736 357.538 216.617C358.441 215.496 358.666 214.196 358.567 213.33C358.473 212.446 358.138 211.978 357.999 212.019Z" fill="#263238"/>
<path d="M379.34 218.317C383.773 222.7 385.564 229.57 383.837 235.56C382.699 239.504 380.18 243.023 379.604 247.088C378.903 252.041 381.182 256.86 383.093 261.484C385.004 266.107 386.585 271.416 384.568 275.994C383.724 277.909 382.309 279.526 381.443 281.43C380.577 283.334 380.393 285.818 381.852 287.316C382.868 288.359 384.411 288.659 385.861 288.788C396.666 289.746 407.742 283.325 412.281 273.472C413.013 275.103 413.745 276.734 414.477 278.365C419.337 271.036 421.6 262.022 420.779 253.267C419.958 244.512 416.058 236.077 409.921 229.779" fill="#263238"/>
<path d="M372.683 194.993C372.437 193.891 374.694 191.105 375.788 190.821C378.315 190.166 382.707 190.219 384.712 197.148C387.575 207.047 377.355 206.762 377.256 206.484C377.178 206.266 373.552 198.896 372.683 194.993Z" fill="#B78876"/>
<path d="M378.57 202.035C378.604 201.991 378.777 202.106 379.107 202.155C379.429 202.203 379.944 202.152 380.404 201.81C381.339 201.123 381.74 199.209 381.271 197.41C381.036 196.502 380.599 195.699 380.074 195.081C379.563 194.444 378.948 194.074 378.394 194.133C377.836 194.163 377.553 194.586 377.514 194.899C377.461 195.215 377.581 195.394 377.533 195.426C377.512 195.459 377.273 195.323 377.233 194.89C377.217 194.682 377.266 194.415 377.444 194.157C377.625 193.895 377.946 193.696 378.324 193.629C379.102 193.461 379.993 193.965 380.57 194.643C381.189 195.313 381.701 196.209 381.966 197.229C382.479 199.242 381.999 201.404 380.687 202.232C380.043 202.615 379.401 202.573 379.034 202.425C378.657 202.269 378.541 202.063 378.57 202.035Z" fill="#A36957"/>
<path d="M425.936 223.305C425.823 223.266 425.918 222.831 425.948 222.032C425.975 221.237 425.879 220.052 425.309 218.677C424.748 217.312 423.694 215.749 422.055 214.456C420.386 213.148 418.152 212.115 415.525 211.195C412.917 210.247 409.843 209.403 406.785 207.589C405.275 206.675 403.759 205.472 402.602 203.863C401.423 202.275 400.653 200.447 400.026 198.636C399.39 196.817 398.875 194.99 398.185 193.276C397.489 191.576 396.602 190.003 395.289 188.872C392.665 186.54 388.513 186.034 384.445 186.354C380.329 186.685 376.07 187.705 371.692 187.351C369.514 187.187 367.337 186.59 365.446 185.651C363.543 184.719 361.888 183.509 360.417 182.227C357.478 179.642 355.258 176.755 353.164 174.213C351.075 171.659 349.08 169.384 346.97 167.681C342.821 164.16 338.16 163.448 335.228 163.918C333.739 164.134 332.635 164.596 331.919 164.964C331.197 165.328 330.813 165.556 330.739 165.469C330.68 165.405 330.935 165.022 331.598 164.468C332.253 163.911 333.381 163.222 334.996 162.801C336.605 162.38 338.686 162.249 341.012 162.702C343.324 163.145 345.895 164.269 348.241 166.044C350.624 167.791 352.823 170.125 355.02 172.642C357.223 175.157 359.44 177.872 362.179 180.179C364.9 182.489 368.161 184.288 371.916 184.489C375.7 184.778 379.76 183.815 384.225 183.431C386.465 183.257 388.743 183.306 390.986 183.759C393.219 184.197 395.445 185.159 397.193 186.722C398.964 188.284 400.038 190.331 400.787 192.242C401.528 194.172 402.017 196.048 402.584 197.768C403.142 199.493 403.787 201.072 404.695 202.357C405.575 203.657 406.774 204.68 408.072 205.526C410.699 207.209 413.622 208.166 416.27 209.26C418.924 210.33 421.337 211.597 423.11 213.201C424.9 214.828 425.925 216.691 426.389 218.304C426.86 219.925 426.762 221.28 426.534 222.117C426.301 222.964 426.011 223.335 425.936 223.305Z" fill="#455A64"/>
<path d="M366.956 148.824C364.903 146.82 363.59 144.011 363.63 141.142C363.668 138.273 365.143 135.406 367.59 133.909C369.235 132.904 371.235 132.542 373.15 132.753C377.465 133.227 381.257 136.784 382.007 141.06C382.757 145.336 380.402 149.97 376.504 151.884C372.608 153.798 367.501 152.831 364.574 149.624" fill="#263238"/>
<path d="M376.788 151.562C376.794 151.628 376.004 151.778 374.713 151.706C373.427 151.639 371.642 151.282 369.848 150.439C368.056 149.59 366.646 148.441 365.776 147.49C364.9 146.54 364.513 145.835 364.567 145.797C364.704 145.663 366.599 148.292 370.098 149.908C373.57 151.581 376.805 151.372 376.788 151.562Z" fill="#DF9A5B"/>
<path d="M324.464 204.323C324.419 204.315 324.468 203.668 324.533 202.514C324.501 201.355 324.408 199.674 323.847 197.672C323.301 195.67 322.363 193.375 321.244 190.849C320.158 188.316 318.851 185.529 318.151 182.364C317.778 180.787 317.683 179.191 317.743 177.659C317.841 176.122 318.233 174.669 318.791 173.377C319.911 170.777 321.675 168.848 323.357 167.574C325.063 166.305 326.686 165.664 327.82 165.361C328.386 165.194 328.84 165.129 329.148 165.092C329.456 165.051 329.617 165.039 329.62 165.059C329.633 165.126 328.984 165.203 327.887 165.58C326.793 165.944 325.238 166.628 323.612 167.903C322.009 169.183 320.337 171.079 319.289 173.59C318.765 174.838 318.402 176.229 318.317 177.698C318.27 179.169 318.36 180.705 318.725 182.24C319.404 185.318 320.682 188.091 321.741 190.636C322.834 193.174 323.747 195.517 324.25 197.568C324.769 199.621 324.802 201.349 324.763 202.523C324.706 203.109 324.622 203.561 324.574 203.866C324.52 204.17 324.484 204.326 324.464 204.323Z" fill="#455A64"/>
<path d="M334.842 284.744C334.831 284.761 334.604 284.628 334.179 284.358C333.742 284.104 333.145 283.662 332.397 283.063C330.914 281.856 328.968 279.811 327.231 276.842C325.507 273.875 324.05 269.98 323.382 265.486C322.702 260.99 322.881 255.964 323.568 250.799C324.267 245.626 325.329 240.777 326.16 236.354C327.004 231.934 327.6 227.925 327.844 224.536C328.087 221.147 328.011 218.393 327.851 216.499C327.694 214.604 327.51 213.565 327.567 213.555C327.587 213.552 327.647 213.809 327.743 214.302C327.849 214.794 327.959 215.527 328.078 216.476C328.31 218.372 328.451 221.147 328.259 224.563C328.066 227.978 327.509 232.017 326.691 236.452C325.887 240.891 324.845 245.735 324.149 250.875C323.465 256.007 323.275 260.976 323.917 265.407C324.545 269.839 325.939 273.688 327.591 276.636C329.256 279.585 331.124 281.641 332.546 282.89C333.967 284.146 334.884 284.682 334.842 284.744Z" fill="#455A64"/>
<path d="M385.057 282.392C385.052 282.384 385.121 282.317 385.264 282.193C385.436 282.05 385.647 281.873 385.908 281.655C386.477 281.185 387.309 280.487 388.36 279.565C390.429 277.697 393.417 274.918 396.325 270.86C399.209 266.84 401.987 261.344 402.51 254.758C402.792 251.497 402.484 247.994 401.296 244.636C400.167 241.244 397.865 238.263 395.968 234.92C395.022 233.247 394.215 231.48 393.796 229.624C393.366 227.774 393.289 225.898 393.357 224.085C393.504 220.45 394.16 217.022 394.221 213.733C394.307 210.448 393.964 207.31 393.189 204.495C392.419 201.68 391.207 199.198 389.737 197.208C386.756 193.201 382.969 191.253 380.318 190.535C377.618 189.816 376.031 190.046 376.039 189.958C376.039 189.948 376.135 189.936 376.324 189.925C376.548 189.916 376.825 189.904 377.165 189.89C377.903 189.923 379.005 189.962 380.376 190.315C383.086 190.976 386.98 192.898 390.069 196.959C391.595 198.98 392.851 201.503 393.658 204.365C394.468 207.227 394.834 210.413 394.761 213.746C394.713 217.089 394.066 220.532 393.931 224.105C393.868 225.887 393.948 227.711 394.365 229.492C394.769 231.274 395.548 232.983 396.479 234.631C398.34 237.919 400.676 240.945 401.838 244.445C403.051 247.895 403.35 251.48 403.048 254.803C402.484 261.513 399.615 267.075 396.662 271.102C393.681 275.17 390.632 277.915 388.51 279.738C387.432 280.638 386.574 281.309 385.982 281.749C385.706 281.949 385.483 282.111 385.302 282.242C385.146 282.348 385.063 282.4 385.057 282.392Z" fill="#455A64"/>
<path d="M385.215 203.527C385.237 203.501 385.571 203.706 386.079 204.202C386.572 204.694 387.278 205.517 387.599 206.796C387.921 208.065 387.599 209.761 386.475 211.091C385.394 212.411 383.503 213.422 381.463 213.142C379.435 212.844 377.859 211.364 377.257 209.739C376.948 208.924 376.886 208.06 377.033 207.3C377.182 206.539 377.501 205.883 377.879 205.356C378.647 204.296 379.62 203.774 380.301 203.578C380.994 203.379 381.396 203.431 381.395 203.457C381.4 203.511 381.009 203.538 380.378 203.793C379.755 204.043 378.886 204.587 378.222 205.591C377.556 206.571 377.16 208.081 377.762 209.545C378.32 210.985 379.767 212.306 381.547 212.561C383.334 212.813 385.06 211.927 386.063 210.742C387.105 209.55 387.435 208.042 387.194 206.883C386.953 205.708 386.34 204.88 385.91 204.356C385.469 203.828 385.184 203.563 385.215 203.527Z" fill="#DF9A5B"/>
<path d="M379.648 157.169C379.669 157.174 379.64 157.349 379.569 157.684C379.528 157.871 379.482 158.074 379.431 158.301C379.347 158.55 379.253 158.822 379.153 159.118C378.696 160.324 377.839 162.064 376.177 163.722C374.563 165.396 372.128 166.997 369.074 167.646C367.554 167.962 365.886 168.014 364.223 167.729C362.556 167.454 360.891 166.9 359.268 166.188C356.015 164.753 353.203 162.898 350.489 161.559C347.792 160.19 345.174 159.347 342.899 159.198C340.626 159.022 338.79 159.453 337.612 159.919C336.434 160.405 335.862 160.847 335.829 160.797C335.817 160.781 335.954 160.665 336.226 160.459C336.501 160.257 336.933 159.992 337.521 159.708C338.7 159.164 340.582 158.655 342.925 158.783C345.269 158.881 347.984 159.713 350.728 161.073C353.491 162.405 356.312 164.244 359.503 165.649C361.096 166.347 362.712 166.888 364.318 167.16C365.923 167.442 367.506 167.401 368.967 167.115C371.9 166.522 374.283 165.016 375.885 163.426C377.536 161.852 378.428 160.189 378.941 159.03C379.058 158.745 379.166 158.484 379.265 158.244C379.335 158.027 379.398 157.831 379.456 157.651C379.563 157.332 379.628 157.165 379.648 157.169Z" fill="#455A64"/>
<path d="M357.458 402.926L286.796 437.08L157.246 401.749L220.843 367.006L357.458 402.926Z" fill="#263238"/>
<path d="M279.544 401.48L298.305 407.677L315.674 398.234L286.766 388.96L269.883 397.71L279.544 401.48Z" fill="#455A64"/>
<path d="M140.758 306.354C141.347 308.709 157.246 401.748 157.246 401.748L286.796 437.08L269.719 337.563L140.758 306.354Z" fill="#263238"/>
<path d="M277.368 382.134C277.528 382.107 279.768 394.385 282.371 409.556C284.976 424.731 286.956 437.052 286.796 437.08C286.637 437.107 284.397 424.831 281.794 409.656C279.19 394.485 277.209 382.162 277.368 382.134Z" fill="#455A64"/>
<path d="M209.677 374.375C213.18 373.018 214.742 368.619 213.165 364.549C211.589 360.48 207.471 358.28 203.968 359.637C200.465 360.994 198.903 365.393 200.479 369.463C202.056 373.533 206.173 375.732 209.677 374.375Z" fill="#455A64"/>
<path d="M341.7 389.149C341.7 389.149 417.555 395.647 430.117 386.55C442.678 377.453 442.678 316.375 442.678 316.375L405.088 312.91L404.559 355.361C401.96 357.527 336.55 368.356 330.918 367.923C330.918 367.923 296.64 371.586 294.77 371.586C292.901 371.586 280.496 385.69 280.496 386.37C280.496 386.37 280.666 388.239 281.855 388.919C281.855 388.919 280.326 390.788 282.025 392.657C282.025 392.657 281.515 395.037 283.384 395.547C285.253 396.057 285.423 396.906 287.633 395.547C289.842 394.188 300.718 385.691 300.718 385.691L308.875 385.011C308.875 385.011 288.993 396.396 290.692 398.945C292.391 401.494 296.3 398.605 300.718 396.226C305.136 393.847 312.443 389.598 313.802 389.258C315.161 388.918 341.7 389.149 341.7 389.149Z" fill="#B78876"/>
<path d="M305.82 378.457C305.825 378.567 304.241 378.552 301.809 379.19C299.378 379.802 296.158 381.216 293.051 383.471C289.941 385.725 287.471 388.213 285.684 390C283.903 391.801 282.8 392.918 282.737 392.859C282.708 392.832 282.944 392.517 283.399 391.972C283.854 391.427 284.527 390.652 285.383 389.714C287.099 387.85 289.542 385.289 292.708 382.994C295.872 380.699 299.203 379.307 301.711 378.787C302.963 378.515 303.998 378.413 304.712 378.398C305.426 378.382 305.82 378.422 305.82 378.457Z" fill="#A36957"/>
<path d="M301.505 375.675C301.51 375.782 300.137 375.766 298.041 376.335C295.945 376.881 293.179 378.146 290.544 380.161C287.907 382.176 285.84 384.4 284.344 385.994C282.854 387.601 281.926 388.597 281.862 388.54C281.805 388.491 282.618 387.402 284.034 385.719C285.458 384.049 287.496 381.753 290.189 379.693C292.882 377.633 295.766 376.387 297.942 375.931C299.028 375.694 299.926 375.609 300.545 375.604C301.164 375.597 301.505 375.639 301.505 375.675Z" fill="#A36957"/>
<path d="M416.485 368.254C416.386 368.278 416.134 367.255 415.455 365.722C414.782 364.189 413.599 362.174 411.841 360.323C410.075 358.478 408.117 357.201 406.618 356.458C405.118 355.708 404.109 355.409 404.137 355.31C404.15 355.252 405.208 355.411 406.794 356.082C408.374 356.745 410.442 358.012 412.266 359.917C414.083 361.829 415.251 363.954 415.839 365.564C416.434 367.18 416.544 368.245 416.485 368.254Z" fill="#AA6550"/>
<path d="M286.135 447.958C282.836 448.757 281.36 453.016 282.472 456.224C283.585 459.432 286.484 461.67 289.443 463.334C298.347 468.342 310.17 469.526 318.449 463.54C322.072 460.921 324.911 456.287 323.413 452.074C322.103 448.387 318.063 446.48 314.285 445.456C304.213 442.723 293.206 443.582 283.68 447.844" fill="#E0E0E0"/>
<path d="M281.283 421.306C281.283 421.306 275.18 461.889 303.54 460.591C330.104 459.375 320.797 419.865 320.797 419.865L281.283 421.306Z" fill="#455A64"/>
<path d="M316.336 449.339C320.77 452.294 326.69 452.921 331.609 450.873C336.528 448.825 340.274 444.133 341.09 438.868C341.906 433.602 339.721 427.953 335.517 424.679C331.314 421.405 325.246 420.681 320.428 422.956L320.013 427.578C323.02 426.158 326.807 426.61 329.429 428.654C332.053 430.697 333.415 434.222 332.906 437.507C332.397 440.793 330.06 443.722 326.99 444.999C323.921 446.277 320.226 445.886 317.459 444.042L316.336 449.339Z" fill="#455A64"/>
<path d="M320.796 419.864C320.912 422.378 312.148 424.827 301.22 425.332C290.293 425.837 281.34 424.208 281.224 421.694C281.108 419.179 289.871 416.73 300.799 416.226C311.727 415.72 320.68 417.35 320.796 419.864Z" fill="#DF9A5B"/>
<g opacity="0.2">
<path d="M321.973 426.975C319.633 427.764 317.968 430.019 317.738 432.477C317.508 434.936 318.329 437.377 319.404 439.6C319.731 440.275 320.292 441.05 321.029 440.909C321.744 440.773 321.997 439.893 322.084 439.171C322.571 435.184 322.699 431.104 321.962 427.154" fill="black"/>
</g>
<path d="M314.75 423.486C323.948 421.026 295.639 422.042 286.469 424.597C286.469 424.597 301.517 427.024 314.75 423.486Z" fill="#263238"/>
</g>
<defs>
<clipPath id="clip0_7686_4787">
<rect width="563" height="537" fill="white"/>
</clipPath>
</defs>
</svg>
