<svg width="563" height="537" viewBox="0 0 563 537" fill="none" xmlns="http://www.w3.org/2000/svg">
<g clip-path="url(#clip0_11869_6623)">
<path d="M186.431 239.703L188.282 243.452C188.38 243.651 188.569 243.788 188.788 243.82L192.924 244.421C193.476 244.501 193.696 245.179 193.297 245.567L190.303 248.486C190.145 248.64 190.073 248.863 190.11 249.08L190.817 253.201C190.911 253.75 190.334 254.168 189.841 253.91L186.141 251.964C185.945 251.862 185.712 251.862 185.516 251.964L181.816 253.91C181.323 254.169 180.746 253.75 180.84 253.201L181.547 249.08C181.584 248.862 181.512 248.64 181.354 248.486L178.36 245.567C177.961 245.178 178.181 244.501 178.733 244.421L182.869 243.82C183.088 243.788 183.277 243.651 183.375 243.452L185.226 239.703C185.472 239.204 186.185 239.204 186.431 239.703Z" fill="#E0E0E0"/>
<path d="M555.947 220.066L557.797 223.815C557.895 224.013 558.085 224.15 558.303 224.183L562.44 224.784C562.991 224.864 563.212 225.542 562.813 225.93L559.819 228.848C559.66 229.002 559.589 229.225 559.626 229.443L560.332 233.564C560.427 234.113 559.85 234.531 559.357 234.272L555.657 232.326C555.461 232.223 555.227 232.223 555.031 232.326L551.331 234.272C550.838 234.531 550.262 234.112 550.356 233.564L551.062 229.443C551.099 229.225 551.028 229.002 550.869 228.848L547.876 225.93C547.477 225.541 547.697 224.864 548.248 224.784L552.385 224.183C552.604 224.151 552.793 224.013 552.891 223.815L554.741 220.066C554.988 219.567 555.7 219.567 555.947 220.066Z" fill="#E0E0E0"/>
<path d="M190.757 95.9679L190.291 98.2979C190.267 98.4212 190.304 98.549 190.392 98.6388L192.048 100.343C192.269 100.57 192.134 100.952 191.819 100.989L189.459 101.266C189.334 101.281 189.224 101.356 189.166 101.467L188.057 103.569C187.909 103.849 187.505 103.838 187.372 103.55L186.379 101.391C186.326 101.277 186.221 101.196 186.097 101.175L183.755 100.769C183.443 100.715 183.328 100.327 183.561 100.112L185.307 98.5001C185.399 98.4149 185.444 98.2897 185.426 98.1646L185.088 95.8129C185.042 95.4992 185.377 95.2708 185.652 95.4258L187.725 96.5881C187.835 96.6497 187.968 96.6533 188.08 96.598L190.213 95.55C190.497 95.4113 190.818 95.6579 190.757 95.9679Z" fill="#E0E0E0"/>
<path d="M21.5254 280.507L20.831 283.986C20.7938 284.17 20.85 284.361 20.9815 284.496L23.4538 287.041C23.7829 287.38 23.5807 287.949 23.1111 288.004L19.588 288.419C19.4012 288.441 19.2381 288.553 19.1501 288.719L17.4938 291.857C17.2734 292.275 16.6687 292.258 16.4711 291.829L14.9879 288.606C14.909 288.435 14.7522 288.314 14.5672 288.282L11.0714 287.676C10.6054 287.596 10.434 287.015 10.7822 286.695L13.3887 284.289C13.5265 284.162 13.5926 283.975 13.5664 283.789L13.0623 280.277C12.9952 279.809 13.4938 279.467 13.9063 279.698L17.0006 281.433C17.1647 281.525 17.3623 281.53 17.5309 281.448L20.7149 279.883C21.1392 279.675 21.6179 280.044 21.5254 280.507Z" fill="#E0E0E0"/>
<path d="M-27.4062 484.904C-27.4062 484.773 104.21 484.668 266.53 484.668C428.906 484.668 560.494 484.774 560.494 484.904C560.494 485.034 428.906 485.139 266.53 485.139C104.21 485.14 -27.4062 485.034 -27.4062 484.904Z" fill="#263238"/>
<path d="M36.9734 100.506L38.8238 104.254C38.9217 104.453 39.1112 104.59 39.3297 104.621L43.4665 105.223C44.0177 105.302 44.238 105.98 43.8391 106.369L40.8455 109.286C40.6869 109.44 40.6153 109.663 40.6524 109.881L41.3587 114.001C41.453 114.551 40.8764 114.969 40.3832 114.71L36.6833 112.765C36.4875 112.661 36.2536 112.661 36.0578 112.765L32.3579 114.71C31.8647 114.969 31.289 114.551 31.3824 114.001L32.0896 109.881C32.1267 109.662 32.0551 109.44 31.8965 109.286L28.9029 106.369C28.504 105.98 28.7243 105.302 29.2755 105.223L33.4123 104.621C33.6317 104.59 33.8203 104.452 33.9182 104.254L35.7686 100.506C36.0152 100.006 36.7268 100.006 36.9734 100.506Z" fill="#FF8675"/>
<path d="M7.31906 205.438L6.85397 207.768C6.82949 207.891 6.86666 208.019 6.9546 208.108L8.61096 209.813C8.83127 210.04 8.69619 210.421 8.3816 210.458L6.02171 210.736C5.8966 210.75 5.7869 210.826 5.72888 210.937L4.61919 213.039C4.47142 213.319 4.06707 213.308 3.93471 213.02L2.94107 210.861C2.88849 210.747 2.78333 210.666 2.65912 210.644L0.317369 210.239C0.00549734 210.185 -0.109642 209.797 0.123355 209.582L1.86947 207.97C1.96194 207.885 2.00637 207.759 1.98824 207.634L1.65007 205.283C1.60474 204.969 1.93928 204.74 2.21489 204.895L4.28738 206.057C4.39708 206.118 4.53035 206.122 4.64277 206.067L6.77509 205.019C7.05977 204.88 7.38071 205.127 7.31906 205.438Z" fill="#FF8675"/>
<path d="M269.924 91.9924L269.459 94.3232C269.435 94.4465 269.472 94.5744 269.56 94.6641L271.216 96.3685C271.436 96.5952 271.301 96.9769 270.987 97.014L268.627 97.2914C268.502 97.3059 268.392 97.3812 268.334 97.4927L267.224 99.5942C267.077 99.8744 266.672 99.8635 266.54 99.5752L265.546 97.4166C265.494 97.3023 265.388 97.2216 265.264 97.1999L262.922 96.7946C262.611 96.7402 262.496 96.3522 262.728 96.1373L264.475 94.5254C264.567 94.4402 264.611 94.3151 264.593 94.19L264.255 91.8373C264.21 91.5236 264.544 91.2952 264.82 91.4502L266.892 92.6125C267.002 92.6741 267.135 92.6777 267.248 92.6224L269.38 91.5744C269.665 91.4348 269.987 91.6814 269.924 91.9924Z" fill="#FF8675"/>
<path d="M515.703 259.341L515.238 261.67C515.213 261.794 515.25 261.922 515.338 262.011L516.995 263.716C517.215 263.943 517.08 264.324 516.765 264.361L514.405 264.639C514.28 264.653 514.171 264.728 514.112 264.84L513.003 266.941C512.855 267.222 512.45 267.211 512.318 266.922L511.324 264.764C511.271 264.65 511.166 264.569 511.042 264.547L508.7 264.142C508.388 264.087 508.273 263.699 508.506 263.485L510.252 261.873C510.345 261.787 510.389 261.662 510.371 261.537L510.033 259.185C509.988 258.872 510.322 258.643 510.598 258.798L512.67 259.961C512.78 260.022 512.913 260.026 513.026 259.971L515.158 258.923C515.444 258.783 515.764 259.03 515.703 259.341Z" fill="#FF8675"/>
<path d="M507.414 204.22L506.057 204.868C505.985 204.903 505.934 204.97 505.922 205.049L505.687 206.534C505.655 206.732 505.41 206.808 505.272 206.663L504.236 205.572C504.182 205.514 504.102 205.488 504.023 205.499L502.538 205.734C502.34 205.766 502.192 205.557 502.288 205.381L503.005 204.059C503.043 203.989 503.044 203.905 503.008 203.834L502.325 202.494C502.234 202.315 502.388 202.111 502.584 202.147L504.063 202.421C504.141 202.435 504.222 202.41 504.278 202.354L505.341 201.29C505.483 201.149 505.726 201.231 505.752 201.43L505.949 202.921C505.959 203 506.008 203.069 506.078 203.105L507.418 203.788C507.598 203.878 507.595 204.134 507.414 204.22Z" fill="#FF8675"/>
<path d="M63.8629 163.157L62.5058 163.805C62.4341 163.839 62.3834 163.906 62.3707 163.985L62.135 165.47C62.1032 165.668 61.8584 165.744 61.7206 165.599L60.6853 164.508C60.63 164.45 60.5511 164.424 60.4723 164.436L58.9872 164.671C58.7896 164.702 58.6409 164.493 58.737 164.316L59.4541 162.994C59.4922 162.925 59.4931 162.84 59.4569 162.769L58.7742 161.43C58.6835 161.251 58.8367 161.045 59.0335 161.082L60.5121 161.355C60.5901 161.37 60.6708 161.344 60.727 161.288L61.7904 160.225C61.9319 160.083 62.1749 160.166 62.2011 160.364L62.3979 161.856C62.4088 161.935 62.4568 162.003 62.5275 162.04L63.8675 162.722C64.047 162.814 64.0443 163.07 63.8629 163.157Z" fill="#FF8675"/>
<path d="M458.168 133.817L457.468 137.324C457.431 137.51 457.488 137.701 457.62 137.837L460.112 140.402C460.444 140.743 460.24 141.317 459.766 141.374L456.214 141.791C456.027 141.813 455.862 141.927 455.773 142.094L454.104 145.257C453.882 145.679 453.272 145.663 453.073 145.229L451.578 141.981C451.499 141.809 451.34 141.687 451.154 141.655L447.63 141.044C447.16 140.963 446.988 140.379 447.338 140.055L449.965 137.629C450.104 137.501 450.171 137.313 450.145 137.125L449.636 133.585C449.568 133.113 450.07 132.769 450.486 133.002L453.605 134.752C453.77 134.844 453.97 134.85 454.14 134.766L457.349 133.189C457.778 132.978 458.261 133.35 458.168 133.817Z" fill="#FF8675"/>
<path d="M37.3688 430.82C40.2391 430.958 42.9154 432.551 44.7812 434.737C46.6479 436.923 47.7739 439.656 48.481 442.441C49.8491 447.83 48.8844 454.158 47.2825 459.483C41.4947 457.33 37.9889 451.082 36.4096 447.801C33.9137 442.616 32.5511 431.727 37.3688 430.82Z" fill="#455A64"/>
<path d="M55.5661 466.101C53.7656 463.443 53.7692 459.78 55.257 456.935C56.7438 454.09 59.557 452.06 62.6385 451.157C64.0628 450.739 65.7119 450.578 66.9358 451.418C68.0799 452.204 68.5586 453.723 68.3918 455.1C68.225 456.478 67.5097 457.731 66.6711 458.837C63.7935 462.629 60.314 465.77 55.5661 466.101Z" fill="#455A64"/>
<path d="M55.9757 484.06C55.9476 484.063 55.8651 483.664 55.73 482.94C55.585 482.141 55.3973 481.11 55.1715 479.871C54.7463 477.291 54.0646 473.622 54.6684 469.582C55.2495 465.56 56.8977 462.137 58.6058 460.102C59.4471 459.072 60.2485 458.346 60.8405 457.9C61.127 457.666 61.3791 457.522 61.5395 457.412C61.7036 457.307 61.7934 457.258 61.8006 457.269C61.8632 457.341 60.4298 458.2 58.8297 460.278C57.2105 462.32 55.6403 465.685 55.0673 469.64C54.4744 473.597 55.099 477.233 55.4535 479.825C55.6448 481.127 55.7989 482.183 55.886 482.915C55.9721 483.648 56.0029 484.056 55.9757 484.06Z" fill="#263238"/>
<path d="M39.1385 439.02C39.1512 439.015 39.2292 439.168 39.367 439.463C39.5175 439.8 39.7106 440.231 39.95 440.766C40.4495 441.9 41.1503 443.55 41.9998 445.595C43.6997 449.685 45.968 455.37 48.3315 461.702C50.6941 468.038 52.7022 473.82 54.0975 478.024C54.7956 480.126 55.3459 481.832 55.7112 483.015C55.8799 483.575 56.0168 484.028 56.1238 484.38C56.2135 484.694 56.2552 484.861 56.2416 484.864C56.2289 484.869 56.1618 484.71 56.0467 484.406C55.9216 484.059 55.7611 483.614 55.5626 483.064C55.1365 481.848 54.5481 480.169 53.8282 478.116C52.365 473.937 50.3151 468.174 47.9544 461.843C45.5927 455.515 43.3669 449.818 41.736 445.702C40.9345 443.678 40.28 442.025 39.8049 440.826C39.5946 440.28 39.425 439.839 39.2927 439.495C39.1794 439.189 39.1259 439.026 39.1385 439.02Z" fill="#263238"/>
<path d="M49.2275 472.094C45.8731 466.215 39.5223 462.154 32.7781 461.578C31.061 461.431 28.9894 461.694 28.2025 463.227C27.4147 464.763 28.4183 466.606 29.5724 467.89C34.3774 473.231 42.5957 475.177 49.2846 472.558" fill="#455A64"/>
<path d="M35.3321 466.213C35.3348 466.186 35.7165 466.206 36.4082 466.267C36.7545 466.295 37.1779 466.331 37.662 466.428C38.1453 466.524 38.7083 466.584 39.3057 466.759C39.9077 466.915 40.5722 467.072 41.2585 467.328C41.9593 467.545 42.6774 467.855 43.4317 468.187C44.9212 468.887 46.4996 469.798 47.9982 470.974C49.486 472.164 50.738 473.489 51.7534 474.787C52.2411 475.451 52.7071 476.081 53.0688 476.72C53.4696 477.334 53.7642 477.95 54.0425 478.507C54.3408 479.053 54.514 479.593 54.7071 480.046C54.9029 480.499 55.0226 480.908 55.1187 481.242C55.3163 481.907 55.4124 482.278 55.3852 482.285C55.2991 482.314 54.9047 480.824 53.7878 478.634C53.4968 478.093 53.1921 477.494 52.7851 476.896C52.417 476.275 51.9483 475.663 51.4605 475.015C50.446 473.753 49.2085 472.461 47.748 471.29C46.2757 470.135 44.7317 469.23 43.2748 468.523C42.5368 468.189 41.8342 467.87 41.1479 467.644C40.4761 467.376 39.8252 467.207 39.235 467.034C36.8579 466.403 35.3221 466.301 35.3321 466.213Z" fill="#263238"/>
<path d="M447.882 415.114C450.85 417.121 452.667 420.553 453.239 424.089C453.811 427.626 453.24 431.266 452.188 434.691C450.153 441.318 445.025 447.431 439.87 452.066C435.101 446.023 435.415 437.097 435.858 432.579C436.559 425.439 442.163 412.959 447.882 415.114Z" fill="#455A64"/>
<path d="M444.41 464.483C444.214 460.485 446.592 456.585 450.02 454.518C453.447 452.451 457.758 452.112 461.625 453.147C463.413 453.626 465.274 454.522 466.033 456.21C466.743 457.788 466.269 459.716 465.199 461.076C464.129 462.436 462.554 463.307 460.945 463.94C455.423 466.115 449.682 467.205 444.41 464.483Z" fill="#455A64"/>
<path d="M433.207 483.873C433.174 483.859 433.345 483.38 433.67 482.522C434.033 481.577 434.502 480.357 435.064 478.891C436.282 475.867 437.934 471.517 441.194 467.606C444.419 463.699 448.393 461.121 451.53 460.06C453.093 459.508 454.417 459.254 455.335 459.164C455.792 459.099 456.154 459.11 456.396 459.097C456.639 459.091 456.766 459.097 456.767 459.114C456.787 459.232 454.704 459.217 451.654 460.393C448.606 461.52 444.753 464.087 441.58 467.927C438.386 471.757 436.695 476.034 435.393 479.026C434.753 480.536 434.233 481.761 433.851 482.597C433.469 483.434 433.237 483.887 433.207 483.873Z" fill="#263238"/>
<path d="M444.455 424.995C444.472 424.997 444.457 425.21 444.41 425.615C444.352 426.071 444.279 426.656 444.187 427.379C443.984 428.91 443.663 431.121 443.242 433.85C442.401 439.308 441.135 446.833 439.549 455.108C437.96 463.387 436.354 470.846 435.115 476.228C434.497 478.918 433.977 481.092 433.599 482.589C433.416 483.296 433.269 483.867 433.154 484.311C433.047 484.703 432.983 484.907 432.966 484.903C432.948 484.899 432.98 484.687 433.055 484.287C433.147 483.837 433.264 483.259 433.409 482.545C433.742 480.974 434.204 478.804 434.768 476.151C435.917 470.752 437.468 463.286 439.055 455.013C440.64 446.743 441.961 439.234 442.891 433.792C443.349 431.118 443.722 428.932 443.993 427.348C444.123 426.63 444.228 426.05 444.31 425.598C444.388 425.2 444.438 424.992 444.455 424.995Z" fill="#263238"/>
<path d="M433.77 466.756C434.007 458.321 429.874 449.881 423.064 444.897C421.33 443.628 418.954 442.566 417.122 443.69C415.288 444.816 415.162 447.429 415.56 449.545C417.217 458.346 424.71 465.744 433.531 467.289" fill="#455A64"/>
<path d="M422.787 451.493C422.808 451.465 423.202 451.734 423.899 452.248C424.25 452.501 424.677 452.815 425.129 453.232C425.581 453.648 426.142 454.076 426.665 454.649C427.204 455.205 427.811 455.802 428.376 456.52C428.981 457.205 429.545 458.001 430.134 458.843C431.268 460.554 432.358 462.546 433.191 464.77C434.005 467.002 434.48 469.225 434.721 471.264C434.81 472.288 434.898 473.261 434.869 474.175C434.898 475.089 434.813 475.936 434.749 476.709C434.712 477.485 434.547 478.172 434.459 478.78C434.374 479.39 434.237 479.902 434.123 480.32C433.902 481.157 433.764 481.613 433.731 481.604C433.62 481.579 434.166 479.737 434.394 476.68C434.435 475.915 434.499 475.079 434.452 474.18C434.463 473.28 434.36 472.324 434.261 471.319C433.998 469.317 433.519 467.138 432.721 464.946C431.902 462.762 430.843 460.799 429.749 459.101C429.18 458.266 428.637 457.473 428.054 456.787C427.511 456.067 426.928 455.464 426.411 454.899C424.29 452.683 422.72 451.579 422.787 451.493Z" fill="#263238"/>
<path d="M167.69 182.097L155.139 180.632C150.082 185.768 143.587 189.615 136.074 191.461C114.467 196.771 92.6475 183.56 87.3376 161.954C82.0276 140.347 95.2386 118.528 116.845 113.218C138.451 107.908 160.271 121.119 165.581 142.725C167.798 151.747 166.777 160.802 163.272 168.681L163.286 168.663L167.69 182.097Z" fill="white"/>
<path d="M167.69 182.097C167.69 182.097 167.577 181.79 167.379 181.209C167.177 180.613 166.886 179.757 166.506 178.634C165.743 176.366 164.624 173.035 163.168 168.702L163.385 168.741L163.371 168.758C163.327 168.812 163.249 168.821 163.194 168.778C163.149 168.742 163.136 168.679 163.158 168.628C165.261 163.814 167.106 157.055 166.418 149.051C166.248 147.061 165.932 145.004 165.416 142.92C164.802 140.865 164.24 138.711 163.275 136.632C161.481 132.435 158.851 128.278 155.318 124.619C151.797 120.961 147.382 117.811 142.304 115.627C137.235 113.438 131.502 112.229 125.594 112.352C113.791 112.486 101.34 118.549 93.8672 129.202C90.0875 134.618 87.5645 140.821 86.8229 147.141C86.0087 153.444 86.7259 159.764 88.6741 165.462C90.6034 171.179 93.8771 176.191 97.7864 180.216C101.71 184.247 106.318 187.274 111.068 189.263C115.823 191.26 120.713 192.217 125.323 192.36C125.9 192.367 126.473 192.374 127.042 192.381C127.61 192.399 128.174 192.398 128.73 192.328C129.844 192.23 130.94 192.133 132.017 192.038C134.137 191.615 136.209 191.315 138.123 190.698C145.846 188.375 151.431 184.197 155.054 180.546C155.08 180.519 155.118 180.508 155.153 180.511C159.2 181.016 162.316 181.404 164.441 181.67C165.491 181.804 166.293 181.906 166.855 181.978C167.399 182.051 167.69 182.097 167.69 182.097C167.69 182.097 167.432 182.079 166.9 182.023C166.345 181.964 165.552 181.881 164.514 181.771C162.365 181.537 159.215 181.196 155.124 180.75L155.223 180.716C151.614 184.422 146.013 188.672 138.23 191.056C136.302 191.688 134.212 192.001 132.072 192.437C130.984 192.537 129.878 192.64 128.753 192.744C128.191 192.816 127.622 192.82 127.047 192.805C126.472 192.799 125.894 192.795 125.31 192.789C120.65 192.663 115.7 191.711 110.883 189.704C106.071 187.706 101.399 184.652 97.4165 180.577C93.4483 176.508 90.122 171.432 88.1592 165.641C86.1774 159.871 85.443 153.463 86.2653 147.069C87.0142 140.661 89.569 134.368 93.403 128.876C93.8354 128.176 94.3703 127.555 94.8907 126.925L96.4483 125.039L98.1672 123.315C98.7329 122.735 99.3013 122.161 99.9432 121.671C100.565 121.158 101.184 120.646 101.804 120.137C102.408 119.608 103.116 119.221 103.765 118.758C104.433 118.324 105.072 117.845 105.76 117.452C106.459 117.077 107.156 116.704 107.852 116.33C113.451 113.423 119.593 111.894 125.58 111.808C131.57 111.691 137.379 112.926 142.508 115.152C147.648 117.374 152.11 120.575 155.664 124.286C159.228 127.998 161.876 132.213 163.674 136.461C164.641 138.566 165.202 140.744 165.812 142.823C166.325 144.93 166.636 147.009 166.797 149.018C167.452 157.102 165.547 163.906 163.388 168.73L163.175 168.6L163.19 168.583C163.232 168.529 163.311 168.52 163.365 168.562C163.385 168.578 163.4 168.6 163.407 168.622C164.811 173.014 165.889 176.391 166.624 178.69C166.976 179.804 167.245 180.653 167.432 181.247C167.611 181.818 167.69 182.097 167.69 182.097Z" fill="#263238"/>
<path d="M107.348 153.871L112.31 148.558L122.519 157.029L141.331 137.652L146.276 142.626L122.122 166.962L107.348 153.871Z" fill="#FF8675"/>
<path d="M254.994 288.673C254.991 288.803 252.623 288.863 249.704 288.808C246.784 288.752 244.42 288.601 244.422 288.471C244.425 288.34 246.793 288.28 249.713 288.336C252.631 288.392 254.996 288.542 254.994 288.673Z" fill="#263238"/>
<path d="M87.2656 284.577C87.2656 284.577 90.7769 304.501 94.105 308.734C97.4332 312.967 99.5882 326.149 99.5882 326.149L126.812 316.347L124.985 306.347L126.64 281.119C126.64 281.119 117.326 265.571 117.686 266.102C118.046 266.63 87.2656 284.577 87.2656 284.577Z" fill="#FFBF9D"/>
<path d="M99.5672 326.178L99.5626 326.151C99.5418 326.019 97.3705 312.926 94.084 308.747C92.3624 306.558 90.5936 300.103 89.4123 295.073C88.1331 289.625 87.2492 284.63 87.241 284.581L87.2383 284.565L87.2519 284.557C87.328 284.513 94.9607 280.061 102.487 275.583C115.64 267.756 117.653 266.285 117.664 266.114C117.663 266.111 117.662 266.109 117.661 266.107C117.66 266.105 117.658 266.103 117.658 266.103L117.659 266.102C117.648 266.077 117.654 266.073 117.662 266.068C117.678 266.055 117.694 266.073 117.703 266.087C117.706 266.091 117.709 266.099 117.71 266.108C118.112 266.838 126.571 280.96 126.658 281.105L126.662 281.11V281.117L125.006 306.346L126.837 316.361L126.819 316.367L99.5672 326.178ZM87.2882 284.588C87.4042 285.242 90.8728 304.589 94.1194 308.718C95.841 310.907 97.2417 315.53 98.113 319.022C99.0123 322.623 99.549 325.793 99.6025 326.117L126.782 316.33L124.959 306.348L126.614 281.121C126.51 280.948 124.301 277.261 122.124 273.619C120.821 271.438 119.784 269.701 119.042 268.453C118.601 267.712 118.26 267.138 118.03 266.748C117.832 266.41 117.733 266.244 117.687 266.159C116.814 267.361 88.6898 283.771 87.2882 284.588Z" fill="#FF9A6C"/>
<path d="M176.928 276.165C176.928 276.165 162.866 280.478 160.695 295.281C159.69 302.128 149.427 365.266 149.427 365.266L133.524 320.118L91.7695 335.604C91.7695 335.604 106.973 382.387 107.913 385.133C115.727 407.942 122.233 440.081 157.749 436.497C194.705 432.767 187.761 360.974 187.761 360.974L176.928 276.165Z" fill="#455A64"/>
<path d="M321.027 95.2052L69.5586 311.266L71.7021 313.76L323.17 97.7L321.027 95.2052Z" fill="#E0E0E0"/>
<path d="M71.7032 313.767C71.7041 313.751 71.8156 313.64 72.0332 313.437C72.2553 313.236 72.5789 312.942 73.006 312.556C73.8681 311.794 75.1437 310.668 76.8137 309.192C80.1609 306.274 85.0891 301.978 91.4363 296.444C104.121 285.453 122.473 269.552 145.162 249.892C190.521 210.655 253.121 156.617 322.537 96.9776L322.434 98.342C321.761 97.5596 321.032 96.7101 320.301 95.8598L320.29 95.848L321.654 95.9513C189.854 209.192 81.286 301.968 69.6207 311.345L69.6307 311.21C70.4901 312.255 71.006 312.882 71.3097 313.252C71.6161 313.631 71.705 313.752 71.7032 313.767C71.7023 313.783 71.6125 313.695 71.2916 313.346C70.9652 312.982 70.4113 312.365 69.4874 311.335L69.4258 311.266L69.4983 311.2C80.5253 301.08 188.595 207.725 320.395 94.4835L321.129 93.8525L321.76 94.5869L321.771 94.5987C322.502 95.4491 323.232 96.2976 323.905 97.0809L324.535 97.8153L323.801 98.4463C254.089 158.346 190.956 212.335 145.365 251.241C122.584 270.647 104.16 286.344 91.4254 297.193C85.0737 302.571 80.1418 306.745 76.7928 309.58C75.1265 310.972 73.8545 312.034 72.9942 312.753C72.1374 313.456 71.7005 313.801 71.7032 313.767Z" fill="#263238"/>
<path d="M116.933 251.243C117.196 251.405 120.866 255.046 124.401 257.85C127.936 260.654 129.035 260.867 130.014 265.133C130.992 269.4 132.597 283.17 132.188 286.248C131.778 289.326 121.258 309.311 121.258 309.311C121.258 309.311 111.232 312.977 110.545 299.661C109.858 286.346 121.385 277.937 121.385 277.937L119.843 267.693C119.843 267.693 114.255 262.358 113.626 258.085C112.997 253.812 114.927 250.012 116.933 251.243Z" fill="#FFBF9D"/>
<path d="M94.6571 277.411C90.2736 275.202 88.3054 277.624 87.542 279.032C86.7787 280.44 86.7116 282.232 87.115 283.758C87.5185 285.284 88.3444 286.577 89.2646 287.717C90.5366 289.292 92.1295 290.682 94.0125 290.813C95.8955 290.943 98.1828 288.585 98.4222 286.337" fill="#FFBF9D"/>
<path d="M98.4219 286.338C98.4382 286.34 98.4373 286.446 98.4201 286.65C98.4001 286.853 98.3439 287.152 98.2142 287.52C97.9595 288.25 97.3974 289.284 96.2877 290.169C95.7283 290.581 95.0148 291.01 94.1264 291.009C93.2724 290.995 92.3957 290.694 91.6033 290.199C90.8091 289.703 90.0911 289.033 89.4347 288.28C88.782 287.526 88.1582 286.692 87.6532 285.748C86.6261 283.868 86.3659 281.669 86.9533 279.877C87.5408 278.091 88.9252 276.778 90.3449 276.49C91.7574 276.183 92.8934 276.586 93.596 276.859C93.9614 276.989 94.217 277.15 94.3974 277.241C94.5751 277.339 94.6649 277.397 94.6567 277.412C94.6377 277.452 94.2524 277.267 93.5326 277.031C92.8254 276.812 91.7121 276.487 90.4256 276.813C89.1437 277.109 87.8935 278.346 87.3677 280.007C86.8455 281.68 87.092 283.735 88.0694 285.525C88.5508 286.424 89.1537 287.237 89.7838 287.975C90.4157 288.709 91.0974 289.355 91.8354 289.829C92.5688 290.303 93.3748 290.588 94.1336 290.615C94.877 290.638 95.5534 290.273 96.0874 289.901C97.1571 289.102 97.7474 288.135 98.0429 287.452C98.3394 286.76 98.3774 286.331 98.4219 286.338Z" fill="#FF9A6C"/>
<path d="M100.383 268.74C99.1807 268.337 97.9268 268.004 96.6567 268.187C95.3874 268.37 94.0855 269.156 93.4373 270.501C92.8879 271.641 92.8734 273 92.9741 274.265C93.4373 280.117 96.1281 285.497 100.13 288.715C101.269 289.63 102.821 289.709 104.059 288.803C104.861 288.218 105.632 287.376 106.249 283.865" fill="#FFBF9D"/>
<path d="M106.25 283.866C106.266 283.869 106.257 284.003 106.225 284.255C106.194 284.508 106.136 284.879 106.036 285.353C105.934 285.826 105.796 286.406 105.541 287.056C105.295 287.695 104.871 288.447 104.125 288.961C103.408 289.497 102.351 289.809 101.299 289.525C100.78 289.394 100.267 289.115 99.8518 288.749C99.4257 288.406 99.0114 288.026 98.5989 287.621C96.9688 285.988 95.5165 283.856 94.4784 281.407C93.4267 278.96 92.919 276.445 92.7486 274.153C92.6697 273.007 92.7105 271.871 93.0723 270.872C93.4277 269.866 94.1457 269.102 94.9118 268.649C95.6815 268.189 96.501 268.012 97.2 268.009C97.9026 268 98.4965 268.117 98.9661 268.236C99.4375 268.358 99.792 268.486 100.03 268.575C100.268 268.667 100.389 268.726 100.384 268.74C100.372 268.779 99.8627 268.609 98.9262 268.415C98.0187 268.246 96.5255 268.028 95.0867 268.933C94.3877 269.372 93.7513 270.079 93.4421 271.002C93.1248 271.925 93.0931 273.002 93.1829 274.121C93.3742 276.367 93.8846 278.828 94.9136 281.223C95.929 283.619 97.336 285.705 98.9081 287.315C99.3052 287.713 99.7059 288.088 100.116 288.429C100.506 288.782 100.938 289.018 101.399 289.147C102.324 289.413 103.264 289.161 103.931 288.69C104.632 288.231 105.03 287.57 105.298 286.954C105.568 286.338 105.729 285.772 105.857 285.31C106.106 284.383 106.212 283.859 106.25 283.866Z" fill="#FF9A6C"/>
<path d="M108.33 264.294C107.016 263.079 105.3 262.345 103.593 262.698C101.885 263.052 100.258 264.667 99.9553 266.695C99.7758 267.897 100.052 269.09 100.352 270.222C101.457 274.388 102.919 278.397 104.71 282.169C105.152 283.098 105.637 284.042 106.396 284.611C107.615 285.524 109.336 285.232 110.602 284.223C111.869 283.214 112.736 281.758 113.256 278.792" fill="#FFBF9D"/>
<path d="M113.258 278.792C113.275 278.795 113.264 278.938 113.227 279.21C113.19 279.481 113.121 279.88 113.001 280.388C112.878 280.894 112.697 281.512 112.381 282.192C112.066 282.868 111.585 283.608 110.858 284.228C110.146 284.849 109.143 285.378 107.975 285.351C107.397 285.338 106.791 285.155 106.285 284.785C105.781 284.414 105.399 283.902 105.083 283.361C103.915 281.166 102.875 278.685 101.908 276.013C101.428 274.678 101.006 273.358 100.632 272.073C100.275 270.785 99.8877 269.556 99.7327 268.301C99.5668 267.052 99.8269 265.784 100.432 264.825C101.028 263.861 101.877 263.164 102.763 262.791C103.658 262.412 104.566 262.409 105.303 262.554C106.047 262.7 106.636 262.991 107.085 263.26C107.533 263.536 107.848 263.796 108.049 263.984C108.249 264.172 108.343 264.282 108.333 264.293C108.303 264.33 107.892 263.915 106.995 263.42C106.545 263.182 105.965 262.927 105.257 262.814C104.555 262.701 103.71 262.731 102.897 263.098C102.085 263.46 101.306 264.126 100.768 265.027C100.224 265.928 100.001 267.067 100.166 268.25C100.321 269.43 100.715 270.667 101.077 271.943C101.454 273.217 101.877 274.527 102.353 275.854C103.307 278.496 104.347 281.001 105.46 283.142C105.755 283.658 106.102 284.125 106.533 284.45C106.965 284.771 107.48 284.938 107.99 284.959C109.024 285 109.963 284.541 110.643 283.972C112.05 282.807 112.517 281.295 112.824 280.339C113.113 279.35 113.219 278.785 113.258 278.792Z" fill="#FF9A6C"/>
<path d="M118.092 265.464C118.859 267.567 119.527 269.763 119.739 272.026C119.951 274.289 119.592 276.702 118.355 278.366C117.118 280.03 114.885 280.704 113.23 279.523C112.202 278.789 111.54 277.502 111.004 276.225C109.997 273.826 109.282 271.279 108.617 268.728C108.279 267.43 107.949 266.11 107.912 264.764C107.875 263.419 108.003 262.149 108.481 260.971C108.97 259.763 111.541 257.709 113.905 259.408C113.905 259.408 116.537 261.202 118.092 265.464Z" fill="#FFBF9D"/>
<path d="M118.091 265.464C118.048 265.482 117.801 264.779 117.17 263.607C116.85 263.025 116.428 262.326 115.847 261.584C115.264 260.861 114.546 260.011 113.573 259.398C112.605 258.774 111.195 258.789 110.066 259.553C109.509 259.911 108.958 260.419 108.68 261.034C108.408 261.705 108.244 262.446 108.175 263.216C108.018 264.77 108.235 266.396 108.682 268.051C109.111 269.714 109.569 271.435 110.129 273.163C110.708 274.876 111.29 276.586 112.166 278.013C112.612 278.712 113.181 279.328 113.888 279.637C114.591 279.95 115.395 279.971 116.105 279.739C117.57 279.297 118.525 278.026 119.002 276.76C119.504 275.479 119.631 274.167 119.625 272.991C119.568 270.622 119.026 268.739 118.673 267.46C118.492 266.861 118.344 266.373 118.228 265.987C118.125 265.649 118.076 265.47 118.091 265.464C118.106 265.459 118.185 265.627 118.317 265.954C118.449 266.281 118.634 266.768 118.848 267.405C119.256 268.677 119.855 270.555 119.959 272.984C119.986 274.19 119.878 275.545 119.367 276.9C119.114 277.576 118.751 278.244 118.236 278.837C117.714 279.418 117.033 279.903 116.234 280.154C115.445 280.42 114.519 280.409 113.705 280.05C112.879 279.692 112.254 279.003 111.777 278.263C110.843 276.75 110.27 275.046 109.68 273.309C109.114 271.563 108.659 269.836 108.233 268.164C108.023 267.326 107.84 266.487 107.75 265.647C107.659 264.804 107.667 263.979 107.741 263.175C107.82 262.371 107.998 261.591 108.296 260.875C108.653 260.122 109.243 259.618 109.857 259.223C110.477 258.833 111.177 258.601 111.869 258.59C112.56 258.57 113.22 258.783 113.744 259.114C114.788 259.801 115.473 260.667 116.057 261.426C116.629 262.197 117.033 262.921 117.332 263.522C117.632 264.125 117.824 264.612 117.938 264.947C118.054 265.281 118.107 265.459 118.091 265.464Z" fill="#FF9A6C"/>
<path d="M119.845 267.693C119.868 267.69 119.929 267.945 120.022 268.426C120.121 268.977 120.244 269.669 120.395 270.508C120.699 272.387 121.11 274.919 121.594 277.906L121.621 278.073L121.458 278.135C120.273 278.581 119.059 279.238 117.943 280.145C116.824 281.047 115.802 282.178 114.891 283.447C111.586 287.63 110.966 292.538 110.732 295.925C110.639 297.639 110.711 299.03 110.819 299.983C110.923 300.938 111.068 301.453 111.021 301.465C111.006 301.47 110.96 301.344 110.887 301.099C110.806 300.855 110.722 300.488 110.637 300.009C110.472 299.053 110.347 297.647 110.399 295.91C110.466 294.178 110.67 292.11 111.234 289.875C111.524 288.762 111.891 287.6 112.475 286.469C113.061 285.361 113.736 284.257 114.508 283.172C115.437 281.877 116.493 280.713 117.657 279.787C118.816 278.856 120.084 278.185 121.316 277.74L121.18 277.969C120.764 274.972 120.411 272.431 120.149 270.546C120.046 269.7 119.96 269.003 119.892 268.446C119.84 267.959 119.824 267.697 119.845 267.693Z" fill="#FF9A6C"/>
<path d="M155.211 399.057C155.178 399.063 155.071 398.594 154.904 397.742C154.729 396.804 154.503 395.59 154.231 394.131C153.666 390.993 152.915 386.818 152.085 382.204C151.257 377.542 150.544 373.314 150.074 370.247C149.838 368.714 149.659 367.471 149.549 366.61C149.438 365.75 149.392 365.271 149.424 365.266C149.457 365.26 149.563 365.729 149.73 366.58C149.905 367.519 150.132 368.733 150.403 370.191C150.968 373.329 151.719 377.504 152.55 382.12C153.378 386.78 154.09 391.007 154.561 394.075C154.796 395.608 154.976 396.851 155.087 397.712C155.196 398.573 155.242 399.052 155.211 399.057Z" fill="#263238"/>
<path d="M93.924 334.803L89.8516 320.941L127.676 308.935L131.131 320.864L93.924 334.803Z" fill="#E0E0E0"/>
<path d="M93.9282 334.803C93.9309 334.797 93.9962 334.768 94.1195 334.717C94.2645 334.659 94.4431 334.587 94.6652 334.498C95.1711 334.301 95.8692 334.029 96.7577 333.684C98.6035 332.976 101.237 331.966 104.526 330.705C111.149 328.196 120.4 324.69 131.055 320.652L130.916 320.929C129.819 317.152 128.654 313.138 127.453 309.003L127.752 309.163C127.454 309.257 127.133 309.359 126.811 309.461C112.226 314.059 99.0858 318.202 89.9047 321.097L90.0107 320.898C91.2301 325.181 92.212 328.63 92.8983 331.044C93.2274 332.224 93.4857 333.15 93.6707 333.814C93.7514 334.114 93.8167 334.354 93.8674 334.543C93.9109 334.707 93.9318 334.796 93.9282 334.803C93.9245 334.81 93.8973 334.735 93.8466 334.582C93.7895 334.402 93.7169 334.175 93.6263 333.891C93.4259 333.242 93.1458 332.335 92.7886 331.18C92.0542 328.755 91.0053 325.291 89.7016 320.988L89.6562 320.837L89.8077 320.789C98.977 317.859 112.101 313.665 126.668 309.01C126.991 308.908 127.312 308.806 127.609 308.712L127.841 308.639L127.908 308.872C129.103 313.008 130.263 317.023 131.355 320.803L131.414 321.007L131.216 321.08C120.469 325.06 111.137 328.515 104.458 330.988C101.173 332.19 98.541 333.153 96.6969 333.828C95.8193 334.143 95.1303 334.392 94.6308 334.571C94.4159 334.645 94.2428 334.705 94.1022 334.754C93.9835 334.792 93.9254 334.809 93.9282 334.803Z" fill="#263238"/>
<g opacity="0.3">
<path d="M149.422 365.266C156.414 378.036 159.576 393.359 159.74 407.918C159.754 409.188 159.327 410.893 158.057 410.863C156.912 410.836 156.46 409.389 156.325 408.251C154.695 394.507 151.052 379.01 149.422 365.266Z" fill="black"/>
</g>
<path d="M419.954 157.924C405.606 143.764 405.941 118.5 394.954 101.598C381.904 81.5193 357.52 78.3897 334.009 82.8656C333.371 82.9871 332.777 83.2799 332.287 83.706L256.064 150.026C253.185 152.53 255.561 157.192 259.286 156.367C275.688 152.732 296.362 153.474 307.356 165.059C318.538 176.843 327.243 209.591 336.303 223.216C350.675 244.83 367.02 259.823 396.001 262.063C397.067 262.145 398.114 261.74 398.865 260.979L402.187 257.614C402.258 257.542 402.326 257.468 402.39 257.391C424.517 231.048 443.807 206.35 465.598 180.201C467.437 177.994 466.139 174.623 463.294 174.223C447.366 171.985 431.311 169.132 419.954 157.924Z" fill="#FF8675"/>
<path d="M356.878 221.837C356.87 221.838 356.848 221.757 356.812 221.597C356.774 221.411 356.726 221.176 356.666 220.885C356.542 220.221 356.369 219.301 356.15 218.133C356.04 217.531 355.919 216.867 355.787 216.142C355.674 215.412 355.592 214.611 355.482 213.755C355.289 212.039 354.983 210.092 354.894 207.917C354.825 206.831 354.754 205.694 354.678 204.509C354.61 203.323 354.642 202.087 354.618 200.808C354.537 198.249 354.713 195.519 354.843 192.645C355.272 186.909 356.125 180.625 357.627 174.153C359.19 167.693 361.248 161.694 363.44 156.375C364.613 153.747 365.681 151.229 366.903 148.978C367.498 147.845 368.024 146.726 368.617 145.697C369.216 144.673 369.79 143.689 370.34 142.749C371.396 140.845 372.544 139.243 373.486 137.796C373.968 137.08 374.4 136.401 374.829 135.8C375.273 135.212 375.679 134.672 376.047 134.184C376.767 133.239 377.333 132.495 377.743 131.957C377.927 131.724 378.075 131.535 378.194 131.386C378.297 131.259 378.353 131.196 378.36 131.201C378.366 131.206 378.322 131.279 378.232 131.415C378.123 131.573 377.988 131.769 377.819 132.014C377.428 132.564 376.885 133.325 376.196 134.291C375.839 134.786 375.445 135.332 375.015 135.928C374.597 136.536 374.177 137.221 373.707 137.942C372.788 139.399 371.663 141.01 370.628 142.919C370.09 143.861 369.525 144.846 368.937 145.872C368.355 146.902 367.838 148.022 367.253 149.154C366.05 151.405 365 153.92 363.842 156.542C361.681 161.85 359.645 167.829 358.087 174.262C356.592 180.708 355.729 186.962 355.278 192.675C355.137 195.537 354.946 198.256 355.011 200.806C355.026 202.081 354.986 203.313 355.044 204.494C355.108 205.676 355.17 206.81 355.229 207.893C355.296 210.063 355.579 212.007 355.746 213.723C355.843 214.578 355.911 215.379 356.011 216.11C356.128 216.835 356.235 217.501 356.332 218.103C356.514 219.276 356.657 220.199 356.761 220.867C356.802 221.161 356.834 221.399 356.86 221.588C356.88 221.751 356.886 221.835 356.878 221.837Z" fill="#263238"/>
<g opacity="0.3">
<path d="M439.707 204.571C433.143 200.98 426.579 197.389 420.016 193.798C414.907 191.003 409.547 188.137 403.726 187.984C396.253 187.79 389.058 192.439 385.476 199.001C381.894 205.562 381.75 213.712 384.352 220.72C386.953 227.728 392.111 233.619 398.272 237.854C400.325 239.265 402.517 240.527 404.252 242.316C405.987 244.105 407.238 246.577 406.857 249.04L408.69 249.849L442.309 208.615L439.707 204.571Z" fill="black"/>
</g>
<path d="M338.938 86.523C338.949 86.5348 338.763 86.7297 338.4 87.0888C338.003 87.4732 337.467 87.9917 336.792 88.6445C335.391 89.9899 333.343 91.9137 330.795 94.2736C325.701 98.9943 318.581 105.428 310.576 112.373C302.565 119.317 295.187 125.453 289.793 129.829C287.097 132.017 284.902 133.772 283.373 134.968C282.632 135.543 282.043 136 281.606 136.339C281.198 136.648 280.98 136.804 280.969 136.791C280.959 136.779 281.158 136.597 281.546 136.265C281.969 135.908 282.539 135.429 283.256 134.825C284.785 133.555 286.936 131.767 289.581 129.57C294.919 125.131 302.26 118.957 310.266 112.016C318.268 105.075 325.418 98.6824 330.568 94.027C333.118 91.7206 335.192 89.843 336.665 88.5094C337.364 87.8847 337.92 87.3879 338.333 87.0189C338.72 86.6826 338.926 86.5112 338.938 86.523Z" fill="#263238"/>
<g opacity="0.3">
<path d="M331.997 92.9117L278.055 139.245C296.049 128.946 317.726 114.548 335.36 89.8501C335.086 90.1484 332.27 92.6125 331.997 92.9117Z" fill="black"/>
</g>
<path d="M307.44 339.722L286.859 241.741L278.817 228.975L225.398 246.23C225.398 246.23 221.534 254.115 221.544 255.062L201.016 269.094L209.434 377.114L202.171 410.41L204.988 484.9H320.008L307.44 339.722Z" fill="#E0E0E0"/>
<path d="M215.964 258.072C214.614 258.972 176.145 276.52 176.145 276.52L186.091 434.392L178.751 485.135L210.974 484.897C210.974 484.897 215.791 460.941 217.141 420.442C218.491 379.943 215.964 258.072 215.964 258.072Z" fill="#455A64"/>
<path d="M284.824 238.182C284.824 238.182 280.134 407.2 282.834 418.9C285.534 430.6 298.09 484.898 298.09 484.898H367.85L338.194 404.44L343.676 323.486L338.194 245.842L303.994 244.942L284.824 238.182Z" fill="#455A64"/>
<path d="M175.431 299.167C175.439 299.166 175.457 299.284 175.484 299.514C175.51 299.768 175.545 300.106 175.59 300.537C175.674 301.463 175.794 302.785 175.947 304.474C176.243 307.895 176.65 312.847 177.113 318.968C177.573 325.09 178.094 332.382 178.578 340.485C178.816 344.537 179.051 348.792 179.223 353.207C179.414 357.625 179.445 362.195 179.725 366.866C180.227 376.216 181.009 385.107 181.764 393.187C182.526 401.268 183.289 408.537 183.946 414.639C184.617 420.721 185.161 425.651 185.54 429.089C185.726 430.775 185.871 432.094 185.973 433.019C186.017 433.449 186.05 433.788 186.075 434.042C186.096 434.272 186.103 434.391 186.095 434.393C186.086 434.394 186.064 434.277 186.027 434.049C185.99 433.797 185.941 433.459 185.878 433.031C185.755 432.109 185.58 430.794 185.357 429.112C184.919 425.707 184.314 420.776 183.613 414.676C182.914 408.577 182.116 401.309 181.329 393.229C180.552 385.147 179.756 376.254 179.252 366.891C178.972 362.21 178.944 357.632 178.76 353.226C178.594 348.815 178.368 344.562 178.143 340.511C177.683 332.409 177.197 325.117 176.778 318.993C176.35 312.888 176.004 307.94 175.762 304.489C175.647 302.797 175.556 301.472 175.493 300.544C175.467 300.112 175.448 299.772 175.433 299.518C175.425 299.287 175.423 299.167 175.431 299.167Z" fill="#263238"/>
<path d="M294.378 241.741C294.383 241.739 294.418 241.807 294.481 241.943C294.55 242.094 294.64 242.293 294.756 242.55C294.999 243.107 295.346 243.903 295.794 244.932C296.683 247.027 297.956 250.109 299.457 254.072C302.458 261.993 306.351 273.469 309.667 287.539L309.711 287.728L309.525 287.785C307.591 288.38 305.489 289.026 303.342 289.687L303.328 289.271C304.775 289.612 306.1 290.45 307.109 291.574C308.114 292.703 308.864 294.072 309.306 295.551C310.189 298.546 309.788 301.771 309.123 304.852C307.66 311.008 306.139 317.41 304.58 323.976C298.612 348.834 293.211 371.334 289.296 387.642C287.322 395.768 285.722 402.351 284.612 406.922C284.052 409.181 283.616 410.942 283.315 412.159C283.166 412.742 283.05 413.193 282.966 413.518C282.885 413.823 282.832 413.978 282.832 413.978C282.832 413.978 282.854 413.816 282.92 413.507C282.993 413.18 283.093 412.725 283.224 412.137C283.505 410.916 283.912 409.148 284.434 406.88C285.51 402.3 287.06 395.706 288.972 387.564C292.853 371.248 298.207 348.736 304.122 323.865C305.685 317.304 307.208 310.906 308.673 304.754C309.338 301.698 309.721 298.547 308.878 295.678C308.457 294.257 307.737 292.942 306.784 291.866C305.824 290.796 304.583 290.011 303.231 289.689L302.457 289.504L303.217 289.273C305.366 288.618 307.469 287.977 309.405 287.387L309.264 287.632C305.993 273.574 302.161 262.094 299.23 254.155C297.763 250.184 296.527 247.088 295.676 244.98C295.253 243.941 294.925 243.137 294.696 242.574C294.593 242.311 294.512 242.108 294.451 241.953C294.398 241.816 294.373 241.743 294.378 241.741Z" fill="#263238"/>
<path d="M214.484 418.9C214.484 418.9 214.455 418.75 214.423 418.457C214.392 418.143 214.348 417.71 214.292 417.151C214.184 415.982 214.028 414.294 213.829 412.129C213.419 407.768 212.818 401.459 212.015 393.669C210.424 378.087 207.958 356.591 205.395 332.829C204.721 326.484 204.076 320.297 203.503 314.352C203.221 311.401 202.86 308.408 203.571 305.563C203.922 304.15 204.574 302.826 205.493 301.735C206.405 300.647 207.628 299.8 208.998 299.481L209.077 299.903C206.595 300.24 204.205 300.566 201.892 300.88L201.574 300.924L201.668 300.618C205.48 288.114 208.661 277.679 210.897 270.349C212.02 266.713 212.905 263.848 213.516 261.871C213.82 260.91 214.055 260.166 214.221 259.642C214.3 259.403 214.362 259.216 214.41 259.072C214.454 258.945 214.479 258.881 214.484 258.883C214.49 258.885 214.475 258.952 214.441 259.081C214.401 259.228 214.349 259.418 214.283 259.66C214.131 260.188 213.915 260.939 213.637 261.907C213.051 263.893 212.202 266.768 211.126 270.418C208.93 277.76 205.805 288.212 202.06 300.737L201.836 300.475C204.148 300.154 206.538 299.821 209.019 299.477L209.098 299.899C207.832 300.198 206.692 300.986 205.829 302.02C204.961 303.054 204.339 304.321 204.006 305.672C203.324 308.408 203.674 311.35 203.963 314.308C204.574 320.247 205.212 326.433 205.865 332.779C208.428 356.538 210.842 378.043 212.347 393.636C213.109 401.432 213.659 407.746 214.013 412.113C214.174 414.281 214.3 415.973 214.387 417.144C214.423 417.703 214.452 418.138 214.472 418.453C214.488 418.749 214.484 418.9 214.484 418.9Z" fill="#263238"/>
<path d="M240.102 278.033L244.333 288.335H255.393L259.453 276.409L250.355 265.586L247.388 265.99L240.102 278.033Z" fill="#FF8675"/>
<path d="M248.933 263.582C248.945 263.591 248.88 263.718 248.743 263.955C248.578 264.231 248.375 264.571 248.126 264.986C247.55 265.932 246.765 267.217 245.802 268.797C243.83 272.041 241.115 276.605 238.179 281.897L238.004 282.211L237.79 281.922C236.814 280.602 235.805 279.229 234.805 277.802C230.595 271.857 227.211 266.184 224.958 261.981C223.823 259.884 222.97 258.152 222.385 256.954C222.122 256.388 221.908 255.927 221.738 255.562C221.594 255.241 221.526 255.07 221.541 255.062C221.555 255.055 221.652 255.213 221.823 255.519C222.013 255.874 222.254 256.321 222.548 256.871C223.183 258.042 224.079 259.748 225.25 261.82C227.574 265.974 230.991 271.6 235.19 277.529C236.188 278.952 237.192 280.325 238.162 281.645L237.774 281.67C240.733 276.38 243.502 271.841 245.544 268.637C246.565 267.034 247.401 265.764 247.987 264.897C248.262 264.499 248.488 264.174 248.671 263.909C248.832 263.687 248.921 263.574 248.933 263.582Z" fill="#263238"/>
<path d="M282.835 241.741C282.85 241.748 282.762 241.961 282.581 242.359C282.376 242.797 282.107 243.373 281.77 244.092C281.024 245.635 279.984 247.787 278.708 250.426C276.062 255.796 272.445 263.137 268.448 271.245C266.815 274.526 265.244 277.681 263.802 280.575L263.663 280.854L263.443 280.634C258.833 276.01 255.062 271.845 252.605 268.717C251.371 267.159 250.442 265.88 249.831 264.987C249.522 264.543 249.301 264.189 249.148 263.953C248.997 263.715 248.924 263.587 248.935 263.58C248.946 263.573 249.04 263.685 249.21 263.909C249.403 264.168 249.648 264.495 249.952 264.9C250.599 265.764 251.559 267.013 252.821 268.542C255.332 271.611 259.133 275.721 263.759 280.318L263.4 280.376C264.835 277.478 266.399 274.32 268.025 271.035C272.069 262.95 275.731 255.631 278.409 250.277C279.741 247.666 280.826 245.536 281.605 244.009C281.974 243.307 282.27 242.744 282.495 242.316C282.704 241.932 282.821 241.734 282.835 241.741Z" fill="#263238"/>
<g opacity="0.3">
<path d="M248.871 471.176C249.541 469.901 269.505 443.331 269.505 443.331L255.117 290.819L248.871 471.176Z" fill="black"/>
</g>
<path d="M244.541 288.335C244.541 288.335 231.321 441.686 233.615 450.865L248.873 471.176L264.693 441.064C265.04 439.622 254.954 288.335 254.954 288.335H244.541Z" fill="#FF8675"/>
<path d="M304.281 434.273C304.284 434.751 312.851 449.887 312.851 449.887L358.513 449.643L348.389 434.157L304.281 434.273Z" fill="#455A64"/>
<path d="M304.281 434.273C304.277 434.269 304.344 434.264 304.481 434.259C304.64 434.255 304.844 434.25 305.098 434.244C305.676 434.235 306.484 434.224 307.519 434.209C309.675 434.189 312.77 434.159 316.648 434.123C324.518 434.076 335.562 434.01 348.389 433.933L348.51 433.932L348.577 434.034C351.731 438.852 355.156 444.086 358.71 449.513L358.948 449.876L358.514 449.879C358.378 449.88 358.231 449.881 358.083 449.881C340.316 449.948 324.271 450.008 312.852 450.051H312.755L312.707 449.968C310.007 445.144 307.856 441.244 306.403 438.536C305.678 437.182 305.122 436.128 304.766 435.404C304.582 435.045 304.459 434.761 304.374 434.573C304.296 434.366 304.28 434.263 304.281 434.273C304.319 434.35 304.358 434.43 304.417 434.554C304.526 434.757 304.669 435.023 304.849 435.361C305.254 436.091 305.828 437.126 306.562 438.45C308.089 441.147 310.28 445.016 312.994 449.806L312.85 449.723C324.269 449.644 340.314 449.532 358.08 449.41C358.228 449.409 358.375 449.408 358.511 449.407L358.314 449.773C354.767 444.34 351.348 439.103 348.2 434.281L348.389 434.382C335.623 434.372 324.631 434.364 316.8 434.359C312.899 434.342 309.786 434.33 307.618 434.321C306.563 434.311 305.739 434.304 305.15 434.299C304.884 434.293 304.673 434.29 304.506 434.286C304.363 434.282 304.286 434.278 304.281 434.273Z" fill="#263238"/>
<path d="M256.288 272.709C256.339 272.753 255.665 273.617 254.566 275.003C253.467 276.389 251.952 278.303 250.314 280.445C248.678 282.589 247.229 284.556 246.181 285.98C245.133 287.404 244.477 288.282 244.421 288.245C244.37 288.209 244.927 287.265 245.908 285.789C246.888 284.312 248.298 282.309 249.939 280.159C251.581 278.01 253.143 276.122 254.31 274.789C255.475 273.455 256.24 272.668 256.288 272.709Z" fill="#263238"/>
<g opacity="0.3">
<path d="M250.09 265.223C250.09 265.223 259.665 282.488 263.779 283.831C267.892 285.174 275.107 257.303 275.107 257.303L263.611 279.887L250.09 265.223Z" fill="black"/>
</g>
<g opacity="0.3">
<path d="M284.82 406.404C284.82 406.404 306.367 336.019 310.963 316.197C315.56 296.374 309.588 290.819 309.588 290.819L313.835 288.245L301.076 258.883L309.463 287.585L303.277 289.479C303.277 289.479 308.141 289.84 309.407 296.985C310.676 304.131 284.82 406.404 284.82 406.404Z" fill="black"/>
</g>
<path d="M401.248 198.047C401.248 198.047 398.858 195.747 394.627 197.961C394.627 197.961 390.208 200.291 389.584 202.237C388.961 204.182 389.941 206.831 390.761 208.797C391.582 210.763 396.452 218.041 396.452 218.041C396.452 218.041 396.446 224.159 400.547 230.609C404.648 237.059 411.528 237.247 412.835 241.905C414.142 246.564 414.614 247.964 413.853 251.164C413.092 254.365 411.787 259.851 411.787 259.851L438.617 273.558C438.617 273.558 440.335 254.244 439.825 242.851C439.314 231.458 439.298 220.021 440.016 216.327C440.734 212.634 439.771 207.202 438.619 206.631C438.619 206.631 441.754 198.867 437.93 196.669C434.105 194.471 409.627 187.038 406.977 188.018C404.329 188.998 403.347 190.339 402.658 193.234C401.969 196.129 401.248 198.047 401.248 198.047Z" fill="#FFBF9D"/>
<path d="M424.125 217.521C424.125 217.521 423.82 217.255 423.483 216.586C423.158 215.949 422.834 214.708 423.607 213.434L423.664 213.629C422.657 213.253 421.475 212.811 420.156 212.318L420.376 212.106C420.688 212.988 421.033 213.957 421.396 214.983L421.354 214.913C421.744 215.313 422.116 215.761 422.425 216.277C422.721 216.804 422.946 217.421 422.943 218.076C422.961 219.39 422.118 220.706 420.84 221.308C420.203 221.612 419.455 221.725 418.734 221.595C418.375 221.518 418.023 221.41 417.706 221.275C417.375 221.154 417.049 221.013 416.726 220.863C415.425 220.275 414.17 219.496 413.008 218.558C412.219 217.913 411.493 217.233 410.862 216.445L411.019 216.537C409.343 216.311 407.693 215.716 406.515 214.595C405.319 213.486 404.716 211.952 404.678 210.48L404.832 210.687C403.763 210.355 402.798 209.891 401.986 209.257C401.584 208.938 401.225 208.571 400.965 208.143C400.72 207.662 400.671 207.182 400.645 206.732C400.585 204.921 400.855 203.383 401.052 202.115C401.266 200.85 401.478 199.862 401.634 199.19C401.791 198.518 401.895 198.163 401.917 198.168C401.94 198.173 401.879 198.537 401.764 199.216C401.65 199.895 401.476 200.888 401.299 202.153C401.137 203.415 400.905 204.967 400.992 206.708C401.018 207.138 401.09 207.589 401.278 207.95C401.515 208.326 401.846 208.659 402.225 208.952C402.986 209.535 403.938 209.98 404.943 210.282L405.092 210.326L405.098 210.49C405.146 211.807 405.716 213.263 406.826 214.266C407.918 215.295 409.466 215.856 411.08 216.072L411.174 216.084L411.237 216.163C411.821 216.889 412.543 217.571 413.306 218.191C414.436 219.103 415.657 219.864 416.921 220.44C417.235 220.586 417.552 220.725 417.872 220.843C418.194 220.981 418.504 221.072 418.813 221.142C419.441 221.259 420.089 221.165 420.649 220.902C421.776 220.382 422.533 219.217 422.523 218.075C422.532 216.92 421.805 215.95 421.079 215.18L421.049 215.148L421.037 215.11C420.687 214.079 420.358 213.104 420.058 212.219L419.941 211.872L420.278 212.006C421.586 212.528 422.757 212.995 423.756 213.393L423.905 213.452L423.813 213.588C423.454 214.121 423.332 214.74 423.332 215.249C423.338 215.767 423.464 216.202 423.607 216.533C423.893 217.197 424.159 217.499 424.125 217.521Z" fill="#FF9A6C"/>
<path d="M432.646 204.009C432.639 204.04 432.176 203.971 431.342 203.817C430.425 203.637 429.244 203.404 427.826 203.125C426.315 202.809 424.558 202.442 422.623 202.039C421.642 201.828 420.615 201.609 419.554 201.381C418.494 201.159 417.392 200.873 416.306 201.02C415.208 201.139 414.364 201.903 413.86 202.817C413.341 203.729 413.058 204.744 412.782 205.695C412.253 207.609 411.974 209.386 411.768 210.88C411.569 212.376 411.446 213.593 411.348 214.434C411.253 215.274 411.187 215.739 411.154 215.737C411.122 215.734 411.126 215.265 411.165 214.419C411.206 213.573 411.277 212.349 411.436 210.84C411.6 209.333 411.848 207.534 412.362 205.582C412.631 204.614 412.904 203.579 413.458 202.588C413.738 202.099 414.09 201.619 414.568 201.248C415.039 200.87 415.635 200.632 416.24 200.552C417.463 200.392 418.599 200.706 419.654 200.929C420.713 201.166 421.738 201.394 422.717 201.613C424.644 202.054 426.394 202.455 427.898 202.798C429.303 203.137 430.474 203.419 431.383 203.638C432.203 203.846 432.653 203.977 432.646 204.009Z" fill="#FF9A6C"/>
<path d="M428.361 198.424C428.353 198.456 427.877 198.358 427.025 198.156C426.09 197.931 424.878 197.637 423.422 197.284C421.901 196.922 420.088 196.501 418.059 196.117C417.047 195.929 415.974 195.738 414.87 195.598C413.772 195.469 412.606 195.429 411.524 195.798C410.444 196.171 409.581 196.954 408.954 197.847C408.322 198.743 407.88 199.729 407.521 200.686C406.815 202.617 406.317 204.412 405.961 205.929C405.605 207.448 405.39 208.694 405.246 209.556C405.104 210.419 405.031 210.898 404.995 210.894C404.965 210.892 404.977 210.406 405.063 209.532C405.151 208.659 405.319 207.397 405.634 205.857C405.952 204.317 406.419 202.503 407.112 200.535C407.468 199.554 407.913 198.532 408.576 197.58C409.231 196.633 410.172 195.764 411.37 195.351C412.566 194.944 413.801 195.002 414.925 195.138C416.056 195.288 417.122 195.487 418.142 195.69C420.177 196.099 421.99 196.555 423.504 196.961C425.018 197.367 426.234 197.724 427.073 197.979C427.911 198.234 428.369 198.392 428.361 198.424Z" fill="#FF9A6C"/>
<path d="M438.596 201.373C438.509 201.486 437.201 200.486 435.322 199.826C433.45 199.145 431.804 199.091 431.809 198.948C431.792 198.831 433.514 198.669 435.481 199.381C437.452 200.077 438.683 201.293 438.596 201.373Z" fill="#FF9A6C"/>
<path d="M414.901 191.555C414.898 191.589 414.534 191.585 413.881 191.563C413.228 191.546 412.281 191.494 411.128 191.584C409.986 191.675 408.601 191.941 407.329 192.744C406.699 193.144 406.12 193.687 405.701 194.378C405.273 195.065 404.989 195.875 404.765 196.724C403.932 200.176 403.4 203.372 403.048 205.679C402.892 206.756 402.758 207.671 402.651 208.419C402.556 209.066 402.494 209.425 402.46 209.421C402.428 209.418 402.429 209.055 402.467 208.4C402.505 207.746 402.583 206.8 402.717 205.634C402.987 203.302 403.466 200.099 404.308 196.603C404.538 195.73 404.838 194.875 405.309 194.132C405.77 193.383 406.416 192.791 407.097 192.375C408.474 191.536 409.932 191.303 411.106 191.25C412.292 191.202 413.241 191.307 413.893 191.38C414.546 191.458 414.903 191.524 414.901 191.555Z" fill="#FF9A6C"/>
<path d="M427.767 194.833C427.734 194.959 426.299 194.702 424.562 194.26C422.824 193.816 421.441 193.355 421.473 193.229C421.506 193.103 422.94 193.359 424.679 193.802C426.416 194.244 427.799 194.706 427.767 194.833Z" fill="#FF9A6C"/>
<path d="M405.027 211.953C405.071 212.093 403.138 212.61 401.228 214.076C399.299 215.517 398.277 217.237 398.154 217.157C398.043 217.122 398.923 215.214 400.942 213.7C402.948 212.167 405.023 211.837 405.027 211.953Z" fill="#FF9A6C"/>
<path d="M401.119 208.039C401.149 208.085 400.818 208.4 400.166 208.755C399.519 209.105 398.507 209.45 397.356 209.424C396.208 209.398 395.221 209.062 394.552 208.777C393.881 208.482 393.503 208.232 393.529 208.176C393.587 208.007 395.228 208.864 397.365 208.951C399.522 209 401.046 207.879 401.119 208.039Z" fill="#FF9A6C"/>
<path d="M428.435 219.742C428.44 219.839 426.883 219.769 424.49 220.372C422.118 220.954 418.898 222.377 416.267 225.061C413.639 227.75 412.285 230.999 411.755 233.384C411.204 235.788 411.307 237.344 411.21 237.34C411.183 237.341 411.135 236.958 411.129 236.259C411.122 235.56 411.19 234.545 411.429 233.313C411.885 230.866 413.223 227.5 415.93 224.73C418.64 221.965 421.976 220.555 424.413 220.047C425.639 219.782 426.652 219.692 427.351 219.685C428.05 219.676 428.436 219.715 428.435 219.742Z" fill="#FF9A6C"/>
<path d="M432.747 246.353C432.758 246.404 431.852 246.663 430.341 246.822C428.832 246.984 426.712 246.99 424.423 246.579C422.134 246.162 420.149 245.413 418.794 244.734C417.434 244.056 416.676 243.496 416.704 243.451C416.744 243.384 417.558 243.84 418.932 244.431C420.305 245.023 422.263 245.705 424.506 246.114C426.749 246.516 428.822 246.563 430.316 246.489C431.811 246.418 432.734 246.276 432.747 246.353Z" fill="#FF9A6C"/>
<path d="M399.764 299.323L355.724 265.384C355.724 265.384 347.404 245.695 338.195 245.844V325.948L378.656 350.127C382.083 352.525 397.905 362.159 412.735 364.907C420.798 366.401 432.392 363.185 436.641 356.173C437.863 354.155 441.388 345.381 441.709 342.817C442.992 332.556 445.505 254.268 445.505 254.268L401.444 245.794L399.764 299.323Z" fill="#455A64"/>
<path d="M405.011 348.716C404.997 348.726 404.879 348.579 404.666 348.292C404.428 347.959 404.125 347.538 403.752 347.018C403.553 346.734 403.336 346.425 403.101 346.091C402.874 345.744 402.653 345.351 402.402 344.937C401.917 344.101 401.312 343.175 400.797 342.068C400.524 341.521 400.239 340.949 399.943 340.355C399.651 339.757 399.411 339.106 399.128 338.448C398.539 337.138 398.08 335.674 397.562 334.146C396.637 331.057 395.874 327.58 395.492 323.873C395.154 320.16 395.235 316.6 395.549 313.39C395.764 311.791 395.933 310.266 396.259 308.867C396.411 308.167 396.52 307.481 396.693 306.838C396.87 306.198 397.04 305.583 397.202 304.993C397.494 303.809 397.911 302.784 398.226 301.869C398.393 301.415 398.533 300.987 398.689 300.604C398.856 300.23 399.009 299.885 399.151 299.568C399.416 298.987 399.632 298.516 399.802 298.143C399.956 297.82 400.044 297.654 400.059 297.661C400.074 297.668 400.015 297.848 399.889 298.183C399.741 298.564 399.552 299.045 399.32 299.639C399.191 299.959 399.051 300.308 398.898 300.685C398.755 301.072 398.627 301.502 398.474 301.958C398.185 302.876 397.792 303.901 397.523 305.084C397.371 305.672 397.212 306.285 397.046 306.924C396.885 307.564 396.784 308.245 396.643 308.943C396.335 310.334 396.182 311.848 395.981 313.435C395.694 316.621 395.627 320.147 395.961 323.827C396.339 327.502 397.083 330.949 397.976 334.019C398.479 335.537 398.919 336.995 399.489 338.3C399.762 338.957 399.991 339.607 400.272 340.204C400.557 340.799 400.83 341.37 401.093 341.918C401.585 343.026 402.167 343.957 402.627 344.802C402.866 345.22 403.074 345.618 403.288 345.97C403.51 346.312 403.714 346.627 403.903 346.917C404.245 347.454 404.522 347.892 404.741 348.237C404.931 348.542 405.023 348.707 405.011 348.716Z" fill="#263238"/>
<path d="M347.211 269.094C347.219 269.095 347.219 269.213 347.212 269.445C347.201 269.699 347.185 270.039 347.166 270.472C347.115 271.401 347.041 272.726 346.948 274.418C346.736 277.871 346.432 282.821 346.057 288.927C345.257 301.197 344.155 318.105 342.938 336.78C341.667 355.458 340.516 372.364 339.681 384.631C339.243 390.733 338.887 395.679 338.64 399.129C338.508 400.819 338.405 402.141 338.332 403.069C338.293 403.5 338.264 403.838 338.241 404.092C338.217 404.323 338.202 404.44 338.194 404.44C338.186 404.44 338.186 404.321 338.193 404.09C338.204 403.835 338.219 403.496 338.238 403.062C338.29 402.134 338.363 400.809 338.457 399.117C338.669 395.664 338.973 390.715 339.348 384.609C340.147 372.339 341.25 355.429 342.467 336.747C343.739 318.075 344.89 301.17 345.725 288.903C346.163 282.802 346.518 277.855 346.766 274.406C346.897 272.716 347 271.393 347.073 270.465C347.112 270.034 347.142 269.696 347.165 269.442C347.186 269.211 347.203 269.093 347.211 269.094Z" fill="#263238"/>
<g opacity="0.3">
<path d="M399.883 338.657C397.152 332.092 396.496 329.422 395.667 323.188C394.837 316.954 396.005 307.472 398.409 301.662C390.376 313.158 387.847 329.529 393.255 342.469C393.944 344.118 395.057 345.949 396.84 346.066C398.398 346.169 399.742 344.791 400.142 343.283C400.542 341.776 400.482 340.098 399.883 338.657Z" fill="black"/>
</g>
<path d="M280.629 196.028C283.722 186.895 286.779 177.691 288.255 168.161C289.73 158.632 289.562 148.678 286.314 139.598C285.821 138.222 281.593 128.976 280.136 129.102C279.095 129.192 281.665 137.799 281.128 138.696C276.005 147.251 274.514 157.596 275.193 167.544C275.872 177.492 277.831 186.458 280.629 196.028Z" fill="#263238"/>
<path d="M245.775 113.912L243.538 114.005C221.027 114.935 202.997 132.988 202.115 155.501C201.293 176.447 200.655 199.601 201.256 210.794C202.501 233.968 225.84 236.616 225.84 236.616C225.891 236.616 225.941 246.387 225.941 246.387L249.03 261.754L279.36 229.131L282.034 159.252C283.114 135.091 269.956 114.325 245.775 113.912Z" fill="#FFBF9D"/>
<path d="M225.836 236.615C225.836 236.615 240.486 236.869 255.656 226.443C255.656 226.443 249.114 244.175 225.891 243.043L225.836 236.615Z" fill="#FF9A6C"/>
<path d="M212.809 174.862C212.818 176.613 214.31 178.048 216.14 178.071C217.965 178.093 219.44 176.695 219.429 174.944C219.419 173.193 217.927 171.755 216.101 171.733C214.273 171.71 212.798 173.111 212.809 174.862Z" fill="#263238"/>
<path d="M207.465 165.536C207.893 165.95 210.325 163.99 213.89 163.853C217.447 163.664 220.138 165.389 220.506 164.937C220.687 164.736 220.238 163.973 219.065 163.191C217.91 162.413 215.965 161.688 213.746 161.79C211.526 161.894 209.694 162.788 208.655 163.668C207.594 164.555 207.255 165.351 207.465 165.536Z" fill="#263238"/>
<path d="M244.789 174.862C244.8 176.613 246.291 178.048 248.12 178.071C249.945 178.093 251.42 176.696 251.41 174.944C251.399 173.193 249.908 171.756 248.082 171.734C246.252 171.71 244.778 173.112 244.789 174.862Z" fill="#263238"/>
<path d="M242.426 164.919C242.855 165.334 245.29 163.375 248.851 163.236C252.407 163.047 255.098 164.773 255.467 164.32C255.648 164.119 255.202 163.357 254.025 162.576C252.87 161.796 250.926 161.073 248.706 161.173C246.487 161.279 244.654 162.173 243.615 163.052C242.557 163.938 242.217 164.735 242.426 164.919Z" fill="#263238"/>
<path d="M230.778 192.825C230.786 192.622 228.556 192.331 224.947 192.02C224.034 191.964 223.165 191.819 222.987 191.204C222.745 190.556 223.085 189.56 223.482 188.482C224.247 186.245 225.047 183.9 225.887 181.443C229.216 171.424 231.586 163.202 231.181 163.071C230.776 162.941 227.75 170.955 224.421 180.973C223.622 183.444 222.858 185.797 222.131 188.049C221.83 189.097 221.286 190.295 221.806 191.639C222.079 192.309 222.768 192.775 223.357 192.908C223.948 193.062 224.461 193.051 224.912 193.059C228.531 193.104 230.772 193.028 230.778 192.825Z" fill="#263238"/>
<path d="M240.81 153.822C241.332 154.711 244.749 153.612 248.954 153.348C253.155 152.999 256.696 153.59 257.083 152.634C257.251 152.179 256.506 151.389 254.994 150.715C253.495 150.039 251.211 149.555 248.691 149.737C246.171 149.923 243.983 150.733 242.596 151.62C241.198 152.507 240.577 153.397 240.81 153.822Z" fill="#263238"/>
<path d="M206.867 155.067C207.629 155.856 210.51 154.94 213.999 154.808C217.483 154.573 220.459 155.183 221.117 154.317C221.404 153.899 220.918 153.099 219.607 152.367C218.315 151.636 216.169 151.069 213.772 151.194C211.375 151.321 209.317 152.109 208.124 152.971C206.913 153.835 206.53 154.68 206.867 155.067Z" fill="#263238"/>
<path d="M280.848 176.498C281.236 176.311 296.584 171.128 296.733 187C296.881 202.872 280.916 199.747 280.884 199.292C280.851 198.837 280.848 176.498 280.848 176.498Z" fill="#FFBF9D"/>
<path d="M285.674 193.234C285.743 193.183 285.953 193.425 286.422 193.635C286.879 193.839 287.665 193.976 288.489 193.658C290.16 193.027 291.547 190.351 291.597 187.489C291.624 186.045 291.308 184.672 290.787 183.538C290.291 182.381 289.532 181.577 288.687 181.435C287.845 181.249 287.252 181.76 287.062 182.208C286.854 182.653 286.958 182.97 286.874 182.998C286.83 183.038 286.531 182.735 286.653 182.079C286.715 181.762 286.898 181.386 287.267 181.078C287.645 180.764 288.204 180.601 288.792 180.66C290.017 180.732 291.129 181.848 291.704 183.093C292.346 184.343 292.734 185.886 292.704 187.508C292.633 190.708 291.023 193.716 288.735 194.4C287.621 194.702 286.687 194.374 286.202 194.004C285.707 193.617 285.62 193.263 285.674 193.234Z" fill="#FF9A6C"/>
<path d="M212.371 129.2C209.802 127.784 217.506 119.46 223.818 116.593C233.357 112.259 247.924 109.586 256.723 112.075C267.316 115.073 276.119 120.338 281.44 129.975C286.763 139.612 288.768 150.843 288.466 161.848C288.373 165.206 288.027 168.706 286.234 171.546C284.02 175.057 279.767 177.269 279.956 182.109C280.025 183.878 279.521 185.665 278.31 186.956C275.407 190.048 271.853 187.146 270.218 184.237C266.725 178.022 266.332 170.6 266.022 163.478C265.801 158.415 265.593 153.244 267.017 148.382C267.792 145.736 269.038 143.235 269.665 140.55C270.293 137.864 270.21 134.818 268.537 132.626C268.265 132.27 267.816 131.82 267.247 131.322C262.75 127.385 256.456 126.209 250.823 128.206C241.886 131.373 226.624 136.104 222.635 133.072C216.898 128.711 215.524 125.866 215.524 125.866L212.371 129.2Z" fill="#263238"/>
<path d="M241.966 195.031C241.42 194.997 241.397 198.641 238.265 201.215C235.139 203.797 231.256 203.37 231.225 203.88C231.173 204.108 232.087 204.591 233.727 204.643C235.335 204.705 237.687 204.2 239.603 202.626C241.513 201.047 242.341 198.934 242.472 197.44C242.618 195.916 242.215 195.011 241.966 195.031Z" fill="#263238"/>
</g>
<defs>
<clipPath id="clip0_11869_6623">
<rect width="563" height="537" fill="white"/>
</clipPath>
</defs>
</svg>
