<svg width="244" height="270" viewBox="0 0 244 270" fill="none" xmlns="http://www.w3.org/2000/svg">
<path d="M103.277 148.065C103.277 148.065 52.2704 202.295 106.432 253.373C160.594 304.451 153.81 322.455 147.83 362.679C141.854 402.91 174.905 438.289 220.318 418.186C257.765 401.608 298.431 377.509 283.037 285.155C267.643 192.8 305.835 214.306 329.845 242.44C378.055 298.912 406.53 218.934 351.628 153.167C282.477 70.3302 214.986 29.1589 103.275 148.075L103.277 148.065Z" fill="#ECE9FF"/>
<path d="M43.6937 285.71C90.0212 226.176 110.466 244.849 130.769 218.759C151.072 192.669 80.8182 147.852 97.9364 125.854C115.055 103.856 158.507 160.669 185.181 126.391C211.856 92.1121 176.51 77.7481 188.85 61.8905C201.19 46.0328 234.299 73.4354 255.398 46.3211" stroke="#755AFE" stroke-width="2" stroke-miterlimit="10"/>
<path d="M204.099 80.6254C203.071 78.7086 202.011 76.9417 200.919 75.3066C177.664 40.3742 128.64 67.2547 144.968 105.979C145.73 107.792 146.621 109.658 147.65 111.575C147.65 111.575 171.777 157.824 200.56 142.04C229.344 126.255 204.09 80.6171 204.09 80.6171L204.099 80.6254Z" fill="#F2B999"/>
<path d="M185.42 134.302L254.647 253.366L256.848 251.354L189.229 134.487L185.42 134.302Z" fill="#F2B999"/>
<path d="M202.47 82.0623C201.513 80.2767 200.521 78.623 199.504 77.0911C177.778 44.4791 131.997 69.5853 147.239 105.755C147.949 107.444 148.788 109.186 149.747 110.981C149.747 110.981 172.284 154.18 199.169 139.437C226.054 124.695 202.472 82.0714 202.472 82.0714L202.47 82.0623Z" fill="#FFDFCA"/>
<path d="M192.086 123.096C196.963 120.002 197.704 112.193 197.704 112.193L180.026 123.402C180.026 123.402 187.2 126.191 192.077 123.097L192.086 123.096Z" fill="#722E21"/>
<path d="M176.823 95.6941C176.823 95.6941 181.681 101.59 177.355 107.173C173.501 112.144 180.413 113.484 185.669 110.287" stroke="#722E21" stroke-width="2" stroke-miterlimit="10" stroke-linecap="round"/>
<path d="M159.196 99.8693C159.196 99.8693 159.262 96.7567 162.098 97.2598C164.934 97.763 165.458 103.282 160.514 103.802C155.57 104.322 152.773 97.4212 157.582 94.1648C162.392 90.9084 168.793 94.1603 168.882 101.428C168.972 108.695 159.085 111.703 154.192 107.181C150.155 103.452 148.112 96.0445 154.07 91.4195" stroke="#722E21" stroke-width="2" stroke-miterlimit="10" stroke-linecap="round"/>
<path d="M187.534 85.3954C187.534 85.3954 187.6 82.2828 190.436 82.786C193.272 83.2891 193.796 88.8077 188.852 89.3279C183.907 89.848 181.111 82.9473 185.92 79.6909C190.729 76.4345 197.131 79.6864 197.22 86.9539C197.31 94.2213 187.423 97.2287 182.53 92.707C178.493 88.9786 176.449 81.5707 182.408 76.9456" stroke="#722E21" stroke-width="2" stroke-miterlimit="10" stroke-linecap="round"/>
<g clip-path="url(#clip0_5273_1518)">
<path d="M107.388 213.472C106.099 211.874 104.96 210.293 103.953 208.739C82.4046 175.469 127.358 139.986 155.259 168.235C156.565 169.555 157.862 171.014 159.15 172.612C159.15 172.612 190.513 210.589 164.11 231.422C137.716 252.256 107.388 213.472 107.388 213.472Z" fill="#9DBC50"/>
<path d="M165.284 216.546L243.291 322.598L240.504 323.962L163.803 220.167L165.284 216.546Z" fill="#9DBC50"/>
<path d="M109.375 212.482C108.175 210.988 107.106 209.512 106.168 208.061C86.0397 176.989 128.032 143.85 154.084 170.233C155.302 171.466 156.52 172.829 157.72 174.323C157.72 174.323 187.006 209.79 162.356 229.251C137.706 248.713 109.375 212.49 109.375 212.49V212.482Z" fill="#BCD574"/>
<path d="M146.408 188.513C143.412 188.513 140.984 186.106 140.984 183.138C140.984 180.169 143.412 177.762 146.408 177.762C149.404 177.762 151.832 180.169 151.832 183.138C151.832 186.106 149.404 188.513 146.408 188.513Z" fill="#722E21"/>
<path d="M121.906 208.07C118.91 208.07 116.482 205.664 116.482 202.695C116.482 199.726 118.91 197.319 121.906 197.319C124.902 197.319 127.33 199.726 127.33 202.695C127.33 205.664 124.902 208.07 121.906 208.07Z" fill="#722E21"/>
<path d="M148.783 212.343C153.34 208.748 160.631 210.302 160.631 210.302L144.13 223.328C144.13 223.328 144.227 215.938 148.783 212.343Z" fill="#722E21"/>
<path d="M132.536 193.68C132.536 193.68 135.831 200.228 142.675 198.248C148.782 196.485 147.091 203.294 142.009 206.967" stroke="#722E21" stroke-width="2" stroke-miterlimit="10" stroke-linecap="round"/>
</g>
<defs>
<clipPath id="clip0_5273_1518">
<rect width="145" height="166" fill="white" transform="matrix(-1 0 0 1 243.291 157.962)"/>
</clipPath>
</defs>
</svg>
