<svg width="277" height="202" viewBox="0 0 277 202" fill="none" xmlns="http://www.w3.org/2000/svg">
<path d="M101.996 89.4544C101.996 89.4544 37.752 126.28 75.7677 204.522C113.783 282.763 102.239 299.315 85.2942 340.205C68.3516 381.103 90.38 433.395 139.746 431.04C180.453 429.095 226.353 420.403 237.183 314.108C248.013 207.813 278.852 247.314 294.178 287.929C324.957 369.46 374.637 295.226 339.991 200.807C296.353 81.8798 242.734 8.6558 101.992 89.4646L101.996 89.4544Z" fill="#FFF3E9"/>
<path d="M210.954 73.0422C209.986 71.0735 208.97 69.2446 207.911 67.565C185.393 31.5712 130.504 58.5608 145.26 98.3714C145.953 100.231 146.772 102.156 147.74 104.125C147.74 104.125 170.363 151.72 202.593 135.872C234.824 120.024 210.944 73.0468 210.944 73.0468L210.954 73.0422Z" fill="#E86B00"/>
<path d="M187.623 130.171L255.157 253.878L257.74 251.816L191.803 130.409L187.623 130.171Z" fill="#E86B00"/>
<path d="M209.081 74.5108C208.178 72.6734 207.222 70.9664 206.242 69.3994C185.217 35.7796 133.946 60.9899 147.734 98.1683C148.381 99.9106 149.145 101.7 150.048 103.538C150.048 103.538 171.183 147.988 201.276 133.191C231.378 118.389 209.072 74.5154 209.072 74.5154L209.081 74.5108Z" fill="#FFB43A"/>
<path d="M159.854 100.473C159.216 99.5529 158.812 98.5177 158.468 97.4408C158.158 96.3595 157.979 95.2136 158.033 94.0226C158.088 92.8316 158.358 91.5813 158.996 90.4176C159.672 89.2587 160.725 88.322 161.897 87.699C163.106 87.1511 164.486 86.88 165.821 87.0617C167.142 87.2621 168.297 87.8117 169.273 88.4956C170.25 89.1796 171.048 90.0212 171.715 90.9273C172.367 91.8521 172.931 92.8089 173.27 93.8764C171.498 92.5705 169.796 91.3584 168.054 90.632C167.183 90.2805 166.334 90.0459 165.54 90.0173C164.746 90.012 164.011 90.1986 163.289 90.5069C162.591 90.8853 162.004 91.3486 161.523 91.9808C161.061 92.6272 160.719 93.4472 160.474 94.3472C159.976 96.1754 159.897 98.2632 159.859 100.459L159.854 100.473Z" fill="#722E21"/>
<path d="M200.672 80.4022C198.91 79.0917 197.208 77.8796 195.456 77.1578C194.585 76.8063 193.736 76.5717 192.942 76.5431C192.148 76.5378 191.413 76.7245 190.696 77.0421C190.002 77.4299 189.411 77.8838 188.935 78.5254C188.472 79.1717 188.14 79.9871 187.886 80.8918C187.398 82.7153 187.318 84.8032 187.271 87.0034C186.632 86.0834 186.219 85.0529 185.885 83.9714C185.574 82.8901 185.395 81.7442 185.45 80.5532C185.504 79.3622 185.774 78.1119 186.422 76.9435C187.098 75.7847 188.151 74.8479 189.323 74.225C190.532 73.6771 191.917 73.4153 193.247 73.5877C194.568 73.788 195.723 74.3377 196.69 75.0262C197.667 75.7102 198.465 76.5518 199.131 77.4579C199.779 78.3733 200.357 79.3349 200.686 80.407L200.672 80.4022Z" fill="#722E21"/>
<path d="M168.032 109.362C170.849 113.623 174.963 116.664 179.533 117.979C184.098 119.285 189.04 118.869 193.212 116.771C197.407 114.743 200.753 111.084 202.506 106.671C204.255 102.249 204.359 97.1339 202.719 92.3061C205.568 96.5626 206.376 102.301 204.828 107.462C204.091 110.06 202.739 112.471 201.001 114.571C199.239 116.648 197.028 118.352 194.595 119.584C192.134 120.759 189.438 121.479 186.713 121.596C183.989 121.69 181.254 121.289 178.756 120.282C173.723 118.356 169.663 114.218 168.041 109.357L168.032 109.362Z" fill="#722E21"/>
<path d="M180.294 88.1766C180.294 88.1766 185.154 94.3433 180.117 100.033C175.636 105.1 183.008 106.598 188.892 103.39" stroke="#722E21" stroke-width="2" stroke-miterlimit="10" stroke-linecap="round"/>
<path d="M101.171 157.271C100.41 155.952 99.7472 154.659 99.1873 153.399C87.1236 126.498 123.907 105.261 141.173 129.159C141.978 130.277 142.772 131.494 143.534 132.813C143.534 132.813 162.25 164.259 140.651 176.729C119.052 189.199 101.178 157.268 101.178 157.268L101.171 157.271Z" fill="#722E21"/>
<path d="M143.146 165.889L188.418 252.659L186.23 253.353L141.668 168.393L143.146 165.889Z" fill="#722E21"/>
<path d="M102.743 156.758C102.032 155.526 101.416 154.315 100.891 153.144C89.6199 128.022 123.978 108.185 140.1 130.507C140.855 131.554 141.592 132.686 142.303 133.918C142.303 133.918 159.78 163.289 139.614 174.932C119.441 186.579 102.749 156.754 102.749 156.754L102.743 156.758Z" fill="#FD7E14"/>
<path d="M136.745 138.391C136.461 137.667 136.02 137.034 135.532 136.42C135.028 135.823 134.436 135.277 133.728 134.848C133.019 134.419 132.194 134.092 131.276 134.01C130.346 133.952 129.399 134.198 128.586 134.633C127.803 135.119 127.113 135.81 126.702 136.651C126.307 137.49 126.178 138.369 126.195 139.197C126.212 140.024 126.389 140.81 126.654 141.545C126.936 142.279 127.27 142.974 127.755 143.582C127.686 142.055 127.645 140.605 127.899 139.319C128.033 138.68 128.225 138.1 128.516 137.631C128.82 137.17 129.211 136.819 129.668 136.521C130.156 136.265 130.651 136.105 131.201 136.072C131.753 136.055 132.358 136.175 132.971 136.382C134.219 136.801 135.454 137.562 136.735 138.389L136.745 138.391Z" fill="#722E21"/>
<path d="M109.391 154.184C109.316 152.661 109.274 151.211 109.535 149.921C109.669 149.283 109.861 148.703 110.152 148.233C110.455 147.773 110.847 147.421 111.307 147.13C111.799 146.88 112.29 146.714 112.844 146.687C113.396 146.67 113.994 146.794 114.614 146.997C115.855 147.42 117.091 148.181 118.378 149.004C118.094 148.28 117.66 147.643 117.165 147.032C116.661 146.435 116.069 145.889 115.361 145.46C114.652 145.032 113.827 144.704 112.902 144.626C111.973 144.568 111.025 144.814 110.213 145.249C109.43 145.735 108.743 146.433 108.329 147.267C107.934 148.106 107.805 148.985 107.828 149.809C107.845 150.637 108.022 151.423 108.288 152.158C108.565 152.885 108.897 153.59 109.388 154.194L109.391 154.184Z" fill="#722E21"/>
<path d="M138.713 146.545C140.082 149.817 140.247 153.366 139.239 156.511C138.228 159.649 136.079 162.339 133.256 163.935C130.465 165.572 127.061 166.088 123.838 165.394C120.61 164.694 117.619 162.778 115.468 159.965C116.822 163.254 119.821 165.938 123.397 167.039C125.18 167.618 127.094 167.77 128.977 167.579C130.856 167.365 132.694 166.748 134.345 165.82C135.973 164.854 137.431 163.577 138.551 162.051C139.658 160.515 140.484 158.782 140.868 156.952C141.702 153.304 140.884 149.362 138.706 146.549L138.713 146.545Z" fill="#722E21"/>
<path d="M121.752 145.431C121.752 145.431 123.432 150.618 128.661 149.911C133.316 149.284 131.331 154.116 127.206 156.271" stroke="#722E21" stroke-width="2" stroke-miterlimit="10" stroke-linecap="round"/>
<circle cx="69.5464" cy="156.362" r="8.22797" transform="rotate(-22.5402 69.5464 156.362)" fill="#FD7E14"/>
<circle cx="49.3982" cy="145.634" r="6.26893" transform="rotate(-22.5402 49.3982 145.634)" fill="#FD7E14"/>
<circle cx="62.0848" cy="125.097" r="3.13446" transform="rotate(-22.5402 62.0848 125.097)" fill="#FD7E14"/>
<circle cx="198.847" cy="22.2717" r="10.5" transform="rotate(134.444 198.847 22.2717)" fill="#FD7E14"/>
<circle cx="227.865" cy="24.8182" r="8" transform="rotate(134.444 227.865 24.8182)" fill="#FD7E14"/>
<circle cx="223.213" cy="55.2703" r="4" transform="rotate(134.444 223.213 55.2703)" fill="#FD7E14"/>
</svg>
