<svg width="1024" height="1024" viewBox="0 0 1024 1024" fill="none" xmlns="http://www.w3.org/2000/svg">
<g clip-path="url(#clip0_1497_13059)">
<circle cx="512" cy="512" r="512" fill="#FF6033"/>
<path d="M660.662 870.162C653.811 870.162 648.257 864.608 648.257 857.757V681.54C648.257 674.689 653.811 669.135 660.662 669.135H689.992C696.843 669.135 702.397 674.689 702.397 681.54V697.248C702.397 697.391 702.513 697.507 702.656 697.507V697.507C702.752 697.507 702.841 697.453 702.886 697.368C708.299 687.024 716.326 678.933 726.968 673.094C737.657 667.082 750.497 664.076 765.49 664.076C784.647 664.076 799.987 669.721 811.509 681.012C823.17 692.302 829 710.924 829 736.877V857.757C829 864.608 823.446 870.162 816.595 870.162H786.432C779.581 870.162 774.027 864.608 774.027 857.757V747.214C774.027 733.285 771.182 723.387 765.49 717.522C759.937 711.51 752.094 708.504 741.96 708.504C733.353 708.504 725.649 711.217 718.847 716.642C712.794 721.57 707.945 727.828 704.297 735.417C703.563 736.946 703.229 738.632 703.229 740.328V857.757C703.229 864.608 697.676 870.162 690.825 870.162H660.662Z" fill="white"/>
<path d="M421.388 772.727V765.689C421.388 735.044 430.55 710.337 448.874 691.569C467.337 672.8 491.908 663.416 522.587 663.416C553.266 663.416 577.768 672.8 596.092 691.569C614.416 710.337 623.578 735.044 623.578 765.689V772.727C623.578 803.519 614.416 828.299 596.092 847.068C577.768 865.689 553.266 875 522.587 875C491.769 875 467.198 865.689 448.874 847.068C430.55 828.299 421.388 803.519 421.388 772.727ZM477.193 764.149V774.047C477.193 791.349 481.011 805.499 488.646 816.496C496.42 827.493 507.664 832.991 522.379 832.991C537.372 832.991 548.685 827.493 556.32 816.496C564.094 805.499 567.981 791.349 567.981 774.047V764.149C567.981 746.847 564.094 732.844 556.32 722.141C548.685 711.437 537.372 706.085 522.379 706.085C507.664 706.085 496.42 711.437 488.646 722.141C481.011 732.844 477.193 746.847 477.193 764.149Z" fill="white"/>
<path d="M306.039 870.161C299.189 870.161 293.635 864.608 293.635 857.757V681.539C293.635 674.688 299.189 669.135 306.039 669.135H336.619C343.47 669.135 349.024 674.688 349.024 681.539V697.154C349.024 697.228 349.083 697.287 349.156 697.287V697.287C349.203 697.287 349.247 697.262 349.271 697.222C354.818 687.868 361.954 680.265 370.68 674.413C379.425 668.401 389.629 665.396 401.289 665.396C405.038 665.396 408.716 665.689 412.326 666.275V666.275C416.941 666.838 419.822 670.837 419.822 675.487V702.192C419.822 706.778 415.212 710.159 410.66 709.604V709.604C407.05 709.017 403.094 708.724 398.791 708.724C389.49 708.724 380.328 711.95 371.304 718.402C363.16 724.181 356.532 731.748 351.421 741.101C350.498 742.79 350.065 744.697 350.065 746.621V857.757C350.065 864.608 344.511 870.161 337.66 870.161H306.039Z" fill="white"/>
<path d="M214.518 870.161C207.667 870.161 202.114 864.607 202.114 857.757V681.539C202.114 674.688 207.667 669.134 214.518 669.134H245.723C252.574 669.134 258.127 674.688 258.127 681.539V857.757C258.127 864.607 252.574 870.161 245.723 870.161H214.518ZM198.157 595.894C198.157 587.243 200.934 579.911 206.486 573.899C212.039 567.888 219.952 564.882 230.225 564.882C240.497 564.882 248.341 567.814 253.754 573.68C259.168 579.545 261.875 586.949 261.875 595.894C261.875 604.545 259.099 611.949 253.546 618.108C247.993 624.266 240.081 627.345 229.808 627.345C219.535 627.345 211.692 624.266 206.278 618.108C200.864 611.949 198.157 604.545 198.157 595.894Z" fill="white"/>
<path d="M513.283 391.385V382.668C513.283 343.989 525.904 313.209 551.145 290.329C576.386 267.448 610.344 256.008 653.018 256.008C694.785 256.008 726.926 267.085 749.444 289.239C771.961 311.212 783.22 341.447 783.22 379.944V396.459C783.22 400.878 779.638 404.459 775.22 404.459H570.041C565.622 404.459 562.041 400.878 562.041 396.459V366.971C562.041 362.552 565.622 358.971 570.041 358.971H691.425C692.328 358.971 693.059 358.239 693.059 357.336V357.336C693.059 346.441 689.7 337.452 682.981 330.37C676.444 323.288 666.184 319.747 652.201 319.747C637.129 319.747 625.689 325.013 617.88 335.545C610.253 346.078 606.44 358.426 606.44 372.59V391.93C606.44 412.086 610.617 427.612 618.97 438.508C627.505 449.222 639.581 454.579 655.197 454.579C667.001 454.579 676.716 452.309 684.343 447.769C690.336 444.145 695.26 439.505 699.113 433.849C701.195 430.794 704.853 429.039 708.447 429.903L772.883 445.403C777.523 446.52 780.184 451.439 778.209 455.784C769.767 474.358 756.819 489.119 739.365 500.068C719.39 512.598 691.607 518.863 656.015 518.863C610.617 518.863 575.479 507.513 550.6 484.814C525.722 462.115 513.283 430.972 513.283 391.385Z" fill="white"/>
<path d="M298 513C293.582 513 290 509.418 290 505V124C290 119.582 293.582 116 298 116H499C503.418 116 507 119.582 507 124V184.891C507 189.31 503.418 192.891 499 192.891H384.888C380.47 192.891 376.888 196.473 376.888 200.891V274.598C376.888 279.016 380.47 282.598 384.888 282.598H476.091C480.509 282.598 484.091 286.18 484.091 290.598V344.673C484.091 349.091 480.509 352.673 476.091 352.673H384.888C380.47 352.673 376.888 356.255 376.888 360.673V505C376.888 509.418 373.306 513 368.888 513H298Z" fill="white"/>
</g>
<defs>
<clipPath id="clip0_1497_13059">
<rect width="1024" height="1024" fill="white"/>
</clipPath>
</defs>
</svg>
