<?xml version="1.0" encoding="utf-8"?>
<svg version="1.1" id="Layer_1" xmlns="http://www.w3.org/2000/svg" xmlns:xlink="http://www.w3.org/1999/xlink" x="0px" y="0px"
	 viewBox="0 0 1920 1080" style="enable-background:new 0 0 1920 1080;" xml:space="preserve">
<style type="text/css">
	.st0{fill:#2486D7;}
	.st1{fill:#E55A51;}
</style>
	<path class="st0" d="M321.1,689.9c35.3,1.8,70.6,0.8,105.9-0.1c24.8-0.6,49.5-2.3,74.3-3.7c21.6-1.2,43.1-2.5,64.6-4.2
		c18.7-1.5,37.3-3.8,55.9-5.8c15.7-1.7,31.3-3.6,46.9-5.1c15.1-1.5,29.7-5.1,44.5-8.1c16.7-3.4,33.2-7.6,49.7-11.9
		c18.7-4.9,34.4-15.3,46.8-29.8c14.4-16.9,14.1-41.5-10.9-53c-6.2-2.9-12.6-5.4-19.1-7.5c-20-6.3-40.5-10.6-61.4-12.8
		c-22.3-2.3-44.7-3.7-67.1-5c-28.9-1.8-57.9-1.4-86.9-2.1c-17.1-0.4-34.3-0.7-51.4-1.8c-30.7-1.9-61.5-3.4-91.4-11.2
		c-25.5-6.7-48-18.4-65.3-38.9c-16.7-19.7-17.7-46-2.6-67.1c11.3-15.8,26.5-27.2,42.8-36.9c44.3-26.1,92.8-39.9,143.2-47.9
		c22.2-3.5,44.5-4,66.7-2.8c20,1.1,39.8,4.3,59.3,9.5c13.7,3.6,27.4,6.6,39.5,14.4c16.5,10.5,27.2,24.5,25.6,45.1
		c-1.1,13.4-8.8,23.6-18.7,31.8c-14.8,12.3-32.8,17.8-51,23.3c-18.7,5.6-37.8,7.5-57.1,9c-18.3,1.4-36.5,0.5-54.7-1.3
		c-5.2-0.5-10.3-2.4-14.3-6.2c-2.7-2.5-2.4-4.5,0.5-6.4c1.8-1.2,3.6-2.4,5.6-3.2c12.9-5.8,26.2-10.4,40.1-13
		c13.7-2.6,27.1-6.3,40.6-9.5c13.4-3.2,26.3-7.6,38.8-13.5c10.6-5,12.5-14.4,5.1-23.3c-6-7.1-14.2-8.2-22.2-9.6
		c-18.3-3.1-36.8-5.2-55.5-4.2c-18.4,1-36.8,1.3-55.1,3.6c-36.7,4.7-70.5,17.1-101.6,36.6c-11.7,7.4-23.2,15.6-28.9,29.4
		c-3.7,9-2.4,16.8,4.9,23.4c8.3,7.4,18.1,11.8,28.5,14.6c17.1,4.6,34.5,8.3,52.1,10c19.2,1.8,38.5,2.4,57.8,2.2
		c26.7-0.3,53.3-0.3,80,0.1c15.3,0.3,30.5,2.3,45.8,2.5c20.9,0.3,41.6,2.4,62.1,5.3c35.2,5,69.7,12.5,101.5,29.5
		c26.2,14,40.5,35.8,41.4,65.2c0.5,16.7-5.6,32.3-15.6,46c-14.5,20-35.3,31-57.3,40.1c-18.3,7.6-37.8,10.6-57,14.9
		c-23.5,5.4-47.3,9.4-71.1,13.2c-19.1,3.1-38.3,5.4-57.6,7.7c-12.7,1.5-25.5,2.1-38.2,3.2c-35,3.1-70.1,4.2-105.2,3.7
		c-25.1-0.3-50.3-1.2-75.3-3.1c-25.4-1.9-50.8-4.8-76.1-7.9c-18.2-2.3-36.3-5.6-54.4-8.9c-6.1-1.1-12-3.6-18-5.6
		c-3.4-1.1-6.1-3.4-8.2-6.2c-2.3-3-1.4-5.3,2.2-6.1c3.9-0.9,7.8-1.1,11.8-1.1C278.1,689.9,299.6,689.9,321.1,689.9z"/>
	<path class="st0" d="M920.8,681.6c0-16,0-32,0-48c0-8.6,2-10.7,10.5-10.7c22.2,0.1,44.3-0.3,66.5,0.4c14.1,0.4,28.3,0.9,42.4,0.5
		c10.5-0.3,20.9-1.7,30-7.9c11.1-7.5,18.1-25,9.2-40.1c-7.9-13.4-19.8-19.3-34.6-19.8c-13.3-0.4-26.6,0.4-39.8-0.2
		c-24.8-1.1-49.6-0.3-74.4-0.8c-7.5-0.2-11.4-4-11.4-11.5c-0.1-9.8-0.1-19.7-0.1-29.5c0-6.5,2.9-9.7,9.6-9.9
		c6.8-0.2,13.7-0.1,20.5-0.1c17.8,0,35.7-0.5,53.5,0.2c17.1,0.7,34.4-0.7,51.4,1.1c30,3.2,54.6,16.8,70,43.6
		c14.8,25.9,16.1,53.1,1.7,79.5c-14.6,26.8-38.3,40.6-68.8,41.5c-24.8,0.7-49.6,0.3-74.5,0c-5.2-0.1-6.6,1.7-6.5,6.6
		c0.2,18,0.1,36,0.2,54c0,7.9-3,11.3-11,11.4c-11,0.2-22,0.1-33,0.1c-7.9,0-10.9-3-11-10.9c-0.1-16.5,0-33,0-49.5
		C921,681.6,920.9,681.6,920.8,681.6z"/>
	<path class="st0" d="M1543.3,515.2c0,6-0.6,12-0.6,18c0,4.7-1.9,7.5-7,8.7c-32.8,8-52.3,29.3-59,61.8c-5.2,25.1,2.3,47.3,18.8,66.6
		c10.7,12.4,24.5,19.7,40.1,23.6c5.5,1.4,7.3,4.5,7.3,9.6c0,12.7,0,25.3,0,38c0,5.7-1.7,7.6-7.5,7.2c-16.9-1.2-32.6-6.4-47.5-14.3
		c-49.7-26.4-76.7-78.6-69.7-134.3c7.1-56.9,54-104.5,110.9-113.1c12.9-2,14.2,1.9,14.2,13.2
		C1543.3,505.2,1543.3,510.2,1543.3,515.2L1543.3,515.2z"/>
	<path class="st0" d="M1284.5,743.9c-30,0-60,0-90,0c-7.8,0-10.5-2.8-10.5-10.6c0-10.2,0-20.3,0-30.5c0-7.1,2.8-9.8,10.1-9.9
		c10.2,0,20.3,0,30.5,0c49,0,98,0,147,0c11,0,14.3,3.3,14.4,14.3c0.1,8.7,0.1,17.3,0.1,26c0,7.6-3.1,10.7-10.5,10.7
		C1345.1,744,1314.8,744,1284.5,743.9C1284.5,744,1284.5,743.9,1284.5,743.9z"/>
	<path class="st0" d="M1284.4,552.6c-28.8,0-57.6,0-86.4,0c-2.2,0-4.3-0.2-6.5-0.5c-4.7-0.5-7.7-3.2-8.5-7.7
		c-2-11.6-1.3-23.2,0.1-34.8c0.4-3.3,3-5.5,6.2-6.6c2.5-0.8,5.2-1.1,7.9-1.1c56.8,0,113.6,0,170.4,0c2.2,0,4.3,0,6.5,0.3
		c8.4,1.1,10.9,4,10.9,12.4c0,8.5,0.1,17,0,25.5c-0.1,8.2-4.5,12.6-12.7,12.6c-29.3,0-58.6,0-87.9,0
		C1284.4,552.8,1284.4,552.7,1284.4,552.6z"/>
	<path class="st0" d="M1276.3,652c-27.2,0-54.3,0-81.5,0c-11.2,0-12.8-1.5-12.9-12.5c0-10.5-0.1-21,0-31.5c0.1-7.4,2.6-10,9.9-10
		c55.3,0,110.6,0,166,0c8.5,0,14.7,5.7,15,14.1c0.3,9.7,0.2,19.3-0.1,29c-0.2,6.4-5.5,10.8-12.5,10.9
		C1332.3,652,1304.3,652,1276.3,652z"/>
	<path class="st1" d="M1153.5,323c10,0,20,0,30,0c21.2,0,41.2,17.1,44.5,38c2.9,18.1-3.5,32.4-18.1,43.1c-3.7,2.7-4.4,4.7-1.6,8.8
		c7.7,11.1,14.8,22.6,22.1,34c1.9,3.1,3.8,6.2,1.7,10.2c-2.1,3.9-5.6,4.2-9.4,4c-2.8-0.1-5.7-0.4-8.5,0.1
		c-7.9,1.3-12.4-2.5-16.2-9.1c-6.8-11.9-14.5-23.4-21.8-35.1c-1.3-2-2.8-3.2-5.2-3.2c-8.3-0.2-16.6-0.3-25-0.6
		c-3.4-0.1-4.2,1.2-4.1,4.4c0.2,11.2,0.1,22.3,0.1,33.5c0,7.1-2.1,9.1-9.2,9.1c-3.5,0-7-0.2-10.5,0c-5,0.3-7.2-2.6-7.3-6.9
		c-0.2-21-0.2-42,0-63c0-4.9,3.6-6.2,7.9-6.2c19.8,0,39.7,0.1,59.5,0c5.3,0,10.6-1.3,13.3-6.2c3.1-5.6,3.7-11.7,0.1-17.5
		c-3.3-5.3-8.6-7.2-14.4-7.2c-18.8-0.1-37.7,0-56.5-0.1c-2.3,0-4.6-0.2-6.9-0.5c-3.3-0.5-4.9-2.6-5-5.8c-0.1-5.5-0.2-11,0-16.5
		c0.2-4.5,3.4-7.1,8.5-7.1C1132.2,323,1142.8,323,1153.5,323z"/>
	<path class="st1" d="M1017.4,368.6c-5.4,12.8-10.3,24.6-15.3,36.3c-2.1,4.9-3.9,9.9-6.1,14.7c-1.8,4-4.4,6.8-9.5,6.4
		c-4.3-0.3-8.7,0-13,0c-7.6-0.1-10.7-4.5-7.8-11.4c3.9-9.3,7.9-18.6,11.8-28c7.8-18.4,15.5-36.7,23.2-55.1c2.7-6.4,4.2-7.5,11.2-7.5
		c3.5,0,7,0.3,10.5-0.1c5.2-0.6,7.9,1.9,10,6.3c18.3,38.7,35.6,77.9,53.2,116.8c3.5,7.7-0.1,12.7-8.5,12.8
		c-39.8,0.1-79.6,0-119.4,0.3c-8.2,0.1-10-4.2-7.2-10.7c1.7-4,3.8-7.8,5.4-11.8c1.8-4.3,4.9-5.7,9.4-5.7c24.1,0.1,48.3,0,72.5,0
		c7.2,0,7.4-0.4,4.5-6.9C1034.1,406.7,1025.9,388.1,1017.4,368.6z"/>
	<path class="st1" d="M891.1,376.5c-3.1,3.9-7.6,8.8-10.6,12.8c-6.2,8.2-12.4,16.5-18.5,24.7c-4.9,6.7-7.3,6.7-12.5,0.3
		c-17.3-21.3-34.6-42.6-52-63.9c-2.4-3-4.5-6.2-7-9.1c-2.8-3.4-3-7.2-2.6-11.2c0.4-3.1,1.9-4.9,5.5-5c18.3-0.6,18.3-0.6,29.8,13.3
		c9.4,11.5,18.8,22.9,28,34.5c2.7,3.5,4.1,3.1,6.4-0.2c10.6-14.8,21.5-29.5,32.2-44.3c0.2-0.3,0.3-0.6,0.5-0.9
		c3.3-4.1,23.6-5,27.3-1.2c1.7,1.8,2.3,3.9,2.3,6.4c0,40.3,0,80.6,0,120.9c0,5.6-1.5,7.1-7.1,7.4c-5.2,0.2-10.3,0-15.5,0.2
		c-4.4,0.2-6.1-2.1-6.2-5.9c-0.2-4.3-0.1-8.7-0.1-13c0-19.2,0.1-38.3,0.1-57.5c0-2.1,0-5.9,0-8C891.1,376.6,891.1,376.5,891.1,376.5
		z"/>
	<path class="st0" d="M1652.1,594.9c-7.3,0.2-14.6,1.3-21.9,0.7c-3.7-0.3-5.8-2-7.1-5.3c-10.5-26.9-30.5-42.8-58.3-49.1
		c-4.9-1.1-7.1-3.3-7-8.4c0.2-12.5,0-25,0-37.4c0-7.8,2.6-9.9,10.7-8.7c24.1,3.4,45.7,12.4,64.8,27.6c22.7,18.1,38.1,41,45.7,69
		c2.4,8.9,0,11.8-9,11.7C1664.1,594.8,1658.1,594.9,1652.1,594.9z"/>
	<path class="st0" d="M1557.1,722.4c0-5.3,0.1-10.6,0-15.9c-0.1-8.5,1.3-10.3,9.6-12.3c15.7-3.8,29.5-11,40.5-22.9
		c3.7-4,7-8.4,10.2-12.8c1.8-2.4,3.9-3.4,6.7-3.4c15.3,0,30.6-0.1,45.9,0c5.5,0,7.1,3,5.1,9c-2.7,8.1-6.5,15.7-11.1,22.8
		c-22,34.4-53.3,54.8-93.6,61.5c-2,0.3-4,0.3-6,0.3c-4.9,0-7.3-2.3-7.4-7.2C1557,735.1,1557.1,728.8,1557.1,722.4z"/>
	<path class="st1" d="M1297,392c0-20.5,0-41,0-61.4c0-6.7,1.8-8.5,8.6-8.5c18.5,0,37,0,55.4,0c6,0,7.8,1.7,7.9,7.6
		c0.1,4.8,0.1,9.7,0,14.5c-0.1,4.8-2.2,6.9-7.1,6.9c-10.3,0.1-20.7,0.2-31-0.1c-4.1-0.1-5,1.3-5,5.1c0.1,32.5,0.1,64.9,0.1,97.4
		c0,7.8-0.8,8.6-8.5,8.6c-4.5,0-9,0.1-13.5,0c-5.9-0.1-7-1.2-7-7C1296.9,434,1296.9,413,1297,392C1296.9,392,1296.9,392,1297,392z"
		/>
	<path class="st1" d="M789,436.6c0-5-0.1-10,0-15c0.2-5.9,2.7-8.4,8.5-8.5c3.5-0.1,7-0.2,10.5-0.1c5.1,0.2,7.8,2.7,7.8,7.7
		c0.2,10.5,0.2,20.9-0.1,31.4c-0.2,6.5-2.6,8.6-9,8.7c-3.2,0.1-6.3,0.1-9.5,0c-5.5-0.1-8.2-2.7-8.3-8.3
		C788.9,447.2,789,441.9,789,436.6z"/>
	<path class="st1" d="M1268.5,350.7c-3.3,0-6.6,0.1-10,0c-3.5-0.1-5.5-1.9-5.5-5.6c0-5.3,0-10.6,0-16c-0.1-3.8,2.2-5.7,5.4-5.9
		c7.3-0.3,14.6-0.2,21.9,0c3.7,0.1,5.6,2.6,5.6,6.3c0.1,4.8,0.1,9.6,0,14.5c-0.1,5-2,6.9-7,7c-3.5,0.1-7,0-10.5,0
		C1268.5,350.8,1268.5,350.7,1268.5,350.7z"/>
</svg>
