<svg width="110" height="38" viewBox="0 0 110 38" fill="none" xmlns="http://www.w3.org/2000/svg">
<path d="M8.36031 30.2239C10.9512 30.3556 13.5421 30.2824 16.133 30.2166C17.9533 30.1726 19.7662 30.0482 21.5864 29.9458C23.1718 29.858 24.7498 29.7628 26.3278 29.6384C27.7003 29.5286 29.0655 29.3603 30.4307 29.2139C31.583 29.0895 32.728 28.9505 33.873 28.8407C34.9813 28.7309 36.0529 28.4674 37.1392 28.2479C38.3649 27.9991 39.5759 27.6917 40.787 27.377C42.1595 27.0184 43.3118 26.2572 44.2219 25.1961C45.2789 23.9592 45.2568 22.1589 43.4219 21.3172C42.9669 21.105 42.4971 20.922 42.02 20.7684C40.5521 20.3073 39.0475 19.9926 37.5135 19.8316C35.8767 19.6633 34.2326 19.5608 32.5886 19.4657C30.4674 19.3339 28.3389 19.3632 26.2104 19.312C24.9553 19.2827 23.6929 19.2607 22.4378 19.1802C20.1845 19.0412 17.9239 18.9314 15.7293 18.3606C13.8577 17.8702 12.2063 17.014 10.9365 15.5137C9.71081 14.0719 9.63741 12.1471 10.7457 10.6029C11.5751 9.4466 12.6907 8.61229 13.8871 7.9024C17.1386 5.99226 20.6983 4.98231 24.3975 4.39683C26.0269 4.14068 27.6636 4.10409 29.293 4.19191C30.761 4.27241 32.2142 4.50661 33.6455 4.88717C34.651 5.15064 35.6565 5.37019 36.5446 5.94103C37.7557 6.70948 38.541 7.73407 38.4236 9.24169C38.3429 10.2224 37.7777 10.9689 37.0511 11.569C35.9648 12.4692 34.6437 12.8717 33.3078 13.2742C31.9353 13.684 30.5335 13.8231 29.1169 13.9329C27.7737 14.0353 26.4379 13.9694 25.1021 13.8377C24.7204 13.8011 24.3461 13.6621 24.0525 13.384C23.8544 13.201 23.8764 13.0546 24.0892 12.9156C24.2213 12.8278 24.3535 12.7399 24.5002 12.6814C25.4471 12.2569 26.4232 11.9203 27.4434 11.73C28.449 11.5397 29.4325 11.2689 30.4234 11.0347C31.4069 10.8005 32.3537 10.4785 33.2711 10.0467C34.0492 9.6808 34.1886 8.99286 33.6455 8.34151C33.2051 7.82189 32.6032 7.74139 32.0161 7.63893C30.6729 7.41206 29.3151 7.25837 27.9426 7.33155C26.5921 7.40474 25.2415 7.42669 23.8984 7.59502C21.2047 7.93899 18.7239 8.84649 16.4413 10.2736C15.5825 10.8152 14.7385 11.4153 14.3201 12.4252C14.0486 13.0839 14.144 13.6548 14.6798 14.1378C15.289 14.6793 16.0082 15.0014 16.7716 15.2063C18.0267 15.5429 19.3038 15.8137 20.5955 15.9381C22.0048 16.0699 23.4213 16.1138 24.8379 16.0991C26.7976 16.0772 28.7499 16.0772 30.7096 16.1065C31.8326 16.1284 32.9482 16.2748 34.0712 16.2894C35.6052 16.3114 37.1245 16.4651 38.6291 16.6773C41.2127 17.0432 43.7449 17.5921 46.0789 18.8363C48.0019 19.8609 49.0514 21.4563 49.1175 23.6079C49.1542 24.8301 48.7065 25.9718 47.9725 26.9745C46.9083 28.4382 45.3816 29.2432 43.7669 29.9092C42.4237 30.4654 40.9925 30.6849 39.5833 30.9996C37.8584 31.3948 36.1116 31.6876 34.3648 31.9657C32.9629 32.1926 31.5537 32.3609 30.1371 32.5292C29.205 32.639 28.2655 32.6829 27.3334 32.7634C24.7645 32.9903 22.1882 33.0708 19.612 33.0342C17.7698 33.0122 15.9202 32.9464 14.0853 32.8073C12.221 32.6683 10.3567 32.456 8.49976 32.2292C7.16394 32.0608 5.83546 31.8193 4.50698 31.5778C4.05926 31.4973 3.62622 31.3143 3.18584 31.168C2.9363 31.0875 2.73812 30.9191 2.58399 30.7142C2.41518 30.4947 2.48124 30.3263 2.74546 30.2678C3.03171 30.2019 3.31796 30.1873 3.61154 30.1873C5.20425 30.2239 6.78228 30.2239 8.36031 30.2239Z" fill="#1686FF"/>
<path d="M52.3767 29.6163C52.3767 28.4453 52.3767 27.2744 52.3767 26.1034C52.3767 25.474 52.5235 25.3203 53.1474 25.3203C54.7768 25.3277 56.3989 25.2984 58.0283 25.3496C59.0632 25.3789 60.1054 25.4155 61.1403 25.3862C61.911 25.3642 62.6743 25.2618 63.3422 24.808C64.1569 24.2592 64.6707 22.9784 64.0174 21.8733C63.4376 20.8926 62.5642 20.4608 61.4779 20.4242C60.5017 20.395 59.5256 20.4535 58.5567 20.4096C56.7365 20.3291 54.9163 20.3877 53.096 20.3511C52.5455 20.3364 52.2593 20.0583 52.2593 19.5094C52.252 18.7922 52.252 18.0677 52.252 17.3505C52.252 16.8748 52.4648 16.6406 52.9566 16.6259C53.4557 16.6113 53.9621 16.6186 54.4612 16.6186C55.7677 16.6186 57.0815 16.582 58.3879 16.6333C59.643 16.6845 60.9128 16.582 62.1605 16.7138C64.3624 16.948 66.168 17.9433 67.2983 19.9046C68.3845 21.8001 68.48 23.7908 67.4231 25.7229C66.3515 27.6842 64.612 28.6942 62.3734 28.76C60.5531 28.8113 58.7329 28.782 56.9053 28.76C56.5236 28.7527 56.4209 28.8845 56.4282 29.2431C56.4429 30.5604 56.4356 31.8777 56.4429 33.1951C56.4429 33.7732 56.2227 34.0221 55.6355 34.0294C54.8282 34.044 54.0208 34.0367 53.2135 34.0367C52.6336 34.0367 52.4134 33.8171 52.4061 33.239C52.3987 32.0314 52.4061 30.8239 52.4061 29.6163C52.3914 29.6163 52.3841 29.6163 52.3767 29.6163Z" fill="#1686FF"/>
<path d="M98.0659 17.4384C98.0659 17.8775 98.0219 18.3166 98.0219 18.7557C98.0219 19.0997 97.8824 19.3046 97.5081 19.3925C95.1007 19.9779 93.6694 21.5368 93.1777 23.9153C92.796 25.7522 93.3465 27.377 94.5575 28.7894C95.3429 29.6969 96.3558 30.2312 97.5007 30.5166C97.9044 30.6191 98.0365 30.8459 98.0365 31.2192C98.0365 32.1486 98.0365 33.0708 98.0365 34.0002C98.0365 34.4174 97.9118 34.5564 97.4861 34.5271C96.2457 34.4393 95.0933 34.0588 93.9997 33.4806C90.3519 31.5485 88.3702 27.7282 88.884 23.6518C89.4051 19.4876 92.8474 16.004 97.0237 15.3746C97.9705 15.2282 98.0659 15.5136 98.0659 16.3406C98.0659 16.7066 98.0659 17.0725 98.0659 17.4384Z" fill="#1686FF"/>
<path d="M79.0707 34.1758C76.8688 34.1758 74.6669 34.1758 72.465 34.1758C71.8925 34.1758 71.6943 33.9709 71.6943 33.4C71.6943 32.6535 71.6943 31.9144 71.6943 31.1679C71.6943 30.6483 71.8998 30.4507 72.4356 30.4434C73.1843 30.4434 73.9256 30.4434 74.6742 30.4434C78.2707 30.4434 81.8671 30.4434 85.4636 30.4434C86.2709 30.4434 86.5131 30.6849 86.5205 31.4899C86.5278 32.1266 86.5278 32.756 86.5278 33.3927C86.5278 33.9489 86.3003 34.1758 85.7571 34.1758C83.5185 34.1831 81.2946 34.1831 79.0707 34.1758Z" fill="#1686FF"/>
<path d="M79.0629 20.1753C76.9491 20.1753 74.8353 20.1753 72.7214 20.1753C72.56 20.1753 72.4058 20.1607 72.2443 20.1387C71.8994 20.1021 71.6792 19.9045 71.6205 19.5752C71.4737 18.7263 71.5251 17.8773 71.6278 17.0284C71.6572 16.7869 71.848 16.6259 72.0829 16.5453C72.2664 16.4868 72.4645 16.4648 72.6627 16.4648C76.8316 16.4648 81.0006 16.4648 85.1695 16.4648C85.331 16.4648 85.4851 16.4648 85.6466 16.4868C86.2631 16.5673 86.4466 16.7795 86.4466 17.3943C86.4466 18.0164 86.4539 18.6384 86.4466 19.2605C86.4393 19.8606 86.1163 20.1827 85.5145 20.1827C83.3639 20.1827 81.2134 20.1827 79.0629 20.1827C79.0629 20.19 79.0629 20.1827 79.0629 20.1753Z" fill="#1686FF"/>
<path d="M78.469 27.45C76.4726 27.45 74.4836 27.45 72.4872 27.45C71.6651 27.45 71.5477 27.3403 71.5404 26.5352C71.5404 25.7668 71.533 24.9983 71.5404 24.2299C71.5477 23.6883 71.7312 23.498 72.267 23.498C76.3258 23.498 80.3847 23.498 84.4509 23.498C85.0747 23.498 85.5298 23.9152 85.5518 24.53C85.5738 25.2399 85.5665 25.9424 85.5445 26.6523C85.5298 27.1207 85.1408 27.4427 84.627 27.45C82.5792 27.45 80.5241 27.45 78.469 27.45Z" fill="#1686FF"/>
<path d="M69.4557 3.37207C70.1896 3.37207 70.9236 3.37207 71.6576 3.37207C73.2136 3.37207 74.6815 4.62354 74.9237 6.15311C75.1366 7.47776 74.6668 8.52431 73.5952 9.30739C73.3237 9.50499 73.2723 9.65136 73.4778 9.95142C74.0429 10.7638 74.5641 11.6054 75.0999 12.4397C75.2393 12.6666 75.3788 12.8935 75.2246 13.1862C75.0705 13.4716 74.8136 13.4936 74.5347 13.4789C74.3292 13.4716 74.1163 13.4497 73.9108 13.4863C73.331 13.5814 73.0007 13.3033 72.7218 12.8203C72.2227 11.9494 71.6575 11.1077 71.1218 10.2515C71.0263 10.1051 70.9162 10.0173 70.7401 10.0173C70.1309 10.0026 69.5217 9.99533 68.9052 9.97337C68.6556 9.96606 68.5969 10.0612 68.6043 10.2954C68.6189 11.1151 68.6116 11.9274 68.6116 12.7471C68.6116 13.2667 68.4575 13.4131 67.9363 13.4131C67.6795 13.4131 67.4226 13.3984 67.1657 13.4131C66.7987 13.435 66.6372 13.2228 66.6299 12.9081C66.6152 11.3712 66.6152 9.83432 66.6299 8.29743C66.6299 7.93882 66.8941 7.84369 67.2097 7.84369C68.663 7.84369 70.1236 7.851 71.5768 7.84369C71.9658 7.84369 72.3548 7.74854 72.553 7.38994C72.7805 6.9801 72.8246 6.53367 72.5603 6.1092C72.3181 5.72131 71.9291 5.58226 71.5034 5.58226C70.1236 5.57495 68.7364 5.58226 67.3565 5.57494C67.1877 5.57494 67.0189 5.56031 66.8501 5.53835C66.6079 5.50176 66.4904 5.34807 66.4831 5.11388C66.4757 4.71136 66.4684 4.30884 66.4831 3.90632C66.4978 3.57699 66.7326 3.38671 67.107 3.38671C67.8923 3.37207 68.6703 3.37207 69.4557 3.37207Z" fill="#E55A51"/>
<path d="M59.4665 6.70948C59.0701 7.64625 58.7105 8.50983 58.3435 9.3661C58.1893 9.7247 58.0572 10.0906 57.8958 10.4419C57.7636 10.7347 57.5728 10.9396 57.1985 10.9103C56.8829 10.8883 56.5599 10.9103 56.2443 10.9103C55.6865 10.903 55.459 10.581 55.6718 10.076C55.9581 9.39537 56.2517 8.71475 56.5379 8.02681C57.1104 6.6802 57.6756 5.34091 58.2407 3.9943C58.4389 3.52592 58.549 3.44542 59.0628 3.44542C59.3197 3.44542 59.5765 3.46737 59.8334 3.4381C60.2151 3.39419 60.4133 3.57715 60.5674 3.89916C61.9106 6.73143 63.1803 9.60029 64.4721 12.4472C64.729 13.0107 64.4648 13.3766 63.8482 13.384C60.927 13.3913 58.0059 13.384 55.0847 13.4059C54.4828 13.4132 54.3507 13.0985 54.5562 12.6228C54.681 12.3301 54.8351 12.052 54.9526 11.7593C55.0847 11.4446 55.3122 11.3421 55.6425 11.3421C57.4113 11.3494 59.1875 11.3421 60.9637 11.3421C61.4922 11.3421 61.5069 11.3128 61.294 10.8371C60.6922 9.49783 60.0903 8.13659 59.4665 6.70948Z" fill="#E55A51"/>
<path d="M50.1964 7.28761C49.9689 7.57303 49.6386 7.93164 49.4184 8.22438C48.9633 8.8245 48.5083 9.43193 48.0605 10.0321C47.7009 10.5224 47.5247 10.5224 47.1431 10.054C45.8733 8.49516 44.6036 6.93632 43.3265 5.37747C43.1503 5.15792 42.9962 4.92372 42.8127 4.71149C42.6072 4.46266 42.5925 4.18456 42.6219 3.89181C42.6512 3.66494 42.7613 3.53321 43.0255 3.52589C44.3687 3.48198 44.3687 3.48198 45.2128 4.49925C45.9027 5.34088 46.5926 6.17519 47.2679 7.02414C47.466 7.28029 47.5688 7.25102 47.7376 7.0095C48.5156 5.92636 49.3156 4.85054 50.101 3.7674C50.1157 3.74544 50.123 3.72349 50.1377 3.70153C50.3799 3.40147 51.8698 3.33561 52.1414 3.61371C52.2662 3.74544 52.3102 3.89913 52.3102 4.0821C52.3102 7.03146 52.3102 9.98082 52.3102 12.9302C52.3102 13.34 52.2001 13.4498 51.7891 13.4718C51.4074 13.4864 51.0331 13.4718 50.6514 13.4864C50.3285 13.501 50.2037 13.3327 50.1964 13.0546C50.1817 12.7399 50.1891 12.4179 50.1891 12.1032C50.1891 10.698 50.1964 9.3002 50.1964 7.89504C50.1964 7.74135 50.1964 7.46325 50.1964 7.30956C50.1964 7.29492 50.1964 7.28761 50.1964 7.28761Z" fill="#E55A51"/>
<path d="M106.051 23.2712C105.516 23.2859 104.98 23.3664 104.444 23.3224C104.172 23.3005 104.018 23.1761 103.923 22.9346C103.152 20.9659 101.684 19.8022 99.6439 19.3412C99.2843 19.2607 99.1228 19.0997 99.1301 18.7264C99.1448 17.8116 99.1301 16.8968 99.1301 15.9893C99.1301 15.4184 99.3209 15.2648 99.9155 15.3526C101.684 15.6014 103.27 16.2601 104.672 17.3725C106.338 18.6971 107.468 20.3731 108.026 22.4223C108.202 23.0736 108.026 23.2859 107.365 23.2785C106.932 23.2639 106.492 23.2712 106.051 23.2712Z" fill="#1686FF"/>
<path d="M99.0786 32.6024C99.0786 32.2146 99.086 31.8267 99.0786 31.4388C99.0713 30.8167 99.174 30.685 99.7832 30.5386C100.936 30.2605 101.948 29.7336 102.756 28.8627C103.027 28.5699 103.27 28.2479 103.504 27.9259C103.637 27.7503 103.791 27.6771 103.996 27.6771C105.119 27.6771 106.242 27.6698 107.365 27.6771C107.769 27.6771 107.886 27.8966 107.739 28.3357C107.541 28.9285 107.262 29.4848 106.925 30.0044C105.31 32.5219 103.013 34.0149 100.055 34.5053C99.908 34.5272 99.7612 34.5272 99.6144 34.5272C99.2548 34.5272 99.0786 34.3589 99.0713 34.0003C99.0713 33.5319 99.0786 33.0708 99.0786 32.6024Z" fill="#1686FF"/>
<path d="M79.9878 8.4218C79.9878 6.9215 79.9878 5.4212 79.9878 3.92823C79.9878 3.43789 80.1199 3.30615 80.619 3.30615C81.9769 3.30615 83.3347 3.30615 84.6852 3.30615C85.1256 3.30615 85.2577 3.43057 85.265 3.86236C85.2724 4.21365 85.2724 4.57226 85.265 4.92355C85.2577 5.27483 85.1036 5.42852 84.7439 5.42852C83.9879 5.43584 83.2246 5.44316 82.4686 5.4212C82.1677 5.41389 82.1016 5.51634 82.1016 5.79445C82.109 8.17297 82.109 10.5442 82.109 12.9227C82.109 13.4935 82.0503 13.5521 81.4851 13.5521C81.1548 13.5521 80.8245 13.5594 80.4942 13.5521C80.0612 13.5448 79.9805 13.4643 79.9805 13.0398C79.9805 11.4956 79.9805 9.95868 79.9878 8.4218C79.9805 8.4218 79.9805 8.4218 79.9878 8.4218Z" fill="#E55A51"/>
<path d="M42.7027 11.6858C42.7027 11.3198 42.6953 10.9539 42.7027 10.588C42.7173 10.1562 42.9008 9.97324 43.3265 9.96592C43.5834 9.9586 43.8403 9.95128 44.0972 9.9586C44.4715 9.97323 44.6697 10.1562 44.6697 10.5221C44.6844 11.2906 44.6844 12.0517 44.6623 12.8201C44.6477 13.2958 44.4715 13.4495 44.0018 13.4568C43.7669 13.4642 43.5394 13.4642 43.3045 13.4568C42.9008 13.4495 42.7027 13.2592 42.6953 12.8494C42.6953 12.4615 42.7027 12.0737 42.7027 11.6858Z" fill="#E55A51"/>
<path d="M77.8967 5.3995C77.6545 5.3995 77.4123 5.40681 77.1627 5.3995C76.9058 5.39218 76.759 5.26044 76.759 4.98966C76.759 4.60178 76.759 4.2139 76.759 3.8187C76.7517 3.54059 76.9205 3.40154 77.1554 3.3869C77.6912 3.36495 78.227 3.37227 78.7628 3.3869C79.0343 3.39422 79.1738 3.57718 79.1738 3.84797C79.1811 4.19926 79.1811 4.55055 79.1738 4.90915C79.1664 5.27508 79.027 5.41413 78.66 5.42145C78.4031 5.42877 78.1462 5.42145 77.8893 5.42145C77.8967 5.40681 77.8967 5.3995 77.8967 5.3995Z" fill="#E55A51"/>
</svg>
