<svg width="44" height="45" viewBox="0 0 44 45" fill="none" xmlns="http://www.w3.org/2000/svg">
<g clip-path="url(#clip0_10670_1917)">
<path d="M9.53335 0.500019H34.4667C35.7193 0.497516 36.9601 0.742395 38.1179 1.2206C39.2757 1.69881 40.3276 2.40094 41.2134 3.28669C42.0991 4.17244 42.8012 5.22438 43.2794 6.38214C43.7576 7.53991 44.0025 8.78071 44 10.0334V34.9667C44.0025 36.2193 43.7576 37.4601 43.2794 38.6179C42.8012 39.7757 42.0991 40.8276 41.2134 41.7134C40.3276 42.5991 39.2757 43.3012 38.1179 43.7794C36.9601 44.2576 35.7193 44.5025 34.4667 44.5H9.53335C8.28071 44.5025 7.03991 44.2576 5.88214 43.7794C4.72438 43.3012 3.67244 42.5991 2.78669 41.7134C1.90094 40.8276 1.19881 39.7757 0.720604 38.6179C0.242395 37.4601 -0.00248364 36.2193 1.90051e-05 34.9667V10.0334C-0.00248461 8.78071 0.242394 7.53991 0.720602 6.38214C1.19881 5.22438 1.90093 4.17244 2.78668 3.28668C3.67244 2.40093 4.72438 1.69881 5.88214 1.2206C7.03991 0.742394 8.28071 0.497515 9.53335 0.500019Z" fill="white"/>
<path fill-rule="evenodd" clip-rule="evenodd" d="M26.767 9.66659C26.767 9.66659 31.387 5.77993 35.0903 9.29993C38.2437 12.3066 37.2903 16.8899 33.7337 20.8133C30.067 24.8466 26.767 25.7999 26.767 25.7999C26.767 25.7999 23.4303 24.8466 19.7637 20.8133C16.1703 16.8899 15.217 12.3066 18.407 9.29993C22.147 5.77993 26.767 9.66659 26.767 9.66659Z" fill="url(#paint0_linear_10670_1917)"/>
</g>
<defs>
<linearGradient id="paint0_linear_10670_1917" x1="26.7361" y1="7.82683" x2="26.7361" y2="25.7974" gradientUnits="userSpaceOnUse">
<stop stop-color="#FF60AB"/>
<stop offset="1" stop-color="#FF281B"/>
</linearGradient>
<clipPath id="clip0_10670_1917">
<rect width="44" height="44" fill="white" transform="translate(0 0.5)"/>
</clipPath>
</defs>
</svg>
