<svg width="42" height="42" viewBox="0 0 42 42" fill="none" xmlns="http://www.w3.org/2000/svg">
<g clip-path="url(#clip0_12685_1954)">
<path d="M19.8022 8.46747V5.92268C18.9628 5.56003 18.1907 5.04907 17.8835 4.06111C17.7044 3.43087 17.7393 2.75835 17.9828 2.15042C18.4412 0.847472 20.0909 -0.126504 21.5915 0.0133758C22.8012 0.126142 23.6267 0.931438 23.7996 2.16686C24.1004 4.316 23.5474 5.34781 21.6304 6.09988C21.5994 6.61052 21.5663 7.15673 21.5228 7.87253C22.0354 7.48156 22.4167 7.17642 22.8128 6.89199C23.3713 6.46244 23.9512 6.06192 24.5502 5.69198C26.4861 4.58469 28.3594 4.79641 30.1723 6.02804C30.9972 6.58842 31.8329 7.1343 32.6822 7.65634C34.2122 8.59852 35.9268 9.19546 37.7075 9.40604C38.1717 9.46716 38.6307 9.56435 39.0801 9.69684C40.6995 10.1596 41.1069 11.6239 39.9044 12.7937C38.2389 14.4142 36.1772 15.2418 33.9091 15.4647C31.5975 15.6757 29.2673 15.5099 27.0079 14.9738C25.4371 14.6151 23.8568 14.2985 22.2795 13.9699C21.9701 13.9053 21.6545 13.8711 21.3038 13.8171V21.709C22.4998 21.2462 23.5704 20.8699 24.3163 19.9503C24.5837 19.6025 24.7725 19.2 24.8693 18.7708C25.0391 18.0588 24.8369 17.835 24.1989 17.4622C23.6728 17.1487 23.1837 16.7757 22.7412 16.3506C22.5745 16.2004 22.4628 15.998 22.4239 15.7761C22.3852 15.5541 22.4215 15.3254 22.5272 15.1268C22.6091 14.9166 22.7621 14.7424 22.9593 14.6352C23.1565 14.528 23.3848 14.4948 23.6041 14.5414C24.1044 14.6403 24.6768 14.7709 25.0432 15.0907C27.766 17.4681 27.2887 20.6052 24.9815 22.3749C24.519 22.7303 24.0096 23.0259 23.4529 23.3948C23.715 23.4829 23.9255 23.5559 24.1381 23.6245C25.1818 23.9334 26.1506 24.4567 26.9837 25.1614C28.3699 26.3837 28.5169 27.945 27.3754 29.3969C26.3646 30.6831 25.0131 31.4964 23.5274 32.1045C23.102 32.2785 22.6672 32.429 22.1241 32.6324C22.5157 32.9144 22.8265 33.1147 23.1109 33.3477C24.1755 34.2196 24.8412 35.2671 24.5178 36.7284C24.4319 37.1187 24.2641 37.4857 24.0254 37.805C23.7869 38.1241 23.4832 38.3882 23.1349 38.579C22.7446 38.8133 22.3924 39.1117 21.9648 39.4236C22.4777 39.6602 22.8899 39.8122 23.2629 40.0339C23.5956 40.2323 23.9036 40.5204 23.7215 40.9734C23.5447 41.4132 23.1443 41.47 22.7568 41.3481C22.0926 41.1391 21.4453 40.8763 20.7493 40.6209C20.5296 41.1782 20.5485 42.0012 19.7755 42C19.418 42 19.0613 41.5305 18.6129 41.2084C18.3856 41.2909 18.0123 41.4512 17.6248 41.5598C17.3039 41.6498 16.9462 41.6489 16.7903 41.2845C16.6376 40.9276 16.8658 40.6515 17.1425 40.4615C17.5491 40.1824 17.9789 39.9377 18.302 39.7381C17.5081 39.2848 16.6723 38.8646 15.8959 38.3528C13.8914 37.0313 14.1746 34.8874 15.3089 33.5205C15.4774 33.3175 15.6638 33.1294 15.9121 32.8577C14.1818 31.877 12.6864 30.6872 12.662 28.4992C12.6386 26.3767 13.8049 24.9122 15.5943 23.7904C15.3544 23.5939 15.1729 23.4649 15.0144 23.3117C14.6399 22.9831 14.2895 22.6275 13.9659 22.2476C12.863 20.8157 12.7558 19.3017 13.6445 17.7059C14.3812 16.3819 15.4851 15.5082 16.8264 14.9004C17.4015 14.6398 17.8516 14.7494 18.1562 15.1796C18.235 15.2879 18.2914 15.411 18.322 15.5417C18.3526 15.6724 18.3569 15.8079 18.3345 15.9403C18.3121 16.0726 18.2636 16.1991 18.1918 16.3122C18.1199 16.4252 18.0263 16.5226 17.9164 16.5984C17.4696 16.9317 16.9832 17.2073 16.4685 17.4188C16.1123 17.5532 15.7933 17.7717 15.5382 18.0561C15.2832 18.3405 15.0998 18.6824 15.0031 19.0532C14.924 19.307 14.8969 19.5744 14.9234 19.8389C14.9499 20.1037 15.0295 20.3601 15.1573 20.5927C15.7937 21.7786 16.8876 22.349 18.1003 22.6478C18.5273 22.7529 19.05 22.4637 19.6213 22.3335C19.6955 19.5637 19.7686 16.8354 19.8449 13.9901C19.5171 13.9947 19.1899 14.0174 18.8646 14.0582C16.5004 14.4928 14.1377 14.928 11.7788 15.3879C9.63821 15.8046 7.49744 16.1148 5.32443 15.648C4.16802 15.3996 3.05748 15.0349 2.13596 14.2492C1.61995 13.8088 1.22128 13.2774 1.48306 12.5568C1.60074 12.1972 1.82223 11.8813 2.11906 11.6493C2.70569 11.2621 3.33074 10.9377 3.98417 10.6812C6.24164 9.78874 8.32297 8.61391 10.1345 6.97456C10.5268 6.6195 10.9422 6.28986 11.3525 5.9557C12.23 5.24041 13.2167 5.03249 14.3233 5.25958C15.9851 5.6003 17.3225 6.55145 18.6496 7.52732C19.0181 7.79793 19.3616 8.1062 19.8022 8.46747ZM21.2322 12.256C22.7302 12.4855 24.1191 12.6704 25.4981 12.9156C27.8045 13.3275 30.1016 13.7501 32.4659 13.6686C34.2286 13.6146 35.9468 13.0971 37.4498 12.1674C37.6578 12.0159 37.8553 11.8503 38.041 11.6719C37.3268 11.5217 36.7261 11.4291 36.1447 11.2673C33.6871 10.5833 31.4875 9.38204 29.4547 7.84682C27.938 6.70136 26.8595 6.67079 25.269 7.69934C25.0211 7.85632 24.7819 8.02673 24.5524 8.20982C23.6413 8.95049 22.7549 9.72328 21.8214 10.4336C21.4539 10.713 21.2677 11.0034 21.2846 11.4592C21.2812 11.7257 21.2639 11.9918 21.2322 12.2565V12.256ZM19.9446 11.2271C19.2653 10.7169 18.7325 10.362 18.2509 9.94672C17.1277 8.95403 15.8622 8.13803 14.4972 7.5263C13.5332 7.10615 12.6577 7.16505 11.8371 7.95235C9.55972 10.1371 6.89971 11.7094 3.95439 12.8039C3.66102 12.9392 3.37591 13.0919 3.10055 13.2614C3.67824 13.5161 4.06679 13.7174 4.47487 13.8622C6.2948 14.508 8.1527 14.4838 10.016 14.1105C12.3116 13.6511 14.5977 13.1521 16.8927 12.6944C17.8895 12.4955 18.8971 12.3567 19.9446 12.1833V11.2271ZM19.5403 25.0618C18.2383 25.0639 16.184 26.0451 15.4828 26.968C14.7088 27.9868 14.699 29.2475 15.6621 29.9574C16.4913 30.5691 17.4839 30.9796 18.4471 31.3735C18.9653 31.585 19.3326 31.2543 19.3648 30.6777C19.4382 29.357 19.4902 28.0355 19.5362 26.7131C19.5562 26.1624 19.5403 25.6111 19.5403 25.0618ZM21.3818 30.6105C22.0367 30.3631 22.6468 30.1688 23.2259 29.9056C24.1654 29.4785 25.0302 28.9254 25.6952 28.112C26.16 27.5435 26.1578 27.2116 25.6283 26.746C24.4338 25.6954 22.9925 25.3407 21.3818 25.2423V30.6105ZM19.0883 33.9953C18.009 33.8538 16.7935 34.6688 16.6085 35.5367C16.5631 35.7244 16.5727 35.9215 16.6362 36.1036C16.6996 36.286 16.8142 36.4457 16.966 36.5637C17.538 37.0524 18.1238 37.5245 18.8005 38.0834C18.9014 36.65 18.9931 35.3483 19.0883 33.996V33.9953ZM21.9946 3.33923C22.0026 2.2062 21.5976 1.84151 20.3767 1.76052C19.8252 1.72391 19.4466 2.00728 19.3047 2.98834C19.1904 3.77753 19.8322 4.35259 20.8276 4.41614C21.7416 4.47538 21.9889 4.24779 21.9946 3.33995V3.33923ZM21.0112 34.7656C20.9516 35.3555 20.8695 35.9356 20.8399 36.5184C20.8104 37.111 20.8334 37.706 20.8334 38.3873C21.5553 37.971 21.8748 37.4059 22.1133 36.764C22.5176 35.6785 22.237 35.1359 21.0112 34.7663V34.7656Z" fill="#1686FF"/>
</g>
<defs>
<clipPath id="clip0_12685_1954">
<rect width="42" height="42" fill="white"/>
</clipPath>
</defs>
</svg>
