<svg width="100%" height="auto" viewBox="0 0 120 40" fill="none" xmlns="http://www.w3.org/2000/svg">
<g clip-path="url(#clip0_1_4)">
<path d="M110.135 0.00013H9.53468C9.16798 0.00013 8.80568 0.00013 8.43995 0.00213C8.1338 0.00413 7.83009 0.00994 7.521 0.01483C6.84951 0.0227318 6.17961 0.0818063 5.5171 0.19154C4.85552 0.303663 4.21467 0.515046 3.61622 0.81854C3.0185 1.1246 2.47235 1.5223 1.99757 1.9972C1.5203 2.47077 1.12246 3.01815 0.81935 3.61829C0.5154 4.21724 0.304641 4.85907 0.19435 5.52161C0.0830109 6.18332 0.0230984 6.85265 0.01515 7.52361C0.00587 7.83021 0.00489 8.13783 0 8.44447V31.5587C0.00489 31.8692 0.00587 32.17 0.01515 32.4806C0.0231008 33.1516 0.0830134 33.8209 0.19435 34.4825C0.304336 35.1455 0.515108 35.7877 0.81935 36.3868C1.12233 36.985 1.52022 37.5302 1.99757 38.0011C2.47054 38.4781 3.01705 38.8761 3.61622 39.1798C4.21467 39.4841 4.85545 39.6968 5.5171 39.8106C6.17972 39.9195 6.84956 39.9786 7.521 39.9874C7.83009 39.9942 8.1338 39.9981 8.43995 39.9981C8.80567 40.0001 9.168 40.0001 9.53468 40.0001H110.135C110.494 40.0001 110.859 40.0001 111.219 39.9981C111.523 39.9981 111.836 39.9942 112.141 39.9874C112.811 39.9791 113.479 39.92 114.141 39.8106C114.804 39.696 115.448 39.4834 116.049 39.1798C116.647 38.8759 117.193 38.478 117.666 38.0011C118.142 37.5284 118.541 36.9836 118.848 36.3868C119.15 35.7872 119.358 35.1451 119.467 34.4825C119.578 33.8208 119.64 33.1516 119.652 32.4806C119.656 32.17 119.656 31.8692 119.656 31.5587C119.664 31.1954 119.664 30.8341 119.664 30.4649V9.53626C119.664 9.17005 119.664 8.80677 119.656 8.44447C119.656 8.13783 119.656 7.83021 119.652 7.52357C119.64 6.85255 119.578 6.18337 119.467 5.52157C119.358 4.85941 119.149 4.21763 118.848 3.61825C118.23 2.41533 117.252 1.43616 116.049 0.81845C115.448 0.515697 114.804 0.30437 114.141 0.19145C113.48 0.0812328 112.811 0.0221378 112.141 0.01469C111.836 0.00981 111.523 0.00395 111.219 0.002C110.859 0 110.494 0.00013 110.135 0.00013Z" fill="black"/>
<path d="M8.44484 39.125C8.14016 39.125 7.84284 39.1211 7.54055 39.1143C6.91433 39.1061 6.28957 39.0516 5.67141 38.9512C5.095 38.8519 4.53661 38.6673 4.01467 38.4033C3.49751 38.1415 3.02582 37.7983 2.61767 37.3867C2.20361 36.98 1.85888 36.5082 1.59716 35.9902C1.33255 35.4688 1.14942 34.9099 1.05416 34.333C0.951281 33.7131 0.895621 33.0863 0.887656 32.458C0.881316 32.2471 0.873016 31.5449 0.873016 31.5449V8.44434C0.873016 8.44434 0.881856 7.75293 0.887706 7.5498C0.895332 6.92248 0.950669 6.29665 1.05324 5.67773C1.14868 5.09925 1.33194 4.53875 1.5967 4.01563C1.85746 3.49794 2.20027 3.02586 2.61184 2.61768C3.02294 2.20562 3.49614 1.8606 4.01418 1.59521C4.53492 1.33209 5.09225 1.14873 5.6675 1.05127C6.28769 0.949836 6.91462 0.894996 7.54301 0.88721L8.44533 0.875H111.214L112.127 0.8877C112.75 0.895099 113.371 0.94945 113.985 1.05029C114.566 1.14898 115.13 1.33362 115.656 1.59814C116.694 2.13299 117.539 2.97916 118.071 4.01807C118.332 4.53758 118.512 5.09351 118.606 5.66699C118.71 6.29099 118.768 6.92174 118.78 7.5542C118.783 7.8374 118.783 8.1416 118.783 8.44434C118.791 8.81934 118.791 9.17627 118.791 9.53613V30.4648C118.791 30.8281 118.791 31.1826 118.783 31.54C118.783 31.8652 118.783 32.1631 118.779 32.4697C118.768 33.0909 118.71 33.7104 118.608 34.3232C118.515 34.9043 118.333 35.4675 118.068 35.9932C117.805 36.5056 117.462 36.9733 117.053 37.3789C116.644 37.7927 116.172 38.1379 115.653 38.4014C115.128 38.6674 114.566 38.8527 113.985 38.9512C113.367 39.0522 112.742 39.1067 112.116 39.1143C111.823 39.1211 111.517 39.125 111.219 39.125L110.135 39.127L8.44484 39.125Z" fill="white"/>
<path d="M24.9967 19.8894C25.0079 19.0214 25.2384 18.1704 25.6669 17.4154C26.0954 16.6605 26.7078 16.0263 27.4473 15.5716C26.9775 14.9007 26.3578 14.3486 25.6373 13.9591C24.9169 13.5696 24.1155 13.3535 23.2969 13.3279C21.5507 13.1446 19.8578 14.3728 18.9679 14.3728C18.0608 14.3728 16.6908 13.3461 15.2154 13.3764C14.2611 13.4073 13.3311 13.6848 12.516 14.1819C11.7008 14.679 11.0283 15.3788 10.5641 16.2131C8.55295 19.6951 10.0531 24.8125 11.9796 27.6271C12.9435 29.0054 14.0699 30.5449 15.544 30.4903C16.9864 30.4305 17.5251 29.5705 19.2662 29.5705C20.9911 29.5705 21.4965 30.4903 23.0004 30.4556C24.5482 30.4305 25.5233 29.0712 26.4534 27.6799C27.146 26.6979 27.6789 25.6125 28.0324 24.4641C27.1332 24.0837 26.3659 23.4471 25.826 22.6336C25.2862 21.8201 24.9978 20.8657 24.9967 19.8894Z" fill="black"/>
<path d="M22.1561 11.4768C23 10.4637 23.4158 9.1616 23.3151 7.84692C22.0258 7.98233 20.8349 8.59853 19.9796 9.57274C19.5614 10.0487 19.2411 10.6023 19.037 11.2021C18.8329 11.8019 18.7491 12.436 18.7902 13.0682C19.4351 13.0749 20.0731 12.9351 20.6561 12.6594C21.2391 12.3838 21.752 11.9794 22.1561 11.4768Z" fill="black"/>
<path d="M42.3018 27.1397H37.5684L36.4317 30.4961H34.4268L38.9102 18.0781H40.9932L45.4766 30.4961H43.4375L42.3018 27.1397ZM38.0586 25.5908H41.8106L39.961 20.1436H39.9092L38.0586 25.5908Z" fill="black"/>
<path d="M55.1592 25.9697C55.1592 28.7832 53.6533 30.5908 51.3809 30.5908C50.8052 30.6209 50.2327 30.4883 49.7289 30.2082C49.2251 29.9281 48.8104 29.5117 48.5323 29.0068H48.4893V33.4912H46.6309V21.4424H48.4297V22.9482H48.4639C48.7548 22.4458 49.1766 22.0316 49.6842 21.7497C50.1918 21.4679 50.7664 21.3289 51.3467 21.3477C53.6446 21.3477 55.1592 23.1641 55.1592 25.9697ZM53.249 25.9697C53.249 24.1367 52.3018 22.9316 50.8565 22.9316C49.4365 22.9316 48.4815 24.1621 48.4815 25.9697C48.4815 27.794 49.4365 29.0156 50.8565 29.0156C52.3018 29.0156 53.249 27.8193 53.249 25.9697Z" fill="black"/>
<path d="M65.1245 25.9697C65.1245 28.7832 63.6182 30.5908 61.3457 30.5908C60.7701 30.6209 60.1976 30.4883 59.6938 30.2082C59.19 29.9281 58.7753 29.5117 58.4971 29.0068H58.4541V33.4912H56.5957V21.4424H58.3945V22.9482H58.4287C58.7197 22.4458 59.1414 22.0316 59.649 21.7497C60.1567 21.4679 60.7312 21.3289 61.3115 21.3477C63.6094 21.3477 65.1245 23.1641 65.1245 25.9697ZM63.2139 25.9697C63.2139 24.1367 62.2666 22.9316 60.8213 22.9316C59.4014 22.9316 58.4463 24.1621 58.4463 25.9697C58.4463 27.794 59.4014 29.0156 60.8213 29.0156C62.2666 29.0156 63.2139 27.8193 63.2139 25.9697Z" fill="black"/>
<path d="M71.7095 27.0361C71.8472 28.2676 73.0435 29.0761 74.6782 29.0761C76.2447 29.0761 77.3716 28.2675 77.3716 27.1572C77.3716 26.1933 76.6919 25.6162 75.0826 25.2207L73.4732 24.833C71.1929 24.2822 70.1343 23.2158 70.1343 21.4853C70.1343 19.3427 72.0015 17.871 74.6519 17.871C77.2769 17.871 79.0757 19.3427 79.1363 21.4853H77.2603C77.148 20.246 76.1235 19.498 74.6265 19.498C73.1294 19.498 72.105 20.2548 72.105 21.3564C72.105 22.2343 72.7593 22.7509 74.3599 23.1464L75.728 23.4823C78.2759 24.0849 79.3335 25.1083 79.3335 26.9247C79.3335 29.248 77.4839 30.703 74.5405 30.703C71.7866 30.703 69.9272 29.2821 69.8071 27.036L71.7095 27.0361Z" fill="black"/>
<path d="M83.3462 19.2998V21.4424H85.0679V22.9141H83.3462V27.9053C83.3462 28.6807 83.6909 29.042 84.4478 29.042C84.6522 29.0384 84.8562 29.0241 85.0591 28.999V30.4619C84.7188 30.5255 84.373 30.5543 84.0269 30.5478C82.1939 30.5478 81.479 29.8593 81.479 28.1035V22.9141H80.1626V21.4424H81.479V19.2998H83.3462Z" fill="black"/>
<path d="M86.064 25.9697C86.064 23.1211 87.7417 21.3311 90.358 21.3311C92.983 21.3311 94.6529 23.1211 94.6529 25.9697C94.6529 28.8262 92.9917 30.6084 90.358 30.6084C87.7251 30.6084 86.064 28.8262 86.064 25.9697ZM92.7593 25.9697C92.7593 24.0156 91.8638 22.8623 90.3579 22.8623C88.8521 22.8623 87.9566 24.0244 87.9566 25.9697C87.9566 27.9316 88.8521 29.0762 90.3579 29.0762C91.8638 29.0762 92.7593 27.9316 92.7593 25.9697Z" fill="black"/>
<path d="M96.1851 21.4424H97.9576V22.9834H98.0005C98.1205 22.5021 98.4024 22.0768 98.799 21.7789C99.1956 21.481 99.6826 21.3287 100.178 21.3476C100.392 21.3469 100.606 21.3702 100.815 21.417V23.1553C100.545 23.0726 100.263 23.0347 99.98 23.043C99.71 23.032 99.4409 23.0796 99.191 23.1825C98.9412 23.2854 98.7166 23.4411 98.5326 23.639C98.3486 23.8369 98.2096 24.0723 98.1252 24.3289C98.0408 24.5856 98.0129 24.8575 98.0435 25.126V30.4961H96.1851L96.1851 21.4424Z" fill="black"/>
<path d="M109.383 27.8369C109.133 29.4805 107.533 30.6084 105.485 30.6084C102.851 30.6084 101.216 28.8437 101.216 26.0127C101.216 23.1728 102.86 21.3311 105.407 21.3311C107.912 21.3311 109.487 23.0517 109.487 25.7969V26.4336H103.092V26.5459C103.063 26.8791 103.105 27.2148 103.215 27.5306C103.325 27.8464 103.501 28.1352 103.731 28.3778C103.962 28.6203 104.241 28.8111 104.551 28.9374C104.861 29.0637 105.194 29.1226 105.528 29.1103C105.967 29.1515 106.408 29.0498 106.784 28.8203C107.161 28.5909 107.454 28.246 107.619 27.8369L109.383 27.8369ZM103.101 25.1348H107.627C107.644 24.8352 107.599 24.5354 107.494 24.2541C107.389 23.9729 107.228 23.7164 107.019 23.5006C106.811 23.2849 106.56 23.1145 106.282 23.0003C106.005 22.8861 105.707 22.8305 105.407 22.8369C105.104 22.8351 104.804 22.8932 104.524 23.008C104.244 23.1227 103.99 23.2918 103.775 23.5054C103.561 23.7191 103.391 23.973 103.275 24.2527C103.159 24.5323 103.1 24.8321 103.101 25.1348Z" fill="black"/>
<path d="M35.73 9.29C36.1 9.06 36.62 8.85 37.14 8.85C37.86 8.85 38.35 9.23 38.35 9.92C38.35 10.61 37.65 11.16 36.76 11.16H36.37V11.82H36.77C37.63 11.82 38.6 12.11 38.6 13.12C38.6 13.86 38.05 14.4 37.06 14.4C36.5 14.4 35.91 14.2 35.54 13.99L35.31 14.67C35.83 14.98 36.46 15.11 37.07 15.11C38.3 15.11 39.52 14.55 39.52 13.15C39.51 12.18 38.81 11.56 37.87 11.46V11.44C38.65 11.26 39.26 10.62 39.26 9.79C39.26 8.75 38.45 8.14 37.28 8.14C36.54 8.14 35.96 8.35 35.5 8.65L35.73 9.29ZM44.0519 12.03C44.0519 11.07 43.6919 10.06 42.2119 10.06C41.6019 10.06 41.0119 10.23 40.6119 10.48L40.8119 11.07C41.1519 10.84 41.6219 10.71 42.0819 10.71C43.0719 10.7 43.1819 11.43 43.1819 11.82V11.92C41.3119 11.91 40.2719 12.55 40.2719 13.72C40.2719 14.42 40.7719 15.11 41.7519 15.11C42.4419 15.11 42.9619 14.77 43.2319 14.39H43.2619L43.3319 15H44.1219C44.0719 14.67 44.0519 14.26 44.0519 13.84V12.03ZM43.2019 13.37C43.2019 13.45 43.1919 13.55 43.1619 13.65C43.0219 14.06 42.6119 14.46 41.9719 14.46C41.5319 14.46 41.1519 14.2 41.1519 13.62C41.1519 12.68 42.2419 12.51 43.2019 12.53V13.37ZM45.4461 15C45.7061 15.02 46.2761 15.06 46.8161 15.06C47.7661 15.06 49.3661 14.9 49.3661 13.63C49.3661 12.93 48.8461 12.54 48.1361 12.44V12.42C48.6861 12.3 49.1461 11.92 49.1461 11.32C49.1461 10.25 47.8061 10.11 46.9861 10.11C46.4261 10.11 45.7961 10.16 45.4461 10.22V15ZM46.2961 10.76C46.4961 10.74 46.6761 10.72 46.9761 10.72C47.8561 10.72 48.2761 10.95 48.2761 11.43C48.2761 12.01 47.6061 12.2 46.9561 12.2H46.2961V10.76ZM46.2861 12.77H46.9261C47.7561 12.77 48.4661 12.92 48.4661 13.62C48.4661 14.33 47.5861 14.46 46.9861 14.46C46.7161 14.46 46.5361 14.45 46.2861 14.43V12.77ZM53.8761 12.03C53.8761 11.07 53.5161 10.06 52.0361 10.06C51.4261 10.06 50.8361 10.23 50.4361 10.48L50.6361 11.07C50.9761 10.84 51.4461 10.71 51.9061 10.71C52.8961 10.7 53.0061 11.43 53.0061 11.82V11.92C51.1361 11.91 50.0961 12.55 50.0961 13.72C50.0961 14.42 50.5961 15.11 51.5761 15.11C52.2661 15.11 52.7861 14.77 53.0561 14.39H53.0861L53.1561 15H53.9461C53.8961 14.67 53.8761 14.26 53.8761 13.84V12.03ZM53.0261 13.37C53.0261 13.45 53.0161 13.55 52.9861 13.65C52.8461 14.06 52.4361 14.46 51.7961 14.46C51.3561 14.46 50.9761 14.2 50.9761 13.62C50.9761 12.68 52.0661 12.51 53.0261 12.53V13.37ZM55.2703 10.16V15H56.1503V12.81H58.4403V15H59.3203V10.16H58.4403V12.11H56.1503V10.16H55.2703ZM60.1 10.16V10.85H61.61V15H62.49V10.85H64V10.16H60.1ZM68.1046 12.03C68.1046 11.07 67.7446 10.06 66.2646 10.06C65.6546 10.06 65.0646 10.23 64.6646 10.48L64.8646 11.07C65.2046 10.84 65.6746 10.71 66.1346 10.71C67.1246 10.7 67.2346 11.43 67.2346 11.82V11.92C65.3646 11.91 64.3246 12.55 64.3246 13.72C64.3246 14.42 64.8246 15.11 65.8046 15.11C66.4946 15.11 67.0146 14.77 67.2846 14.39H67.3146L67.3846 15H68.1746C68.1246 14.67 68.1046 14.26 68.1046 13.84V12.03ZM67.2546 13.37C67.2546 13.45 67.2446 13.55 67.2146 13.65C67.0746 14.06 66.6646 14.46 66.0246 14.46C65.5846 14.46 65.2046 14.2 65.2046 13.62C65.2046 12.68 66.2946 12.51 67.2546 12.53V13.37ZM68.9388 10.16L70.8488 12.36C70.1188 12.44 69.6988 12.87 69.3988 13.65C69.2288 14.1 69.0688 14.61 68.8588 15H69.7188C69.8788 14.7 70.0088 14.32 70.1688 13.9C70.4688 13.11 70.8788 12.86 71.5688 12.86H71.7188V15H72.5588V12.86H72.7088C73.3388 12.86 73.7888 13.1 74.0888 13.89C74.2288 14.31 74.3688 14.71 74.5288 15H75.4088C75.2088 14.62 75.0488 14.11 74.8788 13.64C74.5888 12.87 74.1588 12.44 73.4288 12.36L75.3388 10.16H74.3288L72.7288 12.27H72.5588V10.16H71.7188V12.27H71.5488L69.9388 10.16H68.9388ZM75.7348 10.16V10.85H77.2448V15H78.1248V10.85H79.6348V10.16H75.7348ZM84.1708 12.74C84.1908 12.64 84.2008 12.51 84.2008 12.33C84.2008 11.44 83.7908 10.06 82.2008 10.06C80.7908 10.06 79.9308 11.2 79.9308 12.66C79.9308 14.12 80.8208 15.11 82.3108 15.11C83.0808 15.11 83.6208 14.94 83.9308 14.8L83.7708 14.17C83.4508 14.31 83.0608 14.42 82.4308 14.42C81.5408 14.42 80.7908 13.93 80.7708 12.74H84.1708ZM80.7808 12.11C80.8508 11.5 81.2308 10.69 82.1308 10.69C83.1208 10.69 83.3608 11.56 83.3508 12.11H80.7808ZM87.3797 15C87.6397 15.02 88.2097 15.06 88.7497 15.06C89.6997 15.06 91.2997 14.9 91.2997 13.63C91.2997 12.93 90.7797 12.54 90.0697 12.44V12.42C90.6197 12.3 91.0797 11.92 91.0797 11.32C91.0797 10.25 89.7397 10.11 88.9197 10.11C88.3597 10.11 87.7297 10.16 87.3797 10.22V15ZM88.2297 10.76C88.4297 10.74 88.6097 10.72 88.9097 10.72C89.7897 10.72 90.2097 10.95 90.2097 11.43C90.2097 12.01 89.5397 12.2 88.8897 12.2H88.2297V10.76ZM88.2197 12.77H88.8597C89.6897 12.77 90.3997 12.92 90.3997 13.62C90.3997 14.33 89.5197 14.46 88.9197 14.46C88.6497 14.46 88.4697 14.45 88.2197 14.43V12.77Z" fill="black"/>
</g>
<defs>
<clipPath id="clip0_1_4">
<rect width="119.664" height="40" fill="white"/>
</clipPath>
</defs>
</svg>
