<svg width="44" height="44" viewBox="0 0 44 44" fill="none" xmlns="http://www.w3.org/2000/svg">
<path d="M21.9997 4.91675C24.373 4.91675 26.5788 5.36624 28.6296 6.25757C30.7054 7.15979 32.5137 8.38568 34.0632 9.93628V9.93726C35.615 11.4879 36.841 13.2964 37.7419 15.3718C38.5766 17.2948 39.0242 19.3529 39.0778 21.5574L39.0837 22.0007C39.0836 24.3411 38.6342 26.5402 37.7409 28.6091C36.8947 30.5687 35.7641 32.2864 34.3493 33.7712L34.0632 34.0652C32.5124 35.616 30.7035 36.8417 28.6276 37.7439C26.5769 38.6352 24.3724 39.0849 22.0007 39.0837H21.9997C19.6592 39.0837 17.4604 38.6343 15.3913 37.741C13.3011 36.8385 11.4859 35.6126 9.93524 34.0632C8.38592 32.5139 7.16006 30.6993 6.25751 28.6091C5.36417 26.5402 4.91555 24.3411 4.91669 22.0007V21.9998C4.91673 19.6265 5.36615 17.4207 6.25751 15.3699C7.15968 13.2943 8.38577 11.4866 9.93622 9.93726L9.93719 9.93628C11.4866 8.38583 13.3007 7.1607 15.3893 6.25952C17.457 5.36738 19.6564 4.91801 21.9997 4.91675ZM21.9987 29.9167C20.2561 29.9169 18.5958 30.1725 17.0251 30.6912C15.4648 31.2064 14.031 31.947 12.7302 32.9128L11.3796 33.9158L12.7292 34.9197C14.0302 35.8871 15.4643 36.6289 17.0251 37.1443C18.5962 37.663 20.2568 37.917 21.9997 37.9158C23.7429 37.9158 25.4041 37.6612 26.9753 37.1423C28.5357 36.6271 29.9693 35.8866 31.2702 34.9207L32.6208 33.9177L31.2712 32.9138C29.9701 31.9464 28.5361 31.2046 26.9753 30.6892C25.4037 30.1703 23.7422 29.9154 21.9987 29.9167ZM9.41864 12.2478C8.35702 13.608 7.5363 15.1106 6.9577 16.7498C6.3736 18.4046 6.08504 20.157 6.08368 21.9988V21.9998C6.08368 23.9431 6.40493 25.7892 7.05731 27.5271C7.70309 29.2474 8.60897 30.7944 9.77411 32.1609L10.5427 33.0632L11.4841 32.3435C12.9355 31.2336 14.5624 30.3542 16.3708 29.7078C18.0448 29.1094 19.7964 28.7902 21.6315 28.7537L21.9997 28.7498C22.5146 28.7498 23.0039 28.7716 23.4675 28.8142C23.9398 28.8577 24.4375 28.9225 24.9597 29.0085L28.7956 29.6404L21.7106 22.5554L21.2878 22.5017L21.072 22.4705C20.005 22.2927 19.1004 21.823 18.3249 21.0466C17.4972 20.2178 17.0182 19.2432 16.8688 18.0828L16.8141 17.6589L10.2888 11.1335L9.41864 12.2478ZM21.9997 6.08374C20.1524 6.08378 18.3952 6.38049 16.737 6.98315C15.1022 7.5774 13.6032 8.40485 12.2468 9.4646L11.1335 10.3347L33.6657 32.8669L34.5358 31.7527C35.5952 30.3953 36.4221 28.8969 37.0163 27.2634C37.6192 25.6061 37.9167 23.8483 37.9167 21.9998C37.9166 17.6068 36.3584 13.8275 33.2663 10.7341C30.2705 7.73703 26.6298 6.18078 22.4099 6.08765L21.9997 6.08374ZM21.9997 12.2498C23.4819 12.2498 24.6814 12.745 25.6774 13.741C26.6734 14.7369 27.1677 15.9354 27.1667 17.4158V17.4167C27.1667 17.4788 27.1639 17.5406 27.1618 17.6023L21.8132 12.2537C21.8752 12.2516 21.9373 12.2498 21.9997 12.2498Z" fill="#1686FF" stroke="#1686FF" stroke-width="2.5"/>
</svg>
