<svg width="70" height="70" viewBox="0 0 70 70" fill="none" xmlns="http://www.w3.org/2000/svg">
<g clip-path="url(#clip0_17460_12848)">
<path d="M35.0048 0C54.5772 0.0843534 70.0038 15.8384 70 35.0042C69.996 54.462 54.2072 70.0822 34.835 69.9996C15.8495 69.9186 -0.00140351 54.627 9.32096e-08 34.9914C0.00140058 15.6089 15.6003 0.0731532 35.0048 0Z" fill="#007FFE"/>
<g clip-path="url(#clip1_17460_12848)">
<path d="M55.9528 22.8741C55.9271 21.5242 55.9026 20.2489 55.9026 19.0152C55.9026 18.551 55.7182 18.1059 55.39 17.7777C55.0618 17.4495 54.6166 17.2651 54.1525 17.2651C46.6677 17.2651 40.9691 15.114 36.219 10.4956C35.8924 10.1778 35.4547 10 34.9989 10C34.5432 10 34.1055 10.1778 33.7789 10.4956C29.0293 15.114 23.3315 17.2651 15.8473 17.2651C15.3831 17.2651 14.938 17.4495 14.6098 17.7777C14.2815 18.1059 14.0972 18.551 14.0972 19.0152C14.0972 20.2492 14.0729 21.5249 14.047 22.875C13.8071 35.4377 13.4785 52.6429 34.4257 59.9036C34.7969 60.0323 35.2007 60.0323 35.5719 59.9036C56.5207 52.6426 56.1926 35.437 55.9528 22.8741ZM34.9991 56.3928C17.0341 49.8667 17.3057 35.5705 17.5468 22.9418C17.5612 22.1839 17.5752 21.4493 17.585 20.7292C24.5949 20.4333 30.2004 18.3091 34.9991 14.1288C39.7981 18.3091 45.4046 20.4335 52.4149 20.7292C52.4247 21.449 52.4387 22.1832 52.4532 22.9406C52.694 35.5698 52.9654 49.8665 34.9991 56.3928Z" fill="white"/>
<path d="M41.0258 28.9206L32.5787 37.3672L28.9742 33.7626C28.6441 33.4436 28.2018 33.2669 27.7427 33.2708C27.2837 33.2747 26.8445 33.4589 26.5199 33.7835C26.1953 34.1081 26.0112 34.5473 26.0073 35.0064C26.0035 35.4655 26.1801 35.9077 26.4992 36.2378L31.3413 41.0798C31.5036 41.2425 31.6965 41.3716 31.9089 41.4595C32.1212 41.5474 32.3489 41.5926 32.5787 41.5922C32.8086 41.5926 33.0362 41.5474 33.2486 41.4595C33.4609 41.3716 33.6538 41.2425 33.8162 41.0798L43.5005 31.3958C43.663 31.2333 43.792 31.0404 43.88 30.8281C43.968 30.6158 44.0133 30.3882 44.0133 30.1584C44.0133 29.9285 43.9681 29.7009 43.8801 29.4886C43.7922 29.2763 43.6632 29.0833 43.5007 28.9209C43.1725 28.5926 42.7274 28.4082 42.2633 28.4082C41.7992 28.4082 41.354 28.5925 41.0258 28.9206Z" fill="white"/>
</g>
</g>
<defs>
<clipPath id="clip0_17460_12848">
<rect width="70" height="70" fill="white"/>
</clipPath>
<clipPath id="clip1_17460_12848">
<rect width="50" height="50" fill="white" transform="translate(10 10)"/>
</clipPath>
</defs>
</svg>
