<?xml version="1.0" encoding="UTF-8"?>
<svg id="Layer_3" data-name="Layer 3" xmlns="http://www.w3.org/2000/svg" viewBox="0 0 400 420">
  <defs>
    <style>
      .cls-1 {
        opacity: .9;
      }

      .cls-2 {
        opacity: .82;
      }

      .cls-2, .cls-3 {
        fill: #fff;
      }
    </style>
  </defs>
  <g class="cls-1">
    <g>
      <path class="cls-3" d="M105.41,387.52c-2.1,4.04-1.92,10.59.39,14.59l10.46,17.89H0v-56.42c2.86-2.38,5.31-6.3,5.8-9.6l5.06-32.09c1.69-10.57,6.98-16.89,14.17-16.89,4.72,0,9.8,2.71,14.69,7.84l22.48,23.44c2.47,2.62,7.36,4.59,11.37,4.59.52,0,1.01-.03,1.47-.09l26.27-3.65c1.59-.22,3.14-.34,4.6-.34,6.62,0,11.67,2.31,14.21,6.51,2.85,4.71,2.34,11.3-1.45,18.57l-13.26,25.65Z"/>
      <path class="cls-3" d="M400,0v58.7h-.01l-4.05,1.35c-4.32,1.44-8.77,6.25-9.91,10.73l-6.26,25.26c-2.73,11-8.07,17.3-14.65,17.3-5.39,0-11.09-4.32-16.07-12.17l-15.27-24.12c-2.44-3.86-8.12-6.89-12.92-6.89-.22,0-.44.01-.66.02l-28.48,2c-1.14.08-2.26.12-3.34.12-8.64,0-14.65-2.68-16.94-7.55-2.49-5.32-.29-12.55,6.21-20.36l16.65-20.02c2.93-3.57,4.17-10,2.77-14.33L293.82,0h106.18Z"/>
      <path class="cls-3" d="M400,130.58v32.34h-.01s-4.14,4.66-4.14,4.66c-1.57,1.76-3.19,2.69-4.69,2.69-2.35,0-3.91-2.14-4.2-5.73l-.52-6.68c-.08-.93-.86-2.12-1.67-2.55l-6.58-3.47c-2.23-1.17-3.45-2.8-3.43-4.59.01-1.77,1.24-3.38,3.47-4.51l6.09-3.09c.73-.38,1.51-1.47,1.63-2.28l1.31-8.27c.5-3.12,2.13-4.98,4.38-4.98,1.42,0,2.92.78,4.32,2.25l4.03,4.2h.01Z"/>
      <path class="cls-3" d="M87.13,303.9c-.26.47-.94,1.25-2.51,1.25-.44,0-.92-.06-1.43-.19l-3.85-.91s-.11-.02-.18-.02c-.35,0-.79.17-.99.39l-2.62,2.94c-.93,1.04-1.92,1.6-2.87,1.6-.57,0-2.45-.25-2.71-3.5l-.28-3.59c-.03-.34-.36-.84-.65-.99l-3.54-1.87c-1.83-.97-2.09-2.22-2.09-2.88.01-.66.29-1.9,2.12-2.83l3.27-1.66c.26-.13.59-.59.63-.88l.7-4.45c.36-2.26,1.69-3.06,2.81-3.06.9,0,1.81.47,2.66,1.35l3.11,3.24c.16.18.59.37.95.37l3.72-.51c.26-.04.51-.05.75-.05,1.23,0,2.19.46,2.7,1.31.56.92.5,2.13-.17,3.42l-1.83,3.54c-.16.3-.14.9.03,1.19l1.82,3.11c1.07,1.83.84,3.02.45,3.68Z"/>
      <path class="cls-3" d="M186.58,396.44c-.59,1.03-1.91,2.27-4.82,2.27-.94,0-1.99-.13-3.12-.4l-9.23-2.2c-.22-.06-.48-.08-.75-.08-1.25,0-2.69.58-3.42,1.39l-6.31,7.07c-1.97,2.21-3.98,3.38-5.83,3.38-2.86,0-4.77-2.66-5.12-7.12l-.68-8.62c-.11-1.28-1.19-2.92-2.31-3.52l-8.49-4.47c-2.77-1.47-4.29-3.48-4.27-5.67,0-2.18,1.55-4.15,4.32-5.56l7.85-3.99c1.04-.53,2.1-2.01,2.27-3.16l1.68-10.67c.62-3.86,2.62-6.17,5.37-6.17,1.75,0,3.61.97,5.36,2.81l7.47,7.79c.7.74,2.14,1.32,3.3,1.32.13,0,.27-.01.39-.03l8.73-1.21c.56-.08,1.1-.12,1.62-.12,2.44,0,4.32.88,5.29,2.49,1.08,1.77.91,4.19-.46,6.82l-4.41,8.52c-.58,1.12-.52,3.09.12,4.21l4.37,7.46c1.74,2.99,2.13,5.64,1.08,7.46Z"/>
      <path class="cls-3" d="M247.13,36.91c-.26.46-.94,1.24-2.51,1.24-.44,0-.92-.07-1.44-.19l-3.84-.91s-.11-.02-.17-.02c-.36,0-.8.17-1,.39l-2.62,2.94c-.93,1.04-1.92,1.6-2.87,1.6-.57,0-2.45-.25-2.71-3.5l-.28-3.59c-.03-.34-.36-.84-.65-.99l-3.54-1.87c-1.83-.97-2.09-2.22-2.09-2.88.01-.66.29-1.9,2.12-2.83l3.27-1.66c.26-.13.59-.59.63-.88l.7-4.45c.36-2.26,1.69-3.06,2.81-3.06.9,0,1.81.47,2.66,1.35l3.11,3.24c.16.18.6.37.95.37l3.72-.51c.26-.04.51-.05.75-.05,1.23,0,2.19.46,2.7,1.31.56.92.5,2.13-.17,3.42l-1.83,3.54c-.16.3-.14.9.03,1.19l1.82,3.11c1.07,1.83.84,3.02.45,3.69Z"/>
    </g>
  </g>
  <path class="cls-2" d="M378.23,142.74l6.09-3.09c.73-.38,1.51-1.47,1.63-2.28l1.31-8.27c.5-3.12,2.13-4.98,4.38-4.98,1.42,0,2.92.78,4.32,2.25l4.03,4.2h.01s0-71.87,0-71.87h-.01l-4.05,1.35c-4.32,1.44-8.77,6.25-9.91,10.73l-6.26,25.26c-2.73,11-8.07,17.3-14.65,17.3-5.39,0-11.09-4.32-16.07-12.17l-15.27-24.12c-2.44-3.86-8.12-6.89-12.92-6.89-.22,0-.44.01-.66.02l-28.48,2c-1.14.08-2.26.12-3.34.12-8.64,0-14.65-2.68-16.94-7.55-2.49-5.32-.29-12.55,6.21-20.36l16.65-20.02c2.93-3.57,4.17-10,2.77-14.33L293.82,0H0v363.58c2.86-2.38,5.31-6.3,5.8-9.6l5.06-32.09c1.69-10.57,6.98-16.89,14.17-16.89,4.72,0,9.8,2.71,14.69,7.84l22.48,23.44c2.47,2.62,7.36,4.59,11.37,4.59.52,0,1.01-.03,1.47-.09l26.27-3.65c1.59-.22,3.14-.34,4.6-.34,6.62,0,11.67,2.31,14.21,6.51,2.85,4.71,2.34,11.3-1.45,18.57l-13.26,25.65c-2.1,4.04-1.92,10.59.39,14.59l10.46,17.89h283.74V162.92h-.01s-4.14,4.66-4.14,4.66c-1.57,1.76-3.19,2.69-4.69,2.69-2.35,0-3.91-2.14-4.2-5.73l-.52-6.68c-.08-.93-.86-2.12-1.67-2.55l-6.58-3.47c-2.23-1.17-3.45-2.8-3.43-4.59.01-1.77,1.24-3.38,3.47-4.51ZM87.13,303.9c-.26.47-.94,1.25-2.51,1.25-.44,0-.92-.06-1.43-.19l-3.85-.91s-.11-.02-.18-.02c-.35,0-.79.17-.99.39l-2.62,2.94c-.93,1.04-1.92,1.6-2.87,1.6-.57,0-2.45-.25-2.71-3.5l-.28-3.59c-.03-.34-.36-.84-.65-.99l-3.54-1.87c-1.83-.97-2.09-2.22-2.09-2.88.01-.66.29-1.9,2.12-2.83l3.27-1.66c.26-.13.59-.59.63-.88l.7-4.45c.36-2.26,1.69-3.06,2.81-3.06.9,0,1.81.47,2.66,1.35l3.11,3.24c.16.18.59.37.95.37l3.72-.51c.26-.04.51-.05.75-.05,1.23,0,2.19.46,2.7,1.31.56.92.5,2.13-.17,3.42l-1.83,3.54c-.16.3-.14.9.03,1.19l1.82,3.11c1.07,1.83.84,3.02.45,3.68ZM186.58,396.44c-.59,1.03-1.91,2.27-4.82,2.27-.94,0-1.99-.13-3.12-.4l-9.23-2.2c-.22-.06-.48-.08-.75-.08-1.25,0-2.69.58-3.42,1.39l-6.31,7.07c-1.97,2.21-3.98,3.38-5.83,3.38-2.86,0-4.77-2.66-5.12-7.12l-.68-8.62c-.11-1.28-1.19-2.92-2.31-3.52l-8.49-4.47c-2.77-1.47-4.29-3.48-4.27-5.67.01-2.18,1.55-4.15,4.32-5.56l7.85-3.99c1.04-.53,2.1-2.01,2.27-3.16l1.68-10.67c.62-3.86,2.62-6.17,5.37-6.17,1.75,0,3.61.97,5.36,2.81l7.47,7.79c.7.74,2.14,1.32,3.3,1.32.13,0,.27-.01.39-.03l8.73-1.21c.56-.08,1.1-.12,1.62-.12,2.44,0,4.32.88,5.29,2.49,1.08,1.77.91,4.19-.46,6.82l-4.41,8.52c-.58,1.12-.52,3.09.12,4.21l4.37,7.46c1.74,2.99,2.13,5.64,1.08,7.46ZM247.13,36.91c-.26.46-.94,1.24-2.51,1.24-.44,0-.92-.07-1.44-.19l-3.84-.91s-.11-.02-.17-.02c-.36,0-.8.17-1,.39l-2.62,2.94c-.93,1.04-1.92,1.6-2.87,1.6-.57,0-2.45-.25-2.71-3.5l-.28-3.59c-.03-.34-.36-.84-.65-.99l-3.54-1.87c-1.83-.97-2.09-2.22-2.09-2.88.01-.66.29-1.9,2.12-2.83l3.27-1.66c.26-.13.59-.59.63-.88l.7-4.45c.36-2.26,1.69-3.06,2.81-3.06.9,0,1.81.47,2.66,1.35l3.11,3.24c.16.18.6.37.95.37l3.72-.51c.26-.04.51-.05.75-.05,1.23,0,2.19.46,2.7,1.31.56.92.5,2.13-.17,3.42l-1.83,3.54c-.16.3-.14.9.03,1.19l1.82,3.11c1.07,1.83.84,3.02.45,3.69Z"/>
</svg>