<svg xmlns="http://www.w3.org/2000/svg" fill="none" viewBox="0 0 128 92">
  <path fill="#fff" d="M.363 66.202c22.293 12.897 50.835 5.254 63.752-17.072C77.032 26.804 69.432-1.75 47.14-14.647 24.848-27.545-3.695-19.901-16.612 2.425-29.529 24.75-21.929 53.305.363 66.202ZM95.14 39.086c8.362 4.837 19.068 1.97 23.913-6.404 4.845-8.374 1.995-19.085-6.367-23.922-8.362-4.838-19.068-1.971-23.913 6.403-4.845 8.374-1.994 19.085 6.367 23.923ZM69.867 85.473c5.45 3.153 12.427 1.284 15.584-4.174 3.158-5.457 1.3-12.437-4.15-15.59-5.449-3.153-12.426-1.285-15.584 4.173-3.157 5.458-1.3 12.438 4.15 15.59Z"/>
</svg>
