<svg xmlns="http://www.w3.org/2000/svg" fill="none" viewBox="0 0 200 253" preserveAspectRatio="xMidYMid meet">
  <path fill="#F4F5F8" d="M180.688 191.389c-4.693 2.892-10.611-1.753-8.823-7.25l-.414-1.657-.332-.274c-11.19-9.175-27.79-.229-26.371 14.172 1.26 12.781 1.349 26.209 5.896 38.011 1.998 5.215 4.925 10.052 8.559 14.278-21.988-16.878-40.269-38.359-53.295-62.816a188.534 188.534 0 0 1-8.793-18.961 193.262 193.262 0 0 1-5.615-16.179c-8.795-29.575-10.598-61.245-4.978-91.493 5.752-8.813 8.81-19.428 8.439-30.002-.14-3.811-.72-7.682-1.94-11.29-.86.616-10.99-12.218-10.755-13.461-2.341-1.285-5.173-1.034-7.607-2.208-12.107-5.835-20.875.98-18.99 16.668-7.857 11.21-3.127 20.342 8.132 25.552 7.162 3.315 11.743 10.522 18.599 14.503-.12.692-.262 1.376-.38 2.067-2.174 12.695-3.048 25.562-2.717 38.414C74.73 87.42 65.375 74.958 57.099 68.121 47.674 60.33 35.496 56.025 24.118 51.01 10.45 44.985-3.846 58.404 1.716 72.308l.162.403c1.312.035 2.623.118 3.93.246 7.448.733 10.12 10.328 4.143 14.81l-.136.102a82.633 82.633 0 0 0 7.67 9.827c9.343 38.514 34.7 40.849 61.819 27.118.754-.01 1.494-.012 2.241-.037a197.263 197.263 0 0 0 6.08 27.077 199.227 199.227 0 0 0 8.4 23.016c4.129 9.437 9.042 18.514 14.621 27.159l-.217-.297c-7.236-8.939-17.568-15.385-28.807-17.68-16.746-3.423-35.055 1.784-51.712.735-8.018-.505-13.194 8.422-8.387 14.908l.231.31a54.879 54.879 0 0 1 6.859-.258c1.312.036 2.623.118 3.929.246 7.449.733 10.12 10.328 4.143 14.811l-.135.102-.28.207c7.283 5.952 15.532 10.683 24.383 13.837 21.193 26.678 46.055 17.038 66.463-4.887l.016-.008a202.344 202.344 0 0 0 30.418 28.536l42.357-22.56c-.1-.554-.224-1.116-.34-1.663a54.138 54.138 0 0 1-12.095 5.539c1.075-5.556 2.133-11.143 3.208-16.699.035-.117.055-.226.075-.335.536-2.836 1.095-5.665 1.631-8.501l-.001-.003c-3.149-6.153-7.115-11.846-11.697-16.98Z"/>
</svg>
