<svg xmlns="http://www.w3.org/2000/svg" fill="none" viewBox="0 0 144 130">
  <path fill="#FFF" d="M29.916 105.628c21.958 20.059 53.94 20.758 53.94 20.758S80.24 94.563 58.283 74.504C36.326 54.445 4.343 53.746 4.343 53.746s3.617 31.822 25.575 51.882Zm38.498-62.632c6.33 10.925 3.72 24.252 3.72 24.252s-12.87-4.384-19.199-15.308c-6.329-10.924-3.72-24.252-3.72-24.252s12.87 4.384 19.199 15.308Zm26.212-2.959c-14.91 25.734-8.765 57.129-8.765 57.129s30.317-10.328 45.226-36.061c14.909-25.733 8.765-57.128 8.765-57.128s-30.317 10.327-45.226 36.06Z"/>
</svg>
