<svg xmlns="http://www.w3.org/2000/svg" fill="none" viewBox="0 0 174 208" preserveAspectRatio="xMidYMid meet">
  <path fill="#EAF1FD" d="M91.192 107.182c11.188 37.998-8.893 54.346 1.998 79.412 6.723 15.473 25.171 22.382 40.555 15.698 15.385-6.685 22.911-24.89 16.192-40.353-10.891-25.066-36.544-21.544-56.686-55.652-.608-1.016-2.387-.244-2.059.895ZM4.374 51.166c11.187 37.998-8.897 54.338 1.997 79.413 6.72 15.464 25.162 22.386 40.547 15.701 15.385-6.684 22.91-24.889 16.191-40.353-10.89-25.066-36.544-21.544-56.685-55.651-.6-1.02-2.387-.244-2.05.89Zm105.135-45.68c11.187 37.999-8.893 54.347 1.998 79.413 6.718 15.464 25.161 22.386 40.546 15.702 15.385-6.685 22.91-24.89 16.192-40.354-10.891-25.066-36.544-21.544-56.686-55.651-.608-1.017-2.387-.244-2.05.89Z"/>
</svg>
