<svg width="607" height="601" viewBox="0 0 607 601" fill="none" xmlns="http://www.w3.org/2000/svg">
<path d="M138.401 458.855C103.324 458.855 75.8128 440.372 75.8128 416.796C75.8128 393.22 103.324 374.781 138.401 374.781C173.478 374.781 200.99 393.264 200.99 416.796C200.99 440.328 173.51 458.855 138.401 458.855ZM138.401 381.41C107.045 381.41 80.5335 397.61 80.5335 416.796C80.5335 435.982 107.045 452.226 138.401 452.226C169.758 452.226 196.269 436.025 196.269 416.796C196.269 397.567 169.789 381.41 138.401 381.41Z" fill="#0066CC"/>
<path d="M183.42 445.904C183.201 445.904 183.014 445.904 182.795 445.772L80.8461 407.445C80.0958 407.181 79.4706 406.347 79.2205 405.293C78.9704 404.24 79.0954 403.098 79.5644 402.22C82.378 396.996 86.6611 392.254 92.3197 388.127C92.8511 387.732 93.4451 387.645 94.0079 387.864L195.988 426.235C196.738 426.542 197.363 427.333 197.613 428.386C197.864 429.44 197.739 430.582 197.27 431.46C194.456 436.684 190.173 441.426 184.514 445.552C184.17 445.816 183.795 445.948 183.42 445.948V445.904ZM85.8169 402.396L183.139 439.011C186.327 436.596 188.954 434.006 191.048 431.24L93.6952 394.625C90.5064 397.04 87.8803 399.63 85.7857 402.396H85.8169Z" fill="#0066CC"/>
<path d="M138.401 483.528C103.324 483.528 75.8128 465.045 75.8128 441.469C75.8128 441.338 75.8128 441.25 75.8128 441.118V440.987L76.0004 419.957C76.0004 418.245 76.9695 416.84 78.1888 416.708C79.408 416.577 80.5022 417.762 80.7211 419.43C81.065 422.108 81.9091 424.699 83.2221 427.201C90.9128 441.952 113.61 452.27 138.433 452.27C163.255 452.27 185.952 441.952 193.612 427.201C195.269 424.04 196.144 420.791 196.269 417.498C196.332 415.611 197.426 414.206 198.739 414.25C200.052 414.337 201.052 415.874 200.99 417.718C200.834 422.811 200.896 428.123 200.959 433.26C200.959 435.938 201.021 438.747 201.021 441.426C201.021 465.001 173.541 483.485 138.433 483.485L138.401 483.528ZM80.6273 433.26L80.5648 441.03C80.5648 441.03 80.5648 441.25 80.5648 441.382V441.469C80.5648 460.655 107.045 476.855 138.401 476.855C169.758 476.855 196.269 460.655 196.269 441.426C196.269 438.791 196.269 436.025 196.207 433.347V433.216C186.703 448.626 163.912 458.855 138.401 458.855C112.891 458.855 90.1625 448.67 80.6273 433.26Z" fill="#0066CC"/>
<path d="M214.245 566.154C179.137 566.154 151.657 547.67 151.657 524.095C151.657 500.519 179.137 482.036 214.245 482.036C249.354 482.036 276.834 500.519 276.834 524.095C276.834 547.67 249.354 566.154 214.245 566.154ZM214.245 488.709C182.889 488.709 156.378 504.909 156.378 524.139C156.378 543.368 182.857 559.524 214.245 559.524C245.633 559.524 272.113 543.324 272.113 524.139C272.113 504.953 245.633 488.709 214.245 488.709Z" fill="#0066CC"/>
<path d="M259.233 553.158C259.045 553.158 258.826 553.158 258.608 553.027L156.659 514.656C155.909 514.348 155.283 513.558 155.033 512.504C154.783 511.451 154.908 510.309 155.377 509.431C158.191 504.163 162.505 499.465 168.132 495.382C168.664 494.987 169.258 494.899 169.821 495.119L271.769 533.446C272.52 533.709 273.145 534.544 273.395 535.553C273.645 536.607 273.52 537.748 273.051 538.626C270.206 543.895 265.923 548.636 260.296 552.719C259.952 552.983 259.577 553.071 259.202 553.071L259.233 553.158ZM161.63 509.694L258.951 546.309C262.078 543.939 264.766 541.305 266.83 538.539L169.508 501.968C166.382 504.338 163.693 506.972 161.63 509.694Z" fill="#0066CC"/>
<path d="M214.245 590.827C179.137 590.827 151.657 572.344 151.657 548.812C151.657 548.592 151.657 548.417 151.657 548.197L151.844 527.256C151.844 525.543 152.814 524.139 154.033 524.007C155.252 523.875 156.346 525.061 156.565 526.729C156.909 529.363 157.722 531.997 159.066 534.544C166.757 549.295 189.454 559.568 214.277 559.568C239.099 559.568 261.765 549.295 269.456 534.544C271.113 531.383 271.988 528.134 272.113 524.841C272.176 522.953 273.27 521.504 274.583 521.636C275.896 521.724 276.896 523.26 276.834 525.104C276.678 530.197 276.74 535.509 276.803 540.69C276.803 543.368 276.865 546.178 276.865 548.856C276.865 572.432 249.385 590.871 214.277 590.871L214.245 590.827ZM156.471 540.602L156.409 548.373V548.812C156.409 567.998 182.889 584.198 214.245 584.198C245.602 584.198 272.113 567.998 272.113 548.812C272.113 546.178 272.113 543.412 272.051 540.734V540.602C262.547 556.012 239.725 566.241 214.245 566.241C188.766 566.241 166.007 556.056 156.471 540.646V540.602Z" fill="#0066CC"/>
<path d="M62.5573 566.154C27.4802 566.154 0 547.67 0 524.095C0 500.519 27.4802 482.036 62.5573 482.036C97.6344 482.036 125.146 500.519 125.146 524.095C125.146 547.67 97.6656 566.154 62.5573 566.154ZM62.5573 488.709C31.2005 488.709 4.72071 504.909 4.72071 524.139C4.72071 543.368 31.2005 559.524 62.5573 559.524C93.9141 559.524 120.425 543.324 120.425 524.139C120.425 504.953 93.9453 488.709 62.5573 488.709Z" fill="#0066CC"/>
<path d="M107.576 553.158C107.357 553.158 107.17 553.158 106.951 553.027L5.00208 514.699C4.25177 514.392 3.62651 513.602 3.3764 512.548C3.1263 511.495 3.25135 510.353 3.7203 509.475C6.53397 504.207 10.8483 499.509 16.4756 495.426C17.0071 495.031 17.6011 494.943 18.1638 495.163L120.112 533.49C120.863 533.753 121.488 534.587 121.738 535.597C121.988 536.651 121.863 537.792 121.394 538.67C118.549 543.939 114.266 548.68 108.639 552.763C108.295 553.027 107.92 553.114 107.545 553.114L107.576 553.158ZM9.9729 509.694L107.295 546.309C110.421 543.939 113.11 541.305 115.173 538.539L17.8512 501.924C14.7249 504.294 12.0363 506.929 9.9729 509.651V509.694Z" fill="#0066CC"/>
<path d="M62.5573 590.827C27.4802 590.827 0 572.344 0 548.812C0 548.592 0 548.417 0 548.197L0.187578 527.256C0.187578 525.543 1.12547 524.139 2.34473 524.007C3.56398 523.875 4.65819 525.061 4.87703 526.729C5.22092 529.363 6.06502 531.997 7.37807 534.544C15.0688 549.295 37.7657 559.568 62.5573 559.568C87.3488 559.568 110.077 549.295 117.768 534.544C119.425 531.383 120.3 528.09 120.425 524.797C120.488 522.953 121.582 521.504 122.895 521.636C124.208 521.724 125.208 523.26 125.146 525.104C124.989 530.197 125.052 535.597 125.115 540.778C125.115 543.412 125.177 546.178 125.177 548.856C125.177 572.432 97.6969 590.871 62.5885 590.871L62.5573 590.827ZM4.8145 540.602L4.75198 548.373C4.75198 548.373 4.75198 548.549 4.75198 548.636V548.768C4.75198 567.954 31.2317 584.154 62.5885 584.154C93.9453 584.154 120.456 567.954 120.456 548.768C120.456 546.134 120.456 543.412 120.394 540.822V540.558C110.859 555.968 88.0679 566.154 62.5885 566.154C37.1092 566.154 14.3497 555.968 4.8145 540.558V540.602Z" fill="#0066CC"/>
<path fill-rule="evenodd" clip-rule="evenodd" d="M449.693 430.523L449.949 430.267L411.056 391.375C394.433 374.751 367.481 374.751 350.858 391.375C334.234 407.998 334.234 434.95 350.858 451.573L389.75 490.466L390.006 490.21C394.334 494.538 411.203 484.685 427.686 468.203C444.168 451.72 454.021 434.851 449.693 430.523ZM390.378 481.543C393.436 474.055 401.333 463.212 412.014 452.531C422.695 441.85 433.539 433.953 441.026 430.895L406.281 396.15C392.295 382.163 369.619 382.163 355.633 396.15C341.646 410.136 341.646 432.812 355.633 446.798L390.378 481.543ZM438.817 439.555C440.276 438.702 441.568 438.036 442.685 437.531C442.18 438.648 441.514 439.94 440.662 441.399C437.047 447.588 430.864 455.474 422.911 463.428C414.957 471.381 407.071 477.564 400.882 481.179C399.423 482.031 398.131 482.697 397.014 483.202C397.519 482.085 398.185 480.793 399.037 479.334C402.652 473.145 408.835 465.26 416.789 457.306C424.743 449.352 432.628 443.169 438.817 439.555ZM395.735 487.318C395.731 487.321 395.727 487.279 395.734 487.182C395.742 487.266 395.739 487.315 395.735 487.318ZM446.665 436.251C446.762 436.244 446.804 436.248 446.801 436.252C446.798 436.256 446.749 436.259 446.665 436.251Z" fill="#0066CC"/>
<path fill-rule="evenodd" clip-rule="evenodd" d="M477.412 430.523L477.156 430.267L516.049 391.375C532.672 374.751 559.624 374.751 576.247 391.375C592.871 407.998 592.871 434.95 576.247 451.573L537.355 490.466L537.099 490.21C532.771 494.538 515.902 484.685 499.42 468.203C482.937 451.72 473.084 434.851 477.412 430.523ZM536.727 481.543C533.669 474.055 525.772 463.212 515.091 452.531C504.41 441.85 493.567 433.953 486.079 430.895L520.824 396.15C534.81 382.163 557.486 382.163 571.472 396.15C585.459 410.136 585.459 432.812 571.472 446.798L536.727 481.543ZM488.288 439.555C486.829 438.702 485.537 438.036 484.42 437.531C484.925 438.648 485.591 439.94 486.443 441.399C490.058 447.588 496.241 455.474 504.195 463.428C512.148 471.381 520.034 477.564 526.223 481.179C527.682 482.031 528.974 482.697 530.091 483.202C529.586 482.085 528.92 480.793 528.068 479.334C524.453 473.145 518.27 465.26 510.316 457.306C502.362 449.352 494.477 443.169 488.288 439.555ZM531.37 487.318C531.374 487.321 531.378 487.279 531.371 487.182C531.363 487.266 531.366 487.315 531.37 487.318ZM480.44 436.251C480.343 436.244 480.301 436.248 480.304 436.252C480.307 436.256 480.356 436.259 480.44 436.251Z" fill="#0066CC"/>
<path fill-rule="evenodd" clip-rule="evenodd" d="M476.073 594.247C477.938 594.247 479.449 592.736 479.449 590.871C479.449 589.006 477.938 587.495 476.073 587.495C474.208 587.495 472.697 589.006 472.697 590.871C472.697 592.736 474.208 594.247 476.073 594.247ZM476.073 601C481.667 601 486.202 596.465 486.202 590.871C486.202 585.277 481.667 580.742 476.073 580.742C470.479 580.742 465.944 585.277 465.944 590.871C465.944 596.465 470.479 601 476.073 601Z" fill="#0066CC"/>
<path fill-rule="evenodd" clip-rule="evenodd" d="M438.933 530.096C442.662 530.096 445.685 527.072 445.685 523.343C445.685 519.613 442.662 516.59 438.933 516.59C435.203 516.59 432.18 519.613 432.18 523.343C432.18 527.072 435.203 530.096 438.933 530.096ZM438.933 536.848C446.392 536.848 452.438 530.802 452.438 523.343C452.438 515.884 446.392 509.837 438.933 509.837C431.474 509.837 425.427 515.884 425.427 523.343C425.427 530.802 431.474 536.848 438.933 536.848Z" fill="#0066CC"/>
<path fill-rule="evenodd" clip-rule="evenodd" d="M492.955 553.73C498.549 553.73 503.084 549.195 503.084 543.601C503.084 538.007 498.549 533.472 492.955 533.472C487.361 533.472 482.826 538.007 482.826 543.601C482.826 549.195 487.361 553.73 492.955 553.73ZM492.955 560.483C502.279 560.483 509.837 552.925 509.837 543.601C509.837 534.277 502.279 526.719 492.955 526.719C483.631 526.719 476.073 534.277 476.073 543.601C476.073 552.925 483.631 560.483 492.955 560.483Z" fill="#0066CC"/>
<path fill-rule="evenodd" clip-rule="evenodd" d="M477.761 503.084C484.288 503.084 489.579 497.794 489.579 491.267C489.579 484.74 484.288 479.45 477.761 479.45C471.235 479.45 465.944 484.74 465.944 491.267C465.944 497.794 471.235 503.084 477.761 503.084ZM477.761 509.837C488.017 509.837 496.331 501.523 496.331 491.267C496.331 481.011 488.017 472.697 477.761 472.697C467.505 472.697 459.191 481.011 459.191 491.267C459.191 501.523 467.505 509.837 477.761 509.837Z" fill="#0066CC"/>
<path fill-rule="evenodd" clip-rule="evenodd" d="M449.062 570.612C450.927 570.612 452.438 569.101 452.438 567.236C452.438 565.371 450.927 563.859 449.062 563.859C447.197 563.859 445.685 565.371 445.685 567.236C445.685 569.101 447.197 570.612 449.062 570.612ZM449.062 577.365C454.656 577.365 459.191 572.83 459.191 567.236C459.191 561.642 454.656 557.107 449.062 557.107C443.468 557.107 438.933 561.642 438.933 567.236C438.933 572.83 443.468 577.365 449.062 577.365Z" fill="#0066CC"/>
<path fill-rule="evenodd" clip-rule="evenodd" d="M382.699 71.6709H223.533C204.568 71.6709 189.194 87.0453 189.194 106.011V287.79C189.194 306.755 204.568 322.129 223.533 322.129H382.7C401.665 322.129 417.039 306.755 417.039 287.79V106.011C417.039 87.0453 401.665 71.6709 382.699 71.6709ZM223.533 64.803C200.775 64.803 182.326 83.2522 182.326 106.011V287.79C182.326 310.548 200.775 328.997 223.533 328.997H382.7C405.458 328.997 423.907 310.548 423.907 287.79V106.011C423.907 83.2522 405.458 64.803 382.699 64.803H223.533Z" fill="#0066CC"/>
<path fill-rule="evenodd" clip-rule="evenodd" d="M356.387 128.418H249.854C242.459 128.418 236.463 134.414 236.463 141.809V237.84C236.463 245.235 242.459 251.231 249.854 251.231H356.387C363.782 251.231 369.777 245.235 369.777 237.84V141.809C369.777 134.414 363.782 128.418 356.387 128.418ZM249.854 121.551C238.666 121.551 229.596 130.621 229.596 141.809V237.84C229.596 249.028 238.666 258.098 249.854 258.098H356.387C367.575 258.098 376.645 249.028 376.645 237.84V141.809C376.645 130.621 367.575 121.551 356.387 121.551H249.854Z" fill="#0066CC"/>
<path d="M316.659 233.801H290.26C288.789 233.801 287.599 232.611 287.599 231.14V205.826H262.25C260.78 205.826 259.589 204.636 259.589 203.166V176.801C259.589 175.331 260.78 174.14 262.25 174.14H287.599V148.826C287.599 147.356 288.789 146.166 290.26 146.166H316.659C318.129 146.166 319.319 147.356 319.319 148.826V174.14H344.668C346.138 174.14 347.329 175.331 347.329 176.801V203.166C347.329 204.636 346.138 205.826 344.668 205.826H319.319V231.14C319.319 232.611 318.129 233.801 316.659 233.801ZM292.921 228.514H313.998V203.201C313.998 201.73 315.188 200.54 316.659 200.54H342.007V179.462H316.659C315.188 179.462 313.998 178.272 313.998 176.801V151.487H292.921V176.801C292.921 178.272 291.73 179.462 290.26 179.462H264.911V200.54H290.26C291.73 200.54 292.921 201.73 292.921 203.201V228.514Z" fill="#0066CC"/>
<path fill-rule="evenodd" clip-rule="evenodd" d="M374.296 6.86793H229.941C222.355 6.86793 216.205 13.0177 216.205 20.6038V49.4208C216.205 57.0069 222.355 63.1566 229.941 63.1566H374.296C381.882 63.1566 388.032 57.0069 388.032 49.4208V20.6038C388.032 13.0177 381.882 6.86793 374.296 6.86793ZM229.941 0C218.562 0 209.337 9.22464 209.337 20.6038V49.4208C209.337 60.7999 218.562 70.0246 229.941 70.0246H374.296C385.675 70.0246 394.899 60.7999 394.899 49.4208V20.6038C394.899 9.22463 385.675 0 374.296 0H229.941Z" fill="#0066CC"/>
</svg>
