<svg width="74" height="94" viewBox="0 0 74 94" fill="none" xmlns="http://www.w3.org/2000/svg">
<path d="M66.4839 71.744C64.7804 72.797 62.5943 71.0382 63.2235 69.001L63.0647 68.3819C63.0239 68.3473 62.983 68.3128 62.9419 68.2783C58.8072 64.807 52.7757 68.0531 53.3601 73.4206C53.8788 78.1845 53.9721 83.1833 55.6886 87.5993C56.443 89.5504 57.5356 91.3658 58.8841 92.957C50.7649 86.5638 43.9807 78.4758 39.1053 69.3067C37.8804 67.0028 36.7768 64.6345 35.8032 62.2046C35.0079 60.2163 34.2959 58.1986 33.6758 56.1539C30.325 45.1009 29.5221 33.3033 31.4408 22.0727C33.5049 18.8214 34.5753 14.8856 34.392 10.9475C34.3237 9.52823 34.094 8.08466 33.6314 6.73551C33.3192 6.96028 29.5561 2.13212 29.6363 1.67054C28.7742 1.18066 27.7395 1.25947 26.8438 0.810461C22.389 -1.4227 19.2125 1.06973 19.9726 6.91909C17.1499 11.052 18.9214 14.4752 23.0631 16.4712C25.6981 17.7411 27.4062 20.447 29.932 21.9634C29.8916 22.2202 29.8426 22.4741 29.8022 22.7308C29.0648 27.4453 28.8032 32.2303 28.9824 37.0159C27.255 32.5099 23.7767 27.8243 20.7188 25.2377C17.2361 22.2897 12.7617 20.6264 8.57712 18.702C3.55074 16.3905 -1.61816 21.314 0.479225 26.5169C0.499529 26.5672 0.519958 26.6175 0.540485 26.6678C1.02063 26.6876 1.50045 26.7249 1.97874 26.7793C4.70689 27.0896 5.72722 30.6746 3.56144 32.3131L3.51239 32.3502C4.37306 33.6495 5.3214 34.8874 6.36236 36.0467C9.9543 50.4298 19.2402 51.4266 29.0974 46.452C29.3735 46.4522 29.6441 46.4553 29.9172 46.4498C30.4654 49.8632 31.2518 53.2454 32.2637 56.5592C33.1504 59.4912 34.2123 62.3668 35.4404 65.1688C36.9935 68.702 38.8317 72.1058 40.9114 75.3517L40.8309 75.2402C38.1436 71.8763 34.335 69.4247 30.2135 68.514C24.0728 67.1554 17.3991 69.0012 11.3014 68.5268C8.36609 68.2985 6.51343 71.5955 8.30102 74.0339L8.38694 74.1505C9.2178 74.0762 10.0565 74.0566 10.8945 74.0889C11.3747 74.1088 11.8545 74.146 12.3328 74.2004C15.061 74.5108 16.0813 78.0957 13.9155 79.7343L13.8664 79.7714C13.8308 79.7977 13.8008 79.821 13.7653 79.8473C16.4559 82.0994 19.4946 83.9018 22.7466 85.1204C30.6193 95.1575 39.6699 91.6947 47.0359 83.6362L47.0414 83.6333C50.4233 87.5982 54.2083 91.2165 58.2973 94.4085L73.6887 86.2247C73.6494 86.0177 73.6015 85.8079 73.5567 85.6038C72.1822 86.4524 70.7022 87.129 69.1577 87.6048C69.5257 85.5419 69.8876 83.4677 70.2556 81.4049C70.2679 81.3616 70.2748 81.3211 70.2816 81.2808C70.4647 80.2278 70.6564 79.1776 70.8395 78.1247L70.8394 78.1236C69.6596 75.8174 68.183 73.6781 66.4839 71.744Z" fill="white"/>
</svg>
