<svg xmlns="http://www.w3.org/2000/svg" fill="none" viewBox="0 0 124 121">
  <path fill="#fff" d="M44.877 40.066c6.727 22.85-5.348 32.68 1.2 47.753 4.043 9.304 15.137 13.459 24.388 9.44 9.251-4.02 13.776-14.968 9.736-24.266-6.549-15.073-21.975-12.955-34.086-33.465-.366-.611-1.436-.147-1.238.538ZM-7.33 6.382c6.728 22.85-5.35 32.675 1.202 47.753 4.04 9.299 15.13 13.461 24.381 9.442 9.252-4.02 13.777-14.967 9.737-24.266C21.44 24.24 6.015 26.357-6.097 5.847c-.36-.614-1.435-.147-1.233.535Zm63.22-27.468c6.728 22.85-5.347 32.68 1.202 47.753 4.04 9.298 15.13 13.461 24.382 9.441 9.251-4.02 13.776-14.966 9.736-24.265C84.661-3.23 69.235-1.112 57.124-21.622c-.366-.61-1.436-.146-1.233.536Z"/>
</svg>
