<svg width="70" height="70" viewBox="0 0 70 70" fill="none" xmlns="http://www.w3.org/2000/svg">
<g clip-path="url(#clip0_6789_1096)">
<path d="M35 70C54.33 70 70 54.33 70 35C70 15.67 54.33 0 35 0C15.67 0 0 15.67 0 35C0 54.33 15.67 70 35 70Z" fill="#FF87B9"/>
<path d="M34.2898 22.6338L18.3823 46.8106L33.9954 46.8106C34.555 46.8106 35.01 47.2502 35.01 47.7922V51.897C35.01 52.439 34.555 52.8786 33.9954 52.8786L11.3095 52.8786C10.7499 52.8786 10.2949 52.439 10.2949 51.897L10.2949 47.6084C10.2949 47.3798 10.3627 47.1592 10.4866 46.9674L26.4444 22.7906L11.7858 22.7906C11.2262 22.7906 10.7712 22.351 10.7712 21.809L10.7712 17.7043C10.7712 17.1622 11.2262 16.7227 11.7858 16.7227L33.465 16.7227C34.0246 16.7227 34.4796 17.1622 34.4796 17.7043L34.4796 21.9948C34.4814 22.2232 34.4156 22.444 34.2898 22.6338Z" fill="white"/>
<path d="M38.6458 25.6076L42.8104 25.6076C43.4706 25.6076 44.007 26.1788 44.007 26.8816L44.007 51.9976C44.007 52.7024 43.4706 53.2716 42.8104 53.2716L38.6458 53.2716C37.9856 53.2716 37.4492 52.7004 37.4492 51.9976L37.4492 26.8836C37.4492 26.1788 37.9836 25.6076 38.6458 25.6076ZM44.007 28.0086C45.1938 27.1296 46.6538 25.356 50.772 25.2088C53.6104 25.1062 55.8118 26.1904 57.3684 28.1538C58.927 30.117 59.7054 32.8934 59.7054 36.483L59.7054 51.9996C59.7054 52.7042 59.169 53.2734 58.5088 53.2734L54.7314 53.2734C54.0712 53.2734 53.5348 52.7024 53.5348 51.9996L53.5348 36.5082C53.5348 34.9806 53.1632 33.8654 52.346 33.031C51.529 32.1964 50.1214 31.757 48.3982 32.0492C46.1 32.4384 44.7834 34.3358 44.009 35.1452" fill="white"/>
</g>
<defs>
<clipPath id="clip0_6789_1096">
<rect width="70" height="70" fill="white"/>
</clipPath>
</defs>
</svg>
