<svg width="44" height="44" viewBox="0 0 44 44" fill="none" xmlns="http://www.w3.org/2000/svg">
<g clip-path="url(#clip0_1001_15)">
<path fill-rule="evenodd" clip-rule="evenodd" d="M22 7.33333C22 7.81956 22.1932 8.28588 22.537 8.6297C22.8808 8.97351 23.3471 9.16667 23.8333 9.16667H32.241L22.5372 18.8705C22.2809 19.1269 22.1063 19.4535 22.0356 19.8091C21.9649 20.1647 22.0012 20.5333 22.1399 20.8682C22.2787 21.2031 22.5136 21.4894 22.815 21.6909C23.1164 21.8924 23.4708 21.9999 23.8333 22H36.6667C37.1529 22 37.6192 21.8068 37.963 21.463C38.3068 21.1192 38.5 20.6529 38.5 20.1667C38.5 19.6804 38.3068 19.2141 37.963 18.8703C37.6192 18.5265 37.1529 18.3333 36.6667 18.3333H28.259L37.9628 8.6295C38.2192 8.3731 38.3937 8.04647 38.4644 7.69089C38.5351 7.33531 38.4988 6.96675 38.3601 6.6318C38.2213 6.29685 37.9864 6.01055 37.685 5.8091C37.3836 5.60764 37.0292 5.50008 36.6667 5.5H23.8333C23.3471 5.5 22.8808 5.69315 22.537 6.03697C22.1932 6.38079 22 6.8471 22 7.33333ZM7.33333 18.3333C6.8471 18.3333 6.38079 18.1402 6.03697 17.7964C5.69315 17.4525 5.5 16.9862 5.5 16.5C5.5 16.0138 5.69315 15.5475 6.03697 15.2036C6.38079 14.8598 6.8471 14.6667 7.33333 14.6667H16.5C16.8625 14.6667 17.2169 14.7743 17.5183 14.9758C17.8198 15.1772 18.0547 15.4635 18.1934 15.7985C18.3321 16.1334 18.3684 16.502 18.2977 16.8576C18.227 17.2131 18.0525 17.5398 17.7962 17.7962L11.759 23.8333H16.5C16.9862 23.8333 17.4525 24.0265 17.7964 24.3703C18.1402 24.7141 18.3333 25.1804 18.3333 25.6667C18.3333 26.1529 18.1402 26.6192 17.7964 26.963C17.4525 27.3068 16.9862 27.5 16.5 27.5H7.33333C6.97079 27.4999 6.61641 27.3924 6.31499 27.1909C6.01357 26.9894 5.77865 26.7031 5.63992 26.3682C5.5012 26.0333 5.46489 25.6647 5.5356 25.3091C5.6063 24.9535 5.78085 24.6269 6.03717 24.3705L12.0743 18.3333H7.33333ZM22 31.1667C21.5138 31.1667 21.0475 30.9735 20.7036 30.6297C20.3598 30.2859 20.1667 29.8196 20.1667 29.3333C20.1667 28.8471 20.3598 28.3808 20.7036 28.037C21.0475 27.6932 21.5138 27.5 22 27.5H29.3333C29.6959 27.5001 30.0503 27.6076 30.3517 27.8091C30.6531 28.0106 30.888 28.2969 31.0267 28.6318C31.1655 28.9668 31.2018 29.3353 31.1311 29.6909C31.0604 30.0465 30.8858 30.3731 30.6295 30.6295L26.4257 34.8333H29.3333C29.8196 34.8333 30.2859 35.0265 30.6297 35.3703C30.9735 35.7141 31.1667 36.1804 31.1667 36.6667C31.1667 37.1529 30.9735 37.6192 30.6297 37.963C30.2859 38.3068 29.8196 38.5 29.3333 38.5H22C21.6375 38.4999 21.2831 38.3924 20.9817 38.1909C20.6802 37.9894 20.4453 37.7031 20.3066 37.3682C20.1679 37.0333 20.1316 36.6647 20.2023 36.3091C20.273 35.9535 20.4475 35.6269 20.7038 35.3705L24.9077 31.1667H22Z" fill="#000"/>
</g>
<defs>
<clipPath id="clip0_1001_15">
<rect width="44" height="44" fill="white"/>
</clipPath>
</defs>
</svg>
