<svg width="34" height="34" viewBox="0 0 34 34" fill="none" xmlns="http://www.w3.org/2000/svg">
<path d="M24.3333 22.5C27.371 22.5 29.8333 24.9624 29.8333 28C29.8333 31.0377 27.371 33.5 24.3333 33.5C21.2957 33.5 18.8333 31.0377 18.8333 28C18.8333 24.9624 21.2957 22.5 24.3333 22.5ZM7.83333 15.1667C11.8834 15.1667 15.1667 18.45 15.1667 22.5C15.1667 26.55 11.8834 29.8333 7.83333 29.8333C3.78324 29.8333 0.5 26.55 0.5 22.5C0.5 18.45 3.78324 15.1667 7.83333 15.1667ZM24.3333 0.5C29.3959 0.5 33.5 4.60406 33.5 9.66667C33.5 14.7292 29.3959 18.8333 24.3333 18.8333C19.2708 18.8333 15.1667 14.7292 15.1667 9.66667C15.1667 4.60406 19.2708 0.5 24.3333 0.5Z" fill="#000"/>
</svg>
