<svg width="46" height="46" viewBox="0 0 46 46" fill="none" xmlns="http://www.w3.org/2000/svg">
<rect width="46" height="46" rx="23" fill="#258DE3"/>
<path d="M34 25.8774V34H29.4798V26.3726C29.4798 24.4906 28.8206 23.2029 27.2198 23.2029C25.9955 23.2029 25.2422 24.0943 24.9596 24.8869C24.8654 25.1839 24.7713 25.5802 24.7713 26.0754V34H20.2512C20.2512 34 20.3452 21.1226 20.2512 19.835H24.7713V21.816C25.3364 20.8255 26.4663 19.4387 28.8206 19.4387C31.7398 19.4387 34 21.5189 34 25.8774ZM15.5425 13C14.0359 13 13 14.0896 13 15.4764C13 16.8632 13.9416 17.9528 15.4485 17.9528C17.0494 17.9528 17.991 16.8632 17.991 15.4764C18.0852 13.9905 17.1434 13 15.5425 13ZM13.2825 34H17.8027V19.835H13.2825V34Z" fill="#F2F7FF"/>
</svg>
