<svg width="22" height="22" viewBox="0 0 22 22" fill="none" xmlns="http://www.w3.org/2000/svg">
<path id="Vector" d="M22 13.4906V22H17.2646V14.0094C17.2646 12.0377 16.5739 10.6887 14.8969 10.6887C13.6143 10.6887 12.8251 11.6226 12.5291 12.4529C12.4304 12.7641 12.3319 13.1792 12.3319 13.6981V22H7.59645C7.59645 22 7.69501 8.50944 7.59645 7.16044H12.3319V9.23577C12.9238 8.1981 14.1076 6.74528 16.5739 6.74528C19.6322 6.74528 22 8.92459 22 13.4906ZM2.66361 0C1.08519 0 0 1.14149 0 2.59432C0 4.04714 0.986481 5.18863 2.56505 5.18863C4.24219 5.18863 5.22867 4.04714 5.22867 2.59432C5.32737 1.03766 4.34075 0 2.66361 0ZM0.295974 22H5.0314V7.16044H0.295974V22Z" fill="white"/>
</svg>
