<svg width="70" height="70" viewBox="0 0 70 70" fill="none" xmlns="http://www.w3.org/2000/svg">
<g clip-path="url(#clip0_6789_1201)">
<path d="M35 70C54.33 70 70 54.33 70 35C70 15.67 54.33 0 35 0C15.67 0 0 15.67 0 35C0 54.33 15.67 70 35 70Z" fill="#007FFE"/>
<path d="M44 19.8768L43.7356 19.8731L42.2705 41.0848L36.8637 42C36.6244 41.6412 36.3137 41.3183 35.9179 41.138C35.5242 40.9575 34.6556 40.9498 34.2308 41.1397C33.9028 41.2879 33.476 41.6506 33.2812 41.9488H33.2521L27.7875 40.7943L27 19.5426L27.1043 19.4591C28.3588 18.464 29.8297 17.7671 31.4011 17.4196C33.7598 16.9011 36.1996 16.8631 38.5741 17.3056L39.1029 17.4044L39.1357 17.4101C40.1375 17.5981 41.1047 17.9228 42.0118 18.3728C42.7628 18.7469 43.4287 19.2673 44 19.8768Z" fill="white"/>
<path d="M25.5371 64.1011L30.5491 38.8931" stroke="white" stroke-width="6" stroke-miterlimit="10" stroke-linecap="round"/>
<path d="M44.4888 64.1011L39.4766 38.8931" stroke="white" stroke-width="6" stroke-miterlimit="10" stroke-linecap="round"/>
<path d="M35.5 34C42.4037 34 48 32.8808 48 31.5001C48 30.1192 42.4037 29 35.5 29C28.5966 29 23 30.1192 23 31.5001C23 32.8808 28.5966 34 35.5 34Z" stroke="#C7622D" stroke-width="0.5" stroke-miterlimit="10"/>
<path d="M35.5 35C42.4037 35 48 33.8808 48 32.5001C48 31.1194 42.4037 30 35.5 30C28.5966 30 23 31.1194 23 32.5001C23 33.8808 28.5966 35 35.5 35Z" stroke="#C7622D" stroke-width="0.5" stroke-miterlimit="10"/>
<path d="M35.5 36C42.4037 36 48 34.6569 48 33C48 31.3431 42.4037 30 35.5 30C28.5966 30 23 31.3431 23 33C23 34.6569 28.5966 36 35.5 36Z" stroke="#C7622D" stroke-width="0.5" stroke-miterlimit="10"/>
<path d="M35.5 36C42.4037 36 48 34.8807 48 33.5C48 32.1193 42.4037 31 35.5 31C28.5966 31 23 32.1193 23 33.5C23 34.8807 28.5966 36 35.5 36Z" stroke="#C7622D" stroke-width="0.5" stroke-miterlimit="10"/>
<path d="M35.5 37C42.4037 37 48 35.6569 48 34C48 32.3431 42.4037 31 35.5 31C28.5966 31 23 32.3431 23 34C23 35.6569 28.5966 37 35.5 37Z" stroke="#C7622D" stroke-width="0.5" stroke-miterlimit="10"/>
<path d="M35.5 37C42.4037 37 48 35.8807 48 34.5C48 33.1193 42.4037 32 35.5 32C28.5966 32 23 33.1193 23 34.5C23 35.8807 28.5966 37 35.5 37Z" stroke="#C7622D" stroke-width="0.5" stroke-miterlimit="10"/>
<path d="M27 25L27.5 33H43L43.5 25L35.0051 27L27 25Z" fill="white"/>
<path d="M34.9999 13.4607C38.3571 13.4607 41.0787 10.7391 41.0787 7.38185C41.0787 4.02459 38.3571 1.30298 34.9999 1.30298C31.6425 1.30298 28.9209 4.02459 28.9209 7.38185C28.9209 10.7391 31.6425 13.4607 34.9999 13.4607Z" fill="white"/>
<path d="M10.3018 33.6389L30.5188 19.3885C33.5138 17.2763 37.6586 17.3809 40.5296 19.6401L59.711 33.7821" stroke="white" stroke-width="6" stroke-miterlimit="10" stroke-linecap="round"/>
</g>
<defs>
<clipPath id="clip0_6789_1201">
<rect width="70" height="70" fill="white"/>
</clipPath>
</defs>
</svg>
