<svg width="350" height="350" viewBox="0 0 350 350" fill="none" xmlns="http://www.w3.org/2000/svg">
<path d="M175 350C271.65 350 350 271.65 350 175C350 78.3502 271.65 0 175 0C78.3502 0 0 78.3502 0 175C0 271.65 78.3502 350 175 350Z" fill="#6CBA4B"/>
<path d="M219.924 99.2364L218.598 99.2171L211.251 207.34L184.138 212.005C182.938 210.176 181.38 208.53 179.395 207.611C177.421 206.691 173.065 206.652 170.935 207.62C169.29 208.375 167.15 210.224 166.173 211.744H166.027L138.624 205.859L134.675 97.5328L135.198 97.1069C141.489 92.0347 148.865 88.4823 156.745 86.7109C168.573 84.0683 180.808 83.8747 192.715 86.1301L195.367 86.6334L195.531 86.6625C200.555 87.6208 205.405 89.276 209.954 91.5701C213.72 93.477 217.059 96.1293 219.924 99.2364Z" fill="white"/>
<path d="M127.687 320.506L152.747 194.466" stroke="white" stroke-width="34" stroke-miterlimit="10" stroke-linecap="round"/>
<path d="M222.442 320.506L197.381 194.466" stroke="white" stroke-width="34" stroke-miterlimit="10" stroke-linecap="round"/>
<path d="M175.398 171.738C204.78 171.738 228.598 165.788 228.598 158.448C228.598 151.107 204.78 145.157 175.398 145.157C146.017 145.157 122.198 151.107 122.198 158.448C122.198 165.788 146.017 171.738 175.398 171.738Z" stroke="#C7622D" stroke-width="1.7" stroke-miterlimit="10"/>
<path d="M175.398 174.797C204.78 174.797 228.598 168.847 228.598 161.507C228.598 154.167 204.78 148.216 175.398 148.216C146.017 148.216 122.198 154.167 122.198 161.507C122.198 168.847 146.017 174.797 175.398 174.797Z" stroke="#C7622D" stroke-width="1.7" stroke-miterlimit="10"/>
<path d="M175.398 177.865C204.78 177.865 228.598 171.915 228.598 164.575C228.598 157.235 204.78 151.285 175.398 151.285C146.017 151.285 122.198 157.235 122.198 164.575C122.198 171.915 146.017 177.865 175.398 177.865Z" stroke="#C7622D" stroke-width="1.7" stroke-miterlimit="10"/>
<path d="M175.398 180.924C204.78 180.924 228.598 174.974 228.598 167.634C228.598 160.294 204.78 154.344 175.398 154.344C146.017 154.344 122.198 160.294 122.198 167.634C122.198 174.974 146.017 180.924 175.398 180.924Z" stroke="#C7622D" stroke-width="1.7" stroke-miterlimit="10"/>
<path d="M175.398 183.982C204.78 183.982 228.598 178.032 228.598 170.692C228.598 163.352 204.78 157.402 175.398 157.402C146.017 157.402 122.198 163.352 122.198 170.692C122.198 178.032 146.017 183.982 175.398 183.982Z" stroke="#C7622D" stroke-width="1.7" stroke-miterlimit="10"/>
<path d="M175.398 187.051C204.78 187.051 228.598 181.101 228.598 173.761C228.598 166.421 204.78 160.471 175.398 160.471C146.017 160.471 122.198 166.421 122.198 173.761C122.198 181.101 146.017 187.051 175.398 187.051Z" stroke="#C7622D" stroke-width="1.7" stroke-miterlimit="10"/>
<path d="M136.476 147.296L137.143 165.504L214.068 165.891L215.259 148.371L175.891 140.201L136.476 147.296Z" fill="white"/>
<path d="M175.001 67.3034C191.787 67.3034 205.395 53.6954 205.395 36.909C205.395 20.1227 191.787 6.51465 175.001 6.51465C158.214 6.51465 144.606 20.1227 144.606 36.909C144.606 53.6954 158.214 67.3034 175.001 67.3034Z" fill="white"/>
<path d="M51.5068 168.195L152.592 96.9426C167.567 86.382 188.291 86.9047 202.646 98.2009L298.553 168.911" stroke="white" stroke-width="34" stroke-miterlimit="10" stroke-linecap="round"/>
</svg>
