<svg width="400" height="268" viewBox="0 0 400 268" fill="none" xmlns="http://www.w3.org/2000/svg">
<path d="M110.253 169.113C91.3668 221.495 89.3475 297.349 145.723 336.004C145.723 336.004 188.087 366.16 237.358 382.057C266.599 391.492 297.909 389.321 324.186 376.038C350.462 362.756 369.465 339.482 376.923 311.506C381.766 293.335 388.173 275.286 397.853 259.168C414.701 231.117 428.54 203.907 410.012 171.665C393.469 142.877 369.522 112.408 340.971 93.8494C321.568 81.2377 297.42 71.4935 275.008 66.1744C160.791 39.0685 129.138 116.73 110.253 169.113Z" fill="#FFECDB"/>
<path d="M372.775 117.884C376.686 99.1908 376.381 90.4739 368.989 80.3855C361.597 70.2971 334.814 68.3433 334.814 68.3433C326.799 57.6256 303.876 47.9383 292.689 43.6881C291.155 45.7296 287.986 46.799 285.716 45.5562C283.964 44.5961 282.273 43.5308 280.57 42.4906C280.51 42.4552 280.484 42.4379 280.447 42.4147C280.409 42.3936 280.386 42.3814 280.329 42.3484C279.988 42.1515 279.646 41.9568 279.3 41.768C278.611 41.3956 277.907 41.0456 277.185 40.7423C276.822 40.5893 276.455 40.449 276.084 40.3217C276.041 40.3066 276.029 40.3025 275.997 40.2912C275.947 40.2817 275.896 40.2744 275.803 40.2542C274.992 40.0859 274.181 39.9532 273.357 39.8612C271.741 39.6773 270.113 39.6037 268.493 39.4752C262.344 38.9844 256.45 39.551 250.982 36.1414C250.573 35.8855 250.248 35.5655 249.964 35.218C248.621 35.2995 247.255 35.4092 245.861 35.564C210.667 39.465 205.196 46.8743 202.425 48.0347C199.655 49.1973 199.875 47.6669 179.259 48.0751C158.642 48.4855 155.256 74.3651 155.95 82.7934C156.643 91.2217 158.17 102.284 158.17 102.284C163.037 111.833 176.513 114.037 176.513 114.037C176.413 134.58 182.309 136.993 182.309 136.993C171.265 168.449 180.934 184.416 180.934 184.416C180.934 184.416 173.274 192.418 167.317 206.653C161.361 220.886 161.267 235.967 161.267 235.967C154.699 243.608 149.294 255.838 166.284 269.74C183.275 283.641 213.864 289.875 223.769 291.563C233.673 293.251 287.39 301.521 302.993 290.759C318.599 279.999 307.479 259.657 307.479 259.657C324.613 222.054 311.045 209.427 311.045 209.427C316.775 201.926 321.311 185.406 320.015 174.55C318.718 163.694 321.438 155.064 321.438 155.064C364.356 165.417 369.5 143.086 369.5 143.086C369.5 143.086 368.863 136.577 372.775 117.884Z" fill="#F7F7F7"/>
<path d="M296.781 45.2852C296.781 45.2852 294.569 39.4648 285.054 36.8771C275.539 34.2915 245.743 31.0435 244.5 35.7166C243.258 40.3898 258.283 45.6792 278.434 47.892C298.585 50.1069 296.781 45.2852 296.781 45.2852Z" fill="#CCDAE5"/>
<path d="M360.482 74.2275C349.833 69.4418 334.819 68.3438 334.819 68.3438C332.459 65.1877 328.786 62.1266 324.52 59.2596C326.536 63.9776 327.06 69.8724 318.69 71.915C318.69 71.915 327.256 76.2728 335.685 74.3663C341.784 72.9876 350.794 71.5969 360.482 74.2275Z" fill="#CCDAE5"/>
<path d="M204.797 56.8749C202.381 53.543 202.949 49.8558 204.099 47.0203C203.397 47.4921 202.877 47.8444 202.429 48.0327C199.658 49.1953 199.879 47.6649 179.262 48.0731C172.093 48.2163 167.042 51.4695 163.488 55.9682C183.775 47.3364 204.797 56.8749 204.797 56.8749Z" fill="#ACC1D2"/>
<path d="M176.51 114.036C176.409 134.579 182.306 136.992 182.306 136.992C182.162 137.399 182.061 137.774 181.924 138.177C184.801 139.883 188.279 141.312 192.485 142.191C211.178 146.101 233.947 151.816 244.637 130.631C244.637 130.631 235.767 135.596 227.826 135.319C219.884 135.042 211.098 132.212 204.96 129.071C198.821 125.93 195.536 129.446 190.393 126.623C185.249 123.8 179.263 114.782 183.633 97.7178C188.004 80.6531 194.786 74.5185 194.786 74.5185C194.786 74.5185 191.121 73.4706 187.031 80.1659C182.943 86.8615 181.43 92.5431 173.106 87.6988C173.106 87.6988 177.588 95.1112 176.999 99.1893C176.604 101.93 176.506 108.541 175.314 113.79C176.062 113.96 176.51 114.036 176.51 114.036Z" fill="#CCDAE5"/>
<path d="M327.105 137.319C329.648 124.501 337.992 113.56 337.992 113.56C337.992 113.56 330.968 118.966 329.389 117.87C327.812 116.774 321.485 108.923 320.984 102.779C320.984 102.779 319.354 104.453 322.785 116.745C326.216 129.037 319.718 140.417 313.205 144.683C306.692 148.948 302.967 151.014 298.346 147.874C293.725 144.734 292.015 146.923 285.563 147.201C275.831 147.619 262.764 149.81 251.883 132.02C251.883 132.02 253.846 153.295 283.147 159.431C304.408 163.883 315.839 160.896 320.529 158.921C320.974 156.503 321.424 155.063 321.424 155.063C324.296 155.755 326.987 156.293 329.532 156.71C327.628 152.111 325.596 144.929 327.105 137.319Z" fill="#CCDAE5"/>
<path d="M369.495 143.087C369.495 143.087 369.404 142.148 369.503 139.971C368.456 139.115 366.757 138.496 363.987 138.477C355.193 138.415 328.306 142.896 326.941 156.243C364.775 163.443 369.495 143.087 369.495 143.087Z" fill="#ACC1D2"/>
<path d="M157.982 100.717C158.111 101.696 158.192 102.287 158.192 102.287C163.059 111.837 176.535 114.04 176.535 114.04C176.467 111.403 172.498 106.806 167.736 104.066C164.303 102.094 161.069 101.162 157.982 100.717Z" fill="#ACC1D2"/>
<path d="M176.545 114.041C176.528 117.197 176.668 119.878 176.892 122.236C192.22 121.996 176.678 119.358 176.545 114.041Z" fill="#CCDAE5"/>
<path d="M247.99 73.6893C247.99 73.6893 249.606 81.7292 251.883 86.3952C254.16 91.0612 248.161 127.842 245.646 138.061C243.131 148.281 240.387 184.144 234.042 189.648C227.698 195.151 206.182 196.657 192.062 186.021C192.062 186.021 196.001 199.6 229.607 201.152C229.607 201.152 234.881 207.291 230.553 228.265C230.553 228.265 236.311 217.211 239.19 208.085C242.068 198.959 251.585 217.16 281.855 208.167C281.855 208.167 255.217 207.621 241.904 194.078C241.904 194.078 240.273 192.455 240.552 188.722C240.831 184.989 245.766 157.683 246.287 149.258C246.808 140.832 251.498 120.951 252.201 112.464C252.903 103.978 255.545 90.1777 259.228 88.1059C262.911 86.0341 269.092 80.1596 271.186 80.0723C271.186 80.0723 262.241 81.6447 257.709 79.6906C253.175 77.7318 250.679 78.1977 247.99 73.6893Z" fill="#CCDAE5"/>
<path d="M262.432 205.09C262.432 205.09 265.157 204.259 268.05 200.276C269.265 198.604 270.659 194.443 271.66 191.575C273.014 187.693 273.489 186.199 275.472 182.957C275.472 182.957 268.832 203.728 270.958 207.938C270.958 207.938 269.256 212.241 266.508 218.371C265.033 221.661 264.497 224.911 261.478 229.472C261.473 229.471 265.637 213.822 262.432 205.09Z" fill="#CCDAE5"/>
<path d="M211.019 171.233C211.019 171.233 201.063 190.639 198.583 190.995C198.583 190.995 197.539 208.15 203.284 215.223C203.284 215.223 200.158 197.207 202.02 193.313C203.884 189.419 209.741 177.987 211.019 171.233Z" fill="#CCDAE5"/>
<path d="M222.962 238.881C222.014 242.198 222.66 245.29 224.404 245.788C226.147 246.285 228.33 244.002 229.276 240.685C230.222 237.368 229.578 234.275 227.835 233.778C226.091 233.28 223.911 235.564 222.962 238.881Z" fill="#ACC1D2"/>
<path d="M307.474 259.656C307.759 259.034 308.011 258.437 308.277 257.831C289.257 271.675 274.924 259.368 269.019 270.678C264.139 280.028 249.322 290.253 243.111 294.258C247.564 294.764 252.447 295.236 257.468 295.586C263.992 288.541 271.135 279.254 271.802 277.846C272.8 275.734 281.232 271.399 295.466 268.942C301.964 267.82 306.398 265.828 309.32 263.991C308.386 261.356 307.474 259.656 307.474 259.656Z" fill="#ACC1D2"/>
<path d="M196.794 284.933C194.227 277.098 189.87 263.052 189.213 256.045C188.335 246.677 176.858 249.559 161.431 232.673C161.284 234.729 161.271 235.97 161.271 235.97C160.977 236.312 160.69 236.674 160.403 237.033C164.837 242.964 172.143 251.847 179.007 256.138C185.671 260.304 184.044 271.289 181.813 279.124C186.707 281.392 191.823 283.318 196.794 284.933Z" fill="#ACC1D2"/>
<path d="M311.042 209.427C316.773 201.925 321.309 185.406 320.012 174.55C319.933 173.889 319.871 173.235 319.82 172.593C318.797 176.456 317.358 181.888 315.929 187.233C313.292 197.088 306.307 209.44 300.695 212.272C295.58 214.854 309.79 211.301 316.094 228.39C316.644 214.664 311.042 209.427 311.042 209.427Z" fill="#CCDAE5"/>
<path d="M184.98 182.222C181.263 176.209 180.05 156.081 179.67 145.795C173.128 171.394 180.935 184.414 180.935 184.414C180.935 184.414 173.274 192.416 167.317 206.651C165.107 211.934 163.706 217.332 162.816 222.034C165.487 215.895 168.796 211.591 172.932 202.906C178.652 190.895 190.043 190.414 184.98 182.222Z" fill="#ACC1D2"/>
</svg>
