<svg width="908" height="900" viewBox="0 0 908 900" fill="none" xmlns="http://www.w3.org/2000/svg">
<path d="M158.18 664.444L146.001 672.539C140.221 676.37 132.405 674.816 128.551 669.106L127.497 667.552C123.643 661.806 125.206 654.036 130.95 650.205L143.057 642.183C134.84 629.064 127.46 615.44 120.953 601.274L85.9431 615.693C79.3265 618.403 71.7647 615.295 69.0017 608.718L68.5655 607.67C65.8388 601.093 68.9654 593.576 75.5819 590.83L110.628 576.41C105.684 563.111 101.503 549.451 98.1583 535.501L84.3071 538.248C77.5088 539.585 70.8558 535.212 69.5107 528.418L69.1471 526.575C67.802 519.817 72.2009 513.204 79.0357 511.867L92.8505 509.12C90.4147 494.267 88.8878 479.125 88.3425 463.73H0.181885C4.18092 578.326 51.1151 682.08 125.534 759.561L186.755 698.703C176.54 687.934 167.015 676.478 158.18 664.444Z" fill="#6DBB4C"/>
<path d="M792.137 448.733C792.137 263.667 641.228 113.62 455.018 113.62C268.808 113.62 117.899 263.631 117.899 448.733C117.899 633.834 268.808 783.846 455.018 783.846C641.228 783.846 792.137 633.798 792.137 448.733ZM454.109 170.032C486.828 170.032 513.331 196.377 513.331 228.902C513.331 261.426 486.828 287.771 454.109 287.771C421.39 287.771 394.887 261.426 394.887 228.902C394.887 196.377 421.39 170.032 454.109 170.032ZM671.584 365C665.695 364.819 659.805 365.108 651.916 365.216C623.668 366.264 593.385 365.542 563.101 366.481C555.321 366.734 547.359 366.843 539.798 368.433C528.746 370.746 519.802 376.709 515.585 387.767C512.968 394.669 511.732 401.825 511.55 409.306C511.004 428.17 515.258 446.348 518.603 464.67C525.728 503.916 532.999 543.163 540.27 582.373C546.741 617.175 553.285 651.976 559.793 686.778C560.883 692.56 561.501 698.342 561.574 704.232C561.792 724.109 538.78 735.059 523.074 729.06C513.658 725.482 508.314 718.832 506.496 709.003C498.716 667.371 490.791 625.776 482.975 584.18C479.921 567.99 477.158 551.728 473.05 535.791C471.159 528.454 468.396 521.48 461.416 517.215C453.127 512.156 446.511 513.493 440.949 521.552C437.131 527.117 434.55 533.225 432.442 539.621C428.915 550.282 427.279 561.341 425.28 572.327C420.19 600.045 415.209 627.763 410.192 655.481C407.466 670.624 404.775 685.766 402.012 700.872C400.522 708.858 398.086 716.375 392.269 722.555C381.69 733.866 360.023 732.782 351.334 719.917C346.898 713.375 347.008 705.533 348.244 698.125C353.624 665.745 359.332 633.437 365.003 601.129C372.71 557.293 380.563 513.457 388.125 469.585C390.306 457.008 392.633 444.324 393.433 431.603C394.342 416.425 394.778 401.066 388.379 386.574C383.253 374.938 374.928 368.035 361.695 367.855C342.79 367.602 323.886 367.349 304.981 367.023C282.659 366.626 260.374 366.264 238.052 365.578C220.82 365.036 210.604 353.11 211.222 335.872C211.622 324.633 216.93 316.718 226.164 311.262C231.872 307.865 238.561 308.479 245.032 308.551C267.209 308.804 289.421 308.913 311.598 309.31C342.863 309.888 374.092 308.804 405.321 308.949C415.064 308.985 424.771 309.129 434.477 309.057C472.141 308.768 509.805 308.226 547.468 308.081C586.659 307.937 625.85 308.045 665.04 308.19C684.417 308.262 698.923 324.85 695.578 343.786C693.724 354.917 685.944 365.433 671.584 365Z" fill="#6DBB4C"/>
<path d="M819.694 463.766C819.112 480.137 817.403 496.255 814.713 511.975L829.946 515.119C836.744 516.529 841.107 523.142 839.689 529.9L839.289 531.743C837.871 538.501 831.218 542.838 824.42 541.428L809.151 538.284C805.915 551.186 802.025 563.834 797.445 576.121L833.109 590.793C839.725 593.504 842.852 601.057 840.125 607.634L839.689 608.682C836.962 615.259 829.364 618.367 822.748 615.657L787.12 600.985C780.721 614.97 773.414 628.486 765.343 641.46L778.504 650.205C784.284 654.036 785.847 661.806 781.957 667.552L780.903 669.106C777.05 674.852 769.233 676.406 763.453 672.539L750.256 663.757C741.531 675.719 732.079 687.139 721.936 697.944L783.266 758.91C857.321 681.501 904.001 578 908 463.73H819.694V463.766Z" fill="#6DBB4C"/>
<path d="M93.0685 390.26L79.5809 387.478C72.7825 386.068 68.4199 379.455 69.8378 372.697L70.2377 370.854C71.6555 364.096 78.3085 359.76 85.1068 361.169L98.4854 363.952C101.939 349.858 106.193 336.125 111.246 322.754L75.6182 308.081C69.0016 305.371 65.8751 297.818 68.6017 291.241L69.038 290.193C71.7646 283.616 79.3627 280.508 85.9793 283.218L121.68 297.926C127.787 284.808 134.622 272.123 142.22 259.909L130.987 252.428C125.206 248.597 123.643 240.827 127.533 235.081L128.587 233.527C132.441 227.781 140.257 226.227 146.038 230.094L157.271 237.575C166.069 225.469 175.631 213.904 185.81 202.99L122.916 138.808C48.9337 217.121 2.76297 321.669 0 436.915H88.3424C88.9241 421.051 90.5237 405.511 93.0685 390.26Z" fill="#6DBB4C"/>
<path d="M393.833 824.791C392.487 831.549 385.871 835.958 379.036 834.62L377.182 834.259C370.384 832.922 365.948 826.345 367.293 819.551L370.311 804.517C355.333 801.048 340.754 796.639 326.54 791.399L312.143 825.947C309.416 832.524 301.818 835.632 295.202 832.922L294.147 832.488C287.531 829.778 284.404 822.225 287.131 815.648L301.527 781.099C288.258 775.028 275.388 768.234 263.028 760.681L254.63 773.149C250.776 778.895 242.96 780.449 237.179 776.582L235.616 775.534C229.836 771.703 228.272 763.933 232.162 758.187L240.524 745.756C228.381 737.082 216.821 727.686 205.878 717.64L144.729 778.425C222.855 850.702 326.576 895.948 440.876 899.2V851.389V813.841C425.97 813.299 411.247 811.925 396.85 809.685L393.833 824.791Z" fill="#6DBB4C"/>
<path d="M668.494 745.069L677.328 758.223C681.182 763.969 679.619 771.739 673.874 775.57L672.311 776.618C666.531 780.449 658.714 778.895 654.861 773.185L646.027 760.03C633.52 767.692 620.542 774.63 607.09 780.81L621.596 815.648C624.323 822.225 621.196 829.742 614.58 832.488L613.525 832.922C606.909 835.632 599.347 832.524 596.584 825.947L582.078 791.146C568.118 796.314 553.794 800.686 539.107 804.156L542.197 819.514C543.542 826.272 539.143 832.886 532.308 834.223L530.454 834.584C523.656 835.921 517.003 831.549 515.658 824.755L512.568 809.396C497.989 811.709 483.157 813.19 468.069 813.768V899.128C582.406 895.695 686.09 850.232 764.071 777.811L702.813 716.917C692.052 727 680.564 736.396 668.494 745.069Z" fill="#6DBB4C"/>
<path d="M240.56 153.372L232.199 140.94C228.345 135.194 229.908 127.425 235.652 123.594L237.216 122.546C242.996 118.715 250.812 120.269 254.666 125.979L263.064 138.447C275.425 130.93 288.294 124.1 301.564 118.029L287.167 83.4801C284.441 76.9029 287.567 69.3861 294.184 66.6395L295.238 66.2059C301.855 63.4955 309.416 66.6034 312.179 73.1806L326.576 107.729C340.754 102.489 355.369 98.0801 370.347 94.6108L367.33 79.5771C365.985 72.8192 370.384 66.2059 377.218 64.8687L379.072 64.5074C385.871 63.1702 392.524 67.543 393.869 74.3371L396.886 89.443C411.319 87.2024 426.007 85.793 440.912 85.287V47.7752V0C326.576 3.25247 222.855 48.498 144.765 120.739L205.914 181.488C216.857 171.441 228.418 162.045 240.56 153.372Z" fill="#6DBB4C"/>
<path d="M515.731 74.4093C517.076 67.6514 523.692 63.2425 530.527 64.5796L532.381 64.941C539.18 66.2781 543.615 72.8554 542.27 79.6494L539.18 95.0083C553.867 98.4776 568.227 102.85 582.151 108.018L596.657 73.2167C599.383 66.6395 606.981 63.5316 613.598 66.242L614.652 66.6757C621.269 69.3861 624.395 76.939 621.669 83.5162L607.163 118.354C620.615 124.497 633.593 131.472 646.099 139.134L654.934 125.979C658.787 120.233 666.604 118.679 672.384 122.546L673.947 123.594C679.728 127.425 681.291 135.194 677.401 140.94L668.567 154.095C680.6 162.768 692.088 172.164 702.995 182.211L764.18 121.317C686.162 48.8955 582.478 3.43316 468.178 0V85.3593C483.266 85.9375 498.099 87.3831 512.677 89.7321L515.731 74.4093Z" fill="#6DBB4C"/>
<path d="M749.456 237.503L760.69 230.022C766.47 226.191 774.287 227.745 778.14 233.455L779.195 235.009C783.048 240.755 781.485 248.525 775.741 252.356L764.507 259.836C772.069 272.051 778.94 284.736 785.048 297.854L820.748 283.146C827.365 280.435 834.927 283.543 837.69 290.12L838.126 291.168C840.853 297.746 837.726 305.263 831.109 308.009L795.482 322.681C800.535 336.053 804.788 349.821 808.242 363.879L821.621 361.097C828.419 359.687 835.072 364.024 836.49 370.782L836.89 372.625C838.308 379.383 833.945 385.996 827.147 387.406L813.659 390.188C816.204 405.439 817.804 421.014 818.385 436.843H906.728C903.965 321.597 857.758 217.048 783.812 138.736L720.918 202.918C731.133 213.868 740.658 225.396 749.456 237.503Z" fill="#6DBB4C"/>
</svg>
