<svg width="1000" height="1000" viewBox="0 0 1000 1000" fill="none" xmlns="http://www.w3.org/2000/svg">
<path d="M534.146 601.209C541.761 601.209 547.933 595.045 547.933 587.441C547.933 579.837 541.761 573.673 534.146 573.673C526.532 573.673 520.359 579.837 520.359 587.441C520.359 595.045 526.532 601.209 534.146 601.209Z" fill="#F0C9A5"/>
<path d="M459.902 727.938C459.902 727.938 527.339 815.593 532.691 820.938C532.691 820.938 519.846 860.49 523.057 873.318C526.268 886.146 516.635 917.146 516.635 917.146L528.409 932.112H538.043C538.043 932.112 545.349 889.196 554.099 867.973C576.578 813.456 565.874 807.042 554.099 784.593C542.325 762.145 513.423 718.317 511.283 718.317C509.142 718.317 459.902 727.938 459.902 727.938Z" fill="#F0C9A5"/>
<path d="M486.663 540.868C510.901 540.868 530.55 521.245 530.55 497.04C530.55 472.834 510.901 453.212 486.663 453.212C462.425 453.212 442.776 472.834 442.776 497.04C442.776 521.245 462.425 540.868 486.663 540.868Z" fill="#212529"/>
<path d="M476.494 522.16C476.494 522.16 495.761 558.506 462.578 554.23L464.719 600.195C464.719 600.195 487.198 613.023 488.268 613.023C489.339 613.023 522.522 602.333 522.522 602.333L530.015 593.782L531.085 554.23C531.085 554.23 505.395 552.092 504.325 523.229C503.254 494.367 476.494 522.16 476.494 522.16Z" fill="#F0C9A5"/>
<path opacity="0.1" d="M476.494 522.16C476.494 522.16 495.761 558.506 462.578 554.23L464.719 600.195C464.719 600.195 487.198 613.023 488.268 613.023C489.339 613.023 522.522 602.333 522.522 602.333L530.015 593.782L531.085 554.23C531.085 554.23 505.395 552.092 504.325 523.229C503.254 494.367 476.494 522.16 476.494 522.16Z" fill="#212529"/>
<path d="M449.733 639.747L432.607 651.506L456.156 692.127L482.916 689.989L508.607 678.231C508.607 678.231 508.606 660.058 515.029 649.368C521.452 638.679 449.733 639.747 449.733 639.747Z" fill="#F0C9A5"/>
<path d="M513.959 508.264C513.96 514.393 511.932 520.351 508.19 525.21C504.449 530.068 499.204 533.555 493.271 535.127C487.339 536.699 481.053 536.269 475.391 533.902C469.73 531.536 465.01 527.366 461.968 522.043C459.552 517.852 458.286 513.099 458.297 508.264V508.253C458.298 500.882 461.232 493.813 466.452 488.602C471.672 483.391 478.752 480.464 486.133 480.465C493.514 480.467 500.593 483.396 505.811 488.609C511.029 493.823 513.96 500.893 513.959 508.264Z" fill="#F0C9A5"/>
<path d="M462.705 553.647C462.705 553.647 447.592 546.747 435.818 547.816C424.043 548.885 401.564 552.092 395.142 547.816C388.719 543.54 355.536 551.023 355.536 551.023C355.536 551.023 354.466 561.712 383.367 569.195C412.268 576.678 433.677 577.747 439.029 586.299C444.381 594.851 451.874 605.54 451.874 605.54L466.86 574.54L462.705 553.647Z" fill="#F0C9A5"/>
<path opacity="0.2" d="M461.968 522.043C459.552 517.852 458.286 513.099 458.297 508.264V508.253C464.762 507.868 472.137 508.446 478.635 511.471C489.724 516.645 473.229 520.279 461.968 522.043Z" fill="#212529"/>
<path d="M374.804 557.437C374.804 557.437 394.071 551.023 399.423 543.54C404.776 536.057 452.945 520.023 452.945 520.023C452.945 520.023 494.691 515.747 478.635 508.264C462.578 500.781 441.17 508.264 441.17 508.264C441.17 508.264 361.959 534.988 358.747 540.333C356.814 543.579 355.711 547.25 355.536 551.023L363.029 554.23L374.804 557.437Z" fill="#F0C9A5"/>
<path d="M404.775 689.989C404.775 689.989 383.367 722.058 402.635 800.093C402.635 800.093 402.635 839.645 399.423 853.542C396.212 867.439 399.423 940.129 399.423 940.129L410.128 950.819L419.761 944.405C419.761 944.405 412.804 917.146 424.578 889.353C436.353 861.559 427.79 825.214 427.79 825.214C427.79 825.214 449.733 750.921 444.381 726.334C439.029 701.748 404.775 689.989 404.775 689.989Z" fill="#F0C9A5"/>
<path d="M408.036 938.078C408.036 938.078 398.381 924.301 396.235 928.238C394.089 932.174 390.871 943.982 376.924 948.903C362.977 953.823 353.322 953.823 367.269 963.663C381.215 973.504 384.434 973.504 390.871 970.552C397.308 967.6 408.036 965.632 411.255 966.616C414.473 967.6 427.347 963.663 426.274 957.759C425.201 951.855 419.837 945.951 419.837 945.951C419.837 945.951 417.691 935.126 415.546 938.078C413.4 941.03 408.036 938.078 408.036 938.078Z" fill="#212529"/>
<path d="M534.297 924.094C534.297 924.094 518.485 908.896 519.433 905.805C520.381 902.715 501.114 902.715 504.325 914.474C507.536 926.232 516.1 940.129 516.1 940.129C515.029 954.026 515.029 965.784 526.804 970.06C538.578 974.336 552.494 971.129 548.212 958.301C543.93 945.474 540.438 925.814 540.438 925.814L534.297 924.094Z" fill="#212529"/>
<path d="M437.423 646.696C437.423 646.696 399.423 668.61 397.283 698.541C397.283 698.541 407.987 728.472 446.522 733.817C446.522 733.817 455.771 729.541 460.245 733.817C464.719 738.093 503.254 733.817 515.029 723.127C515.029 723.127 508.071 677.696 510.212 668.075C510.212 668.075 475.423 697.472 459.367 672.886C443.311 648.299 437.423 646.696 437.423 646.696Z" fill="#212529"/>
<path d="M528.945 557.437C528.945 557.437 549.283 546.747 559.987 570.264C570.691 593.782 592.1 630.127 591.029 642.954C589.959 655.782 524.663 692.127 524.663 692.127C524.663 692.127 496.832 720.989 494.691 709.231C492.55 697.472 515.029 681.437 515.029 681.437C515.029 681.437 564.268 652.575 564.268 641.885C564.268 631.196 539.649 588.437 534.297 588.437C528.945 588.437 528.945 557.437 528.945 557.437Z" fill="#F0C9A5"/>
<path d="M464.719 552.092L456.156 551.023C456.156 551.023 466.875 586.206 447.064 598.546C447.064 598.546 458.297 632.265 442.24 641.885C426.184 651.506 506.466 671.817 513.959 663.265C521.451 654.713 545.476 600.411 543.633 598.7C541.789 596.989 528.944 587.368 532.156 575.609C534.056 568.858 535.145 561.906 535.4 554.898L525.373 552.395L518.24 588.437C518.24 588.437 486.128 601.264 472.212 582.023L464.719 552.092Z" fill="#0066CC"/>
<path d="M497.103 474.591H469.8C465.516 474.591 462.043 478.059 462.043 482.338V490.362C462.043 494.64 465.516 498.109 469.8 498.109H497.103C501.387 498.109 504.86 494.64 504.86 490.362V482.338C504.86 478.059 501.387 474.591 497.103 474.591Z" fill="#212529"/>
<path d="M489.874 472.453C500.515 472.453 509.142 463.839 509.142 453.212C509.142 442.585 500.515 433.97 489.874 433.97C479.233 433.97 470.606 442.585 470.606 453.212C470.606 463.839 479.233 472.453 489.874 472.453Z" fill="#212529"/>
<path d="M246.916 683.939H239.916V408.035H246.916V683.939Z" fill="#CCCCCC"/>
<path d="M243.545 686C245.503 686 247.09 684.369 247.09 682.357V587.643C247.09 585.631 245.503 584 243.545 584C241.587 584 240 585.631 240 587.643V682.357C240 684.369 241.587 686 243.545 686ZM261.271 635C261.271 637.012 262.858 638.643 264.816 638.643H305.89L290.668 654.278C289.281 655.702 289.281 658.012 290.668 659.436C292.054 660.861 294.301 660.861 295.687 659.436L316.958 637.579C318.345 636.158 318.348 633.852 316.965 632.427L316.958 632.421L295.687 610.564C294.301 609.139 292.054 609.139 290.668 610.564C289.281 611.988 289.281 614.298 290.668 615.722L305.89 631.357H264.816C262.858 631.357 261.271 632.988 261.271 635Z" fill="#8ED258"/>
<path d="M713.969 690.639H720.884V972.757H713.969V690.639Z" fill="#CCCCCC"/>
<path d="M717.48 688.153C715.6 688.153 714.077 689.803 714.077 691.837V787.623C714.077 789.657 715.6 791.307 717.48 791.307C719.36 791.307 720.884 789.657 720.884 787.623V691.837C720.884 689.803 719.36 688.153 717.48 688.153ZM700.462 739.73C700.462 737.695 698.939 736.046 697.059 736.046H657.626L672.24 720.234C673.571 718.793 673.571 716.458 672.24 715.017C670.91 713.577 668.752 713.577 667.421 715.017L647 737.122C645.669 738.559 645.666 740.891 646.994 742.332L647 742.338L667.421 764.443C668.752 765.883 670.91 765.883 672.24 764.443C673.571 763.002 673.571 760.666 672.24 759.226L657.626 743.414H697.059C698.939 743.414 700.462 741.765 700.462 739.73Z" fill="#8ED258"/>
<path d="M974.693 974H15.2428C14.9132 974 14.5971 973.895 14.364 973.707C14.1309 973.52 14 973.265 14 973C14 972.735 14.1309 972.48 14.364 972.293C14.5971 972.105 14.9132 972 15.2428 972H974.693C975.023 972 975.339 972.105 975.572 972.293C975.805 972.48 975.936 972.735 975.936 973C975.936 973.265 975.805 973.52 975.572 973.707C975.339 973.895 975.023 974 974.693 974Z" fill="#CACACA"/>
<path d="M58.5502 971.908C70.66 959.744 80.9459 945.891 89.0879 930.781C97.2058 915.747 103.16 899.643 106.774 882.945C110.438 865.999 111.554 848.601 110.084 831.325C107.04 796.141 93.7508 762.621 71.8587 734.91C70.522 733.225 69.1538 731.565 67.7541 729.932C66.1936 728.105 63.5901 730.776 65.1397 732.59C87.4633 758.909 101.581 791.195 105.745 825.454C108.768 851.634 105.857 878.159 97.2265 903.061C88.5961 927.962 74.4684 950.6 55.8919 969.294C54.1949 970.995 56.8534 973.609 58.5502 971.908Z" fill="#F2F2F2"/>
<path d="M73.388 738.063C71.8739 737.512 70.3904 736.879 68.9439 736.169C68.8721 736.282 68.802 736.396 68.73 736.509L73.388 738.063Z" fill="#E6E6E6"/>
<path d="M74.6316 690.094C69.3653 683.607 59.3773 680.762 52.2045 685.048C47.3949 687.922 44.5471 693.453 44.0464 699.034C43.7356 704.662 44.9921 710.266 47.6762 715.223C52.3072 724.326 59.7713 731.677 68.9439 736.169C73.3618 729.228 77.4991 721.935 79.2189 713.895C80.9666 705.724 79.8978 696.582 74.6316 690.094Z" fill="#F2F2F2"/>
<path d="M139.357 736.161C141.948 725.441 142.184 714.286 140.049 703.465C137.914 692.644 133.459 682.415 126.99 673.482C125.855 695.358 103.06 709.472 94.8395 729.776C92.3241 736.128 91.2705 742.965 91.7566 749.78C92.2427 756.595 94.2562 763.213 97.6478 769.144L99.0461 785.725C108.948 780.868 117.68 773.922 124.639 765.365C131.598 756.809 136.619 746.845 139.357 736.161Z" fill="#F2F2F2"/>
<path d="M180.457 797.87C169.154 816.634 142.399 818.351 125.586 832.392C120.375 836.811 116.226 842.347 113.446 848.587C110.666 854.828 109.326 861.615 109.525 868.444L102.95 883.731C113.983 884.184 124.98 882.203 135.16 877.927C145.34 873.65 154.453 867.184 161.852 858.988C169.25 850.792 174.753 841.066 177.969 830.503C181.184 819.94 182.034 808.798 180.457 797.87Z" fill="#F2F2F2"/>
<path d="M75.2768 839.577C66.7166 846.551 59.7977 855.326 55.0118 865.276C50.2258 875.227 47.6902 886.109 47.5852 897.151C47.4803 908.192 49.8085 919.121 54.4044 929.16C59.0003 939.2 65.7512 948.104 74.1772 955.24L79.6894 939.54C84.4601 934.649 88.069 928.747 90.2487 922.272C92.4284 915.797 93.1231 908.915 92.2813 902.134C89.4158 880.418 70.8891 861.038 75.2768 839.577Z" fill="#F2F2F2"/>
<path d="M805.891 265.767C840.897 265.767 869.275 237.389 869.275 202.383C869.275 167.378 840.897 139 805.891 139C770.886 139 742.508 167.378 742.508 202.383C742.508 237.389 770.886 265.767 805.891 265.767Z" fill="#FD7E14"/>
<path d="M920.274 153.753C889.556 149.6 854.485 166.204 846.524 196.162C844.517 190.835 840.87 186.285 836.107 183.167C831.345 180.049 825.715 178.526 820.031 178.818C814.346 179.11 808.902 181.201 804.484 184.79C800.066 188.378 796.903 193.279 795.452 198.782L798.969 201.301C864.798 215.537 932.941 215.229 998.638 200.399C977.27 177.942 950.992 157.905 920.274 153.753Z" fill="#F2F2F2"/>
<path d="M788.536 238.264C757.818 234.112 722.748 250.715 714.786 280.673C712.779 275.346 709.132 270.796 704.369 267.678C699.607 264.561 693.977 263.038 688.293 263.329C682.608 263.621 677.164 265.712 672.746 269.301C668.328 272.89 665.165 277.79 663.714 283.294L667.231 285.812C733.06 300.048 801.203 299.74 866.9 284.91C845.532 262.453 819.254 242.416 788.536 238.264Z" fill="#F2F2F2"/>
</svg>
