<svg width="400" height="283" viewBox="0 0 400 283" fill="none" xmlns="http://www.w3.org/2000/svg">
<path d="M427.606 236.666C387.996 313.837 283.439 346.983 201.517 341.332C179.149 339.789 134.144 336.684 99.0037 308.985C31.5191 255.791 41.9124 144.6 106.515 79.1372C114.834 70.707 172.42 14.2251 262.156 14.9812C327.857 15.5347 373.971 46.4696 379.579 50.3234C386.662 55.1919 402.286 66.7611 416.366 85.1147C449.45 128.24 452.359 188.442 427.606 236.666Z" fill="white"/>
<path d="M316.393 231.054C316.049 231.224 314.053 232.206 311.862 231.625C298.676 228.128 321.073 179.335 299.188 132.507C290.268 113.42 277.829 102.871 278.636 82.3726C278.783 78.6507 279.373 67.1899 286.632 55.568C291.198 48.2573 294.986 46.3544 301.429 39.8577C321.665 19.4539 318.748 3.49294 328.587 1.89892C339.569 0.119617 357.791 17.6418 357.902 34.6916C358.024 53.4602 336.125 59.966 338.9 76.0337C341.059 88.5322 354.887 87.9474 359.348 102.829C365.269 122.584 346.681 142.899 344.305 145.428C333.709 156.705 329.04 152.8 322.301 161.239C303.985 184.175 329.031 224.835 316.393 231.054Z" fill="#E5F4D9"/>
<path d="M325.701 43.585C324.148 44.8699 322.69 46.2357 321.302 47.6718C319.908 49.1018 318.575 50.5876 317.315 52.1301C316.052 53.6704 314.838 55.2513 313.705 56.8865C312.587 58.5302 311.491 60.1942 310.503 61.9198C309.987 62.7715 309.549 63.6631 309.068 64.5343C308.635 65.4281 308.167 66.3072 307.765 67.216C307.354 68.1212 306.939 69.0257 306.579 69.9527C306.395 70.4146 306.198 70.872 306.025 71.3383L305.528 72.7451C305.181 73.6781 304.929 74.6416 304.631 75.5913C304.352 76.5465 304.131 77.5181 303.879 78.4818C303.686 79.4587 303.464 80.4313 303.298 81.4141L303.072 82.8931C302.993 83.3857 302.92 83.8794 302.886 84.378C302.476 88.3491 302.53 92.378 303.078 96.3548L303.285 97.8465L303.531 99.2839L304.024 102.157C304.36 104.071 304.66 105.99 304.979 107.906C306.227 115.575 307.327 123.261 308.287 130.956C310.187 146.354 311.429 161.789 311.014 177.268C310.928 185.079 311.349 192.863 311.983 200.625C312.628 208.386 313.513 216.125 314.66 223.834L315.13 223.786C314.431 216.049 313.932 208.297 313.574 200.552C313.413 196.679 313.289 192.805 313.249 188.936C313.203 185.068 313.216 181.2 313.385 177.348C313.802 169.599 313.757 161.754 313.423 153.97C313.048 146.177 312.359 138.403 311.5 130.65C310.644 122.896 309.517 115.173 308.314 107.465C308.002 105.54 307.709 103.611 307.381 101.688L306.898 98.8027L306.657 97.3606L306.451 95.963C305.903 92.2364 305.816 88.4543 306.167 84.7062C306.229 83.7669 306.385 82.8358 306.489 81.8988C306.619 80.9654 306.805 80.0387 306.961 79.1073C307.176 78.1867 307.359 77.2583 307.599 76.3421C307.859 75.4308 308.071 74.5061 308.379 73.6064C309.5 69.9779 310.923 66.4158 312.69 62.9989C313.539 61.2733 314.498 59.5969 315.484 57.9323C316.497 56.2834 317.544 54.6489 318.656 53.0502C320.903 49.8737 323.319 46.7677 326.028 43.9125L325.701 43.585Z" fill="#B9F1A1"/>
<path d="M250.023 297.033C247.825 297.676 244.594 297.458 242.933 295.756C236.524 289.186 261.383 268.582 274.456 235.591C289.593 197.391 275.891 175.494 296.224 159.805C306.003 152.259 312.363 154.862 322.092 144.906C335.641 131.042 329.961 119.188 340.714 108.394C353.081 95.9801 379.816 92.3649 395.057 103.146C415.552 117.645 409.761 154.285 393.352 170.958C382.693 181.787 366.173 185.596 367.168 189.347C368.118 192.926 382.834 188.204 389.023 194.913C397.128 203.699 388.811 230.139 372.42 237.057C357.332 243.424 336.948 232.598 334.966 236.636C334.187 238.224 337.338 239.906 336.998 242.028C336.389 245.814 324.929 249.318 286.204 250.452C274.815 254.786 268.816 260.544 265.429 265.096C255.435 278.525 258.41 294.58 250.023 297.033Z" fill="#CEEFC0"/>
<path d="M368.531 128.11C366.443 136.253 363.554 144.188 359.711 151.692C355.882 159.205 351.105 166.23 345.466 172.609C342.636 175.793 339.631 178.849 336.513 181.818C334.921 183.28 333.36 184.761 331.729 186.196C330.125 187.65 328.504 189.098 326.875 190.539L317.06 199.217L314.616 201.409L312.206 203.641C310.59 205.119 309.012 206.639 307.427 208.15C304.256 211.172 301.17 214.272 298.12 217.401C296.609 218.978 295.088 220.546 293.624 222.162L291.409 224.568L289.229 227.003L287.056 229.444L284.925 231.917L282.798 234.392L280.719 236.904L278.655 239.426L276.645 241.986C275.306 243.694 273.957 245.394 272.678 247.142L270.734 249.747L269.763 251.048L268.825 252.373C267.592 254.15 266.339 255.912 265.125 257.699L261.576 263.112C260.406 264.923 259.322 266.784 258.206 268.623C253.838 276.031 249.914 283.669 246.736 291.554L247.187 291.723C251.056 284.13 255.404 276.787 260.133 269.667L261.936 267.014C262.542 266.133 263.104 265.228 263.744 264.367L267.494 259.151C270.082 255.73 272.665 252.309 275.365 248.966C276.684 247.274 278.073 245.63 279.451 243.979L281.519 241.505L283.641 239.069L285.747 236.622L287.898 234.21L290.052 231.801L292.248 229.424C298.125 223.106 304.162 216.92 310.453 210.969C316.745 205.021 323.243 199.261 329.755 193.423C331.38 191.959 333.009 190.498 334.612 188.999C336.224 187.517 337.787 185.967 339.369 184.446C342.48 181.338 345.521 178.146 348.338 174.767C349.037 173.919 349.7 173.042 350.381 172.182L351.394 170.884L352.347 169.546C352.975 168.649 353.634 167.772 354.235 166.861L356.001 164.105C356.613 163.2 357.119 162.239 357.656 161.295L358.453 159.876C358.72 159.404 358.989 158.933 359.22 158.445C360.173 156.505 361.175 154.591 362.031 152.619C365.469 144.741 367.851 136.504 369.013 128.182L368.531 128.11Z" fill="#AFE797"/>
<path d="M174.308 227.844C174.475 227.844 174.633 227.749 174.694 227.596C174.884 227.119 175.067 226.639 175.245 226.157C175.317 225.959 175.202 225.744 174.987 225.677C174.77 225.609 174.538 225.716 174.465 225.914C174.29 226.39 174.109 226.863 173.922 227.334C173.843 227.531 173.953 227.749 174.166 227.821C174.213 227.837 174.261 227.844 174.308 227.844Z" fill="#BDD0FB"/>
<path d="M176.317 221.815C176.501 221.815 176.669 221.7 176.716 221.528C176.976 220.569 177.214 219.594 177.421 218.63C177.465 218.425 177.32 218.225 177.097 218.184C176.875 218.142 176.658 218.277 176.613 218.483C176.409 219.434 176.175 220.397 175.918 221.344C175.862 221.547 175.996 221.753 176.216 221.804C176.25 221.811 176.284 221.815 176.317 221.815ZM177.823 214.198C178.029 214.198 178.207 214.056 178.232 213.862C178.354 212.886 178.453 211.891 178.524 210.905C178.538 210.696 178.367 210.515 178.14 210.501C177.917 210.49 177.717 210.646 177.702 210.855C177.632 211.828 177.535 212.811 177.414 213.775C177.388 213.983 177.55 214.172 177.775 214.195C177.791 214.197 177.807 214.198 177.823 214.198ZM178.251 206.465C178.252 206.465 178.254 206.465 178.254 206.465C178.483 206.462 178.665 206.291 178.662 206.081C178.649 205.096 178.608 204.098 178.543 203.115C178.529 202.906 178.337 202.747 178.107 202.759C177.88 202.772 177.707 202.952 177.721 203.161C177.786 204.132 177.826 205.118 177.839 206.091C177.842 206.299 178.026 206.465 178.251 206.465ZM177.605 198.748C177.624 198.748 177.644 198.747 177.663 198.744C177.888 198.715 178.045 198.523 178.013 198.316C177.862 197.34 177.683 196.355 177.48 195.387C177.437 195.182 177.221 195.048 176.998 195.087C176.775 195.127 176.629 195.325 176.672 195.531C176.872 196.487 177.049 197.46 177.198 198.422C177.227 198.611 177.403 198.748 177.605 198.748ZM175.883 191.172C175.92 191.172 175.957 191.167 175.994 191.158C176.213 191.102 176.341 190.893 176.28 190.691C175.995 189.747 175.678 188.792 175.339 187.851C175.268 187.653 175.035 187.545 174.819 187.611C174.604 187.677 174.487 187.891 174.558 188.09C174.893 189.019 175.206 189.962 175.488 190.894C175.538 191.062 175.703 191.172 175.883 191.172ZM173.105 183.862C173.159 183.862 173.213 183.853 173.266 183.832C173.475 183.75 173.573 183.528 173.483 183.335C173.065 182.427 172.615 181.516 172.146 180.627C172.047 180.439 171.801 180.361 171.596 180.452C171.392 180.543 171.306 180.77 171.406 180.958C171.868 181.836 172.312 182.736 172.726 183.632C172.793 183.776 172.945 183.862 173.105 183.862ZM169.316 176.944C169.387 176.944 169.459 176.927 169.525 176.891C169.72 176.785 169.785 176.553 169.67 176.372C169.128 175.524 168.554 174.675 167.965 173.849C167.84 173.675 167.584 173.626 167.395 173.74C167.205 173.856 167.152 174.09 167.276 174.266C167.858 175.081 168.425 175.92 168.961 176.757C169.038 176.877 169.175 176.944 169.316 176.944ZM164.589 170.538C164.677 170.538 164.766 170.512 164.841 170.458C165.02 170.329 165.053 170.091 164.913 169.926C164.256 169.148 163.568 168.375 162.87 167.627C162.721 167.468 162.461 167.451 162.289 167.587C162.117 167.724 162.098 167.963 162.246 168.122C162.935 168.86 163.615 169.623 164.264 170.391C164.345 170.487 164.466 170.538 164.589 170.538ZM159.007 164.747C159.113 164.747 159.219 164.709 159.3 164.635C159.46 164.486 159.458 164.246 159.297 164.099C158.536 163.405 157.747 162.719 156.951 162.062C156.782 161.923 156.522 161.935 156.37 162.091C156.218 162.247 156.232 162.487 156.401 162.626C157.187 163.276 157.967 163.952 158.718 164.637C158.798 164.711 158.903 164.747 159.007 164.747ZM152.667 159.666C152.791 159.666 152.914 159.615 152.995 159.517C153.133 159.351 153.098 159.113 152.917 158.986C152.069 158.39 151.191 157.804 150.309 157.245C150.121 157.126 149.865 157.17 149.736 157.342C149.608 157.515 149.655 157.751 149.842 157.869C150.714 158.421 151.58 159 152.418 159.588C152.492 159.641 152.58 159.666 152.667 159.666ZM145.672 155.38C145.814 155.38 145.953 155.312 146.029 155.19C146.143 155.009 146.075 154.777 145.878 154.673C144.949 154.18 143.997 153.704 143.049 153.257C142.848 153.162 142.599 153.236 142.495 153.422C142.392 153.608 142.472 153.837 142.674 153.932C143.611 154.373 144.55 154.844 145.467 155.33C145.532 155.364 145.603 155.38 145.672 155.38ZM85.9914 152.984C86.0493 152.984 86.1084 152.972 86.1646 152.949C87.1255 152.537 88.1076 152.144 89.0845 151.779C89.2952 151.7 89.3964 151.479 89.3112 151.285C89.2252 151.091 88.9845 150.998 88.7751 151.076C87.7858 151.446 86.7906 151.845 85.8174 152.261C85.6115 152.349 85.522 152.575 85.6177 152.764C85.6877 152.903 85.8363 152.984 85.9914 152.984ZM138.139 151.965C138.301 151.965 138.454 151.877 138.519 151.731C138.606 151.537 138.506 151.316 138.297 151.236C137.309 150.859 136.299 150.501 135.295 150.171C135.082 150.101 134.846 150.203 134.77 150.4C134.693 150.598 134.804 150.814 135.019 150.885C136.01 151.211 137.007 151.564 137.982 151.936C138.033 151.956 138.087 151.965 138.139 151.965ZM93.8303 150.185C93.8709 150.185 93.9126 150.179 93.9536 150.168C94.9603 149.876 95.9899 149.603 97.0142 149.358C97.234 149.305 97.3662 149.098 97.3088 148.895C97.2514 148.693 97.0243 148.571 96.8068 148.624C95.7692 148.873 94.7264 149.149 93.7068 149.444C93.4898 149.507 93.3697 149.72 93.4375 149.92C93.4931 150.081 93.655 150.185 93.8303 150.185ZM130.189 149.479C130.371 149.479 130.537 149.367 130.586 149.198C130.645 148.996 130.515 148.788 130.295 148.734C129.262 148.479 128.208 148.244 127.162 148.036C126.938 147.993 126.721 148.122 126.673 148.326C126.625 148.531 126.766 148.733 126.988 148.777C128.021 148.982 129.062 149.214 130.082 149.466C130.118 149.475 130.154 149.479 130.189 149.479ZM101.999 148.349C102.022 148.349 102.046 148.348 102.07 148.344C103.111 148.175 104.17 148.028 105.219 147.907C105.445 147.881 105.605 147.691 105.577 147.484C105.549 147.276 105.343 147.129 105.117 147.155C104.054 147.277 102.981 147.426 101.927 147.597C101.704 147.633 101.554 147.83 101.594 148.036C101.629 148.22 101.802 148.349 101.999 148.349ZM121.948 147.965C122.151 147.965 122.328 147.826 122.355 147.635C122.385 147.428 122.227 147.237 122.002 147.21C120.943 147.08 119.864 146.973 118.797 146.892C118.566 146.873 118.372 147.03 118.353 147.238C118.334 147.447 118.503 147.63 118.729 147.647C119.783 147.728 120.847 147.833 121.893 147.961C121.911 147.964 121.929 147.965 121.948 147.965ZM110.357 147.504C110.363 147.504 110.369 147.504 110.375 147.503C111.289 147.465 112.217 147.445 113.133 147.442L113.329 147.442L113.562 147.442C113.562 147.442 113.562 147.442 113.563 147.442C113.789 147.442 113.974 147.273 113.974 147.064C113.975 146.855 113.791 146.685 113.564 146.684L113.329 146.684L113.13 146.684C112.203 146.687 111.263 146.708 110.339 146.746C110.111 146.755 109.936 146.933 109.946 147.142C109.956 147.345 110.138 147.504 110.357 147.504Z" fill="#BDD0FB"/>
<path d="M79.9054 155.965C79.9777 155.965 80.0508 155.947 80.1172 155.911C80.5837 155.652 81.0539 155.399 81.5282 155.151C81.7259 155.048 81.7954 154.816 81.6833 154.634C81.5713 154.453 81.3197 154.388 81.1223 154.492C80.6417 154.743 80.1651 154.999 79.6928 155.261C79.4979 155.369 79.4352 155.602 79.5525 155.781C79.6297 155.899 79.766 155.965 79.9054 155.965Z" fill="#BDD0FB"/>
<path d="M50.2734 192.937C50.4583 192.937 50.6267 192.822 50.6724 192.649C50.8027 192.161 50.9392 191.675 51.0827 191.191C51.1426 190.989 51.0131 190.781 50.7942 190.726C50.5776 190.672 50.3489 190.789 50.2886 190.991C50.1436 191.481 50.0054 191.973 49.8736 192.468C49.8193 192.671 49.9543 192.877 50.175 192.927C50.208 192.934 50.2409 192.937 50.2734 192.937Z" fill="#BDD0FB"/>
<path d="M114.783 267.038C114.786 267.038 114.789 267.038 114.792 267.038C115.907 267.016 117.034 266.967 118.144 266.893C118.371 266.878 118.541 266.696 118.524 266.487C118.508 266.278 118.307 266.123 118.084 266.136C116.989 266.21 115.875 266.258 114.775 266.28C114.547 266.285 114.367 266.458 114.372 266.668C114.377 266.874 114.56 267.038 114.783 267.038ZM109.369 266.943C109.584 266.943 109.766 266.788 109.779 266.587C109.793 266.378 109.62 266.198 109.393 266.186C108.296 266.125 107.186 266.037 106.095 265.924C105.866 265.901 105.666 266.051 105.64 266.259C105.615 266.467 105.778 266.654 106.003 266.678C107.108 266.791 108.232 266.88 109.343 266.942C109.352 266.943 109.36 266.943 109.369 266.943ZM123.494 266.326C123.515 266.326 123.536 266.325 123.558 266.321C124.659 266.162 125.769 265.975 126.858 265.764C127.08 265.721 127.222 265.52 127.176 265.315C127.129 265.11 126.91 264.978 126.688 265.022C125.614 265.23 124.517 265.415 123.43 265.572C123.206 265.605 123.052 265.799 123.087 266.006C123.12 266.193 123.294 266.326 123.494 266.326ZM100.701 265.92C100.893 265.92 101.065 265.795 101.104 265.615C101.148 265.409 101.003 265.21 100.78 265.169C99.7021 264.973 98.6155 264.749 97.5502 264.502C97.3295 264.452 97.1057 264.574 97.0506 264.777C96.9952 264.98 97.1291 265.186 97.3493 265.237C98.4287 265.487 99.529 265.714 100.621 265.913C100.648 265.918 100.674 265.92 100.701 265.92ZM132.021 264.541C132.06 264.541 132.1 264.536 132.14 264.525C133.207 264.231 134.279 263.906 135.327 263.562C135.541 263.491 135.653 263.274 135.576 263.077C135.5 262.88 135.264 262.777 135.05 262.848C134.016 263.188 132.957 263.508 131.903 263.799C131.686 263.859 131.562 264.071 131.627 264.271C131.681 264.435 131.844 264.541 132.021 264.541ZM92.2603 263.83C92.4312 263.83 92.5911 263.731 92.6498 263.574C92.7233 263.376 92.6088 263.161 92.3938 263.093C91.3541 262.764 90.3101 262.406 89.2913 262.029C89.0807 261.95 88.8412 262.045 88.7561 262.239C88.6713 262.433 88.7734 262.654 88.9843 262.732C90.0163 263.114 91.0736 263.477 92.1269 263.81C92.1711 263.824 92.2162 263.83 92.2603 263.83ZM140.208 261.71C140.265 261.71 140.323 261.699 140.378 261.676C141.393 261.251 142.408 260.796 143.395 260.325C143.596 260.228 143.675 260 143.57 259.814C143.466 259.628 143.218 259.555 143.015 259.652C142.042 260.117 141.039 260.566 140.037 260.986C139.831 261.073 139.739 261.298 139.833 261.488C139.902 261.628 140.052 261.71 140.208 261.71ZM84.2066 260.708C84.3573 260.708 84.5024 260.632 84.5747 260.5C84.6768 260.313 84.5948 260.085 84.3918 259.991C83.412 259.537 82.4315 259.053 81.4775 258.553C81.2817 258.449 81.0294 258.513 80.9165 258.695C80.8039 258.877 80.873 259.108 81.0707 259.212C82.0364 259.718 83.0294 260.208 84.0221 260.668C84.0811 260.695 84.1447 260.708 84.2066 260.708ZM76.6856 256.618C76.817 256.618 76.9457 256.56 77.0256 256.453C77.1537 256.28 77.1059 256.044 76.9187 255.926C76.0148 255.356 75.1131 254.755 74.2378 254.14C74.0574 254.013 73.799 254.045 73.6611 254.211C73.5232 254.378 73.5578 254.615 73.7386 254.742C74.6248 255.365 75.5382 255.974 76.4533 256.551C76.5244 256.596 76.6057 256.618 76.6856 256.618ZM69.8249 251.634C69.9371 251.634 70.0491 251.592 70.1304 251.509C70.2827 251.354 70.2694 251.114 70.1007 250.974C69.2857 250.295 68.4788 249.588 67.702 248.872C67.5412 248.724 67.2808 248.724 67.1201 248.872C66.9593 249.02 66.9593 249.26 67.1201 249.408C67.9062 250.133 68.7236 250.849 69.5494 251.536C69.6277 251.602 69.7265 251.634 69.8249 251.634ZM63.7467 245.849C63.8403 245.849 63.9347 245.819 64.0119 245.759C64.1855 245.624 64.2071 245.385 64.0605 245.225C63.35 244.451 62.652 243.651 61.9864 242.846C61.8486 242.68 61.591 242.647 61.4093 242.774C61.2289 242.901 61.1939 243.139 61.3314 243.305C62.0057 244.12 62.7121 244.931 63.432 245.715C63.5136 245.803 63.6298 245.849 63.7467 245.849ZM58.5602 239.365C58.6358 239.365 58.7125 239.346 58.7812 239.306C58.9726 239.193 59.0288 238.959 58.9067 238.783C58.3147 237.927 57.7396 237.048 57.1967 236.167C57.0851 235.986 56.8343 235.921 56.6357 236.025C56.4384 236.128 56.3689 236.36 56.4814 236.542C57.0308 237.433 57.6135 238.324 58.2131 239.19C58.2914 239.304 58.4244 239.365 58.5602 239.365ZM54.3643 232.297C54.4217 232.297 54.4804 232.286 54.5362 232.262C54.7428 232.174 54.8329 231.949 54.7376 231.759C54.2763 230.839 53.8347 229.895 53.4255 228.953C53.3407 228.759 53.1012 228.665 52.8903 228.743C52.6793 228.82 52.5768 229.041 52.6612 229.235C53.076 230.189 53.5232 231.145 53.9902 232.077C54.0597 232.215 54.2088 232.297 54.3643 232.297ZM51.2422 224.768C51.282 224.768 51.3226 224.762 51.3627 224.751C51.5797 224.69 51.7023 224.478 51.6356 224.278C51.3152 223.313 51.0171 222.325 50.7494 221.34C50.6943 221.137 50.4706 221.013 50.2503 221.064C50.0301 221.115 49.8958 221.321 49.9513 221.524C50.2222 222.521 50.524 223.522 50.8487 224.499C50.9031 224.663 51.0658 224.768 51.2422 224.768ZM49.2578 216.928C49.2796 216.928 49.302 216.927 49.3241 216.923C49.5487 216.89 49.701 216.695 49.6645 216.488C49.4884 215.492 49.3377 214.476 49.2168 213.467C49.1916 213.26 48.9894 213.111 48.7627 213.132C48.5365 213.155 48.3738 213.343 48.3987 213.551C48.5213 214.572 48.674 215.601 48.852 216.61C48.8848 216.796 49.0596 216.928 49.2578 216.928ZM48.436 208.915C48.4401 208.915 48.4441 208.915 48.4477 208.915C48.6751 208.909 48.8539 208.735 48.8479 208.525C48.8331 208.034 48.825 207.54 48.8234 207.046L48.823 206.867C48.8226 206.402 48.8286 205.938 48.8403 205.475C48.8455 205.266 48.6655 205.092 48.4385 205.088C48.2146 205.068 48.0225 205.249 48.0174 205.458C48.0057 205.926 47.9997 206.396 48.0001 206.867L48.0004 207.049C48.002 207.549 48.01 208.048 48.025 208.547C48.0314 208.752 48.2141 208.915 48.436 208.915ZM48.7767 200.869C48.9845 200.869 49.163 200.725 49.1854 200.53C49.3024 199.518 49.4482 198.501 49.619 197.506C49.6548 197.299 49.5017 197.105 49.2771 197.072C49.0532 197.039 48.8415 197.181 48.8065 197.388C48.6334 198.395 48.4855 199.425 48.3673 200.45C48.3432 200.658 48.5067 200.845 48.733 200.867C48.7474 200.868 48.7622 200.869 48.7767 200.869Z" fill="#BDD0FB"/>
<path d="M147.929 257.871C148.004 257.871 148.08 257.852 148.148 257.813C148.615 257.541 149.078 257.265 149.537 256.983C149.726 256.867 149.778 256.632 149.651 256.458C149.526 256.283 149.27 256.236 149.081 256.352C148.628 256.63 148.171 256.904 147.709 257.171C147.517 257.283 147.459 257.517 147.581 257.694C147.659 257.808 147.792 257.871 147.929 257.871Z" fill="#BDD0FB"/>
<path d="M145.988 241.607C145.761 241.831 145.405 241.898 145.101 241.774L136.434 238.224C132.754 240.494 128.654 242.241 124.255 243.34L121.479 251.688C121.382 251.981 121.093 252.184 120.761 252.195L109.39 252.56C109.058 252.571 108.755 252.386 108.636 252.101L105.235 243.951C100.763 243.137 96.5415 241.658 92.6985 239.629L84.3214 243.727C84.0277 243.87 83.6676 243.826 83.4245 243.618L75.1039 236.471C74.8606 236.262 74.7882 235.934 74.9234 235.654L78.7778 227.672C76.3127 224.282 74.4167 220.506 73.2229 216.454L64.1594 213.897C63.8415 213.807 63.6203 213.542 63.6088 213.236L63.2121 202.763C63.2006 202.457 63.401 202.178 63.7115 202.068L72.5596 198.936C73.4439 194.817 75.0495 190.928 77.2523 187.389L72.8033 179.673C72.6474 179.402 72.6949 179.07 72.9216 178.847L80.6813 171.183C80.908 170.959 81.2641 170.892 81.5679 171.017L90.2345 174.567C93.9145 172.296 98.0146 170.55 102.414 169.45L105.19 161.102C105.287 160.81 105.575 160.606 105.908 160.595L117.278 160.23C117.61 160.219 117.913 160.404 118.033 160.69L121.433 168.839C125.905 169.654 130.127 171.133 133.97 173.162L142.347 169.064C142.641 168.92 143.001 168.964 143.244 169.173L151.565 176.32C151.808 176.529 151.88 176.857 151.745 177.137L147.891 185.119C150.356 188.509 152.252 192.285 153.446 196.337L162.509 198.894C162.827 198.983 163.048 199.249 163.06 199.555L163.457 210.028C163.468 210.334 163.268 210.613 162.957 210.723L154.109 213.855C153.225 217.974 151.619 221.862 149.417 225.402L153.865 233.118C154.021 233.388 153.974 233.72 153.747 233.944L145.988 241.607Z" fill="#BDD0FB"/>
<path d="M113.36 216.272C115.398 216.272 117.396 215.734 119.15 214.692C121.556 213.262 123.213 211.055 123.817 208.477C124.421 205.899 123.899 203.259 122.346 201.043C120.794 198.826 118.398 197.3 115.598 196.744C109.819 195.595 104.106 198.992 102.86 204.314C102.256 206.892 102.778 209.532 104.331 211.748C105.883 213.964 108.28 215.491 111.079 216.047C111.837 216.197 112.602 216.272 113.36 216.272ZM113.337 197.658C113.997 197.658 114.667 197.722 115.338 197.855C117.815 198.347 119.935 199.698 121.309 201.659C122.682 203.62 123.145 205.956 122.611 208.237C122.076 210.518 120.61 212.471 118.481 213.736C116.352 215.002 113.814 215.427 111.339 214.935C108.862 214.443 106.742 213.092 105.369 211.131C103.995 209.17 103.532 206.834 104.066 204.553C105.025 200.463 108.967 197.658 113.337 197.658Z" fill="url(#paint0_linear_8739_29431)"/>
<path d="M113.155 232.085C113.485 232.085 113.814 232.079 114.147 232.069C114.981 232.042 115.814 231.981 116.64 231.887C116.666 231.884 116.691 231.881 116.716 231.878C116.717 231.878 116.719 231.878 116.719 231.878C116.728 231.877 116.736 231.876 116.744 231.875C116.758 231.873 116.771 231.872 116.785 231.87L116.787 231.87C117.517 231.783 118.242 231.67 118.96 231.532C118.965 231.531 118.97 231.53 118.976 231.529C119.08 231.509 119.184 231.488 119.288 231.467C119.434 231.437 119.58 231.406 119.725 231.374C119.838 231.349 119.951 231.323 120.064 231.297L119.762 230.195C117.922 230.622 116.018 230.871 114.104 230.932C99.3265 231.41 86.8642 220.713 86.3485 207.092C86.3373 206.799 86.3321 206.507 86.3321 206.217C86.3333 192.983 97.762 181.993 112.233 181.528C127.032 181.051 139.472 191.748 139.988 205.368C139.999 205.657 140.004 205.945 140.004 206.234C140.004 210.415 138.858 214.526 136.667 218.174L137.748 218.725C140.039 214.908 141.239 210.607 141.239 206.234C141.239 205.932 141.233 205.631 141.221 205.329C140.682 191.081 127.654 179.89 112.189 180.391C97.0534 180.878 85.0986 192.374 85.0974 206.216C85.0974 206.52 85.103 206.825 85.1147 207.131C85.6428 221.073 98.1264 232.085 113.155 232.085Z" fill="url(#paint1_linear_8739_29431)"/>
<path d="M364.471 301.61L189.803 342.976C186.774 343.694 183.612 341.942 182.741 339.065L112.454 106.815C111.583 103.938 113.333 101.023 116.362 100.306L291.03 58.9401C294.059 58.2227 297.221 59.9739 298.092 62.8516L368.379 295.101C369.25 297.979 367.5 300.893 364.471 301.61Z" fill="#A6ADD8"/>
<path opacity="0.62" d="M347.667 289.21L197.442 324.806C196.388 325.055 195.289 324.446 194.986 323.444L128.601 103.976C128.298 102.975 128.906 101.96 129.96 101.711L280.185 66.1146C281.239 65.8649 282.338 66.4744 282.641 67.4759L349.026 286.944C349.329 287.945 348.721 288.96 347.667 289.21Z" fill="white"/>
<path d="M207.302 40.6102C199.89 37.8116 194.523 39.0655 191.042 40.9669C187.867 42.7012 186.561 46.4017 187.899 49.7854L194.551 66.6014L214.512 64.0297C214.512 64.0297 221.837 46.0987 207.302 40.6102ZM202.782 56.325C200.1 56.908 197.316 55.2907 196.563 52.7127C195.81 50.1345 197.374 47.572 200.056 46.9891C202.738 46.4062 205.523 48.0236 206.276 50.6017C207.028 53.1797 205.464 55.7421 202.782 56.325Z" fill="#6771BE"/>
<path d="M194.348 58.9867C194.159 59.0308 193.955 58.9274 193.883 58.7459L192.827 56.0746C192.752 55.884 192.85 55.6795 193.048 55.6176C193.242 55.5584 193.466 55.6603 193.541 55.8508L194.597 58.5221C194.672 58.7127 194.574 58.9173 194.376 58.9791C194.367 58.982 194.358 58.9845 194.348 58.9867ZM192.279 53.752C192.089 53.796 191.886 53.6929 191.814 53.5112L191.012 51.483C189.759 48.3126 190.997 44.8379 193.956 43.2207C196.066 42.0672 198.41 41.4578 200.922 41.4093C201.132 41.4052 201.315 41.5644 201.33 41.7646C201.345 41.9651 201.186 42.1311 200.976 42.1347C198.59 42.181 196.365 42.7592 194.362 43.8541C191.711 45.3028 190.602 48.417 191.726 51.259L192.528 53.2871C192.603 53.4777 192.504 53.6824 192.307 53.7442C192.298 53.7472 192.288 53.7497 192.279 53.752Z" fill="white"/>
<path d="M170.178 83.6939L167.611 74.7556C166.725 71.6701 168.63 68.6204 171.814 68.0283L235.44 56.1969C238.264 55.6719 241.149 57.3294 242.101 60.024L245.094 68.4959L170.178 83.6939Z" fill="#6771BE"/>
<path d="M149.048 84.2988L259.509 59.5985C263.481 58.7103 267.68 60.7748 269.457 64.4896L269.702 65.0022C271.648 69.0713 269.449 73.6823 265.099 74.655L151.771 99.993C149.168 100.575 146.481 98.8885 145.876 96.2915L144.695 91.2262C143.956 88.0578 145.872 85.009 149.048 84.2988Z" fill="#A6ADD8"/>
<path opacity="0.6" d="M329.919 249.111L189.359 283.379C188.903 283.49 188.427 283.219 188.296 282.773L186.33 276.096C186.199 275.65 186.462 275.198 186.918 275.087L327.479 240.82C327.935 240.708 328.411 240.98 328.542 241.425L330.508 248.103C330.639 248.548 330.375 249 329.919 249.111Z" fill="white"/>
<path opacity="0.6" d="M334.014 264.269L193.453 298.537C192.997 298.648 192.521 298.377 192.39 297.931L190.425 291.254C190.293 290.808 190.557 290.357 191.013 290.245L331.573 255.978C332.029 255.867 332.505 256.138 332.636 256.584L334.602 263.261C334.733 263.707 334.47 264.158 334.014 264.269Z" fill="white"/>
<path opacity="0.6" d="M339.42 279.798L198.86 314.065C198.404 314.176 197.927 313.905 197.796 313.459L195.831 306.782C195.7 306.336 195.963 305.885 196.419 305.774L336.979 271.506C337.435 271.395 337.912 271.666 338.043 272.112L340.008 278.789C340.139 279.235 339.876 279.686 339.42 279.798Z" fill="white"/>
<path opacity="0.6" d="M268.292 229.038L180.19 249.921C179.235 250.147 178.238 249.594 177.963 248.686L136.672 112.133C136.397 111.225 136.949 110.305 137.904 110.079L226.006 89.1957C226.961 88.9693 227.958 89.522 228.233 90.4301L269.525 226.983C269.799 227.891 269.248 228.811 268.292 229.038Z" fill="white"/>
<path d="M254.402 194.706C252.501 193.358 248.352 190.741 246.104 189.473C243.856 188.205 239.38 178.504 237.451 174.655C235.522 170.807 233.424 165.208 230.521 163.018C227.618 160.828 224.827 155.39 219.695 144.767C216.299 137.737 213.149 135.197 211.406 134.283C210.715 133.92 209.921 133.802 209.172 133.949C197.007 136.328 193.386 126.889 193.386 126.889L189.574 127.774L185.761 128.659C185.761 128.659 188.055 138.407 176.147 141.617C175.414 141.815 174.793 142.261 174.403 142.875C173.419 144.422 172.151 147.988 173.254 155.551C174.92 166.978 175.631 172.899 174.375 176.055C173.12 179.211 174.524 184.971 175.067 189.141C175.61 193.311 177.313 203.656 176.096 205.729C174.878 207.802 172.789 211.867 171.917 213.859C171.046 215.852 173.04 221.117 173.349 222.119C173.658 223.122 176.441 218.895 177.209 216.569C177.977 214.242 178.118 213.494 178.811 213.333C179.504 213.172 178.455 216.996 180.047 217.342C181.639 217.688 181.443 213.437 181.621 211.606C181.799 209.775 180.357 205.097 180.433 202.932C180.508 200.766 183.92 181.715 184.585 179.055C185.25 176.394 182.853 166.21 182.685 164.459C182.517 162.708 185.795 167.317 185.795 167.317C185.795 167.317 191.154 174.307 191.107 178.972C191.059 183.638 188.683 198.286 193.111 212.652C197.54 227.018 206.796 239.056 208.585 243.653L223.141 240.273L212.841 206.863L214.921 206.38L225.22 239.79L239.776 236.41C238.681 231.652 240.369 217.074 235.94 202.707C231.511 188.341 220.429 176.818 217.704 172.796C214.978 168.775 215.6 160.396 215.6 160.396C215.6 160.396 215.788 154.982 216.65 156.573C217.511 158.163 221.294 168.025 223.401 170.041C225.509 172.058 239.426 187.085 240.737 188.929C242.048 190.773 243.49 195.45 244.698 196.96C245.906 198.469 248.182 202.237 249.362 201.247C250.543 200.257 247.433 197.399 248.126 197.238C248.82 197.077 249.372 197.664 251.376 199.347C253.381 201.03 258.223 203.486 257.914 202.483C257.605 201.481 256.304 196.055 254.402 194.706Z" fill="#A6ADD8"/>
<path d="M175.892 111.175C175.892 111.175 179.302 123.554 181.225 125.838C183.318 128.324 188.086 132.741 192.247 132.377C196.408 132.014 198.971 123.433 198.745 120.739C198.608 119.096 195.435 109.095 194.144 104.942C191.894 97.6984 172.276 99.8649 175.892 111.175Z" fill="#A6ADD8"/>
<path d="M178.993 118.922C178.993 118.922 176.847 115.872 175.5 117.367C174.152 118.863 180.545 124.927 180.545 124.927L178.993 118.922Z" fill="#A6ADD8"/>
<path d="M196.967 114.449C196.967 114.449 195.425 109.469 199.114 111.581C202.802 113.693 198.338 118.874 198.338 118.874L196.967 114.449Z" fill="#A6ADD8"/>
<defs>
<linearGradient id="paint0_linear_8739_29431" x1="124.062" y1="206.396" x2="102.615" y2="206.396" gradientUnits="userSpaceOnUse">
<stop stop-color="#DAE3FE"/>
<stop offset="1" stop-color="#E9EFFD"/>
</linearGradient>
<linearGradient id="paint1_linear_8739_29431" x1="141.239" y1="206.23" x2="85.0975" y2="206.23" gradientUnits="userSpaceOnUse">
<stop stop-color="#DAE3FE"/>
<stop offset="1" stop-color="#E9EFFD"/>
</linearGradient>
</defs>
</svg>
