<svg width="44" height="44" viewBox="0 0 44 44" fill="none" xmlns="http://www.w3.org/2000/svg">
<path d="M5.5 21.9999C5.49957 18.5876 6.55708 15.2591 8.5269 12.4728C10.4967 9.6865 13.2819 7.57944 16.499 6.4418C19.7161 5.30417 23.2067 5.19193 26.4902 6.12053C29.7737 7.04913 32.6886 8.9729 34.8333 11.6269" stroke="#1686FF" stroke-width="4.2" stroke-linecap="round" stroke-linejoin="round"/>
<path d="M35.75 5.5V12.8333H28.4167M38.5 22C38.5001 25.4121 37.4423 28.7404 35.4723 31.5264C33.5024 34.3124 30.7171 36.4192 27.5001 37.5566C24.2832 38.694 20.7927 38.8061 17.5094 37.8774C14.226 36.9488 11.3113 35.025 9.16669 32.3712" stroke="#1686FF" stroke-width="4.2" stroke-linecap="round" stroke-linejoin="round"/>
<path d="M8.25 38.4998V31.1665H15.5833" stroke="#1686FF" stroke-width="4.2" stroke-linecap="round" stroke-linejoin="round"/>
</svg>
