<svg width="236" height="157" viewBox="0 0 236 157" fill="none" xmlns="http://www.w3.org/2000/svg">
<path d="M53.6467 138.104C58.7743 105.309 80.3322 64.932 123.347 60.4765C123.347 60.4765 156.003 56.5473 188.248 62.0405C207.386 65.3004 224.206 75.2322 234.895 89.5821C245.584 103.932 249.227 121.483 245.022 138.26C242.29 149.156 240.467 160.428 241.048 171.605C242.06 191.058 241.644 209.225 221.664 220.943C203.824 231.406 181.351 240.672 159.87 242.394C145.272 243.564 128.885 241.896 114.789 238.394C42.9542 220.545 48.5184 170.898 53.6467 138.104Z" fill="#F4F7FA"/>
<path d="M199.577 55.1292C181.503 50.2861 163.195 62.2215 160.41 80.7255C156.663 105.625 150.861 133.436 143.082 162.469C135.302 191.502 126.421 218.488 117.217 241.926C110.377 259.343 120.264 278.833 138.338 283.676C156.413 288.519 174.72 276.584 177.505 258.08C181.253 233.179 187.054 205.369 194.834 176.336C202.613 147.303 211.494 120.317 220.698 96.8796C227.539 79.4622 217.652 59.9722 199.577 55.1292Z" fill="#F37C79"/>
<path d="M123.536 243.619C132.74 220.18 141.621 193.195 149.4 164.162C157.18 135.13 162.982 107.318 166.729 82.4185C169.35 65.0082 185.712 53.4178 202.693 56.1422C201.683 55.7573 200.646 55.4156 199.578 55.1293C181.503 50.2862 163.196 62.2216 160.411 80.7256C156.663 105.625 150.862 133.436 143.082 162.469C135.303 191.502 126.422 218.488 117.218 241.926C110.378 259.343 120.265 278.833 138.339 283.676C139.408 283.962 140.476 284.185 141.543 284.356C125.475 278.225 117.099 260.006 123.536 243.619Z" fill="#F19997"/>
<path d="M194.983 131.911L165.165 123.922C163.102 123.369 161.878 121.249 162.431 119.186L164.955 109.767C165.507 107.704 167.628 106.48 169.691 107.033L199.508 115.022C201.571 115.575 202.795 117.695 202.242 119.758L199.718 129.177C199.166 131.24 197.045 132.464 194.983 131.911Z" fill="#455A64"/>
<path d="M170.407 128.248L169.77 128.077C167.835 127.559 166.687 125.57 167.206 123.635L171.314 108.302C171.833 106.367 173.821 105.218 175.756 105.737L176.393 105.907L170.407 128.248Z" fill="#546E7A"/>
<path d="M177.557 130.163L176.92 129.993C174.985 129.474 173.837 127.486 174.355 125.551L178.464 110.217C178.982 108.282 180.971 107.134 182.906 107.652L183.543 107.823L177.557 130.163Z" fill="#546E7A"/>
<path d="M195.228 71.36L196.628 78.3856L203.209 81.2159L196.959 84.7178L196.302 91.8515L191.04 86.9898L184.052 88.5691L187.049 82.0625L183.389 75.9052L190.503 76.7444L195.228 71.36Z" fill="white"/>
<mask id="mask0_11337_44837" style="mask-type:luminance" maskUnits="userSpaceOnUse" x="115" y="54" width="108" height="231">
<path d="M199.577 55.1292C181.503 50.2861 163.195 62.2215 160.41 80.7255C156.663 105.625 150.861 133.436 143.082 162.469C135.302 191.502 126.421 218.488 117.217 241.926C110.377 259.343 120.264 278.833 138.338 283.676C156.413 288.519 174.72 276.584 177.505 258.08C181.253 233.179 187.054 205.369 194.834 176.336C202.613 147.303 211.494 120.317 220.698 96.8796C227.539 79.4622 217.652 59.9722 199.577 55.1292Z" fill="white"/>
</mask>
<g mask="url(#mask0_11337_44837)">
<path d="M147.019 136.076L170.916 162.095L204.621 151.51" stroke="white" stroke-width="4.4109" stroke-miterlimit="10"/>
<path d="M143.264 150.089L167.161 176.108L200.866 165.523" stroke="white" stroke-width="13.2328" stroke-miterlimit="10"/>
</g>
<path d="M164.131 90.6905C166.025 91.5974 166.826 93.8679 165.919 95.7625L150.25 128.489L143.39 125.204L159.059 92.4781C159.966 90.5843 162.237 89.7835 164.131 90.6905Z" fill="#8DA2AC"/>
<path d="M118.001 91.4737C120.277 90.939 122.556 92.351 123.091 94.6279L131.987 132.497L123.742 134.434L114.847 96.5637C114.313 94.2869 115.725 92.0083 118.001 91.4737Z" fill="#738994"/>
<path d="M158.085 82.5561C159.979 83.463 160.779 85.7335 159.873 87.6273L144.204 120.353L137.344 117.069L153.013 84.3428C153.92 82.449 156.19 81.6491 158.085 82.5561Z" fill="#8DA2AC"/>
<path d="M151.163 76.248C153.057 77.1549 153.858 79.4254 152.951 81.32L137.282 114.046L130.423 110.762L146.091 78.0355C146.998 76.1409 149.269 75.341 151.163 76.248Z" fill="#8DA2AC"/>
<path d="M141.327 76.0292C143.22 76.9361 144.021 79.2065 143.114 81.1011L127.445 113.827L120.586 110.543L136.255 77.8167C137.161 75.9229 139.433 75.1223 141.327 76.0292Z" fill="#8DA2AC"/>
<path d="M118.184 121.197L108.933 140.521L134.424 152.724L143.675 133.4L118.184 121.197Z" fill="#738994"/>
<path d="M140.93 147.952L109.809 133.051L120.294 111.151C124.409 102.557 134.711 98.9263 143.305 103.041C151.899 107.155 155.53 117.457 151.415 126.051L140.93 147.952Z" fill="#8DA2AC"/>
<path d="M116.831 118.608L116.003 120.338L146.94 135.148L147.768 133.419L116.831 118.608Z" fill="#88E7F3"/>
<path d="M114.925 122.59L114.097 124.319L145.034 139.13L145.862 137.4L114.925 122.59Z" fill="#88E7F3"/>
<path d="M113.019 126.572L112.191 128.301L143.128 143.111L143.955 141.382L113.019 126.572Z" fill="#88E7F3"/>
<path d="M139.453 111.088L139.501 115.137L142.864 117.393L139.028 118.69L137.921 122.585L135.502 119.338L131.456 119.49L133.797 116.186L132.402 112.384L136.268 113.589L139.453 111.088Z" fill="#EB7F7D"/>
<path d="M64.6437 113.799C62.6437 114.44 61.5413 116.581 62.1825 118.581L73.2492 153.135L80.4918 150.816L69.4251 116.261C68.7847 114.26 66.6437 113.158 64.6437 113.799Z" fill="#8DA2AC"/>
<path d="M110.238 120.855C108.055 120.015 105.605 121.104 104.765 123.286L90.7961 159.592L98.6999 162.633L112.669 126.327C113.509 124.145 112.42 121.695 110.238 120.855Z" fill="#738994"/>
<path d="M71.7419 106.563C69.7419 107.203 68.6394 109.344 69.2806 111.344L80.3474 145.899L87.59 143.58L76.5232 109.025C75.882 107.024 73.7419 105.923 71.7419 106.563Z" fill="#8DA2AC"/>
<path d="M79.4572 101.257C77.4572 101.897 76.3548 104.038 76.996 106.038L88.0627 140.593L95.3053 138.273L84.2377 103.718C83.5973 101.718 81.4572 100.616 79.4572 101.257Z" fill="#8DA2AC"/>
<path d="M89.2318 102.379C87.2318 103.019 86.1294 105.16 86.7706 107.16L97.8373 141.715L105.08 139.396L94.0132 104.841C93.3728 102.841 91.2318 101.738 89.2318 102.379Z" fill="#8DA2AC"/>
<path d="M105.983 150.304L79.0696 158.924L85.6037 179.325L112.517 170.705L105.983 150.304Z" fill="#738994"/>
<path d="M79.8315 173.686L112.692 163.162L105.286 140.038C102.38 130.964 92.6676 125.964 83.5934 128.87C74.5192 131.776 69.5197 141.488 72.4255 150.562L79.8315 173.686Z" fill="#8DA2AC"/>
<path d="M107.674 147.925L75.012 158.386L75.5967 160.211L108.259 149.75L107.674 147.925Z" fill="#88E7F3"/>
<path d="M109.021 152.129L76.3584 162.59L76.9431 164.415L109.605 153.954L109.021 152.129Z" fill="#88E7F3"/>
<path d="M110.367 156.333L77.7051 166.793L78.2898 168.619L110.951 158.158L110.367 156.333Z" fill="#88E7F3"/>
<path d="M86.3152 137.366L85.7154 141.372L82.0771 143.149L85.7005 144.956L86.2662 148.966L89.1049 146.078L93.0933 146.779L91.2243 143.187L93.1231 139.611L89.1289 140.278L86.3152 137.366Z" fill="#EB7F7D"/>
</svg>
