<svg width="350" height="350" viewBox="0 0 350 350" fill="none" xmlns="http://www.w3.org/2000/svg">
<path d="M175 350C271.65 350 350 271.65 350 175C350 78.3502 271.65 0 175 0C78.3502 0 0 78.3502 0 175C0 271.65 78.3502 350 175 350Z" fill="#6CBA4B"/>
<path d="M273.237 307.508H76.7432L106.458 223.048H243.522L273.237 307.508Z" fill="#CC4701" stroke="white" stroke-miterlimit="10"/>
<path d="M203.359 297.088H203.329C203.388 297.038 203.557 296.969 203.557 297.009L194.642 272.296H156.419L147.515 296.989C147.554 296.959 147.673 296.999 147.634 297.058L147.505 297.009C147.505 298.455 149.317 300 152.418 301.377L155.686 291.68L161.718 293.354L158.371 303.328C161.56 304.13 165.304 304.735 169.385 305.032C170.237 305.091 171.098 305.151 171.98 305.18V294.503H178.299V305.2C179.26 305.16 180.211 305.121 181.142 305.051H181.172C185.5 304.754 189.482 304.101 192.85 303.239L189.522 293.354L195.564 291.68L198.783 301.258C201.784 299.921 203.557 298.405 203.557 297.009L203.359 297.088ZM181.637 283.558L168.167 297.979V282.884C165.086 281.577 163.105 279.497 163.105 277.149H188.581C188.581 279.933 185.758 282.359 181.637 283.558Z" fill="white"/>
<path d="M271.633 316.66H78.2889L76.5654 308.429L273.445 308.478L271.633 316.66Z" fill="#CC4701" stroke="white" stroke-miterlimit="10"/>
<path d="M94.1953 177.021L114.174 132.765L138.708 92.8091" stroke="white" stroke-width="25" stroke-miterlimit="10" stroke-linecap="round"/>
<path d="M256.576 177.021L236.598 132.765L212.063 92.8091" stroke="white" stroke-width="25" stroke-miterlimit="10" stroke-linecap="round"/>
<path d="M173.464 64.0452C188.831 64.0452 201.287 51.5885 201.287 36.2223C201.287 20.8561 188.831 8.39941 173.464 8.39941C158.098 8.39941 145.642 20.8561 145.642 36.2223C145.642 51.5885 158.098 64.0452 173.464 64.0452Z" fill="white"/>
<path d="M208.805 124.574L209.519 165.451L182.062 183.122C180.943 179.11 177.565 176.218 173.94 176.218C170.662 176.218 167.829 178.566 166.482 181.973C166.274 182.498 165.6 182.656 165.194 182.26L140.095 158.053L141.294 127.575C141.739 119.275 140.164 110.984 136.698 103.427C133.072 95.5228 127.595 90.2732 129.11 84.9642C129.2 84.6472 132.102 81.963 134.004 81.0517C136.42 79.8929 138.104 78.8727 140.263 78.11L156.438 71.3944C167.126 66.4123 180.834 66.6401 191.66 71.2855L210.479 78.1595C212.49 78.8826 214.639 80.0414 216.502 81.0913C219.126 82.5771 221.563 84.0628 221.147 84.984C220.602 86.2122 216.254 97.7019 212.124 106.943C209.657 112.46 208.528 118.512 208.805 124.574Z" fill="white"/>
<path d="M134.786 268.819L155.081 159.003" stroke="white" stroke-width="31" stroke-miterlimit="10" stroke-linecap="round"/>
<path d="M213.521 268.819L193.226 159.003" stroke="white" stroke-width="31" stroke-miterlimit="10" stroke-linecap="round"/>
<path d="M228.229 102.04C228.229 121.385 204.883 90.7884 175.624 90.7884C146.365 90.7884 122.267 121.385 122.267 102.04C122.267 82.6961 145.989 67.0166 175.248 67.0166C204.507 67.0166 228.229 82.6961 228.229 102.04Z" fill="white"/>
</svg>
