<svg width="65" height="65" viewBox="0 0 65 65" fill="none" xmlns="http://www.w3.org/2000/svg">
<path d="M47.9414 37.2998H56.921C56.326 42.4706 52.8605 52.7705 43.7592 55.4652C43.0499 55.6752 42.3064 55.839 41.5273 55.9506M43.7592 55.4652V59.5H21.6437V55.9506M24.2094 55.9506C12.4075 55.9506 8.17422 43.5167 7.53281 37.2998H23.5679M33.8304 37.2998L47.2999 21.2215M33.8304 37.2998H47.9414M33.8304 37.2998H23.5679M47.2999 21.2215L49.8656 23.1509M47.2999 21.2215C46.0171 18.0058 51.1484 11.5745 56.2796 16.0764C60.3846 19.6779 57.1348 23.5796 54.9968 25.0803L47.9414 37.2998M23.5679 37.2998C23.4845 36.5465 23.3988 35.6777 23.3175 34.7272M24.2094 14.7901C23.2095 16.7953 22.8793 20.8153 22.8779 25.0803M23.3175 34.7272C24.8976 32.5834 28.4081 28.529 32 27.5M23.3175 34.7272C22.5413 33.7328 21.2552 32.2962 19.7195 30.9285M23.3175 34.7272C23.0784 31.9323 22.8767 28.4307 22.8779 25.0803M12.6641 27.0096C15.038 27.3072 17.6135 29.053 19.7195 30.9285M19.7195 30.9285C19.9333 27.6928 17.5387 21.4787 6.25 22.5077C7.10521 26.8353 10.9964 34.5781 19.7195 30.9285ZM22.8779 25.0803C27.8115 23.5796 35.3698 17.3626 26.1336 4.5C20.4995 8.35881 11.9607 17.8772 22.8779 25.0803ZM26.775 31.5116C25.4922 28.939 26.0053 23.5367 38.3203 22.5077C37.6789 26.5809 34.4718 34.0841 26.775 31.5116Z" stroke="#AD43D7" stroke-width="3" stroke-linecap="round"/>
</svg>
