<svg width="103" height="125" viewBox="0 0 103 125" fill="none" xmlns="http://www.w3.org/2000/svg">
<g clip-path="url(#clip0_18647_4812)">
<mask id="mask0_18647_4812" style="mask-type:luminance" maskUnits="userSpaceOnUse" x="0" y="0" width="103" height="125">
<path d="M103 0H0V125H103V0Z" fill="white"/>
</mask>
<g mask="url(#mask0_18647_4812)">
<path d="M79.5797 103.68C77.0554 104.768 74.6241 102.411 75.9848 100.021L75.9358 99.257C75.8909 99.2109 75.8458 99.1647 75.8005 99.1188C71.2396 94.4872 62.4271 97.7563 61.8045 104.295C61.2519 110.097 60.0762 116.138 61.1967 121.65C61.6864 124.085 62.6583 126.392 64.0265 128.456C54.9604 119.872 48.0985 109.387 44.0396 97.8019C43.0198 94.8911 42.1772 91.9155 41.5223 88.8795C40.9881 86.3956 40.5717 83.8849 40.2837 81.3516C38.7286 67.6576 40.7335 53.3386 46.1867 39.9958C49.7588 36.2947 52.1957 31.6613 52.9768 26.8907C53.2555 25.1712 53.327 23.405 53.0664 21.7277C52.5956 21.9654 48.8783 15.7368 49.1041 15.1886C48.0924 14.5051 46.7048 14.4892 45.638 13.8514C40.3325 10.6793 35.488 13.3454 34.9723 20.4837C30.1689 25.1669 31.62 29.4867 36.5735 32.3391C39.7249 34.1539 41.2785 37.6016 44.2217 39.702C44.1016 40.0074 43.9709 40.3085 43.8508 40.6139C41.6515 46.2224 40.0625 51.9672 39.0557 57.7598C37.9443 52.1383 34.5662 46.1123 31.1981 42.6636C27.3626 38.7335 21.8832 36.2468 16.8544 33.4762C10.814 30.1483 2.70534 35.5335 4.12451 42.0353C4.13825 42.0983 4.15218 42.1611 4.16625 42.2239C4.79546 42.2994 5.41974 42.3958 6.03754 42.5128C9.56141 43.1799 9.97796 47.6143 6.69067 49.3587L6.61623 49.3983C7.41576 51.0581 8.34706 52.6534 9.42116 54.1637C10.4295 71.901 22.4393 74.0997 36.7556 69.1559C37.1203 69.1857 37.477 69.2187 37.8393 69.2414C37.6766 73.4182 37.8368 77.5828 38.3127 81.6891C38.7224 85.3214 39.3782 88.9045 40.2727 92.4167C41.4065 96.8458 42.9507 101.15 44.8551 105.289L44.7776 105.145C42.1012 100.799 37.7062 97.4324 32.4975 95.8916C24.7371 93.5937 15.44 95.1045 7.50676 93.8779C3.68793 93.2875 0.383393 97.0663 2.11161 100.2L2.19482 100.35C3.31189 100.349 4.42513 100.416 5.52394 100.545C6.15318 100.62 6.77742 100.716 7.39523 100.833C10.9191 101.501 11.3357 105.935 8.04839 107.679L7.97387 107.719C7.92007 107.747 7.87428 107.772 7.82057 107.8C10.7902 110.805 14.3368 113.306 18.3168 115.125C26.1103 128.078 38.968 124.872 50.7942 115.94L50.8022 115.937C54.2402 121.084 58.3008 125.855 62.8739 130.144L79.0845 124.043C79.1055 121.258 80.9739 118.324 82.0526 115.74C82.0802 115.689 82.0997 115.641 82.1192 115.593C82.6348 114.342 83.161 113.096 83.6765 111.845L83.6766 111.844C82.7171 108.935 81.3221 106.196 79.5797 103.68Z" fill="white"/>
</g>
</g>
<defs>
<clipPath id="clip0_18647_4812">
<rect width="103" height="125" fill="white"/>
</clipPath>
</defs>
</svg>
