<svg xmlns="http://www.w3.org/2000/svg" fill="none" viewBox="0 0 134 160">
  <path fill="#FFF" d="M69.215 81.351c8.491 28.84-6.75 41.249 1.516 60.274 5.103 11.744 19.105 16.988 30.781 11.915 11.678-5.074 17.39-18.892 12.29-30.628-8.266-19.025-27.737-16.352-43.025-42.24-.461-.771-1.811-.185-1.562.68ZM3.32 38.835c8.49 28.84-6.753 41.242 1.516 60.275 5.1 11.737 19.098 16.99 30.775 11.917C47.288 105.953 53 92.136 47.9 80.399c-8.266-19.025-27.737-16.352-43.024-42.24-.455-.774-1.812-.185-1.556.676ZM83.117 4.164c8.491 28.841-6.75 41.25 1.517 60.274 5.099 11.738 19.097 16.991 30.774 11.918 11.677-5.074 17.389-18.891 12.29-30.628-8.266-19.026-27.737-16.352-43.025-42.24-.461-.771-1.811-.185-1.556.676Z"/>
</svg>