<svg width="65" height="65" viewBox="0 0 65 65" fill="none" xmlns="http://www.w3.org/2000/svg">
<path d="M34.1179 24.4073C45.3535 49.6208 25.3655 58.8081 13.967 60.25C6.1307 40.9409 13.4827 31.3313 22.5158 27.1442M34.4749 21.6131C34.4338 22.6253 34.3044 23.5711 34.1179 24.4073C16.0432 23.4185 13.5599 11.2238 14.5776 5.25C31.1344 5.25 34.7476 14.8956 34.4749 21.6131ZM34.1179 24.4073C32.4895 21.1114 28.0115 13.9017 23.1264 11.4298M34.1179 24.4073C30.6692 24.5319 26.4343 25.3279 22.5158 27.1442M17.0201 17.6095C14.7811 17.6095 9.69253 19.3399 7.25 26.2612C8.26772 27.4679 12.7457 29.3337 22.5158 27.1442M34.4749 21.6131C35.3736 21.5145 37.171 20.2051 37.171 15.7556L40.2242 15.1376C40.4277 15.9616 41.079 17.8567 42.0561 18.8455C43.2773 20.0815 53.6581 22.5534 55.49 29.9691C57.3219 37.3848 59.1538 47.8904 53.0474 58.3961C48.366 57.3661 38.2703 53.823 35.3391 47.8904M42.875 24.2255L40.2242 22.9605C39.125 28.6532 40.3319 40.1912 49.125 52.0563M46 27.3881C48.4425 29.4481 52.25 34.6366 52.25 46.9962M16.75 55.25C14.3075 46.8043 12.6868 31.2219 31.25 28.75C34.7102 35.7537 37.75 50.25 16.75 55.25Z" stroke="#AD43D7" stroke-width="3" stroke-linecap="round"/>
<ellipse cx="2.44689" cy="1.8507" rx="2.44689" ry="1.8507" transform="matrix(0.921564 0.388225 -0.380393 0.924825 18.4287 41.0928)" fill="#AD43D7"/>
<ellipse cx="2.44689" cy="1.8507" rx="2.44689" ry="1.8507" transform="matrix(0.921564 0.388225 -0.380393 0.924825 18.4287 47.2725)" fill="#AD43D7"/>
<ellipse cx="2.44689" cy="1.8507" rx="2.44689" ry="1.8507" transform="matrix(0.921564 0.388225 -0.380393 0.924825 20.8713 36.1494)" fill="#AD43D7"/>
<ellipse cx="2.44689" cy="1.8507" rx="2.44689" ry="1.8507" transform="matrix(0.921564 0.388225 -0.380393 0.924825 24.5347 43.5645)" fill="#AD43D7"/>
<ellipse cx="2.44689" cy="1.8507" rx="2.44689" ry="1.8507" transform="matrix(0.921564 0.388225 -0.380393 0.924825 26.9773 38.6211)" fill="#AD43D7"/>
<ellipse cx="2.44689" cy="1.8507" rx="2.44689" ry="1.8507" transform="matrix(0.921564 0.388225 -0.380393 0.924825 25.7559 32.4414)" fill="#AD43D7"/>
</svg>
