<svg width="65" height="65" viewBox="0 0 65 65" fill="none" xmlns="http://www.w3.org/2000/svg">
<circle cx="34.483" cy="34.8383" r="8.90785" stroke="#AD43D7" stroke-width="3"/>
<line y1="-1.5" x2="11.6511" y2="-1.5" transform="matrix(-0.261175 0.965292 -0.962957 -0.269655 38.6719 15.0093)" stroke="#AD43D7" stroke-width="3"/>
<line y1="-1.5" x2="11.5184" y2="-1.5" transform="matrix(-0.853255 0.521494 -0.508488 -0.861069 25.2542 36.8599)" stroke="#AD43D7" stroke-width="3"/>
<line y1="-1.5" x2="11.5373" y2="-1.5" transform="matrix(0.795011 0.606595 -0.593396 0.804911 41.3615 40.6707)" stroke="#AD43D7" stroke-width="3"/>
<circle cx="41.1347" cy="11.9341" r="3.43409" stroke="#AD43D7" stroke-width="3"/>
<circle cx="55.6395" cy="50.6396" r="4.86035" stroke="#AD43D7" stroke-width="3"/>
<path d="M39.147 34.2858C38.7675 33.23 38.0983 32.3257 37.2239 31.6873C36.3495 31.0489 35.3092 30.705 34.2345 30.6992C33.1599 30.6934 32.0992 31.026 31.1865 31.6547" stroke="#AD43D7" stroke-width="3" stroke-linecap="round"/>
<circle cx="11.1124" cy="47.077" r="6.01678" transform="rotate(14.0039 11.1124 47.077)" stroke="#AD43D7" stroke-width="3"/>
</svg>
