<svg width="60" height="60" viewBox="0 0 60 60" fill="none" xmlns="http://www.w3.org/2000/svg">
<path opacity="0.998" fill-rule="evenodd" clip-rule="evenodd" d="M27.3047 0C29.1015 0 30.8985 0 32.6953 0C43.2005 1.27593 51.1106 6.47125 56.4258 15.5859C58.3822 19.2739 59.5736 23.1802 60 27.3047C60 29.1015 60 30.8985 60 32.6953C58.7241 43.2005 53.5288 51.1106 44.4141 56.4258C40.7261 58.3822 36.8198 59.5736 32.6953 60C30.8985 60 29.1015 60 27.3047 60C16.7995 58.7241 8.8894 53.5288 3.57422 44.4141C1.61781 40.7261 0.426398 36.8198 0 32.6953C0 30.8985 0 29.1015 0 27.3047C1.27588 16.7996 6.47119 8.88953 15.5859 3.57422C19.2739 1.61781 23.1802 0.426398 27.3047 0Z" fill="#AAD985"/>
<path d="M15.6562 19.475L29.4757 15.7061L43.2812 19.475V27.2036C43.2812 31.1645 41.9473 35.025 39.4687 38.238C36.9901 41.4511 33.4924 43.8539 29.4711 45.1061C25.4485 43.8541 21.9496 41.451 19.4701 38.2372C16.9906 35.0234 15.6563 31.162 15.6562 27.2V19.475Z" stroke="#F9F9F9" stroke-width="3" stroke-linejoin="round"/>
<path d="M22.562 29.3305L27.9335 34.35L37.1419 25.7451" stroke="#F9F9F9" stroke-width="3" stroke-linecap="round" stroke-linejoin="round"/>
</svg>
