<svg width="620" height="360" viewBox="0 0 620 360" fill="none" xmlns="http://www.w3.org/2000/svg">
<g clip-path="url(#clip0_7790_2887)">
<rect width="620" height="360" rx="30" fill="#F2F7FF"/>
<g clip-path="url(#clip1_7790_2887)">
<path d="M51.6187 406.442C25.1581 277.688 123.823 157.533 265.29 122.865C406.759 88.2109 556.682 140.077 587.944 267.738C619.208 395.413 524.209 516.087 388.231 568.094C238.848 625.232 88.9234 587.962 51.6187 406.442Z" fill="#DAE3FE"/>
<path d="M272.257 310.001C272.257 310.001 239.873 351.96 235.354 364.842C231.785 375.005 297.056 419.363 303.932 418.476C307.39 418.03 344.915 364.843 343.265 361.902C338.507 353.437 284.321 315.678 272.257 310.001Z" fill="white"/>
<path d="M271.628 309.482C266.05 316.708 260.619 324.056 255.294 331.479C251.034 337.411 246.852 343.396 242.899 349.541C239.994 354.048 236.92 358.681 234.926 363.674C233.768 366.569 235.209 369.069 236.927 371.43C239.802 375.373 243.469 378.768 247.097 381.999C256.894 390.721 267.602 398.483 278.52 405.718C283.297 408.887 288.153 411.971 293.159 414.779C296.101 416.433 299.315 418.42 302.649 419.165C304.946 419.67 306.299 417.704 307.678 416.144C310.946 412.439 313.918 408.46 316.867 404.508C324.409 394.383 331.694 384.009 338.392 373.309C340.331 370.205 342.609 366.96 343.838 363.475C344.204 362.435 344.203 361.788 343.566 360.867C342.642 359.53 341.428 358.36 340.269 357.238C336.26 353.378 331.852 349.911 327.464 346.504C321.722 342.046 315.863 337.744 309.953 333.519C299.308 325.926 288.513 318.361 277.208 311.767C275.704 310.883 274.183 310.022 272.603 309.276C271.654 308.826 270.962 310.304 271.911 310.753C275.719 312.552 279.305 314.876 282.861 317.126C288.44 320.655 293.922 324.336 299.348 328.077C310.75 335.933 322.075 344.003 332.759 352.823C335.91 355.427 339.364 358.098 341.888 361.348C342.061 361.568 342.22 361.798 342.38 362.028C342.404 362.064 342.562 362.338 342.534 362.251C342.534 362.251 342.506 362.026 342.504 362.208C342.509 362.215 342.365 362.761 342.272 363.027C341.764 364.399 341.016 365.703 340.299 366.974C334.677 376.983 327.918 386.44 321.238 395.767C317.844 400.506 314.386 405.213 310.793 409.802C308.778 412.365 306.704 415.383 304.168 417.423C304.037 417.525 303.912 417.622 303.765 417.702C303.823 417.662 303.911 417.697 303.692 417.689C303.561 417.684 302.945 417.578 302.604 417.484C301.271 417.11 299.987 416.499 298.751 415.897C294.488 413.839 290.404 411.381 286.393 408.872C275.495 402.081 264.959 394.614 254.986 386.545C250.61 383.003 246.303 379.328 242.378 375.282C240.087 372.923 237.049 369.975 236.181 366.675C235.842 365.4 236.337 364.515 236.88 363.3C237.875 361.093 239.063 358.964 240.293 356.881C243.675 351.109 247.444 345.559 251.26 340.061C257.84 330.591 264.687 321.307 271.684 312.132C272.09 311.596 272.494 311.073 272.905 310.544C273.547 309.718 272.299 308.667 271.662 309.501L271.628 309.482Z" fill="#535353"/>
<path d="M267.759 315.448C292.12 328.83 341.73 367.681 340.907 368.399C340.907 368.399 343.838 365.161 344.974 362.249C346.36 358.698 283.762 314.405 272.27 310.001L267.771 315.45L267.759 315.448Z" fill="#535353"/>
<path d="M276.817 315.951C276.095 317.045 274.619 317.343 273.525 316.622C272.431 315.901 272.135 314.427 272.857 313.332C273.579 312.238 275.054 311.94 276.148 312.661C277.243 313.382 277.539 314.856 276.817 315.951Z" fill="#AAD985"/>
<path d="M282.858 319.947C282.136 321.042 280.66 321.339 279.566 320.618C278.472 319.898 278.176 318.423 278.898 317.329C279.62 316.234 281.095 315.937 282.19 316.658C283.284 317.378 283.58 318.853 282.858 319.947Z" fill="#AAD985"/>
<path d="M379.099 249.255C379.1 249.257 379.105 249.264 379.111 249.28C379.12 249.3 379.129 249.331 379.137 249.374C379.154 249.461 379.162 249.581 379.159 249.738C379.152 250.053 379.101 250.482 379.004 251.019C378.812 252.092 378.447 253.563 377.941 255.342C376.929 258.897 375.356 263.662 373.48 268.891C369.729 279.349 364.773 291.644 360.686 299.809C359.032 303.117 357.02 305.337 354.71 306.468C352.407 307.596 349.775 307.658 346.838 306.584C330.202 300.492 314.892 295.617 296.6 287.32C296.571 287.179 296.566 286.98 296.599 286.711C296.639 286.381 296.73 285.972 296.869 285.486C297.146 284.512 297.604 283.255 298.19 281.74C299.212 279.094 300.617 275.673 302.092 271.666L302.728 269.913C302.805 269.697 302.882 269.481 302.96 269.265C303.037 269.049 303.114 268.833 303.191 268.617L303.263 268.417L303.078 268.314C297.982 265.475 296.079 260.943 295.391 257.508L295.391 257.509C294.782 254.433 295.18 251.206 296.705 248.492L296.857 248.231C298.909 244.794 302.015 243.156 305.084 242.443C308.158 241.73 311.183 241.947 313.035 242.216L313.231 242.245L313.303 242.061C316.37 234.299 318.755 228.448 319.099 227.598C319.105 227.595 319.116 227.588 319.136 227.58C319.191 227.559 319.282 227.54 319.42 227.533C319.695 227.519 320.094 227.552 320.614 227.635C321.652 227.8 323.117 228.155 324.915 228.661C328.507 229.673 333.397 231.283 338.782 233.172L338.954 233.232L339.065 233.087C342.06 229.155 346.112 227.687 349.235 227.19C352.437 226.678 355.75 227.249 358.455 229.006C363.729 232.438 364.453 238.321 364.18 242.501L364.168 242.683L364.337 242.75C368.393 244.364 371.947 245.834 374.565 246.986C375.874 247.562 376.946 248.056 377.728 248.449C378.12 248.646 378.436 248.816 378.671 248.956C378.855 249.065 378.976 249.148 379.046 249.206L379.099 249.255Z" fill="#258DE3" stroke="black" stroke-width="0.5"/>
<path d="M323.218 364.796C322.941 364.456 279.391 355.818 275.832 359.257C274.421 360.616 272.953 366.201 271.792 372.754C271.095 376.669 265.962 375.201 263.801 378.492C260.672 383.259 260.019 389.131 260.499 390.979C260.499 390.979 291.34 414.472 303.937 418.473L321.989 394.959C324.057 381.21 325.427 367.498 323.225 364.791L323.218 364.796Z" fill="#258DE3"/>
<path d="M379.69 324.237C378.083 320.129 374.846 318.956 372.981 319.704C371.582 320.267 363.361 327.025 363.361 327.025C363.361 327.025 372.754 310.083 370.786 300.56C369.755 295.576 363.993 292.982 363.993 292.982C363.993 292.982 364.1 285.829 361.385 281.903C358.288 277.423 353.396 277.426 351.288 280.393C351.288 280.393 348.716 267.812 341.153 269.429C333.589 271.045 335.412 282.082 335.804 285.403C336.182 288.596 337.112 300.111 333.686 304.542C330.255 308.966 318.417 310.371 315.554 307.568C312.688 304.778 316.145 301.622 316.145 301.622C316.145 301.622 319.049 301.324 320.572 297.572L305.106 291.654C304.108 293.056 305.052 291.32 301.182 294.123C297.319 296.922 284.424 304.521 283.37 315.644C281.297 337.526 279.947 362.682 282.291 363.612C290.762 366.969 308.772 370.628 317.889 368.565L318.044 346.096C318.044 346.096 358.189 346.502 364.59 343.266C370.984 340.035 381.293 328.326 379.687 324.218L379.69 324.237Z" fill="#FFBFBF"/>
<path d="M276.065 359.208C288.163 369.857 308.456 372.033 323.35 367.016C324.315 366.689 323.791 365.33 322.838 365.553C314.528 367.505 306.547 368.241 298.058 366.904C290.176 365.659 283.4 362.245 276.295 358.847C276.07 358.737 275.873 359.053 276.058 359.213L276.065 359.208Z" fill="white"/>
<path d="M497.378 207.106C497.378 207.106 439.358 213.268 425.454 219.269C414.472 224.004 429.314 289.595 435.007 294.151C437.869 296.444 506.892 289.285 508.122 285.895C511.687 276.096 501.384 220.407 497.378 207.106Z" fill="white"/>
<path d="M497.314 206.291C489.298 207.146 481.297 208.13 473.312 209.198C460.114 210.959 446.802 212.756 433.842 215.861C431.541 216.41 429.243 217.011 427.007 217.792C425.617 218.275 424.278 218.754 423.332 219.94C421.059 222.776 420.877 227.175 420.74 230.639C420.27 242.761 422.584 255.138 425.135 266.935C426.37 272.66 427.784 278.368 429.553 283.957C430.588 287.238 431.614 291.045 433.663 293.87C434.979 295.68 437.267 295.405 439.303 295.411C443.885 295.421 448.473 295.086 453.036 294.747C465.319 293.832 477.598 292.526 489.797 290.797C494.419 290.142 499.059 289.452 503.611 288.419C505.586 287.968 508.503 287.694 509.099 285.432C510.196 281.294 509.683 276.537 509.388 272.34C508.912 265.591 508.037 258.863 507.055 252.165C505.1 238.861 502.752 225.541 499.607 212.453C499.159 210.574 498.691 208.697 498.131 206.842C497.831 205.838 496.299 206.376 496.599 207.38C499.846 218.229 501.705 229.612 503.603 240.757C505.747 253.336 508.016 266.264 508.038 279.066C508.042 280.902 508.007 282.776 507.627 284.58C507.569 284.865 507.503 285.154 507.413 285.44C507.33 285.689 507.488 285.441 507.428 285.493C507.144 285.743 506.989 285.765 506.572 285.915C503.379 287.113 499.848 287.578 496.497 288.131C484.973 290.052 473.329 291.322 461.704 292.388C456.352 292.88 450.996 293.32 445.621 293.593C442.486 293.752 439.162 294.084 436.039 293.629C435.66 293.573 435.366 293.425 435.504 293.532C435.228 293.318 435.01 293.002 434.765 292.618C433.986 291.414 433.437 290.051 432.92 288.718C431.139 284.189 429.828 279.462 428.627 274.756C425.586 262.85 423.236 250.573 422.478 238.291C422.198 233.701 422.001 228.863 423.109 224.356C423.427 223.062 423.888 221.606 424.85 220.643C425.872 219.629 427.616 219.273 428.936 218.86C434.178 217.223 439.625 216.177 445.017 215.191C451.661 213.966 458.336 212.942 465.025 211.984C475.246 210.518 485.496 209.233 495.757 208.101C496.309 208.038 496.854 207.98 497.406 207.917C498.445 207.804 498.326 206.186 497.282 206.291L497.314 206.291Z" fill="#535353"/>
<path d="M489.631 207.669C496.123 235.936 502.24 288.94 501.045 288.842C501.045 288.842 505.83 288.701 509.063 287.422C512.993 285.873 502.025 219.038 497.382 207.092L489.631 207.669Z" fill="#535353"/>
<path d="M495.138 214.003C493.886 214.284 492.64 213.498 492.36 212.247C492.08 210.995 492.867 209.749 494.119 209.468C495.372 209.186 496.618 209.972 496.898 211.224C497.178 212.475 496.391 213.721 495.138 214.003Z" fill="#AAD985"/>
<path d="M496.691 220.927C495.439 221.208 494.193 220.422 493.913 219.17C493.632 217.919 494.42 216.673 495.672 216.391C496.925 216.11 498.17 216.896 498.451 218.148C498.731 219.399 497.943 220.645 496.691 220.927Z" fill="#AAD985"/>
<path d="M381.143 159.114C387.106 160.738 390.874 166.577 389.887 172.66L389.87 172.663L389.839 172.842C388.24 181.844 385.853 194.912 383.606 205.808C382.482 211.256 381.395 216.158 380.458 219.736C379.99 221.526 379.56 222.978 379.185 224.001C378.997 224.513 378.826 224.909 378.674 225.183C378.598 225.319 378.53 225.418 378.473 225.484C378.416 225.55 378.384 225.564 378.381 225.566L378.379 225.567C378.31 225.588 378.152 225.608 377.88 225.611C377.618 225.615 377.276 225.604 376.859 225.58C376.026 225.532 374.906 225.431 373.55 225.283C370.887 224.993 367.327 224.522 363.275 223.935C363.304 222.105 363.143 219.077 362.062 216.075C360.935 212.944 358.803 209.828 354.841 208.15C351.75 206.837 348.254 206.855 345.091 207.956C341.342 209.256 336.407 212.274 334.521 219.151C329.162 218.133 324.375 217.126 320.935 216.244C319.189 215.796 317.798 215.382 316.857 215.018C316.385 214.836 316.039 214.67 315.821 214.526C315.711 214.453 315.645 214.394 315.612 214.352C315.601 214.338 315.597 214.328 315.594 214.323C315.745 213.341 316.85 206.028 318.379 196.698L318.411 196.501L318.226 196.426C312.77 194.225 310.321 189.911 309.231 186.559L309.231 186.558C308.226 183.485 308.28 180.11 309.592 177.168C312.369 170.952 318.822 169.543 323.019 169.322L323.199 169.312L323.247 169.139C323.271 169.055 323.287 168.962 323.301 168.885C324.283 163.914 325.128 159.159 325.891 155.5C326.273 153.671 326.632 152.126 326.974 150.973C327.145 150.397 327.309 149.924 327.469 149.566C327.599 149.272 327.719 149.078 327.819 148.963C348.155 151.726 364.082 154.49 381.143 159.114Z" fill="#AAD985" stroke="black" stroke-width="0.5"/>
<path d="M468.967 221.818C468.967 221.818 433.47 264.921 435.952 269.465C438.159 273.487 465.079 291.817 466.405 292.165C473.991 291.627 501.233 287.744 501.233 287.744C501.087 288.855 499.497 255.954 497.807 251.139C494.764 242.477 470.099 219.516 468.962 221.811L468.967 221.818Z" fill="#AAD985"/>
<path d="M469.809 222.1C474.221 230.157 472.434 240.575 467.379 248.619C462.324 256.664 454.455 262.732 446.382 268.027C443.254 270.073 439.243 272.103 436.014 270.435C432.551 268.642 432.473 263.882 433.325 260.083C436.654 245.25 456.842 215.656 469.729 221.646" fill="#535353"/>
<path d="M471.847 227.674C471.381 226.338 419.12 185.516 411.308 180.65C398.282 172.535 369.276 164.99 362.566 168.195C355.856 171.4 358.62 176.875 362.025 179.091C365.43 181.307 388.721 187.957 388.721 187.957C388.721 187.957 367.301 187.506 356.428 190.476C345.548 193.45 351.151 201.83 351.591 203.067C352.032 204.304 348.534 211.016 359.615 213.44C370.696 215.864 393.327 212.374 393.327 212.374C393.327 212.374 364.752 217.083 360.125 221.994C355.497 226.916 358.957 232.952 366.001 233.214C373.045 233.477 394.075 226.641 394.075 226.641C394.075 226.641 398.565 226.842 402.043 233.195C405.533 239.55 416.643 251.232 427.77 250.107C434.565 249.425 438.68 245.868 438.68 245.868C438.68 245.868 454.519 261.912 456.023 261.01C461.478 257.759 476.727 241.656 471.839 227.648L471.847 227.674Z" fill="#FFAE7A"/>
<path d="M469.833 222.611C478.45 242.458 460.508 259.977 444.322 268.448C444.106 268.566 444.296 268.934 444.516 268.835C461.17 261.517 482.185 241.874 469.972 222.536C469.923 222.464 469.793 222.522 469.833 222.611Z" fill="#535353"/>
<path d="M166.066 157.359C166.066 157.359 115.251 175.279 104.272 183.773C95.6015 190.481 126.723 264.415 133.083 267.457C136.275 268.981 197.685 244.32 197.907 240.903C198.528 231.046 173.216 168.868 166.066 157.359Z" fill="white"/>
<path d="M165.8 156.592C157.042 159.682 148.346 162.953 139.696 166.352C132.786 169.068 125.899 171.864 119.136 174.914C114.174 177.155 108.987 179.424 104.523 182.585C101.952 184.405 101.827 187.393 101.994 190.328C102.267 195.23 103.505 200.114 104.799 204.831C108.334 217.744 113.199 230.334 118.519 242.597C120.842 247.942 123.286 253.246 125.994 258.409C127.585 261.432 129.209 264.858 131.631 267.329C133.311 269.037 135.603 268.058 137.644 267.486C142.443 266.134 147.137 264.398 151.811 262.664C163.853 258.185 175.826 253.36 187.468 247.903C190.837 246.328 194.629 244.812 197.568 242.492C199.7 240.806 198.427 237.488 197.902 235.236C196.622 229.723 194.783 224.341 192.931 219C190.511 212.022 187.89 205.109 185.18 198.236C180.302 185.857 175.282 173.428 169.274 161.555C168.476 159.97 167.664 158.396 166.727 156.886C166.173 155.994 164.839 156.926 165.388 157.812C167.654 161.474 169.431 165.475 171.226 169.378C174.012 175.454 176.647 181.603 179.2 187.788C184.561 200.757 189.74 213.862 193.961 227.259C195.226 231.273 196.705 235.49 197.052 239.714C197.076 239.995 197.075 240.272 197.094 240.545C197.114 240.851 197.11 240.737 197.159 240.639C196.968 240.994 196.746 241.073 196.396 241.336C195.191 242.223 193.836 242.926 192.52 243.623C182.231 249.037 171.276 253.35 160.463 257.606C154.935 259.781 149.386 261.896 143.764 263.828C140.625 264.904 137.153 266.423 133.797 266.692C133.714 266.696 133.256 266.694 133.467 266.708C133.282 266.687 133.407 266.728 133.375 266.697C133.043 266.448 132.747 266.174 132.502 265.897C131.543 264.818 130.77 263.546 130.021 262.309C127.504 258.162 125.384 253.772 123.334 249.376C117.847 237.61 113.009 225.49 108.991 213.155C107.217 207.697 105.553 202.152 104.453 196.514C103.814 193.236 102.847 189.069 103.921 185.775C104.339 184.487 105.251 184.006 106.393 183.258C108.518 181.884 110.772 180.698 113.042 179.564C119.061 176.56 125.271 173.925 131.497 171.373C142.352 166.917 153.347 162.769 164.395 158.807C165.034 158.577 165.673 158.348 166.318 158.126C167.307 157.771 166.769 156.24 165.78 156.595L165.8 156.592Z" fill="#535353"/>
<path d="M159.215 159.534C172.582 184.419 193.403 244.994 192.292 245.157C192.292 245.157 196.575 244.013 199.16 242.151C202.309 239.888 173.435 167.483 166.061 157.372L159.208 159.539L159.215 159.534Z" fill="#535353"/>
<path d="M166.666 164.97C165.442 165.508 164.023 164.948 163.486 163.725C162.949 162.502 163.51 161.083 164.734 160.545C165.958 160.007 167.377 160.567 167.914 161.789C168.451 163.012 167.89 164.431 166.666 164.97Z" fill="#AAD985"/>
<path d="M169.732 172.059C168.508 172.597 167.089 172.038 166.552 170.815C166.015 169.592 166.577 168.173 167.8 167.635C169.024 167.097 170.443 167.656 170.98 168.879C171.517 170.102 170.956 171.521 169.732 172.059Z" fill="#AAD985"/>
<path d="M117.669 176.6C117.669 176.6 158.177 184.332 163.745 192.046C171.255 202.445 149.045 240.377 141.374 238.731C136.728 237.735 116.849 235.804 113.798 228.73C92.6359 179.678 107.746 181.452 117.669 176.6Z" fill="#AAD985"/>
<path d="M207.23 212.144C207.925 212.95 258.731 244.129 259.278 252.413C259.85 261.041 254.409 260.51 248.532 257.888C245.021 256.319 218.952 240.59 218.952 240.59C218.952 240.59 243.461 268.972 243.87 277.841C244.298 287.153 235.447 283.877 235.447 283.877C235.447 283.877 234.407 294.651 224.924 288.167C220.167 284.92 204.562 260.244 204.562 260.244C204.562 260.244 209.74 289.027 206.727 294.331C203.713 299.635 199.132 297.903 196.161 292.082C194.997 289.815 189.69 264.416 189.69 264.416C189.69 264.416 160.418 245.608 156.627 241.587C152.836 237.566 152.358 233.751 152.358 233.751C152.358 233.751 140.971 231.9 140.642 230.193C139.846 226.088 153.529 193.18 159.328 195.442C166.804 198.36 192.189 211.024 196.578 210.71C200.967 210.395 207.237 212.139 207.237 212.139L207.23 212.144Z" fill="#FFCCAC"/>
<path d="M160.251 191.822C153.218 197.514 149.547 205.899 146.036 213.991C142.761 221.517 139.638 229.31 139.79 237.654C139.812 238.701 141.434 238.569 141.416 237.528C141.279 229.482 144.362 221.94 147.513 214.681C150.901 206.887 154.395 198.646 161.176 193.16C161.988 192.503 161.07 191.16 160.251 191.822Z" fill="#535353"/>
<path d="M129.502 230.383C127.421 230.005 126.008 228.208 126.344 226.37C126.68 224.533 128.638 223.349 130.719 223.728C132.8 224.106 134.213 225.903 133.877 227.74C133.541 229.578 131.583 230.762 129.502 230.383Z" fill="#535353"/>
<path d="M136.494 181.682C120.725 193.479 113.63 213.806 118.613 232.829C118.88 233.846 120.414 233.295 120.145 232.291C115.363 213.99 122.268 194.357 137.419 183.019C138.256 182.398 137.338 181.056 136.494 181.682Z" fill="#535353"/>
<path d="M298.938 209.746C298.803 210.64 297.885 216.684 296.592 224.72C295.045 224.709 291.924 224.856 288.758 225.985C285.535 227.135 282.246 229.31 280.544 233.387L280.384 233.788C279.191 236.937 279.345 240.429 280.564 243.542C281.964 247.133 285.022 251.772 291.561 253.513C291.537 253.634 291.514 253.755 291.49 253.876C291.468 253.992 291.445 254.108 291.423 254.223L291.41 254.222L291.362 254.464C290.385 259.428 289.757 263.748 289.215 266.944C288.944 268.545 288.695 269.861 288.435 270.841C288.306 271.33 288.174 271.729 288.04 272.034C287.931 272.283 287.824 272.452 287.727 272.56C267.759 270.372 254.035 267.179 236.619 263.936C233.554 263.361 231.257 261.759 229.787 259.396C228.313 257.027 227.659 253.875 227.925 250.19C228.589 241.081 230.198 228.091 231.901 217.298C232.753 211.901 233.627 207.058 234.418 203.527C234.814 201.76 235.186 200.328 235.524 199.32C235.693 198.816 235.85 198.427 235.993 198.158C236.064 198.023 236.128 197.927 236.183 197.862C236.237 197.799 236.267 197.785 236.269 197.784L236.27 197.783C236.289 197.777 236.339 197.769 236.435 197.769C236.526 197.769 236.644 197.776 236.789 197.791C237.078 197.821 237.458 197.88 237.924 197.965C238.854 198.133 240.104 198.397 241.601 198.714C244.533 199.334 248.398 200.148 252.608 200.821C252.593 200.904 252.575 201.004 252.556 201.123C252.501 201.478 252.433 201.988 252.382 202.614C252.281 203.865 252.247 205.581 252.521 207.439C253.068 211.153 254.851 215.464 259.804 217.705C262.847 219.088 266.359 219.564 269.562 218.538C273.555 217.259 278.907 214.127 280.72 206.46L280.722 206.45L281.026 204.887C286.136 205.933 290.665 206.954 293.911 207.84C295.561 208.29 296.872 208.703 297.756 209.064C298.201 209.245 298.525 209.408 298.728 209.55C298.831 209.62 298.891 209.677 298.921 209.718C298.931 209.732 298.936 209.742 298.938 209.746Z" fill="#AAD985" stroke="black" stroke-width="0.5"/>
<path d="M165.802 156.596C156.984 159.707 148.233 163.006 139.529 166.42C132.675 169.108 125.854 171.891 119.138 174.919C114.15 177.167 108.924 179.441 104.447 182.644C101.907 184.464 101.829 187.536 101.998 190.427C102.296 195.397 103.555 200.34 104.874 205.125C108.441 218.038 113.303 230.639 118.648 242.908C120.963 248.226 123.399 253.503 126.107 258.634C127.675 261.61 129.288 265.065 131.732 267.446C132.031 267.739 132.353 268.005 132.732 268.2C133.664 268.671 134.356 267.194 133.424 266.722C132.871 266.446 132.102 265.426 131.59 264.717C130.559 263.272 129.653 261.731 128.785 260.184C126.195 255.576 123.942 250.779 121.773 245.965C116.4 234.025 111.582 221.765 107.757 209.232C106.187 204.1 104.729 198.869 103.955 193.549C103.601 191.114 102.748 186.773 104.502 184.678C105.492 183.494 107.611 182.496 109.041 181.688C111.571 180.268 114.187 178.991 116.814 177.759C123.215 174.768 129.753 172.053 136.313 169.431C146.074 165.53 155.952 161.983 165.797 158.311C165.973 158.243 166.154 158.181 166.327 158.125C167.316 157.771 166.779 156.24 165.79 156.594L165.802 156.596Z" fill="#535353"/>
<path d="M181.264 206.155C181.264 206.155 204.426 202.064 217.611 202.853C224.925 203.291 236.06 205.901 241.874 210.479C245.139 213.046 246.693 216.447 245.111 219.39C243.879 221.687 241.207 222.822 238.62 222.528L217.59 220.086C217.59 220.086 202.48 245.084 172.715 236.81L181.269 206.162L181.264 206.155Z" fill="#FFCCAC"/>
<path d="M311.488 144.482C311.539 144.624 311.579 144.849 311.592 145.172C311.608 145.563 311.587 146.062 311.533 146.661C311.425 147.857 311.188 149.426 310.866 151.266C310.226 154.926 309.263 159.62 308.344 164.563C306.391 164.544 303.439 164.742 300.549 165.815C297.548 166.929 294.603 168.99 292.93 172.731L292.93 172.732C291.563 175.8 291.512 179.304 292.552 182.482C293.735 186.096 296.461 190.828 302.736 192.981C300.897 201.953 299.425 208.881 299.221 209.773C299.217 209.777 299.209 209.784 299.196 209.792C299.152 209.818 299.076 209.849 298.954 209.876C298.71 209.929 298.348 209.958 297.866 209.958C296.907 209.957 295.532 209.844 293.826 209.636C290.418 209.221 285.722 208.433 280.466 207.446L280.247 207.405L280.181 207.619C278.176 214.185 273.352 216.964 269.687 218.134C266.602 219.114 263.228 219.05 260.296 217.723C256.452 215.982 254.469 212.842 253.469 209.702C252.468 206.557 252.458 203.426 252.553 201.748L252.566 201.538L252.361 201.49C247.948 200.461 244.057 199.501 241.18 198.725C239.741 198.336 238.557 197.994 237.689 197.713C237.255 197.573 236.902 197.448 236.638 197.342C236.364 197.231 236.211 197.15 236.152 197.102C236.152 197.102 236.144 197.096 236.132 197.078C236.12 197.058 236.107 197.03 236.091 196.989C236.061 196.908 236.032 196.792 236.009 196.64C235.961 196.334 235.936 195.911 235.936 195.376C235.937 194.309 236.034 192.83 236.209 191.028C236.561 187.428 237.227 182.564 238.062 177.179C239.731 166.411 242.072 153.573 243.912 144.622C245.173 138.505 250.889 134.37 257.089 135.066L257.09 135.066C274.672 137.037 292.112 139.175 311.488 144.482Z" fill="#258DE3" stroke="black" stroke-width="0.5"/>
<path d="M343.351 25.9091C343.351 25.9091 298.75 60.4162 290.209 72.0508C283.462 81.2333 336.168 139.009 343.002 139.46C346.432 139.681 399.575 98.7571 398.977 95.5996C397.244 86.4776 352.956 33.7221 343.363 25.9113L343.351 25.9091Z" fill="white"/>
<path d="M342.887 25.2374C335.615 30.8609 328.438 36.6209 321.329 42.4502C315.514 47.2259 309.746 52.0542 304.118 57.0401C299.675 60.9841 295.167 64.973 291.247 69.4586C290.261 70.5867 289.105 71.747 288.856 73.2795C288.623 74.7268 288.981 76.2439 289.414 77.6239C290.83 82.1183 293.507 86.2826 296.095 90.1792C303.489 101.318 312.283 111.605 321.364 121.384C325.352 125.674 329.44 129.893 333.773 133.837C336.156 136.005 338.837 138.775 341.89 139.99C344.018 140.836 346.393 138.748 348.076 137.658C352.51 134.794 356.768 131.658 361.007 128.525C371.413 120.819 381.706 112.873 391.506 104.396C394.121 102.131 397.297 99.786 399.259 96.8992C400.706 94.7611 398.091 91.4253 397 89.6178C390.23 78.4103 381.637 68.1539 373.349 58.0595C365.07 47.9796 356.655 37.8559 347.437 28.6171C346.289 27.4655 345.122 26.3167 343.86 25.2762C343.051 24.6136 342.006 25.8568 342.816 26.5194C345.95 29.0821 348.697 32.1779 351.437 35.1404C355.929 40.0057 360.27 45.0069 364.554 50.048C373.643 60.7469 382.593 71.6593 390.727 83.1147C393.221 86.6297 395.98 90.2808 397.67 94.278C397.846 94.6873 398.126 95.3228 398.149 95.679C398.128 95.4174 398.063 95.7702 397.861 96.0478C397.06 97.1655 395.991 98.1278 395 99.0789C386.604 107.063 377.243 114.142 368.06 121.171C363.213 124.885 358.318 128.546 353.339 132.084C350.319 134.225 347.157 136.699 343.847 138.297C343.669 138.378 343.491 138.459 343.305 138.544C343.112 138.635 342.953 138.65 343.023 138.644C343.074 138.64 342.999 138.671 342.799 138.597C342.828 138.608 342.452 138.464 342.308 138.394C341.097 137.828 340.02 136.979 338.983 136.155C335.241 133.205 331.814 129.835 328.466 126.454C319.226 117.123 310.537 107.157 302.671 96.643C299.316 92.1606 296.061 87.5455 293.405 82.6119C292.081 80.1583 289.728 76.2164 290.531 73.2697C290.897 71.9219 292.425 70.5781 293.398 69.5229C295.228 67.5238 297.177 65.6341 299.146 63.7732C304.29 58.9194 309.659 54.314 315.076 49.7611C323.984 42.2729 333.057 34.9782 342.226 27.8202C342.76 27.4082 343.289 26.989 343.817 26.582C344.643 25.9466 343.726 24.6042 342.892 25.2446L342.887 25.2374Z" fill="#535353"/>
<path d="M271.467 116.848C285.243 121.723 281.034 129.963 282.117 138.206L295.103 140.386C297.22 135.723 296.939 135.084 297.205 130.946C297.697 123.24 297.214 117.049 297.214 117.049C302.107 112.294 303.022 103.031 303.022 103.031C303.022 103.031 320.613 102.931 325.383 102.29C344.575 99.6893 322.637 62.8544 322.637 62.8544C305.996 62.7444 234.563 77.8942 221.088 81.8551C207.613 85.816 188.064 105.934 192.123 112.48C196.181 119.027 199.403 116.746 202.717 113.646C206.032 110.547 218.198 100.508 218.198 100.508C218.198 100.508 212.116 109.73 224.789 113.933C224.789 113.933 225.006 122.371 232.559 124.185C232.559 124.185 225.33 136.825 232.994 148.478C239.075 157.718 247.007 165.944 253.079 159.184C257.904 153.807 246.377 145.537 245.67 138.331C244.664 128.09 256.702 111.635 271.459 116.853L271.467 116.848Z" fill="#CC8770"/>
<path d="M350.199 280.244C351.566 287.482 352.589 295.055 350.794 302.322C349.07 309.275 344.297 315.774 337.217 317.843C336.207 318.137 336.749 319.675 337.754 319.374C344.875 317.287 349.86 311.003 351.986 304.091C354.378 296.304 353.301 287.962 351.825 280.118C351.634 279.103 350.01 279.216 350.199 280.244Z" fill="#5E3B3B" fill-opacity="0.15"/>
<path d="M362.909 291.496C363.78 298.556 361.998 306.304 358.859 312.641C357.391 315.611 355.714 318.663 353.626 321.244C351.046 324.421 347.682 326.311 343.735 327.265C342.715 327.513 343.265 329.046 344.273 328.796C348.159 327.862 351.598 326.005 354.267 323.001C356.675 320.284 358.474 316.946 360.129 313.74C363.555 307.109 365.449 298.816 364.535 291.371C364.404 290.335 362.785 290.455 362.909 291.496Z" fill="#5E3B3B" fill-opacity="0.15"/>
<path d="M366.41 322.192C364.241 325.903 361.412 329.166 357.911 331.672C355.958 333.065 353.769 334.037 351.784 335.367C350.91 335.95 351.835 337.287 352.709 336.704C354.83 335.28 357.169 334.247 359.241 332.719C362.803 330.086 365.659 326.708 367.887 322.882C368.41 321.978 366.938 321.295 366.41 322.192Z" fill="#5E3B3B" fill-opacity="0.15"/>
<path d="M401.404 199.577C384.833 199.429 368.262 200.174 351.766 201.813C350.722 201.919 350.841 203.537 351.89 203.439C368.386 201.8 384.957 201.055 401.528 201.203C402.577 201.211 402.445 199.59 401.404 199.577Z" fill="#5E3B3B" fill-opacity="0.15"/>
<path d="M401.828 212.763C398.908 212.571 395.965 212.777 393.052 212.996C390.125 213.224 387.196 213.527 384.272 213.838C383.233 213.95 383.352 215.569 384.396 215.463C387.249 215.159 390.096 214.859 392.953 214.637C395.791 214.418 398.684 214.171 401.536 214.356C402.573 214.426 402.872 212.827 401.828 212.763Z" fill="#5E3B3B" fill-opacity="0.15"/>
<path d="M383.44 188.418C388.752 187.806 394.113 187.851 399.405 188.581C400.441 188.726 400.74 187.127 399.697 186.987C394.268 186.245 388.754 186.179 383.314 186.805C382.273 186.93 382.392 188.548 383.438 188.43L383.44 188.418Z" fill="#5E3B3B" fill-opacity="0.15"/>
<path d="M196.699 249.267C199.261 253.064 201.811 256.86 204.373 260.657C204.962 261.525 206.294 260.604 205.711 259.732C203.149 255.934 200.599 252.139 198.037 248.341C197.448 247.473 196.116 248.394 196.699 249.267Z" fill="#5E3B3B" fill-opacity="0.15"/>
<path d="M205.368 242.67C215.724 255.863 225.649 269.385 235.135 283.211C235.731 284.074 237.063 283.153 236.473 282.285C226.995 268.454 217.07 254.932 206.706 241.745C206.064 240.924 204.721 241.842 205.368 242.67Z" fill="#5E3B3B" fill-opacity="0.15"/>
<path d="M218.796 238.602C216.463 237.336 214.422 235.569 212.822 233.455C212.194 232.624 210.851 233.543 211.483 234.381C213.267 236.729 215.517 238.66 218.112 240.075C219.033 240.575 219.717 239.103 218.804 238.598L218.796 238.602Z" fill="#5E3B3B" fill-opacity="0.15"/>
<path d="M172.007 240.331C182.004 242.91 192.768 241.153 201.36 235.393C204.636 233.191 208.419 230.214 210.243 226.636L213.439 220.366C213.141 220.519 212.85 220.667 212.551 220.82C221.264 221.651 230.005 222.367 238.708 223.353C239.749 223.473 240.047 221.874 239 221.759C230.298 220.761 221.563 220.052 212.843 219.226C212.466 219.189 212.136 219.343 211.955 219.681C210.963 221.632 209.966 223.575 208.975 225.526C207.256 228.903 203.984 231.602 200.911 233.727C192.564 239.519 182.086 241.259 172.287 238.735C171.273 238.469 170.986 240.07 171.995 240.329L172.007 240.331Z" fill="#5E3B3B" fill-opacity="0.15"/>
<path d="M231.872 123.763C232.671 120.734 233.477 117.7 235.041 114.961C236.984 111.555 240.029 109.004 243.285 106.912C244.168 106.343 243.243 105.006 242.36 105.574C238.905 107.793 235.773 110.511 233.675 114.077C231.975 116.974 231.112 120.249 230.265 123.471C229.998 124.485 231.6 124.77 231.86 123.761L231.872 123.763Z" fill="#5E3B3B" fill-opacity="0.15"/>
<path d="M224.868 113.451C226.355 107.354 228.731 101.343 233.503 97.0438C234.271 96.3537 233.36 95.0063 232.578 95.7064C227.459 100.32 224.872 106.594 223.269 113.154C223.019 114.177 224.621 114.462 224.864 113.444L224.868 113.451Z" fill="#5E3B3B" fill-opacity="0.15"/>
<path d="M215.756 104.474C217.924 98.9783 220.292 93.0789 225.541 89.8219C226.434 89.2678 225.502 87.9353 224.616 88.4845C219.118 91.9035 216.552 98.0247 214.279 103.784C213.895 104.751 215.365 105.446 215.756 104.474Z" fill="#5E3B3B" fill-opacity="0.15"/>
<path d="M357.412 46.0754C357.412 46.0754 321.95 46.8733 319.961 52.9043C316.61 63.0755 323.278 103.274 331.65 111.844C338.285 118.639 385.026 107.735 385.811 106.502C385.811 106.502 397.829 98.9566 395.778 95.3902C385.867 78.149 357.404 46.0803 357.404 46.0803L357.412 46.0754Z" fill="#258DE3"/>
<path d="M323.93 64.0572C320.367 58.7198 307.124 61.7548 307.849 63.6342C308.576 65.5015 312.329 67.6361 316.183 83.9642C320.044 100.287 314.13 102.644 317.495 104.909C320.859 107.174 333.86 104.806 333.86 104.806C333.86 104.806 340.302 88.5963 323.93 64.0572Z" fill="#258DE3"/>
<path d="M317.513 60.9802C329.662 72.1352 333.98 90.7038 327.974 106.081C327.594 107.055 329.064 107.75 329.451 106.771C335.737 90.6901 331.279 71.4108 318.557 59.737C317.788 59.0251 316.741 60.2805 317.513 60.9802Z" fill="#535353"/>
<path d="M317.722 93.9342C322.128 94.9368 326.768 94.6618 331.034 93.1684C332.028 92.8211 331.485 91.283 330.496 91.6374C326.486 93.039 322.161 93.277 318.013 92.3402C316.993 92.1106 316.701 93.7045 317.722 93.9342Z" fill="#535353"/>
<path d="M325.576 72.1777C321.521 71.5595 317.317 72.5425 313.962 74.9054C313.103 75.5098 314.028 76.8472 314.887 76.2428C317.89 74.1237 321.643 73.2287 325.278 73.7766C326.312 73.9332 326.61 72.3343 325.569 72.1827L325.576 72.1777Z" fill="#535353"/>
<path d="M337.27 30.3344C356.016 47.9819 395.602 100.907 394.572 101.449C394.572 101.449 398.419 98.8734 400.463 96.2592C402.949 93.0843 352.822 32.3773 343.336 25.906L337.258 30.3321L337.27 30.3344Z" fill="#535353"/>
<path d="M346.199 33.9548C345.121 34.9027 343.474 34.798 342.519 33.7255C341.572 32.648 341.678 31.0015 342.752 30.0465C343.831 29.0986 345.478 29.2033 346.432 30.2758C347.379 31.3533 347.273 32.9998 346.199 33.9548Z" fill="#AAD985"/>
<path d="M351.457 39.9109C350.378 40.8587 348.731 40.754 347.777 39.6815C346.83 38.6041 346.936 36.9576 348.01 36.0025C349.088 35.0547 350.735 35.1594 351.69 36.2319C352.637 37.3093 352.531 38.9558 351.457 39.9109Z" fill="#AAD985"/>
</g>
</g>
<defs>
<clipPath id="clip0_7790_2887">
<rect width="620" height="360" rx="30" fill="white"/>
</clipPath>
<clipPath id="clip1_7790_2887">
<rect width="593.96" height="569.434" fill="white" transform="translate(376.049 -150.712) rotate(55.3371)"/>
</clipPath>
</defs>
</svg>
