<?xml version="1.0" encoding="UTF-8"?>
<svg version="1.1" xmlns="http://www.w3.org/2000/svg" width="1024" height="1024">
<path d="M0 0 C337.92 0 675.84 0 1024 0 C1024 337.92 1024 675.84 1024 1024 C686.08 1024 348.16 1024 0 1024 C0 686.08 0 348.16 0 0 Z " fill="#61649A" transform="translate(0,0)"/>
<path d="M0 0 C3.79968401 1.77027166 6.19097844 3.97512322 9.140625 6.98046875 C9.86943878 7.71708488 9.86943878 7.71708488 10.61297607 8.46858215 C12.16350303 10.03685648 13.70719156 11.61163482 15.25 13.1875 C17.27256096 15.24694559 19.29835779 17.30312491 21.328125 19.35546875 C21.81930313 19.85214554 22.31048126 20.34882233 22.81654358 20.86054993 C26.18111223 24.23854308 29.65860708 27.42364876 33.28369141 30.51733398 C35.82868386 32.71587441 38.18765739 35.05557887 40.5625 37.4375 C41.86380859 38.73494141 41.86380859 38.73494141 43.19140625 40.05859375 C45.30944278 42.22971391 47.29996434 44.48552036 49.27734375 46.78515625 C53.29646277 51.41839096 57.6284287 55.70177721 62 60 C66.94137775 64.85846873 71.74029345 69.74734607 76.2578125 75.00390625 C79.39809014 78.60184767 82.70981241 82.03963029 86 85.5 C90.58585226 90.32305152 95.08990459 95.18972248 99.45019531 100.21826172 C101.39024841 102.44865042 103.38050303 104.63078013 105.375 106.8125 C109.23022386 111.08310151 112.87582515 115.48773669 116.4921875 119.9609375 C119.38831771 123.47057817 122.37677576 126.89021366 125.375 130.3125 C130.03197908 135.64362197 134.5080831 141.07418799 138.84204102 146.67041016 C141.73198326 150.39993807 144.68334359 154.06852791 147.68408203 157.70947266 C154.91517357 166.49302642 161.69011672 175.5674389 168.37597656 184.77050781 C169.8536852 186.79913609 171.3414763 188.81963463 172.8359375 190.8359375 C185.61933487 208.09433759 197.67888392 225.74746939 209 244 C210.0199707 245.6411377 210.0199707 245.6411377 211.06054688 247.31542969 C220.94167784 263.2449693 230.34481329 279.3639512 239 296 C239.53044922 297.01175293 240.06089844 298.02350586 240.60742188 299.06591797 C253.00022598 322.81383339 263.80279018 347.47801238 272 373 C272.30131836 373.92216309 272.60263672 374.84432617 272.91308594 375.79443359 C282 403.75738869 282 403.75738869 282 416 C281.43829102 416.03440186 280.87658203 416.06880371 280.29785156 416.10424805 C242.28550635 418.59085684 205.69028708 432.6819507 179.7109375 461.54296875 C177.39018981 464.30633326 175.17740315 467.12244248 173 470 C171.90558594 471.44632813 171.90558594 471.44632813 170.7890625 472.921875 C153.63448896 496.63732053 143.54664865 524.1551869 143.6875 553.5625 C143.69241455 554.78759277 143.6973291 556.01268555 143.70239258 557.27490234 C143.83224106 567.42439267 144.74931351 577.10576263 147 587 C147.17160645 587.75958008 147.34321289 588.51916016 147.52001953 589.30175781 C155.02046227 621.30096571 175.23202313 651.83750569 202.78417969 670.03198242 C204.21724019 670.98062517 205.613162 671.98497989 207 673 C207 675 207 675 205.70703125 676.33984375 C204.76923828 677.13068359 204.76923828 677.13068359 203.8125 677.9375 C203.07128906 678.56398438 202.33007812 679.19046875 201.56640625 679.8359375 C200.71949219 680.55007813 199.87257813 681.26421875 199 682 C198.10152344 682.79664063 197.20304687 683.59328125 196.27734375 684.4140625 C181.57969537 697.36222289 165.33971374 707.95987853 148 717 C146.73295668 717.67947079 145.46602563 718.35915099 144.19921875 719.0390625 C132.2346235 725.34146484 119.61670027 730.17581379 107 735 C105.6238855 735.53246338 105.6238855 735.53246338 104.2199707 736.07568359 C97.52192831 738.6019536 90.76971136 740.45738688 83.8125 742.125 C82.78447266 742.37636719 81.75644531 742.62773438 80.69726562 742.88671875 C78.6909001 743.37707808 76.68351527 743.86328883 74.67504883 744.3449707 C72.50319247 744.87678512 70.34314364 745.45665406 68.1875 746.05078125 C62.60820856 747.44937342 56.87993089 748.07054381 51.18334961 748.80493164 C49.20162776 749.06067678 47.22092213 749.32425628 45.24023438 749.58789062 C34.33256723 751.01921346 23.57373721 752.15415403 12.56640625 752.16796875 C11.60838608 752.17129715 10.65036591 752.17462555 9.66331482 752.17805481 C7.6473742 752.18308077 5.63142539 752.18546449 3.61547852 752.18530273 C0.60092681 752.18747234 -2.41324792 752.20562864 -5.42773438 752.22460938 C-22.07950488 752.27322743 -38.33329901 751.23764183 -54.6328125 747.71484375 C-57.7077517 747.06204343 -60.76862891 746.53813677 -63.875 746.0625 C-106.72805175 739.05436017 -149.49089505 719.58218201 -183 692 C-183.54398437 691.5575293 -184.08796875 691.11505859 -184.6484375 690.65917969 C-198.31130478 679.49120234 -211.01555753 667.27350137 -221.62890625 653.14453125 C-223.65769827 650.45395863 -225.76445158 647.88549598 -227.9375 645.3125 C-242.64357248 626.88489081 -253.65346595 604.9546409 -262 583 C-262.24186035 582.37174316 -262.4837207 581.74348633 -262.73291016 581.09619141 C-268.72957085 565.35840231 -273.31857425 549.33409015 -276.31542969 532.75756836 C-276.68924287 530.7057286 -277.06994468 528.65491815 -277.48425293 526.61087036 C-280.74108281 510.53041182 -281.57087864 494.97419709 -281.41162109 478.58618164 C-281.37461383 474.6463883 -281.37060689 470.70752908 -281.37109375 466.76757812 C-281.36127592 464.22395029 -281.34962479 461.68032871 -281.3359375 459.13671875 C-281.33371185 457.97822922 -281.33148621 456.81973969 -281.32919312 455.62614441 C-281.24738081 448.55441644 -280.51285309 441.91022138 -279 435 C-278.11441406 434.85304688 -277.22882813 434.70609375 -276.31640625 434.5546875 C-236.31160532 427.31136246 -200.7686463 404.00456804 -177.47338867 370.82568359 C-165.66248206 353.45726402 -157.41340345 334.50958717 -153 314 C-152.74702148 312.9083252 -152.49404297 311.81665039 -152.23339844 310.69189453 C-150.25156138 301.67253764 -149.52274618 293.14424995 -149.625 283.875 C-149.63197906 282.87102676 -149.63197906 282.87102676 -149.63909912 281.84677124 C-149.86606466 253.80156256 -155.67898591 224.29219762 -172.1640625 200.9453125 C-173 199 -173 199 -172.38671875 197.09765625 C-171.92910156 196.40542969 -171.47148437 195.71320313 -171 195 C-170.43667969 194.12988281 -169.87335938 193.25976562 -169.29296875 192.36328125 C-163.86900538 184.50406902 -158.16684942 176.89810451 -152.33203125 169.33984375 C-149.63764124 165.84566675 -146.99651038 162.31561727 -144.37133789 158.76928711 C-139.31425954 151.94483043 -134.05211421 145.37829285 -128.51171875 138.94140625 C-126.30310215 136.35495477 -124.16825432 133.73268332 -122.0625 131.0625 C-117.39355793 125.17639992 -112.47746653 119.50914778 -107.56884766 113.82324219 C-106.02221978 112.0258228 -104.48428571 110.22136051 -102.94921875 108.4140625 C-97.24456551 101.70498446 -91.42868335 95.12922957 -85.44921875 88.6640625 C-83.43126221 86.46909223 -81.45196555 84.2533379 -79.5 82 C-75.3013393 77.1675792 -70.96782386 72.46064112 -66.62368774 67.75939941 C-65.58979422 66.63909061 -64.55738243 65.51741122 -63.52694702 64.3939209 C-51.33905485 51.11774789 -38.5576944 38.43857588 -25.79193115 25.7232666 C-22.87306513 22.81480486 -19.95718433 19.90335326 -17.04101562 16.9921875 C-11.36351669 11.32527308 -5.68283775 5.66156058 0 0 Z " fill="#64679D" transform="translate(511,140)"/>
<path d="M0 0 C5.1825022 2.62826897 9.25426124 7.11830345 13.4375 11.0625 C15.0597722 12.50307772 16.68476012 13.94060322 18.3125 15.375 C22.69520202 19.30978436 26.86664226 23.42133578 30.97607422 27.63793945 C33.55981326 30.26876155 36.20559025 32.74749599 39.01171875 35.140625 C45.0190917 40.33931313 50.53251571 46.05187764 56.125 51.6875 C57.25041457 52.81794381 58.37606412 53.94815372 59.50195312 55.078125 C61.57005747 57.15432238 63.63678792 59.2318659 65.7019043 61.31103516 C67.51511926 63.13476854 69.33246315 64.95440674 71.15405273 66.76977539 C73.45163477 69.07669219 75.64131746 71.44907583 77.8125 73.875 C78.58851563 74.74125 79.36453125 75.6075 80.1640625 76.5 C82.1864423 78.77952087 84.19073959 81.07305787 86.1875 83.375 C88.82477057 86.39939285 91.5628479 89.2597142 94.4375 92.0625 C98.60623992 96.13054571 102.56352671 100.29248497 106.36328125 104.70703125 C108.4517749 107.07871048 110.5926751 109.39121259 112.74926758 111.70068359 C117.75244814 117.05939237 122.50048052 122.52396573 127.08984375 128.24609375 C129.78611974 131.48072767 132.62174733 134.55295424 135.5 137.625 C139.68423326 142.09723808 143.62503495 146.66285337 147.3984375 151.4921875 C149.7425784 154.44706243 152.17682817 157.31907097 154.625 160.1875 C163.48567305 170.60404189 172.14570079 181.16928042 180.28125 192.1640625 C182.5256304 195.18096513 184.82012365 198.15410419 187.125 201.125 C193.11102105 208.87022644 198.90149306 216.75891294 204.67919922 224.66015625 C206.33508387 226.92257016 207.99736548 229.18016039 209.66015625 231.4375 C218.65699598 243.7108548 227.07641877 256.350313 235.4375 269.0625 C235.93459473 269.81321777 236.43168945 270.56393555 236.94384766 271.33740234 C260.55679227 306.99898152 286.75353028 347.02208739 300.5 387.75 C301.63243113 390.96992466 302.83721656 393.98623663 304.4375 397 C306.66570271 401.24669222 308.04356699 405.70064484 309.50390625 410.2578125 C310.43788343 413.20404528 310.43788343 413.20404528 311.9375 416.5 C313.77961083 420.87501321 315.10619689 425.33607343 316.47265625 429.87890625 C317.23506116 432.39453379 318.02963212 434.88665725 318.875 437.375 C319.39752771 438.93693419 319.91811633 440.49951752 320.4375 442.0625 C320.80746094 443.17496094 321.17742188 444.28742188 321.55859375 445.43359375 C325.80055254 458.44854181 329.09168467 471.74694509 331.6875 485.1875 C331.84734375 486.00347656 332.0071875 486.81945312 332.171875 487.66015625 C332.4375 490.0625 332.4375 490.0625 332.140625 492.80859375 C331.89732852 496.18199296 331.96183083 497.99005811 333.4375 501.0625 C336.62813868 503.62890518 340.30706017 505.34156408 343.9543457 507.16357422 C373.19693137 521.797684 395.21757935 551.29169991 406.375 581.5 C411.43228258 596.83211374 413.87384269 611.86945385 413.875 628 C413.87706451 628.72117004 413.87912903 629.44234009 413.8812561 630.18536377 C413.87523604 641.95572426 412.53496886 652.80483954 409.03955078 664.078125 C408.253297 666.66963788 407.67211377 669.29967438 407.0625 671.9375 C397.53405956 705.49878468 370.95672633 734.00110402 341.25 750.875 C338.66070384 752.29993867 336.05481743 753.68982109 333.4375 755.0625 C332.50550781 755.55621094 331.57351563 756.04992187 330.61328125 756.55859375 C322.32857111 760.63116949 313.36371646 762.84768008 304.4375 765.0625 C303.70950195 765.24506348 302.98150391 765.42762695 302.23144531 765.61572266 C294.09823457 767.54990519 286.59812761 768.2314965 278.2421875 767.5625 C263.03103592 765.95118724 263.03103592 765.95118724 249.41796875 771.28125 C245.93417524 774.76379856 243.05342481 778.65766488 240.21777344 782.67578125 C237.2331408 786.67712089 233.69280627 790.08549244 230.125 793.5625 C229.45162598 794.23249023 228.77825195 794.90248047 228.08447266 795.59277344 C222.81767983 800.8035781 217.2785428 805.50583216 211.4375 810.0625 C210.38009945 810.94075418 209.32556856 811.82247115 208.2734375 812.70703125 C180.62446381 835.74980608 147.43296623 855.118147 113.4375 867.0625 C112.29539062 867.50464844 111.15328125 867.94679688 109.9765625 868.40234375 C103.85813445 870.70116677 97.61245043 872.61619779 91.375 874.5625 C90.73220093 874.76359375 90.08940186 874.9646875 89.42712402 875.171875 C80.95523006 877.8119708 72.55736911 880.17164614 63.796875 881.625 C61.48854339 881.82267881 61.48854339 881.82267881 60.4375 883.0625 C57.92061981 883.49654333 55.4164061 883.87539827 52.88671875 884.21875 C51.73294487 884.37954041 51.73294487 884.37954041 50.55586243 884.5435791 C48.91765067 884.77084165 47.27914532 884.99599606 45.64038086 885.21923828 C43.17286034 885.55596873 40.70652175 885.90046144 38.24023438 886.24609375 C22.12773686 888.48413381 6.32782602 889.33441729 -9.9375 889.375 C-10.97730011 889.37795074 -12.01710022 889.38090149 -13.08840942 889.38394165 C-30.60999491 889.39522363 -47.30498174 888.15672606 -64.5625 885.0625 C-66.05949541 884.81913851 -67.5568444 884.57793218 -69.0546875 884.33984375 C-72.91618968 883.68046659 -76.73739681 882.901583 -80.5625 882.0625 C-81.42456055 881.88025879 -82.28662109 881.69801758 -83.17480469 881.51025391 C-138.04600533 869.7787205 -193.73185785 843.60774145 -234.71875 804.73046875 C-236.88315227 802.69985508 -239.06888089 800.75083655 -241.31640625 798.81640625 C-246.07196952 794.67535109 -250.54458254 790.27238405 -255 785.8125 C-255.84038818 784.97130615 -256.68077637 784.1301123 -257.54663086 783.26342773 C-263.30174913 777.45116724 -268.54311908 771.52030071 -273.5625 765.0625 C-275.14238537 763.20539454 -276.7259403 761.35140671 -278.3125 759.5 C-311.21336913 719.92728279 -337.23907075 668.0625605 -346.01171875 617.05078125 C-346.24711925 614.18880641 -346.24711925 614.18880641 -347.5625 613.0625 C-347.99643696 610.43756202 -348.3752397 607.82468428 -348.71875 605.1875 C-348.8259436 604.38900635 -348.93313721 603.5905127 -349.0435791 602.76782227 C-349.38717895 600.19989186 -349.72477743 597.63120924 -350.0625 595.0625 C-350.28999875 593.36062814 -350.517859 591.65880456 -350.74609375 589.95703125 C-350.96647002 588.30473071 -351.18653159 586.65238815 -351.40625 585 C-351.55785583 583.86038818 -351.55785583 583.86038818 -351.71252441 582.69775391 C-352.00296948 580.48684208 -352.2848718 578.27505588 -352.5625 576.0625 C-352.65804169 575.31802612 -352.75358337 574.57355225 -352.85202026 573.80651855 C-353.47371791 568.67448845 -353.70961284 563.63594046 -353.6953125 558.46875 C-353.69626923 557.67835327 -353.69722595 556.88795654 -353.69821167 556.0736084 C-353.69888737 554.40974853 -353.69707601 552.74588594 -353.69287109 551.08203125 C-353.68757203 548.59629036 -353.69280713 546.11073495 -353.69921875 543.625 C-353.7029749 535.66433193 -353.57496879 527.72986832 -353.1171875 519.78125 C-353.07844513 519.10437134 -353.03970276 518.42749268 -352.99978638 517.73010254 C-352.72570568 513.4620552 -352.21365738 509.28511555 -351.5625 505.0625 C-352.7175 505.02125 -353.8725 504.98 -355.0625 504.9375 C-377.47836146 502.37668954 -401.05336053 486.47826155 -417.5625 472.0625 C-418.53960937 471.21945312 -419.51671875 470.37640625 -420.5234375 469.5078125 C-438.71549686 453.52857814 -450.86200081 434.09633687 -460.5625 412.0625 C-461.20832031 410.64710938 -461.20832031 410.64710938 -461.8671875 409.203125 C-465.0766482 401.78902198 -466.8370874 393.92629638 -468.5625 386.0625 C-468.79332275 385.05002197 -468.79332275 385.05002197 -469.02880859 384.01708984 C-477.62622387 345.24971782 -468.97991068 303.53590494 -448.203125 270.0703125 C-444.10330439 263.71222 -439.44904872 257.82881154 -434.5625 252.0625 C-433.41974609 250.70705078 -433.41974609 250.70705078 -432.25390625 249.32421875 C-406.89643627 220.26030931 -369.62002269 200.24900616 -330.94482422 197.21191406 C-290.41866676 194.67020384 -256.82275255 205.37583322 -222.5625 226.0625 C-222.12421875 225.4540625 -221.6859375 224.845625 -221.234375 224.21875 C-204.47622191 201.057075 -186.99371666 178.41216544 -168.44897461 156.64990234 C-165.56408142 153.26206994 -162.73719605 149.83344806 -159.9375 146.375 C-156.35732965 141.97304677 -152.61223839 137.76135411 -148.7890625 133.5703125 C-146.58389243 131.08659464 -144.50738996 128.53455295 -142.4375 125.9375 C-137.91004877 120.33398201 -133.01899907 115.11309067 -128.05419922 109.89599609 C-124.37764795 106.02855634 -120.8150211 102.09004107 -117.31738281 98.06030273 C-114.36725604 94.70180421 -111.31167006 91.44411982 -108.25 88.1875 C-107.59773438 87.49205078 -106.94546875 86.79660156 -106.2734375 86.08007812 C-101.90904586 81.44452605 -97.47436306 76.90445398 -92.90625 72.46875 C-90.98609655 70.49739246 -89.19678938 68.49617495 -87.40600586 66.41040039 C-83.67382221 62.13276376 -79.74161894 58.09688627 -75.72265625 54.08984375 C-74.63397499 52.9997274 -74.63397499 52.9997274 -73.52330017 51.8875885 C-71.99926444 50.36287704 -70.47398431 48.8394085 -68.94750977 47.31713867 C-66.63117537 45.00616109 -64.32022922 42.68989229 -62.00976562 40.37304688 C-60.51854966 38.8824918 -59.02702347 37.392247 -57.53515625 35.90234375 C-56.514468 34.87861916 -56.514468 34.87861916 -55.47315979 33.83421326 C-51.54079856 29.92070419 -47.50577985 26.18697791 -43.29466248 22.57447815 C-40.93416989 20.51404025 -38.74760161 18.30665841 -36.5625 16.0625 C-25.78566551 5.18649219 -16.35577754 -4.30415199 0 0 Z M-13.47779846 75.71784973 C-14.01130417 76.25697495 -14.54480988 76.79610016 -15.09448242 77.3515625 C-15.65899109 77.91417282 -16.22349976 78.47678314 -16.80511475 79.05644226 C-18.68099544 80.92860169 -20.54954708 82.80789857 -22.41796875 84.6875 C-23.72077066 85.99149412 -25.02394256 87.29511869 -26.32746887 88.59838867 C-29.06687955 91.33936707 -31.80288896 94.0836817 -34.53637695 96.83056641 C-38.02358574 100.33465628 -41.51723072 103.83223766 -45.01327038 107.32751465 C-47.71004648 110.0245643 -50.40419538 112.72422566 -53.09749794 115.42474365 C-54.38338567 116.71379446 -55.6698631 118.00225731 -56.95696068 119.2901001 C-65.81972698 128.12877284 -65.81972698 128.12877284 -74.16474915 137.4519043 C-75.71939322 139.2432844 -77.3694749 140.90201858 -79.0625 142.5625 C-82.07322823 145.52649852 -84.85493751 148.62968597 -87.61328125 151.828125 C-89.89270694 154.44101376 -92.22462353 157.00180021 -94.5625 159.5625 C-101.65886525 167.35145344 -108.52286597 175.32931891 -115.37109375 183.3359375 C-117.48280934 185.80424374 -119.6001464 188.26753309 -121.72265625 190.7265625 C-126.73029469 196.5335349 -131.68779366 202.36029905 -136.44140625 208.37890625 C-138.08481146 210.45813163 -139.7387059 212.52688893 -141.40234375 214.58984375 C-146.70024174 221.16488338 -151.91369788 227.77995721 -156.9453125 234.5625 C-159.08257936 237.43537621 -161.2533255 240.28163784 -163.4296875 243.125 C-164.12932617 244.03942871 -164.82896484 244.95385742 -165.54980469 245.89599609 C-166.93694579 247.70739072 -168.32553254 249.51767955 -169.71582031 251.32666016 C-171.02578526 253.0389207 -172.32801408 254.75713014 -173.62207031 256.48144531 C-174.95616182 258.25598172 -176.31097262 260.01507017 -177.68261719 261.76074219 C-178.34165039 262.63118164 -179.00068359 263.50162109 -179.6796875 264.3984375 C-180.28151855 265.17493652 -180.88334961 265.95143555 -181.50341797 266.75146484 C-182.86178755 269.06210829 -182.86178755 269.06210829 -181.84887695 271.66015625 C-180.55503344 274.07644401 -179.2485259 276.48404142 -177.89746094 278.86889648 C-158.01940116 314.22507301 -154.1725617 357.00783777 -164.60595703 395.90527344 C-169.99150083 413.68114184 -178.19923164 431.34001727 -189.5625 446.0625 C-190.20703125 446.91585938 -190.8515625 447.76921875 -191.515625 448.6484375 C-199.81542051 459.34370244 -208.7401134 468.89824345 -219.5625 477.0625 C-220.36171875 477.66578125 -221.1609375 478.2690625 -221.984375 478.890625 C-241.50240581 493.050765 -264.65096249 503.48129854 -288.5625 507.0625 C-290.28409914 515.02744095 -290.90524781 522.67480405 -290.96875 530.8125 C-290.98250671 532.01270782 -290.99626343 533.21291565 -291.01043701 534.44949341 C-291.04470443 538.32061983 -291.05735641 542.19122976 -291.0625 546.0625 C-291.06584351 547.3811908 -291.06918701 548.69988159 -291.07263184 550.05853271 C-291.09483306 571.33638089 -289.49366497 591.3639522 -284.5625 612.0625 C-284.2405572 613.4790151 -283.92005608 614.89585846 -283.60083008 616.31298828 C-281.65344 624.88592169 -279.46001207 633.31802496 -276.75 641.6875 C-276.40453125 642.75871094 -276.0590625 643.82992187 -275.703125 644.93359375 C-272.9202935 653.36363642 -269.53929082 661.13537152 -265.5625 669.0625 C-264.95847678 670.38643655 -264.3610537 671.71339994 -263.76953125 673.04296875 C-256.05833959 690.27357707 -246.1763362 706.1964308 -234.5625 721.0625 C-233.42361328 722.52042969 -233.42361328 722.52042969 -232.26171875 724.0078125 C-220.47605724 738.70325545 -207.39165504 752.43139076 -192.5625 764.0625 C-191.15484375 765.21298828 -191.15484375 765.21298828 -189.71875 766.38671875 C-168.20374723 783.60426607 -143.29282309 796.46391658 -117.5625 806.0625 C-116.29539065 806.54900471 -115.02844932 807.03594738 -113.76171875 807.5234375 C-106.37289986 810.28483074 -98.94394599 812.34708696 -91.28125 814.16015625 C-88.26859077 814.89116915 -85.33734044 815.72036123 -82.375 816.625 C-75.9506472 818.43092406 -69.33638224 819.18950518 -62.73364258 820.06079102 C-61.85216553 820.17737061 -60.97068848 820.2939502 -60.0625 820.4140625 C-59.2684375 820.51541504 -58.474375 820.61676758 -57.65625 820.72119141 C-55.5625 821.0625 -55.5625 821.0625 -52.5625 822.0625 C-38.34752919 823.98765879 -24.20264634 824.4251766 -9.875 824.375 C-8.87080017 824.37417419 -7.86660034 824.37334839 -6.83197021 824.37249756 C7.63209304 824.34518572 21.71375682 823.75814307 36.015625 821.43847656 C39.08771293 820.96155969 42.16683708 820.62375456 45.25708008 820.28930664 C51.11018102 819.64344243 56.62948248 818.65531196 62.26171875 816.953125 C64.78697122 816.24493611 67.26954325 815.65134634 69.83203125 815.109375 C115.43900301 805.3262043 158.12940422 782.40290634 192.34375 750.91015625 C194.4375 749.0625 194.4375 749.0625 197.4375 747.0625 C197.4375 746.4025 197.4375 745.7425 197.4375 745.0625 C195.86033761 743.81216403 194.22248678 742.63807958 192.5625 741.5 C186.78433989 737.3938811 181.58231603 732.93009932 176.4375 728.0625 C175.20193359 726.92361328 175.20193359 726.92361328 173.94140625 725.76171875 C162.58256366 714.93449125 154.67806297 701.86824252 147.4375 688.0625 C146.94378906 687.13050781 146.45007813 686.19851563 145.94140625 685.23828125 C133.27775081 659.47701333 129.86624292 624.54094165 137.4375 597.0625 C137.7159375 595.85335937 137.994375 594.64421875 138.28125 593.3984375 C143.43644049 571.93329089 154.33576288 552.86867986 168.4375 536.0625 C169.08847656 535.26972656 169.73945312 534.47695313 170.41015625 533.66015625 C174.36629537 528.9650572 178.650839 524.90251672 183.4375 521.0625 C184.46230469 520.23878906 185.48710938 519.41507813 186.54296875 518.56640625 C200.44268807 507.73948222 216.46350448 498.94543022 233.4375 494.0625 C234.05947266 493.88138672 234.68144531 493.70027344 235.32226562 493.51367188 C247.51856504 490.05141873 259.82286765 488.9284689 272.4375 488.0625 C272.17609998 485.81138456 271.90275719 483.56165576 271.625 481.3125 C271.47417969 480.05953125 271.32335937 478.8065625 271.16796875 477.515625 C269.61805525 467.04977661 266.2555864 456.97057595 263 446.9375 C262.61779297 445.73996094 262.23558594 444.54242187 261.84179688 443.30859375 C259.6258919 436.43891212 257.20851128 429.72581863 254.4375 423.0625 C253.71833074 421.28011703 252.99959773 419.49755798 252.28125 417.71484375 C246.22565841 402.87870921 239.57986195 388.40543751 232.4375 374.0625 C231.93379883 373.04575195 231.43009766 372.02900391 230.91113281 370.98144531 C222.87467134 354.85203606 213.84777028 339.47660917 204.36035156 324.17675781 C202.67631311 321.44928264 201.01408426 318.71093391 199.3671875 315.9609375 C193.29155776 305.82731098 186.79756254 296.03758994 180.03417969 286.35009766 C178.51894706 284.17919097 177.01280573 282.00223028 175.5078125 279.82421875 C168.72244093 270.05751807 161.57839154 260.58749603 154.3359375 251.15625 C151.3744765 247.29838588 148.45264099 243.41394409 145.55395508 239.50878906 C140.81267727 233.1229266 135.9365608 226.92424859 130.796875 220.8515625 C128.49849153 218.13459926 126.24435683 215.38667313 124 212.625 C119.36491903 206.94905874 114.64317925 201.35032921 109.89208984 195.77148438 C108.91210698 194.62011142 107.93328855 193.46774646 106.95556641 192.31445312 C100.73826357 184.98091247 94.41125214 177.78062093 87.8828125 170.72265625 C85.88589207 168.55028754 83.92921266 166.35710837 82 164.125 C77.48577436 158.92615246 72.78585857 153.89718069 68.09960938 148.85400391 C66.4218268 147.04560665 64.74972055 145.23208473 63.078125 143.41796875 C56.39197493 136.18399187 49.56049595 129.13517761 42.56030273 122.20458984 C38.93109691 118.59881059 35.47677228 114.9237493 32.16796875 111.01953125 C27.07365488 105.25824175 21.54374069 99.84737522 15.70703125 94.84375 C9.80263892 89.72446792 4.43023657 84.06421339 -1.0234375 78.47460938 C-2.24546875 77.23614258 -2.24546875 77.23614258 -3.4921875 75.97265625 C-4.59409424 74.84549194 -4.59409424 74.84549194 -5.71826172 73.69555664 C-9.2509874 70.56735939 -10.5712622 72.83624134 -13.47779846 75.71784973 Z " fill="#FDFDFD" transform="translate(520.5625,67.9375)"/>
<path d="M0 0 C0.33 0 0.66 0 1 0 C1 161.37 1 322.74 1 489 C-159.71 489 -320.42 489 -486 489 C-486 488.67 -486 488.34 -486 488 C-485.29617188 487.9498877 -484.59234375 487.89977539 -483.8671875 487.84814453 C-463.88201827 486.42252447 -463.88201827 486.42252447 -444 484 C-443.12682129 483.87399414 -442.25364258 483.74798828 -441.35400391 483.61816406 C-425.44287695 481.29572416 -409.75453422 478.20673683 -394.06689453 474.6875 C-391.42032055 474.09422247 -388.77144344 473.51358959 -386.12109375 472.9375 C-376.42026173 470.78971838 -367.01972208 467.92074047 -357.58007812 464.83398438 C-354.83554429 463.94684134 -352.08326024 463.08799995 -349.328125 462.234375 C-336.40555641 458.23769269 -336.40555641 458.23769269 -323.84106445 453.24975586 C-321.09499099 452.04178559 -318.33088853 450.89456672 -315.5546875 449.7578125 C-280.55204321 435.19795663 -246.80321827 417.14236645 -216 395 C-215.25830566 394.46938965 -214.51661133 393.9387793 -213.75244141 393.39208984 C-199.26077123 382.98773687 -185.2737222 372.00331767 -172.12109375 359.9375 C-170.11345871 358.10363816 -168.06607803 356.32991725 -166 354.5625 C-161.94593346 351.03971234 -158.21148078 347.22812708 -154.44140625 343.40625 C-152.33749804 341.33263807 -150.1944263 339.40245875 -147.9375 337.5 C-144.06303566 334.17681215 -140.72164609 330.49550355 -137.3515625 326.66796875 C-134.93834659 323.93005103 -132.47319572 321.24626192 -130 318.5625 C-125.12501855 313.20002041 -120.53438281 307.65133519 -116 302 C-115.08774711 300.87979484 -114.17496197 299.76002295 -113.26171875 298.640625 C-100.89315397 283.41617835 -89.33157174 267.67979787 -79 251 C-78.52884766 250.24170898 -78.05769531 249.48341797 -77.57226562 248.70214844 C-60.92254463 221.77139144 -46.27375722 193.61570078 -35 164 C-34.73050537 163.35490479 -34.46101074 162.70980957 -34.18334961 162.04516602 C-30.53812377 153.26163739 -27.63436571 144.22308706 -24.6875 135.1875 C-24.25621796 133.86798843 -24.25621796 133.86798843 -23.81622314 132.52182007 C-19.04331183 117.85385277 -14.98980246 103.17807561 -11.68823242 88.10791016 C-10.96421464 84.83840099 -10.19148141 81.58234063 -9.41796875 78.32421875 C-8.16471791 72.90606264 -7.20028177 67.50647192 -6.4375 62 C-6.2073868 60.39578229 -5.97691116 58.79161654 -5.74609375 57.1875 C-5.62911133 56.35307373 -5.51212891 55.51864746 -5.39160156 54.65893555 C-5.12286929 52.8342702 -4.83195447 51.01277546 -4.52246094 49.19458008 C-2.82745856 39.07236942 -2.11205784 28.91370991 -1.375 18.6875 C-1.2400515 16.86780376 -1.10463808 15.04814194 -0.96875 13.22851562 C-0.64048081 8.81938821 -0.3184764 4.40984512 0 0 Z " fill="#FAFAFB" transform="translate(1023,535)"/>
<path d="M0 0 C162.03 0 324.06 0 491 0 C491 158.73 491 317.46 491 481 C490.67 481 490.34 481 490 481 C489.91548584 480.06357666 489.83097168 479.12715332 489.74389648 478.16235352 C485.81393142 435.31556445 480.64585578 389.64784047 464 349.59375 C462.46945356 345.62389516 461.30441384 341.55457652 460.125 337.46875 C458.63782334 332.88328865 456.82611134 328.45937031 455 324 C454.45762695 322.65276855 454.45762695 322.65276855 453.90429688 321.27832031 C434.73497816 273.84823069 408.89081939 228.95820307 376.1328125 189.56640625 C374.69551961 187.83691645 373.27386442 186.0943254 371.8671875 184.33984375 C367.20988615 178.53908311 362.34113112 173.00815048 357.2487793 167.59033203 C354.84922594 165.0330142 352.52100009 162.45448502 350.296875 159.7421875 C348.04725642 157.05641838 345.75933024 155.13848093 343 153 C341.31867573 151.34812099 339.65495475 149.67829685 338 148 C327.3304876 137.14737726 327.3304876 137.14737726 316 127 C314.50533203 125.72382813 314.50533203 125.72382813 312.98046875 124.421875 C289.59025207 104.45604962 264.67256971 86.35210864 238 71 C237.08420166 70.46995361 237.08420166 70.46995361 236.14990234 69.92919922 C231.46548164 67.22660222 226.74143082 64.60102555 222 62 C221.25105469 61.58524414 220.50210938 61.17048828 219.73046875 60.74316406 C198.49622361 49.04320064 175.94191857 39.2536464 153.109375 31.1171875 C150.92420009 30.33206184 148.74771522 29.52253069 146.578125 28.6953125 C126.8345291 21.28315444 106.01549707 16.4924563 85.44140625 12.0078125 C82.69681689 11.40652846 80.06523068 10.72489066 77.36328125 9.9296875 C73.77587364 8.93804637 70.31965486 8.43375403 66.625 8 C62.61234941 7.52692961 58.70629735 6.96412408 54.77734375 6.03515625 C49.21265468 4.75764572 43.60542624 4.08505566 37.9375 3.4375 C36.81875488 3.30819092 35.70000977 3.17888184 34.54736328 3.0456543 C23.05400669 1.78572188 11.55401542 1.28514819 0 1 C0 0.67 0 0.34 0 0 Z " fill="#FEFEFE" transform="translate(533,0)"/>
<path d="M0 0 C0.33 0 0.66 0 1 0 C1.10546143 1.17804199 1.21092285 2.35608398 1.31958008 3.56982422 C1.72092688 8.03237808 2.13133732 12.49406352 2.54418945 16.95556641 C2.72008133 18.86941082 2.89366662 20.78346894 3.06469727 22.69775391 C4.18771009 35.24519924 5.67724992 47.61616955 8 60 C8.19355576 61.03589264 8.19355576 61.03589264 8.39102173 62.0927124 C9.29887867 66.90455942 10.26045042 71.70434025 11.25 76.5 C11.47393433 77.58819031 11.47393433 77.58819031 11.70239258 78.69836426 C15.42567108 96.6883284 20.13655343 114.34212728 25.625 131.875 C25.88990234 132.72416992 26.15480469 133.57333984 26.42773438 134.44824219 C28.23865968 140.07362263 30.40096609 145.49407562 32.70996094 150.93261719 C33.96289248 153.91176782 35.15623177 156.90764472 36.33203125 159.91796875 C47.02873899 187.09016512 59.73598283 213.09478092 75 238 C75.86772755 239.4410812 76.73495569 240.8824633 77.6015625 242.32421875 C87.04954826 257.8858307 97.69722478 272.73744708 109 287 C109.66128906 287.84304688 110.32257813 288.68609375 111.00390625 289.5546875 C119.42012233 300.19822542 128.25071941 310.45592401 137.50048828 320.3828125 C139.10277141 322.11083651 140.69042346 323.85161269 142.27734375 325.59375 C149.93016837 333.95226988 157.91191343 341.81703086 166.29394531 349.44238281 C167.83955665 350.85351623 169.36992308 352.28130272 170.8984375 353.7109375 C177.44426044 359.79605736 184.34171936 365.30372071 191.40869141 370.75976562 C193.55139954 372.42974987 195.6486459 374.15340869 197.75 375.875 C216.00979786 390.47689047 235.76597937 403.31586034 256 415 C256.6501709 415.37656738 257.3003418 415.75313477 257.97021484 416.14111328 C288.32565333 433.61672687 319.95832237 447.43896921 353.29785156 458.109375 C356.9099022 459.29990271 360.44732115 460.64310089 364 462 C375.42029752 465.97363777 387.20108357 468.44414031 399 471 C400.02254883 471.22365234 401.04509766 471.44730469 402.09863281 471.67773438 C412.88538127 474.02839014 423.60348898 476.32715024 434.5859375 477.54296875 C437.31095462 477.90775937 439.89716228 478.39447219 442.578125 478.9753418 C447.76786223 480.02267344 452.88633062 480.51497293 458.1640625 480.8515625 C459.08214691 480.91532074 460.00023132 480.97907898 460.94613647 481.04476929 C463.83871409 481.24426484 466.73179843 481.43479119 469.625 481.625 C471.60290532 481.75982035 473.58077045 481.89523173 475.55859375 482.03125 C480.37195884 482.3609918 485.18579946 482.68269897 490 483 C490 483.33 490 483.66 490 484 C328.3 484 166.6 484 0 484 C0 324.28 0 164.56 0 0 Z " fill="#FEFEFE" transform="translate(0,540)"/>
<path d="M0 0 C158.73 0 317.46 0 481 0 C481 0.33 481 0.66 481 1 C473.0858295 2.08398878 465.23484147 3.04640572 457.25 3.4375 C440.66142361 4.31069085 424.25044415 7.71552178 408 11 C407.08347656 11.18288574 406.16695313 11.36577148 405.22265625 11.55419922 C377.57986321 17.11822188 350.07815763 25.24117294 324 36 C323.09910645 36.36391846 322.19821289 36.72783691 321.27001953 37.1027832 C271.17778884 57.40045748 223.76177919 85.09091872 182.84375 120.55859375 C180.06967779 122.94018047 177.23481226 125.22259332 174.375 127.5 C169.52119345 131.44239309 165.13713148 135.73510176 160.80078125 140.2265625 C158.63681133 142.3694058 156.46440629 144.34744394 154.15625 146.32421875 C149.8801398 150.02726277 146.02769045 154.03977209 142.1875 158.1875 C141.49462891 158.9307251 140.80175781 159.6739502 140.08789062 160.43969727 C138.69908278 161.93131422 137.31215358 163.42468288 135.92724609 164.91992188 C134.22351757 166.75875732 132.51345038 168.59137423 130.80078125 170.421875 C125.23254577 176.39825835 120.00800365 182.54886665 115 189 C113.93942403 190.34293933 112.87816662 191.68534064 111.81640625 193.02734375 C78.05589028 235.85335761 51.39587929 283.0795335 32 334 C31.44578369 335.452854 31.44578369 335.452854 30.88037109 336.93505859 C26.02931542 349.81955781 22.35081777 363.00626171 18.74609375 376.28466797 C17.81233974 379.68297034 16.81475129 383.05881694 15.8125 386.4375 C11.9829103 399.85742972 9.43634168 413.4708522 7.41064453 427.26513672 C6.96021051 430.26499519 6.4790938 433.25912416 5.99609375 436.25390625 C3.48017111 452.13537726 1.94040752 467.949996 1 484 C0.67 484 0.34 484 0 484 C0 324.28 0 164.56 0 0 Z " fill="#FDFDFD" transform="translate(0,0)"/>
<path d="M0 0 C2.5 0.25 2.5 0.25 4.5 2.25 C4.74050903 5.29983521 4.74050903 5.29983521 4.72705078 9.27001953 C4.72734283 9.99207581 4.72763489 10.71413208 4.72793579 11.45806885 C4.72654008 13.84977142 4.71096783 16.24116421 4.6953125 18.6328125 C4.69158322 20.2890506 4.68873585 21.94529089 4.68673706 23.60153198 C4.67909389 27.9647224 4.6594396 32.32778007 4.6373291 36.69091797 C4.61688535 41.14158329 4.6077385 45.59227003 4.59765625 50.04296875 C4.57619429 58.77870681 4.54205018 67.5143369 4.5 76.25 C5.88395462 76.24333817 5.88395462 76.24333817 7.29586792 76.23654175 C15.97775903 76.19651887 24.6596193 76.16604306 33.34158134 76.14637566 C37.80539755 76.13592466 42.26913772 76.12174156 46.73291016 76.09912109 C51.03820674 76.07743948 55.34343005 76.0654413 59.64877701 76.06024551 C61.29387694 76.05654131 62.93897273 76.04930823 64.5840416 76.03853989 C66.88277704 76.02408701 69.18120713 76.02201942 71.47998047 76.02294922 C72.7901413 76.018508 74.10030212 76.01406677 75.45016479 76.00949097 C78.5 76.25 78.5 76.25 80.5 78.25 C80.75 80.75 80.75 80.75 80.5 83.25 C77.62876049 86.12123951 75.59411237 85.52738028 71.57177734 85.56884766 C70.50332329 85.58391609 70.50332329 85.58391609 69.4132843 85.59928894 C67.05417707 85.63022904 64.69518385 85.64718577 62.3359375 85.6640625 C60.70210786 85.68276548 59.06828797 85.70233823 57.43447876 85.7227478 C53.13059219 85.7741671 48.82667427 85.81374018 44.52264404 85.85089111 C40.13220401 85.89086953 35.74189548 85.9419899 31.3515625 85.9921875 C22.73446469 86.08906272 14.11730203 86.17343015 5.5 86.25 C5.49191315 87.16010834 5.48382629 88.07021667 5.47549438 89.00790405 C5.39765111 97.57220083 5.31039189 106.1363382 5.21247292 114.70042992 C5.16246247 119.10363979 5.11613307 123.50682512 5.078125 127.91015625 C5.04133189 132.15721588 4.99498867 136.40407244 4.94193649 140.65095901 C4.92336065 142.27368239 4.90826455 143.89644935 4.89665604 145.51923752 C4.87984775 147.78696372 4.85082705 150.05422158 4.81884766 152.32177734 C4.80552399 153.61417328 4.79220032 154.90656921 4.7784729 156.23812866 C4.5 159.25 4.5 159.25 2.5 161.25 C0 161.5 0 161.5 -2.5 161.25 C-4.5 159.25 -4.5 159.25 -4.74050903 156.20016479 C-4.73606781 154.89000397 -4.73162659 153.57984314 -4.72705078 152.22998047 C-4.72734283 151.50792419 -4.72763489 150.78586792 -4.72793579 150.04193115 C-4.72654008 147.65022858 -4.71096783 145.25883579 -4.6953125 142.8671875 C-4.69158322 141.2109494 -4.68873585 139.55470911 -4.68673706 137.89846802 C-4.67909389 133.5352776 -4.6594396 129.17221993 -4.6373291 124.80908203 C-4.61688535 120.35841671 -4.6077385 115.90772997 -4.59765625 111.45703125 C-4.57619429 102.72129319 -4.54205018 93.9856631 -4.5 85.25 C-5.88395462 85.25666183 -5.88395462 85.25666183 -7.29586792 85.26345825 C-15.97775903 85.30348113 -24.6596193 85.33395694 -33.34158134 85.35362434 C-37.80539755 85.36407534 -42.26913772 85.37825844 -46.73291016 85.40087891 C-51.03820674 85.42256052 -55.34343005 85.4345587 -59.64877701 85.43975449 C-61.29387694 85.44345869 -62.93897273 85.45069177 -64.5840416 85.46146011 C-66.88277704 85.47591299 -69.18120713 85.47798058 -71.47998047 85.47705078 C-72.7901413 85.481492 -74.10030212 85.48593323 -75.45016479 85.49050903 C-78.5 85.25 -78.5 85.25 -80.5 83.25 C-80.75 80.75 -80.75 80.75 -80.5 78.25 C-78.5 76.25 -78.5 76.25 -75.45016479 76.00949097 C-74.14000397 76.01393219 -72.82984314 76.01837341 -71.47998047 76.02294922 C-70.75792419 76.02265717 -70.03586792 76.02236511 -69.29193115 76.02206421 C-66.90022858 76.02345992 -64.50883579 76.03903217 -62.1171875 76.0546875 C-60.4609494 76.05841678 -58.80470911 76.06126415 -57.14846802 76.06326294 C-52.7852776 76.07090611 -48.42221993 76.0905604 -44.05908203 76.1126709 C-39.60841671 76.13311465 -35.15772997 76.1422615 -30.70703125 76.15234375 C-21.97129319 76.17380571 -13.2356631 76.20794982 -4.5 76.25 C-4.50444122 75.32736359 -4.50888245 74.40472717 -4.51345825 73.45413208 C-4.55348113 64.77224097 -4.58395694 56.0903807 -4.60362434 47.40841866 C-4.61407534 42.94460245 -4.62825844 38.48086228 -4.65087891 34.01708984 C-4.67256052 29.71179326 -4.6845587 25.40656995 -4.68975449 21.10122299 C-4.69345869 19.45612306 -4.70069177 17.81102727 -4.71146011 16.1659584 C-4.72591299 13.86722296 -4.72798058 11.56879287 -4.72705078 9.27001953 C-4.731492 7.9598587 -4.73593323 6.64969788 -4.74050903 5.29983521 C-4.4411364 1.50356536 -3.87035498 0.3870355 0 0 Z " fill="#505285" transform="translate(202.5,343.75)"/>
<path d="M0 0 C1.75413963 -0.00639748 1.75413963 -0.00639748 3.54371643 -0.01292419 C4.83313644 -0.01247101 6.12255646 -0.01201782 7.4510498 -0.0115509 C8.81754142 -0.01454179 10.1840322 -0.01794416 11.55052185 -0.02172852 C15.26736582 -0.0305788 18.98418678 -0.03290703 22.70104027 -0.0335443 C25.80015892 -0.03449246 28.89927218 -0.03816958 31.99838877 -0.0417164 C39.30699339 -0.04986449 46.61558569 -0.05230027 53.92419434 -0.05158997 C61.47344089 -0.05098873 69.02261609 -0.06154883 76.57184458 -0.07733363 C83.04575135 -0.09038962 89.51963474 -0.0957747 95.99355459 -0.09513456 C99.86353149 -0.09487904 103.73344498 -0.09775967 107.60340881 -0.10831261 C111.24116009 -0.1179613 114.87878689 -0.11809515 118.51654243 -0.11079597 C120.49377669 -0.10924413 122.47101084 -0.11761893 124.44822693 -0.12623596 C125.61765335 -0.12204147 126.78707977 -0.11784698 127.99194336 -0.11352539 C129.52283222 -0.11434254 129.52283222 -0.11434254 131.08464813 -0.1151762 C133.49597168 0.13371277 133.49597168 0.13371277 135.49597168 2.13371277 C135.74597168 5.13371277 135.74597168 5.13371277 135.49597168 8.13371277 C132.85790588 10.77177857 131.68048813 10.38699396 127.99867249 10.39440918 C126.24670059 10.40503639 126.24670059 10.40503639 124.45933533 10.4158783 C123.17148636 10.41340088 121.88363739 10.41092346 120.5567627 10.40837097 C119.19189169 10.41271637 117.82702312 10.41789895 116.4621582 10.42385864 C112.74935633 10.43727877 109.03665607 10.43782397 105.32383466 10.43529534 C102.2272897 10.43422762 99.13076546 10.43910391 96.03422493 10.44390076 C88.73036115 10.45500647 81.4265488 10.45542746 74.12268066 10.4493866 C66.58136356 10.44334535 59.04023296 10.45565911 51.49894768 10.47695667 C45.03011208 10.49455547 38.56133593 10.50057674 32.09247726 10.49731892 C28.22635483 10.49550309 24.36036542 10.49817188 20.4942646 10.51203346 C16.85891395 10.52457928 13.22385461 10.52269885 9.58850861 10.50962257 C7.6150436 10.50611687 5.64156984 10.51745876 3.6681366 10.52919006 C2.49733551 10.52217575 1.32653442 10.51516144 0.12025452 10.50793457 C-0.89941627 10.50810231 -1.91908705 10.50827005 -2.96965694 10.50844288 C-5.50402832 10.13371277 -5.50402832 10.13371277 -7.36726475 8.80563641 C-8.50402832 7.13371277 -8.50402832 7.13371277 -8.31652832 4.00871277 C-8.04840332 3.05996277 -7.78027832 2.11121277 -7.50402832 1.13371277 C-4.87975028 -0.17842625 -2.93996548 0.00482751 0 0 Z " fill="#535587" transform="translate(730.5040283203125,690.8662872314453)"/>
<path d="M0 0 C4.47719737 0.40897476 8.93619962 0.8390787 13.3828125 1.51171875 C21.85027431 2.75797357 30.12452971 3.18685568 38.6875 3.1875 C39.72729004 3.1882251 40.76708008 3.1889502 41.83837891 3.18969727 C46.39182228 3.15656101 50.53844928 2.95456871 55 2 C56.43628457 1.93733488 57.8750555 1.91313653 59.3125 1.9375 C61.1378125 1.9684375 61.1378125 1.9684375 63 2 C63 3.65 63 5.3 63 7 C62.34 6.34 61.68 5.68 61 5 C58.65864026 5.27127503 56.32561823 5.61652197 54 6 C49.22057089 6.18716337 44.4422034 6.18581621 39.65966797 6.18530273 C37.40182199 6.1874742 35.14447763 6.20562625 32.88671875 6.22460938 C24.98187327 6.25434663 17.46156972 5.86821202 9.65405273 4.44311523 C6.36588798 3.89412995 3.32212495 3.84548256 0 4 C0 2.68 0 1.36 0 0 Z " fill="#E0E1E4" transform="translate(169,574)"/>
<path d="M0 0 C0.66829834 0.28198242 1.33659668 0.56396484 2.02514648 0.85449219 C18.44064393 7.73218709 34.08953896 13.86282787 52 15 C51.38640625 15.29648437 50.7728125 15.59296875 50.140625 15.8984375 C47.88567831 17.05882978 45.99071996 18.43586289 44 20 C44 19.01 44 18.02 44 17 C42.865625 16.938125 41.73125 16.87625 40.5625 16.8125 C26.61651704 15.21429473 11.69272579 9.79515053 0 2 C0 1.34 0 0.68 0 0 Z " fill="#E4E5E6" transform="translate(727,819)"/>
<path d="M0 0 C-0.99 0.33 -1.98 0.66 -3 1 C-3 1.66 -3 2.32 -3 3 C-6.63 2.67 -10.26 2.34 -14 2 C-14 1.67 -14 1.34 -14 1 C-9.27685687 0.22887459 -4.78478822 -0.09764874 0 0 Z " fill="#E7E7E9" transform="translate(195,577)"/>
</svg>
