<svg width="42" height="42" viewBox="0 0 42 42" fill="none" xmlns="http://www.w3.org/2000/svg">
<path d="M41.9007 22.4248C41.919 19.1758 41.8175 16.3341 41.5905 13.7375C41.2728 10.1025 39.2479 8.09988 35.735 7.94476C34.2432 7.87896 32.7245 7.92913 31.2558 7.97613C30.5882 7.99791 29.8979 8.02062 29.2194 8.0319C29.0001 8.0355 28.7821 8.03437 28.5941 8.03343H28.4932C28.4166 7.81486 28.3433 7.60179 28.2713 7.39277C28.0947 6.88089 27.9267 6.39659 27.7434 5.91683C27.7365 5.89286 27.7301 5.86859 27.7232 5.84477C27.6367 5.51279 27.4583 5.21195 27.2086 4.97689C26.7466 4.44087 26.1088 4.1806 25.2989 4.20112C24.1997 4.2298 23.0816 4.25016 22.0003 4.26975C20.3434 4.29983 18.6301 4.33087 16.9455 4.39292C16.0409 4.42614 15.5457 4.58379 15.2252 4.98569C15.0142 5.11068 14.8414 5.29094 14.7255 5.50707C14.3241 6.36054 14.0936 7.2843 14.0467 8.22631H13.7747C13.3425 8.22631 12.9434 8.2251 12.5441 8.22761C12.0658 8.23027 11.5874 8.23027 11.109 8.23043C9.94499 8.23043 8.74113 8.23041 7.55736 8.27021C6.11534 8.32336 4.69605 8.64617 3.3729 9.22203C1.51101 10.0211 0.580368 11.3339 0.527578 13.2339C0.491863 14.5251 0.441746 15.838 0.393342 17.1074C0.351361 18.2077 0.307862 19.3454 0.27387 20.465C0.255699 21.0673 0.254697 21.6798 0.2536 22.2721C0.251721 23.3129 0.249725 24.3893 0.154015 25.436C-0.0883156 28.0847 -0.0455691 30.2101 0.288556 32.1246C0.590568 33.8542 1.40073 35.252 2.63197 36.167C3.75289 37.0238 5.11397 37.5078 6.52401 37.551C7.26065 37.5719 7.99725 37.5946 8.73379 37.619C10.5639 37.6778 12.4561 37.7384 14.3188 37.753C18.2655 37.7843 21.9666 37.8 25.52 37.8C27.148 37.8 28.7483 37.7967 30.3205 37.7903C32.0973 37.7832 34.0173 37.7013 36.1911 37.5396C38.9324 37.3359 40.7954 35.8317 41.5771 33.1883C41.8432 32.3035 41.9851 31.3859 41.9987 30.4621C42.0064 29.1183 41.9777 27.753 41.9502 26.4326C41.9217 25.1184 41.8925 23.7602 41.9007 22.4248ZM39.6035 26.7015C39.6179 27.9803 39.6329 29.2594 39.6486 30.5384C39.6608 31.5339 39.4274 32.5173 38.9691 33.4011C38.5516 34.2159 37.9352 34.6995 37.1324 34.8376C36.25 35.0142 35.3549 35.1191 34.4558 35.1519C31.2739 35.1756 28.0382 35.1719 24.9087 35.169C23.7781 35.1677 22.6477 35.1669 21.5173 35.1665C20.3618 35.1665 19.2067 35.1669 18.052 35.1679C15.2621 35.1699 12.3778 35.1723 9.54127 35.1566C8.47572 35.1488 7.41135 35.0845 6.3526 34.964C4.38623 34.7428 2.98942 33.3726 2.61644 31.2991C2.20196 28.9958 2.24946 26.6329 2.2952 24.3484C2.30319 23.9497 2.31089 23.5512 2.31684 23.1529C2.32634 22.4798 2.34064 21.8044 2.35975 21.1269C2.78044 21.2096 3.20681 21.2605 3.63517 21.279C4.65807 21.3132 5.69771 21.3103 6.70337 21.3077C7.18239 21.3066 7.66124 21.305 8.1398 21.3077C8.32573 21.3088 8.50929 21.3194 8.72186 21.3317C8.77888 21.3351 8.83732 21.3384 8.89779 21.3417C8.89779 21.5333 8.89658 21.7198 8.89564 21.9024C8.89329 22.4038 8.89089 22.8773 8.90076 23.3516C8.92191 24.3646 9.34186 24.8472 10.3049 24.9654C11.2152 25.0645 12.1305 25.1109 13.0462 25.1044H13.0786C14.8414 25.1044 15.5067 24.4263 15.5287 22.6132C15.5327 22.2935 15.5316 21.9734 15.5305 21.6472V21.3459H27.3001C27.3001 21.3841 27.3001 21.4219 27.3001 21.459C27.2988 21.6541 27.2976 21.8351 27.3029 22.0149C27.3126 22.3451 27.3223 22.6202 27.3511 22.9055C27.4592 23.9785 27.9307 24.4352 28.9802 24.4819C29.8175 24.5192 30.7145 24.5133 31.6456 24.4627C32.5555 24.4138 33.1066 23.9017 33.2391 22.9817C33.2965 22.5828 33.3214 22.1751 33.3475 21.7439C33.3572 21.5849 33.3673 21.4206 33.3789 21.2494L34.6908 21.2502C35.9843 21.251 37.2499 21.2521 38.5151 21.2459C38.8563 21.2478 39.1973 21.2322 39.5369 21.1989C39.5618 23.048 39.5828 24.8924 39.6035 26.7015ZM18.4563 6.36822C19.5395 6.32826 20.6381 6.31324 21.7163 6.30243C22.8571 6.33047 24.0292 6.35838 25.185 6.37655C25.2815 6.37629 25.3777 6.38636 25.472 6.40662C25.5817 6.52391 25.6523 6.67247 25.6738 6.83169C25.7468 7.14786 25.8419 7.4585 25.9584 7.7613C25.98 7.89773 26.0037 8.03401 26.0295 8.17023H16.2221C16.6183 6.43638 16.6444 6.43528 18.4571 6.36838L18.4563 6.36822ZM31.2123 21.344C31.2063 21.3946 31.2005 21.4448 31.1947 21.4948C31.1722 21.7458 31.1315 21.9947 31.0733 22.2399C31.0343 22.3419 30.9579 22.4253 30.8595 22.4728C30.3863 22.5237 29.9088 22.5463 29.4037 22.5702C29.2697 22.5765 29.1342 22.5829 28.9964 22.59L28.8554 21.344H31.2123ZM13.2526 21.3614V22.8588H10.8237L10.6265 21.4393C11.1372 21.2533 12.3753 21.2154 13.2533 21.3614H13.2526ZM39.3204 18.8755C39.2678 18.8792 39.2153 18.8829 39.1627 18.885C38.8878 18.8963 38.613 18.9096 38.3381 18.9229C37.7414 18.9517 37.1242 18.9814 36.5185 18.9894C33.7019 19.0268 30.8852 19.0615 28.0686 19.0934C25.5546 19.1232 23.0406 19.1539 20.5267 19.1856C15.7066 19.2482 10.8865 19.3141 6.06661 19.3831L2.40969 19.4342C2.44901 18.2669 2.49476 17.1043 2.54003 15.9612C2.56384 15.3617 2.58732 14.7624 2.6104 14.1632C2.69718 11.8816 3.11475 11.3485 5.23949 10.808C6.54812 10.4701 7.89215 10.2885 9.2435 10.2668C12.0484 10.2328 14.9011 10.2375 17.6601 10.2419C19.907 10.2457 22.2309 10.2496 24.5163 10.2324C25.8165 10.2228 27.1351 10.1634 28.411 10.106C29.4256 10.0604 30.4746 10.0133 31.5058 9.99167C32.9199 9.96175 34.3825 9.93102 35.8161 10.08C37.9183 10.2983 38.8864 11.2754 39.1569 13.4522C39.3225 14.6406 39.426 15.8369 39.4672 17.0361C39.4788 17.6443 39.4897 18.254 39.4998 18.8653C39.4398 18.8675 39.3798 18.8717 39.3212 18.8755H39.3204Z" fill="#7B62FE"/>
</svg>
