<svg width="44" height="44" viewBox="0 0 44 44" fill="none" xmlns="http://www.w3.org/2000/svg">
<g clip-path="url(#clip0_1809_103)">
<path d="M9.53335 1.90051e-05H34.4667C35.7193 -0.00248364 36.9601 0.242395 38.1179 0.720604C39.2757 1.19881 40.3276 1.90094 41.2134 2.78669C42.0991 3.67244 42.8012 4.72438 43.2794 5.88214C43.7576 7.03991 44.0025 8.28071 44 9.53335V34.4667C44.0025 35.7193 43.7576 36.9601 43.2794 38.1179C42.8012 39.2757 42.0991 40.3276 41.2134 41.2134C40.3276 42.0991 39.2757 42.8012 38.1179 43.2794C36.9601 43.7576 35.7193 44.0025 34.4667 44H9.53335C8.28071 44.0025 7.03991 43.7576 5.88214 43.2794C4.72438 42.8012 3.67244 42.0991 2.78669 41.2134C1.90094 40.3276 1.19881 39.2757 0.720604 38.1179C0.242395 36.9601 -0.00248364 35.7193 1.90051e-05 34.4667V9.53335C-0.00248461 8.28071 0.242394 7.03991 0.720602 5.88214C1.19881 4.72438 1.90093 3.67244 2.78668 2.78668C3.67244 1.90093 4.72438 1.19881 5.88214 0.720602C7.03991 0.242394 8.28071 -0.00248461 9.53335 1.90051e-05Z" fill="white"/>
<path fill-rule="evenodd" clip-rule="evenodd" d="M26.7668 9.16672C26.7668 9.16672 31.3868 5.28005 35.0901 8.80005C38.2434 11.8067 37.2901 16.39 33.7334 20.3134C30.0668 24.3467 26.7668 25.3 26.7668 25.3C26.7668 25.3 23.4301 24.3467 19.7634 20.3134C16.1701 16.39 15.2168 11.8067 18.4068 8.80005C22.1468 5.28005 26.7668 9.16672 26.7668 9.16672Z" fill="url(#paint0_linear_1809_103)"/>
</g>
<defs>
<linearGradient id="paint0_linear_1809_103" x1="26.7358" y1="7.32695" x2="26.7358" y2="25.2975" gradientUnits="userSpaceOnUse">
<stop stop-color="#FF60AB"/>
<stop offset="1" stop-color="#FF281B"/>
</linearGradient>
<clipPath id="clip0_1809_103">
<rect width="44" height="44" fill="white"/>
</clipPath>
</defs>
</svg>
