<svg width="44" height="44" viewBox="0 0 44 44" fill="none" xmlns="http://www.w3.org/2000/svg">
<path d="M5.5 22C5.49957 18.5877 6.55708 15.2592 8.5269 12.4729C10.4967 9.68662 13.2819 7.57956 16.499 6.44193C19.7161 5.30429 23.2067 5.19205 26.4902 6.12065C29.7737 7.04925 32.6886 8.97302 34.8333 11.627" stroke="#000" stroke-width="4.2" stroke-linecap="round" stroke-linejoin="round"/>
<path d="M35.7513 5.5V12.8333H28.418M38.5013 22C38.5014 25.4121 37.4436 28.7404 35.4736 31.5264C33.5036 34.3124 30.7184 36.4192 27.5014 37.5566C24.2844 38.694 20.794 38.8061 17.5106 37.8774C14.2273 36.9488 11.3126 35.025 9.16797 32.3712" stroke="#000" stroke-width="4.2" stroke-linecap="round" stroke-linejoin="round"/>
<path d="M8.25 38.5V31.1667H15.5833" stroke="#000" stroke-width="4.2" stroke-linecap="round" stroke-linejoin="round"/>
</svg>
