<svg width="40" height="40" viewBox="0 0 40 40" fill="none" xmlns="http://www.w3.org/2000/svg">
<path d="M27.7713 24.2088C27.6674 24.1735 27.5575 24.1591 27.4479 24.1664C27.3384 24.1737 27.2314 24.2026 27.133 24.2514C27.0347 24.3001 26.947 24.3679 26.8749 24.4507C26.8028 24.5335 26.7478 24.6297 26.713 24.7338C26.1921 26.0769 25.2668 27.2249 24.065 28.0191C22.8633 28.8133 21.4444 29.2145 20.0046 29.1671C18.5719 29.2058 17.1623 28.8005 15.9688 28.0069C14.7754 27.2132 13.8565 26.07 13.338 24.7338C13.2673 24.5238 13.116 24.3506 12.9175 24.2521C12.7191 24.1537 12.4896 24.1381 12.2796 24.2088C12.0697 24.2795 11.8964 24.4308 11.798 24.6292C11.6995 24.8277 11.6839 25.0572 11.7546 25.2671C12.4014 26.9233 13.5373 28.3432 15.0111 29.3376C16.485 30.3321 18.2268 30.854 20.0046 30.8338C21.7966 30.8711 23.5568 30.3572 25.0472 29.3617C26.5376 28.3661 27.6863 26.9368 28.338 25.2671C28.3724 25.1605 28.3851 25.048 28.375 24.9364C28.365 24.8247 28.3326 24.7163 28.2797 24.6175C28.2268 24.5187 28.1545 24.4315 28.0671 24.3613C27.9798 24.2911 27.8792 24.2392 27.7713 24.2088Z" fill="#FD7E14"/>
<path d="M37.505 12.5002C37.505 11.8372 37.2416 11.2013 36.7727 10.7325C36.3039 10.2636 35.668 10.0002 35.005 10.0002H34.355C32.7422 7.68973 30.5954 5.80281 28.0971 4.4999C25.5987 3.19698 22.8227 2.5166 20.005 2.5166C17.1873 2.5166 14.4112 3.19698 11.9129 4.4999C9.41452 5.80281 7.26771 7.68973 5.65497 10.0002H5.00497C4.34192 10.0002 3.70604 10.2636 3.2372 10.7325C2.76836 11.2013 2.50497 11.8372 2.50497 12.5002V20.0002C2.39446 24.6415 4.13222 29.1366 7.33597 32.4966C10.5397 35.8567 14.947 37.8064 19.5883 37.9169C24.2296 38.0274 28.7247 36.2896 32.0847 33.0859C35.4447 29.8822 37.3945 25.4749 37.505 20.8336V12.5002ZM20.005 4.16691C22.3552 4.16294 24.6766 4.68474 26.7991 5.69407C28.9216 6.7034 30.7914 8.17471 32.2716 10.0002H7.7383C9.21934 8.17561 11.0893 6.70494 13.2116 5.69569C15.3339 4.68645 17.6549 4.16413 20.005 4.16691ZM4.17163 12.5002C4.17163 12.2792 4.25943 12.0673 4.41571 11.911C4.57199 11.7547 4.78395 11.6669 5.00497 11.6669H35.005C35.226 11.6669 35.4379 11.7547 35.5942 11.911C35.7505 12.0673 35.8383 12.2792 35.8383 12.5002V18.3336C35.8383 18.7756 35.6627 19.1995 35.3501 19.5121C35.0376 19.8246 34.6137 20.0002 34.1716 20.0002H25.005C24.5629 20.0002 24.139 19.8246 23.8265 19.5121C23.5139 19.1995 23.3383 18.7756 23.3383 18.3336V17.5002C23.3383 16.6162 22.9871 15.7683 22.362 15.1432C21.7369 14.5181 20.889 14.1669 20.005 14.1669C19.1209 14.1669 18.2731 14.5181 17.6479 15.1432C17.0228 15.7683 16.6716 16.6162 16.6716 17.5002V18.3336C16.6716 18.7756 16.496 19.1995 16.1835 19.5121C15.8709 19.8246 15.447 20.0002 15.005 20.0002H5.8383C5.39627 20.0002 4.97235 19.8246 4.65979 19.5121C4.34723 19.1995 4.17163 18.7756 4.17163 18.3336V15.0002C4.17582 14.9448 4.17582 14.889 4.17163 14.8336V12.5002ZM20.005 35.8336C16.0183 35.8307 12.1795 34.324 9.25515 31.6144C6.33084 28.9048 4.53631 25.1918 4.22997 21.2169C4.71818 21.5034 5.27231 21.6584 5.8383 21.6669H15.005C15.889 21.6669 16.7369 21.3157 17.362 20.6906C17.9871 20.0655 18.3383 19.2176 18.3383 18.3336V17.5002C18.3383 17.0582 18.5139 16.6343 18.8265 16.3217C19.139 16.0092 19.5629 15.8336 20.005 15.8336C20.447 15.8336 20.8709 16.0092 21.1835 16.3217C21.496 16.6343 21.6716 17.0582 21.6716 17.5002V18.3336C21.6716 19.2176 22.0228 20.0655 22.6479 20.6906C23.2731 21.3157 24.1209 21.6669 25.005 21.6669H34.1716C34.7365 21.6584 35.2899 21.5064 35.78 21.2252C35.4716 25.1986 33.6762 28.9096 30.7521 31.6174C27.828 34.3253 23.9903 35.8308 20.005 35.8336Z" fill="#FD7E14"/>
</svg>
