<svg width="50" height="50" viewBox="0 0 50 50" fill="none" xmlns="http://www.w3.org/2000/svg">
<g clip-path="url(#clip0_6223_1350)">
<path d="M29.167 4.16699C30.2721 4.16699 31.3319 4.60598 32.1133 5.38738C32.8947 6.16878 33.3337 7.22859 33.3337 8.33366V11.2837C37.0128 12.892 39.5837 16.5628 39.5837 20.8337V29.167C39.584 31.1943 38.9928 33.1776 37.8827 34.8739C36.7725 36.5703 35.1916 37.9058 33.3337 38.717V41.667C33.3337 42.7721 32.8947 43.8319 32.1133 44.6133C31.3319 45.3947 30.2721 45.8337 29.167 45.8337H20.8337C19.7286 45.8337 18.6688 45.3947 17.8874 44.6133C17.106 43.8319 16.667 42.7721 16.667 41.667V38.717C14.8091 37.9058 13.2281 36.5703 12.118 34.8739C11.0078 33.1776 10.4167 31.1943 10.417 29.167V20.8337C10.4167 18.8064 11.0078 16.823 12.118 15.1267C13.2281 13.4304 14.8091 12.0948 16.667 11.2837V8.33366C16.667 7.22859 17.106 6.16878 17.8874 5.38738C18.6688 4.60598 19.7286 4.16699 20.8337 4.16699H29.167ZM29.167 39.5837H20.8337V41.667H29.167V39.5837ZM29.167 14.5837H20.8337C19.2395 14.5836 17.7055 15.1927 16.5456 16.2863C15.3857 17.38 14.6876 18.8756 14.5941 20.467L14.5837 20.8337V29.167C14.5836 30.7612 15.1927 32.2951 16.2863 33.455C17.38 34.6149 18.8755 35.3131 20.467 35.4066L20.8337 35.417H29.167C30.7612 35.4171 32.2951 34.808 33.455 33.7143C34.6149 32.6207 35.3131 31.1251 35.4066 29.5337L35.417 29.167V20.8337C35.417 19.1761 34.7585 17.5863 33.5864 16.4142C32.4143 15.2421 30.8246 14.5837 29.167 14.5837ZM25.0003 16.667C25.5529 16.667 26.0828 16.8865 26.4735 17.2772C26.8642 17.6679 27.0837 18.1978 27.0837 18.7503V24.1378L29.492 26.5462C29.8715 26.9391 30.0815 27.4653 30.0767 28.0116C30.072 28.5578 29.8529 29.0803 29.4666 29.4666C29.0803 29.8529 28.5578 30.072 28.0116 30.0767C27.4653 30.0815 26.9391 29.8715 26.5462 29.492L23.5253 26.4732C23.3287 26.2767 23.1735 26.0426 23.069 25.7849C22.9645 25.5273 22.9128 25.2513 22.917 24.9732V18.7503C22.917 18.1978 23.1365 17.6679 23.5272 17.2772C23.9179 16.8865 24.4478 16.667 25.0003 16.667ZM29.167 8.33366H20.8337V10.417H29.167V8.33366Z" fill="#000"/>
</g>
<defs>
<clipPath id="clip0_6223_1350">
<rect width="50" height="50" fill="white"/>
</clipPath>
</defs>
</svg>
