<svg width="40" height="40" viewBox="0 0 40 40" fill="none" xmlns="http://www.w3.org/2000/svg">
<path d="M36.3294 11.6998L34.1127 9.48315C34.3834 9.01336 34.494 8.46833 34.4278 7.93022C34.3617 7.39211 34.1224 6.89008 33.7461 6.49981L33.4961 6.24981C32.6794 5.43314 31.4794 5.34981 30.5127 5.88314L28.2961 3.66648C26.7961 2.16648 24.4127 2.13314 22.8461 3.49981C21.8794 2.74981 20.4127 2.76648 19.5461 3.64981L19.2961 3.89981C18.3294 4.88314 18.3294 6.46648 19.2961 7.43314L24.0461 12.1831L12.1961 24.0331L7.44607 19.2831C6.47941 18.3165 4.87941 18.3165 3.91274 19.2831L3.66274 19.5331C3.19607 19.9998 2.92941 20.6331 2.92941 21.2998C2.92941 21.8831 3.12941 22.4165 3.49607 22.8665C2.14607 24.4331 2.19607 26.7998 3.67941 28.2998L5.89607 30.5165C5.62543 30.9863 5.51485 31.5313 5.58099 32.0694C5.64712 32.6075 5.8864 33.1095 6.26274 33.4998L6.51274 33.7498C6.99607 34.2331 7.64607 34.4831 8.27941 34.4831C8.69607 34.4831 9.11274 34.3331 9.49607 34.1165L11.7127 36.3331C12.4253 37.0488 13.3838 37.466 14.3931 37.5001C15.4025 37.5342 16.3869 37.1824 17.1461 36.5165C17.5961 36.8831 18.1294 37.0831 18.7127 37.0831C19.3794 37.0831 20.0127 36.8165 20.4794 36.3498L20.7294 36.0998C21.6961 35.1165 21.6961 33.5331 20.7294 32.5665L15.9794 27.8165L27.8294 15.9665L32.5794 20.7165C33.0627 21.1998 33.7127 21.4498 34.3461 21.4498C34.9794 21.4498 35.6294 21.1998 36.1127 20.7165L36.3627 20.4665C36.8294 19.9998 37.0961 19.3665 37.0961 18.6998C37.0961 18.1165 36.8961 17.5831 36.5294 17.1331C37.8794 15.5665 37.8294 13.1998 36.3461 11.6998H36.3294ZM12.8794 35.1498L4.84607 27.1165C4.01274 26.2831 3.94607 24.9665 4.64607 24.0498L15.9461 35.3498C15.0294 36.0498 13.7127 35.9831 12.8794 35.1498ZM19.5294 34.9165L19.2794 35.1665C19.2794 35.1665 19.0461 35.3831 18.7627 35.3998C18.3961 35.4331 18.1461 35.1998 18.0961 35.1665L4.82941 21.8998C4.82941 21.8998 4.57941 21.6165 4.57941 21.3165C4.57941 21.1498 4.62941 21.0165 4.64607 20.9831C4.67941 20.8831 4.74607 20.7998 4.82941 20.7331L5.07941 20.4831C5.07941 20.4831 5.21274 20.3665 5.27941 20.3331C5.31274 20.3165 5.46274 20.2331 5.66274 20.2331C5.97941 20.2331 6.19607 20.4331 6.24607 20.4831L19.5294 33.7665C19.8461 34.0831 19.8461 34.6165 19.5294 34.9498V34.9165ZM14.7794 26.6331L13.3461 25.1998L25.1961 13.3498L26.6294 14.7831L14.7794 26.6331ZM35.1627 19.2831L34.9127 19.5331C34.5794 19.8498 34.0627 19.8498 33.7294 19.5331L20.4461 6.24981C20.2935 6.09063 20.2083 5.87865 20.2083 5.65814C20.2083 5.43764 20.2935 5.22566 20.4461 5.06648L20.6961 4.81648C20.6961 4.81648 20.9461 4.56648 21.2794 4.56648C21.6127 4.56648 21.8294 4.76648 21.8627 4.81648L35.1294 18.0831C35.1294 18.0831 35.3794 18.3331 35.3794 18.6665C35.3794 18.9998 35.1794 19.2165 35.1294 19.2498L35.1627 19.2831ZM35.3461 15.9331L24.0461 4.63314C24.9627 3.93314 26.2627 3.99981 27.1127 4.83314L35.1461 12.8665C35.9794 13.6998 36.0461 15.0165 35.3461 15.9331Z" fill="#FD7E14"/>
</svg>
