<svg width="42" height="42" viewBox="0 0 42 42" fill="none" xmlns="http://www.w3.org/2000/svg">
<g clip-path="url(#clip0_14447_782)">
<path d="M0.147409 20.6069C0.147409 16.6731 0.158081 12.7387 0.140624 8.80575C0.135814 7.68777 0.0376696 6.57048 0.00293263 5.45233C-0.0882743 2.49958 1.95516 0.332431 5.1278 0.270547C11.7408 0.141475 18.3532 -0.140031 24.9701 0.0836353C25.6704 0.107328 26.3735 0.0587017 27.0732 0.0892901C27.4972 0.105932 27.9178 0.174473 28.325 0.29334C28.5033 0.344601 28.6604 0.451542 28.773 0.598312C28.8854 0.745083 28.9472 0.923864 28.9494 1.10824C28.9757 1.50837 28.8306 1.86326 28.4684 2.01284C28.0213 2.19517 27.5531 2.32148 27.0748 2.38891C26.6496 2.42891 26.2219 2.42972 25.7967 2.39137C20.2803 2.15657 14.7613 2.18415 9.24332 2.28299C7.75338 2.31722 6.26655 2.43457 4.78987 2.63449C3.86569 2.7549 3.02005 3.16865 2.66199 4.13528C2.50108 4.52403 2.41387 4.93894 2.40474 5.35913C2.44679 6.95998 2.54515 8.55945 2.62442 10.1594C2.65132 10.7033 2.70439 11.2466 2.71045 11.7905C2.76638 16.7529 2.84156 21.7153 2.85527 26.678C2.86382 29.7641 2.76013 32.8502 2.74267 35.9366C2.76355 36.7513 2.82898 37.5645 2.93864 38.3723C2.99565 38.9183 3.30133 39.2522 3.87618 39.3094C4.05788 39.3271 4.23761 39.389 4.41824 39.3892C6.12302 39.3904 7.82834 39.41 9.53241 39.3715C11.6959 39.3222 13.858 39.1714 16.0214 39.1565C21.2962 39.1211 26.5714 39.1254 31.8463 39.1402C33.3392 39.1445 34.8318 39.2428 36.3248 39.2909C36.8763 39.3273 37.4243 39.1777 37.8794 38.8665C38.3348 38.5552 38.6707 38.1002 38.833 37.5758C38.8986 37.3778 38.931 37.1704 38.9294 36.9621C38.9091 35.3609 38.7733 33.7542 38.866 32.1603C39.1877 26.6273 39.1854 21.0908 39.1836 15.5532C39.1836 14.9784 39.1918 14.4029 39.2256 13.8293C39.2406 13.4968 39.2938 13.1672 39.3845 12.8468C39.4319 12.6689 39.534 12.5102 39.6767 12.3927C39.8192 12.2752 39.9952 12.2048 40.1801 12.1913C40.6092 12.1418 41.0043 12.2507 41.1878 12.651C41.3718 13.03 41.4882 13.4377 41.5318 13.8562C41.6666 15.6959 41.76 17.5388 41.8633 19.3809C42.187 25.1626 41.8565 30.9366 41.6852 36.7124C41.6547 37.3161 41.5416 37.9128 41.3488 38.4862C41.1736 39.0845 40.8591 39.6339 40.4311 40.0899C40.0032 40.5459 39.4732 40.8958 38.8843 41.1117C37.7462 41.5505 36.5345 41.7703 35.3137 41.7593C31.3813 41.7494 27.4487 41.7618 23.5163 41.757C22.0225 41.7553 20.5281 41.696 19.0351 41.7217C15.5002 41.7841 11.9661 41.89 8.43153 41.9621C6.9993 41.9913 5.56458 42.0242 4.13395 41.974C1.86002 41.8941 0.417448 40.4062 0.387521 38.1216C0.310744 32.2837 0.259964 26.4454 0.198684 20.6072L0.147409 20.6069Z" fill="#7B62FE"/>
<path d="M16.8021 24.3009C16.8325 24.046 16.887 23.7942 16.965 23.5488C17.4151 22.3432 17.8671 21.1372 18.3712 19.9521C18.5663 19.5239 18.8282 19.127 19.1478 18.7753C24.2995 12.8775 29.5346 7.05196 35.2208 1.62048C35.4529 1.39019 35.7003 1.17468 35.9614 0.975319C36.7007 0.432598 37.4702 0.415393 38.2106 0.961357C38.6614 1.30521 39.0891 1.67648 39.4911 2.07291C40.2004 2.7505 40.8858 3.45095 41.5869 4.13639C42.2116 4.74706 42.0625 5.516 41.5812 6.02475C41.194 6.43448 40.7782 6.81858 40.3686 7.20783C35.6021 11.7382 30.7888 16.2241 26.0952 20.824C24.7592 22.1628 23.2257 23.3038 21.5446 24.2104C20.7235 24.6452 19.8792 25.0391 19.0403 25.4418C18.8243 25.5478 18.5974 25.6316 18.3636 25.6922C17.3491 25.9444 16.7692 25.4956 16.8021 24.3009ZM23.3049 20.8269L35.6639 8.47985L33.7908 5.77275C29.5497 10.1794 25.3763 14.5153 21.1408 18.9163C21.9001 19.5871 22.6251 20.2273 23.3042 20.8269H23.3049ZM35.3227 4.41211L37.5742 6.60418L39.3137 5.11326C38.5631 4.26426 37.8717 3.48204 37.1513 2.66685L35.3227 4.41211ZM20.0504 20.658C19.8227 21.1681 19.6531 21.5483 19.486 21.9232L20.1713 22.6618L21.217 22.0736L20.0504 20.658Z" fill="#7B62FE"/>
</g>
<defs>
<clipPath id="clip0_14447_782">
<rect width="42" height="42" fill="white"/>
</clipPath>
</defs>
</svg>
