<svg width="36" height="42" viewBox="0 0 36 42" fill="none" xmlns="http://www.w3.org/2000/svg">
<path 
    d="M11.6954 29.4665C11.9444 29.9832 12.3068 30.4374 12.7557 30.795C13.2046 31.1525 13.7285 31.4045 14.2883 31.532C17.6372 32.3754 20.8125 31.9183 23.5369 29.7291C25.8019 27.9091 26.5455 25.3089 26.5528 22.5083C26.5368 20.6962 26.115 18.9108 25.3179 17.283C23.6272 17.4963 23.4075 17.4524 22.1594 16.6686C19.5883 18.4446 17.0248 20.2152 14.469 21.9803C14.3712 22.0478 14.2706 22.1115 14.1685 22.1711C13.089 22.8089 12.6033 22.722 11.7794 21.7028C10.7663 22.3994 9.75247 23.1054 8.72785 23.7955C8.36626 24.054 7.98234 24.2797 7.58064 24.4699C6.92332 24.7581 6.41305 24.6052 6.05478 23.9945C5.59023 23.2025 5.18556 22.3758 4.74705 21.5684C4.49125 21.0971 4.5807 20.7231 5.01764 20.4149C6.37349 19.4579 7.7261 18.4997 9.07535 17.5402C9.07749 17.5067 9.07379 17.4732 9.06441 17.441C8.08546 15.7473 8.35358 15.7847 9.57931 14.7207C12.7711 11.9203 16.1168 9.29985 19.6008 6.87162C20.9933 5.91171 22.3298 4.87059 23.6929 3.86802C24.6934 3.13204 25.0027 3.15289 25.9076 4.00456C25.9922 4.08418 26.0874 4.15235 26.1872 4.23352C27.9303 2.96729 29.6692 1.72536 31.3829 0.44976C32.2339 -0.184396 32.7566 -0.17558 33.4296 0.653368C33.8785 1.20656 34.2977 1.78318 34.6855 2.38082C35.3604 3.42156 35.1634 4.15011 34.1391 4.86562C32.7519 5.83402 31.389 6.83745 30.0223 7.83482C29.7406 8.04054 29.4879 8.28581 29.1779 8.55016C29.3576 8.793 29.4868 8.98085 29.6294 9.15726C30.3052 9.99314 30.206 10.6075 29.3083 11.2335C28.726 11.6396 28.1583 12.0661 27.6005 12.4721C27.6604 13.0305 27.7047 13.5268 27.7716 14.0201C27.7879 14.1644 27.8417 14.3019 27.9279 14.4191C29.5268 16.3906 30.3059 18.7093 30.6978 21.1613C31.0972 23.654 30.9958 26.1284 30.0664 28.5201C28.7465 31.9161 26.2089 34.0612 22.935 35.4508C22.6422 35.575 22.3435 35.6854 22.0415 35.8048L23.1741 38.5813C23.476 38.6075 23.9127 38.6333 24.3467 38.6854C25.6902 38.8456 26.4156 40.0626 25.888 41.2903C25.6647 41.8107 25.176 41.8593 24.6857 41.8735C23.2014 41.9169 21.7173 41.9967 20.233 41.9996C17.6785 42.0045 15.1241 41.9637 12.5697 41.9356C12.3613 41.9323 12.1541 41.9032 11.9529 41.8489C11.3121 41.678 11.099 41.2877 11.2757 40.6413C11.5995 39.4501 12.4588 38.736 13.7033 38.6292C13.9973 38.604 14.2925 38.5922 14.5846 38.5745L15.3314 36.7623C13.24 36.4683 11.1645 36.1229 9.40352 34.8761C7.62329 33.6156 6.49436 31.8604 5.69933 29.7649C4.93624 29.7649 4.13961 29.7883 3.34527 29.7565C2.81182 29.7414 2.28106 29.6754 1.76024 29.5591C1.52339 29.5118 1.31033 29.3838 1.15758 29.1968C1.00483 29.01 0.921823 28.7758 0.92278 28.5345C0.90501 28.2943 0.970508 28.0551 1.10823 27.8574C1.24595 27.6595 1.44753 27.515 1.67925 27.4478C2.07122 27.3155 2.4812 27.2437 2.8949 27.2354C6.28206 27.2187 9.66937 27.218 13.0568 27.2329C13.3807 27.2466 13.7012 27.3056 14.0088 27.4081C14.3785 27.5179 14.6925 27.7972 14.6206 28.1753C14.5288 28.5033 14.3316 28.7923 14.0593 28.9973C13.8462 29.1673 13.5119 29.2055 13.2233 29.2575C12.7351 29.3444 12.2392 29.3945 11.6954 29.4665ZM27.8407 9.89809C26.2034 8.60514 25.6039 6.67662 24.3393 5.24127C21.8095 6.61678 10.842 14.9791 10.0622 16.1245L13.3164 20.4435L21.1235 15.0317C20.8708 13.5167 20.6102 11.9842 22.2157 10.9707C23.6571 10.0613 25.1159 9.7477 26.5974 10.9223L27.8407 9.89809ZM26.1931 16.7484C27.3963 18.979 27.7552 19.9351 27.8205 22.5819C27.902 25.8814 26.9017 28.8414 24.1578 30.8647C21.0118 33.1846 17.4178 33.6574 13.6609 32.7516C12.0721 32.369 10.9071 31.2906 9.95267 29.9862C9.80662 29.7869 9.57062 29.5005 9.38706 29.509C8.75874 29.5373 8.09534 29.4629 7.5094 29.7772C7.92081 31.7962 9.70975 33.9178 11.7017 34.6999C13.3159 35.3118 15.0342 35.6034 16.7602 35.5581C18.964 35.5179 21.1298 34.9771 23.0934 33.9766C26.2395 32.4085 28.4087 30.0138 29.0935 26.493C29.6319 23.7223 29.2962 21.0019 28.3223 18.3625C28.0109 17.5183 27.6347 16.6974 27.2629 15.8069L26.1931 16.7484ZM28.4508 7.06379L32.8926 3.4039L32.0079 1.94146C30.3454 3.10171 28.7309 4.22851 27.0675 5.38963C27.427 5.84634 27.7139 6.21854 28.0098 6.58332C28.1378 6.74099 28.2846 6.88409 28.4504 7.06379H28.4508ZM22.2509 12.7858C22.4111 13.4418 22.4802 14.0375 22.7025 14.5701C23.2269 15.8333 24.1734 16.0416 25.2447 15.1899C25.9764 14.6083 26.0891 13.9212 25.6079 12.9757C25.2571 12.2864 24.6392 12.013 23.8191 12.2355C23.3372 12.3658 22.8754 12.5632 22.2502 12.7858H22.2509ZM16.6989 36.8426L16.366 38.237H20.9584C20.792 37.5258 20.6532 36.9331 20.5164 36.3486L16.6989 36.8426ZM12.9215 40.5629C16.689 40.6409 20.4573 40.6824 24.246 40.3061C24.0202 40.1056 23.77 39.9356 23.5166 39.9324C22.8727 39.9239 22.2275 40.025 21.5835 40.0191C19.5103 40.0017 17.4375 39.9552 15.3644 39.9185C14.5043 39.9036 13.653 39.9265 12.9222 40.5629H12.9215ZM9.9825 18.885L6.23474 21.388L7.21261 22.5454C8.43208 21.6735 9.69811 21.0152 10.635 19.8711L9.9825 18.885Z" 
    fill="#000"
/>
</svg>

