<svg width="42" height="42" viewBox="0 0 42 42" fill="none" xmlns="http://www.w3.org/2000/svg">
<path d="M23.971 21.7075C24.4062 23.2578 25.1798 24.5095 26.0135 25.759C26.7218 26.8206 27.5646 27.2049 28.8505 27.1296C30.6848 27.022 30.9689 27.3707 31.1101 29.2098C31.2148 30.5755 31.3117 31.9415 31.4203 33.4162C31.8263 33.4162 32.1794 33.4162 32.5342 33.4162C33.6964 33.4162 34.5905 34.2181 34.6385 35.3174C34.68 36.271 34.8068 37.2215 34.8959 38.1723C34.9681 38.9421 35.089 39.7113 35.1012 40.482C35.1189 41.6456 34.686 42.0294 33.5025 41.9983C30.2119 41.9109 26.922 41.7631 23.6312 41.7452C19.4341 41.7224 15.2363 41.8038 11.0388 41.8402C10.4347 41.8454 9.82987 41.8714 9.22665 41.8493C8.21775 41.8121 7.64719 41.2352 7.70245 40.2421C7.79071 38.6631 7.92753 37.0866 8.05552 35.5099C8.11165 34.8174 8.42204 34.3208 9.17761 34.2009C9.91482 34.0839 10.6506 33.9576 11.5169 33.814C11.5688 33.2412 11.6405 32.5985 11.6823 31.9541C11.7432 31.0002 11.7748 30.0444 11.832 29.0901C11.91 27.7925 12.3775 27.2608 13.6753 27.0812C14.4209 26.9776 15.1785 26.953 15.9316 26.9107C16.2415 26.8933 16.5252 26.8913 16.6946 26.5614C17.4317 25.1252 18.2745 23.7363 18.6957 22.1606C18.7382 21.9496 18.7677 21.7363 18.784 21.5218C18.5589 21.4415 18.3684 21.3656 18.1729 21.305C16.1714 20.6831 14.4015 19.4872 13.0875 17.8689C12.7472 17.4603 12.3627 17.3232 11.8608 17.2373C9.05474 16.7572 6.45491 15.7711 4.21997 13.9806C2.76585 12.8156 1.78377 11.3529 1.46953 9.49109C0.946812 6.38271 3.45801 3.3259 6.63388 3.23943C7.68673 3.21078 8.74118 3.23487 9.82281 3.23487C9.97216 2.64216 10.0827 2.15179 10.2197 1.67036C10.4394 0.89737 10.8114 0.305888 11.766 0.325278C12.1508 0.333489 12.5376 0.172443 12.9244 0.168076C18.6926 0.102278 24.4609 0.0462334 30.2292 0C30.5899 0.00526 30.9489 0.0491332 31.2999 0.130845C32.0973 0.29837 32.5356 0.830996 32.7184 1.59001C32.789 1.88017 32.8403 2.17454 32.9178 2.55186C33.1495 2.55186 33.3802 2.55466 33.6109 2.55186C34.6375 2.53666 35.664 2.50836 36.6906 2.50609C38.9384 2.50103 40.7925 4.19862 40.5844 6.83587C40.1925 11.8034 36.3349 15.6556 32.0353 16.4071C32.0071 16.4173 31.9773 16.4231 31.9471 16.4246C30.8006 16.2483 30.3192 16.9644 29.7649 17.8095C28.431 19.8401 26.5287 21.1585 23.971 21.7075ZM11.9819 1.82377C11.9404 2.07008 11.9089 2.21365 11.8925 2.35916C11.5105 5.90377 11.8711 9.48823 12.9517 12.8888C14.1091 16.6234 16.6388 18.982 20.6797 19.4968C23.2458 19.824 25.5736 19.3485 27.3042 17.2745C27.8576 16.6059 28.323 15.8705 28.6889 15.0858C30.5249 11.1611 31.0261 7.0308 30.4915 2.76023C30.4562 2.47566 30.3717 2.19707 30.2901 1.82377H11.9819ZM9.63869 35.9263C9.77215 37.3285 9.89537 38.6235 10.023 39.9668C10.429 39.9668 10.7246 39.978 11.0195 39.9651C13.4301 39.8603 15.84 39.6816 18.2513 39.6576C22.7476 39.6131 27.2447 39.6576 31.7416 39.6632C32.0004 39.6632 32.2592 39.6379 32.5478 39.6227C32.6839 38.2762 32.8116 37.0132 32.947 35.6748L9.63869 35.9263ZM28.3207 33.476C28.4485 32.045 28.7248 30.7177 28.7267 29.3081C23.7211 29.2042 18.8289 28.7825 13.8146 29.0173C13.9912 30.6483 14.1592 32.1966 14.3278 33.7529L28.3207 33.476ZM9.73493 4.94263C8.61287 5.09862 7.60623 5.25408 6.59539 5.37444C5.57484 5.49672 4.89891 6.05572 4.41732 6.91797C3.62944 8.33032 3.78779 9.70704 4.71743 10.9459C6.28365 13.0343 8.57877 13.9531 11.1449 14.6854C10.0226 11.4763 9.79072 8.28509 9.73493 4.94263ZM31.7125 13.6983C34.393 12.8975 36.1557 11.3589 37.2135 9.08654C37.5948 8.21452 37.8446 7.29182 37.9549 6.34797C38.0785 5.44536 37.6453 4.89805 36.8442 4.77454C35.5961 4.58344 34.3398 4.72216 33.0162 4.70469C33.1848 7.75827 32.7417 10.8147 31.7125 13.6983ZM21.95 21.8993L20.6993 21.835C20.1104 23.5262 19.5476 25.1417 18.9568 26.8379H23.8759L21.95 21.8993Z" fill="#7B62FE"/>
</svg>
