<svg width="70" height="70" viewBox="0 0 70 70" fill="none" xmlns="http://www.w3.org/2000/svg">
<rect width="70" height="70" rx="18" fill="white"/>
<path d="M27.5246 55.7291C27.3214 55.7291 27.1344 55.6207 27.0315 55.4446L22.8071 48.1285H20.3358C18.1817 48.1285 16.4258 46.3753 16.4258 44.2184V29.8544C16.4258 27.7002 18.1789 25.9443 20.3358 25.9443H34.4885C34.8028 25.9443 35.0575 26.199 35.0575 26.5134C35.0575 26.8277 34.8028 27.0824 34.4885 27.0824H20.3386C18.8103 27.0824 17.5666 28.3261 17.5666 29.8544V44.2211C17.5666 45.7494 18.8103 46.9931 20.3386 46.9931H23.1377C23.3409 46.9931 23.5278 47.1015 23.6308 47.2776L27.5273 54.0247L31.4211 47.2776C31.5241 47.1015 31.7111 46.9931 31.9143 46.9931H44.7229C46.2512 46.9931 47.4949 45.7494 47.4949 44.2211V32.2931C47.4949 31.9788 47.7497 31.7241 48.064 31.7241C48.3783 31.7241 48.633 31.9788 48.633 32.2931V44.2211C48.633 46.3753 46.8798 48.1312 44.7229 48.1312H32.2422L28.0178 55.4473C27.9175 55.6207 27.7278 55.7291 27.5246 55.7291Z" fill="#1686FF"/>
<path d="M24.409 39.783C22.8943 39.783 21.6641 38.5528 21.6641 37.0381C21.6641 35.5234 22.8943 34.2932 24.409 34.2932C25.9237 34.2932 27.1539 35.5234 27.1539 37.0381C27.1539 38.5528 25.9237 39.783 24.409 39.783ZM24.409 35.4286C23.5229 35.4286 22.8021 36.1493 22.8021 37.0354C22.8021 37.9215 23.5229 38.6422 24.409 38.6422C25.295 38.6422 26.0158 37.9215 26.0158 37.0354C26.0158 36.1493 25.295 35.4286 24.409 35.4286ZM32.5299 39.783C31.0152 39.783 29.785 38.5528 29.785 37.0381C29.785 35.5234 31.0179 34.2905 32.5299 34.2905C34.0419 34.2905 35.2748 35.5207 35.2748 37.0354C35.2748 38.5501 34.0446 39.783 32.5299 39.783ZM32.5299 35.4286C31.6438 35.4286 30.923 36.1493 30.923 37.0354C30.923 37.9215 31.6438 38.6422 32.5299 38.6422C33.4159 38.6422 34.1367 37.9215 34.1367 37.0354C34.1367 36.1493 33.4159 35.4286 32.5299 35.4286ZM40.6508 39.783C39.1361 39.783 37.9059 38.5528 37.9059 37.0381C37.9059 35.5234 39.1361 34.2932 40.6508 34.2932C42.1655 34.2932 43.3957 35.5234 43.3957 37.0381C43.3957 38.5528 42.1655 39.783 40.6508 39.783ZM40.6508 35.4286C39.7647 35.4286 39.0439 36.1493 39.0439 37.0354C39.0439 37.9215 39.7647 38.6422 40.6508 38.6422C41.5368 38.6422 42.2576 37.9215 42.2576 37.0354C42.2576 36.1493 41.5368 35.4286 40.6508 35.4286ZM51.7171 27.7195H48.9424C48.6281 27.7195 48.3734 27.4648 48.3734 27.1505C48.3734 26.8362 48.6281 26.5815 48.9424 26.5815H51.7171C52.1127 26.5815 52.4324 26.259 52.4324 25.8661C52.4324 25.4705 52.11 25.1508 51.7171 25.1508C51.4028 25.1508 51.1481 24.8961 51.1481 24.5817C51.1481 24.2674 51.4028 24.0127 51.7171 24.0127C52.7386 24.0127 53.5705 24.8446 53.5705 25.8661C53.5732 26.8877 52.7414 27.7195 51.7171 27.7195Z" fill="#1686FF"/>
<path d="M51.4079 30.2911H48.6061C48.2918 30.2911 48.0371 30.0364 48.0371 29.722C48.0371 29.4077 48.2918 29.153 48.6061 29.153H51.4079C51.8036 29.153 52.1233 28.8306 52.1233 28.4376C52.1233 28.0447 51.8009 27.7223 51.4079 27.7223C51.0936 27.7223 50.8389 27.4676 50.8389 27.1533C50.8389 26.8389 51.0936 26.5842 51.4079 26.5842C52.4295 26.5842 53.2614 27.4161 53.2614 28.4376C53.2614 29.4592 52.4295 30.2911 51.4079 30.2911Z" fill="#1686FF"/>
<path d="M45.2043 32.8651C44.6353 32.8651 44.0337 32.8245 43.378 32.7432C42.6707 32.6565 41.9825 32.5589 41.324 32.3123C41.0639 32.2148 40.7984 32.082 40.5138 31.9032C40.4786 31.8815 40.4434 31.8598 40.4082 31.8354C40.2266 31.7216 40.0722 31.6214 39.9096 31.5726C39.8581 31.5563 39.7605 31.559 39.6576 31.5618C39.6196 31.5618 39.5817 31.5645 39.5465 31.5645L38.9612 31.5699H38.9558C38.6442 31.5699 38.3895 31.3179 38.3867 31.0063C38.384 30.6919 38.636 30.4345 38.9504 30.4318L39.5356 30.4264C39.5654 30.4264 39.598 30.4264 39.6278 30.4237C39.8012 30.4183 40.018 30.4129 40.2483 30.486C40.5545 30.5809 40.7984 30.738 41.0151 30.8762C41.0476 30.8979 41.0802 30.9169 41.1154 30.9385C41.3403 31.0794 41.5327 31.177 41.7224 31.2474C42.2643 31.4507 42.855 31.5347 43.5162 31.6159C44.2396 31.7054 44.8818 31.7406 45.4861 31.7243H50.7862C51.1818 31.7243 51.5016 31.4019 51.5016 31.009C51.5016 30.6134 51.1791 30.2936 50.7862 30.2936C50.4719 30.2936 50.2172 30.0389 50.2172 29.7246C50.2172 29.4103 50.4719 29.1556 50.7862 29.1556C51.8078 29.1556 52.6396 29.9874 52.6396 31.009C52.6396 32.0305 51.8078 32.8624 50.7862 32.8624H45.5051C45.4048 32.8651 45.3073 32.8651 45.2043 32.8651ZM51.2225 25.148H49.1116C48.7973 25.148 48.5426 24.8932 48.5426 24.5789C48.5426 24.2646 48.7973 24.0099 49.1116 24.0099H51.2225C51.6181 24.0099 51.9378 23.6874 51.9378 23.2945C51.9378 22.8989 51.6154 22.5792 51.2225 22.5792H45.7896C45.4753 22.5792 45.2205 22.3245 45.2205 22.0101C45.2205 21.5116 45.3235 21.0374 45.5294 20.5984C45.6189 20.406 45.7137 20.219 45.8058 20.0375C45.9874 19.6798 46.1608 19.3384 46.2827 18.9807C46.5808 18.1218 46.8193 16.8943 46.2882 15.8998C46.28 15.889 46.2719 15.8781 46.2638 15.8646C46.1093 15.6559 45.9061 15.5015 45.7137 15.4419C45.4455 15.3606 45.1664 15.4473 45.0336 15.6505C44.9658 15.7562 44.9577 15.9052 44.9685 16.1599C44.9848 16.5691 44.9685 16.9403 44.9171 17.2899C44.8087 18.0188 44.5865 18.6637 44.2559 19.2083C44.2424 19.2625 44.2207 19.314 44.1909 19.3628C44.1692 19.398 44.0229 19.631 43.7736 19.967V19.9698C43.7709 19.9725 43.7709 19.9752 43.7682 19.9752C43.0013 21.0049 41.2563 22.9883 39.0344 23.2783C38.7227 23.3189 38.4382 23.0994 38.3976 22.7878C38.3569 22.4762 38.5764 22.1917 38.888 22.151C40.652 21.9234 42.1342 20.2516 42.8171 19.3492C42.8198 19.3438 42.8252 19.3357 42.8279 19.3303C42.8442 19.3059 42.8685 19.2652 42.9038 19.211C42.9742 19.1027 43.0826 18.932 43.2316 18.707C43.5134 18.2762 43.7031 17.7451 43.7925 17.1273C43.8332 16.8482 43.8467 16.5474 43.8332 16.2087C43.8196 15.8483 43.8251 15.4283 44.0825 15.0327C44.4916 14.4041 45.2991 14.1277 46.0497 14.3553C46.4778 14.4854 46.8789 14.7807 47.1796 15.1872C47.2095 15.2278 47.2338 15.263 47.2582 15.2983C47.2664 15.3091 47.2718 15.3227 47.2799 15.3335C47.8706 16.4147 47.9004 17.8047 47.3639 19.3547C47.2149 19.7855 47.0171 20.1757 46.8247 20.5523C46.7325 20.7339 46.6458 20.9046 46.5645 21.0807C46.5104 21.1972 46.467 21.3192 46.4345 21.4411H51.2279C52.2495 21.4411 53.0813 22.273 53.0813 23.2945C53.0813 24.3161 52.2467 25.148 51.2225 25.148Z" fill="#1686FF"/>
<path d="M38.9537 32.7541H34.4909C34.1766 32.7541 33.9219 32.4994 33.9219 32.185V21.5983C33.9219 21.284 34.1766 21.0293 34.4909 21.0293H38.9537C39.2681 21.0293 39.5228 21.284 39.5228 21.5983V32.185C39.5228 32.4994 39.2681 32.7541 38.9537 32.7541ZM35.0599 31.616H38.3847V22.1674H35.0599V31.616Z" fill="#1686FF"/>
</svg>
