<svg width="44" height="44" viewBox="0 0 60 60" fill="none" xmlns="http://www.w3.org/2000/svg">
<path d="M38 27.375L26.375 15.75C26.9583 15.5 27.5525 15.3125 28.1575 15.1875C28.7625 15.0625 29.3767 15 30 15C32.4583 15 34.5317 15.8442 36.22 17.5325C37.9083 19.2208 38.7517 21.2933 38.75 23.75C38.75 24.375 38.6875 24.99 38.5625 25.595C38.4375 26.2 38.25 26.7933 38 27.375ZM14.625 42.75C16.75 41.125 19.125 39.8433 21.75 38.905C24.375 37.9667 27.125 37.4983 30 37.5C30.75 37.5 31.4692 37.5317 32.1575 37.595C32.8458 37.6583 33.5642 37.7517 34.3125 37.875L28.8125 32.375C26.8542 32.125 25.1775 31.3017 23.7825 29.905C22.3875 28.5083 21.5642 26.8317 21.3125 24.875L14.1875 17.75C12.8542 19.4583 11.8233 21.3442 11.095 23.4075C10.3667 25.4708 10.0017 27.6683 10 30C10 32.4583 10.4067 34.7708 11.22 36.9375C12.0333 39.1042 13.1683 41.0417 14.625 42.75ZM45.75 42.25C47.0833 40.5417 48.125 38.6567 48.875 36.595C49.625 34.5333 50 32.335 50 30C50 24.4583 48.0525 19.7392 44.1575 15.8425C40.2625 11.9458 35.5433 9.99833 30 10C27.6667 10 25.4683 10.375 23.405 11.125C21.3417 11.875 19.4567 12.9167 17.75 14.25L45.75 42.25ZM30 55C26.5833 55 23.3542 54.3433 20.3125 53.03C17.2708 51.7167 14.6142 49.925 12.3425 47.655C10.0725 45.385 8.28084 42.7292 6.9675 39.6875C5.65417 36.6458 4.99834 33.4167 5 30C5 26.5417 5.65667 23.3017 6.97 20.28C8.28334 17.2583 10.075 14.6133 12.345 12.345C14.615 10.0733 17.27 8.28167 20.31 6.97C23.35 5.65833 26.58 5.00167 30 5C33.4583 5 36.6983 5.65667 39.72 6.97C42.7417 8.28333 45.3867 10.075 47.655 12.345C49.9267 14.615 51.7183 17.2608 53.03 20.2825C54.3417 23.3042 54.9983 26.5433 55 30C55 33.4167 54.3433 36.6458 53.03 39.6875C51.7167 42.7292 49.925 45.3858 47.655 47.6575C45.385 49.9275 42.7392 51.7192 39.7175 53.0325C36.6958 54.3458 33.4567 55.0017 30 55ZM30 50C32.2083 50 34.2917 49.6767 36.25 49.03C38.2083 48.3833 40 47.4567 41.625 46.25C40 45.0417 38.2083 44.1142 36.25 43.4675C34.2917 42.8208 32.2083 42.4983 30 42.5C27.7917 42.5 25.7083 42.8233 23.75 43.47C21.7917 44.1167 20 45.0433 18.375 46.25C20 47.4583 21.7917 48.3858 23.75 49.0325C25.7083 49.6792 27.7917 50.0017 30 50Z" fill="#000"/>
</svg>
