<svg width="44" height="44" viewBox="0 0 44 44" fill="none" xmlns="http://www.w3.org/2000/svg">
<g clip-path="url(#clip0_1001_226)">
<path d="M3.89742 1.57141L40.0403 18.0086M40.0403 18.0086L33.2831 20.5543M40.0403 18.0086L37.526 11.22M3.92885 18.8571H8.64314C9.0599 18.8571 9.4596 19.0227 9.7543 19.3174C10.049 19.6121 10.2146 20.0118 10.2146 20.4286V42.4286H2.35742V20.4286C2.35742 20.0118 2.52298 19.6121 2.81768 19.3174C3.11238 19.0227 3.51208 18.8571 3.92885 18.8571ZM19.6431 23.5714H24.3574C24.7742 23.5714 25.1739 23.737 25.4686 24.0317C25.7633 24.3264 25.9288 24.7261 25.9288 25.1428V42.4286H18.0717V25.1428C18.0717 24.7261 18.2373 24.3264 18.532 24.0317C18.8267 23.737 19.2264 23.5714 19.6431 23.5714ZM35.3574 28.2857H40.0717C40.4885 28.2857 40.8882 28.4513 41.1829 28.746C41.4776 29.0407 41.6431 29.4404 41.6431 29.8571V42.4286H33.786V29.8571C33.786 29.4404 33.9516 29.0407 34.2463 28.746C34.541 28.4513 34.9407 28.2857 35.3574 28.2857Z" stroke="#000" stroke-width="4.28571" stroke-linecap="round" stroke-linejoin="round"/>
</g>
<defs>
<clipPath id="clip0_1001_226">
<rect width="44" height="44" fill="white"/>
</clipPath>
</defs>
</svg>
