<svg width="70" height="70" viewBox="0 0 70 70" fill="none" xmlns="http://www.w3.org/2000/svg">
<rect width="70" height="70" rx="18" fill="#F4F5F8"/>
<path d="M35.6562 19.25H31.7188C31.5447 19.25 31.3778 19.1809 31.2547 19.0578C31.1316 18.9347 31.0625 18.7678 31.0625 18.5938C31.0625 18.4197 31.1316 18.2528 31.2547 18.1297C31.3778 18.0066 31.5447 17.9375 31.7188 17.9375H35.6562C35.8303 17.9375 35.9972 18.0066 36.1203 18.1297C36.2434 18.2528 36.3125 18.4197 36.3125 18.5938C36.3125 18.7678 36.2434 18.9347 36.1203 19.0578C35.9972 19.1809 35.8303 19.25 35.6562 19.25ZM40.9062 54.6875H26.4688C25.5988 54.6865 24.7648 54.3404 24.1497 53.7253C23.5346 53.1102 23.1885 52.2762 23.1875 51.4062V42.2188C23.1875 42.0447 23.2566 41.8778 23.3797 41.7547C23.5028 41.6316 23.6697 41.5625 23.8438 41.5625C24.0178 41.5625 24.1847 41.6316 24.3078 41.7547C24.4309 41.8778 24.5 42.0447 24.5 42.2188V51.4062C24.5 52.4917 25.3833 53.375 26.4688 53.375H40.9062C41.9917 53.375 42.875 52.4917 42.875 51.4062V29.0938C42.875 28.9197 42.9441 28.7528 43.0672 28.6297C43.1903 28.5066 43.3572 28.4375 43.5312 28.4375C43.7053 28.4375 43.8722 28.5066 43.9953 28.6297C44.1184 28.7528 44.1875 28.9197 44.1875 29.0938V51.4062C44.1875 53.2149 42.7162 54.6875 40.9062 54.6875Z" fill="#1686FF"/>
<path d="M43.5303 20.5625C43.3563 20.5625 43.1893 20.4934 43.0663 20.3703C42.9432 20.2472 42.8741 20.0803 42.8741 19.9062V18.5938C42.8741 17.5083 41.9907 16.625 40.9053 16.625H26.4678C25.3824 16.625 24.4991 17.5083 24.4991 18.5938V19.9062C24.4991 20.0803 24.4299 20.2472 24.3068 20.3703C24.1838 20.4934 24.0169 20.5625 23.8428 20.5625C23.6688 20.5625 23.5018 20.4934 23.3788 20.3703C23.2557 20.2472 23.1866 20.0803 23.1866 19.9062V18.5938C23.1866 16.7851 24.6579 15.3125 26.4678 15.3125H40.9053C42.7152 15.3125 44.1866 16.7851 44.1866 18.5938V19.9062C44.1866 20.0803 44.1174 20.2472 43.9943 20.3703C43.8713 20.4934 43.7044 20.5625 43.5303 20.5625ZM33.0303 46.8125H27.7803C27.6063 46.8125 27.4393 46.7434 27.3163 46.6203C27.1932 46.4972 27.1241 46.3303 27.1241 46.1562C27.1241 45.9822 27.1932 45.8153 27.3163 45.6922C27.4393 45.5691 27.6063 45.5 27.7803 45.5H33.0303C33.2044 45.5 33.3713 45.5691 33.4943 45.6922C33.6174 45.8153 33.6866 45.9822 33.6866 46.1562C33.6866 46.3303 33.6174 46.4972 33.4943 46.6203C33.3713 46.7434 33.2044 46.8125 33.0303 46.8125ZM36.9678 49.4375H27.7803C27.6063 49.4375 27.4393 49.3684 27.3163 49.2453C27.1932 49.1222 27.1241 48.9553 27.1241 48.7812C27.1241 48.6072 27.1932 48.4403 27.3163 48.3172C27.4393 48.1941 27.6063 48.125 27.7803 48.125H36.9678C37.1419 48.125 37.3088 48.1941 37.4318 48.3172C37.5549 48.4403 37.6241 48.6072 37.6241 48.7812C37.6241 48.9553 37.5549 49.1222 37.4318 49.2453C37.3088 49.3684 37.1419 49.4375 36.9678 49.4375ZM39.5928 44.1875H27.7803C27.6063 44.1875 27.4393 44.1184 27.3163 43.9953C27.1932 43.8722 27.1241 43.7053 27.1241 43.5312C27.1241 43.3572 27.1932 43.1903 27.3163 43.0672C27.4393 42.9441 27.6063 42.875 27.7803 42.875H39.5928C39.7669 42.875 39.9338 42.9441 40.0568 43.0672C40.1799 43.1903 40.2491 43.3572 40.2491 43.5312C40.2491 43.7053 40.1799 43.8722 40.0568 43.9953C39.9338 44.1184 39.7669 44.1875 39.5928 44.1875ZM25.8116 32.375C24.0016 32.375 22.5303 30.9024 22.5303 29.0938C22.5303 27.2851 24.0016 25.8125 25.8116 25.8125C27.6215 25.8125 29.0928 27.2851 29.0928 29.0938C29.0928 30.9024 27.6215 32.375 25.8116 32.375ZM25.8116 27.125C24.7261 27.125 23.8428 28.0083 23.8428 29.0938C23.8428 30.1792 24.7261 31.0625 25.8116 31.0625C26.897 31.0625 27.7803 30.1792 27.7803 29.0938C27.7803 28.0083 26.897 27.125 25.8116 27.125ZM25.8116 40.25C23.5045 40.2476 21.2833 39.3749 19.5916 37.8061C19.5054 37.7265 19.4422 37.6251 19.4085 37.5127C19.3748 37.4003 19.3719 37.2809 19.4 37.1669C19.6431 36.1728 20.2134 35.2892 21.0191 34.6582C21.8249 34.0272 22.8194 33.6853 23.8428 33.6875H27.7803C28.8036 33.6856 29.7979 34.0274 30.6038 34.6581C31.4096 35.2888 31.9804 36.1718 32.2244 37.1656C32.2526 37.2796 32.2496 37.399 32.2159 37.5114C32.1822 37.6238 32.119 37.7251 32.0328 37.8048C30.341 39.3743 28.1193 40.2476 25.8116 40.25ZM20.7886 37.1092C23.6262 39.473 27.9969 39.473 30.8345 37.1092C30.601 36.4883 30.1833 35.9536 29.6375 35.5766C29.0916 35.1996 28.4437 34.9985 27.7803 35H23.8428C23.1795 34.9985 22.5315 35.1996 21.9856 35.5766C21.4398 35.9536 21.0221 36.4883 20.7886 37.1092Z" fill="#1686FF"/>
<path d="M25.8125 40.25C20.7476 40.25 16.625 36.1287 16.625 31.0625C16.625 25.9963 20.7476 21.875 25.8125 21.875C30.8774 21.875 35 25.9963 35 31.0625C35 36.1287 30.8774 40.25 25.8125 40.25ZM25.8125 23.1875C21.4694 23.1875 17.9375 26.7194 17.9375 31.0625C17.9375 35.4056 21.4694 38.9375 25.8125 38.9375C30.1556 38.9375 33.6875 35.4056 33.6875 31.0625C33.6875 26.7194 30.1556 23.1875 25.8125 23.1875ZM45.9463 49.4375H44.8438C44.6697 49.4375 44.5028 49.3684 44.3797 49.2453C44.2566 49.1222 44.1875 48.9553 44.1875 48.7812C44.1875 48.6072 44.2566 48.4403 44.3797 48.3172C44.5028 48.1941 44.6697 48.125 44.8438 48.125H45.4173L45.7389 46.6353C45.7647 46.5147 45.8241 46.4039 45.9103 46.3156C45.9965 46.2274 46.1059 46.1653 46.2258 46.1366C46.8591 45.9813 47.4644 45.7285 48.02 45.3871C48.1248 45.3232 48.2454 45.2899 48.3681 45.2911C48.4908 45.2922 48.6108 45.3278 48.7143 45.3937L50.0137 46.2245L50.8182 45.4134L49.9874 44.1245C49.9208 44.0209 49.8845 43.9006 49.8829 43.7773C49.8813 43.6541 49.9143 43.5329 49.9783 43.4276C50.3197 42.8722 50.5721 42.2668 50.7264 41.6334C50.7552 41.5138 50.817 41.4047 50.9047 41.3184C50.9924 41.2321 51.1025 41.1721 51.2225 41.1451L52.7174 40.8131V39.6883L51.2225 39.3562C51.1025 39.3292 50.9924 39.2692 50.9047 39.1829C50.817 39.0966 50.7552 38.9875 50.7264 38.8679C50.5716 38.2347 50.3192 37.6294 49.9783 37.0737C49.9138 36.9689 49.8803 36.8479 49.8817 36.7248C49.8831 36.6017 49.9193 36.4815 49.9861 36.3781L50.8182 35.0774L50.015 34.2742L48.7143 35.1063C48.6109 35.1725 48.4909 35.2083 48.3681 35.2094C48.2453 35.2106 48.1247 35.1771 48.02 35.1129C47.4642 34.772 46.859 34.5192 46.2258 34.3634C46.1059 34.3347 45.9965 34.2726 45.9103 34.1844C45.8241 34.0961 45.7647 33.9853 45.7389 33.8647L45.4173 32.375H44.8438C44.6697 32.375 44.5028 32.3059 44.3797 32.1828C44.2566 32.0597 44.1875 31.8928 44.1875 31.7188C44.1875 31.5447 44.2566 31.3778 44.3797 31.2547C44.5028 31.1316 44.6697 31.0625 44.8438 31.0625H45.9463C46.0962 31.0628 46.2415 31.1143 46.358 31.2087C46.4745 31.303 46.5553 31.4344 46.5867 31.5809L46.9372 33.1993C47.4176 33.3449 47.8888 33.5418 48.3429 33.7873L49.7525 32.8856C49.8786 32.805 50.0284 32.77 50.1771 32.7862C50.3258 32.8024 50.4645 32.869 50.5702 32.9748L52.1203 34.5236C52.2259 34.6294 52.2922 34.7682 52.3082 34.9169C52.3242 35.0656 52.2889 35.2153 52.2082 35.3413L51.3065 36.7509C51.5519 37.2063 51.7488 37.6775 51.8945 38.1592L53.5154 38.5188C53.6613 38.5511 53.7918 38.6321 53.8853 38.7486C53.9789 38.865 54.0299 39.0099 54.0299 39.1593V41.3381C54.0299 41.4874 53.9789 41.6323 53.8853 41.7488C53.7918 41.8652 53.6613 41.9463 53.5154 41.9786L51.8945 42.3382C51.7464 42.8258 51.5494 43.2972 51.3065 43.7452L52.2069 45.1417C52.2884 45.2672 52.3244 45.4168 52.3089 45.5656C52.2933 45.7144 52.2272 45.8534 52.1216 45.9594L50.5715 47.5213C50.4659 47.6276 50.327 47.6946 50.178 47.7111C50.029 47.7276 49.8788 47.6925 49.7525 47.6118L48.3429 46.7101C47.8951 46.9525 47.4242 47.1495 46.9372 47.2981L46.5867 48.9164C46.5558 49.0635 46.4753 49.1955 46.3587 49.2903C46.2421 49.3852 46.0965 49.4371 45.9463 49.4375Z" fill="#1686FF"/>
<path d="M46.2258 43.883C46.0766 43.8828 45.9318 43.8317 45.8155 43.7382C45.6992 43.6447 45.6182 43.5143 45.5859 43.3686C45.5537 43.2229 45.572 43.0705 45.638 42.9366C45.704 42.8028 45.8136 42.6954 45.9489 42.6322C46.402 42.4201 46.7855 42.0835 47.0547 41.6617C47.3238 41.24 47.4674 40.7503 47.4688 40.25C47.4681 39.8171 47.3606 39.3911 47.1556 39.0099C46.9507 38.6286 46.6548 38.3038 46.2941 38.0645C45.9335 37.8251 45.5193 37.6786 45.0883 37.6378C44.6574 37.5971 44.223 37.6635 43.8239 37.8311C43.744 37.8687 43.6573 37.8897 43.5691 37.893C43.4808 37.8963 43.3928 37.8818 43.3103 37.8502C43.2278 37.8187 43.1525 37.7708 43.089 37.7095C43.0254 37.6482 42.9749 37.5747 42.9404 37.4934C42.9059 37.412 42.8882 37.3246 42.8884 37.2363C42.8885 37.148 42.9064 37.0606 42.9411 36.9794C42.9758 36.8982 43.0266 36.8248 43.0903 36.7636C43.1541 36.7025 43.2295 36.6549 43.3121 36.6236C43.9107 36.3722 44.5621 36.2726 45.2085 36.3335C45.8549 36.3944 46.4762 36.614 47.0174 36.9728C47.5585 37.3316 48.0026 37.8185 48.3103 38.3902C48.618 38.9619 48.7798 39.6007 48.7812 40.25C48.7796 41.0002 48.5644 41.7343 48.1609 42.3667C47.7575 42.9992 47.1823 43.5037 46.5028 43.8213C46.4161 43.8619 46.3215 43.883 46.2258 43.883ZM48.125 27.125H40.25C38.8023 27.125 37.625 25.9477 37.625 24.5C37.625 23.0523 38.8023 21.875 40.25 21.875H48.125C49.5727 21.875 50.75 23.0523 50.75 24.5C50.75 25.9477 49.5727 27.125 48.125 27.125ZM40.25 23.1875C39.9121 23.2026 39.593 23.3475 39.3592 23.592C39.1254 23.8365 38.9949 24.1617 38.9949 24.5C38.9949 24.8383 39.1254 25.1635 39.3592 25.408C39.593 25.6525 39.9121 25.7974 40.25 25.8125H48.125C48.4629 25.7974 48.782 25.6525 49.0158 25.408C49.2496 25.1635 49.3801 24.8383 49.3801 24.5C49.3801 24.1617 49.2496 23.8365 49.0158 23.592C48.782 23.3475 48.4629 23.2026 48.125 23.1875H40.25Z" fill="#1686FF"/>
</svg>
