<svg width="44" height="44" viewBox="0 0 44 44" fill="none" xmlns="http://www.w3.org/2000/svg">
<path d="M40.7221 11.0568L40.7219 11.0588L38.6562 31.6994L33.8845 26.9278L21.9903 15.0335L21.5956 11.071C21.5685 10.7058 21.8525 10.4166 22.184 10.4166H29.334H30.584V9.16665V3.66665C30.584 3.34867 30.8493 3.08331 31.1673 3.08331C31.4853 3.08331 31.7507 3.34867 31.7507 3.66665V9.16665V10.4166H33.0007H40.1507C40.4881 10.4166 40.7576 10.7079 40.7221 11.0568ZM37.966 40.5669L37.9651 40.5678C37.7402 40.7926 37.3854 40.7929 37.159 40.5607L37.1535 40.555L37.1479 40.5494L29.8145 33.2161L28.8219 32.2235L28.8138 32.2337L26.8629 30.2828L23.1962 26.6161L22.8301 26.25H22.3123H3.85065C3.67163 26.25 3.49877 26.1686 3.37868 26.0317C3.26522 25.9024 3.22224 25.7528 3.24574 25.6054C4.06975 21.6072 7.54844 19.0376 11.9553 18.1081L14.2121 17.632L12.5812 16.0011L3.43287 6.85276C3.208 6.6279 3.20776 6.27303 3.43994 6.04665L3.44607 6.04068L3.45211 6.03462C3.50561 5.98101 3.56916 5.93848 3.63912 5.90946C3.70908 5.88044 3.78408 5.8655 3.85982 5.8655C3.93556 5.8655 4.01056 5.88044 4.08052 5.90946C4.15048 5.93848 4.21403 5.98101 4.26753 6.03462L4.26843 6.03553L15.6351 17.4022L21.1163 22.8834L21.1168 22.8839L37.9646 39.7501L37.966 39.7514C38.0196 39.8049 38.0622 39.8685 38.0912 39.9385C38.1202 40.0084 38.1351 40.0834 38.1351 40.1591C38.1351 40.2349 38.1202 40.3099 38.0912 40.3798C38.0622 40.4498 38.0196 40.5134 37.966 40.5669ZM25.979 32.4166H28.669L27.9506 33.3241C27.7923 33.5241 27.6354 33.5833 27.5007 33.5833H3.66732C3.34934 33.5833 3.08398 33.318 3.08398 33C3.08398 32.682 3.34934 32.4166 3.66732 32.4166H25.979ZM28.084 40.3333C28.084 40.6513 27.8186 40.9166 27.5007 40.9166H3.66732C3.34934 40.9166 3.08398 40.6513 3.08398 40.3333C3.08398 40.0153 3.34934 39.75 3.66732 39.75H27.5007C27.8186 39.75 28.084 40.0153 28.084 40.3333Z" fill="#000" stroke="#000" stroke-width="2.5"/>
</svg>
