<svg width="100" height="76" viewBox="0 0 100 76" fill="none" xmlns="http://www.w3.org/2000/svg">
<path d="M48.6085 47.5743L43.7274 46.3739C43.4336 45.4482 43.0567 44.5509 42.6012 43.6931C43.3341 42.4732 44.8743 39.9056 44.8743 39.9056C45.0173 39.6672 45.0765 39.3878 45.0426 39.1118C45.0086 38.8359 44.8834 38.5792 44.6867 38.3826L41.161 34.8568C40.9647 34.6596 40.708 34.534 40.4319 34.5C40.1557 34.466 39.8762 34.5256 39.638 34.6693L35.8443 36.9423C34.9914 36.4909 34.0994 36.1172 33.1794 35.8259L31.979 30.9448C31.9117 30.675 31.7562 30.4355 31.5371 30.2643C31.318 30.0931 31.048 30.0001 30.7699 30H25.7832C25.211 30 24.7119 30.3896 24.5743 30.9447C24.5743 30.9447 23.7428 34.3515 23.3751 35.8246C22.3955 36.1346 21.448 36.5383 20.5457 37.0299L16.6121 34.6693C16.1203 34.3771 15.4945 34.4526 15.0891 34.8568L11.5633 38.3826C11.3667 38.5792 11.2415 38.8359 11.2075 39.1118C11.1735 39.3878 11.2328 39.6672 11.3758 39.9056L13.8083 43.9683C13.4166 44.7411 13.0881 45.5444 12.8259 46.3703L7.94481 47.5743C7.67504 47.6415 7.43549 47.7971 7.26429 48.0161C7.09308 48.2352 7.00005 48.5052 7 48.7832V53.7699C7 54.3422 7.38963 54.8413 7.94473 54.9789L12.827 56.1793C13.1229 57.1179 13.5076 58.0298 13.9739 58.9052L11.7971 62.5332C11.6541 62.7716 11.5948 63.051 11.6288 63.3269C11.6628 63.6029 11.788 63.8596 11.9846 64.0562L15.5104 67.5819C15.9134 67.985 16.5416 68.0616 17.0334 67.7694C17.0334 67.7694 19.4744 66.3061 20.67 65.5902C21.5351 66.0514 22.4406 66.4324 23.3752 66.7285L24.5744 71.6084C24.7119 72.1636 25.211 72.5532 25.7832 72.5532H30.7699C31.048 72.5531 31.318 72.4601 31.537 72.2889C31.7561 72.1177 31.9116 71.8782 31.9789 71.6085L33.1781 66.7286C34.1353 66.4255 35.0615 66.0321 35.9441 65.5537C37.1725 66.2902 39.6379 67.7694 39.6379 67.7694C40.1285 68.0628 40.7567 67.9874 41.1609 67.5819L44.6867 64.0562C44.8833 63.8596 45.0085 63.6029 45.0425 63.3269C45.0765 63.051 45.0172 62.7716 44.8742 62.5332L42.6328 58.7992C43.0747 57.9601 43.441 57.0834 43.7273 56.1793L48.6084 54.9789C48.8782 54.9117 49.1177 54.7562 49.2889 54.5371C49.4601 54.318 49.5532 54.048 49.5532 53.7699V48.7832C49.5531 48.5052 49.4601 48.2352 49.2889 48.0161C49.1177 47.7971 48.8782 47.6416 48.6085 47.5743ZM28.2766 60.0033C23.4652 60.0033 19.5499 56.088 19.5499 51.2766C19.5499 46.4652 23.4652 42.5499 28.2766 42.5499C33.088 42.5499 37.0033 46.4652 37.0033 51.2766C37.0033 56.088 33.088 60.0033 28.2766 60.0033Z" fill="white"/>
<path d="M98.1301 -1.62371L91.0526 -3.36426C90.6265 -4.70658 90.08 -6.00762 89.4196 -7.2515C90.4823 -9.02037 92.7155 -12.7433 92.7155 -12.7433C92.9229 -13.0891 93.0088 -13.4942 92.9596 -13.8943C92.9103 -14.2945 92.7287 -14.6666 92.4436 -14.9517L87.3313 -20.0641C87.0467 -20.35 86.6744 -20.5321 86.274 -20.5814C85.8737 -20.6307 85.4683 -20.5443 85.1229 -20.336L79.6221 -17.0401C78.3853 -17.6947 77.092 -18.2365 75.7579 -18.6589L74.0174 -25.7365C73.9198 -26.1276 73.6943 -26.475 73.3766 -26.7232C73.059 -26.9715 72.6674 -27.1064 72.2643 -27.1064H65.0336C64.2038 -27.1064 63.48 -26.5415 63.2806 -25.7366C63.2806 -25.7366 62.0749 -20.7968 61.5417 -18.6607C60.1213 -18.2112 58.7474 -17.626 57.4391 -16.9131L51.7354 -20.336C51.0222 -20.7597 50.1149 -20.6501 49.527 -20.0641L44.4147 -14.9517C44.1296 -14.6666 43.948 -14.2945 43.8987 -13.8943C43.8495 -13.4942 43.9354 -13.0891 44.1428 -12.7433L47.67 -6.85248C47.1019 -5.73183 46.6255 -4.56705 46.2454 -3.36957L39.1678 -1.62371C38.7767 -1.52621 38.4293 -1.30071 38.1811 -0.983067C37.9328 -0.665422 37.7979 -0.273884 37.7979 0.129259V7.35998C37.7979 8.1897 38.3628 8.9135 39.1677 9.11295L46.2471 10.8535C46.6761 12.2146 47.2338 13.5368 47.91 14.806L44.7537 20.0666C44.5463 20.4123 44.4604 20.8175 44.5096 21.2176C44.5589 21.6178 44.7405 21.9899 45.0256 22.275L50.1379 27.3874C50.7223 27.9717 51.6331 28.0829 52.3463 27.6593C52.3463 27.6593 55.8857 25.5374 57.6193 24.4993C58.8737 25.168 60.1867 25.7205 61.5418 26.1498L63.2807 33.2257C63.48 34.0308 64.2038 34.5957 65.0336 34.5957H72.2643C72.6674 34.5956 73.0589 34.4607 73.3765 34.2125C73.6942 33.9643 73.9197 33.617 74.0172 33.2258L75.7561 26.15C77.144 25.7105 78.487 25.1401 79.7669 24.4464C81.548 25.5144 85.1228 27.6593 85.1228 27.6593C85.8342 28.0847 86.7451 27.9752 87.3312 27.3874L92.4435 22.275C92.7286 21.9899 92.9102 21.6178 92.9595 21.2176C93.0087 20.8175 92.9228 20.4123 92.7154 20.0666L89.4654 14.6524C90.1062 13.4357 90.6373 12.1644 91.0525 10.8535L98.13 9.11295C98.5212 9.01547 98.8685 8.78997 99.1168 8.47232C99.365 8.15467 99.4999 7.76313 99.5 7.35998V0.129259C99.4999 -0.273867 99.365 -0.665392 99.1168 -0.983034C98.8686 -1.30068 98.5213 -1.52619 98.1301 -1.62371ZM68.6489 16.3984C61.6724 16.3984 55.9952 10.7212 55.9952 3.74462C55.9952 -3.23194 61.6724 -8.90914 68.6489 -8.90914C75.6255 -8.90914 81.3027 -3.23194 81.3027 3.74462C81.3027 10.7212 75.6255 16.3984 68.6489 16.3984Z" fill="white"/>
</svg>
