<svg width="135" height="96" viewBox="0 0 135 96" fill="none" xmlns="http://www.w3.org/2000/svg">
<path d="M64.143 64.6291C52.2212 47.7365 43.6278 54.5387 31.6265 53.0227C25.9549 52.0625 15.9417 52.5481 8.02106 64.6291C-25.5704 130.812 97.7425 130.791 64.143 64.6291Z" fill="white"/>
<mask id="mask0_8747_29436" style="mask-type:luminance" maskUnits="userSpaceOnUse" x="2" y="52" width="69" height="63">
<path d="M64.143 64.6291C52.2212 47.7365 43.6278 54.5387 31.6265 53.0227C25.9549 52.0625 15.9417 52.5481 8.02106 64.6291C-25.5704 130.812 97.7425 130.791 64.143 64.6291Z" fill="white"/>
</mask>
<g mask="url(#mask0_8747_29436)">
<path d="M46.8592 57.2056C42.9036 45.6413 26.9799 41.5799 18.2467 50.2723C14.339 54.0021 12.3516 59.415 8.40857 63.1079C-0.659085 68.8407 -1.65239 77.7491 7.98948 83.5128C17.4983 88.2596 29.8723 86.7164 38.2834 80.4132C44.6895 75.2943 50.9074 65.2525 46.8592 57.2056Z" fill="white"/>
</g>
<path d="M36.073 42.0006C34.7679 44.5925 34.0474 50.4285 36.6141 55.4C37.1641 56.4649 38.5448 56.7781 39.5242 56.089C40.3153 55.5326 40.6042 54.4847 40.1896 53.6099C39.1558 51.4314 37.6589 47.2359 39.4426 43.9152C40.6888 41.764 37.2251 39.7182 36.073 42.0006Z" fill="white"/>
<path d="M26.1538 59.0484C25.4877 58.7971 24.8517 58.6593 24.2452 58.6121C23.579 58.3513 22.7916 58.307 21.9101 58.5908C18.425 59.7139 16.5186 61.4907 14.6695 64.6147C13.0652 67.3252 11.4072 70.021 12.2351 73.2997C12.9681 76.2041 15.0297 79.2964 18.3802 78.9979C21.366 78.7311 24.89 76.5563 26.5913 74.1494C29.1389 70.545 31.8901 61.2129 26.1538 59.0484Z" stroke="white" stroke-width="1.0156" stroke-miterlimit="10"/>
<path d="M107.463 14.8946C113.151 13.019 117.933 18.0417 121.301 22.0171C130.579 30.4966 138.503 45.1653 124.358 53.3632C103.511 63.3202 83.7647 51.443 99.1003 28.8254C100.662 23.1668 100.269 17.5943 107.463 14.8946Z" fill="white"/>
<mask id="mask1_8747_29436" style="mask-type:luminance" maskUnits="userSpaceOnUse" x="93" y="14" width="40" height="43">
<path d="M107.464 14.8955C113.152 13.0197 117.934 18.0419 121.302 22.017C130.58 30.4956 138.504 45.1633 124.358 53.3618C103.509 63.3197 83.7626 51.4442 99.1002 28.8264C100.663 23.1679 100.27 17.5956 107.464 14.8955Z" fill="white"/>
</mask>
<g mask="url(#mask1_8747_29436)">
<path d="M104.572 8.19867C111.307 -4.01958 130.018 -5.46151 138.122 6.01831C141.78 10.9761 142.945 17.4474 146.65 22.3708C155.714 30.591 155.071 40.7954 143.088 45.3815C131.456 48.8505 117.844 44.6906 109.63 35.9579C103.437 28.9503 98.4291 16.4466 104.572 8.19867Z" fill="white"/>
</g>
<path d="M110.022 0.173364C110.659 -0.603211 112.037 -0.124495 111.855 0.897321C111.245 2.15245 109.434 2.69505 109.254 4.36513C107.599 8.24731 109.027 12.458 109.312 16.2064C104.752 16.1456 107.13 2.38001 110.022 0.173364Z" fill="white"/>
<path d="M107.093 10.3759C107.188 8.63451 106.598 6.91563 105.745 5.39695C104.194 2.63698 101.734 0.39984 98.8402 -0.881114C95.9467 -2.16207 92.6367 -2.47993 89.7377 -1.66689C91.0291 1.70269 93.3689 4.65896 96.3496 6.68677C99.3303 8.71457 102.939 9.80477 107.093 10.3759Z" fill="white"/>
<path d="M112.458 18.8207C112.818 17.7402 114.123 17.2783 115.04 17.9901C115.648 18.4626 116.142 19.084 116.486 19.7729C116.499 19.7976 116.505 19.8248 116.516 19.8503C116.826 20.1992 117.137 20.5484 117.448 20.8976C117.975 21.4901 118.535 22.0922 118.537 22.9385C118.539 23.9669 117.737 24.6876 116.742 24.7316C115.308 24.7949 114.375 23.54 113.863 22.3687C113.75 22.1096 113.639 21.8497 113.5 21.6027C113.442 21.4988 113.38 21.3969 113.315 21.2977C113.293 21.2652 113.267 21.2208 113.239 21.1831C113.218 21.1614 113.198 21.1391 113.185 21.1245C112.968 20.859 112.73 20.5963 112.581 20.2855C112.359 19.8266 112.294 19.3107 112.458 18.8207Z" stroke="white" stroke-width="1.0156" stroke-miterlimit="10"/>
<path d="M117.989 27.4435C117.973 27.3342 117.951 27.1841 117.953 27.0569C117.953 27.0463 117.954 27.0361 117.955 27.0258C117.967 26.9105 117.99 26.7932 118.013 26.6797C118.017 26.6591 118.021 26.6387 118.028 26.6188C118.031 26.607 118.036 26.5954 118.04 26.5842C118.083 26.4796 118.132 26.3742 118.181 26.2727C118.225 26.1815 118.29 26.11 118.355 26.0304C118.421 25.9479 118.482 25.8629 118.566 25.7967C118.667 25.7151 118.774 25.6354 118.883 25.5639C118.908 25.548 118.933 25.5338 118.958 25.5206C119.031 25.484 119.112 25.4574 119.187 25.4287C119.26 25.4008 119.335 25.3666 119.412 25.3466C119.571 25.3044 119.74 25.2934 119.904 25.2914C120.068 25.2913 120.221 25.3307 120.361 25.4089C120.512 25.4625 120.641 25.55 120.749 25.6719C120.869 25.7888 120.951 25.9259 120.996 26.0839C121.021 26.1361 121.035 26.1911 121.05 26.2462C121.057 26.2581 121.066 26.2709 121.072 26.2821C121.078 26.2934 121.083 26.3048 121.088 26.3163C121.135 26.424 121.179 26.5392 121.216 26.6499C121.223 26.6722 121.231 26.6946 121.235 26.718C121.237 26.7289 121.239 26.7394 121.241 26.7504C121.256 26.8667 121.269 26.9894 121.276 27.1064C121.277 27.1302 121.278 27.1536 121.277 27.1776C121.276 27.1883 121.275 27.1995 121.273 27.2104C121.259 27.3246 121.239 27.445 121.215 27.5575C121.21 27.5788 121.205 27.5997 121.198 27.6206C121.194 27.6326 121.189 27.6442 121.184 27.6559C121.142 27.7593 121.094 27.8682 121.043 27.9673C121.032 27.9883 121.019 28.0075 121.005 28.0261C120.942 28.113 120.865 28.2071 120.794 28.288C120.784 28.299 120.774 28.3092 120.763 28.3192C120.755 28.3269 120.747 28.3337 120.738 28.3406C120.654 28.4088 120.553 28.483 120.462 28.5429C120.44 28.5574 120.417 28.5694 120.393 28.58C120.29 28.625 120.17 28.6719 120.063 28.7065C120.051 28.7104 120.038 28.7142 120.026 28.7176C120.015 28.7202 120.004 28.7224 119.993 28.7242C119.877 28.7426 119.753 28.7518 119.636 28.7607C119.612 28.7626 119.588 28.7636 119.563 28.762C119.552 28.7612 119.541 28.7603 119.529 28.7587C119.415 28.7439 119.294 28.7245 119.181 28.7004C119.159 28.6956 119.137 28.69 119.115 28.6824C119.103 28.6779 119.09 28.673 119.078 28.668C118.974 28.6248 118.867 28.5773 118.766 28.5263C118.744 28.5153 118.723 28.5024 118.704 28.4878C118.654 28.4518 118.604 28.4077 118.559 28.3715C118.513 28.3343 118.454 28.2915 118.408 28.2463C118.357 28.1951 118.314 28.1263 118.273 28.0712C118.231 28.0133 118.175 27.9484 118.142 27.8796C118.115 27.8221 118.092 27.7523 118.072 27.6992C118.051 27.6454 118.02 27.5757 118.002 27.5135C117.996 27.4894 117.992 27.4667 117.989 27.4435Z" stroke="white" stroke-width="1.0156" stroke-miterlimit="10"/>
</svg>
