<svg width="161" height="96" viewBox="0 0 161 96" fill="none" xmlns="http://www.w3.org/2000/svg">
<path d="M89.8761 11.0638L94.2595 17.2396C98.8271 13.9977 105.196 15.125 108.484 19.7577L118.98 34.546C122.268 39.1787 121.231 45.5624 116.663 48.8044L121.046 54.98L157.789 38.1884L160.495 36.2676L120.558 -20.0001L117.852 -18.0793L89.8761 11.0638Z" fill="white"/>
<path d="M0.75 45.7832C0.75 43.5741 2.54086 41.7832 4.75 41.7832H19.6445C21.8537 41.7832 23.6446 43.5741 23.6446 45.7832V104.107H0.75V45.7832Z" fill="white"/>
<path d="M28.1016 61.0469C28.1016 58.8377 29.8924 57.0469 32.1016 57.0469H46.9961C49.2052 57.0469 50.9961 58.8377 50.9961 61.0469V104.108H28.1016V61.0469Z" fill="white"/>
<path d="M55.4375 76.9463C55.4375 74.7371 57.2284 72.9463 59.4375 72.9463H74.332C76.5412 72.9463 78.3321 74.7372 78.3321 76.9463V104.108H55.4375V76.9463Z" fill="white"/>
</svg>
