<svg width="227" height="160" viewBox="0 0 227 160" fill="none" xmlns="http://www.w3.org/2000/svg">
<path d="M48.446 106.239C37.9546 136.391 38.1002 180.508 72.9348 204.027C72.9348 204.027 99.1321 222.344 129.254 232.487C147.131 238.506 166.051 237.807 181.723 230.55C197.395 223.292 208.482 210.087 212.493 193.937C215.098 183.447 218.652 173.056 224.223 163.849C233.919 147.824 241.808 132.235 230.007 113.133C219.47 96.0767 204.42 77.9088 186.796 66.591C174.819 58.8997 160.022 52.7921 146.354 49.2915C76.7025 31.4528 58.9364 76.0886 48.446 106.239Z" fill="#F4F7FA"/>
<path d="M154.69 44.8941C158.258 46.8102 159.595 51.2522 157.675 54.8158L155.363 59.1181C153.451 62.6761 149.007 64.0193 145.442 62.1047L121.777 49.3887C118.212 47.4738 116.878 43.0268 118.79 39.4694L121.099 35.1639C123.02 31.5986 127.46 30.2617 131.02 32.1774L154.69 44.8941Z" fill="#FFB06F"/>
<path d="M156.962 60.665C160.526 62.5824 161.861 67.0269 159.95 70.59L120.649 143.74C118.732 147.306 114.29 148.645 110.723 146.729L70.3855 125.057C66.8189 123.137 65.4791 118.695 67.3982 115.131L106.693 41.9785C108.613 38.4205 113.057 37.078 116.625 38.9934L156.962 60.665Z" fill="#EFA76B"/>
<path d="M148.888 65.1402C151.667 66.6365 152.59 70.3258 150.953 73.3775L117.292 136.028C115.65 139.08 112.066 140.344 109.282 138.851L77.813 121.943C75.0339 120.448 74.106 116.76 75.7479 113.706L109.406 51.0561C111.048 48.0085 114.634 46.7411 117.418 48.2347L148.888 65.1402Z" fill="#FFB06F"/>
<path d="M113.806 123.881C116.334 125.241 117.285 128.401 115.925 130.936C114.563 133.467 111.406 134.421 108.87 133.055L82.2635 118.763C79.729 117.4 78.7822 114.241 80.1401 111.709C81.5039 109.174 84.6556 108.223 87.1944 109.585L113.806 123.881Z" fill="white"/>
<path d="M119.715 112.871C122.249 114.235 123.203 117.388 121.842 119.919C120.479 122.453 117.32 123.404 114.79 122.047L88.1814 107.752C85.6434 106.389 84.6972 103.228 86.0592 100.695C87.4214 98.1634 90.5753 97.2166 93.1102 98.5783L119.715 112.871Z" fill="white"/>
<path d="M125.632 101.859C128.164 103.217 129.116 106.373 127.752 108.91C126.391 111.447 123.234 112.394 120.702 111.034L94.0961 96.7408C91.5563 95.3745 90.6125 92.2242 91.9698 89.6855C93.3343 87.1502 96.4868 86.1976 99.0237 87.5619L125.632 101.859Z" fill="white"/>
<path d="M102.546 100.713L122.326 62.5364L125.759 76.7915L144.705 52.8885L124.392 89.7395L119.817 78.0855L102.546 100.713Z" fill="#FFD56F"/>
</svg>
