<svg width="220" height="178" viewBox="0 0 220 178" fill="none" xmlns="http://www.w3.org/2000/svg">
<path d="M223.168 228.914C250.468 198.975 272.936 148.557 245.716 106.859C245.716 106.859 225.569 74.7791 196.801 50.3571C179.728 35.8625 158.033 28.5915 136.635 30.1919C115.238 31.7922 95.9599 42.1362 83.151 58.8588C74.832 69.7207 65.4935 80.065 54.4871 88.1984C35.3313 102.354 18.4371 116.783 21.9463 143.618C25.0796 167.579 32.7324 194.734 46.8017 215.168C56.3631 229.054 69.9182 242.336 83.5358 252.16C152.935 302.224 195.87 258.854 223.168 228.914Z" fill="#F4F7FA"/>
<path d="M182.783 68.9951C165.552 44.6916 153.131 54.4779 135.785 52.2969C127.588 50.9154 113.115 51.6141 101.667 68.9951C53.1149 164.213 231.347 164.183 182.783 68.9951Z" fill="#F69494"/>
<mask id="mask0_7994_14134" style="mask-type:luminance" maskUnits="userSpaceOnUse" x="93" y="51" width="99" height="90">
<path d="M182.783 68.9951C165.552 44.6916 153.131 54.4779 135.785 52.2969C127.588 50.9154 113.115 51.6141 101.667 68.9951C53.1149 164.213 231.347 164.183 182.783 68.9951Z" fill="white"/>
</mask>
<g mask="url(#mask0_7994_14134)">
<path d="M157.803 58.3149C152.086 41.6771 129.071 35.834 116.448 48.3399C110.8 53.7059 107.928 61.4936 102.228 66.8066C89.1224 75.0544 87.6867 87.871 101.623 96.1633C115.366 102.993 133.251 100.772 145.408 91.7038C154.667 84.3392 163.655 69.892 157.803 58.3149Z" fill="#FF8A8A"/>
</g>
<path d="M142.217 36.4396C140.33 40.1685 139.289 48.5648 142.999 55.7174C143.794 57.2495 145.789 57.7001 147.205 56.7087C148.348 55.9082 148.766 54.4005 148.167 53.142C146.672 50.0078 144.509 43.9717 147.087 39.1941C148.888 36.0992 143.882 33.1559 142.217 36.4396Z" fill="#7A623A"/>
<path d="M127.875 60.9668C126.912 60.6052 125.993 60.4069 125.116 60.3391C124.154 59.9637 123.016 59.9001 121.741 60.3083C116.704 61.9242 113.949 64.4805 111.276 68.975C108.957 72.8746 106.561 76.7531 107.758 81.4702C108.817 85.6488 111.797 90.0976 116.639 89.6682C120.955 89.2844 126.048 86.1556 128.507 82.6927C132.19 77.5069 136.166 64.0808 127.875 60.9668Z" stroke="#FF8080" stroke-width="1.0156" stroke-miterlimit="10"/>
<path d="M81.5647 96.9972C70.1254 98.7794 66.3135 111.626 64.015 121.427C55.5065 144.176 54.7727 176.376 86.3288 178.02C130.966 176.789 154.502 138.982 108.212 113.59C100.546 105.235 96.3195 95.3071 81.5647 96.9972Z" fill="#FCD98A"/>
<mask id="mask1_7994_14134" style="mask-type:luminance" maskUnits="userSpaceOnUse" x="58" y="96" width="76" height="83">
<path d="M81.5582 96.9903C70.1209 98.7704 66.3122 111.618 64.016 121.419C55.5134 144.169 54.7864 176.372 86.3385 178.023C130.97 176.802 154.494 138.995 108.205 113.591C100.538 105.233 96.3106 95.3032 81.5582 96.9903Z" fill="white"/>
</mask>
<g mask="url(#mask1_7994_14134)">
<path d="M80.5894 82.9711C58.2514 67.8853 24.7873 81.875 20.9435 108.752C19.0116 120.498 22.7006 132.653 20.6576 144.382C12.2922 166.499 22.377 183.483 47.031 180.822C70.0974 176.55 89.8587 157.415 96.3095 135.165C100.8 117.662 98.4159 91.7493 80.5894 82.9711Z" fill="#F9CF69"/>
</g>
<path d="M64.2175 74.027C62.4393 73.253 60.488 75.2889 61.6992 76.8845C63.8523 78.5041 67.4446 77.8429 69.2225 80.554C75.4825 85.7681 76.7272 94.2596 79.5334 100.95C87.3248 96.8332 71.1318 75.274 64.2175 74.027Z" fill="#7A623A"/>
<path d="M78.2538 88.9948C76.5582 86.0853 76.062 82.6112 76.1954 79.2492C76.4384 73.1391 78.706 67.1273 82.561 62.3775C86.416 57.6278 91.8352 54.1667 97.5414 53.0116C98.2817 59.9409 96.8533 67.0831 93.505 73.1935C90.1567 79.304 84.9029 84.3555 78.2538 88.9948Z" fill="#8CDA61"/>
<path d="M76.4426 108.171C74.8712 106.631 72.2188 106.986 71.267 109.016C70.6358 110.363 70.332 111.866 70.3448 113.353C70.3452 113.406 70.3573 113.459 70.3611 113.512C70.1338 114.385 69.9068 115.258 69.6789 116.131C69.2928 117.613 68.8571 119.141 69.599 120.597C70.5002 122.366 72.5144 122.898 74.2661 122.098C76.7901 120.945 77.2926 117.968 77.1433 115.505C77.1103 114.96 77.0739 114.415 77.0948 113.869C77.1035 113.639 77.1201 113.41 77.1454 113.182C77.1541 113.107 77.161 113.007 77.1755 112.918C77.1923 112.862 77.2082 112.806 77.2163 112.77C77.3565 112.123 77.5349 111.462 77.5196 110.796C77.4974 109.812 77.1552 108.869 76.4426 108.171Z" stroke="#FFD576" stroke-width="1.0156" stroke-miterlimit="10"/>
<path d="M74.5001 127.843C74.4302 127.642 74.3373 127.364 74.2205 127.148C74.211 127.13 74.2009 127.113 74.19 127.096C74.0683 126.908 73.9246 126.727 73.7865 126.552C73.7617 126.52 73.7354 126.489 73.7072 126.46C73.6903 126.443 73.6728 126.427 73.6546 126.412C73.4898 126.269 73.3126 126.132 73.1388 126C72.9818 125.883 72.8071 125.817 72.6262 125.737C72.4387 125.654 72.2591 125.561 72.0575 125.521C71.8102 125.47 71.5562 125.427 71.3054 125.401C71.2497 125.395 71.194 125.392 71.138 125.392C70.9806 125.393 70.8181 125.419 70.6644 125.435C70.514 125.451 70.3539 125.459 70.2036 125.493C69.8928 125.56 69.5916 125.69 69.3089 125.83C69.0255 125.975 68.7971 126.177 68.624 126.435C68.4121 126.66 68.2667 126.924 68.1881 127.228C68.0845 127.535 68.0628 127.843 68.1248 128.154C68.1269 128.266 68.1522 128.373 68.1746 128.481C68.1726 128.507 68.1689 128.537 68.1682 128.562C68.1675 128.587 68.1684 128.611 68.1701 128.635C68.1849 128.861 68.2109 129.098 68.2437 129.321C68.2505 129.366 68.2581 129.41 68.2707 129.455C68.2766 129.475 68.2823 129.495 68.2898 129.515C68.3652 129.729 68.4512 129.951 68.542 130.158C68.5608 130.2 68.5794 130.241 68.6036 130.281C68.6139 130.299 68.626 130.317 68.6379 130.335C68.7636 130.518 68.9043 130.707 69.0442 130.88C69.0708 130.912 69.0981 130.944 69.1283 130.974C69.146 130.99 69.1643 131.006 69.1834 131.022C69.3477 131.162 69.5251 131.308 69.7015 131.432C69.7386 131.459 69.7779 131.481 69.8175 131.501C70.0033 131.594 70.2189 131.688 70.4124 131.764C70.4387 131.775 70.4646 131.784 70.492 131.791C70.5129 131.797 70.5335 131.802 70.5541 131.806C70.7597 131.849 70.9975 131.888 71.2073 131.911C71.2587 131.916 71.3088 131.916 71.3598 131.913C71.5762 131.9 71.8237 131.875 72.0382 131.841C72.0634 131.836 72.0877 131.832 72.1127 131.827C72.1335 131.822 72.155 131.816 72.1754 131.809C72.3912 131.738 72.6118 131.646 72.8209 131.558C72.8648 131.54 72.9074 131.52 72.9481 131.496C72.9673 131.484 72.9858 131.473 73.0038 131.46C73.1881 131.334 73.3793 131.194 73.5518 131.054C73.5856 131.026 73.6191 130.997 73.6494 130.965C73.6669 130.946 73.6842 130.927 73.7006 130.907C73.8414 130.742 73.9854 130.565 74.1134 130.389C74.1413 130.351 74.1661 130.31 74.187 130.268C74.2408 130.162 74.2885 130.042 74.3339 129.941C74.3803 129.836 74.4451 129.71 74.484 129.592C74.5275 129.459 74.5402 129.304 74.5615 129.173C74.5831 129.037 74.6239 128.875 74.62 128.728C74.6161 128.605 74.5943 128.465 74.582 128.356C74.5701 128.245 74.5619 128.098 74.5385 127.975C74.5271 127.929 74.5141 127.887 74.5001 127.843Z" stroke="#FFD576" stroke-width="1.0156" stroke-miterlimit="10"/>
</svg>
