<svg width="69" height="94" viewBox="0 0 69 94" fill="none" xmlns="http://www.w3.org/2000/svg">
<path d="M41.2915 6.33072C41.2915 6.33072 42.6264 5.06388 42.1591 3.10169L33.0078 10.7021L34.2511 12.1948L41.2914 6.33058L41.2915 6.33072Z" fill="#E5F4D9"/>
<path d="M41.482 6.56062L34.4417 12.4248C34.3148 12.5305 34.1264 12.5135 34.0206 12.3865L32.7773 10.8938C32.7265 10.8328 32.7023 10.7543 32.7093 10.6753C32.7165 10.5965 32.7549 10.5233 32.8157 10.4727L32.8159 10.4725L41.9672 2.87189C42.0469 2.80547 42.1546 2.78565 42.2531 2.81833C42.3509 2.85069 42.4252 2.93177 42.4491 3.0327C42.9505 5.1381 41.5558 6.49119 41.4964 6.54749C41.4919 6.55238 41.4869 6.5565 41.482 6.56062ZM34.2886 11.7741L41.0902 6.1087C41.1834 6.01659 42.0699 5.09944 41.9475 3.66562L33.4282 10.7412L34.2886 11.7741Z" fill="#E5F4D9"/>
<path d="M41.286 6.33266L34.2457 12.1969L33.0024 10.7042L30.5259 7.73107C30.5259 7.73107 29.2397 6.0006 27.0088 7.85884L14.6445 18.1577L16.6793 20.6006L5.06217 34.5428L5.6989 35.3072L13.7706 28.5838L16.927 29.3023L25.2463 22.3726L71.9247 78.4122L80.5432 71.2333L43.4271 26.6737L41.1146 23.8974L33.8646 15.1935L40.7066 9.49451C44.4152 6.40541 42.1535 3.10351 42.1535 3.10351C42.6208 5.06583 41.286 6.33266 41.286 6.33266Z" fill="#E5F4D9"/>
<path d="M80.734 71.4633L72.1154 78.6421C71.9884 78.7479 71.8 78.7306 71.6942 78.6036L25.2072 22.7938L17.1176 29.5321C17.046 29.5917 16.9507 29.6147 16.8598 29.5941L13.8476 28.9083L5.88939 35.5371C5.76236 35.6429 5.57409 35.6258 5.46828 35.4987L4.83155 34.7343C4.7392 34.6234 4.73919 34.4624 4.83139 34.3514L16.2892 20.6006L14.4139 18.3492C14.3082 18.2224 14.3254 18.0341 14.4524 17.9283L26.8167 7.62939C27.6559 6.93035 28.4766 6.623 29.255 6.71555C30.2176 6.83006 30.7434 7.52377 30.7649 7.55289L34.2835 11.7762L41.094 6.10335C41.1282 6.06968 42.2814 4.93553 41.862 3.17309C41.829 3.03344 41.8986 2.88747 42.032 2.83088C42.1635 2.77226 42.3181 2.8161 42.3994 2.93521C42.424 2.97041 44.7703 6.49887 40.8974 9.72482L34.2852 15.2325L80.7723 71.0424C80.878 71.1691 80.861 71.3575 80.734 71.4633ZM71.9624 77.9913L80.1216 71.195L33.6345 15.3851C33.5287 15.2581 33.546 15.0697 33.6729 14.964L40.5148 9.26497C42.5315 7.58519 42.6993 5.87096 42.4713 4.70745C42.2304 5.83366 41.5332 6.5101 41.4914 6.54949L34.4366 12.4265C34.3097 12.5322 34.1213 12.5151 34.0155 12.3881L30.2956 7.92212C30.2822 7.90523 29.8815 7.38782 29.1755 7.3078C28.5686 7.23891 27.9039 7.50136 27.1995 8.08814L15.0649 18.1957L16.9084 20.4088C17.0007 20.5197 17.0007 20.6807 16.9085 20.7917L5.45076 34.5425L5.73669 34.8858L13.5788 28.3537C13.6504 28.294 13.7454 28.271 13.8365 28.2918L16.8487 28.9775L25.0545 22.1425C25.1814 22.0368 25.3698 22.0538 25.4756 22.1809L71.9628 77.9909L71.9624 77.9913Z" fill="#E5F4D9"/>
<path d="M5.69531 35.3066L7.3415 37.283L16.9234 29.3017L13.767 28.5833L5.69531 35.3066Z" fill="#E5F4D9"/>
<path d="M17.1138 29.5316L7.53198 37.5129C7.40496 37.6187 7.21668 37.6015 7.11087 37.4745L5.46469 35.4982C5.35888 35.3711 5.37615 35.183 5.50318 35.0772L13.5749 28.3538C13.6465 28.2942 13.7415 28.2711 13.8326 28.2919L16.9889 29.0103C17.0997 29.0357 17.1867 29.1214 17.2133 29.2322C17.2394 29.3426 17.2013 29.4587 17.1138 29.5316ZM7.37899 36.862L16.2667 29.459L13.8441 28.9076L6.11568 35.3451L7.37913 36.8619L7.37899 36.862Z" fill="#E5F4D9"/>
<path d="M36.7012 18.5981L34.4561 20.4682C34.3292 20.5739 34.1407 20.5567 34.035 20.4298C33.9293 20.3029 33.9466 20.1145 34.0735 20.0088L36.3186 18.1388C36.4456 18.033 36.6339 18.0501 36.7396 18.177C36.8453 18.3039 36.8282 18.4923 36.7012 18.5981Z" fill="#E5F4D9"/>
<path d="M39.8341 22.3615L37.589 24.2315C37.4621 24.3372 37.2737 24.3201 37.1679 24.1931C37.0621 24.0661 37.0794 23.8777 37.2063 23.772L39.4514 21.902C39.5784 21.7962 39.7667 21.8133 39.8725 21.9404C39.9783 22.0674 39.9611 22.2557 39.8341 22.3615Z" fill="#E5F4D9"/>
<path d="M42.9668 26.1235L40.7217 27.9936C40.5948 28.0993 40.4064 28.0822 40.3006 27.9552C40.1948 27.8282 40.2122 27.6399 40.3391 27.5342L42.5842 25.6642C42.7112 25.5584 42.8995 25.5755 43.0052 25.7024C43.111 25.8295 43.0938 26.0177 42.9668 26.1235Z" fill="#E5F4D9"/>
<path d="M46.0996 29.8872L43.8545 31.7572C43.7277 31.8629 43.5392 31.8459 43.4334 31.7189C43.3277 31.592 43.345 31.4036 43.4719 31.2979L45.717 29.4279C45.844 29.322 46.0323 29.3392 46.138 29.4661C46.2437 29.593 46.2266 29.7814 46.0996 29.8872Z" fill="#E5F4D9"/>
<path d="M49.2402 33.6484L46.9952 35.5185C46.8683 35.6242 46.68 35.6073 46.5742 35.4802C46.4684 35.3532 46.4857 35.1648 46.6126 35.0591L48.8576 33.1891C48.9846 33.0833 49.1729 33.1004 49.2787 33.2275C49.3844 33.3544 49.3673 33.5426 49.2402 33.6484Z" fill="#E5F4D9"/>
<path d="M52.3731 37.4102L50.128 39.2802C50.0011 39.3859 49.8127 39.3688 49.7069 39.2418C49.6011 39.1148 49.6185 38.9265 49.7454 38.8208L51.9904 36.9508C52.1175 36.845 52.3057 36.8622 52.4114 36.989C52.5172 37.1161 52.5001 37.3043 52.3731 37.4102Z" fill="#E5F4D9"/>
<path d="M55.4982 41.1735L53.2531 43.0435C53.1262 43.1492 52.9378 43.1322 52.832 43.0051C52.7262 42.8781 52.7435 42.6897 52.8704 42.584L55.1154 40.714C55.2425 40.6082 55.4308 40.6255 55.5365 40.7524C55.6422 40.8793 55.6252 41.0677 55.4982 41.1735Z" fill="#E5F4D9"/>
<path d="M58.6467 44.9344L56.4016 46.8044C56.2748 46.9101 56.0862 46.8929 55.9804 46.7659C55.8747 46.639 55.8919 46.4505 56.0188 46.3448L58.2639 44.4747C58.3909 44.3689 58.5793 44.3862 58.685 44.5131C58.7909 44.6403 58.7737 44.8285 58.6467 44.9344Z" fill="#E5F4D9"/>
<path d="M61.7716 48.6974L59.5265 50.5674C59.3996 50.6731 59.2112 50.6561 59.1054 50.5291C58.9997 50.4022 59.0169 50.2136 59.1438 50.108L61.3889 48.2379C61.5159 48.1321 61.7043 48.1494 61.81 48.2763C61.9159 48.4034 61.8986 48.5916 61.7716 48.6974Z" fill="#E5F4D9"/>
<path d="M64.9045 52.4602L62.6595 54.3303C62.5326 54.436 62.344 54.4188 62.2382 54.2918C62.1327 54.165 62.1497 53.9763 62.2766 53.8706L64.5217 52.0006C64.6487 51.8948 64.8371 51.9121 64.9428 52.039C65.0487 52.1661 65.0316 52.3544 64.9045 52.4602Z" fill="#E5F4D9"/>
<path d="M68.0371 56.2231L65.792 58.0932C65.6652 58.1989 65.4767 58.1818 65.3709 58.0548C65.2652 57.9279 65.2825 57.7395 65.4094 57.6338L67.6545 55.7638C67.7815 55.658 67.9698 55.6751 68.0755 55.802C68.1814 55.9292 68.1641 56.1173 68.0371 56.2231Z" fill="#E5F4D9"/>
<path d="M71.1779 59.9845L68.9328 61.8545C68.8059 61.9602 68.6176 61.9433 68.5118 61.8163C68.406 61.6893 68.4232 61.5008 68.5501 61.3951L70.7951 59.525C70.9221 59.4192 71.1105 59.4365 71.2163 59.5635C71.3221 59.6906 71.3049 59.8787 71.1779 59.9845Z" fill="#E5F4D9"/>
<path d="M30.3665 18.102L28.5 19.6567L74.995 75.4762L76.8615 73.9214L30.3665 18.102Z" fill="#E5F4D9"/>
<path d="M46.0819 15.8491L42.1908 19.0901C42.1908 19.0901 44.0069 21.4842 41.1087 23.8983L43.4212 26.6746L46.98 23.7103L45.2866 21.6975L52.6304 15.5805C52.6304 15.5805 49.7919 12.7589 46.0819 15.8491Z" fill="#E5F4D9"/>
<path d="M47.1798 23.9322C47.1764 23.935 47.1736 23.9373 47.1706 23.9399L43.6118 26.9041C43.4849 27.0098 43.2965 26.9928 43.1907 26.8658L40.8782 24.0895C40.7724 23.9624 40.7897 23.7741 40.9166 23.6684C43.551 21.474 42.0177 19.3589 41.9513 19.2699C41.8561 19.1423 41.8765 18.962 41.9988 18.8601L45.8899 15.619C49.764 12.3921 52.8098 15.3381 52.8399 15.3683C52.9001 15.4276 52.9317 15.5092 52.9281 15.5934C52.9243 15.6771 52.8854 15.7559 52.8207 15.8098L45.7081 21.7343L47.1541 23.4532C47.1773 23.4688 47.1988 23.4881 47.2179 23.5111C47.3238 23.6382 47.3065 23.8266 47.1798 23.9322ZM43.4589 26.2534L46.5571 23.6728L45.0574 21.8899C45.0058 21.8288 44.9809 21.75 44.9882 21.6708C44.9949 21.5914 45.0336 21.5183 45.0945 21.4675L52.1658 15.5775C51.4237 15.0085 49.1461 13.6852 46.2728 16.0786L42.581 19.1537C42.964 19.8431 43.7823 21.8843 41.5251 23.9317L43.4589 26.2534Z" fill="#E5F4D9"/>
<path d="M43.6203 26.9028C43.4934 27.0085 43.305 26.9914 43.1992 26.8644L40.8867 24.0881C40.7809 23.9611 40.7982 23.7727 40.9251 23.667C41.0521 23.5612 41.2404 23.5784 41.3462 23.7054L43.6587 26.4817C43.7645 26.6087 43.7473 26.797 43.6203 26.9028Z" fill="#E5F4D9"/>
<path d="M26.4852 40.7798L16.8984 48.7651L18.5517 50.75L26.6235 44.0266L26.4852 40.7798Z" fill="#E5F4D9"/>
<path d="M26.8141 44.2567L18.7423 50.98C18.6153 51.0858 18.427 51.0687 18.3212 50.9417L16.6679 48.9568C16.5621 48.8298 16.5793 48.6415 16.7063 48.5357L26.2931 40.5503C26.3803 40.4777 26.5014 40.4606 26.6054 40.5067C26.7091 40.5527 26.7783 40.6539 26.7833 40.7676L26.9214 44.0143C26.9254 44.1076 26.8856 44.197 26.8141 44.2567ZM18.5894 50.3292L26.3177 43.8919L26.2116 41.3965L17.3188 48.8038L18.5894 50.3292Z" fill="#E5F4D9"/>
<path d="M30.6133 37.3413L26.4852 40.7798L26.6235 44.0266L18.5517 50.75L19.1815 51.506L34.9939 42.6004L42.6849 43.3208L51.3034 36.142L52.057 29.8102L46.9768 23.7112L30.6133 37.3413Z" fill="#E5F4D9"/>
<path d="M51.4938 36.372L42.8752 43.5509C42.8142 43.6017 42.7354 43.6264 42.6559 43.6189L35.0583 42.9075L19.3275 51.767C19.2017 51.8377 19.0433 51.8085 18.951 51.6977L18.3212 50.9417C18.2154 50.8146 18.2326 50.6264 18.3596 50.5206L26.3175 43.892L26.1855 40.7927C26.1815 40.6994 26.2215 40.61 26.2931 40.5503L46.7847 23.4818C46.9117 23.376 47.1 23.3931 47.2058 23.5202L52.286 29.6192C52.3387 29.6825 52.3629 29.7642 52.3533 29.8459L51.5998 36.1776C51.5904 36.2535 51.5526 36.323 51.4938 36.372ZM42.588 43.0118L51.0196 35.9887L51.744 29.9032L46.9374 24.1326L26.7893 40.9151L26.9213 44.0144C26.9253 44.1077 26.8854 44.197 26.8138 44.2567L18.9717 50.7888L19.2505 51.1235L34.8459 42.3401C34.899 42.3103 34.9601 42.2974 35.0207 42.303L42.588 43.0118Z" fill="#E5F4D9"/>
<path d="M52.257 30.0375L40.0655 40.1925C39.9386 40.2982 39.7502 40.281 39.6445 40.1541C39.5387 40.027 39.5558 39.8388 39.6827 39.7331L51.8743 29.578C52.0013 29.4722 52.1896 29.4894 52.2954 29.6164C52.4012 29.7434 52.3842 29.9316 52.257 30.0375Z" fill="#E5F4D9"/>
<path d="M21.0421 17.3549L16.8702 20.83C16.7431 20.9358 16.5549 20.9186 16.4491 20.7916C16.3433 20.6646 16.3605 20.4765 16.4876 20.3706L20.6595 16.8956C20.7865 16.7898 20.9748 16.8069 21.0805 16.9338C21.1862 17.0607 21.1692 17.2491 21.0421 17.3549Z" fill="#E5F4D9"/>
</svg>
