<svg width="228" height="179" viewBox="0 0 228 179" fill="none" xmlns="http://www.w3.org/2000/svg">
<path d="M53.6467 138.103C58.7743 105.308 80.3322 64.9318 123.347 60.4763C123.347 60.4763 156.003 56.547 188.248 62.0403C207.386 65.3002 224.206 75.232 234.895 89.5819C245.584 103.932 249.227 121.483 245.022 138.259C242.29 149.156 240.467 160.427 241.048 171.605C242.06 191.058 241.644 209.225 221.664 220.943C203.824 231.406 181.351 240.671 159.87 242.393C145.272 243.563 128.885 241.896 114.789 238.394C42.9542 220.545 48.5184 170.898 53.6467 138.103Z" fill="#F4F7FA"/>
<path d="M135.38 79.5831C137.777 75.2187 138.131 70.1738 136.865 65.3584L134.044 54.6236L106.454 60.998L79.2945 69.0114L82.1155 79.7462C83.3809 84.5616 86.4376 88.7101 90.6699 91.3326L108.686 102.499C110.543 103.65 111.172 106.054 110.121 107.969L99.9256 126.549C97.5294 130.914 96.9061 136.029 98.1716 140.845L100.993 151.579L128.583 145.205L155.743 137.192L152.922 126.457C151.656 121.641 148.867 117.422 144.635 114.8L126.753 103.598C124.896 102.447 124.195 100.062 125.247 98.1471L135.38 79.5831Z" fill="#BDD0FB"/>
<path d="M134.258 113.459C134.258 113.459 125.64 110.125 122.299 101.845C121.138 92.9924 127.003 85.8514 127.003 85.8514C141.264 68.9618 130.737 55.4946 130.737 55.4946L106.654 60.9452L83.1173 68.0085C83.1173 68.0085 80.6278 84.8965 101.35 92.5928C101.35 92.5928 110.017 95.9149 113.365 104.193C114.519 113.047 108.605 120.201 108.605 120.201C94.3439 137.09 104.814 150.573 104.814 150.573L128.783 145.152L152.434 138.059C152.434 138.059 154.98 121.156 134.258 113.459Z" fill="url(#paint0_linear_7994_14224)"/>
<path d="M109.954 93.8612C112.021 94.55 113.773 95.8045 115.01 97.5982C115.092 97.7162 115.195 97.9275 115.268 98.0444C115.561 98.5071 116.144 98.8211 116.674 98.682C116.679 98.6807 116.683 98.6794 116.688 98.6781C117.52 98.4597 118.094 97.6135 118.18 96.7583C118.39 94.6733 119.285 92.8012 120.693 91.2488C131.287 79.5637 131.586 70.509 131.586 70.509L129.127 71.1551L128.513 71.3166L93.4775 80.5235L92.8629 80.685L90.4044 81.3311C90.4044 81.3311 95.0604 88.8997 109.954 93.8612Z" fill="#FFECDB"/>
<path d="M130.048 126.14C127.992 125.455 126.181 124.084 124.909 122.33C124.759 122.124 124.608 121.885 124.477 121.68C124.156 121.175 123.541 120.92 122.962 121.072C122.1 121.299 121.468 122.031 121.381 122.918C121.164 125.134 120.273 127.341 118.779 128.991C107.649 141.28 107.396 151.032 107.396 151.032L109.983 150.352L110.63 150.182L147.495 140.494L148.142 140.324L150.729 139.644C150.729 139.644 145.742 131.362 130.048 126.14Z" fill="#FFECDB"/>
<path d="M138.98 52.0843C139.53 54.1783 138.278 56.3219 136.185 56.8722L78.7049 71.9773C76.6109 72.5276 74.4674 71.2761 73.9171 69.1822L73.8404 68.8901C73.2901 66.7961 74.5415 64.6525 76.6355 64.1023L134.115 48.9972C136.209 48.4469 138.353 49.6983 138.903 51.7923L138.98 52.0843Z" fill="#BDD0FB"/>
<path d="M161.845 139.083C162.395 141.177 161.144 143.321 159.05 143.871L101.57 158.976C99.4762 159.527 97.3326 158.275 96.7823 156.181L96.7056 155.889C96.1553 153.795 97.4068 151.652 99.5007 151.101L156.98 135.996C159.074 135.446 161.218 136.697 161.768 138.791L161.845 139.083Z" fill="#BDD0FB"/>
<path d="M200.489 92.4424C200.48 92.4549 200.469 92.4697 200.457 92.4856C200.402 92.5569 200.321 92.6633 200.214 92.8022C199.998 93.0802 199.678 93.4896 199.259 94.0148C198.421 95.0652 197.187 96.5786 195.605 98.4301C192.441 102.133 187.886 107.188 182.32 112.594C171.186 123.408 156.022 135.614 139.878 141.221C123.713 146.838 113.706 148.291 107.747 148.344C104.769 148.371 102.803 148.047 101.586 147.719C100.978 147.556 100.556 147.392 100.289 147.269C100.156 147.208 100.061 147.158 100 147.123C99.982 147.113 99.9667 147.104 99.9545 147.096L96.92 138.529C96.9399 138.538 96.9601 138.55 96.9818 138.56C97.2646 138.69 97.7011 138.859 98.324 139.027C99.5704 139.362 101.563 139.688 104.564 139.661C110.566 139.607 120.607 138.144 136.792 132.522C152.998 126.891 168.201 114.649 179.345 103.825C184.918 98.4115 189.48 93.3499 192.649 89.6415C194.233 87.7872 195.469 86.2712 196.309 85.2185C196.729 84.6921 197.05 84.2808 197.266 84.0017C197.328 83.9217 197.381 83.8521 197.426 83.7941L200.489 92.4424Z" fill="white" stroke="#DDE9FF" stroke-width="0.300214"/>
<path d="M194.543 87.2114L200.191 93.1339" stroke="#8992C8" stroke-width="0.300214" stroke-miterlimit="10"/>
<path d="M192.23 90.0078L195 92.5251" stroke="#8992C8" stroke-width="0.300214" stroke-miterlimit="10"/>
<path d="M189.772 92.7646L192.467 95.2166" stroke="#8992C8" stroke-width="0.300214" stroke-miterlimit="10"/>
<path d="M187.292 95.4976L189.94 97.9061" stroke="#8992C8" stroke-width="0.300214" stroke-miterlimit="10"/>
<path d="M184.765 98.1899L187.409 100.597" stroke="#8992C8" stroke-width="0.300214" stroke-miterlimit="10"/>
<path d="M182.13 100.784L188.503 106.585" stroke="#8992C8" stroke-width="0.300214" stroke-miterlimit="10"/>
<path d="M179.042 103.958L181.723 106.934" stroke="#8992C8" stroke-width="0.300214" stroke-miterlimit="10"/>
<path d="M176.356 106.505L178.948 109.381" stroke="#8992C8" stroke-width="0.300214" stroke-miterlimit="10"/>
<path d="M173.626 108.997L176.176 111.827" stroke="#8992C8" stroke-width="0.300214" stroke-miterlimit="10"/>
<path d="M170.851 111.432L173.409 114.268" stroke="#8992C8" stroke-width="0.300214" stroke-miterlimit="10"/>
<path d="M168.064 113.764L173.738 120.664" stroke="#8992C8" stroke-width="0.300214" stroke-miterlimit="10"/>
<path d="M164.771 116.391L166.999 119.519" stroke="#8992C8" stroke-width="0.300214" stroke-miterlimit="10"/>
<path d="M161.826 118.619L163.985 121.652" stroke="#8992C8" stroke-width="0.300214" stroke-miterlimit="10"/>
<path d="M158.808 120.772L160.951 123.787" stroke="#8992C8" stroke-width="0.300214" stroke-miterlimit="10"/>
<path d="M155.719 122.786L157.947 125.915" stroke="#8992C8" stroke-width="0.300214" stroke-miterlimit="10"/>
<path d="M152.915 124.608L157.972 132.425" stroke="#8992C8" stroke-width="0.300214" stroke-miterlimit="10"/>
<path d="M150.455 126.086L152.256 129.358" stroke="#8992C8" stroke-width="0.300214" stroke-miterlimit="10"/>
<path d="M147.181 127.822L148.82 130.791" stroke="#8992C8" stroke-width="0.300214" stroke-miterlimit="10"/>
<path d="M143.906 129.442L145.707 132.714" stroke="#8992C8" stroke-width="0.300214" stroke-miterlimit="10"/>
<path d="M140.679 130.871L142.244 134.264" stroke="#8992C8" stroke-width="0.300214" stroke-miterlimit="10"/>
<path d="M140.832 141.042L137.756 132.022" stroke="#8992C8" stroke-width="0.300214" stroke-miterlimit="10"/>
<path d="M134.66 133.082L135.866 136.622" stroke="#8992C8" stroke-width="0.300214" stroke-miterlimit="10"/>
<path d="M131.138 134.221L132.344 137.761" stroke="#8992C8" stroke-width="0.300214" stroke-miterlimit="10"/>
<path d="M127.663 135.301L128.683 138.942" stroke="#8992C8" stroke-width="0.300214" stroke-miterlimit="10"/>
<path d="M124.09 136.254L125.097 139.859" stroke="#8992C8" stroke-width="0.300214" stroke-miterlimit="10"/>
<path d="M119.988 137.334L121.38 146.719" stroke="#8992C8" stroke-width="0.300214" stroke-miterlimit="10"/>
<path d="M105.456 139.467L105.952 143.188" stroke="#8992C8" stroke-width="0.300214" stroke-miterlimit="10"/>
<path d="M116.488 138.08L116.984 141.801" stroke="#8992C8" stroke-width="0.300214" stroke-miterlimit="10"/>
<path d="M112.884 138.75L113.38 142.471" stroke="#8992C8" stroke-width="0.300214" stroke-miterlimit="10"/>
<path d="M109.204 139.218L109.7 142.939" stroke="#8992C8" stroke-width="0.300214" stroke-miterlimit="10"/>
<path d="M101.495 139.401L102.504 148.087" stroke="#8992C8" stroke-width="0.300214" stroke-miterlimit="10"/>
<path d="M56.9385 153.361C57.2185 153.367 57.6322 153.373 58.1676 153.376C59.2386 153.381 60.7968 153.37 62.7465 153.307C66.6456 153.18 72.1117 152.842 78.38 151.994C90.9136 150.3 106.67 146.57 119.521 138.424C132.354 130.289 138.953 124.11 142.345 119.957C144.041 117.88 144.936 116.309 145.408 115.252C145.644 114.724 145.773 114.323 145.844 114.053C145.846 114.047 145.847 114.04 145.849 114.033L149.897 120.891C149.896 120.902 149.894 120.916 149.892 120.931C149.881 120.992 149.862 121.086 149.829 121.213C149.762 121.466 149.638 121.851 149.408 122.366C148.949 123.394 148.069 124.943 146.388 127.002C143.023 131.122 136.453 137.281 123.635 145.404C110.838 153.516 94.3015 157.277 80.9525 159.008C74.2799 159.873 68.4075 160.231 64.204 160.372C62.1028 160.443 60.4187 160.46 59.2601 160.459C58.6807 160.458 58.2323 160.453 57.9294 160.448C57.7841 160.446 57.6723 160.443 57.5952 160.441L56.6876 153.355C56.7533 153.356 56.8373 153.359 56.9385 153.361Z" fill="white" stroke="#DDE9FF" stroke-width="0.300214"/>
<path d="M56.7221 153.322L57.5541 160.566" stroke="#8992C8" stroke-width="0.300214" stroke-miterlimit="10"/>
<path d="M59.9004 153.272L60.0501 156.606" stroke="#8992C8" stroke-width="0.300214" stroke-miterlimit="10"/>
<path d="M63.1242 153.099L63.2705 156.349" stroke="#8992C8" stroke-width="0.300214" stroke-miterlimit="10"/>
<path d="M66.3531 152.9L66.4955 156.091" stroke="#8992C8" stroke-width="0.300214" stroke-miterlimit="10"/>
<path d="M69.5816 152.642L69.7251 155.828" stroke="#8992C8" stroke-width="0.300214" stroke-miterlimit="10"/>
<path d="M72.7976 152.261L73.1415 159.94" stroke="#8992C8" stroke-width="0.300214" stroke-miterlimit="10"/>
<path d="M76.6701 151.874L77.1756 155.405" stroke="#8992C8" stroke-width="0.300214" stroke-miterlimit="10"/>
<path d="M79.8772 151.431L80.3656 154.843" stroke="#8992C8" stroke-width="0.300214" stroke-miterlimit="10"/>
<path d="M83.0825 150.923L83.5624 154.279" stroke="#8992C8" stroke-width="0.300214" stroke-miterlimit="10"/>
<path d="M86.2797 150.345L86.7611 153.714" stroke="#8992C8" stroke-width="0.300214" stroke-miterlimit="10"/>
<path d="M89.4043 149.712L90.8791 157.517" stroke="#8992C8" stroke-width="0.300214" stroke-miterlimit="10"/>
<path d="M93.01 148.888L93.8739 152.187" stroke="#8992C8" stroke-width="0.300214" stroke-miterlimit="10"/>
<path d="M96.1576 148.079L96.992 151.276" stroke="#8992C8" stroke-width="0.300214" stroke-miterlimit="10"/>
<path d="M99.292 147.18L100.124 150.362" stroke="#8992C8" stroke-width="0.300214" stroke-miterlimit="10"/>
<path d="M102.387 146.148L103.249 149.449" stroke="#8992C8" stroke-width="0.300214" stroke-miterlimit="10"/>
<path d="M105.178 145.216L107.616 153.107" stroke="#8992C8" stroke-width="0.300214" stroke-miterlimit="10"/>
<path d="M107.547 144.328L108.742 147.412" stroke="#8992C8" stroke-width="0.300214" stroke-miterlimit="10"/>
<path d="M110.549 143.013L111.632 145.813" stroke="#8992C8" stroke-width="0.300214" stroke-miterlimit="10"/>
<path d="M113.466 141.636L114.661 144.721" stroke="#8992C8" stroke-width="0.300214" stroke-miterlimit="10"/>
<path d="M116.23 140.192L117.64 143.177" stroke="#8992C8" stroke-width="0.300214" stroke-miterlimit="10"/>
<path d="M118.645 138.796L123.001 145.979" stroke="#8992C8" stroke-width="0.300214" stroke-miterlimit="10"/>
<path d="M121.09 137.23L122.798 140.05" stroke="#8992C8" stroke-width="0.300214" stroke-miterlimit="10"/>
<path d="M123.819 135.417L125.53 138.236" stroke="#8992C8" stroke-width="0.300214" stroke-miterlimit="10"/>
<path d="M126.485 133.6L128.371 136.345" stroke="#8992C8" stroke-width="0.300214" stroke-miterlimit="10"/>
<path d="M129.13 131.64L130.995 134.356" stroke="#8992C8" stroke-width="0.300214" stroke-miterlimit="10"/>
<path d="M132.151 129.386L137.695 135.6" stroke="#8992C8" stroke-width="0.300214" stroke-miterlimit="10"/>
<path d="M141.706 120.454L143.935 122.879" stroke="#8992C8" stroke-width="0.300214" stroke-miterlimit="10"/>
<path d="M134.606 127.362L136.833 129.788" stroke="#8992C8" stroke-width="0.300214" stroke-miterlimit="10"/>
<path d="M137.076 125.228L139.303 127.654" stroke="#8992C8" stroke-width="0.300214" stroke-miterlimit="10"/>
<path d="M139.445 122.93L141.674 125.355" stroke="#8992C8" stroke-width="0.300214" stroke-miterlimit="10"/>
<path d="M143.873 117.662L149.158 123.216" stroke="#8992C8" stroke-width="0.300214" stroke-miterlimit="10"/>
<defs>
<linearGradient id="paint0_linear_7994_14224" x1="92.7922" y1="109.599" x2="142.781" y2="96.4623" gradientUnits="userSpaceOnUse">
<stop stop-color="#DAE3FE"/>
<stop offset="1" stop-color="#E9EFFD"/>
</linearGradient>
</defs>
</svg>
