<svg width="13" height="22" viewBox="0 0 13 22" fill="none" xmlns="http://www.w3.org/2000/svg">
<path d="M0.601108 0.658395C0.296467 0.963127 0.125329 1.37638 0.125329 1.80727C0.125329 2.23816 0.296467 2.65141 0.601107 2.95614L8.64486 10.9999L0.601107 19.0436C0.3051 19.3501 0.141309 19.7606 0.145011 20.1867C0.148713 20.6127 0.319613 21.0203 0.620901 21.3216C0.922189 21.6229 1.32976 21.7938 1.75583 21.7975C2.1819 21.8012 2.59238 21.6374 2.89886 21.3414L12.0915 12.1488C12.3961 11.844 12.5673 11.4308 12.5673 10.9999C12.5673 10.569 12.3961 10.1558 12.0915 9.85102L2.89886 0.658395C2.59412 0.353754 2.18087 0.182617 1.74998 0.182617C1.31909 0.182617 0.90584 0.353754 0.601108 0.658395Z" fill="#248CE1"/>
</svg>
