<svg width="52" height="52" viewBox="0 0 52 52" fill="none" xmlns="http://www.w3.org/2000/svg">
<g clip-path="url(#clip0_1001_328)" filter="url(#filter0_d_1001_328)">
<path d="M14.2544 21.625L14.2539 21.6256C14.1083 21.7954 14.0273 22.0139 14.0273 22.2406C14.0273 22.9695 14.805 23.4316 15.4452 23.0912L23.1709 18.9748C24.049 18.5071 24.049 17.2429 23.1709 16.7752L15.4452 12.6588L14.2544 21.625ZM14.2544 21.625L17.3481 17.9125L17.3794 17.875M14.2544 21.625L17.3794 17.875M17.3794 17.875L17.3481 17.8375M17.3794 17.875L17.3481 17.8375M17.3481 17.8375L14.2544 14.125L14.2539 14.1244M17.3481 17.8375L14.2539 14.1244M14.2539 14.1244C14.1083 13.9546 14.0273 13.7361 14.0273 13.5094M14.2539 14.1244L14.0273 13.5094M14.0273 13.5094C14.0273 12.7805 14.8049 12.3184 15.4451 12.6587L14.0273 13.5094ZM19.7548 33.565L19.7547 33.565L18.2766 34.2096L18.276 34.2098C17.8735 34.3905 17.3964 34.3496 17.0263 34.1028C16.6557 33.8558 16.4336 33.4443 16.4336 33C16.4336 31.1314 17.5819 29.092 19.2079 27.5687C20.8836 26.0127 23.2504 24.8086 26 24.8086C28.7496 24.8086 31.1163 26.0126 32.792 27.5686C34.418 29.0919 35.5664 31.1314 35.5664 33C35.5664 33.4443 35.3443 33.8558 34.9737 34.1028C34.6045 34.349 34.1357 34.3826 33.723 34.2094C33.7229 34.2094 33.7228 34.2093 33.7227 34.2093L32.2454 33.5651C30.2785 32.7024 28.1478 32.2625 26 32.2625C23.852 32.2625 21.7214 32.7111 19.7548 33.565ZM37.7461 14.1158L37.7456 14.1164L34.6519 17.8289L34.6206 17.8664L34.6519 17.9039L37.7456 21.6164L37.7461 21.617C37.8917 21.7868 37.9727 22.0053 37.9727 22.232C37.9727 22.9609 37.1951 23.423 36.5549 23.0827C36.5549 23.0827 36.5549 23.0826 36.5548 23.0826L28.8291 18.9663C27.951 18.4985 27.951 17.2344 28.8291 16.7666L36.5548 12.6502C36.5549 12.6502 36.5549 12.6502 36.5549 12.6501C37.1951 12.3098 37.9727 12.7719 37.9727 13.5008C37.9727 13.7275 37.8917 13.946 37.7461 14.1158ZM43.9336 22C43.9336 17.2437 42.0442 12.6822 38.681 9.31903C35.3178 5.95583 30.7563 4.06641 26 4.06641C21.2437 4.06641 16.6822 5.95583 13.319 9.31903C9.95583 12.6822 8.06641 17.2437 8.06641 22C8.06641 26.7563 9.95583 31.3178 13.319 34.681C16.6822 38.0442 21.2437 39.9336 26 39.9336C30.7563 39.9336 35.3178 38.0442 38.681 34.681C42.0442 31.3178 43.9336 26.7563 43.9336 22ZM4.05859 22C4.05859 16.1808 6.37027 10.5999 10.4851 6.48508C14.5999 2.37027 20.1808 0.0585938 26 0.0585938C31.8192 0.0585938 37.4001 2.37027 41.5149 6.48508C45.6297 10.5999 47.9414 16.1808 47.9414 22C47.9414 27.8192 45.6297 33.4001 41.5149 37.5149C37.4001 41.6297 31.8192 43.9414 26 43.9414C20.1808 43.9414 14.5999 41.6297 10.4851 37.5149C6.37027 33.4001 4.05859 27.8192 4.05859 22Z" fill="#AD43D7" stroke="#AD43D7" stroke-width="0.117188"/>
</g>
<defs>
<filter id="filter0_d_1001_328" x="0" y="0" width="52" height="52" filterUnits="userSpaceOnUse" color-interpolation-filters="sRGB">
<feFlood flood-opacity="0" result="BackgroundImageFix"/>
<feColorMatrix in="SourceAlpha" type="matrix" values="0 0 0 0 0 0 0 0 0 0 0 0 0 0 0 0 0 0 127 0" result="hardAlpha"/>
<feOffset dy="4"/>
<feGaussianBlur stdDeviation="2"/>
<feComposite in2="hardAlpha" operator="out"/>
<feColorMatrix type="matrix" values="0 0 0 0 0 0 0 0 0 0 0 0 0 0 0 0 0 0 0.25 0"/>
<feBlend mode="normal" in2="BackgroundImageFix" result="effect1_dropShadow_1001_328"/>
<feBlend mode="normal" in="SourceGraphic" in2="effect1_dropShadow_1001_328" result="shape"/>
</filter>
<clipPath id="clip0_1001_328">
<rect width="44" height="44" fill="white" transform="translate(4)"/>
</clipPath>
</defs>
</svg>
