<svg width="40" height="40" viewBox="0 0 40 40" fill="none" xmlns="http://www.w3.org/2000/svg">
<path d="M26.3 13H13.7C12.9839 13 12.2972 13.2766 11.7908 13.7688C11.2845 14.2611 11 14.9288 11 15.625V24.375C11 25.0712 11.2845 25.7389 11.7908 26.2312C12.2972 26.7234 12.9839 27 13.7 27H26.3C27.0161 27 27.7028 26.7234 28.2092 26.2312C28.7155 25.7389 29 25.0712 29 24.375V15.625C29 14.9288 28.7155 14.2611 28.2092 13.7688C27.7028 13.2766 27.0161 13 26.3 13V13ZM25.697 14.75L20 18.9062L14.303 14.75H25.697ZM26.3 25.25H13.7C13.4613 25.25 13.2324 25.1578 13.0636 24.9937C12.8948 24.8296 12.8 24.6071 12.8 24.375V15.8437L19.46 20.7C19.6158 20.8136 19.8053 20.875 20 20.875C20.1947 20.875 20.3842 20.8136 20.54 20.7L27.2 15.8437V24.375C27.2 24.6071 27.1052 24.8296 26.9364 24.9937C26.7676 25.1578 26.5387 25.25 26.3 25.25Z" fill="#FFFFFF"/>
</svg>
