<svg width="44" height="44" viewBox="0 0 60 60" fill="none" xmlns="http://www.w3.org/2000/svg">
<path d="M53.75 28.75V17.5C53.75 16.837 53.4866 16.2011 53.0178 15.7322C52.5489 15.2634 51.913 15 51.25 15H30L23.75 7.5H8.75C8.08696 7.5 7.45107 7.76339 6.98223 8.23223C6.51339 8.70107 6.25 9.33696 6.25 10V50C6.25 50.663 6.51339 51.2989 6.98223 51.7678C7.45107 52.2366 8.08696 52.5 8.75 52.5H27.5" stroke="#AD43D7" stroke-width="5" stroke-linecap="round" stroke-linejoin="round"/>
<path d="M35 38.5C35 37.3337 42.5 35 42.5 35C42.5 35 50 37.3337 50 38.5C50 47.8337 42.5 52.5 42.5 52.5C42.5 52.5 35 47.8337 35 38.5Z" stroke="#AD43D7" stroke-width="5" stroke-linecap="round" stroke-linejoin="round"/>
</svg>
