<svg width="44" height="44" viewBox="0 0 60 60" fill="none" xmlns="http://www.w3.org/2000/svg">
<path d="M7.5 29.9999C7.49941 25.3468 8.94147 20.808 11.6276 17.0084C14.3137 13.2089 18.1117 10.3357 22.4987 8.78435C26.8856 7.23303 31.6455 7.07997 36.123 8.34624C40.6005 9.61252 44.5753 12.2358 47.5 15.8549" stroke="#AD43D7" stroke-width="5" stroke-linecap="round" stroke-linejoin="round"/>
<path d="M48.75 7.5V17.5H38.75M52.5 30C52.5001 34.6529 51.0576 39.1914 48.3713 42.9905C45.685 46.7896 41.887 49.6625 37.5002 51.2135C33.1134 52.7645 28.3536 52.9174 23.8764 51.651C19.3991 50.3847 15.4245 47.7614 12.5 44.1425" stroke="#AD43D7" stroke-width="5" stroke-linecap="round" stroke-linejoin="round"/>
<path d="M11.25 52.5V42.5H21.25" stroke="#AD43D7" stroke-width="5" stroke-linecap="round" stroke-linejoin="round"/>
</svg>
