<svg width="44" height="44" viewBox="0 0 60 60" fill="none" xmlns="http://www.w3.org/2000/svg">
<path d="M32.125 25.25L20 13C20.375 12.875 20.7708 12.76 21.1875 12.655C21.6042 12.55 22.0417 12.4983 22.5 12.5C25.25 12.5 27.6042 13.4792 29.5625 15.4375C31.5208 17.3958 32.5 19.75 32.5 22.5C32.5 22.9583 32.4683 23.4167 32.405 23.875C32.3417 24.3333 32.2483 24.7917 32.125 25.25ZM47.4375 55L42.5 50C42.5 50.7083 42.26 51.3025 41.78 51.7825C41.3 52.2625 40.7067 52.5017 40 52.5H5.00001C4.29168 52.5 3.69751 52.26 3.21751 51.78C2.73751 51.3 2.49834 50.7067 2.50001 50V45.5C2.50001 44.125 2.85418 42.8333 3.56251 41.625C4.27084 40.4167 5.25001 39.5 6.50001 38.875C8.62501 37.7917 11.0208 36.875 13.6875 36.125C16.3542 35.375 19.2917 35 22.5 35C23.5833 35 24.615 35.0525 25.595 35.1575C26.575 35.2625 27.5433 35.3767 28.5 35.5L25 32.125C24.625 32.25 24.2292 32.3442 23.8125 32.4075C23.3958 32.4708 22.9583 32.5017 22.5 32.5C19.75 32.5 17.3958 31.5208 15.4375 29.5625C13.4792 27.6042 12.5 25.25 12.5 22.5C12.5 22.0417 12.5317 21.6042 12.595 21.1875C12.6583 20.7708 12.7517 20.375 12.875 20L5.25001 12.25C4.75001 11.75 4.50001 11.1667 4.50001 10.5C4.50001 9.83333 4.75001 9.25 5.25001 8.75C5.70834 8.29167 6.29168 8.0625 7.00001 8.0625C7.70834 8.0625 8.29168 8.29167 8.75001 8.75L50.9375 51.5625C51.3958 52.0208 51.6358 52.5833 51.6575 53.25C51.6792 53.9167 51.46 54.5 51 55C50.5417 55.5 49.9583 55.7608 49.25 55.7825C48.5417 55.8042 47.9375 55.5433 47.4375 55ZM47.8125 37.8125C47.3542 37.3542 47.1142 36.7708 47.0925 36.0625C47.0708 35.3542 47.29 34.7083 47.75 34.125C49.0417 32.5417 50.0517 30.76 50.78 28.78C51.5083 26.8 51.8733 24.7067 51.875 22.5C51.875 20.3333 51.51 18.2708 50.78 16.3125C50.05 14.3542 49.04 12.5833 47.75 11C47.2917 10.4167 47.0625 9.77083 47.0625 9.0625C47.0625 8.35417 47.3125 7.75 47.8125 7.25C48.3958 6.66667 49.0942 6.375 49.9075 6.375C50.7208 6.375 51.3767 6.66667 51.875 7.25C53.625 9.375 55 11.7292 56 14.3125C57 16.8958 57.5 19.625 57.5 22.5C57.5 25.375 57 28.1042 56 30.6875C55 33.2708 53.625 35.625 51.875 37.75C51.375 38.3333 50.7192 38.6358 49.9075 38.6575C49.0958 38.6792 48.3975 38.3975 47.8125 37.8125ZM39.75 29.75C39.2917 29.2917 39.0308 28.6975 38.9675 27.9675C38.9042 27.2375 39.0817 26.5192 39.5 25.8125C39.7917 25.3125 40.0108 24.7817 40.1575 24.22C40.3042 23.6583 40.3767 23.085 40.375 22.5C40.375 21.9167 40.3025 21.3433 40.1575 20.78C40.0125 20.2167 39.7933 19.6858 39.5 19.1875C39.0833 18.4792 38.9058 17.7608 38.9675 17.0325C39.0292 16.3042 39.29 15.71 39.75 15.25C40.3333 14.6667 41.0417 14.3858 41.875 14.4075C42.7083 14.4292 43.3542 14.7517 43.8125 15.375C44.5208 16.4167 45.0833 17.5317 45.5 18.72C45.9167 19.9083 46.125 21.1683 46.125 22.5C46.125 23.8333 45.9167 25.0942 45.5 26.2825C45.0833 27.4708 44.5208 28.585 43.8125 29.625C43.3542 30.25 42.7083 30.5733 41.875 30.595C41.0417 30.6167 40.3333 30.335 39.75 29.75Z" fill="#AD43D7"/>
</svg>
