<svg width="140" height="150" viewBox="0 0 140 150" fill="none" xmlns="http://www.w3.org/2000/svg">
<path d="M80.6094 77.5268C82.1636 83.0637 84.9263 87.5339 87.9041 91.9965C90.4336 95.7878 93.4435 97.1604 98.036 96.8915C104.587 96.5072 105.602 97.7524 106.106 104.321C106.48 109.198 106.826 114.077 107.214 119.344C108.664 119.344 109.925 119.344 111.192 119.344C115.343 119.344 118.536 122.207 118.708 126.133C118.856 129.539 119.308 132.934 119.627 136.33C119.885 139.079 120.317 141.826 120.36 144.579C120.423 148.734 118.877 150.105 114.65 149.994C102.898 149.682 91.1486 149.154 79.3957 149.09C64.406 149.009 49.414 149.299 34.423 149.429C32.2655 149.448 30.1053 149.541 27.9509 149.462C24.3477 149.329 22.31 147.269 22.5073 143.722C22.8226 138.083 23.3112 132.452 23.7683 126.821C23.9688 124.348 25.0773 122.574 27.7758 122.146C30.4087 121.728 33.0365 121.277 36.1303 120.764C36.3157 118.719 36.5717 116.423 36.7211 114.122C36.9386 110.715 37.0514 107.302 37.2557 103.893C37.5343 99.2591 39.2038 97.36 43.8391 96.7187C46.5016 96.3487 49.2077 96.2607 51.8973 96.1097C53.0038 96.0473 54.017 96.0405 54.6223 94.862C57.2545 89.733 60.2646 84.7726 61.7689 79.1451C61.9208 78.3915 62.026 77.6297 62.0842 76.8636C61.2803 76.5766 60.5999 76.3058 59.9019 76.0894C52.7535 73.8683 46.4324 69.5972 41.7397 63.8176C40.5242 62.3583 39.151 61.8686 37.3585 61.5616C27.337 59.8472 18.0518 56.3253 10.0699 49.9305C4.87663 45.7699 1.3692 40.5461 0.246937 33.8968C-1.61992 22.7954 7.34863 11.8782 18.691 11.5694C22.4512 11.4671 26.2171 11.5531 30.0801 11.5531C30.6135 9.43628 31.0081 7.68498 31.4974 5.96556C32.2824 3.20489 33.6108 1.09246 37.0199 1.16171C38.3943 1.19103 39.7757 0.615868 41.1571 0.600271C61.7579 0.365279 82.359 0.165119 102.96 0C104.248 0.0187857 105.531 0.175476 106.784 0.467303C109.632 1.06561 111.197 2.96784 111.85 5.67861C112.102 6.7149 112.286 7.76621 112.562 9.11379C113.39 9.11379 114.214 9.12377 115.038 9.11379C118.704 9.05951 122.37 8.95845 126.036 8.95034C134.064 8.93224 140.686 14.9951 139.943 24.4138C138.543 42.1552 124.766 55.913 109.411 58.597C109.31 58.6331 109.203 58.654 109.095 58.6593C105.001 58.0298 103.282 60.5872 101.302 63.6055C96.5379 70.8575 89.7439 75.5659 80.6094 77.5268ZM37.791 6.51345C37.6428 7.39313 37.5306 7.90589 37.4719 8.42559C36.1075 21.0849 37.3953 33.8865 41.2548 46.0313C45.3883 59.3693 54.423 67.793 68.8547 69.6316C78.0194 70.8001 86.3329 69.1019 92.5136 61.6946C94.4901 59.3069 96.1521 56.6803 97.4591 53.8779C104.016 39.8611 105.806 25.11 103.897 9.85796C103.771 8.84165 103.469 7.84669 103.178 6.51345H37.791ZM29.4225 128.308C29.8991 133.316 30.3392 137.941 30.795 142.739C32.2452 142.739 33.3006 142.779 34.3541 142.732C42.9634 142.358 51.5702 141.72 60.1819 141.634C76.2402 141.475 92.3011 141.634 108.361 141.654C109.286 141.654 110.21 141.564 111.241 141.51C111.727 136.701 112.183 132.19 112.666 127.41L29.4225 128.308ZM96.1439 119.557C96.6004 114.446 97.5871 109.706 97.594 104.672C79.7166 104.301 62.2448 102.795 44.3366 103.633C44.9671 109.458 45.5673 114.988 46.1694 120.546L96.1439 119.557ZM29.7662 17.6522C25.7589 18.2094 22.1637 18.7646 18.5536 19.1944C14.9088 19.6311 12.4947 21.6276 10.7747 24.707C7.96089 29.7511 8.52643 34.668 11.8466 39.0926C17.4402 46.5511 25.6371 49.8327 34.8018 52.448C30.7938 40.9866 29.9655 29.5896 29.7662 17.6522ZM108.257 48.9223C117.831 46.0625 124.126 40.5674 127.904 32.4519C129.266 29.3376 130.158 26.0422 130.552 22.6713C130.993 19.4477 129.446 17.493 126.585 17.0519C122.127 16.3694 117.641 16.8648 112.913 16.8025C113.516 27.7081 111.933 38.6238 108.257 48.9223ZM73.3916 78.2118L68.9247 77.9822C66.8214 84.022 64.8114 89.7917 62.7014 95.8496H80.2696L73.3916 78.2118Z" fill="black"/>
</svg>
