<svg width="1091" height="483" viewBox="0 0 1091 483" fill="none" xmlns="http://www.w3.org/2000/svg">
<path d="M355.727 314.342C357.299 350.159 341.539 402.313 362.5 423.913C410.644 449.833 655.89 437.266 718.28 423.913C768.193 413.231 760.693 338.036 750.704 301.774C753.651 254.254 733.018 153.873 626.905 132.509C494.264 105.803 444.155 138.792 372.43 188.669C300.706 238.545 353.762 269.571 355.727 314.342Z" fill="#F4F7FE"/>
<path d="M332.7 433.476C275.762 350.209 264.69 229.542 367.136 161.995C433.639 244.956 414.617 365.918 332.7 433.476Z" fill="#EDE1FF"/>
<path d="M568.998 152.5C756.999 152.5 796.499 333.5 780.999 426H338.999C332.499 346 358.999 152.5 568.998 152.5Z" stroke="#9792D5" stroke-dasharray="8 16"/>
<path d="M340.286 437.103C335.906 377.066 366.408 311.503 439.521 307.406C448.927 370.156 402.814 426.84 340.286 437.103Z" fill="#D2EDBC"/>
<path d="M337.7 431.909C213.186 411.078 100.241 311.75 139.662 151.003C272.954 162.297 357.718 291.019 337.7 431.909Z" fill="#E4EDFF"/>
<path d="M854.889 360.644C838.266 369.345 818.572 406.776 811.202 425.245C900.631 467.389 937.631 415.608 941.31 410.168C947.058 401.667 945.698 400.748 934.559 398.17C932.639 397.725 942.308 396.461 945.617 395.738C957.246 393.197 971.858 369.88 976.84 356.896C975.46 358.937 962.491 357.598 963.99 354.648C965.19 352.288 975.049 352.217 979.829 352.476C990.451 343.803 986.777 323.151 983.613 313.909C948.581 295.371 912.931 314.228 900.761 327.25C895.529 332.847 890.77 349.576 886.79 355.46C880.122 365.32 879.247 361.26 879.377 358.87C879.611 354.558 880.232 344.418 879.504 339.632C869.362 344.665 862.028 359.856 859.63 366.823C859.661 362.087 858.193 358.914 854.889 360.644Z" fill="#EDE1FF"/>
<path d="M821.918 421.591C824.456 421.219 826.972 420.796 829.49 420.333C851.965 415.75 875.176 410.458 894.216 396.415C895.618 395.266 897.014 393.964 898.225 392.579C912.626 376.588 919.684 355.25 936.721 342.144C938.772 340.628 940.957 339.285 943.257 338.15C940.901 339.164 938.64 340.403 936.502 341.833C918.633 354.33 910.87 375.748 896.73 391.266C895.603 392.545 894.284 393.773 892.947 394.869C874.644 408.411 851.591 414.371 829.413 419.961C826.922 420.541 824.433 421.088 821.918 421.591Z" fill="white"/>
<path d="M741.645 442.044C731.837 301.521 825.56 170.906 960.643 145.384C974.165 232.314 949.298 413.348 741.645 442.044Z" fill="#D2EDBC"/>
<path d="M802.393 431.508C816.128 423.533 843.125 398.011 841.236 359.725C838.874 311.866 863.823 279.428 871.538 275.321" stroke="#E8F9B9"/>
<path d="M817.469 397.228C823.99 401.005 822.362 411.426 821.174 415.676C804.337 414.272 800.288 402.734 806.88 390.298C807.11 389.865 810.949 393.451 817.469 397.228Z" fill="#E8F9B9" stroke="#E8F9B9"/>
<path d="M852.098 335.906C858.729 336.363 862.43 329.257 863.451 325.647C850.097 318.505 843.134 329.437 842.787 336.055C842.765 336.476 845.467 335.449 852.098 335.906Z" fill="#E8F9B9" stroke="#E8F9B9"/>
<path d="M842.063 300.996C836.007 298.257 836.762 289.061 837.573 285.398C852.717 285.435 853.669 298.361 850.839 304.353C850.66 304.734 848.12 303.735 842.063 300.996Z" fill="#E8F9B9" stroke="#E8F9B9"/>
<path d="M877.976 273.559C883.44 271.562 883.564 263.29 883.173 259.957C870.086 258.866 868.171 270.343 870.11 275.907C870.233 276.261 872.512 275.557 877.976 273.559Z" fill="#E8F9B9" stroke="#E8F9B9"/>
<path d="M865.78 294.907C870.605 297.802 876.642 292.845 878.801 290.515C871.477 279.993 862.021 285.559 859.214 290.417C859.035 290.725 860.955 292.012 865.78 294.907Z" fill="#E8F9B9" stroke="#E8F9B9"/>
<path d="M850.395 384.891C845.861 383.624 840.483 385.38 838.36 386.416C844.322 363.765 858.433 362.137 864.742 364.154C866.291 364.078 869.244 364.77 868.666 368.152C867.943 372.38 856.063 386.474 850.395 384.891Z" fill="#E8F9B9" stroke="#E8F9B9"/>
<path d="M831.419 354.836C835.027 354.234 838.981 356.141 840.507 357.169C838.196 338.399 830.159 336.517 825.198 336.761C821.945 336.922 818.551 338.487 818.343 339.429C817.204 344.609 826.909 355.59 831.419 354.836Z" fill="#E8F9B9" stroke="#E8F9B9"/>
<path d="M748.548 438.832C701.192 356.69 703.215 243.446 811.788 188.866C868.636 271.499 836.821 382.577 748.548 438.832Z" fill="#71B520"/>
<path d="M175.027 361.032C189.738 375.254 193.559 411.464 193.631 427.791C192.14 429.04 154.695 422.527 128.209 407.429C101.723 392.331 103.883 371.599 105.649 373.243C107.062 374.558 110.946 371.802 112.711 370.259C94.5373 372.787 80.3804 354.005 84.0641 356.775C87.0111 358.991 91.6848 355.08 93.6533 352.847C78.5537 350.656 69.8462 336.288 69.2067 332.726C68.6951 329.877 72.9917 331.965 75.204 333.365C69.237 328.799 38.8827 277.14 63.5106 273.698C88.1385 270.257 123.332 299.723 121.445 304.229C119.558 308.734 123.911 320.698 127.139 325.021C129.72 328.479 131.542 317.694 132.131 311.869C151.097 321.945 166.807 360.302 165.742 363.924C164.677 367.547 170.766 375.523 170.065 370.256C169.505 366.043 173.14 362.351 175.027 361.032Z" fill="#D2EDBC"/>
<path d="M183.402 418.599C181.97 416.633 180.459 414.576 178.978 412.579C165.57 394.55 151.771 376.812 137.584 359.412C123.347 342.075 108.844 324.871 92.6444 309.315C90.8355 307.596 88.9755 305.885 87.1362 304.262C89.061 305.783 91.0068 307.4 92.8994 309.034C109.869 323.828 124.868 340.774 139.133 358.147C153.354 375.588 166.755 393.697 179.289 412.36C180.672 414.427 182.08 416.557 183.402 418.599Z" fill="white"/>
<path d="M750.51 381.39C755.888 394.983 747.261 426.258 742.275 440.196C740.9 441.113 718.058 431.844 705.136 416.336C692.214 400.828 700.039 383.353 700.704 384.931C701.236 386.193 704.663 384.226 706.311 383.085C693.471 383.44 689.866 366.011 691.457 368.74C692.729 370.923 697.037 368.049 699.031 366.339C689.686 362.973 688.337 349.85 689.011 346.748C689.55 344.266 691.758 346.473 692.794 347.887C690.242 343.4 686.024 296.313 703.429 295.819C720.834 295.324 735.105 323.955 732.463 327.612C729.822 331.269 729.023 341.909 729.832 345.917C730.479 349.123 735.013 340.102 737.199 335.191C746.68 345.668 745.28 379.952 743.457 382.938C741.633 385.923 743.215 393.332 744.374 388.769C745.301 385.118 748.851 382.329 750.51 381.39Z" fill="#D2EDBC"/>
<path d="M738.319 431.338C737.967 429.566 737.594 427.718 737.22 425.901C733.833 409.576 730.162 393.311 726.166 377.15C722.101 361.013 717.929 344.852 711.857 329.344C711.165 327.614 710.437 325.894 709.683 324.238C710.556 325.835 711.401 327.505 712.206 329.192C719.297 344.334 724.032 360.486 728.107 376.668C732.116 392.883 735.27 409.314 737.594 425.836C737.85 427.675 738.098 429.545 738.319 431.338Z" fill="white"/>
<path d="M303.565 422.122C284.994 411.159 248.839 376.844 252.792 327.291C257.733 265.349 224.636 222.16 214.19 216.485" stroke="#9792D5"/>
<path d="M238.725 295.915C229.606 296.207 224.778 286.826 223.504 282.1C242.089 273.445 251.259 287.935 251.501 296.531C251.516 297.077 247.844 295.623 238.725 295.915Z" fill="#9792D5" stroke="#9792D5"/>
<path d="M253.74 251.111C262.15 247.834 261.441 235.877 260.458 231.091C239.668 230.451 237.901 247.167 241.573 255.065C241.806 255.567 245.329 254.387 253.74 251.111Z" fill="#9792D5" stroke="#9792D5"/>
<path d="M205.414 213.909C197.984 211.071 198.107 200.34 198.763 196.037C216.766 195.216 218.988 210.184 216.128 217.31C215.947 217.762 212.844 216.746 205.414 213.909Z" fill="#9792D5" stroke="#9792D5"/>
<path d="M221.399 242.14C214.672 245.675 206.561 238.973 203.68 235.855C214.107 222.545 226.89 230.19 230.571 236.616C230.805 237.024 228.125 238.605 221.399 242.14Z" fill="#9792D5" stroke="#9792D5"/>
<path d="M239.324 359.503C245.593 358.067 252.914 360.587 255.79 362.027C248.41 332.389 229.098 329.638 220.365 331.967C218.241 331.798 214.163 332.562 214.837 336.973C215.679 342.487 231.487 361.299 239.324 359.503Z" fill="#9792D5" stroke="#9792D5"/>
<path d="M266.441 321.399C261.509 320.454 256.014 322.747 253.883 324.011C257.721 299.779 268.821 297.704 275.622 298.247C280.082 298.602 284.687 300.785 284.938 302.016C286.318 308.784 272.605 322.58 266.441 321.399Z" fill="#9792D5" stroke="#9792D5"/>
<path d="M279.853 458.254C196.27 439.697 96.7435 370.731 129.186 263.274C219.054 275.686 298.445 363.552 279.853 458.254Z" fill="#E8F9B9"/>
<path d="M289.882 385.932C296.735 395.023 297.806 420.663 297.047 432.705C237.063 432.572 230.233 394.566 229.63 390.627C228.687 384.473 229.671 384.322 236.449 385.803C237.617 386.059 232.644 382.853 231.018 381.596C225.302 377.181 223.35 360.6 223.993 352.187C224.219 353.664 231.678 356.3 231.622 354.293C231.578 352.688 226.191 350.086 223.503 348.986C219.933 341.471 227.314 331.102 231.45 326.857C255.475 325.797 270.121 345.4 273.409 355.702C274.823 360.131 273.086 370.54 273.738 374.8C274.832 381.939 276.367 379.94 276.916 378.596C277.909 376.171 280.204 370.45 281.846 368.015C286.099 373.411 286.172 383.645 285.677 388.088C286.89 385.484 288.52 384.125 289.882 385.932Z" fill="#71B520"/>
<path d="M292.12 427.917C290.81 427.075 289.525 426.209 288.25 425.319C276.981 417.12 265.545 408.291 258.667 395.493C258.19 394.483 257.755 393.387 257.445 392.288C253.699 379.671 255.492 366.212 249.757 354.561C249.049 353.189 248.222 351.872 247.276 350.635C248.324 351.787 249.264 353.042 250.087 354.373C256.837 365.831 255.645 379.665 259.358 391.741C259.638 392.71 260.035 393.706 260.476 394.64C266.903 406.67 277.909 416.034 288.479 425.016C289.679 425.999 290.886 426.966 292.12 427.917Z" fill="white"/>
<path d="M865.618 154.12C865.044 154.567 864.686 155.39 864.915 155.587C865.651 156.221 866.487 155.74 866.726 155.553L872.822 151.261C874.849 153.585 881.501 157.495 891.893 154.54C902.284 151.585 906.55 141.124 907.384 136.264C895.316 128.675 883.083 134.535 878.055 137.536C874.032 139.936 872.521 147.208 872.268 150.544C870.29 151.55 866.191 153.674 865.618 154.12Z" fill="#E8F9B9"/>
<path d="M604.274 34.3013C603.922 34.937 603.914 35.8349 604.202 35.9262C605.128 36.2204 605.708 35.4499 605.855 35.185L609.78 28.8458C612.556 30.1893 620.208 31.1778 628.609 24.3847C637.009 17.5915 636.832 6.29582 635.694 1.49713C621.616 -0.751509 612.661 9.43611 609.212 14.1683C606.452 17.954 607.914 25.2361 608.989 28.404C607.564 30.1049 604.626 33.6656 604.274 34.3013Z" fill="#D2EDBC"/>
<path d="M326.769 92.3245C327.093 92.9751 327.061 93.8723 326.769 93.9509C325.831 94.2041 325.285 93.4088 325.151 93.1377L321.509 86.6318C318.676 87.8516 310.987 88.5022 302.894 81.3457C294.801 74.1892 295.475 62.9123 296.824 58.1684C310.987 56.5419 319.485 67.114 322.723 71.9935C325.313 75.897 323.532 83.1077 322.318 86.2252C323.667 87.9872 326.445 91.6739 326.769 92.3245Z" fill="#E8F9B9"/>
<path d="M50.9205 374.154C51.3359 374.422 51.6287 374.958 51.4857 375.105C51.025 375.579 50.4296 375.304 50.2565 375.192L45.866 372.653C44.6333 374.35 40.3629 377.402 33.1431 376.029C25.9233 374.656 22.3994 367.827 21.5399 364.583C29.2577 358.711 37.901 361.941 41.4897 363.67C44.3606 365.053 45.8248 369.889 46.1981 372.134C47.5991 372.695 50.5051 373.886 50.9205 374.154Z" fill="#D2EDBC"/>
<circle cx="91.0195" cy="107" r="8" fill="#EDE1FF"/>
<circle cx="54" cy="230" r="6" fill="#F4F7FE"/>
<circle cx="763.904" cy="82" r="6" fill="#EDE1FF"/>
<circle cx="447.965" cy="13" r="6" fill="#EDE1FF"/>
<circle cx="1020.94" cy="279" r="8" fill="#D6E3FC"/>
<path d="M1.07049 443.005C14.3446 400.466 285.604 412.299 419.574 423.533C479.492 421.286 1023.34 422.898 1059.31 425.78C1124.76 431.022 1080.51 458.732 1002.16 458.732C956.963 458.732 926.571 454.238 798.439 448.996C670.307 443.754 580.891 466.221 277.615 471.463C34.9932 475.657 -7.84037 454.238 1.07049 443.005Z" fill="#F5F8FE"/>
<path d="M362.82 414.311C358.417 429.79 349.948 437.872 341.874 439.377C338.414 440.022 332.422 439.152 323.292 433.813C314.163 428.474 315.525 414.916 315.873 415.275C318.356 417.84 325.241 418.292 327.704 420.012C322.06 412.544 327.6 391.162 328.878 393.207C329.936 394.9 331.45 395.583 338.789 399.506C347.207 404.005 347.008 411.563 346.227 415.065C348.871 411.919 360.112 414.033 362.82 414.311Z" fill="#9792D5"/>
<path d="M109.211 416.103C106.865 427.454 101.208 433.707 95.4871 435.215C93.0354 435.861 88.6855 435.552 81.845 432.199C75.0046 428.845 75.2677 419.034 75.5363 419.273C77.4558 420.985 82.4258 420.946 84.2858 422.052C79.8371 416.985 82.688 401.332 83.7142 402.734C84.5634 403.894 85.6868 404.305 91.1666 406.736C97.451 409.523 97.7073 414.963 97.3309 417.52C99.0645 415.12 107.251 416.045 109.211 416.103Z" fill="#E4EDFF"/>
<path d="M947.286 415.017C941.597 420.525 945.786 427.017 948.786 429.517C951.787 432.017 960.785 433.017 964.787 431.017C970.864 427.979 975.006 417.908 973.786 420.517C972.939 422.329 969.183 418.655 967.287 419.017C972.271 416.246 971.286 405.517 970.785 406.017C969.872 406.928 968.562 405.275 963.389 406.623C954.921 408.83 952.62 416.044 952.671 419.565C951.048 417.762 948.308 415.364 947.286 415.017Z" fill="#71B520"/>
<path d="M942.186 421.613C945.846 424.992 943.151 428.974 941.221 430.508C939.291 432.042 933.502 432.655 930.927 431.428C927.017 429.565 924.353 423.386 925.137 424.987C925.683 426.099 928.099 423.844 929.319 424.067C926.112 422.367 926.746 415.785 927.068 416.091C927.656 416.65 928.498 415.636 931.826 416.463C937.274 417.817 938.754 422.243 938.722 424.403C939.766 423.297 941.529 421.826 942.186 421.613Z" fill="#E4EDFF"/>
</svg>
