<svg width="44" height="44" viewBox="0 0 44 44" fill="none" xmlns="http://www.w3.org/2000/svg">
<path d="M22 4.91675C24.3733 4.91675 26.5791 5.36624 28.6299 6.25757C30.7057 7.15979 32.514 8.38568 34.0635 9.93628V9.93726C35.6153 11.4879 36.8413 13.2964 37.7422 15.3718C38.5769 17.2948 39.0245 19.3529 39.0781 21.5574L39.084 22.0007C39.0839 24.3411 38.6346 26.5402 37.7412 28.6091C36.895 30.5687 35.7644 32.2864 34.3496 33.7712L34.0635 34.0652C32.5127 35.616 30.7038 36.8417 28.6279 37.7439C26.5772 38.6352 24.3728 39.0849 22.001 39.0837H22C19.6595 39.0837 17.4607 38.6343 15.3916 37.741C13.3014 36.8385 11.4862 35.6126 9.93555 34.0632C8.38623 32.5139 7.16036 30.6993 6.25781 28.6091C5.36448 26.5402 4.91586 24.3411 4.91699 22.0007V21.9998C4.91703 19.6265 5.36646 17.4207 6.25781 15.3699C7.15999 13.2943 8.38607 11.4866 9.93652 9.93726L9.9375 9.93628C11.4869 8.38583 13.301 7.1607 15.3896 6.25952C17.4573 5.36738 19.6567 4.91801 22 4.91675ZM21.999 29.9167C20.2564 29.9169 18.5961 30.1725 17.0254 30.6912C15.4651 31.2064 14.0313 31.947 12.7305 32.9128L11.3799 33.9158L12.7295 34.9197C14.0305 35.8871 15.4646 36.6289 17.0254 37.1443C18.5965 37.663 20.2571 37.917 22 37.9158C23.7432 37.9158 25.4044 37.6612 26.9756 37.1423C28.536 36.6271 29.9696 35.8866 31.2705 34.9207L32.6211 33.9177L31.2715 32.9138C29.9705 31.9464 28.5364 31.2046 26.9756 30.6892C25.404 30.1703 23.7425 29.9154 21.999 29.9167ZM9.41895 12.2478C8.35733 13.608 7.5366 15.1106 6.95801 16.7498C6.3739 18.4046 6.08534 20.157 6.08398 21.9988V21.9998C6.08398 23.9431 6.40523 25.7892 7.05762 27.5271C7.7034 29.2474 8.60928 30.7944 9.77441 32.1609L10.543 33.0632L11.4844 32.3435C12.9358 31.2336 14.5627 30.3542 16.3711 29.7078C18.0451 29.1094 19.7967 28.7902 21.6318 28.7537L22 28.7498C22.5149 28.7498 23.0042 28.7716 23.4678 28.8142C23.9402 28.8577 24.4378 28.9225 24.96 29.0085L28.7959 29.6404L21.7109 22.5554L21.2881 22.5017L21.0723 22.4705C20.0053 22.2927 19.1007 21.823 18.3252 21.0466C17.4975 20.2178 17.0185 19.2432 16.8691 18.0828L16.8145 17.6589L10.2891 11.1335L9.41895 12.2478ZM22 6.08374C20.1528 6.08378 18.3955 6.38049 16.7373 6.98315C15.1025 7.5774 13.6036 8.40485 12.2471 9.4646L11.1338 10.3347L33.666 32.8669L34.5361 31.7527C35.5955 30.3953 36.4224 28.8969 37.0166 27.2634C37.6195 25.6061 37.917 23.8483 37.917 21.9998C37.9169 17.6068 36.3587 13.8275 33.2666 10.7341C30.2708 7.73703 26.6301 6.18078 22.4102 6.08765L22 6.08374ZM22 12.2498C23.4822 12.2498 24.6817 12.745 25.6777 13.741C26.6737 14.7369 27.168 15.9354 27.167 17.4158V17.4167C27.167 17.4788 27.1642 17.5406 27.1621 17.6023L21.8135 12.2537C21.8755 12.2516 21.9376 12.2498 22 12.2498Z" fill="#1686FF" stroke="#1686FF" stroke-width="2.5"/>
</svg>
