<?xml version="1.0" encoding="utf-8"?>
<!-- Generator: Adobe Illustrator 16.0.0, SVG Export Plug-In . SVG Version: 6.00 Build 0)  -->
<!DOCTYPE svg PUBLIC "-//W3C//DTD SVG 1.1//EN" "http://www.w3.org/Graphics/SVG/1.1/DTD/svg11.dtd">
<svg version="1.1" id="Capa_1" xmlns="http://www.w3.org/2000/svg" xmlns:xlink="http://www.w3.org/1999/xlink" x="0px" y="0px"
	 width="1024px" height="768px" viewBox="0 0 1024 768" enable-background="new 0 0 1024 768" xml:space="preserve">
<g>
	<g>
		<circle fill="#C3CED8" cx="693.5" cy="654" r="22.5"/>
	</g>
</g>
<g>
	<g>
		<path fill="#C3CED8" d="M693.5,451.5c-12.426,0-22.5,10.074-22.5,22.5v90c0,12.426,10.074,22.5,22.5,22.5S716,576.426,716,564v-90
			C716,461.574,705.926,451.5,693.5,451.5z"/>
	</g>
</g>
<g>
	<g>
		<path fill="#C3CED8" d="M716,362.757V112.5C716,38.643,568.099,0,422,0S128,38.643,128,112.5V654
			c0,24.412,16.501,59.097,95.12,85.702C277.042,757.95,347.672,768,422,768c66.453,0,130.149-7.704,180.663-21.767
			C630.543,760.469,661.475,768,693.5,768C805.207,768,896,675.861,896,564C896,459.946,817.109,373.986,716,362.757z M422,45
			c155.771,0,249,43.452,249,67.5c0,23.576-91.575,67.5-249,67.5c-155.771,0-249-43.452-249-67.5C173,88.924,264.575,45,422,45z
			 M173,175.227C227.879,208.074,325.327,225,422,225c96.674,0,194.121-16.926,249-49.773V249c0,23.576-91.575,67.5-249,67.5
			c-155.771,0-249-43.452-249-67.5V175.227z M173,311.727c54.879,32.848,152.327,49.773,249,49.773
			c96.674,0,194.121-16.926,249-49.773v51.03c-57.45,6.38-107.723,36.885-140.429,81.135C497.117,448.873,459.809,451.5,422,451.5
			c-155.771,0-249-43.452-249-67.5V311.727z M173,446.727c54.879,32.848,152.327,49.773,249,49.773c27.948,0,55.701-1.369,82.049-4
			C495.626,514.744,491,538.841,491,564c0,6.54,0.315,13.035,0.924,19.47c-22.431,1.989-46.201,3.03-69.924,3.03
			c-155.771,0-249-43.452-249-67.5V446.727z M422,723c-156,0-249-44.959-249-69v-72.271c54.879,32.846,152.327,49.771,249,49.771
			c26.886,0,53.869-1.285,79.172-3.708c10.729,32.619,29.221,60.9,52.713,83.555C514.298,718.861,468.357,723,422,723z M693.5,723
			C606.278,723,536,651.28,536,564c0-86.846,70.654-157.5,157.5-157.5S851,477.154,851,564C851,651.674,780.346,723,693.5,723z"/>
	</g>
</g>
</svg>
