<svg xmlns="http://www.w3.org/2000/svg" xmlns:xlink="http://www.w3.org/1999/xlink" version="1.1" id="Layer_1" x="0px" y="0px" viewBox="0 0 2000 2000" style="enable-background:new 0 0 2000 2000;" xml:space="preserve">
<style xmlns="http://www.w3.org/2000/svg" type="text/css">
	.st0{fill:#F7F7F7;}
	.st1{fill:#D3D3D3;}
	.st2{fill:#617fde;}
	.st3{fill:#0B4870;}
	.st4{fill:#FFE3CA;}
	.st5{fill:#0E538C;}
</style>
<g xmlns="http://www.w3.org/2000/svg" id="Rating">
	<path class="st0" d="M103,1002c47.4,316.2,715,395.4,760.3,400.3c130.8,14.3,701.2,76.5,889.9-265c80.6-145.8,79.4-343.1-2.9-489.6   C1547.5,286.2,864.9,257.9,451.5,518.1C391.1,556.2,68.1,769.3,103,1002z"/>
	<polygon class="st1" points="1494.3,964.5 1414.7,921.9 1334.4,963.4 1350.3,874.5 1286,811 1375.5,798.6 1416,717.9 1455.4,799.2    1544.7,812.7 1479.7,875.3  "/>
	<polygon class="st2" points="1208.6,964.5 1128.9,921.9 1048.7,963.4 1064.5,874.5 1000.2,811 1089.7,798.6 1130.2,717.9    1169.7,799.2 1259,812.7 1193.9,875.3  "/>
	<polygon class="st2" points="922.8,964.5 843.1,921.9 762.9,963.4 778.7,874.5 714.5,811 803.9,798.6 844.4,717.9 883.9,799.2    973.2,812.7 908.1,875.3  "/>
	<polygon class="st2" points="637,964.5 557.3,921.9 477.1,963.4 493,874.5 428.7,811 518.2,798.6 558.7,717.9 598.1,799.2    687.4,812.7 622.3,875.3  "/>
	<polygon class="st2" points="351.2,964.5 271.5,921.9 191.3,963.4 207.2,874.5 142.9,811 232.4,798.6 272.9,717.9 312.3,799.2    401.6,812.7 336.5,875.3  "/>
</g>
<g xmlns="http://www.w3.org/2000/svg" id="Person_with_Star">
	<path class="st3" d="M1571.8,1421.8c-4.8-30.8-11-71.6-11.7-79.4c-1.1-13,9.7-135.6,9.7-135.6l-49.6-6.6c0,0,2,107.6,9.6,140.6   c4.7,20.5,15.2,56.4,22.5,80.6C1558.6,1422.4,1565.2,1422,1571.8,1421.8z"/>
	<path class="st4" d="M1574.9,1441.8c-0.9-5.7-2-12.6-3.1-20.1c-6.6,0.2-13.2,0.6-19.4-0.4c2.7,8.8,4.9,16.1,6.3,20.5   C1564.1,1442,1569.5,1442.4,1574.9,1441.8z"/>
	<path class="st3" d="M1558.6,1441.9c0.9,3,1.4,4.7,1.4,4.7l-32.9,10.8h50.2c0,0-1-6.1-2.4-15.6   C1569.5,1442.4,1564.1,1442,1558.6,1441.9z"/>
	<path class="st4" d="M1634.2,1427.5c2.5,6.8,4.4,12.1,5.5,15c6.2-0.9,12.6-2.2,18.3-4.6c-1.3-4.5-2.9-9.5-4.5-14.9   C1647,1425.1,1640.3,1427.7,1634.2,1427.5z"/>
	<path class="st3" d="M1640.6,1445l-28.6,12.4h51.8c0,0-2.3-7.9-5.8-19.5c-5.7,2.3-12,3.6-18.3,4.6   C1640.2,1444.1,1640.6,1445,1640.6,1445z"/>
	<path class="st3" d="M1653.5,1423.1c-9.3-30.8-22.2-72.3-25.9-79.6c-5.9-11.9-32.9-148-32.9-148l-51.3-2.2   c0,0,42.7,130.2,59.4,160.9c11,20.3,23.9,53.1,31.4,73.3C1640.3,1427.7,1647,1425.1,1653.5,1423.1z"/>
	<path class="st4" d="M1575.2,1061c0,0-30.8,28.6-9.2,39.4l-11.3,15.7c0,0,15.1,14.6,32.4,3.2c0,0-2.7-4.9,5.4-16.2   s8.1-24.8,8.1-24.8L1575.2,1061z"/>
	<path class="st5" d="M1570.9,1059.4c0,0,8.1,18.9,18.9,17.8c0,0-10.8,7-11.9,11.9c0,0-16.7-9.7-21.1-5.4c-4.3,4.3-6.5,18.9,2.7,20   s14,0.5,19.4-2.7c5.4-3.2,6.5-7,8.1-9.7s3.8-5.9,5.4-3.8c1.6,2.2-3.2,10.8-4.3,10.8s0.1,12.2,0.1,12.2s8.6-11.7,12.4-14.4   s10.3-17.8,2.7-23.2C1595.7,1067.5,1576.8,1045.3,1570.9,1059.4z"/>
	<path class="st2" d="M1558.7,1110.5c-7,3.4-14.6,8.5-21.5,16c-27.5,30.2-18.1,74.1-16.6,80.4c8.4,2.5,19,4.9,31.5,5.7   c20.4,1.3,37.2-2.3,48.5-5.7c0,0-3.2-3.2-1.6-22.7s-6.2-64-12.3-67.9C1580.6,1112.3,1558.7,1110.5,1558.7,1110.5z"/>
	<path class="st4" d="M1521.2,1115.5c0,0-29-49.7-34.6-68s-2.3-81.5-2.3-81.5l13.4-1.6c0,0-0.9,65.3,8.8,79.9s38.3,64.3,38.3,64.3   L1521.2,1115.5z"/>
	<path class="st2" d="M1514.2,1116.1l31.3-21.6c0,0,16.2,21.6,7.6,33.5S1514.2,1116.1,1514.2,1116.1z"/>
	<path class="st4" d="M1614.5,1135c0,0,29-49.7,34.6-68c5.5-18.4,2.3-81.5,2.3-81.5l-13.4-1.6c0,0,0.9,65.3-8.8,79.9   s-38.3,64.3-38.3,64.3L1614.5,1135z"/>
	<path class="st2" d="M1621.5,1135.5l-31.3-21.6c0,0-16.2,21.6-7.6,33.5C1591.2,1159.3,1621.5,1135.5,1621.5,1135.5z"/>
	<polygon class="st2" points="1642.6,1008.9 1570.6,954.3 1484.9,982.6 1514.6,897.3 1461.1,824.5 1551.4,826.4 1604.2,753    1630.3,839.5 1716.3,867 1642.2,918.6  "/>
	<path class="st4" d="M1484.5,966c0,0,2.7-20,15.7-20.5c13-0.5,7.6,9.7,4.9,11.3s-14.3,9.2-14.3,9.2H1484.5z"/>
	<path class="st4" d="M1651.3,985.4c0,0-1.6-18.9-12.4-19.4s-10.3,9.2-6.5,12.4s9.4,7,9.4,7H1651.3z"/>
</g>
</svg>