<?xml version="1.0" encoding="UTF-8"?>
<svg id="Layer_2" data-name="Layer 2" xmlns="http://www.w3.org/2000/svg" viewBox="0 0 60 60">
  <defs>
    <style>
      .cls-1 {
        fill: #fff;
        opacity: .88;
      }
    </style>
  </defs>
  <path class="cls-1" d="M30,0C13.43,0,0,13.43,0,30s13.43,30,30,30,30-13.43,30-30S46.57,0,30,0ZM33.48,37.69c.59.59.59,1.54,0,2.12-.29.3-.68.44-1.06.44s-.77-.14-1.06-.44l-8.25-8.25c-.59-.58-.59-1.53,0-2.12l8.25-8.25c.58-.58,1.53-.58,2.12,0,.59.59.59,1.54,0,2.12l-7.19,7.19,7.19,7.19Z"/>
</svg>