<?xml version="1.0" encoding="UTF-8"?>
<svg id="Layer_2" data-name="Layer 2" xmlns="http://www.w3.org/2000/svg" viewBox="0 0 60 60">
  <defs>
    <style>
      .cls-1 {
        fill: #fff;
        opacity: .88;
      }
    </style>
  </defs>
  <path class="cls-1" d="M30,0C13.44,0,0,13.43,0,30s13.44,30,30,30,30-13.43,30-30S46.57,0,30,0ZM36.9,30.56l-8.25,8.25c-.3.29-.68.44-1.06.44s-.77-.15-1.07-.44c-.58-.58-.58-1.54,0-2.12l7.19-7.19-7.19-7.19c-.58-.58-.58-1.54,0-2.12s1.54-.59,2.13,0l8.25,8.25c.58.58.58,1.54,0,2.12Z"/>
</svg>