<svg width="350" height="350" viewBox="0 0 350 350" fill="none" xmlns="http://www.w3.org/2000/svg">
<path d="M175.024 0C272.886 0.421767 350.019 79.1922 350 175.021C349.98 272.31 271.036 350.411 174.175 349.998C79.2476 349.593 -0.00701754 273.135 4.66048e-07 174.957C0.00700291 78.0443 78.0016 0.365766 175.024 0Z" fill="#007FFE"/>
<path d="M228.177 60.5559C234.329 60.3162 240.391 61.0424 246.331 62.586C250.63 63.7024 254.682 65.5225 258.588 67.6191C263.118 70.0497 267.411 72.8464 271.258 76.2887C282.994 86.794 290.216 99.7776 292.601 115.367C294.041 124.773 293.34 134.015 290.661 143.198C288.657 150.065 285.421 156.247 281.6 162.195C280.907 163.274 280.02 164.212 279.105 165.12C271.04 173.141 262.992 181.177 254.922 189.194C246.774 197.288 238.614 205.37 230.449 213.447C219.88 223.905 209.296 234.347 198.727 244.807C189.158 254.276 179.641 263.797 170.024 273.217C162.396 280.688 153.208 285.448 142.979 288.309C135.764 290.329 128.393 290.958 120.97 290.337C106.953 289.162 94.5182 283.998 83.8509 274.804C72.0464 264.627 64.7719 251.759 62.2887 236.423C59.1992 217.334 63.8923 200.119 75.9088 184.949C79.065 180.966 82.8572 177.561 86.4638 173.996C96.749 163.827 107.053 153.678 117.353 143.525C134.089 127.026 150.828 110.528 167.566 94.0305C172.716 88.9554 177.845 83.8593 183.029 78.8175C187.784 74.1921 193.159 70.4261 199.056 67.3792C206.241 63.6692 213.86 61.4326 221.878 60.591C223.959 60.3703 226.078 60.5559 228.177 60.5559Z" fill="white"/>
<path d="M262.049 94.3932C259.625 93.6074 257.288 92.9285 254.891 92.5137C242.449 90.3595 230.495 91.7034 219.221 97.6343C215.01 99.8498 211.367 102.821 207.997 106.185C195.367 118.794 182.679 131.347 170.014 143.921C165.794 148.111 161.575 152.301 157.355 156.493C157.19 156.658 157.022 156.821 156.866 156.993C155.853 158.114 155.704 158.314 156.894 159.514C173.328 176.071 189.714 192.677 206.12 209.261C206.528 209.674 207.021 210.005 207.295 210.23C207.348 211.113 206.864 211.326 206.551 211.635C192.14 225.843 177.721 240.042 163.31 254.251C162.022 255.52 160.803 256.859 159.513 258.128C152.295 265.226 143.649 269.451 133.642 270.919C109.38 274.478 86.3751 258.446 81.533 234.003C79.6106 224.296 80.7585 214.88 84.8714 205.83C87.3652 200.34 90.842 195.563 95.0953 191.342C106.313 180.21 117.569 169.112 128.811 158.005C138.684 148.251 148.558 138.494 158.438 128.745C167.985 119.322 177.542 109.911 187.087 100.485C188.373 99.2146 189.622 97.9091 190.861 96.5913C193.828 93.436 197.118 90.6377 200.552 88.0249C206.122 83.788 212.421 81.0685 219.288 79.8277C231.234 77.67 242.484 79.6037 252.896 85.9721C256.103 87.9339 258.912 90.3787 261.494 93.0965C261.761 93.3853 262.126 93.6407 262.049 94.3932Z" fill="#0080FF"/>
</svg>
