<svg width="439" height="324" viewBox="0 0 439 324" fill="none" xmlns="http://www.w3.org/2000/svg">
<path d="M103.076 197.578C102.034 197.578 100.981 197.561 99.9482 197.529L99.9717 196.779C101.455 196.825 102.969 196.838 104.46 196.817L104.47 197.568C104.006 197.575 103.541 197.578 103.076 197.578ZM108.989 197.404L108.945 196.654C110.431 196.566 111.936 196.443 113.418 196.288L113.496 197.035C112.003 197.191 110.487 197.316 108.989 197.404ZM95.4331 197.287C93.935 197.172 92.421 197.021 90.9331 196.839L91.0248 196.093C92.5013 196.274 94.0035 196.424 95.4904 196.538L95.4331 197.287ZM117.981 196.461L117.869 195.718C119.345 195.494 120.832 195.234 122.289 194.945L122.435 195.681C120.967 195.973 119.469 196.235 117.981 196.461ZM86.4589 196.186C84.9789 195.935 83.4849 195.647 82.0186 195.328L82.1779 194.594C83.633 194.91 85.1155 195.196 86.5843 195.445L86.4589 196.186ZM126.849 194.698L126.669 193.968C128.118 193.61 129.575 193.214 131 192.791L131.213 193.512C129.777 193.938 128.309 194.337 126.849 194.698ZM77.6229 194.267C76.1711 193.881 74.7101 193.456 73.2805 193.004L73.5068 192.288C74.9256 192.736 76.3754 193.158 77.8158 193.541L77.6229 194.267ZM135.518 192.126L135.271 191.416C136.677 190.927 138.092 190.399 139.475 189.845L139.754 190.542C138.36 191.1 136.935 191.633 135.518 192.126ZM68.9899 191.537C67.5799 191.019 66.1611 190.459 64.7733 189.875L65.0649 189.182C66.442 189.762 67.8498 190.317 69.2492 190.832L68.9899 191.537ZM143.904 188.769L143.593 188.086C144.943 187.472 146.3 186.817 147.627 186.139L147.969 186.808C146.632 187.491 145.264 188.151 143.904 188.769ZM151.94 184.661L151.568 184.009C152.863 183.269 154.156 182.492 155.41 181.699L155.811 182.334C154.548 183.133 153.245 183.916 151.94 184.661ZM159.572 179.831L159.143 179.216C160.362 178.364 161.579 177.471 162.759 176.564L163.217 177.159C162.028 178.074 160.801 178.973 159.572 179.831ZM45.0935 178.773C43.8812 177.893 42.6702 176.97 41.4938 176.031L41.9625 175.444C43.1299 176.376 44.3318 177.291 45.5347 178.165L45.0935 178.773ZM166.737 174.324L166.253 173.749C167.389 172.79 168.52 171.79 169.615 170.778L170.125 171.33C169.022 172.35 167.882 173.357 166.737 174.324ZM38.0236 173.127C36.8946 172.138 35.7729 171.11 34.6899 170.07L35.2099 169.528C36.2849 170.56 37.398 171.581 38.5184 172.562L38.0236 173.127ZM173.374 168.184L172.839 167.656C173.887 166.594 174.924 165.495 175.919 164.39L176.477 164.892C175.474 166.006 174.43 167.114 173.374 168.184ZM31.4994 166.864C30.4636 165.775 29.4405 164.649 28.4587 163.518L29.0261 163.025C30.0003 164.148 31.0155 165.266 32.0437 166.347L31.4994 166.864ZM179.428 161.463L178.848 160.986C179.794 159.834 180.726 158.645 181.619 157.452L182.22 157.902C181.321 159.104 180.382 160.302 179.428 161.463ZM25.574 160.037C24.6438 158.861 23.7278 157.647 22.8514 156.429L23.4609 155.99C24.3307 157.199 25.2397 158.404 26.163 159.571L25.574 160.037ZM184.847 154.216L184.226 153.794C185.063 152.56 185.884 151.291 186.664 150.02L187.304 150.413C186.517 151.694 185.691 152.973 184.847 154.216ZM20.297 152.702C19.4786 151.447 18.6776 150.156 17.9161 148.864L18.563 148.482C19.3189 149.765 20.1138 151.046 20.926 152.291L20.297 152.702ZM189.585 146.5L188.927 146.137C189.648 144.832 190.349 143.492 191.01 142.153L191.683 142.486C191.017 143.835 190.311 145.185 189.585 146.5ZM193.596 138.379L192.908 138.078C193.506 136.71 194.081 135.31 194.616 133.916L195.317 134.186C194.778 135.591 194.199 137.001 193.596 138.379ZM11.8637 136.758C11.2879 135.376 10.7365 133.962 10.2249 132.555L10.9309 132.298C11.4385 133.694 11.9856 135.098 12.5569 136.469L11.8637 136.758ZM196.844 129.916L196.131 129.68C196.599 128.267 197.042 126.823 197.445 125.388L198.168 125.591C197.762 127.037 197.316 128.493 196.844 129.916ZM8.77802 128.27C8.33114 126.838 7.9112 125.375 7.52996 123.922L8.2565 123.731C8.63481 125.174 9.05162 126.625 9.49503 128.046L8.77802 128.27ZM199.292 121.21L198.56 121.039C198.896 119.592 199.204 118.113 199.474 116.645L200.213 116.781C199.941 118.26 199.631 119.75 199.292 121.21ZM6.484 119.522C6.17079 118.054 5.88729 116.56 5.64157 115.078L6.38241 114.955C6.62648 116.425 6.90778 117.909 7.2186 119.365L6.484 119.522ZM200.929 112.316L200.184 112.214C200.386 110.742 200.557 109.242 200.691 107.754L201.439 107.822C201.304 109.321 201.132 110.833 200.929 112.316ZM5.00378 110.601C4.82664 109.113 4.68122 107.599 4.57138 106.099L5.32066 106.044C5.4294 107.533 5.5739 109.036 5.74976 110.512L5.00378 110.601ZM201.745 103.31L200.995 103.276C201.062 101.788 201.096 100.278 201.096 98.789H201.847C201.847 100.289 201.813 101.81 201.745 103.31ZM4.34381 101.582C4.31814 100.66 4.30513 99.7207 4.30493 98.789C4.30493 98.2109 4.30988 97.6339 4.31979 97.0579L5.0709 97.0711C5.06099 97.6427 5.05604 98.2153 5.05604 98.789C5.05623 99.7137 5.06925 100.647 5.09455 101.561L4.34381 101.582ZM5.24914 92.5862L4.4995 92.5393C4.5932 91.0383 4.72267 89.5222 4.88385 88.0331L5.63056 88.114C5.47048 89.5919 5.34229 91.0964 5.24914 92.5862ZM200.611 88.003C200.461 86.522 200.254 85.7999 200.037 84.3253L200.78 84.2156C200.999 85.7014 201.187 86.8356 201.339 88.3278L200.611 88.003ZM6.21534 83.6641L5.47303 83.5493C5.70316 82.0631 5.97053 80.5652 6.26778 79.0966L7.00387 79.2455C6.70899 80.7029 6.44364 82.1895 6.21534 83.6641ZM199.279 79.902C198.992 78.4365 198.669 76.9614 198.318 75.5175L199.047 75.34C199.401 76.7948 199.727 78.2814 200.016 79.7578L199.279 79.902ZM7.99446 74.8681L7.2659 74.6854C7.63064 73.2304 8.03462 71.7633 8.46665 70.3247L9.18584 70.5407C8.7573 71.9684 8.35644 73.4243 7.99446 74.8681ZM197.156 71.1819C196.737 69.7515 196.279 68.3127 195.795 66.9048L196.506 66.6605C196.993 68.0792 197.455 69.5294 197.877 70.9706L197.156 71.1819ZM10.5801 66.2612L9.8715 66.0122C10.3707 64.592 10.9096 63.1651 11.4733 61.771L12.1698 62.0527C11.6103 63.436 11.0754 64.8521 10.5801 66.2612ZM194.239 62.6948C193.691 61.3123 193.104 59.9248 192.495 58.5707L193.18 58.2622C193.794 59.6267 194.385 61.0249 194.937 62.4179L194.239 62.6948ZM13.9513 57.9234L13.2687 57.6098C13.8961 56.2434 14.5637 54.8731 15.2532 53.5371L15.9207 53.8816C15.2364 55.2075 14.5738 56.5673 13.9513 57.9234ZM190.563 54.5294C189.891 53.2032 189.179 51.8742 188.446 50.5799L189.1 50.2097C189.838 51.5142 190.555 52.8532 191.233 54.1897L190.563 54.5294ZM18.0737 49.9357L17.4228 49.5609C18.172 48.2596 18.9622 46.957 19.7714 45.6896L20.4045 46.0939C19.6015 47.3517 18.8172 48.6443 18.0737 49.9357ZM186.15 46.7297C185.357 45.466 184.526 44.2071 183.68 42.9878L184.297 42.5597C185.149 43.7884 185.987 45.0568 186.786 46.3303L186.15 46.7297ZM22.9083 42.3636L22.2943 41.9308C23.1602 40.7025 24.0656 39.4782 24.9858 38.292L25.5792 38.7523C24.6661 39.9298 23.7674 41.1447 22.9083 42.3636ZM181.041 39.3616C180.136 38.1758 179.193 36.9971 178.239 35.8581L178.814 35.3755C179.776 36.5233 180.726 37.7109 181.638 38.9056L181.041 39.3616ZM28.4114 35.2677L27.8396 34.7806C28.8114 33.639 29.8241 32.5028 30.8498 31.4035L31.3988 31.9159C30.381 33.007 29.376 34.1348 28.4114 35.2677ZM175.28 32.485C174.271 31.3866 173.224 30.2979 172.169 29.2495L172.699 28.7165C173.762 29.7731 174.816 30.8699 175.833 31.9766L175.28 32.485ZM34.5347 28.7048L34.0095 28.1677C35.0836 27.1168 36.195 26.0778 37.3127 25.0797L37.8129 25.6402C36.7037 26.6306 35.6007 27.6617 34.5347 28.7048ZM168.915 26.1581C167.809 25.155 166.668 24.1657 165.522 23.2177L166.001 22.6388C167.155 23.594 168.306 24.5909 169.42 25.6016L168.915 26.1581ZM41.2265 22.728L40.7523 22.1455C41.914 21.1993 43.1145 20.2661 44.3208 19.3718L44.7683 19.9752C43.571 20.8629 42.3794 21.7889 41.2265 22.728ZM48.4304 17.3876L48.0112 16.7644C49.2545 15.9277 50.5345 15.1084 51.8158 14.3287L52.206 14.9707C50.9346 15.7443 49.6644 16.5575 48.4304 17.3876ZM56.0871 12.7294L55.7266 12.0702C57.042 11.3503 58.3907 10.6519 59.7352 9.99401L60.0653 10.669C58.7311 11.3217 57.3926 12.0148 56.0871 12.7294ZM146.735 10.9888C145.398 10.3228 144.029 9.67946 142.666 9.07659L142.969 8.38954C144.344 8.99699 145.723 9.64535 147.07 10.3164L146.735 10.9888ZM64.1322 8.79359L63.8337 8.10432C65.2083 7.50842 66.6144 6.93692 68.0129 6.40558L68.2795 7.10804C66.8917 7.63517 65.4964 8.20228 64.1322 8.79359ZM138.512 7.35326C137.121 6.81387 135.697 6.2992 134.281 5.82381L134.52 5.11144C135.947 5.59069 137.382 6.10919 138.783 6.653L138.512 7.35326ZM72.5104 5.61161L72.2764 4.89778C73.7038 4.42972 75.1602 3.98898 76.6048 3.58823L76.8056 4.31197C75.3719 4.70978 73.9268 5.14703 72.5104 5.61161ZM129.994 4.49464C128.562 4.08619 127.1 3.7058 125.651 3.36411L125.824 2.63303C127.284 2.97729 128.756 3.36062 130.2 3.77201L129.994 4.49464ZM81.1564 3.21169L80.9891 2.47934C82.4525 2.14498 83.9431 1.84034 85.4195 1.57402L85.553 2.31317C84.0876 2.57764 82.6085 2.8799 81.1564 3.21169ZM121.261 2.43532C119.798 2.16076 118.309 1.91645 116.833 1.7092L116.937 0.965289C118.424 1.17419 119.926 1.42033 121.4 1.69691L121.261 2.43532ZM89.9865 1.61787L89.8871 0.873224C91.3739 0.674774 92.886 0.50787 94.3813 0.377652L94.4466 1.12596C92.9627 1.25544 91.4623 1.42088 89.9865 1.61787ZM112.376 1.18685C110.896 1.04746 109.39 0.939987 107.899 0.867905L107.936 0.117409C109.438 0.190223 110.955 0.298437 112.446 0.438943L112.376 1.18685ZM98.9254 0.837825L98.8938 0.0873289C100.274 0.0297383 101.681 0.000390999 103.076 2.28882e-05L103.416 0.000575267L103.414 0.751822L103.076 0.75127C101.692 0.751615 100.295 0.780786 98.9254 0.837825Z" fill="#CCCCCC"/>
<rect x="104" y="25" width="118" height="264" rx="12" fill="white" stroke="#CCCCCC" stroke-width="2"/>
<path d="M69.3167 100.444C77.4909 100.62 83.9934 106.544 83.9934 106.544C83.9934 106.544 77.2429 112.185 69.0686 112.009C60.8944 111.834 54.3918 105.909 54.3918 105.909C54.3918 105.909 61.1424 100.269 69.3167 100.444Z" fill="#8ED258"/>
<path d="M28.2207 72.5362C35.6058 76.0453 44.0741 73.6657 44.0741 73.6657C44.0741 73.6657 40.5688 65.5967 33.1837 62.0875C25.7987 58.5784 17.3303 60.958 17.3303 60.958C17.3303 60.958 20.8356 69.027 28.2207 72.5362Z" fill="#8ED258"/>
<path d="M28.9715 69.049C37.1137 68.3047 44.2405 73.4613 44.2405 73.4613C44.2405 73.4613 38.1663 79.8246 30.0241 80.5689C21.8819 81.3131 14.755 76.1565 14.755 76.1565C14.755 76.1565 20.8293 69.7932 28.9715 69.049Z" fill="#FD7E14"/>
<path d="M58.8182 70.4589C58.0378 78.5992 63.1616 85.7503 63.1616 85.7503C63.1616 85.7503 69.5507 79.7034 70.3312 71.5631C71.1116 63.4228 65.9878 56.2717 65.9878 56.2717C65.9878 56.2717 59.5986 62.3186 58.8182 70.4589Z" fill="#FF7214"/>
<path d="M84.7743 196.202L85.3967 195.781C83.203 192.597 82.0052 188.833 81.9555 184.966C81.9729 179.31 84.7505 174.079 87.4368 169.02C87.9354 168.081 88.4323 167.145 88.9104 166.209C90.9171 162.395 92.5163 158.379 93.6815 154.23C97.8482 138.743 93.7459 120.471 82.708 105.353C73.9518 93.3594 60.8989 82.8721 42.8039 73.2911L42.4525 73.9551C60.4445 83.4814 73.4138 93.8967 82.1015 105.796C93.0065 120.732 97.0642 138.765 92.9561 154.034C91.8045 158.133 90.2243 162.099 88.2418 165.867C87.7652 166.799 87.2701 167.732 86.7733 168.667C84.0443 173.807 81.2223 179.122 81.2044 184.964C81.254 188.981 82.4966 192.893 84.7743 196.202Z" fill="#62CC0E"/>
<path d="M7.13567 74.2782C11.0765 74.2782 14.2712 71.0829 14.2712 67.1414C14.2712 63.1998 11.0765 60.0045 7.13567 60.0045C3.19482 60.0045 0.00012207 63.1998 0.00012207 67.1414C0.00012207 71.0829 3.19482 74.2782 7.13567 74.2782Z" fill="#FD7E14"/>
<path d="M117.582 177.555C117.582 180.48 115.082 182.781 112.167 182.538L76.4579 179.561C74.3848 179.389 72.7902 177.656 72.7902 175.575V117.354C72.7902 115.222 74.4616 113.465 76.5904 113.359L112.333 111.571C115.188 111.429 117.582 113.706 117.582 116.565V177.555Z" fill="#8ED258"/>
<path d="M209.553 177.555C209.553 180.48 212.053 182.781 214.969 182.538L250.678 179.561C252.751 179.389 254.345 177.656 254.345 175.575V117.354C254.345 115.222 252.674 113.465 250.545 113.359L214.803 111.571C211.947 111.429 209.553 113.706 209.553 116.565V177.555Z" fill="#8ED258"/>
<rect x="132" y="111" width="63" height="72" rx="5" fill="#8ED258"/>
<path d="M179.137 138.44C177.805 137.288 176.162 136.556 174.415 136.334C172.669 136.111 170.895 136.41 169.317 137.191C167.946 137.854 166.471 138.276 164.958 138.438C164.92 135.159 165.522 131.903 166.73 128.854L166.928 128.343H164.295L164.22 128.619C163.926 129.697 163.695 130.791 163.527 131.896C163.385 131.417 163.201 130.952 162.977 130.505C161.13 126.844 156.863 125.346 156.683 125.284L156.319 125.159L156.203 125.526C156.145 125.708 154.813 130.03 156.659 133.692C157.981 136.314 160.544 137.826 161.959 138.496C160.168 138.381 158.417 137.912 156.807 137.118C155.803 136.6 154.674 136.376 153.549 136.471C152.424 136.566 151.349 136.977 150.446 137.655C145.53 141.391 142.711 146.867 142.711 152.68C142.711 160.315 147.655 167.308 155.307 170.494C155.997 170.781 156.737 170.928 157.484 170.927C158.522 170.927 159.541 170.647 160.433 170.118C161.619 169.428 162.966 169.063 164.338 169.06C165.71 169.057 167.059 169.417 168.248 170.102C169.016 170.556 169.88 170.824 170.77 170.887C171.66 170.95 172.553 170.805 173.378 170.463C180.985 167.265 185.9 160.284 185.9 152.68C185.9 147.236 183.498 142.179 179.137 138.44ZM164.87 129.094H165.836C164.749 132.006 164.195 135.091 164.201 138.199H164.028C163.795 135.138 164.08 132.06 164.87 129.094ZM157.33 133.354C155.928 130.574 156.543 127.26 156.815 126.142C157.875 126.587 160.901 128.059 162.306 130.844C163.707 133.623 163.093 136.936 162.821 138.055C161.76 137.608 158.732 136.133 157.33 133.354ZM173.087 169.771C172.37 170.067 171.594 170.193 170.82 170.138C170.047 170.083 169.296 169.849 168.629 169.454C167.324 168.701 165.843 168.306 164.336 168.309C162.83 168.312 161.351 168.713 160.049 169.472C159.383 169.869 158.634 170.105 157.861 170.162C157.088 170.219 156.312 170.095 155.595 169.801C148.225 166.732 143.462 160.011 143.462 152.68C143.462 147.104 146.173 141.846 150.9 138.253C151.807 137.568 152.913 137.199 154.05 137.201C154.889 137.201 155.716 137.401 156.463 137.785C158.52 138.767 160.768 139.283 163.048 139.297C165.328 139.31 167.582 138.821 169.651 137.864C171.097 137.148 172.722 136.875 174.322 137.079C175.923 137.283 177.428 137.955 178.648 139.01C182.84 142.605 185.149 147.459 185.149 152.68C185.149 159.981 180.414 166.689 173.087 169.771Z" fill="white"/>
<path d="M95.0636 131.341V130.459H95.414V127.711C95.4153 127.508 95.3607 127.308 95.256 127.133C95.1513 126.958 95.0006 126.816 94.8204 126.721C93.2703 125.912 91.6045 125.913 89.8693 126.725C89.6777 126.816 89.5159 126.959 89.4028 127.139C89.2896 127.318 89.2297 127.526 89.23 127.738V130.459H89.5804V131.257C88.2906 131.619 87.1549 132.393 86.3477 133.463C85.5404 134.532 85.1061 135.836 85.1114 137.176V143.121L85.7789 143.343L85.1114 143.788V145.575L85.7789 145.797L85.1114 146.243V148.029L85.7789 148.251L85.1114 148.697V162.303C85.1126 163.364 85.5346 164.381 86.2849 165.132C87.0352 165.882 88.0525 166.305 89.1136 166.306H95.0137C96.0724 166.305 97.0874 165.883 97.836 165.135C98.5846 164.386 99.0057 163.371 99.0069 162.312V148.697L98.3394 148.251L99.0069 148.029V146.243L98.3394 145.797L99.0069 145.575V143.788L98.3394 143.343L99.0069 143.121V136.869C99.0025 135.653 98.6208 134.468 97.9145 133.477C97.2082 132.487 96.2121 131.741 95.0636 131.341ZM90.1872 127.405C91.7212 126.689 93.1233 126.682 94.4727 127.387C94.5308 127.419 94.5791 127.466 94.6126 127.523C94.6461 127.58 94.6635 127.645 94.6629 127.711V129.182H89.9811V127.738C89.9805 127.669 89.9995 127.601 90.036 127.542C90.0725 127.483 90.1249 127.435 90.1872 127.405ZM98.2558 142.579L96.645 143.116L98.2558 144.19V145.033L96.645 145.57L98.2558 146.645V147.488L96.645 148.024L98.2558 149.099V162.312C98.2548 163.172 97.9129 163.996 97.3051 164.604C96.6973 165.212 95.8733 165.554 95.0137 165.555H89.1136C88.2516 165.554 87.4252 165.211 86.8157 164.601C86.2063 163.991 85.8634 163.165 85.8625 162.303V149.099L87.4733 148.024L85.8625 147.488V146.645L87.4733 145.57L85.8625 145.033V144.19L87.4733 143.116L85.8625 142.579V137.176C85.8577 135.955 86.2689 134.768 87.0284 133.812C87.7878 132.855 88.8502 132.186 90.0407 131.914L90.3316 131.847V130.459H94.3125V131.897L94.5833 131.976C95.6406 132.287 96.5691 132.932 97.2307 133.814C97.8924 134.695 98.2519 135.767 98.2558 136.869V142.579Z" fill="white"/>
<path d="M251.598 141.628L249.707 141.25L250.152 140.359L249.285 140.186L249.435 139.284L248.488 139.126V138.27L247.72 138.05L248.449 137.139H247.184L247.448 136.478L246.512 136.323L246.83 135.209H245.817V134.17H245.441C244.258 134.17 243.599 135.576 243.382 136.139C236.85 137.278 217.885 150.417 215.72 151.928C214.821 151.636 213.487 152.32 213.209 152.472L212.768 152.712L213.404 153.348L213.214 153.917L214.381 154.354L214.126 154.993L214.86 155.606L214.2 156.102L215.194 156.698L215.019 157.57L216.129 157.729V158.601L216.773 158.73L216.452 159.856H217.168V160.747H217.866L218.183 161.696L218.507 161.63C219.263 161.479 219.91 160.434 220.163 159.97C226.454 158.847 245.875 145.181 247.766 143.842C249.972 144.107 250.783 143.517 250.87 143.448L251.229 143.16L250.372 142.446L251.598 141.628ZM247.717 143.079L247.571 143.059L247.45 143.145C247.236 143.297 225.936 158.39 219.864 159.257L219.67 159.285L219.582 159.461C219.349 159.936 219.034 160.366 218.653 160.732L218.407 159.996H217.919V159.105H217.448L217.72 158.154L216.88 157.986V157.077L215.912 156.939L216.034 156.326L215.544 156.032L216.071 155.637L215.026 154.766L215.363 153.921L214.156 153.468L214.263 153.146L214.03 152.912C214.594 152.678 215.276 152.503 215.569 152.679L215.779 152.804L215.978 152.664C216.191 152.515 237.346 137.716 243.712 136.848L243.949 136.815L244.02 136.586C244.129 136.231 244.518 135.334 245.066 135.027V135.96H245.834L245.558 136.925L246.403 137.066L246.074 137.89H246.886L246.428 138.463L247.737 138.837V139.762L248.571 139.901L248.425 140.78L249.041 140.903L248.596 141.794L249.673 142.009L249.118 142.379L249.915 143.043C249.191 143.191 248.446 143.203 247.717 143.079Z" fill="white"/>
<path d="M173.741 236.893C173.741 242.633 169.089 247.286 163.35 247.286C157.611 247.286 152.959 242.633 152.959 236.893C152.959 231.153 157.611 226.5 163.35 226.5C169.089 226.5 173.741 231.153 173.741 236.893Z" fill="white" stroke="#0066CC"/>
<path d="M170.207 235.817H164.425V230.035H162.274V235.817H156.492V237.969H162.274V243.752H164.425V237.969H170.207V235.817Z" fill="#0066CC"/>
<path d="M197.7 237.269L192.067 234.639V236.142H178.922V238.396H192.067V239.898L197.7 237.269Z" fill="#0066CC"/>
<path d="M129 237.269L134.633 234.639V236.142H147.778V238.396H134.633V239.898L129 237.269Z" fill="#0066CC"/>
<path d="M199.621 60.0044H127.515V60.7556H199.621V60.0044Z" fill="white"/>
<path d="M199.796 265.095H127.689V265.846H199.796V265.095Z" fill="white"/>
<path d="M331.443 69.4486L321.071 79.2217L325.83 85.9229L336.428 75.2002C336.888 75.169 337.35 75.0715 337.803 74.8993C340.266 73.9627 341.503 71.2078 340.566 68.7462C339.629 66.2846 336.872 65.0484 334.41 65.985C332.839 66.5824 331.77 67.92 331.443 69.4486Z" fill="#F0C9A5"/>
<path d="M365.441 315.323L357.959 315.322L354.399 286.474L365.443 286.475L365.441 315.323Z" fill="#F0C9A5"/>
<path d="M365.704 323.124L342.695 323.124V322.833C342.695 317.889 346.705 313.881 351.651 313.881L355.854 310.694L363.696 313.882L365.705 313.882L365.704 323.124Z" fill="#212529"/>
<path d="M348.001 307.425L340.987 310.032L327.59 284.234L337.94 280.387L348.001 307.425Z" fill="#F0C9A5"/>
<path d="M350.969 314.646L329.403 322.663L329.301 322.39C327.577 317.756 329.937 312.603 334.573 310.879L337.401 306.428L345.863 306.683L347.745 305.983L350.969 314.646Z" fill="#212529"/>
<path d="M333.83 165.997L318.644 252.323L332.88 305.922L346.168 300.704L344.27 296.435L347.117 290.743L342.846 262.284L342.839 244.096L354.71 207.737L358.032 267.502L352.811 297.384L353.794 305.922L369.421 307.819L367.522 301.653L377.488 271.771L375.59 266.079L388.877 196.354L385.555 174.061L333.83 165.997Z" fill="#212529"/>
<path d="M378.674 80.8567H359.756L353.998 90.3431L347.829 88.9201L344.703 90.3431L330.745 93.189L335.016 118.328L335.965 147.261L335.491 159.594C330.501 163.238 331.789 168.259 332.896 173.859C332.896 173.859 380.573 186.892 388.165 182.729V177.351L383.657 141.332L400.266 100.541C400.995 94.9565 395.092 93.4478 389.589 92.2403L383.894 90.3431L378.674 80.8567Z" fill="#0066CC"/>
<path d="M335.016 96.5092L330.745 93.189L321.028 96.5092L324.576 90.8174V88.0742L330.27 86.5485L330.745 82.2796L335.016 78.9314L328.022 70.8642L322.915 75.1667L319.83 75.1648L315.585 79.4076L300.368 100.175C297.132 104.591 298.063 110.915 302.611 113.962C304.36 115.134 306.462 115.956 308.916 115.956H335.825L335.016 96.5092Z" fill="#0066CC"/>
<path d="M367.425 77.8895C359.573 77.8895 353.207 71.527 353.207 63.6784C353.207 55.8299 359.573 49.4674 367.425 49.4674C375.277 49.4674 381.643 55.8299 381.643 63.6784C381.643 71.527 375.277 77.8895 367.425 77.8895Z" fill="#F0C9A5"/>
<path d="M394.755 190.802L395.092 176.559L386.979 175.231L387.158 190.303C386.857 190.651 386.601 191.049 386.405 191.492C385.341 193.901 386.431 196.717 388.842 197.781C391.252 198.845 394.069 197.755 395.134 195.346C395.813 193.81 395.612 192.11 394.755 190.802Z" fill="#F0C9A5"/>
<path d="M394.994 95.9893C398.195 95.8059 400.783 98.5605 400.399 101.742L408.164 144.987L409.399 147.585L407.983 149.047L407.685 152.398L395.862 183.607L381.088 184.154L386.592 118.863L390.418 99.4628C391.095 97.4825 392.904 96.1092 394.994 95.9893Z" fill="#0066CC"/>
<path d="M380.002 183.728C379.86 193.982 384.273 196.173 391.392 194.027C397.414 192.212 402.781 190.015 402.781 183.728C402.781 177.441 399.12 168.143 391.392 171.26C384.477 167.465 376.534 176.458 380.002 183.728Z" fill="#8ED258"/>
<path d="M391.802 171.515C392.71 169.862 392.773 167.842 391.929 166.149C391.176 164.641 389.687 163.519 388.046 163.166C387.152 162.973 386.771 164.345 387.667 164.538C388.943 164.812 389.689 170.056 390.301 171.215C390.958 172.461 391.245 169.573 390.572 170.797C390.131 171.6 391.36 172.319 391.802 171.515Z" fill="#212529"/>
<path d="M323.057 59.9302C323.057 66.2173 327.328 72.3754 334.446 70.2298C340.468 68.4145 348.143 69.167 342.177 58.5652C350.132 54.5896 342.174 44.3454 334.446 47.4624C327.531 43.6678 323.057 53.6432 323.057 59.9302Z" fill="#FD7E14"/>
<path d="M334.856 47.7179C337.626 48.3657 336.202 48.6446 334.983 45.0022C334.448 43.4044 332.742 42.3716 331.1 42.0184C330.207 41.8262 329.825 43.1976 330.722 43.3905C331.997 43.6649 333.093 44.4652 333.704 45.6238C334.362 46.8701 334.3 45.7759 333.627 46.9997C333.185 47.8028 334.414 48.5216 334.856 47.7179Z" fill="#212529"/>
<path d="M402.614 312.515C403.984 312.601 404.741 310.9 403.704 309.909L403.601 309.499C403.615 309.466 403.628 309.434 403.642 309.401C405.027 306.1 409.721 306.123 411.094 309.429C412.313 312.363 413.865 315.302 414.247 318.404C414.418 319.774 414.341 321.169 414.037 322.513C416.893 316.277 418.396 309.468 418.396 302.621C418.396 300.9 418.302 299.18 418.109 297.464C417.951 296.06 417.733 294.665 417.45 293.282C415.921 285.81 412.612 278.693 407.837 272.748C405.542 271.494 403.628 269.534 402.472 267.185C402.057 266.337 401.732 265.426 401.577 264.497C401.839 264.531 402.562 260.555 402.365 260.311C402.729 259.759 403.381 259.485 403.778 258.946C405.755 256.267 408.479 256.735 409.901 260.376C412.939 261.908 412.968 264.449 411.104 266.894C409.919 268.449 409.756 270.553 408.715 272.218C408.822 272.354 408.934 272.487 409.041 272.624C411.004 275.141 412.701 277.846 414.133 280.687C413.728 277.529 414.325 273.724 415.343 271.272C416.502 268.477 418.675 266.124 420.587 263.708C422.885 260.806 427.597 262.073 428.002 265.751C428.006 265.787 428.009 265.822 428.013 265.858C427.729 266.018 427.451 266.188 427.179 266.368C425.628 267.393 426.164 269.796 428.001 270.08L428.043 270.086C427.94 271.109 427.765 272.123 427.508 273.121C429.962 282.606 424.664 286.061 417.099 286.216C416.932 286.302 416.769 286.388 416.602 286.469C417.369 288.626 417.981 290.839 418.435 293.081C418.842 295.063 419.124 297.065 419.283 299.077C419.48 301.615 419.462 304.166 419.248 306.699L419.261 306.609C419.805 303.819 421.321 301.213 423.522 299.407C426.8 296.715 431.432 295.723 434.969 293.559C436.672 292.518 438.854 293.864 438.556 295.837L438.542 295.931C438.015 296.145 437.501 296.394 437.005 296.672C436.721 296.832 436.442 297.002 436.17 297.182C434.619 298.207 435.155 300.61 436.993 300.894L437.035 300.9C437.065 300.904 437.09 300.909 437.12 300.913C436.217 303.057 434.958 305.047 433.382 306.763C431.848 315.044 425.258 315.83 418.208 313.418H418.204C417.433 316.774 416.307 320.052 414.859 323.176H402.913C402.871 323.043 402.832 322.906 402.793 322.774C403.898 322.842 405.011 322.778 406.099 322.577C405.213 321.49 404.326 320.394 403.44 319.307C403.419 319.286 403.402 319.264 403.384 319.243C402.935 318.687 402.481 318.135 402.031 317.578L402.031 317.578C402.003 315.87 402.208 314.167 402.614 312.515Z" fill="#F2F2F2"/>
<path d="M269 323.212C269 323.649 269.351 324 269.789 324H437.702C438.139 324 438.491 323.649 438.491 323.212C438.491 322.774 438.139 322.423 437.702 322.423H269.789C269.351 322.423 269 322.774 269 323.212Z" fill="#CCCCCC"/>
<path d="M355.55 52.287C354.688 52.711 353.879 53.2411 353.15 53.8507C352.938 54.0296 354.947 54.2682 354.748 54.4537C356.173 56.7464 350.233 59.6154 352.759 59.7546C353.263 58.6812 361.039 56.1699 361.881 55.3416C361.761 56.2957 358.613 57.4818 358.725 58.4294C361.556 58.2505 367.867 57.1903 371.321 55.7789C369.24 59.9237 369.224 63.1813 373.973 64.3929C377.526 64.3929 380.007 67.9118 378.812 71.2569L377.95 73.6694L381.265 70.3563C382.643 68.9785 385.313 65.7188 386.192 62.2387C386.823 59.7393 386.309 57.1204 384.995 54.902C384.947 54.8201 384.903 54.741 384.864 54.6657C385.614 55.0103 386.396 55.2753 387.198 55.4543C387.231 54.0097 381.623 51.3328 381.265 50.478C379.601 46.4958 382.027 46.5024 375.298 46.5024C374.718 46.1159 373.553 46.7762 371.984 46.5024C369.096 45.9985 367.902 44.0287 364.316 44.7819C361.222 45.4319 358.211 46.3853 355.876 47.3578L354.748 47.8276C354.065 48.9209 353.786 49.9413 353.826 50.869C353.886 50.8557 353.952 50.8425 354.012 50.8358C355.185 50.6702 354.396 52.0352 355.55 52.287Z" fill="#212529"/>
</svg>
