<svg width="100" height="100" viewBox="0 0 100 100" fill="none" xmlns="http://www.w3.org/2000/svg">
<g clip-path="url(#clip0_55_1288)">
<rect x="1" y="1" width="98" height="98" rx="22" stroke="#0066CC" stroke-width="2"/>
<path d="M21.9372 65.8945C21.7832 65.8945 21.6622 65.8565 21.5742 65.7806C21.4972 65.7046 21.4367 65.607 21.3927 65.4877L19.033 57.954C19.011 57.8997 19 57.8455 19 57.7913C19 57.6936 19.033 57.6123 19.099 57.5472C19.176 57.4713 19.264 57.4333 19.363 57.4333H20.8151C20.9582 57.4333 21.0682 57.4713 21.1452 57.5472C21.2222 57.6231 21.2717 57.6936 21.2937 57.7587L22.7953 62.7866L24.3959 57.7913C24.4179 57.7153 24.4674 57.6394 24.5444 57.5635C24.6325 57.4767 24.7535 57.4333 24.9075 57.4333H25.8481C26.0021 57.4333 26.1176 57.4767 26.1946 57.5635C26.2826 57.6394 26.3376 57.7153 26.3596 57.7913L27.9602 62.7866L29.4618 57.7587C29.4728 57.6936 29.5168 57.6231 29.5939 57.5472C29.6819 57.4713 29.7919 57.4333 29.9239 57.4333H31.376C31.475 57.4333 31.5575 57.4713 31.6235 57.5472C31.7005 57.6123 31.739 57.6936 31.739 57.7913C31.739 57.8455 31.7335 57.8997 31.7225 57.954L29.3463 65.4877C29.3133 65.607 29.2528 65.7046 29.1648 65.7806C29.0878 65.8565 28.9723 65.8945 28.8183 65.8945H27.5477C27.3937 65.8945 27.2727 65.8565 27.1847 65.7806C27.0967 65.7046 27.0306 65.607 26.9866 65.4877L25.386 60.6713L23.7524 65.4877C23.7194 65.607 23.6589 65.7046 23.5709 65.7806C23.4829 65.8565 23.3619 65.8945 23.2078 65.8945H21.9372Z" fill="#0066CC"/>
<path d="M33.6549 65.8945C33.5448 65.8945 33.4513 65.8565 33.3743 65.7806C33.2973 65.7046 33.2588 65.607 33.2588 65.4877V57.8401C33.2588 57.7207 33.2973 57.6231 33.3743 57.5472C33.4513 57.4713 33.5448 57.4333 33.6549 57.4333H35.305C35.426 57.4333 35.525 57.4713 35.602 57.5472C35.679 57.6231 35.7175 57.7207 35.7175 57.8401V65.4877C35.7175 65.607 35.679 65.7046 35.602 65.7806C35.525 65.8565 35.426 65.8945 35.305 65.8945H33.6549ZM33.6054 56.1316C33.4953 56.1316 33.4018 56.0936 33.3248 56.0177C33.2478 55.9417 33.2093 55.8441 33.2093 55.7248V54.4231C33.2093 54.3037 33.2478 54.2061 33.3248 54.1302C33.4018 54.0434 33.4953 54 33.6054 54H35.338C35.459 54 35.558 54.0434 35.635 54.1302C35.723 54.2061 35.767 54.3037 35.767 54.4231V55.7248C35.767 55.8441 35.723 55.9417 35.635 56.0177C35.558 56.0936 35.459 56.1316 35.338 56.1316H33.6054Z" fill="#0066CC"/>
<path d="M41.9123 65.8945C41.2303 65.8945 40.6472 65.786 40.1632 65.569C39.6792 65.3412 39.3106 64.9941 39.0576 64.5277C38.8156 64.0612 38.6946 63.4754 38.6946 62.7703V59.3533H37.4075C37.2865 59.3533 37.1875 59.3154 37.1105 59.2394C37.0335 59.1635 36.995 59.0659 36.995 58.9465V57.8401C36.995 57.7207 37.0335 57.6231 37.1105 57.5472C37.1875 57.4713 37.2865 57.4333 37.4075 57.4333H38.6946V54.7485C38.6946 54.6292 38.7331 54.5315 38.8101 54.4556C38.8981 54.3797 38.9971 54.3417 39.1071 54.3417H40.7243C40.8453 54.3417 40.9443 54.3797 41.0213 54.4556C41.0983 54.5315 41.1368 54.6292 41.1368 54.7485V57.4333H43.1995C43.3095 57.4333 43.403 57.4713 43.48 57.5472C43.557 57.6231 43.5955 57.7207 43.5955 57.8401V58.9465C43.5955 59.0659 43.557 59.1635 43.48 59.2394C43.403 59.3154 43.3095 59.3533 43.1995 59.3533H41.1368V62.5751C41.1368 62.9873 41.2083 63.3127 41.3513 63.5514C41.5053 63.7792 41.7693 63.8931 42.1434 63.8931H43.348C43.458 63.8931 43.5515 63.931 43.6285 64.007C43.7055 64.0829 43.744 64.1751 43.744 64.2836V65.4877C43.744 65.607 43.7055 65.7046 43.6285 65.7806C43.5515 65.8565 43.458 65.8945 43.348 65.8945H41.9123Z" fill="#0066CC"/>
<path d="M45.5961 65.8945C45.4751 65.8945 45.3761 65.8565 45.2991 65.7806C45.2221 65.7046 45.1836 65.607 45.1836 65.4877V54.7485C45.1836 54.6292 45.2221 54.5315 45.2991 54.4556C45.3761 54.3797 45.4751 54.3417 45.5961 54.3417H47.3783C47.4883 54.3417 47.5818 54.3797 47.6588 54.4556C47.7358 54.5315 47.7743 54.6292 47.7743 54.7485V58.4096C48.0713 58.0625 48.4344 57.7858 48.8634 57.5797C49.2924 57.3736 49.8095 57.2706 50.4145 57.2706C51.0636 57.2706 51.6356 57.417 52.1307 57.7099C52.6367 57.9919 53.0327 58.4096 53.3188 58.9628C53.6048 59.5052 53.7478 60.1669 53.7478 60.9479V65.4877C53.7478 65.607 53.7093 65.7046 53.6323 65.7806C53.5553 65.8565 53.4563 65.8945 53.3353 65.8945H51.5366C51.4266 65.8945 51.3331 65.8565 51.2561 65.7806C51.1791 65.7046 51.1406 65.607 51.1406 65.4877V61.0456C51.1406 60.4706 50.9976 60.0259 50.7116 59.7113C50.4255 59.3859 50.0185 59.2232 49.4905 59.2232C48.9734 59.2232 48.5554 59.3859 48.2364 59.7113C47.9283 60.0259 47.7743 60.4706 47.7743 61.0456V65.4877C47.7743 65.607 47.7358 65.7046 47.6588 65.7806C47.5818 65.8565 47.4883 65.8945 47.3783 65.8945H45.5961Z" fill="#0066CC"/>
<path d="M59.6499 66.0572C58.7368 66.0572 57.9722 65.9107 57.3562 65.6179C56.7401 65.3141 56.2671 64.8856 55.9371 64.3324C55.618 63.7792 55.442 63.1337 55.409 62.3961C55.398 62.1791 55.3925 61.9351 55.3925 61.6639C55.3925 61.3818 55.398 61.1378 55.409 60.9317C55.442 60.1832 55.629 59.5377 55.9701 58.9954C56.3111 58.4421 56.7896 58.0191 57.4057 57.7262C58.0217 57.4224 58.7698 57.2706 59.6499 57.2706C60.5189 57.2706 61.2615 57.4224 61.8775 57.7262C62.4936 58.0191 62.9721 58.4421 63.3132 58.9954C63.6542 59.5377 63.8412 60.1832 63.8742 60.9317C63.8962 61.1378 63.9072 61.3818 63.9072 61.6639C63.9072 61.9351 63.8962 62.1791 63.8742 62.3961C63.8412 63.1337 63.6597 63.7792 63.3297 64.3324C63.0106 64.8856 62.5431 65.3141 61.927 65.6179C61.311 65.9107 60.5519 66.0572 59.6499 66.0572ZM59.6499 64.2673C60.1889 64.2673 60.5959 64.1046 60.871 63.7792C61.146 63.4429 61.2945 62.9548 61.3165 62.3147C61.3275 62.152 61.333 61.9351 61.333 61.6639C61.333 61.3927 61.3275 61.1757 61.3165 61.013C61.2945 60.3839 61.146 59.9011 60.871 59.5649C60.5959 59.2286 60.1889 59.0604 59.6499 59.0604C59.1108 59.0604 58.6983 59.2286 58.4123 59.5649C58.1372 59.9011 57.9887 60.3839 57.9667 61.013C57.9557 61.1757 57.9502 61.3927 57.9502 61.6639C57.9502 61.9351 57.9557 62.152 57.9667 62.3147C57.9887 62.9548 58.1372 63.4429 58.4123 63.7792C58.6983 64.1046 59.1108 64.2673 59.6499 64.2673Z" fill="#0066CC"/>
<path d="M68.7848 66.0572C68.1467 66.0572 67.5802 65.9162 67.0851 65.6341C66.6011 65.3412 66.2216 64.9236 65.9465 64.3812C65.6825 63.828 65.5505 63.1609 65.5505 62.3798V57.8401C65.5505 57.7207 65.589 57.6231 65.666 57.5472C65.743 57.4713 65.8365 57.4333 65.9465 57.4333H67.6957C67.8167 57.4333 67.9157 57.4713 67.9927 57.5472C68.0697 57.6231 68.1082 57.7207 68.1082 57.8401V62.2822C68.1082 63.4971 68.6472 64.1046 69.7253 64.1046C70.2424 64.1046 70.6494 63.9473 70.9464 63.6327C71.2545 63.3073 71.4085 62.8571 71.4085 62.2822V57.8401C71.4085 57.7207 71.447 57.6231 71.524 57.5472C71.601 57.4713 71.7 57.4333 71.821 57.4333H73.5701C73.6802 57.4333 73.7737 57.4713 73.8507 57.5472C73.9277 57.6231 73.9662 57.7207 73.9662 57.8401V65.4877C73.9662 65.607 73.9277 65.7046 73.8507 65.7806C73.7737 65.8565 73.6802 65.8945 73.5701 65.8945H71.953C71.832 65.8945 71.733 65.8565 71.656 65.7806C71.579 65.7046 71.5405 65.607 71.5405 65.4877V64.8531C71.2545 65.2436 70.8859 65.5419 70.4349 65.748C69.9839 65.9541 69.4338 66.0572 68.7848 66.0572Z" fill="#0066CC"/>
<path d="M80.1684 65.8945C79.4863 65.8945 78.9033 65.786 78.4192 65.569C77.9352 65.3412 77.5666 64.9941 77.3136 64.5277C77.0716 64.0612 76.9506 63.4754 76.9506 62.7703V59.3533H75.6635C75.5425 59.3533 75.4435 59.3154 75.3665 59.2394C75.2895 59.1635 75.251 59.0659 75.251 58.9465V57.8401C75.251 57.7207 75.2895 57.6231 75.3665 57.5472C75.4435 57.4713 75.5425 57.4333 75.6635 57.4333H76.9506V54.7485C76.9506 54.6292 76.9891 54.5315 77.0661 54.4556C77.1541 54.3797 77.2531 54.3417 77.3631 54.3417H78.9803C79.1013 54.3417 79.2003 54.3797 79.2773 54.4556C79.3543 54.5315 79.3928 54.6292 79.3928 54.7485V57.4333H81.4555C81.5655 57.4333 81.659 57.4713 81.736 57.5472C81.813 57.6231 81.8515 57.7207 81.8515 57.8401V58.9465C81.8515 59.0659 81.813 59.1635 81.736 59.2394C81.659 59.3154 81.5655 59.3533 81.4555 59.3533H79.3928V62.5751C79.3928 62.9873 79.4643 63.3127 79.6073 63.5514C79.7613 63.7792 80.0253 63.8931 80.3994 63.8931H81.604C81.714 63.8931 81.8075 63.931 81.8845 64.007C81.9615 64.0829 82 64.1751 82 64.2836V65.4877C82 65.607 81.9615 65.7046 81.8845 65.7806C81.8075 65.8565 81.714 65.8945 81.604 65.8945H80.1684Z" fill="#0066CC"/>
<path d="M31.8424 85.4203C31.7213 85.4203 31.6223 85.3823 31.5453 85.3064C31.4683 85.2304 31.4298 85.1328 31.4298 85.0135V74.2743C31.4298 74.155 31.4683 74.0573 31.5453 73.9814C31.6223 73.9055 31.7213 73.8675 31.8424 73.8675H33.4925C33.6025 73.8675 33.696 73.9055 33.773 73.9814C33.85 74.0573 33.8885 74.155 33.8885 74.2743V85.0135C33.8885 85.1328 33.85 85.2304 33.773 85.3064C33.696 85.3823 33.6025 85.4203 33.4925 85.4203H31.8424Z" fill="#0066CC"/>
<path d="M39.9014 85.583C38.9884 85.583 38.2238 85.4365 37.6078 85.1437C36.9917 84.8399 36.5187 84.4114 36.1886 83.8582C35.8696 83.305 35.6936 82.6595 35.6606 81.9219C35.6496 81.7049 35.6441 81.4609 35.6441 81.1897C35.6441 80.9076 35.6496 80.6636 35.6606 80.4575C35.6936 79.709 35.8806 79.0635 36.2216 78.5212C36.5627 77.9679 37.0412 77.5449 37.6573 77.252C38.2733 76.9482 39.0214 76.7964 39.9014 76.7964C40.7705 76.7964 41.5131 76.9482 42.1291 77.252C42.7452 77.5449 43.2237 77.9679 43.5647 78.5212C43.9058 79.0635 44.0928 79.709 44.1258 80.4575C44.1478 80.6636 44.1588 80.9076 44.1588 81.1897C44.1588 81.4609 44.1478 81.7049 44.1258 81.9219C44.0928 82.6595 43.9113 83.305 43.5812 83.8582C43.2622 84.4114 42.7947 84.8399 42.1786 85.1437C41.5626 85.4365 40.8035 85.583 39.9014 85.583ZM39.9014 83.7931C40.4405 83.7931 40.8475 83.6304 41.1225 83.305C41.3976 82.9687 41.5461 82.4806 41.5681 81.8405C41.5791 81.6778 41.5846 81.4609 41.5846 81.1897C41.5846 80.9185 41.5791 80.7015 41.5681 80.5388C41.5461 79.9097 41.3976 79.4269 41.1225 79.0907C40.8475 78.7544 40.4405 78.5862 39.9014 78.5862C39.3624 78.5862 38.9499 78.7544 38.6638 79.0907C38.3888 79.4269 38.2403 79.9097 38.2183 80.5388C38.2073 80.7015 38.2018 80.9185 38.2018 81.1897C38.2018 81.4609 38.2073 81.6778 38.2183 81.8405C38.2403 82.4806 38.3888 82.9687 38.6638 83.305C38.9499 83.6304 39.3624 83.7931 39.9014 83.7931Z" fill="#0066CC"/>
<path d="M49.9109 89C49.0969 89 48.4203 88.8915 47.8813 88.6746C47.3422 88.4685 46.9132 88.2135 46.5942 87.9098C46.2861 87.6169 46.0661 87.324 45.9341 87.0311C45.8021 86.7383 45.7306 86.5105 45.7196 86.3477C45.7086 86.2284 45.7471 86.1308 45.8351 86.0549C45.9231 85.9789 46.0221 85.941 46.1321 85.941H47.8978C47.9968 85.941 48.0793 85.9627 48.1453 86.006C48.2223 86.0603 48.2828 86.1471 48.3268 86.2664C48.3818 86.3966 48.4588 86.5322 48.5578 86.6732C48.6568 86.825 48.8053 86.9498 49.0033 87.0474C49.2124 87.1451 49.4874 87.1939 49.8284 87.1939C50.2134 87.1939 50.5325 87.1396 50.7855 87.0311C51.0385 86.9227 51.2255 86.7383 51.3465 86.4779C51.4785 86.2176 51.5445 85.865 51.5445 85.4203V84.3301C51.2805 84.6121 50.945 84.8453 50.538 85.0298C50.1419 85.2142 49.6524 85.3064 49.0693 85.3064C48.4973 85.3064 47.9913 85.2196 47.5512 85.046C47.1222 84.8616 46.7647 84.6067 46.4786 84.2813C46.1926 83.945 45.9726 83.5436 45.8186 83.0772C45.6646 82.6107 45.5766 82.0846 45.5546 81.4988C45.5436 81.2059 45.5436 80.9185 45.5546 80.6364C45.5766 80.0724 45.6646 79.5571 45.8186 79.0907C45.9726 78.6242 46.1926 78.2228 46.4786 77.8866C46.7647 77.5394 47.1222 77.2737 47.5512 77.0893C47.9913 76.894 48.4973 76.7964 49.0693 76.7964C49.6744 76.7964 50.1914 76.9103 50.6205 77.1381C51.0495 77.3659 51.4015 77.6479 51.6766 77.9842V77.3659C51.6766 77.2574 51.7151 77.1652 51.7921 77.0893C51.8691 77.0025 51.9626 76.9591 52.0726 76.9591H53.6897C53.7997 76.9591 53.8932 77.0025 53.9702 77.0893C54.0583 77.1652 54.1023 77.2574 54.1023 77.3659L54.1188 85.1925C54.1188 86.006 53.9592 86.6949 53.6402 87.2589C53.3212 87.823 52.8482 88.2515 52.2211 88.5444C51.6051 88.8481 50.835 89 49.9109 89ZM49.8284 83.4026C50.2244 83.4026 50.5435 83.3158 50.7855 83.1423C51.0385 82.9578 51.2255 82.73 51.3465 82.4589C51.4675 82.1768 51.5335 81.8839 51.5445 81.5802C51.5555 81.4609 51.5611 81.2927 51.5611 81.0758C51.5611 80.848 51.5555 80.6744 51.5445 80.5551C51.5335 80.2514 51.4675 79.9639 51.3465 79.6927C51.2255 79.4107 51.0385 79.1829 50.7855 79.0093C50.5435 78.8357 50.2244 78.749 49.8284 78.749C49.4104 78.749 49.0803 78.8412 48.8383 79.0256C48.5963 79.1991 48.4203 79.4324 48.3103 79.7252C48.2003 80.0181 48.1343 80.3381 48.1123 80.6853C48.1013 80.9456 48.1013 81.2005 48.1123 81.45C48.1343 81.808 48.2003 82.1334 48.3103 82.4263C48.4203 82.7192 48.5963 82.9578 48.8383 83.1423C49.0803 83.3158 49.4104 83.4026 49.8284 83.4026Z" fill="#0066CC"/>
<path d="M56.594 85.4203C56.4839 85.4203 56.3904 85.3823 56.3134 85.3064C56.2364 85.2304 56.1979 85.1328 56.1979 85.0135V77.3659C56.1979 77.2466 56.2364 77.1489 56.3134 77.073C56.3904 76.9971 56.4839 76.9591 56.594 76.9591H58.2441C58.3651 76.9591 58.4641 76.9971 58.5411 77.073C58.6181 77.1489 58.6566 77.2466 58.6566 77.3659V85.0135C58.6566 85.1328 58.6181 85.2304 58.5411 85.3064C58.4641 85.3823 58.3651 85.4203 58.2441 85.4203H56.594ZM56.5444 75.6574C56.4344 75.6574 56.3409 75.6194 56.2639 75.5435C56.1869 75.4675 56.1484 75.3699 56.1484 75.2506V73.9489C56.1484 73.8295 56.1869 73.7319 56.2639 73.656C56.3409 73.5692 56.4344 73.5258 56.5444 73.5258H58.2771C58.3981 73.5258 58.4971 73.5692 58.5741 73.656C58.6621 73.7319 58.7061 73.8295 58.7061 73.9489V75.2506C58.7061 75.3699 58.6621 75.4675 58.5741 75.5435C58.4971 75.6194 58.3981 75.6574 58.2771 75.6574H56.5444Z" fill="#0066CC"/>
<path d="M61.5411 85.4203C61.4311 85.4203 61.3376 85.3823 61.2606 85.3064C61.1836 85.2304 61.1451 85.1328 61.1451 85.0135V77.3659C61.1451 77.2466 61.1836 77.1489 61.2606 77.073C61.3376 76.9971 61.4311 76.9591 61.5411 76.9591H63.1583C63.2793 76.9591 63.3783 76.9971 63.4553 77.073C63.5323 77.1489 63.5708 77.2466 63.5708 77.3659V78.0005C63.8568 77.6533 64.2253 77.3659 64.6764 77.1381C65.1274 76.9103 65.6775 76.7964 66.3265 76.7964C66.9756 76.7964 67.5421 76.9428 68.0261 77.2357C68.5212 77.5177 68.9062 77.9354 69.1812 78.4886C69.4673 79.031 69.6103 79.6927 69.6103 80.4737V85.0135C69.6103 85.1328 69.5663 85.2304 69.4783 85.3064C69.4013 85.3823 69.3078 85.4203 69.1977 85.4203H67.4486C67.3276 85.4203 67.2286 85.3823 67.1516 85.3064C67.0746 85.2304 67.0361 85.1328 67.0361 85.0135V80.5714C67.0361 79.9964 66.8931 79.5517 66.607 79.2371C66.332 78.9117 65.925 78.749 65.3859 78.749C64.8689 78.749 64.4564 78.9117 64.1483 79.2371C63.8403 79.5517 63.6863 79.9964 63.6863 80.5714V85.0135C63.6863 85.1328 63.6478 85.2304 63.5708 85.3064C63.4938 85.3823 63.4003 85.4203 63.2903 85.4203H61.5411Z" fill="#0066CC"/>
<path d="M65.8193 33C65.8193 36.9782 64.239 40.7936 61.4259 43.6066C58.6129 46.4196 54.7976 48 50.8193 48C46.8411 48 43.0258 46.4196 40.2127 43.6066C37.3997 40.7936 35.8193 36.9782 35.8193 33" stroke="#0066CC" stroke-width="2" stroke-linecap="round"/>
<path d="M50.1122 40.7071C50.5028 41.0976 51.1359 41.0976 51.5264 40.7071L57.8904 34.3431C58.2809 33.9526 58.2809 33.3195 57.8904 32.9289C57.4999 32.5384 56.8667 32.5384 56.4762 32.9289L50.8193 38.5858L45.1625 32.9289C44.772 32.5384 44.1388 32.5384 43.7483 32.9289C43.3577 33.3195 43.3577 33.9526 43.7483 34.3431L50.1122 40.7071ZM49.8193 11V40H51.8193V11H49.8193Z" fill="#0066CC"/>
<path d="M69.6875 42.5239L31.87 12.4963C31.471 12.1795 30.8906 12.2461 30.5738 12.6451C30.2569 13.0442 30.3235 13.6245 30.7226 13.9414L68.5401 43.969C68.9392 44.2858 69.5195 44.2192 69.8364 43.8201C70.1532 43.4211 70.0866 42.8407 69.6875 42.5239Z" fill="#FF2626"/>
<path d="M32.2793 44.3691L70.0968 14.3415C70.4958 14.0247 70.5625 13.4443 70.2456 13.0453C69.9288 12.6462 69.3484 12.5796 68.9494 12.8965L31.1319 42.924C30.7328 43.2409 30.6662 43.8212 30.983 44.2203C31.2999 44.6193 31.8802 44.686 32.2793 44.3691Z" fill="#FF2626"/>
</g>
<defs>
<clipPath id="clip0_55_1288">
<rect width="100" height="100" fill="white"/>
</clipPath>
</defs>
</svg>
