<svg width="563" height="537" viewBox="0 0 563 537" fill="none" xmlns="http://www.w3.org/2000/svg">
<g clip-path="url(#clip0_7686_7367)">
<path fill-rule="evenodd" clip-rule="evenodd" d="M136.024 395.135C77.1056 355.09 28.927 289.684 35.3139 218.667C41.0173 155.251 110.999 126.087 163.466 90.0008C201.509 63.8353 241.148 45.4214 287.29 45.3605C345.704 45.2834 412.484 43.1309 447.823 89.6255C486.121 140.014 477.296 209.591 457.974 269.925C437.072 335.195 404.002 401.02 340.147 425.854C272.64 452.108 195.883 435.82 136.024 395.135Z" fill="#F0FCEB"/>
<path d="M454.604 234.891C449.938 231.961 444.593 230.121 439.112 229.559C436.581 229.299 433.815 229.373 431.784 230.906C431.353 231.231 430.933 231.713 431.029 232.244C431.1 232.635 431.43 232.919 431.745 233.159C438.049 237.968 447.584 238.575 454.604 234.891Z" fill="#D2DECD"/>
<path d="M454.207 234.453C450.7 231.716 447.172 228.96 444.201 225.649C441.23 222.338 438.815 218.407 437.928 214.047C437.659 212.725 437.575 211.214 438.424 210.165C446.399 216.394 452.665 224.451 454.207 234.453Z" fill="#D2DECD"/>
<path d="M454.52 234.831C453.919 230.468 453.703 225.983 454.705 221.694C455.707 217.405 458.04 213.3 461.703 210.854C463.082 214.075 462.489 217.787 461.518 221.153C460.018 226.356 457.664 231.311 454.579 235.762" fill="#D2DECD"/>
<path d="M462.34 248.841C457.594 249.418 453.46 251.92 449.916 255.129C446.372 258.338 443.853 262.663 442.809 267.329C447.465 267.041 451.414 263.758 454.279 260.077C457.144 256.396 459.128 252.357 462.275 248.914" fill="#D2DECD"/>
<path d="M464.039 251.082C460.216 241.665 461.601 230.318 467.577 222.097C470.281 231.715 469.288 242.58 464.039 251.082Z" fill="#D2DECD"/>
<path d="M474.371 263.383C470.064 263.115 465.684 264.142 461.944 266.295C458.204 268.448 455.117 271.72 453.185 275.579C452.922 276.104 452.691 276.771 453.042 277.24C453.347 277.648 453.938 277.686 454.447 277.653C458.622 277.383 462.323 274.87 465.377 272.01C468.431 269.149 471.091 265.845 474.465 263.371" fill="#D2DECD"/>
<path d="M474.039 262.713C471.817 255.603 471.679 247.856 473.645 240.671C474.422 237.834 475.725 234.847 478.349 233.517C478.573 233.403 478.834 233.302 479.069 233.391C479.292 233.475 479.421 233.703 479.524 233.918C480.458 235.868 480.729 238.082 480.633 240.242C480.537 242.402 480.089 244.528 479.642 246.644C478.816 250.557 478.376 254.761 476.23 258.135C475.721 258.936 475.272 259.801 474.866 260.659C474.46 261.517 474.457 261.819 474.084 262.501" fill="#D2DECD"/>
<path d="M501.388 266.788C499.362 259.081 501.513 249.738 506.369 243.421C506.727 242.956 507.201 242.457 507.785 242.511C508.679 242.594 508.911 243.785 508.871 244.683C508.52 252.558 505.893 260.318 501.388 266.788Z" fill="#D2DECD"/>
<path d="M503.852 268.473C513.215 270.909 523.957 268.541 531.744 262.8C527.129 260.461 521.689 259.793 516.645 260.947C511.601 262.101 506.992 264.36 503.852 268.473Z" fill="#D2DECD"/>
<path d="M505.934 263.342C511.178 254.793 521.231 249.212 531.248 248.705C530.094 252.779 526.746 255.946 522.968 257.859C519.19 259.772 514.974 260.605 510.817 261.413C509.2 261.726 506.982 262.071 505.934 263.342Z" fill="#D2DECD"/>
<path d="M501.907 238.442C503.327 233.577 504.755 228.67 505.144 223.617C505.534 218.564 504.813 213.289 502.191 208.953C497.293 218.431 496.797 229.506 501.759 238.951" fill="#D2DECD"/>
<path d="M518.398 230.107C524.126 219.696 535.813 211.38 547.638 210.215C543.076 221.573 530.636 230.351 518.398 230.107Z" fill="#D2DECD"/>
<path d="M514.797 232.147C523.34 233.448 530.618 238.905 538.602 242.212C540.309 242.919 542.151 243.483 543.983 243.243C545.816 243.003 547.624 241.774 548.034 239.972C548.375 238.476 547.694 236.887 546.62 235.791C545.546 234.695 544.128 234.01 542.711 233.42C534.016 229.8 524.691 229.71 515.531 231.905" fill="#D2DECD"/>
<path d="M509.852 238.139C511.786 238.693 512.447 239.694 513.978 240.998C519.174 245.423 525.406 248.625 532.029 250.271C532.719 250.442 533.623 250.511 533.965 249.887C534.264 249.343 533.886 248.684 533.498 248.199C530.723 244.727 526.764 242.352 522.599 240.8C518.433 239.249 514.824 237.379 509.852 237.78" fill="#D2DECD"/>
<path d="M504.273 201.95C511.22 208.434 521.004 211.763 530.464 210.861C530.894 210.82 531.364 210.752 531.656 210.433C532.315 209.716 531.524 208.609 530.756 208.01C523.056 202.007 513.729 199.518 504.273 201.95Z" fill="#D2DECD"/>
<path d="M510.887 199.53C520.07 192.646 532.662 190.568 543.569 194.137C539.453 198.193 533.743 200.376 527.995 200.974C522.248 201.573 516.492 200.935 510.887 199.53Z" fill="#D2DECD"/>
<path d="M508.258 182.9C507.502 175.214 507.993 169.147 507.459 161.425C507.416 160.808 507.284 160.066 506.707 159.844C505.903 159.534 505.234 160.522 504.97 161.342C502.681 168.46 503.932 176.624 508.247 182.731" fill="#D2DECD"/>
<path d="M507.707 183.75C512.916 180.528 516.825 176.321 520.439 171.376C522.954 167.935 525.074 163.813 524.502 159.59C520.971 159.519 517.615 161.467 515.318 164.151C513.021 166.834 511.656 170.189 510.636 173.57C509.617 176.951 508.903 180.426 507.707 183.75Z" fill="#D2DECD"/>
<path d="M520.215 180.275C531.648 176.047 542.314 169.758 551.547 161.8C547.804 160.292 543.519 161.195 539.777 162.705C531.228 166.156 524.243 171.981 520.051 180.192" fill="#D2DECD"/>
<path d="M511.223 187.954C517.007 188.586 522.882 188.998 528.621 188.039C534.262 187.096 539.592 184.861 544.863 182.642C545.3 182.458 545.775 182.238 545.967 181.804C546.175 181.333 545.953 180.76 545.571 180.414C545.189 180.069 544.682 179.903 544.186 179.765C538.456 178.162 532.272 178.912 526.634 180.814C520.996 182.716 516.373 184.974 511.223 187.954Z" fill="#D2DECD"/>
<path d="M478.196 202.213C474.25 194.248 474.506 184.952 477.915 176.742C480.315 180.398 480.607 185.055 480.168 189.406C479.729 193.757 478.405 198.236 478.319 202.608" fill="#D2DECD"/>
<path d="M462.433 194.262C452.581 194.074 442.725 198.272 436.035 205.507C440.952 206.279 446.017 205.011 450.49 202.827C454.963 200.643 458.938 197.578 462.877 194.536" fill="#D2DECD"/>
<path d="M451.833 190.718C447.013 190.327 442.375 189.73 437.741 191.151C433.107 192.571 428.889 195.794 427 200.258C431.508 200.766 436.079 199.636 440.212 197.763C444.344 195.89 448.101 193.297 451.833 190.718Z" fill="#D2DECD"/>
<path d="M467.526 190.88C463.19 188.039 458.738 185.146 453.69 183.969C448.641 182.792 442.791 183.662 439.27 187.467C443.357 189.865 448.315 190.149 453.054 190.145C457.793 190.141 463.602 190.088 468.069 191.668" fill="#D2DECD"/>
<path d="M467.55 191.109C460.137 183.83 457.327 170.754 460.309 160.802C466.136 169.655 468.745 180.577 467.55 191.109Z" fill="#D2DECD"/>
<path d="M487.934 170.484C489.332 167.234 490.315 163.823 491.569 160.515C492.823 157.207 494.382 153.951 496.752 151.324C499.122 148.697 502.399 146.741 505.933 146.566C503.721 156.582 497.068 165.531 488.115 170.536" fill="#D2DECD"/>
<path d="M484.246 174.782C481.932 171.598 479.259 167.275 476.122 164.898C472.985 162.521 468.899 161.083 465.07 161.996C468.965 168.957 476.323 173.863 484.246 174.782Z" fill="#D2DECD"/>
<path d="M484.982 170.75C483.466 166.897 481.938 163.002 481.325 158.907C480.712 154.812 481.085 150.437 483.179 146.865C487.248 154.557 488.559 162.814 485.189 170.837" fill="#D2DECD"/>
<path d="M487.973 146.865C490.278 139.24 497.26 133.626 504.798 131.049C505.748 130.724 506.755 130.453 507.748 130.607C508.741 130.76 509.714 131.439 509.922 132.422C510.197 133.719 509.125 134.882 508.118 135.743C502.248 140.762 495.348 144.571 487.973 146.865Z" fill="#D2DECD"/>
<path d="M488.055 140.629C488.348 135.713 488.655 130.725 490.254 126.067C491.853 121.409 494.935 117.039 499.418 115C500.181 119.965 497.99 124.906 495.348 129.178C492.706 133.451 489.522 137.484 487.934 142.25" fill="#D2DECD"/>
<path d="M487.934 144.013C486.029 138.456 485.832 131.397 482.505 126.556C480.179 123.172 476.454 120.866 474.45 117.282C473.119 120.63 473.526 124.487 474.919 127.81C476.311 131.133 478.612 133.993 481.075 136.623C483.536 139.253 485.645 141.231 487.934 144.013Z" fill="#D2DECD"/>
<path d="M487.971 307.665C487.823 307.665 487.695 270.594 487.684 224.875C487.674 179.14 487.785 142.077 487.933 142.077C488.081 142.077 488.209 179.14 488.22 224.875C488.231 270.594 488.119 307.665 487.971 307.665Z" fill="#D2DECD"/>
<path d="M520.366 196.619C520.376 196.655 519.879 196.839 518.972 197.142C517.971 197.48 516.682 197.915 515.136 198.436C511.902 199.538 507.459 201.133 502.636 203.11C497.861 205.158 493.358 206.821 490.794 209.043C489.513 210.14 488.778 211.326 488.415 212.191C488.047 213.061 487.981 213.594 487.932 213.584C487.914 213.581 487.919 213.448 487.948 213.195C487.99 212.945 488.055 212.572 488.22 212.115C488.533 211.201 489.248 209.932 490.542 208.759C491.831 207.584 493.625 206.528 495.68 205.567C497.735 204.608 500.013 203.607 502.432 202.613C507.269 200.631 511.746 199.087 515.017 198.075C516.651 197.565 517.985 197.189 518.91 196.941C519.839 196.701 520.356 196.584 520.366 196.619Z" fill="#D2DECD"/>
<path d="M530.986 170.536C530.998 170.55 530.863 170.693 530.595 170.953C530.279 171.249 529.886 171.619 529.405 172.07C528.3 173.074 526.797 174.439 524.964 176.104C521.13 179.518 515.929 184.149 510.183 189.265C504.413 194.401 499.427 199.308 495.971 203.003C494.241 204.848 492.878 206.377 491.949 207.444C491.515 207.94 491.16 208.345 490.875 208.671C490.626 208.949 490.488 209.089 490.474 209.078C490.459 209.066 490.569 208.903 490.791 208.603C491.016 208.305 491.342 207.861 491.789 207.31C492.671 206.2 493.994 204.629 495.693 202.746C499.086 198.976 504.045 194.011 509.826 188.865C515.616 183.741 520.884 179.138 524.713 175.82C526.592 174.208 528.134 172.885 529.266 171.913C529.774 171.492 530.189 171.148 530.522 170.871C530.815 170.639 530.973 170.523 530.986 170.536Z" fill="#D2DECD"/>
<path d="M503.954 194.488C503.803 194.421 505.008 191.637 506.209 188.118C507.421 184.599 507.992 181.629 508.145 181.654C508.285 181.668 507.944 184.725 506.716 188.29C506.112 190.069 505.446 191.634 504.921 192.745C504.397 193.856 504.02 194.517 503.954 194.488Z" fill="#D2DECD"/>
<path d="M488.007 216.926C487.977 216.948 487.662 216.579 487.118 215.894C486.515 215.121 485.751 214.141 484.84 212.973C482.927 210.5 480.282 207.086 477.317 203.35C474.35 199.614 471.626 196.263 469.652 193.838C468.721 192.686 467.941 191.72 467.324 190.957C466.78 190.272 466.493 189.881 466.521 189.857C466.549 189.833 466.89 190.177 467.483 190.822C468.077 191.465 468.917 192.412 469.942 193.595C471.992 195.959 474.767 199.277 477.737 203.018C480.705 206.759 483.306 210.213 485.143 212.746C486.062 214.012 486.794 215.046 487.285 215.77C487.779 216.494 488.037 216.904 488.007 216.926Z" fill="#D2DECD"/>
<path d="M480.901 207.807C480.814 207.901 478.918 205.653 477.925 202.236C477.193 199.828 477.16 197.626 477.25 196.619L477.487 196.638C477.381 197.067 477.303 197.294 477.261 197.287C477.219 197.28 477.217 197.041 477.252 196.6L477.489 196.619C477.575 197.618 477.727 199.744 478.439 202.083C479.398 205.394 481.045 207.716 480.901 207.807Z" fill="#D2DECD"/>
<path d="M471.733 196.271C471.664 196.345 471.054 195.577 469.655 195.064C468.267 194.527 466.179 194.409 463.887 194.605C461.593 194.773 459.544 195.182 458.078 195.542C456.611 195.905 455.715 196.191 455.688 196.116C455.664 196.053 456.517 195.64 457.977 195.178C459.434 194.719 461.511 194.243 463.847 194.071C466.165 193.871 468.363 194.049 469.798 194.713C471.251 195.357 471.781 196.258 471.733 196.271Z" fill="#D2DECD"/>
<path d="M469.558 193.476C469.517 193.559 468.348 192.991 466.375 192.317C464.406 191.64 461.601 190.929 458.433 190.682C455.264 190.446 452.383 190.723 450.334 191.094C448.282 191.461 447.04 191.846 447.012 191.757C447.001 191.722 447.301 191.596 447.856 191.397C448.409 191.191 449.231 190.955 450.26 190.722C452.316 190.251 455.247 189.907 458.474 190.148C461.698 190.399 464.544 191.183 466.505 191.961C467.487 192.348 468.264 192.705 468.779 192.993C469.297 193.273 469.575 193.443 469.558 193.476Z" fill="#D2DECD"/>
<path d="M487.936 181.654C487.793 181.69 486.754 178.08 485.616 173.591C484.477 169.1 483.67 165.432 483.814 165.395C483.957 165.359 484.997 168.968 486.136 173.459C487.274 177.948 488.079 181.618 487.936 181.654Z" fill="#D2DECD"/>
<path d="M488.085 181.654C487.926 181.706 487.257 179.293 485.512 176.827C483.814 174.308 481.646 173.044 481.725 172.919C481.753 172.863 482.352 173.083 483.187 173.673C484.024 174.255 485.059 175.243 485.951 176.52C487.762 179.086 488.214 181.645 488.085 181.654Z" fill="#D2DECD"/>
<path d="M487.973 287.903C487.915 287.912 487.806 287.012 487.388 285.438C486.975 283.864 486.197 281.631 484.911 279.02C482.35 273.786 477.689 267.15 471.767 260.503C468.833 257.15 465.986 253.988 463.569 250.959C461.149 247.935 459.159 245.053 457.707 242.504C456.25 239.957 455.301 237.772 454.748 236.23C454.476 235.457 454.276 234.853 454.167 234.436C454.05 234.021 453.997 233.801 454.015 233.796C454.063 233.781 454.332 234.644 454.943 236.156C455.553 237.666 456.547 239.811 458.035 242.314C459.519 244.82 461.525 247.658 463.954 250.65C466.38 253.647 469.231 256.792 472.171 260.151C478.109 266.816 482.758 273.536 485.252 278.856C486.506 281.511 487.237 283.787 487.59 285.389C487.762 286.192 487.877 286.817 487.918 287.248C487.973 287.675 487.992 287.9 487.973 287.903Z" fill="#D2DECD"/>
<path d="M517.247 254.838C517.265 254.877 516.704 255.161 515.713 255.699C514.729 256.252 513.333 257.104 511.733 258.329C510.133 259.554 508.344 261.162 506.507 263.096C504.673 265.034 502.783 267.284 500.854 269.696C496.998 274.534 493.392 278.815 491.233 282.232C490.137 283.927 489.34 285.356 488.817 286.359C488.29 287.359 488.011 287.921 487.972 287.904C487.955 287.896 488.005 287.747 488.114 287.469C488.228 287.193 488.383 286.779 488.629 286.267C489.096 285.232 489.848 283.764 490.911 282.031C493.008 278.532 496.586 274.192 500.435 269.362C502.367 266.946 504.28 264.691 506.149 262.756C508.021 260.825 509.858 259.227 511.505 258.027C513.152 256.826 514.594 256.015 515.615 255.515C516.123 255.26 516.538 255.103 516.813 254.985C517.091 254.872 517.24 254.821 517.247 254.838Z" fill="#D2DECD"/>
<path d="M517.818 265.565C517.825 265.643 516.58 265.794 514.575 266.036C512.578 266.294 509.797 266.628 506.884 267.551C503.982 268.496 501.569 269.936 499.998 271.165C498.411 272.392 497.662 273.407 497.589 273.347C497.563 273.328 497.719 273.052 498.069 272.601C498.416 272.147 498.984 271.54 499.759 270.872C501.305 269.539 503.741 268.013 506.72 267.042C509.704 266.098 512.522 265.823 514.538 265.66C516.56 265.512 517.812 265.495 517.818 265.565Z" fill="#D2DECD"/>
<path d="M498.537 272.168C498.368 272.072 499.829 269.84 500.963 266.837C502.027 263.807 502.276 261.15 502.467 261.181C502.536 261.189 502.533 261.854 502.413 262.921C502.286 263.984 502.03 265.463 501.467 267.02C500.9 268.575 500.157 269.874 499.586 270.779C499.008 271.683 498.597 272.205 498.537 272.168Z" fill="#D2DECD"/>
<path d="M526.727 226.04C526.734 226.057 526.555 226.152 526.208 226.316C525.806 226.499 525.302 226.728 524.684 227.009C524.017 227.295 523.206 227.658 522.293 228.14C521.377 228.613 520.308 229.099 519.195 229.768C518.63 230.089 518.039 230.425 517.426 230.774C516.813 231.127 516.206 231.546 515.56 231.95C514.256 232.741 512.95 233.716 511.555 234.71C508.826 236.781 505.957 239.232 503.195 242.063C500.459 244.921 498.107 247.873 496.13 250.672C495.184 252.1 494.254 253.439 493.508 254.77C493.126 255.429 492.728 256.05 492.396 256.675C492.068 257.3 491.753 257.902 491.451 258.478C490.821 259.613 490.371 260.698 489.93 261.63C489.48 262.559 489.145 263.381 488.882 264.058C488.623 264.685 488.411 265.196 488.242 265.605C488.09 265.957 488.002 266.139 487.984 266.133C487.967 266.127 488.021 265.933 488.14 265.569C488.285 265.15 488.465 264.626 488.687 263.983C488.921 263.292 489.229 262.455 489.655 261.511C490.072 260.563 490.5 259.461 491.112 258.309C491.406 257.725 491.713 257.114 492.032 256.479C492.356 255.845 492.747 255.215 493.124 254.546C493.859 253.197 494.78 251.839 495.723 250.393C497.692 247.558 500.052 244.573 502.809 241.692C505.593 238.839 508.495 236.379 511.261 234.315C512.674 233.324 513.999 232.357 515.322 231.576C515.977 231.177 516.594 230.765 517.216 230.419C517.839 230.078 518.439 229.751 519.013 229.437C520.144 228.786 521.231 228.32 522.164 227.871C523.094 227.413 523.919 227.077 524.602 226.819C525.237 226.575 525.755 226.376 526.168 226.218C526.528 226.084 526.72 226.023 526.727 226.04Z" fill="#D2DECD"/>
<path d="M503.56 241.563C503.513 241.555 503.771 240.655 504.834 239.666C505.871 238.678 507.764 237.763 509.967 237.697C512.163 237.639 514.068 238.253 515.369 238.752C516.677 239.266 517.437 239.682 517.411 239.744C517.381 239.818 516.566 239.525 515.244 239.11C513.927 238.707 512.065 238.176 509.984 238.232C507.91 238.296 506.119 239.095 505.081 239.953C504.019 240.808 503.645 241.615 503.56 241.563Z" fill="#D2DECD"/>
<path d="M500.097 245.136C499.95 245.054 501.257 243.139 501.554 240.394C501.896 237.654 501.065 235.489 501.227 235.444C501.286 235.42 501.577 235.923 501.829 236.825C502.082 237.722 502.25 239.029 502.086 240.456C501.917 241.882 501.453 243.115 501 243.93C500.548 244.75 500.148 245.173 500.097 245.136Z" fill="#D2DECD"/>
<path d="M462.191 291.206C462.99 305.373 467.259 319.781 473.826 334.348H502.381C508.643 319.926 512.617 305.54 513.324 291.206H462.191Z" fill="#CCCCCC"/>
<path d="M508.699 314.13C508.699 314.278 499.297 314.398 487.702 314.398C476.103 314.398 466.703 314.278 466.703 314.13C466.703 313.982 476.103 313.862 487.702 313.862C499.298 313.862 508.699 313.982 508.699 314.13Z" fill="#FAFAFA"/>
<path d="M508.057 319.263C508.057 319.411 499.243 319.531 488.373 319.531C477.499 319.531 468.688 319.411 468.688 319.263C468.688 319.115 477.499 318.995 488.373 318.995C499.243 318.995 508.057 319.115 508.057 319.263Z" fill="#FAFAFA"/>
<path d="M474.288 300.507C474.436 300.507 474.556 303.452 474.556 307.084C474.556 310.717 474.436 313.662 474.288 313.662C474.14 313.662 474.02 310.718 474.02 307.084C474.02 303.452 474.14 300.507 474.288 300.507Z" fill="#FAFAFA"/>
<path d="M489.588 300.507C489.736 300.507 489.856 303.557 489.856 307.318C489.856 311.081 489.736 314.13 489.588 314.13C489.44 314.13 489.32 311.081 489.32 307.318C489.321 303.557 489.441 300.507 489.588 300.507Z" fill="#FAFAFA"/>
<path d="M503.952 300.392C504.1 300.392 504.22 303.503 504.22 307.339C504.22 311.177 504.1 314.287 503.952 314.287C503.804 314.287 503.684 311.177 503.684 307.339C503.684 303.503 503.804 300.392 503.952 300.392Z" fill="#FAFAFA"/>
<path d="M512.42 300.507C512.42 300.655 501.393 300.775 487.793 300.775C474.189 300.775 463.164 300.655 463.164 300.507C463.164 300.359 474.189 300.239 487.793 300.239C501.392 300.24 512.42 300.359 512.42 300.507Z" fill="#FAFAFA"/>
<path d="M274.469 475.224C420.824 475.224 539.469 445.547 539.469 408.939C539.469 372.33 420.824 342.653 274.469 342.653C128.113 342.653 9.46875 372.33 9.46875 408.939C9.46875 445.547 128.113 475.224 274.469 475.224Z" fill="#D2DECD"/>
<path d="M270.536 466.954C206.301 466.954 145.907 460.929 100.478 449.991C54.8886 439.013 29.7812 424.345 29.7812 408.691C29.7812 393.036 54.8886 378.369 100.478 367.392C145.907 356.453 206.301 350.429 270.536 350.429C334.77 350.429 395.164 356.453 440.592 367.392C486.182 378.369 511.289 393.037 511.289 408.691C511.289 424.346 486.182 439.013 440.592 449.991C395.163 460.929 334.77 466.954 270.536 466.954ZM270.536 351.196C138.207 351.196 30.5492 376.988 30.5492 408.69C30.5492 440.393 138.207 466.185 270.536 466.185C402.864 466.185 510.521 440.393 510.521 408.69C510.52 376.988 402.864 351.196 270.536 351.196Z" fill="white"/>
<path d="M265.105 447.425C211.548 447.425 161.192 443.013 123.315 435.002C85.2667 426.954 64.3125 416.177 64.3125 404.655C64.3125 393.134 85.2667 382.357 123.315 374.309C161.193 366.298 211.548 361.886 265.105 361.886C318.661 361.886 369.017 366.298 406.894 374.309C444.942 382.357 465.897 393.134 465.897 404.655C465.897 416.177 444.942 426.954 406.894 435.002C369.017 443.013 318.661 447.425 265.105 447.425ZM265.105 362.655C154.81 362.655 65.0805 381.496 65.0805 404.655C65.0805 427.814 154.811 446.656 265.105 446.656C375.398 446.656 465.129 427.814 465.129 404.655C465.129 381.496 375.398 362.655 265.105 362.655Z" fill="white"/>
<path d="M265.105 434.658C224.896 434.658 187.091 431.345 158.652 425.331C130.042 419.28 114.285 411.157 114.285 402.458C114.285 393.759 130.042 385.636 158.652 379.585C187.091 373.571 224.896 370.258 265.105 370.258C305.314 370.258 343.12 373.571 371.558 379.585C400.168 385.636 415.924 393.759 415.924 402.458C415.924 411.157 400.168 419.28 371.558 425.331C343.12 431.345 305.314 434.658 265.105 434.658ZM265.105 371.027C182.367 371.027 115.054 385.127 115.054 402.459C115.054 419.79 182.367 433.891 265.105 433.891C347.844 433.891 415.156 419.791 415.156 402.459C415.156 385.127 347.844 371.027 265.105 371.027Z" fill="white"/>
<path d="M258.169 426.346C229.966 426.346 203.448 424.023 183.498 419.803C163.377 415.548 152.297 409.811 152.297 403.652C152.297 397.493 163.378 391.757 183.498 387.502C203.448 383.282 229.966 380.958 258.169 380.958C286.372 380.958 312.891 383.282 332.841 387.502C352.961 391.757 364.042 397.493 364.042 403.652C364.042 409.811 352.961 415.548 332.841 419.803C312.89 424.023 286.371 426.346 258.169 426.346ZM258.169 381.726C230.018 381.726 203.555 384.044 183.657 388.253C164.216 392.364 153.065 397.977 153.065 403.652C153.065 409.327 164.216 414.94 183.657 419.052C203.556 423.261 230.018 425.579 258.169 425.579C286.32 425.579 312.782 423.261 332.682 419.052C352.123 414.941 363.274 409.327 363.274 403.652C363.274 397.977 352.123 392.364 332.682 388.253C312.782 384.044 286.32 381.726 258.169 381.726Z" fill="white"/>
<path d="M116.606 435.055C105.833 424.661 92.1673 414.103 74.4863 413.08C67.3163 412.665 60.1403 413.907 53.3623 415.682C32.9993 421.015 15.1503 431.394 3.26133 444.697C1.27433 446.92 1.67334 449.854 4.18734 451.764C10.8563 456.833 18.5523 461.77 25.9373 465.892C34.8953 470.892 45.4643 474.649 56.6733 475.197C67.1693 475.71 77.6333 473.382 86.9713 469.809C96.3093 466.236 104.678 461.451 112.988 456.693C117.351 454.195 122.023 451.336 123.02 447.329C124.127 442.881 120.33 438.648 116.606 435.055Z" fill="#CCCCCC"/>
<path d="M121.882 444.73C121.887 444.737 121.797 444.806 121.616 444.933C121.41 445.073 121.142 445.255 120.805 445.485C120.086 445.962 119.037 446.686 117.627 447.523C114.836 449.243 110.694 451.581 105.363 454.031C94.7359 459.012 79.2939 464.2 61.7829 467.929C59.5829 468.361 57.3869 468.699 55.2059 468.882C53.0229 469.046 50.8629 469.086 48.7469 468.974C44.5159 468.728 40.4739 467.99 36.7369 466.918C29.2379 464.794 22.9969 461.44 18.0829 458.258C13.1589 455.059 9.45286 452.081 6.89086 450.042C5.64286 449.021 4.66386 448.221 3.96986 447.653C3.65786 447.389 3.41086 447.18 3.22086 447.019C3.05386 446.874 2.97087 446.796 2.97687 446.789C2.98287 446.782 3.07687 446.846 3.25387 446.977C3.45187 447.127 3.70986 447.323 4.03586 447.571C4.74386 448.12 5.74286 448.895 7.01686 449.882C9.61586 451.871 13.3509 454.8 18.2819 457.947C23.2039 461.078 29.4209 464.373 36.8679 466.456C40.5789 467.508 44.5859 468.228 48.7739 468.465C50.8689 468.573 53.0049 468.53 55.1629 468.366C57.3209 468.183 59.4969 467.847 61.6839 467.418C79.1439 463.7 94.5769 458.577 105.211 453.696C110.548 451.294 114.706 449.012 117.524 447.349C118.948 446.54 120.012 445.845 120.749 445.397C121.099 445.185 121.376 445.017 121.588 444.888C121.776 444.777 121.877 444.723 121.882 444.73Z" fill="white"/>
<path d="M529.041 438.199C519.825 430.565 508.134 422.81 493.009 422.059C486.875 421.754 480.737 422.666 474.939 423.97C457.519 427.887 442.25 435.51 432.079 445.281C430.379 446.914 430.72 449.068 432.871 450.472C438.576 454.195 445.16 457.821 451.478 460.849C459.142 464.521 468.183 467.281 477.771 467.684C486.75 468.061 495.701 466.351 503.69 463.726C511.678 461.102 518.837 457.587 525.947 454.092C529.679 452.257 533.676 450.158 534.529 447.214C535.474 443.947 532.226 440.837 529.041 438.199Z" fill="#CCCCCC"/>
<path d="M533.556 445.305C533.56 445.313 533.482 445.366 533.324 445.464C533.139 445.574 532.906 445.712 532.616 445.884C531.99 446.247 531.072 446.791 529.849 447.418C527.422 448.707 523.836 450.444 519.262 452.249C510.137 455.924 497.031 459.681 482.275 462.392C478.575 463.038 474.885 463.352 471.336 463.191C467.786 463.053 464.388 462.53 461.215 461.789C454.857 460.302 449.45 457.876 445.15 455.504C440.837 453.13 437.561 450.863 435.297 449.311C434.2 448.536 433.336 447.926 432.714 447.487C432.443 447.287 432.225 447.127 432.052 446.999C431.904 446.887 431.831 446.826 431.836 446.818C431.841 446.811 431.924 446.857 432.082 446.955C432.263 447.071 432.49 447.218 432.774 447.4C433.409 447.82 434.291 448.403 435.411 449.143C437.708 450.642 441.01 452.859 445.326 455.18C449.631 457.5 455.012 459.873 461.325 461.322C467.613 462.809 474.834 463.262 482.189 461.879C496.902 459.176 509.999 455.483 519.129 451.907C523.707 450.15 527.307 448.469 529.757 447.239C530.991 446.64 531.924 446.126 532.566 445.793C532.866 445.64 533.107 445.516 533.298 445.418C533.464 445.335 533.552 445.297 533.556 445.305Z" fill="white"/>
<path d="M533 335.698C533 335.819 414.346 335.916 268.013 335.916C121.629 335.916 3 335.818 3 335.698C3 335.577 121.629 335.48 268.013 335.48C414.346 335.48 533 335.577 533 335.698Z" fill="#263238"/>
<path d="M357.914 204.532L355.622 196.863C358.124 192.803 359.57 188.022 359.57 182.903C359.57 168.181 347.636 156.247 332.914 156.247C318.192 156.247 306.258 168.181 306.258 182.903C306.258 197.625 318.192 209.559 332.914 209.559C339.061 209.559 344.718 207.473 349.227 203.977L349.218 203.989L357.914 204.532Z" fill="white"/>
<path d="M357.914 204.532C357.914 204.532 357.741 204.533 357.375 204.517C356.98 204.499 356.434 204.473 355.728 204.44C354.224 204.363 352.041 204.25 349.211 204.104C349.148 204.101 349.099 204.047 349.102 203.983C349.103 203.959 349.113 203.935 349.127 203.918C349.127 203.918 349.133 203.91 349.136 203.906L349.298 204.068C346.59 206.187 342.562 208.49 337.277 209.379C334.651 209.844 331.736 209.87 328.709 209.401C325.684 208.936 322.538 207.915 319.566 206.216C316.596 204.525 313.807 202.159 311.542 199.193C309.276 196.234 307.543 192.672 306.661 188.772C304.829 181.007 306.801 171.813 312.652 165.207C315.594 161.865 319.276 159.261 323.295 157.78C327.295 156.256 331.545 155.737 335.577 156.123C339.614 156.524 343.405 157.863 346.642 159.8C349.885 161.738 352.575 164.279 354.604 167.071C358.687 172.691 360.052 179.147 359.696 184.452C359.369 189.814 357.514 194.052 355.716 196.92L355.728 196.83C356.443 199.327 356.996 201.256 357.378 202.59C357.554 203.215 357.69 203.699 357.788 204.05C357.879 204.377 357.922 204.538 357.914 204.532C357.914 204.532 357.848 204.352 357.741 204.018C357.628 203.663 357.473 203.174 357.274 202.542C356.867 201.235 356.277 199.342 355.515 196.895C355.505 196.864 355.511 196.83 355.527 196.804C357.271 193.935 359.062 189.728 359.347 184.433C359.66 179.193 358.278 172.847 354.242 167.337C352.236 164.599 349.584 162.113 346.394 160.219C343.211 158.326 339.489 157.022 335.528 156.636C331.571 156.265 327.404 156.781 323.486 158.278C319.548 159.733 315.941 162.287 313.057 165.563C307.324 172.036 305.382 181.04 307.164 188.662C308.023 192.488 309.714 195.987 311.93 198.898C314.145 201.817 316.878 204.15 319.791 205.825C322.706 207.507 325.796 208.525 328.772 209C331.751 209.478 334.625 209.471 337.219 209.03C342.439 208.19 346.443 205.953 349.155 203.887C349.205 203.847 349.278 203.856 349.317 203.906C349.35 203.948 349.348 204.008 349.317 204.049C349.314 204.053 349.308 204.061 349.308 204.061L349.224 203.875C352.016 204.08 354.169 204.239 355.652 204.348C356.371 204.404 356.927 204.448 357.328 204.479C357.708 204.508 357.914 204.532 357.914 204.532Z" fill="#263238"/>
<path d="M325.4 182.894C325.4 184.39 324.188 185.602 322.692 185.602C321.196 185.602 319.984 184.39 319.984 182.894C319.984 181.399 321.196 180.186 322.692 180.186C324.188 180.186 325.4 181.399 325.4 182.894Z" fill="#263238"/>
<path d="M336.236 182.894C336.236 184.39 335.023 185.602 333.528 185.602C332.032 185.602 330.82 184.39 330.82 182.894C330.82 181.399 332.032 180.186 333.528 180.186C335.024 180.186 336.236 181.399 336.236 182.894Z" fill="#263238"/>
<path d="M347.046 181.539C347.794 182.834 347.35 184.49 346.055 185.238C344.76 185.986 343.104 185.542 342.356 184.247C341.608 182.952 342.052 181.295 343.347 180.548C344.642 179.8 346.298 180.244 347.046 181.539Z" fill="#263238"/>
<path d="M196 182.327L203.996 182.702C207 186.406 211.032 189.353 215.863 191.047C229.755 195.919 244.967 188.607 249.839 174.714C254.711 160.821 247.399 145.61 233.506 140.738C219.614 135.866 204.403 143.178 199.531 157.071C197.497 162.872 197.593 168.9 199.4 174.312L199.392 174.3L196 182.327Z" fill="white"/>
<path d="M196 182.327C196 182.327 196.056 182.163 196.192 181.823C196.34 181.457 196.545 180.95 196.81 180.294C197.381 178.901 198.21 176.878 199.284 174.255C199.308 174.196 199.375 174.168 199.434 174.192C199.456 174.201 199.475 174.218 199.488 174.237C199.488 174.237 199.493 174.245 199.496 174.249L199.289 174.348C198.185 171.092 197.345 166.528 198.255 161.247C198.686 158.615 199.625 155.856 201.07 153.155C202.51 150.455 204.515 147.824 207.101 145.581C209.68 143.338 212.835 141.489 216.384 140.333C219.926 139.174 223.861 138.718 227.833 139.176C235.767 140.017 243.79 144.921 248.087 152.628C250.268 156.51 251.506 160.846 251.574 165.129C251.688 169.408 250.771 173.591 249.073 177.268C247.358 180.945 244.841 184.08 241.941 186.493C239.039 188.912 235.751 190.609 232.444 191.6C225.79 193.593 219.245 192.744 214.357 190.653C209.405 188.57 206.02 185.417 203.909 182.772L203.99 182.813C201.398 182.662 199.393 182.545 198.008 182.464C197.361 182.423 196.859 182.391 196.494 182.368C196.158 182.346 195.991 182.332 196 182.327C196 182.327 196.192 182.325 196.542 182.334C196.915 182.345 197.427 182.361 198.089 182.382C199.458 182.43 201.438 182.5 204 182.591C204.032 182.592 204.062 182.609 204.082 182.632C206.212 185.227 209.59 188.31 214.492 190.331C219.333 192.361 225.779 193.156 232.314 191.171C235.561 190.184 238.786 188.504 241.629 186.121C244.469 183.743 246.931 180.663 248.606 177.053C250.265 173.442 251.158 169.339 251.042 165.146C250.973 160.948 249.756 156.7 247.619 152.894C243.408 145.341 235.554 140.53 227.772 139.689C223.877 139.233 220.016 139.671 216.535 140.799C213.048 141.923 209.941 143.73 207.397 145.924C204.845 148.118 202.862 150.697 201.429 153.348C199.993 156.001 199.048 158.715 198.605 161.309C197.671 166.513 198.457 171.032 199.508 174.275C199.529 174.336 199.496 174.401 199.436 174.422C199.385 174.439 199.329 174.418 199.301 174.375C199.298 174.37 199.293 174.363 199.293 174.363L199.496 174.345C198.378 176.912 197.516 178.891 196.923 180.255C196.632 180.915 196.407 181.425 196.245 181.793C196.091 182.141 196 182.327 196 182.327Z" fill="#263238"/>
<path d="M217.252 165.89C217.252 167.386 216.04 168.598 214.544 168.598C213.048 168.598 211.836 167.386 211.836 165.89C211.836 164.394 213.048 163.182 214.544 163.182C216.04 163.182 217.252 164.395 217.252 165.89Z" fill="#263238"/>
<path d="M228.088 165.89C228.088 167.386 226.875 168.598 225.38 168.598C223.884 168.598 222.672 167.386 222.672 165.89C222.672 164.394 223.884 163.182 225.38 163.182C226.876 163.182 228.088 164.395 228.088 165.89Z" fill="#263238"/>
<path d="M238.897 164.536C239.645 165.831 239.201 167.487 237.906 168.235C236.611 168.983 234.955 168.539 234.207 167.244C233.459 165.949 233.903 164.293 235.198 163.545C236.493 162.797 238.149 163.241 238.897 164.536Z" fill="#263238"/>
<path d="M455.739 247.395C455.515 240.574 456.284 233.731 455.717 226.93C455.15 220.129 453.038 213.113 448.065 208.438C443.092 203.764 434.753 202.269 429.369 206.462L428.488 212.315C431.857 238.505 432.757 265.233 436.125 291.423C436.568 294.863 439.511 297.864 441.22 300.882C442.929 303.9 446.195 306.308 449.644 305.941C454.157 305.46 456.921 300.739 458.135 296.366C462.535 280.514 456.278 263.839 455.739 247.395Z" fill="#263238"/>
<path d="M441.097 211.622C440.233 210.071 439.344 208.496 438.048 207.282C436.752 206.068 434.963 205.249 433.212 205.54C432.387 205.677 431.542 206.124 431.247 206.906C430.953 207.688 431.518 208.755 432.352 208.706L432.526 208.862C434.342 210.545 436.191 212.192 438.073 213.802C438.546 214.207 439.038 214.62 439.63 214.816C440.222 215.013 440.945 214.945 441.369 214.488C442.07 213.734 441.599 212.522 441.097 211.622Z" fill="#455A64"/>
<path d="M444.455 217.782C438.46 210.096 430.273 205.561 420.533 205.173C415.038 204.954 412.736 206.044 408.752 207.02C404.768 207.996 401.147 210.037 398.707 213.334C395.809 217.25 393.349 221.654 392.706 226.483C392.046 231.444 391.384 236.438 391.643 241.435C391.902 246.433 393.14 251.488 395.984 255.606L408.627 258.106C415.632 258.508 422.734 258.903 429.601 257.463C436.468 256.023 443.19 252.502 446.986 246.602C452.261 238.405 450.45 225.468 444.455 217.782Z" fill="#263238"/>
<path d="M433.163 217.436L416.397 210.316L411.964 210.727C402.016 210.531 394.9 221.342 394.648 229.397C394.368 238.346 394.378 249.283 395.647 255.913C398.198 269.245 409.495 270.613 409.495 270.613C409.495 270.613 409.099 277.677 408.91 282.13L418.342 297.624L434.862 280.861L437.531 222.083C437.502 219.635 435.604 217.616 433.163 217.436Z" fill="#FFBF9D"/>
<path d="M397.961 238.149C397.958 239.058 398.724 239.809 399.673 239.83C400.62 239.851 401.392 239.133 401.395 238.225C401.398 237.317 400.632 236.565 399.685 236.544C398.737 236.521 397.965 237.241 397.961 238.149Z" fill="#263238"/>
<path d="M397.573 233.942C397.793 234.159 399.065 233.155 400.914 233.101C402.761 233.021 404.148 233.93 404.341 233.697C404.437 233.594 404.206 233.196 403.602 232.784C403.007 232.374 402.001 231.989 400.849 232.03C399.697 232.073 398.742 232.528 398.198 232.979C397.645 233.434 397.465 233.845 397.573 233.942Z" fill="#263238"/>
<path d="M409.107 248.703C409.113 248.598 407.957 248.435 406.086 248.256C405.612 248.222 405.162 248.142 405.073 247.823C404.951 247.485 405.132 246.97 405.344 246.414C405.752 245.257 406.179 244.045 406.627 242.774C408.404 237.594 409.675 233.339 409.466 233.27C409.256 233.2 407.645 237.343 405.867 242.523C405.44 243.8 405.033 245.018 404.645 246.182C404.483 246.725 404.195 247.343 404.459 248.043C404.597 248.392 404.952 248.637 405.257 248.709C405.563 248.792 405.828 248.788 406.062 248.795C407.94 248.836 409.103 248.808 409.107 248.703Z" fill="#263238"/>
<path d="M409.472 270.598C409.472 270.598 418.505 270.894 427.266 265.244C427.266 265.244 422.779 274.683 409.328 273.853L409.472 270.598Z" fill="#FF9A6C"/>
<path d="M398.354 227.489C398.679 227.931 400.086 227.584 401.744 227.669C403.405 227.701 404.787 228.147 405.138 227.728C405.294 227.524 405.099 227.09 404.511 226.654C403.932 226.22 402.942 225.832 401.8 225.791C400.659 225.752 399.648 226.068 399.044 226.461C398.432 226.855 398.212 227.274 398.354 227.489Z" fill="#263238"/>
<path d="M418.295 237.826C418.322 238.734 417.575 239.506 416.627 239.551C415.681 239.597 414.891 238.899 414.864 237.991C414.837 237.083 415.585 236.31 416.53 236.265C417.478 236.219 418.268 236.918 418.295 237.826Z" fill="#263238"/>
<path d="M422.585 233.808C422.371 234.031 421.074 233.06 419.223 233.053C417.375 233.021 416.011 233.965 415.812 233.737C415.714 233.636 415.934 233.233 416.527 232.806C417.111 232.381 418.107 231.97 419.259 231.981C420.412 231.994 421.379 232.424 421.933 232.862C422.5 233.302 422.69 233.708 422.585 233.808Z" fill="#263238"/>
<path d="M421.612 227.865C421.245 228.283 419.82 227.839 418.104 227.808C416.389 227.724 414.932 228.072 414.601 227.63C414.455 227.416 414.687 226.996 415.324 226.602C415.952 226.21 417.001 225.892 418.18 225.93C419.359 225.97 420.379 226.357 420.973 226.791C421.577 227.227 421.773 227.661 421.612 227.865Z" fill="#263238"/>
<path d="M434.708 244.519C434.679 243.521 435.758 241.132 436.739 240.947C439.358 240.454 444.108 240.515 444.363 247.197C444.712 256.331 435.469 254.797 435.443 254.536C435.422 254.332 434.809 247.965 434.708 244.519Z" fill="#FFBF9D"/>
<path d="M437.836 251.103C437.875 251.072 437.999 251.208 438.273 251.321C438.54 251.431 438.995 251.497 439.464 251.3C440.415 250.909 441.169 249.346 441.15 247.698C441.142 246.866 440.938 246.081 440.618 245.436C440.313 244.779 439.863 244.328 439.374 244.261C438.887 244.167 438.554 244.471 438.452 244.732C438.339 244.993 438.405 245.173 438.357 245.19C438.332 245.214 438.155 245.045 438.214 244.665C438.245 244.482 438.344 244.262 438.552 244.078C438.764 243.892 439.083 243.788 439.423 243.812C440.129 243.834 440.788 244.458 441.139 245.165C441.529 245.874 441.778 246.755 441.788 247.69C441.8 249.533 440.924 251.291 439.617 251.723C438.981 251.915 438.437 251.742 438.153 251.537C437.861 251.323 437.805 251.121 437.836 251.103Z" fill="#FF9A6C"/>
<path d="M437.111 240.982L434.738 243.332C424.953 233.52 405.953 209.081 407.011 210.536C407.011 210.536 413.932 207.876 421.344 209.316C428.756 210.757 442.784 214.809 442.363 223.581C441.943 232.352 437.111 240.982 437.111 240.982Z" fill="#263238"/>
<path d="M450.411 239.276C450.427 239.272 450.383 239.09 450.284 238.745C450.183 238.402 449.999 237.904 449.695 237.293C449.088 236.077 447.913 234.424 445.983 232.915C444.083 231.367 441.428 230.079 438.394 229.045C435.366 227.98 431.945 227.129 428.602 225.601C425.236 224.127 422.248 222.257 419.708 220.344C417.176 218.412 415.095 216.421 413.477 214.636C411.858 212.849 410.688 211.282 409.9 210.186C409.539 209.664 409.245 209.241 409.014 208.907C408.809 208.616 408.694 208.466 408.681 208.475C408.667 208.483 408.755 208.649 408.934 208.957C409.118 209.262 409.376 209.722 409.749 210.288C410.494 211.42 411.63 213.027 413.229 214.856C414.828 216.682 416.903 218.717 419.445 220.687C421.996 222.637 425.009 224.538 428.411 226.029C431.797 227.576 435.243 228.419 438.253 229.453C441.275 230.459 443.888 231.692 445.779 233.177C447.698 234.624 448.887 236.209 449.533 237.379C450.176 238.558 450.363 239.292 450.411 239.276Z" fill="#455A64"/>
<path d="M447.723 240.65C447.723 240.65 447.833 239.905 447.415 238.649C447.018 237.402 445.978 235.697 444.087 234.275C442.215 232.808 439.517 231.866 436.545 231.114C433.56 230.382 430.324 229.46 427.156 227.893C423.994 226.338 421.167 224.478 418.845 222.492C416.509 220.52 414.635 218.485 413.196 216.676C411.738 214.876 410.771 213.264 410.076 212.171C409.774 211.645 409.528 211.216 409.333 210.876C409.158 210.582 409.06 210.431 409.045 210.438C409.031 210.445 409.101 210.611 409.249 210.92C409.425 211.273 409.646 211.717 409.918 212.262C410.567 213.388 411.499 215.038 412.935 216.88C414.352 218.731 416.22 220.81 418.566 222.821C420.898 224.846 423.751 226.741 426.952 228.314C430.15 229.898 433.459 230.827 436.437 231.532C439.405 232.259 442.048 233.151 443.888 234.54C445.753 235.891 446.803 237.514 447.242 238.711C447.704 239.914 447.661 240.659 447.723 240.65Z" fill="#455A64"/>
<path d="M436.449 256.418C436.442 256.356 437.226 256.273 438.584 255.952C439.935 255.609 441.855 254.832 443.755 253.217C445.676 251.628 447.41 249.125 448.665 246.072C449.914 243.016 450.707 239.409 450.888 235.595C450.971 233.689 450.868 231.827 450.576 230.053C450.261 228.284 449.773 226.615 449.178 225.075C447.944 222.005 446.269 219.494 444.624 217.606C441.315 213.814 438.521 212.252 438.626 212.127C438.637 212.109 438.809 212.204 439.125 212.401C439.435 212.606 439.916 212.879 440.482 213.306C441.635 214.128 443.238 215.435 444.944 217.326C446.655 219.206 448.403 221.741 449.693 224.868C450.316 226.437 450.827 228.142 451.157 229.953C451.464 231.767 451.574 233.678 451.489 235.623C451.305 239.505 450.483 243.173 449.177 246.285C447.867 249.394 446.045 251.946 444.028 253.543C442.032 255.166 440.029 255.901 438.638 256.179C437.948 256.353 437.384 256.345 437.017 256.398C436.646 256.431 436.451 256.438 436.449 256.418Z" fill="#455A64"/>
<path d="M414.742 250.182C414.989 250.038 415.255 249.889 415.54 249.911C415.803 249.931 416.033 250.093 416.224 250.274C417.128 251.128 417.442 252.548 416.983 253.704C416.524 254.859 415.321 255.677 414.078 255.678C412.835 255.679 411.356 254.974 410.602 252.726C411.903 251.967 413.441 250.941 414.742 250.182Z" fill="#FF9A6C"/>
<path d="M414.079 255.678C414.058 255.592 414.916 255.655 415.876 254.889C416.34 254.515 416.794 253.915 416.93 253.146C417.074 252.386 416.901 251.469 416.358 250.757C416.084 250.414 415.734 250.079 415.418 250.133C415.084 250.177 414.69 250.479 414.335 250.675C413.653 251.073 413.015 251.447 412.423 251.793C411.327 252.418 410.634 252.778 410.603 252.724C410.572 252.67 411.208 252.213 412.262 251.518C412.839 251.146 413.462 250.745 414.126 250.316C414.493 250.114 414.793 249.807 415.366 249.694C415.661 249.651 415.962 249.775 416.169 249.933C416.384 250.093 416.552 250.279 416.715 250.482C417.345 251.31 417.524 252.357 417.337 253.225C417.154 254.109 416.604 254.765 416.069 255.141C414.953 255.913 414.047 255.711 414.079 255.678Z" fill="#263238"/>
<path d="M374.226 413.73L344.088 403.176C338.768 401.997 333.188 400.821 327.94 402.284C322.691 403.747 318.007 408.792 318.935 414.161C319.68 418.471 323.791 421.577 328.072 422.476C332.353 423.376 336.789 422.51 341.055 421.54C345.32 420.57 349.667 419.485 354.016 419.953C356.915 420.265 359.694 421.257 362.555 421.816C365.417 422.375 368.532 422.461 371.092 421.065C373.652 419.669 375.357 416.417 374.226 413.73Z" fill="#455A64"/>
<path d="M338.312 333.304C332.543 337.532 327.392 341.34 327.474 357.202C327.555 373.064 329.255 380.391 329.255 380.391L393.568 386.589L400.068 368.123C400.068 368.123 352.255 323.088 338.312 333.304Z" fill="#263238"/>
<path d="M361.805 377.813C361.771 377.826 361.559 377.381 361.203 376.566C360.853 375.749 360.331 374.573 359.667 373.131C358.343 370.245 356.373 366.322 353.87 362.177C351.359 358.034 348.797 354.469 346.856 351.957C345.887 350.7 345.087 349.692 344.526 349.003C343.969 348.31 343.674 347.915 343.701 347.891C343.728 347.867 344.075 348.217 344.68 348.871C345.289 349.521 346.134 350.496 347.144 351.729C349.166 354.191 351.791 357.743 354.315 361.909C356.832 366.076 358.76 370.049 360.003 372.983C360.626 374.45 361.097 375.651 361.39 376.492C361.69 377.33 361.838 377.8 361.805 377.813Z" fill="#455A64"/>
<path d="M401.112 365.016L392.834 375.091L389.066 376.925C389.066 376.925 348.378 363.938 337.387 361.64C326.395 359.342 304.252 355.914 301.317 373.77C298.383 391.626 316.598 398.056 324.102 402.158C331.605 406.26 355.29 412.116 355.29 412.116C355.29 412.116 387.92 421.347 399.169 421.783C410.967 422.24 433.852 420.096 439.72 414.014C445.588 407.932 451.672 387.931 451.672 387.931L401.112 365.016Z" fill="#263238"/>
<path d="M362.037 414.015C362.033 414.032 361.839 413.998 361.475 413.917C361.056 413.817 360.532 413.691 359.889 413.536C358.513 413.201 356.536 412.66 354.107 411.944C349.249 410.514 342.607 408.281 335.467 405.314C328.328 402.338 322.062 399.198 317.624 396.759C315.404 395.541 313.628 394.519 312.42 393.779C311.858 393.432 311.399 393.149 311.033 392.922C310.719 392.721 310.558 392.608 310.567 392.593C310.576 392.578 310.755 392.66 311.086 392.832C311.465 393.036 311.94 393.291 312.521 393.603C313.758 394.288 315.559 395.26 317.797 396.434C322.271 398.786 328.545 401.865 335.666 404.833C342.787 407.792 349.392 410.075 354.214 411.592C356.625 412.353 358.583 412.946 359.941 413.341C360.573 413.533 361.088 413.69 361.5 413.816C361.857 413.929 362.041 413.997 362.037 414.015Z" fill="#455A64"/>
<path d="M390.858 377.796C390.851 377.813 390.626 377.742 390.207 377.592C389.739 377.419 389.134 377.194 388.382 376.914C386.803 376.309 384.508 375.456 381.665 374.431C375.979 372.379 368.053 369.738 359.158 367.302C350.258 364.874 342.088 363.115 336.148 361.99C333.179 361.425 330.77 360.993 329.103 360.711C328.313 360.569 327.677 360.454 327.186 360.366C326.748 360.281 326.52 360.228 326.523 360.211C326.526 360.193 326.759 360.212 327.202 360.263C327.697 360.327 328.338 360.409 329.135 360.512C330.813 360.732 333.233 361.11 336.215 361.629C342.179 362.663 350.378 364.368 359.296 366.801C368.208 369.242 376.132 371.943 381.793 374.086C384.624 375.156 386.9 376.062 388.457 376.726C389.195 377.043 389.791 377.298 390.249 377.495C390.654 377.677 390.865 377.78 390.858 377.796Z" fill="#455A64"/>
<path d="M392.489 371.956L400.661 353.038L396.277 326.219L408.813 282.181L434.726 273.034C434.726 273.034 449.401 278.711 454.644 299.419C460.413 322.205 458.697 351.257 457.429 362.842C456.161 374.427 450.14 395.399 450.14 395.399C450.14 395.399 435.567 401.495 409.93 388.319C390.558 378.363 389.664 376.397 389.664 376.397C389.664 376.397 389.998 372.801 392.489 371.956Z" fill="#9EF67A"/>
<path d="M402.289 327.981C402.289 327.981 374.272 300.538 369.739 297.935L362.645 301.552L362.646 310.113L387.956 343.859C387.956 343.859 398.394 339.944 402.289 327.981Z" fill="#FFBF9D"/>
<path d="M445.44 305.496C445.44 305.496 420.797 352.889 407.22 352.887C388.59 352.884 381.809 337.824 381.809 337.824L393.062 319.001L398.586 322.684C398.586 322.684 416.796 286.674 420.683 281.559C424.57 276.444 436.769 274.219 442.371 279.308C447.764 284.206 451.703 295.755 445.44 305.496Z" fill="#9EF67A"/>
<path d="M445.44 305.496C445.44 305.496 445.511 305.342 445.669 305.052C445.837 304.749 446.072 304.324 446.379 303.769C446.655 303.189 446.975 302.456 447.323 301.581C447.466 301.131 447.62 300.647 447.785 300.13C447.952 299.613 448.034 299.037 448.174 298.441C448.634 296.042 448.753 292.971 447.921 289.567C447.507 287.874 446.912 286.084 445.969 284.335C445.035 282.593 443.832 280.83 442.192 279.363C440.537 277.925 438.3 277.082 435.923 276.761C433.537 276.426 430.985 276.64 428.464 277.273C425.962 277.914 423.387 279.036 421.444 280.995C421.222 281.256 420.977 281.497 420.77 281.777L420.178 282.649C419.779 283.23 419.429 283.86 419.048 284.47C418.314 285.711 417.58 286.979 416.862 288.279C411.108 298.674 405.106 310.376 398.79 322.786L398.672 323.018L398.456 322.874C396.708 321.709 394.827 320.456 392.931 319.192L393.258 319.118C392.47 320.437 391.622 321.855 390.769 323.282C387.766 328.303 384.818 333.233 382.003 337.94L382.015 337.729C385.021 343.549 390.09 348.034 395.712 350.42C398.529 351.644 401.508 352.227 404.418 352.534C405.879 352.582 407.353 352.802 408.712 352.481L409.723 352.188C410.052 352.069 410.366 351.906 410.687 351.768C411.341 351.515 411.911 351.092 412.518 350.759C414.854 349.242 416.846 347.353 418.676 345.456C420.496 343.541 422.146 341.578 423.69 339.648C426.749 335.761 429.383 331.996 431.685 328.51C436.286 321.534 439.653 315.73 441.944 311.725C443.066 309.723 443.937 308.169 444.536 307.101C444.823 306.582 445.044 306.184 445.201 305.9C445.354 305.63 445.44 305.496 445.44 305.496C445.44 305.496 445.38 305.642 445.242 305.919C445.093 306.208 444.885 306.613 444.614 307.14C444.053 308.211 443.211 309.786 442.091 311.804C439.843 315.836 436.515 321.667 431.941 328.675C429.653 332.177 427.03 335.959 423.975 339.869C422.432 341.811 420.782 343.787 418.956 345.719C417.119 347.634 415.119 349.544 412.74 351.098C412.118 351.442 411.541 351.872 410.863 352.138C410.531 352.282 410.208 352.449 409.866 352.574L408.807 352.883C407.337 353.225 405.865 352.997 404.384 352.954C401.435 352.65 398.409 352.062 395.544 350.822C389.819 348.393 384.687 343.881 381.6 337.916L381.547 337.814L381.612 337.705C384.425 332.997 387.372 328.066 390.373 323.044C391.226 321.618 392.074 320.199 392.862 318.88L392.987 318.671L393.189 318.806C395.084 320.07 396.965 321.324 398.713 322.49L398.38 322.578C404.704 310.167 410.72 298.474 416.504 288.078C417.226 286.778 417.964 285.509 418.705 284.264C419.091 283.649 419.44 283.023 419.849 282.43L420.456 281.542C420.669 281.254 420.929 280.998 421.162 280.726C423.196 278.688 425.824 277.566 428.373 276.918C430.94 276.282 433.533 276.074 435.968 276.425C438.392 276.762 440.69 277.634 442.398 279.133C444.069 280.643 445.278 282.437 446.215 284.208C447.16 285.985 447.751 287.799 448.158 289.513C448.976 292.959 448.83 296.061 448.34 298.475C448.192 299.075 448.103 299.654 447.928 300.173C447.755 300.691 447.594 301.176 447.443 301.627C447.08 302.502 446.746 303.233 446.456 303.809C446.132 304.355 445.884 304.775 445.707 305.074C445.537 305.357 445.44 305.496 445.44 305.496Z" fill="#263238"/>
<path d="M370.815 298.677C370.815 298.677 363.652 292.976 349.91 291.952C336.168 290.929 328.859 291.367 328.859 292.975C328.859 294.583 329.005 294.471 330.175 295.039C331.345 295.607 341.432 295.46 342.309 296.922C343.186 298.384 342.163 298.091 342.163 298.091C342.163 298.091 325.632 300.575 325.498 302.33C325.22 305.973 327.691 305.108 327.691 305.108C327.691 305.108 341.287 302.038 342.164 302.769C343.041 303.5 343.772 302.915 343.041 303.5C342.31 304.085 327.253 309.055 327.545 310.078C327.837 311.101 328.714 312.709 330.323 312.125C331.931 311.54 344.065 306.716 344.796 307.447C345.527 308.178 345.819 309.201 344.796 309.786C343.773 310.371 333.978 318.933 334.563 319.403C335.148 319.873 335.732 321.188 337.341 320.165C338.949 319.142 348.597 311.686 350.79 311.101C352.983 310.516 364.532 310.078 364.532 310.078" fill="#FFBF9D"/>
<path d="M364.528 310.08C364.528 310.08 364.367 310.102 364.051 310.123C363.717 310.143 363.252 310.171 362.651 310.206C361.401 310.283 359.591 310.393 357.27 310.535C356.103 310.618 354.805 310.712 353.39 310.852C352.683 310.921 351.943 311.005 351.193 311.14C350.449 311.271 349.768 311.694 349.053 312.111C346.232 313.853 343.194 316.124 339.818 318.596C338.96 319.208 338.143 319.869 337.169 320.459C336.91 320.588 336.628 320.701 336.313 320.718C335.998 320.738 335.675 320.632 335.421 320.459C335.164 320.288 334.961 320.069 334.769 319.862C334.673 319.761 334.58 319.656 334.484 319.576L334.448 319.544C334.405 319.508 334.36 319.431 334.361 319.39C334.347 319.285 334.373 319.241 334.387 319.193C334.422 319.101 334.463 319.037 334.505 318.969C335.212 318.005 336.067 317.228 336.917 316.388C337.776 315.563 338.667 314.743 339.583 313.918C340.499 313.094 341.44 312.266 342.409 311.438C342.894 311.025 343.385 310.611 343.892 310.204C344.152 310.001 344.389 309.799 344.697 309.606C344.945 309.457 345.156 309.255 345.218 308.999C345.292 308.748 345.227 308.455 345.092 308.192C345.026 308.059 344.941 307.932 344.844 307.813C344.796 307.753 344.746 307.695 344.691 307.64C344.664 307.606 344.633 307.582 344.637 307.597C344.645 307.597 344.628 307.588 344.59 307.587C344.042 307.56 343.341 307.766 342.713 307.929C341.424 308.29 340.13 308.728 338.827 309.184C336.219 310.1 333.573 311.115 330.867 312.154C330.537 312.271 330.18 312.445 329.757 312.467C329.344 312.493 328.918 312.357 328.589 312.119C327.923 311.632 327.565 310.905 327.336 310.173L327.325 310.137C327.319 310.105 327.315 310.07 327.315 310.036C327.314 309.963 327.336 309.932 327.353 309.88C327.391 309.807 327.434 309.752 327.474 309.711C327.556 309.624 327.637 309.563 327.718 309.503C327.881 309.386 328.046 309.289 328.212 309.196C328.545 309.01 328.883 308.846 329.224 308.686C329.906 308.369 330.599 308.075 331.298 307.789C334.094 306.65 336.979 305.608 339.893 304.523C340.618 304.246 341.345 303.968 342.074 303.689C342.427 303.53 342.817 303.421 343.052 303.19L343.134 303.118C343.129 303.124 343.131 303.122 343.124 303.139C343.067 303.246 343.139 303.369 343.183 303.395C343.272 303.444 343.232 303.418 343.24 303.426C343.24 303.426 343.239 303.425 343.224 303.424C343.139 303.415 343.021 303.406 342.914 303.383C342.695 303.341 342.481 303.258 342.292 303.143C342.194 303.089 342.109 303.019 342.021 302.953C341.989 302.94 341.99 302.946 341.969 302.931L341.854 302.91C341.687 302.886 341.494 302.887 341.305 302.89C340.921 302.904 340.531 302.94 340.14 302.984C339.358 303.072 338.574 303.194 337.788 303.323C334.372 303.899 331.016 304.608 327.738 305.332L327.763 305.325C327.245 305.48 326.686 305.474 326.193 305.191C325.702 304.9 325.462 304.368 325.35 303.887C325.228 303.393 325.245 302.903 325.262 302.422C325.247 302.345 325.316 302.065 325.415 301.975C325.511 301.849 325.617 301.765 325.723 301.694C325.935 301.545 326.152 301.434 326.371 301.336C328.129 300.589 329.931 300.202 331.702 299.785C335.256 299.001 338.741 298.401 342.126 297.876L342.175 297.868L342.218 297.882C342.303 297.908 342.425 297.893 342.43 297.881C342.428 297.891 342.455 297.828 342.428 297.716C342.379 297.5 342.25 297.26 342.121 297.035C341.894 296.733 341.296 296.561 340.808 296.438C339.772 296.194 338.703 296.075 337.649 295.969C335.536 295.76 333.456 295.681 331.414 295.477C330.916 295.405 330.366 295.394 329.879 295.122C329.653 295.012 329.422 294.92 329.183 294.762C328.928 294.619 328.748 294.282 328.717 294.02C328.669 293.749 328.665 293.497 328.66 293.245C328.666 293.109 328.643 293.024 328.678 292.834C328.709 292.664 328.807 292.53 328.907 292.419C329.342 292.026 329.84 291.902 330.317 291.768C332.249 291.323 334.151 291.287 335.987 291.235C339.665 291.181 343.115 291.355 346.313 291.549C349.507 291.746 352.466 291.99 355.109 292.468C360.405 293.404 364.401 295.019 367 296.322C368.304 296.976 369.259 297.57 369.888 297.991C370.204 298.2 370.435 298.372 370.589 298.489C370.742 298.607 370.816 298.673 370.812 298.677C370.808 298.682 370.727 298.626 370.568 298.519C370.408 298.412 370.171 298.251 369.849 298.052C369.209 297.652 368.246 297.08 366.937 296.449C364.329 295.192 360.338 293.625 355.064 292.731C352.431 292.275 349.491 292.05 346.295 291.869C343.101 291.691 339.655 291.533 335.996 291.601C334.175 291.658 332.268 291.707 330.415 292.142C329.967 292.261 329.486 292.414 329.188 292.692C329.041 292.838 329.051 292.955 329.056 293.239C329.062 293.481 329.069 293.726 329.109 293.946C329.152 294.173 329.225 294.318 329.409 294.433C329.588 294.552 329.825 294.651 330.052 294.76C330.454 294.994 330.959 295.006 331.46 295.075C333.475 295.271 335.566 295.346 337.692 295.551C338.755 295.656 339.831 295.772 340.911 296.023C341.181 296.088 341.451 296.165 341.72 296.271C341.983 296.381 342.272 296.499 342.493 296.814C342.634 297.063 342.779 297.309 342.855 297.631C342.884 297.778 342.92 298.037 342.691 298.23C342.46 298.373 342.28 298.338 342.101 298.301L342.193 298.307C338.82 298.836 335.337 299.442 331.803 300.226C330.049 300.639 328.233 301.039 326.564 301.752C326.185 301.935 325.688 302.176 325.72 302.452C325.704 302.902 325.69 303.363 325.798 303.785C325.896 304.204 326.09 304.6 326.43 304.798C326.76 304.998 327.228 305.009 327.613 304.892L327.634 304.886L327.639 304.885C330.926 304.157 334.281 303.447 337.716 302.867C338.506 302.738 339.296 302.615 340.091 302.526C340.489 302.482 340.888 302.445 341.295 302.43C341.5 302.427 341.704 302.424 341.929 302.455L342.105 302.49C342.174 302.515 342.265 302.563 342.319 302.598C342.389 302.649 342.457 302.706 342.532 302.747C342.679 302.836 342.838 302.898 343.006 302.93C343.092 302.948 343.17 302.954 343.281 302.965L343.338 302.974C343.369 302.987 343.356 302.96 343.464 303.027C343.538 303.062 343.603 303.211 343.542 303.343C343.521 303.38 343.507 303.396 343.487 303.422C343.428 303.485 343.391 303.513 343.35 303.547C343.003 303.86 342.602 303.957 342.248 304.12C341.514 304.4 340.783 304.679 340.055 304.958C337.138 306.042 334.255 307.081 331.471 308.212C330.776 308.496 330.088 308.787 329.416 309.098C329.081 309.254 328.749 309.415 328.433 309.591C328.276 309.679 328.12 309.771 327.982 309.87C327.844 309.946 327.716 310.142 327.768 310.049C327.97 310.714 328.315 311.376 328.847 311.757C329.11 311.945 329.418 312.044 329.735 312.026C330.048 312.015 330.363 311.869 330.711 311.743C333.416 310.709 336.07 309.697 338.687 308.784C339.996 308.329 341.294 307.892 342.604 307.529C343.276 307.369 343.881 307.145 344.665 307.184C344.738 307.164 344.98 307.315 344.99 307.358C345.052 307.421 345.11 307.488 345.165 307.558C345.277 307.696 345.377 307.846 345.458 308.009C345.62 308.327 345.721 308.723 345.611 309.109C345.511 309.5 345.202 309.781 344.9 309.958C344.655 310.11 344.392 310.324 344.144 310.519C343.642 310.92 343.151 311.331 342.667 311.741C341.699 312.562 340.758 313.386 339.841 314.205C338.925 315.024 338.033 315.84 337.175 316.657C336.334 317.478 335.456 318.286 334.806 319.165C334.772 319.218 334.737 319.276 334.723 319.317C334.701 319.341 334.752 319.347 334.641 319.34C334.625 319.341 334.601 319.355 334.607 319.35C334.638 319.31 334.531 319.436 334.672 319.266L334.716 319.305C334.837 319.409 334.932 319.517 335.03 319.622C335.22 319.83 335.405 320.027 335.615 320.167C336.028 320.475 336.557 320.401 337.011 320.155C337.914 319.614 338.777 318.932 339.624 318.332C343.014 315.875 346.064 313.623 348.919 311.889C349.634 311.479 350.355 311.038 351.146 310.904C351.917 310.771 352.657 310.694 353.368 310.632C354.789 310.504 356.089 310.424 357.258 310.355C359.597 310.224 361.414 310.153 362.647 310.112C363.249 310.096 363.715 310.083 364.049 310.075C364.365 310.07 364.528 310.08 364.528 310.08Z" fill="#FF9A6C"/>
<path d="M399.685 337.099C399.557 337.105 399.299 333.907 399.107 329.957C398.916 326.006 398.864 322.798 398.992 322.792C399.12 322.786 399.378 325.983 399.57 329.935C399.761 333.885 399.813 337.093 399.685 337.099Z" fill="#263238"/>
<path d="M404.84 358.04C404.857 357.913 412.58 358.828 422.088 360.084C431.599 361.34 439.294 362.461 439.277 362.588C439.26 362.715 431.539 361.8 422.027 360.544C412.519 359.288 404.823 358.167 404.84 358.04Z" fill="#263238"/>
<path d="M414.82 356.114C414.787 355.991 419.189 354.698 424.652 353.228C430.117 351.757 434.572 350.665 434.605 350.789C434.638 350.912 430.237 352.205 424.772 353.676C419.309 355.145 414.853 356.237 414.82 356.114Z" fill="#263238"/>
<path d="M147.343 175.249L148.525 175.183C160.417 174.52 170.837 182.844 172.474 194.312C173.997 204.975 175.538 216.772 175.805 222.523C176.358 234.433 164.222 236.969 164.222 236.969L164.658 241.811C165.378 249.807 161.296 261.492 153.066 262.152L150.225 260.488C142.101 261.139 135.764 252.343 134.988 244.455L130.637 200.265C128.809 187.968 134.647 176.685 147.343 175.249Z" fill="#FFBF9D"/>
<path d="M164.325 236.947C164.325 236.947 156.533 237.841 148.012 233.28C148.012 233.28 152.292 241.634 164.446 239.88L164.325 236.947Z" fill="#FF9A6C"/>
<path d="M169.047 205.37C169.133 206.266 168.423 207.075 167.463 207.179C166.504 207.283 165.655 206.643 165.57 205.747C165.484 204.851 166.194 204.041 167.152 203.937C168.113 203.833 168.962 204.474 169.047 205.37Z" fill="#263238"/>
<path d="M170.186 200.275C169.983 200.509 168.602 199.63 166.72 199.74C164.839 199.824 163.514 200.842 163.297 200.629C163.191 200.535 163.388 200.123 163.964 199.664C164.531 199.207 165.516 198.739 166.688 198.678C167.86 198.619 168.871 198.983 169.463 199.381C170.067 199.78 170.287 200.17 170.186 200.275Z" fill="#263238"/>
<path d="M152.778 206.492C152.864 207.388 152.154 208.197 151.193 208.301C150.234 208.405 149.386 207.766 149.3 206.869C149.214 205.974 149.924 205.163 150.883 205.059C151.844 204.955 152.692 205.597 152.778 206.492Z" fill="#263238"/>
<path d="M151.714 201.65C151.51 201.884 150.127 201.005 148.247 201.115C146.367 201.199 145.041 202.217 144.824 202.004C144.718 201.911 144.913 201.498 145.492 201.039C146.059 200.582 147.043 200.114 148.216 200.053C149.388 199.994 150.399 200.358 150.992 200.756C151.593 201.155 151.814 201.545 151.714 201.65Z" fill="#263238"/>
<path d="M159.346 214.833C159.331 214.729 160.489 214.467 162.37 214.126C162.848 214.051 163.297 213.933 163.359 213.609C163.452 213.265 163.221 212.773 162.956 212.243C162.437 211.138 161.895 209.98 161.325 208.766C159.052 203.813 157.378 199.73 157.584 199.642C157.79 199.555 159.8 203.499 162.072 208.452C162.621 209.674 163.146 210.839 163.645 211.953C163.858 212.474 164.207 213.058 164.003 213.772C163.894 214.128 163.556 214.402 163.253 214.499C162.95 214.608 162.68 214.628 162.443 214.655C160.542 214.861 159.36 214.936 159.346 214.833Z" fill="#263238"/>
<path d="M151.775 194.456C151.619 194.963 149.726 194.833 147.534 195.215C145.333 195.554 143.59 196.282 143.271 195.853C143.128 195.647 143.41 195.162 144.102 194.64C144.787 194.12 145.898 193.599 147.215 193.382C148.532 193.167 149.757 193.304 150.58 193.577C151.41 193.847 151.841 194.215 151.775 194.456Z" fill="#263238"/>
<path d="M169.181 195.02C168.875 195.454 167.553 195.095 165.993 195.162C164.431 195.176 163.131 195.602 162.802 195.185C162.656 194.982 162.839 194.554 163.393 194.128C163.938 193.705 164.87 193.331 165.943 193.303C167.016 193.276 167.966 193.601 168.534 193.996C169.109 194.392 169.315 194.81 169.181 195.02Z" fill="#263238"/>
<path d="M170.975 188.912C170.975 188.912 167.305 181.639 163.504 180.107C158.903 178.252 157.259 183.135 152.925 182.215C148.591 181.294 144.198 179.513 140.029 182.962C135.465 186.737 137.846 189.073 137.864 194.371C137.936 215.848 134.272 222.128 132.531 212.107C132.34 211.009 129.134 210.307 128.39 205.665C127.426 199.646 126.751 192.31 127.887 187.936C128.845 184.25 130.82 181.629 134.465 178.659C140.219 173.97 148.471 173.414 154.111 173.649C159.75 173.883 170.933 179.551 170.975 188.912Z" fill="#263238"/>
<path d="M133.291 211.738C133.105 209.905 131.391 208.546 129.519 208.825C127.248 209.164 124.782 210.566 125.204 215.145C125.953 223.267 134.187 220.861 134.18 220.627C134.175 220.468 133.636 215.135 133.291 211.738Z" fill="#FFBF9D"/>
<path d="M132.079 217.73C132.04 217.707 131.942 217.842 131.707 217.973C131.477 218.101 131.071 218.21 130.621 218.089C129.709 217.851 128.84 216.554 128.665 215.093C128.576 214.356 128.67 213.638 128.886 213.032C129.087 212.415 129.443 211.966 129.88 211.851C130.313 211.713 130.652 211.944 130.775 212.164C130.908 212.381 130.87 212.548 130.916 212.558C130.941 212.576 131.083 212.406 130.985 212.076C130.935 211.918 130.82 211.735 130.609 211.596C130.394 211.455 130.092 211.399 129.785 211.459C129.145 211.558 128.618 212.185 128.381 212.85C128.109 213.522 127.985 214.33 128.085 215.158C128.289 216.79 129.293 218.247 130.532 218.481C131.133 218.579 131.608 218.364 131.843 218.15C132.082 217.927 132.109 217.742 132.079 217.73Z" fill="#FF9A6C"/>
<path d="M172.75 180.105C171.464 179.165 169.695 179.03 168.418 178.079C166.093 176.348 165.993 172.409 163.263 171.378C161.644 170.767 159.824 171.519 158.096 171.345C155.303 171.064 154.223 169.012 149.979 169C144.467 168.985 142.698 172.979 142.698 172.979C142.698 172.979 139.664 171.383 136.351 173.56C133.855 175.2 133.693 178.487 133.693 178.487C133.693 178.487 132.819 178.06 130.172 180.092C128.488 181.385 127.115 184.172 126.504 186.171C125.593 189.149 126.923 192.292 128.228 195.128C128.934 196.663 129.809 198.353 131.448 198.889C133.447 199.543 135.647 198.025 136.427 196.12C137.208 194.215 138.443 192.3 139.392 190.468C141.038 187.29 142.723 184.325 141.338 182.29C143.241 181.694 145.327 181.644 147.228 182.256C149.147 182.874 150.82 184.07 152.726 184.726C154.632 185.381 157.048 185.343 158.345 183.835C159.305 186.095 162.791 186.83 164.628 185.159C166.122 187.557 169.656 188.665 172.126 187.215C174.595 185.766 175.055 181.791 172.75 180.105Z" fill="#263238"/>
<path d="M127.389 193.218C127.465 193.182 127.799 193.931 128.358 195.079C128.652 195.637 129.051 196.303 129.736 196.724C130.422 197.148 131.37 197.187 132.329 197.015C133.288 196.842 134.154 196.465 134.837 195.985C135.515 195.5 136.046 194.933 136.473 194.453C137.317 193.474 137.807 192.825 137.871 192.87C137.919 192.903 137.539 193.612 136.749 194.667C136.345 195.188 135.834 195.795 135.112 196.344C134.389 196.883 133.456 197.305 132.422 197.492C131.408 197.678 130.299 197.632 129.49 197.101C128.69 196.572 128.304 195.817 128.04 195.224C127.546 194.003 127.342 193.243 127.389 193.218Z" fill="#455A64"/>
<path d="M127.707 199.495C127.769 199.431 128.247 200.038 129.361 200.386C129.91 200.555 130.606 200.648 131.359 200.553C132.11 200.461 132.911 200.163 133.658 199.702C135.164 198.765 136.129 197.426 136.805 196.479C137.474 195.514 137.881 194.902 137.945 194.939C138 194.97 137.705 195.637 137.104 196.662C136.496 197.665 135.543 199.101 133.926 200.111C133.123 200.607 132.244 200.921 131.411 200.997C130.578 201.076 129.823 200.935 129.242 200.709C128.057 200.237 127.659 199.507 127.707 199.495Z" fill="#455A64"/>
<path d="M154.002 217.825C153.633 218.723 153.647 219.601 153.528 220.561C153.41 221.521 153.83 222.198 154.441 222.961C155.073 223.751 156.123 224.159 157.152 224.178C157.162 224.178 157.173 224.178 157.183 224.179C159.106 224.202 160.736 222.791 161.038 220.945L161.369 218.928C159.404 218.41 154.147 217.957 154.002 217.825Z" fill="#FF9A6C"/>
<path d="M159.148 223.594C159.136 223.555 158.902 223.605 158.479 223.662C158.06 223.717 157.441 223.791 156.711 223.674C155.987 223.563 155.158 223.191 154.558 222.453C153.96 221.736 153.643 220.678 153.711 219.596C153.746 218.999 153.906 218.43 154.161 217.945L153.902 218.07C155.783 218.345 157.428 218.565 158.606 218.702C159.783 218.839 160.492 218.892 160.502 218.834C160.511 218.775 159.82 218.615 158.656 218.394C157.493 218.173 155.858 217.891 153.98 217.592L153.805 217.564L153.721 217.718C153.42 218.269 153.24 218.906 153.201 219.567C153.127 220.764 153.486 221.936 154.196 222.748C154.891 223.564 155.868 223.954 156.662 224.025C157.466 224.104 158.103 223.968 158.521 223.853C158.942 223.734 159.157 223.621 159.148 223.594Z" fill="#263238"/>
<path d="M118.314 347.806L91.3426 324.698L88.3086 354.221L141.413 393.306L159.782 390.944L174.445 384.373C174.445 384.373 205.062 342.696 205.062 339.858L192.888 344.759L118.314 347.806Z" fill="#263238"/>
<path d="M118.312 347.806C118.876 349.455 160.216 389.08 160.216 389.08L135.644 416.203C135.644 416.203 87.8887 374.68 79.7457 368.284C71.6027 361.888 60.8907 349.23 60.0457 340.888C59.1997 332.546 70.3917 321.552 70.3917 321.552C70.3917 321.552 81.3847 321.552 87.5867 323.566C93.7877 325.579 118.312 347.806 118.312 347.806Z" fill="#263238"/>
<path d="M106.977 409.887C107.616 406.505 108.292 403.03 110.143 400.128C111.995 397.226 115.326 394.995 118.734 395.477C121.003 395.798 122.967 397.237 125.197 397.763C127.383 398.278 129.665 397.885 131.91 397.857C134.155 397.83 137.989 397.822 139.402 399.566L156.119 410.993C150.97 414.621 142.181 415.024 135.94 415.878C129.699 416.732 123.328 417.177 117.394 419.288C114.809 420.207 111.911 421.43 109.463 420.193C107.764 419.334 106.782 417.441 106.525 415.554C106.269 413.668 106.624 411.758 106.977 409.887Z" fill="#455A64"/>
<path d="M108.683 419.323C108.647 419.322 108.626 418.965 108.619 418.32C108.613 417.675 108.621 416.743 108.663 415.59C108.758 413.293 108.955 410.073 109.935 406.653C110.916 403.231 112.675 400.422 114.323 398.776C115.14 397.944 115.889 397.364 116.437 397.017C116.984 396.667 117.311 396.516 117.326 396.542C117.385 396.627 116.12 397.332 114.592 399.027C113.053 400.698 111.397 403.451 110.435 406.798C109.475 410.147 109.219 413.326 109.031 415.611C108.858 417.903 108.76 419.326 108.683 419.323Z" fill="#263238"/>
<path d="M122.986 416.514C122.835 416.468 123.688 413.603 124.171 409.97C124.674 406.338 124.616 403.351 124.774 403.347C124.841 403.344 124.942 404.09 124.97 405.305C124.999 406.519 124.935 408.201 124.687 410.041C124.436 411.88 124.049 413.518 123.697 414.68C123.347 415.842 123.05 416.534 122.986 416.514Z" fill="#263238"/>
<path d="M128.898 413.912C128.753 413.845 129.709 411.827 130.149 409.151C130.613 406.478 130.373 404.259 130.532 404.243C130.656 404.21 131.141 406.47 130.663 409.238C130.205 412.008 129.004 413.984 128.898 413.912Z" fill="#263238"/>
<path d="M134.312 409.392C134.293 409.353 134.679 409.164 135.305 408.724C135.923 408.281 136.79 407.567 137.555 406.445C137.747 406.166 137.931 405.863 138.098 405.535C138.26 405.208 138.447 404.851 138.505 404.508C138.569 404.159 138.422 403.876 138.078 403.804C137.732 403.722 137.323 403.829 136.931 404.002C136.145 404.343 135.452 405.002 135.018 405.833C134.583 406.664 134.454 407.675 134.655 408.657C135.041 410.667 136.691 412.089 138.356 412.612C138.762 412.738 139.227 412.875 139.565 412.856C139.913 412.824 139.945 412.603 139.705 412.314C139.18 411.812 138.502 411.368 137.948 410.998C135.633 409.521 133.964 409.042 134.001 408.951C134.011 408.92 134.432 409.01 135.167 409.268C135.898 409.531 136.944 409.967 138.143 410.685C138.746 411.065 139.369 411.425 140.032 412.031C140.174 412.2 140.357 412.445 140.288 412.786C140.223 413.123 139.859 413.304 139.612 413.312C139.081 413.339 138.674 413.197 138.209 413.069C137.307 412.784 136.408 412.292 135.666 411.559C134.924 410.83 134.361 409.85 134.145 408.761C133.921 407.676 134.069 406.529 134.566 405.598C135.06 404.67 135.843 403.939 136.742 403.563C137.181 403.381 137.679 403.235 138.189 403.361C138.441 403.418 138.701 403.589 138.834 403.835C138.972 404.081 138.974 404.359 138.932 404.583C138.837 405.043 138.632 405.384 138.454 405.726C138.269 406.065 138.067 406.377 137.857 406.66C137.019 407.803 136.083 408.495 135.417 408.896C134.74 409.291 134.323 409.418 134.312 409.392Z" fill="#263238"/>
<path d="M146.516 383.901C146.516 383.901 195.297 346.95 203.25 340.446C211.203 333.942 231.214 320.858 239.137 337.685C247.061 354.511 236.522 360.018 232.002 368.138C227.482 376.259 199.852 399.277 188.905 406.491C180.078 412.308 164.032 412.308 164.032 412.308L152.855 420.036L132.914 394.845L146.516 383.901Z" fill="#263238"/>
<path d="M188.907 398.994C192.142 396.632 194.551 394.985 197.013 396.001C199.475 397.017 201.142 399.345 202.336 401.725C203.913 404.868 204.895 408.27 205.868 411.649C206.746 414.699 207.494 418.378 205.355 420.723C203.956 422.257 201.655 422.692 199.609 422.343C197.562 421.994 195.7 420.979 193.88 419.979C188.431 416.985 176.519 412.285 171.07 409.291L188.907 398.994Z" fill="#455A64"/>
<path d="M195.996 397.815C196.025 397.794 196.255 398.066 196.647 398.578C197.034 399.093 197.566 399.859 198.177 400.837C199.386 402.796 200.87 405.641 202.002 408.981C202.572 410.648 203.005 412.273 203.319 413.766C203.626 415.257 203.868 416.619 203.871 417.793C203.89 418.964 203.646 419.913 203.355 420.501C203.064 421.092 202.795 421.346 202.776 421.329C202.689 421.302 203.664 420.101 203.503 417.803C203.455 416.677 203.18 415.342 202.85 413.869C202.514 412.398 202.072 410.797 201.509 409.149C200.391 405.849 198.978 403.015 197.86 401.024C196.732 399.035 195.927 397.863 195.996 397.815Z" fill="#263238"/>
<path d="M187.995 413.18C187.884 413.244 186.913 411.16 186.914 408.381C186.891 405.601 187.846 403.51 187.957 403.573C188.111 403.621 187.409 405.711 187.434 408.379C187.43 411.046 188.148 413.131 187.995 413.18Z" fill="#263238"/>
<path d="M181.641 410.854C181.538 410.943 180.742 410.011 180.497 408.565C180.24 407.121 180.678 405.975 180.804 406.024C180.953 406.058 180.772 407.159 181.01 408.476C181.229 409.796 181.77 410.772 181.641 410.854Z" fill="#263238"/>
<path d="M199.435 343.474C199.435 343.474 199.333 343.572 199.12 343.747C198.89 343.932 198.574 344.185 198.165 344.513C197.301 345.193 196.052 346.175 194.445 347.441C191.174 349.989 186.445 353.674 180.54 358.276C168.663 367.477 152.059 380.34 133.073 395.048L133.117 394.689C137.604 400.354 142.286 406.266 147.088 412.329C149.102 414.874 151.095 417.392 153.061 419.876L152.705 419.828C156.022 417.402 159.282 415.018 162.474 412.684L162.499 412.665L162.529 412.653C168.124 410.376 173.373 407.748 178.294 405.03C183.218 402.313 187.811 399.485 192.046 396.635C196.293 393.795 200.1 390.846 203.563 387.971C207.051 385.131 210.279 382.498 213.186 380.071C219.006 375.224 223.542 371.203 226.586 368.358C228.115 366.943 229.277 365.828 230.062 365.072C230.446 364.706 230.741 364.423 230.957 364.217C231.16 364.027 231.272 363.938 231.272 363.938C231.272 363.938 231.182 364.049 230.99 364.25C230.782 364.464 230.496 364.757 230.126 365.137C229.362 365.914 228.219 367.051 226.708 368.487C223.699 371.374 219.192 375.438 213.398 380.323C210.503 382.768 207.287 385.419 203.811 388.274C200.366 391.159 196.54 394.145 192.295 397.002C188.057 399.873 183.459 402.718 178.528 405.452C173.599 408.187 168.34 410.831 162.718 413.125L162.773 413.094C159.582 415.431 156.324 417.817 153.009 420.245L152.807 420.393L152.652 420.197C150.685 417.713 148.692 415.195 146.677 412.651C141.878 406.586 137.199 400.671 132.715 395.004L132.555 394.802L132.759 394.645C151.788 379.994 168.431 367.181 180.336 358.016C186.281 353.465 191.042 349.821 194.334 347.301C195.965 346.065 197.231 345.106 198.107 344.441C198.528 344.128 198.853 343.887 199.09 343.711C199.314 343.548 199.435 343.474 199.435 343.474Z" fill="#455A64"/>
<path d="M114.173 346.993C114.268 346.885 122.07 353.597 131.596 361.983C141.126 370.372 148.772 377.257 148.677 377.365C148.582 377.473 140.782 370.762 131.252 362.374C121.726 353.988 114.078 347.1 114.173 346.993Z" fill="#455A64"/>
<path d="M234.743 282.116C234.462 281.954 229.834 277.087 231.727 270.832C233.62 264.577 236.633 260.912 238.279 258.444C239.925 255.976 242.129 249.018 243.619 249.435C245.109 249.852 246.428 251.052 246.357 253.545C246.287 256.038 242.326 260.805 243.801 263.262C244.868 265.04 246.757 264.022 246.757 264.022C246.757 264.022 255.541 259.272 258.884 256.752C262.227 254.232 265.839 252.895 266.45 254.202C267.061 255.508 266.825 256.585 264.053 258.662C261.281 260.739 256.399 263.548 256.591 264.357C256.783 265.165 258.038 264.97 259.669 263.778C261.299 262.586 269.359 257.53 270.504 258.078C271.649 258.627 272.134 260.265 271.234 261.252L269.778 263.095C269.778 263.095 271.869 263.895 271.509 265.303C271.149 266.711 268.874 267.716 268.874 267.716L257.99 274.122C257.99 274.122 257.798 275.133 258.39 275.372C258.982 275.611 266.951 269.767 267.607 270.622C268.263 271.477 269.274 271.435 267.167 273.601C265.06 275.767 258.771 279.713 256.115 280.535C253.459 281.357 243.716 286.877 243.716 286.877L234.743 282.116Z" fill="#FFBF9D"/>
<path d="M254.432 271.386C254.527 271.579 258.182 270.063 262.466 267.766C266.754 265.474 270.023 263.282 269.906 263.102C269.784 262.912 266.338 264.792 262.071 267.073C257.809 269.359 254.331 271.185 254.432 271.386Z" fill="#FF9A6C"/>
<path d="M246.046 274.656C246.1 274.721 246.863 274.189 247.446 272.88C248.024 271.616 248.3 269.461 247.2 267.476C246.654 266.509 245.944 265.77 245.373 265.087C244.789 264.41 244.346 263.778 244.075 263.188C243.508 262.011 243.714 261.167 243.589 261.145C243.506 261.086 243.05 261.997 243.539 263.39C243.764 264.069 244.216 264.816 244.784 265.536C245.343 266.264 246.006 266.998 246.485 267.851C247.439 269.566 247.304 271.476 246.906 272.685C246.511 273.926 245.94 274.571 246.046 274.656Z" fill="#FF9A6C"/>
<path d="M219.425 298.606L231.98 276.633L243.879 287.776C243.879 287.776 235.08 313.573 230.333 321.023C225.586 328.474 220.221 331.156 220.221 331.156C220.221 331.156 210.851 326.683 206.712 321.089C202.572 315.494 191.699 296.508 191.699 296.508L207.095 280.781L219.425 298.606Z" fill="#FFBF9D"/>
<path d="M218.801 309.225C218.668 309.241 218.323 306.657 218.574 303.466C218.812 300.273 219.548 297.773 219.677 297.808C219.827 297.842 219.327 300.36 219.093 303.505C218.845 306.648 218.955 309.214 218.801 309.225Z" fill="#FF9A6C"/>
<path d="M213.391 286.495C213.391 286.495 203.534 266.094 198.369 257.439C193.204 248.784 174.301 247.33 174.301 247.33L184.946 295.545L190.369 301.175L213.391 286.495Z" fill="#9EF67A"/>
<path d="M193.045 276.633C193.161 276.641 192.969 278.335 192.53 281.026C192.053 283.832 191.432 287.491 190.745 291.538C190.063 295.585 189.446 299.244 188.974 302.049C188.77 303.311 188.598 304.377 188.458 305.238C188.332 305.991 188.245 306.405 188.209 306.401C188.173 306.397 188.192 305.974 188.257 305.213C188.316 304.451 188.444 303.353 188.609 301.997C188.952 299.287 189.521 295.556 190.231 291.45C190.939 287.345 191.644 283.641 192.167 280.963C192.416 279.709 192.627 278.65 192.797 277.794C192.953 277.042 193.012 276.64 193.045 276.633Z" fill="#263238"/>
<path d="M195.161 268.783C195.008 268.749 195.612 265.825 195.821 262.168C196.048 258.51 195.796 255.536 195.952 255.521C196.019 255.514 196.169 256.251 196.281 257.459C196.394 258.667 196.45 260.347 196.341 262.199C196.229 264.049 195.974 265.711 195.718 266.897C195.463 268.083 195.226 268.798 195.161 268.783Z" fill="#263238"/>
<path d="M184.946 249.248C184.946 249.248 191.777 282.496 188.826 295.415L187.068 326.731C187.068 326.731 192.476 342.574 191.701 344.807C190.926 347.04 170.404 366.087 152.843 364.971C135.282 363.854 122.874 352.26 121.324 351.143C119.775 350.026 113.139 345.815 113.139 345.815L114.253 331.876L112.952 285.998L109.797 251.31L130.31 246.303L134.562 240.121L157.564 259.432L165.138 240.121L167.64 245.605L184.946 249.248Z" fill="#9EF67A"/>
<path d="M132.227 331.318C132.26 331.251 132.993 331.777 134.512 332.162C136.021 332.549 138.367 332.58 141.022 331.65C143.69 330.768 146.607 329.061 149.573 326.801C152.576 324.588 155.741 321.967 158.849 318.987C165.064 313.01 169.781 306.735 172.818 301.981C174.346 299.606 175.482 297.62 176.256 296.242C176.617 295.589 176.909 295.061 177.137 294.648C177.344 294.286 177.46 294.1 177.476 294.108C177.492 294.116 177.407 294.318 177.23 294.696C177.024 295.121 176.76 295.665 176.434 296.338C175.713 297.748 174.623 299.768 173.129 302.178C170.16 307.001 165.46 313.351 159.209 319.362C156.084 322.359 152.891 324.984 149.856 327.187C146.86 329.436 143.869 331.146 141.135 331.999C138.411 332.903 135.987 332.816 134.459 332.357C134.066 332.273 133.745 332.114 133.458 332.003C133.168 331.899 132.944 331.766 132.763 331.659C132.402 331.45 132.218 331.333 132.227 331.318Z" fill="#263238"/>
<path d="M156.864 262.191C156.844 262.207 156.659 262.007 156.331 261.619C155.957 261.161 155.495 260.595 154.935 259.911L155.168 259.892C154.387 261.376 153.384 263.403 152.005 265.838C151.795 266.141 151.419 266.432 150.977 266.459C150.538 266.492 150.144 266.311 149.817 266.102C149.158 265.654 148.671 265.091 148.092 264.572C146.965 263.501 145.785 262.38 144.566 261.223C140.78 257.613 137.373 254.325 134.924 251.925C133.76 250.769 132.792 249.808 132.043 249.064C131.371 248.38 131.011 247.99 131.036 247.964C131.061 247.938 131.468 248.279 132.183 248.918C132.961 249.63 133.968 250.552 135.178 251.659C137.691 253.99 141.139 257.236 144.925 260.846C146.139 262.008 147.315 263.133 148.438 264.208C149.007 264.729 149.525 265.318 150.08 265.698C150.646 266.108 151.289 266.102 151.641 265.565C152.983 263.265 154.093 261.183 154.921 259.76L155.031 259.571L155.154 259.742C155.672 260.459 156.099 261.051 156.446 261.53C156.739 261.945 156.884 262.175 156.864 262.191Z" fill="#263238"/>
<path d="M168.081 247.288C168.117 247.291 168.111 247.684 168.069 248.395C168.01 249.103 167.915 250.13 167.702 251.386C167.289 253.895 166.447 257.342 164.907 260.921C164.386 262.142 163.825 263.298 163.255 264.363L162.981 264.875L162.796 264.326C161.858 261.538 161.068 259.128 160.532 257.426L160.822 257.45C159.897 259.074 159.334 260.004 159.281 259.975C159.228 259.947 159.695 258.965 160.542 257.299L160.705 256.979L160.832 257.323C161.451 258.996 162.303 261.385 163.269 264.164L162.811 264.128C163.363 263.069 163.912 261.923 164.427 260.717C165.95 257.18 166.837 253.791 167.339 251.319C167.843 248.843 167.995 247.279 168.081 247.288Z" fill="#263238"/>
<path d="M107.222 289.748L91.5994 309.54C91.5994 309.54 94.7153 316.057 95.4803 318.141C96.2463 320.225 109.264 340.803 109.264 340.803L96.5014 347.315C96.5014 347.315 76.2064 328.83 69.7004 321.266C66.0374 317.008 64.7284 311.348 65.7494 306.399C66.7704 301.45 89.3683 274.252 89.3683 274.252L103.904 275.942L107.222 289.748Z" fill="#FFBF9D"/>
<path d="M109.265 340.803C109.265 340.803 117.16 360.639 117.91 362.94C118.66 365.241 119.16 379.401 118.535 381.697C117.91 383.993 114.41 390.754 112.91 391.264C111.41 391.774 110.273 392.553 111.16 388.713C112.047 384.873 113.285 382.207 113.285 382.207L113.535 374.553C113.535 374.553 111.732 380.579 110.41 381.314C109.088 382.049 105.16 380.676 105.16 380.676V379.4C105.16 379.4 101.66 379.91 101.16 378.635C100.66 377.36 101.615 374.974 101.615 374.974C101.615 374.974 99.6604 378.89 97.6604 377.614C95.6604 376.338 97.2854 375.573 97.6604 373.022C98.0354 370.471 98.2364 367.253 97.6604 363.965C97.0844 360.677 96.1604 358.352 95.7854 356.184C95.4104 354.015 96.5034 347.315 96.5034 347.315L103.66 339.856L109.265 340.803Z" fill="#FFBF9D"/>
<path d="M83.2305 278.704C83.2305 278.704 99.6885 258.503 103.798 254.218C107.908 249.933 114.468 251.406 115.055 251.406C115.642 251.406 122.541 262.355 121.367 273.146C120.193 283.937 113.058 289.627 113.058 289.627L103.096 302.104L83.2305 278.704Z" fill="#9EF67A"/>
<path d="M107.593 371.261C107.729 371.279 107.536 373.452 106.82 376.036C106.112 378.623 105.167 380.589 105.041 380.535C104.902 380.478 105.62 378.45 106.318 375.898C107.024 373.349 107.444 371.238 107.593 371.261Z" fill="#FF9A6C"/>
<path d="M102.426 368.839C102.559 368.826 102.772 370.755 102.308 373.079C101.857 375.407 100.93 377.111 100.812 377.049C100.67 376.987 101.361 375.237 101.797 372.979C102.248 370.724 102.271 368.842 102.426 368.839Z" fill="#FF9A6C"/>
<path d="M115.085 285.674C115.052 285.656 115.292 285.165 115.737 284.285C116.181 283.405 116.83 282.135 117.568 280.539C119.007 277.365 120.909 272.762 120.992 267.402C121.024 264.743 120.573 262.204 119.693 260.082C118.821 257.953 117.574 256.249 116.343 255.022C113.834 252.552 111.575 252.046 111.646 251.93C111.651 251.913 111.785 251.943 112.036 252.016C112.29 252.081 112.651 252.216 113.11 252.409C114.022 252.802 115.29 253.535 116.599 254.757C117.896 255.982 119.211 257.712 120.135 259.897C121.068 262.077 121.545 264.686 121.512 267.408C121.424 272.897 119.429 277.547 117.899 280.696C117.113 282.282 116.413 283.528 115.913 284.381C115.414 285.233 115.115 285.691 115.085 285.674Z" fill="#263238"/>
<path d="M85.8291 299.462C85.8741 299.418 86.5471 300.004 87.4801 301.1C88.4131 302.193 89.5771 303.823 90.5791 305.782C91.5771 307.745 92.2131 309.644 92.5501 311.041C92.8891 312.44 92.9681 313.328 92.9061 313.339C92.7421 313.379 92.1021 309.873 90.1151 306.019C88.1631 302.147 85.7001 299.571 85.8291 299.462Z" fill="#FF9A6C"/>
</g>
<defs>
<clipPath id="clip0_7686_7367">
<rect width="563" height="537" fill="white"/>
</clipPath>
</defs>
</svg>
