<svg xmlns="http://www.w3.org/2000/svg" width="520" height="520" fill="none" viewBox="0 0 520 520"><rect width="520" height="520" fill="#000" rx="117"/><path fill="url(#a)" d="M343.005 237.858c12.371-8.149 27.763-10.084 41.406-15.918 27.667-11.828 46.876-41.095 46.685-71.093-.191-30.028-19.813-59.01-47.639-70.458 25.855 6.184 50.692 21.214 63.126 44.647 12.244 23.116 10.813 51.972-.286 75.627-11.099 23.687-30.975 42.459-53.459 55.935-8.555 5.137-17.523 9.545-26.141 14.618-28.24 16.553-52.091 39.478-75.593 62.214-25.919 25.082-52.251 50.862-68.565 83.015.127-22.64 10.558-44.012 23.12-62.879 12.53-18.868 27.413-36.276 38.226-56.19 13.834-25.526 20.544-54.857 19.176-83.839 1.432 9.83 4.453 20.135 11.704 27.27 10.113 9.988 18.063 3.742 28.24-2.949"/><path fill="url(#b)" d="M273.995 242.232c-6.488 1.078-12.753-2.696-17.777-6.85-5.057-4.185-9.827-9.1-16.092-11.098-10.685-3.424-21.784 2.6-32.184 6.754-21.911 8.784-46.876 9.672-69.359 2.442-14.216-4.566-27.191-12.145-40.739-18.455-13.515-6.31-28.144-11.415-43.028-10.464 16.537 4.186 32.12 12.24 45.096 23.306 8.586 7.325 16.091 15.95 25.218 22.641 21.753 15.886 51.424 18.899 77.279 11.162 9.127-2.727 19.622-6.533 27.572-1.269 5.247 3.488 7.601 10.052 8.11 16.299 1.526 18.36-9.382 35.07-16.251 52.162-11.067 27.492-11.799 58.979-2.067 86.979-3.149-46.835 36.222-84.886 51.042-110.698 4.166-7.261 9.413-13.92 12.943-21.531 6.011-13 8.237-27.365 10.336-41.539 1.94-13.223 3.657-27.65-3.085-39.224 2.512 4.312-2.226 17.789-3.244 22.83-1.463 7.294-5.724 15.253-13.77 16.584z"/><path fill="url(#c)" d="M297.275 161.596c-8.714.602-16.728 5.39-21.689 11.954s-7.124 14.65-7.569 22.609c-.604 11.193 2.194 22.831 9.636 31.709 3.53 4.218 8.523 7.928 14.311 8.054 4.261.096 8.332-1.775 11.798-4.027 11.608-7.515 16.887-20.389 19.781-33.072 3.117-13.509-4.07-38.813-26.332-37.259z"/><path fill="url(#d)" d="M385.705 89.456c-13.134-7.928-28.399-11.638-43.632-13.445-45.032-5.39-91.971 5.39-129.625 30.631-37.653 25.209-65.543 64.814-75.688 108.89 24.551-53.05 76.102-90.784 132.391-106.956 21.911-6.278 45.063-9.607 67.515-5.739 22.453 3.869 44.173 15.601 56.703 34.563s14.279 45.503 1.399 64.212c13.898-7.42 24.074-21.436 26.809-36.91 4.675-26.509-13.229-61.516-35.872-75.215z"/><path fill="url(#e)" d="M194.451 428.778c1.622.285 52.314 9.227 95.151-6.469 24.838-9.101 47.417-21.594 66.816-37.322 18.509-14.998 35.109-31.678 49.42-49.688-17.682 25.557-38.957 49.593-65.734 68.65-26.778 19.058-93.243 58.25-179.013 32.344-39.53-11.923-67.007-44.742-72.827-79.686s5.852-70.078 21.34-102.548c-1.113 2.315 19.653 11.701 17.84 15.665-37.049 81.651-15.932 143.643 66.975 159.022z"/><defs><linearGradient id="a" x1="222.118" x2="454.554" y1="241.391" y2="246.517" gradientUnits="userSpaceOnUse"><stop stop-color="#71823c"/><stop offset="1" stop-color="#b0c76b"/></linearGradient><linearGradient id="b" x1="54.848" x2="295.843" y1="309.329" y2="309.329" gradientUnits="userSpaceOnUse"><stop stop-color="#e95100"/><stop offset="1" stop-color="#fd8a6b"/></linearGradient><linearGradient id="c" x1="267.836" x2="324.072" y1="197.155" y2="198.51" gradientUnits="userSpaceOnUse"><stop stop-color="#71823c"/><stop offset="1" stop-color="#b0c76b"/></linearGradient><linearGradient id="d" x1="136.797" x2="422.342" y1="145.083" y2="145.083" gradientUnits="userSpaceOnUse"><stop stop-color="#e95100"/><stop offset="1" stop-color="#fd8a6b"/></linearGradient><linearGradient id="e" x1="86.165" x2="404.197" y1="345.479" y2="362.418" gradientUnits="userSpaceOnUse"><stop stop-color="#71823c"/><stop offset="1" stop-color="#b0c76b"/></linearGradient></defs></svg>