<svg width="229" height="176" viewBox="0 0 229 176" fill="none" xmlns="http://www.w3.org/2000/svg">
<path d="M64.5818 211.674C42.8837 179.491 28.5828 128.568 60.093 92.8279C60.093 92.8279 83.5833 65.2217 114.173 46.075C132.327 34.7111 153.859 30.8388 173.884 35.3348C193.908 39.8309 210.721 52.3207 220.533 69.9568C226.905 81.4118 234.313 92.5182 243.605 101.761C259.776 117.847 273.769 133.877 266.745 158.828C260.474 181.107 249.485 205.784 233.353 223.196C222.389 235.029 207.731 245.733 193.49 253.15C120.917 290.949 86.2788 243.857 64.5818 211.674Z" fill="#F4F7FA"/>
<path d="M90.9997 153.85C91.5373 154.598 92.5816 154.768 93.3302 154.23L111.175 141.401C111.923 140.864 112.096 139.82 111.558 139.071L82.3175 95.5375C81.7799 94.7897 79.3807 95.5936 78.6329 96.1312L60.7879 108.96C60.0401 109.497 58.5131 111.514 59.0513 112.263L90.9997 153.85Z" fill="#A6ADD8"/>
<path opacity="0.5" d="M82.1714 126.264C82.6045 126.866 83.4979 126.966 84.1655 126.486L87.7954 123.876C88.463 123.397 88.6532 122.518 88.2202 121.916L73.2629 101.109C72.8293 100.506 71.9365 100.407 71.2688 100.887L67.639 103.496C66.9714 103.976 66.7806 104.854 67.2142 105.457L82.1714 126.264Z" fill="#FCEAD2"/>
<path d="M59.0571 108.433C59.5111 109.064 61.1218 107.816 61.7525 107.363L76.8012 96.5444C77.4318 96.091 78.7189 94.3905 78.265 93.7591L69.12 83.4486C68.6661 82.8172 67.7862 82.6733 67.1555 83.1266L52.1068 93.9448C51.4761 94.3981 51.3322 95.2781 51.7861 95.9095L59.0571 108.433Z" fill="#C6D4F4"/>
<path d="M57.8982 113.43C58.4714 114.227 59.583 114.41 60.382 113.835L83.0765 97.5207C83.8739 96.9475 84.055 95.8356 83.4818 95.0382L81.9782 92.9465C81.4044 92.1484 80.2933 91.9666 79.4959 92.5398L56.8022 108.854C56.0032 109.428 55.8215 110.539 56.3953 111.337L57.899 113.429L57.8982 113.43Z" fill="#BDD0FB"/>
<path d="M53.7421 107.651C54.3159 108.449 55.427 108.63 56.2259 108.056L78.9205 91.7416C79.7178 91.1684 79.8995 90.0573 79.3258 89.2591L77.8226 87.1682C77.2489 86.37 76.1378 86.1883 75.3404 86.7615L52.6467 103.075C51.8477 103.65 51.666 104.761 52.2398 105.559L53.7429 107.65L53.7421 107.651Z" fill="#BDD0FB"/>
<path opacity="0.2" d="M97.859 131.758C99.9295 130.27 101.63 128.419 102.978 126.3L111.555 139.071C112.093 139.819 111.921 140.863 111.172 141.401L93.3275 154.23C92.5796 154.767 91.5351 154.599 90.997 153.85L75.4221 133.578C83.493 136.574 91.6735 136.205 97.859 131.758Z" fill="#5A5A5A"/>
<path opacity="0.8" d="M120.337 157.53L170.478 143.809L154.304 85.2943C153.089 85.5269 151.889 85.5079 150.944 85.3628C150.173 85.2731 149.893 84.2117 150.51 83.7443C151.2 83.1608 152.231 82.4251 153.391 81.9152L152.52 78.771C151.305 79.005 150.104 78.9846 149.16 78.8408C148.376 78.7101 148.109 77.6898 148.713 77.1799C149.458 76.6258 150.446 75.9032 151.607 75.3933L150.735 72.2491C149.52 72.4817 148.32 72.4626 147.376 72.3175C146.605 72.1817 146.324 71.1665 146.928 70.6566C147.673 70.1025 148.661 69.3816 149.822 68.87L148.952 65.6796C147.764 65.9047 146.523 65.8983 145.592 65.7956C144.821 65.6597 144.54 64.6446 145.144 64.1333C145.889 63.5792 146.881 62.8717 148.026 62.3038L144.401 49.0723C143.129 44.4235 123.647 33.8392 120.639 32.2178C120.379 32.0808 120.249 32.0123 120.249 32.0123L120.349 31.9821L119.353 28.3795L105.389 32.198L106.372 35.8044C106.372 35.8044 92.8817 57.744 94.2559 62.7802L97.8812 76.0117C99.1405 75.9199 100.366 76.0255 101.297 76.1268C101.479 76.1634 101.622 76.2281 101.733 76.3345C102.068 76.6185 102.174 77.1148 101.954 77.5068C101.923 77.6102 101.846 77.711 101.745 77.7874C101 78.3415 99.9394 78.9771 98.8092 79.3853L99.6799 82.5757C100.865 82.4448 102.04 82.5345 102.956 82.6413C103.002 82.6434 103.05 82.6439 103.083 82.6498C103.854 82.7856 104.133 83.8012 103.53 84.3107C103.454 84.3654 103.391 84.4153 103.315 84.47C102.603 85.03 101.666 85.5651 100.592 85.9566L101.463 89.1008C102.441 89.0026 103.397 89.0347 104.211 89.1113C104.449 89.131 104.66 89.1596 104.866 89.1735C105.637 89.3093 105.916 90.3249 105.314 90.8358C105.118 91.0047 104.903 91.1626 104.655 91.3159C104.017 91.7595 103.242 92.1687 102.377 92.4799L103.248 95.6241C104.029 95.5393 104.821 95.5449 105.518 95.5941C105.934 95.6365 106.322 95.6883 106.648 95.7434C107.42 95.833 107.713 96.8892 107.096 97.3581C106.786 97.6085 106.432 97.8724 106.023 98.1054C105.476 98.444 104.844 98.7611 104.158 99.0026L112.467 129.373L112.476 129.402L120.337 157.53Z" fill="white"/>
<path opacity="0.8" d="M100.397 68.0605L115.402 122.887L123.454 151.867L164.742 140.561L141.85 57.3617C138.69 59.5558 131.223 64.2873 123.969 65.4696C116.628 66.6743 107.009 66.5737 100.356 67.7944C100.35 67.8879 100.374 67.9749 100.397 68.0605Z" fill="#EBEBEB"/>
<path d="M102.454 32.9979L122.195 27.599C122.585 27.4931 122.815 27.0894 122.707 26.7004L120.669 19.245C120.563 18.8556 120.161 18.6254 119.771 18.7331L100.029 24.132C99.6397 24.2379 99.4099 24.6415 99.5172 25.0305L101.555 32.4859C101.663 32.8749 102.064 33.1038 102.454 32.9979Z" fill="#FD7E14"/>
<path d="M163.383 56.8716L164.228 107.389C164.122 108.546 169.856 110.014 177.031 110.669C184.205 111.323 190.11 110.918 190.216 109.76L199.799 60.1949L163.383 56.8716Z" fill="#A6ADD8"/>
<path d="M163.705 75.808L163.951 90.6984C167.342 91.7207 172.543 92.6516 178.41 93.187C184.46 93.7392 189.883 93.7507 193.396 93.3194L196.212 78.7403C192.069 79.1031 186.216 79.0325 179.756 78.443C173.398 77.8627 167.709 76.8954 163.705 75.808Z" fill="#BDD0FB"/>
<path d="M200.301 61.3378C200.142 63.0834 191.58 63.7307 181.181 62.7817C170.788 61.8332 162.488 59.6472 162.647 57.9015C162.806 56.1585 171.365 55.5109 181.758 56.4594C192.157 57.4084 200.46 59.5948 200.301 61.3378Z" fill="#FFCACB"/>
<path d="M200.723 56.7316L163.07 53.2954L162.649 57.9016L200.302 61.3378L200.723 56.7316Z" fill="#FFCACB"/>
<path d="M200.726 56.7312C200.566 58.4751 192.005 59.1206 181.606 58.1716C171.212 57.2231 162.913 55.0388 163.072 53.295C163.231 51.5493 171.789 50.9035 182.183 51.852C192.581 52.801 200.885 54.9856 200.726 56.7312Z" fill="#FFE2E2"/>
<path d="M189.1 56.7022C189.073 56.9925 187.648 57.1019 185.922 56.9444C184.191 56.7864 182.811 56.421 182.838 56.1307C182.864 55.8412 184.287 55.7344 186.018 55.8924C187.743 56.0498 189.126 56.4118 189.1 56.7022Z" fill="#FFCACB"/>
<path d="M192.989 31.7562C192.95 31.9126 192.34 31.9102 191.634 31.7554C190.928 31.5988 190.392 31.3466 190.437 31.1935L189.545 34.3759L192.642 33.0022L192.103 34.9455L189.006 36.3227L188.392 38.5212L191.49 37.1467L190.947 39.0896L187.852 40.4652L187.236 42.6644L190.332 41.2898L189.791 43.2328L187.44 44.2797C188.042 44.2253 188.811 44.1364 189.58 44.0024L192.989 31.7562Z" fill="#F95656"/>
<path d="M192.644 33.0014L189.547 34.375L189.547 34.3768L189.008 36.3219L192.105 34.9447L192.644 33.0014Z" fill="#EAD4B9"/>
<path d="M191.494 37.1457L188.396 38.5202L188.395 38.5201L187.855 40.4641L190.951 39.0885L191.494 37.1457Z" fill="#EAD4B9"/>
<path d="M191.636 31.7539C192.342 31.9096 192.953 31.9111 192.992 31.7547C193.034 31.5995 192.499 31.3474 191.795 31.1928C191.088 31.0351 190.479 31.0338 190.44 31.192C190.394 31.345 190.931 31.5982 191.636 31.7539Z" fill="#EA4242"/>
<path d="M189.655 43.7222C189.614 43.8802 189.004 43.8787 188.298 43.7212C187.596 43.565 187.057 43.3126 187.101 43.1593L186.214 46.3431L189.308 44.9682L188.768 46.9104L185.67 48.2868L185.056 50.4871L188.154 49.1116L187.611 51.0555L184.514 52.4309L183.9 54.6303L186.997 53.2584L186.455 55.2005L184.104 56.2447C184.104 56.2447 185.348 56.5614 186.119 56.4285L189.655 43.7222Z" fill="#F95656"/>
<path d="M189.323 44.9238L186.228 46.2994L186.226 46.2992L185.658 48.3301L188.766 46.9105L189.323 44.9238Z" fill="#EAD4B9"/>
<path d="M188.169 49.0706L185.071 50.4442L184.529 52.3862L187.624 51.0124L188.169 49.0706Z" fill="#EAD4B9"/>
<path d="M187.007 53.2154L183.91 54.5899L183.481 56.1402C183.576 56.1986 183.839 56.2714 184.097 56.2462L186.41 55.3503L187.007 53.2154Z" fill="#EAD4B9"/>
<path d="M190.332 41.2891L187.237 42.6638L186.773 44.3337L186.618 44.8627L189.792 43.2322L190.332 41.2891Z" fill="#EAD4B9"/>
<path opacity="0.2" d="M163.997 93.7107L164.226 107.389C164.12 108.547 169.854 110.015 177.029 110.67C184.203 111.324 190.108 110.919 190.214 109.761L193.461 92.9623C188.299 96.2375 182.059 97.8999 175.5 97.3014C171.316 96.9195 167.43 95.6514 163.997 93.7107Z" fill="#5A5A5A"/>
</svg>
