<svg xmlns="http://www.w3.org/2000/svg" fill="none" viewBox="0 0 129 118">
  <path fill="#fff" d="M12.94 86.885c25.154 15.866 56.758 10.907 56.758 10.907s-9.18-30.684-34.333-46.55C10.21 35.374-21.393 40.334-21.393 40.334s9.179 30.684 34.333 46.55ZM39.774 18.44c8.158 9.635 7.944 23.214 7.944 23.214s-13.442-2.043-21.6-11.678c-8.159-9.635-7.945-23.214-7.945-23.214s13.442 2.043 21.6 11.678ZM65.051 10.9c-10.131 27.96 1.46 57.777 1.46 57.777s28.017-15.518 38.149-43.48c10.131-27.96-1.461-57.778-1.461-57.778S75.182-17.062 65.051 10.9Z"/>
</svg>
