<svg width="65" height="65" viewBox="0 0 65 65" fill="none" xmlns="http://www.w3.org/2000/svg">
<path d="M44.2313 11.6508C44.0159 11.8642 43.8081 12.01 43.6455 12.092H29.5876H15.5297C15.2857 12.01 14.974 11.8642 14.651 11.6508C13.8107 11.0955 12.8938 10.0829 12.8938 8.54602C12.8938 6.41841 14.651 5.2955 15.5297 5H29.5876H43.6455C44.2313 5.2955 45.4028 6.41841 45.4028 8.54602C45.4028 10.0829 44.7915 11.0955 44.2313 11.6508ZM14.651 11.6508C13.7724 13.2754 10.5577 16.7019 9.15187 17.4111C8.34228 17.8195 10.9311 17.4635 12.8938 16.9187M12.8938 16.9187C13.3572 16.7901 13.8473 16.651 14.3403 16.5089C16.2467 15.9595 18.2861 16.0701 20.1071 16.8576L20.4835 17.0203C22.3683 17.8353 24.5062 17.8353 26.3911 17.0203L26.8778 16.8098C28.595 16.0673 30.5531 16.1252 32.2235 16.9678C33.8938 17.8105 35.8519 17.8683 37.5691 17.1258L38.2391 16.8361C40.0228 16.0648 42.0288 15.9808 43.8707 16.6003L44.9635 16.9678L48.6916 18.2976C51.3275 19.1841 43.9969 13.4253 44.2313 11.6508M12.8938 16.9187C12.3081 17.6738 11.1366 19.5387 11.1366 20.9571C11.1366 22.3755 11.1366 43.4152 11.1366 53.7578C11.4294 55.8263 13.0695 59.9633 17.2869 59.9633C21.5043 59.9633 38.9472 59.9633 46.2691 59.9633M46.2691 59.9633C50.8509 59.3723 58.2306 51.4529 56.8248 35.1412C45.1771 35.1412 39.5808 44.8927 46.2691 59.9633C43.6332 60.2588 36.2651 58.8995 34.8593 51.0983C37.2023 50.2117 44.6245 51.0983 46.2691 59.9633ZM46.2691 59.9633C46.9984 55.3087 47.5127 45.7275 51.5531 42.2332M44.9635 16.9678C45.9885 17.4111 48.0386 18.8295 48.0386 20.9571C48.0386 23.0847 48.0386 32.6869 48.0386 37.4149M12.0152 40.4602C14.0653 39.2782 19.2199 37.6234 23.4373 40.4602C28.709 44.0062 33.9807 43.1197 38.3738 39.5737C40.5704 37.8007 44.2189 37.8007 46.2691 38.6872" stroke="#AD43D7" stroke-width="3" stroke-linecap="round"/>
<circle cx="21.6804" cy="32.4816" r="2.91277" stroke="#AD43D7" stroke-width="3"/>
<circle cx="32.2229" cy="25.3888" r="1.5" stroke="#AD43D7" stroke-width="2.29414"/>
<circle cx="35.7373" cy="34.254" r="1.5" stroke="#AD43D7" stroke-width="2.29414"/>
</svg>
