<svg width="65" height="65" viewBox="0 0 65 65" fill="none" xmlns="http://www.w3.org/2000/svg">
<path d="M32.0798 16.0011C31.8051 16.7827 32.2161 17.6389 32.9977 17.9135C33.7793 18.1881 34.6355 17.7771 34.9101 16.9955L33.495 16.4983L32.0798 16.0011ZM51.7049 7.00241L51.5828 5.50739V5.50739L51.7049 7.00241ZM52.4664 7.73226L50.9676 7.67125V7.67125L52.4664 7.73226ZM46.341 23.8755C45.6 24.246 45.2997 25.147 45.6701 25.888C46.0406 26.6289 46.9416 26.9293 47.6826 26.5588L47.0118 25.2172L46.341 23.8755ZM41.5633 15.5028C41.6457 14.6785 41.0443 13.9434 40.22 13.861C39.3956 13.7785 38.6606 14.38 38.5782 15.2043L40.0707 15.3535L41.5633 15.5028ZM39.5838 20.2225L38.0913 20.0733V20.0733L39.5838 20.2225ZM40.8792 20.7543L39.7123 19.8118V19.8118L40.8792 20.7543ZM48.1787 14.1041C48.6992 13.4597 48.5988 12.5152 47.9543 11.9947C47.3098 11.4742 46.3654 11.5746 45.8449 12.2191L47.0118 13.1616L48.1787 14.1041ZM34.9915 27.4444C34.4057 28.0302 34.4057 28.9799 34.9915 29.5657C35.5773 30.1515 36.5271 30.1515 37.1129 29.5657L36.0522 28.5051L34.9915 27.4444ZM59.649 32.3575L60.717 31.3042L60.717 31.3042L59.649 32.3575ZM59.6257 33.3818L58.6301 32.2598V32.2598L59.6257 33.3818ZM47.6713 37.2631C46.8589 37.1007 46.0687 37.6275 45.9062 38.4398C45.7438 39.2522 46.2706 40.0424 47.0829 40.2049L47.3771 38.734L47.6713 37.2631ZM44.9029 31.94L45.0451 30.4468L45.0451 30.4468L44.9029 31.94ZM50.8881 34.0168C51.7128 34.0954 52.445 33.4905 52.5235 32.6658C52.6021 31.8411 51.9972 31.1089 51.1725 31.0303L51.0303 32.5236L50.8881 34.0168ZM44.4555 30.696L43.3948 29.6354V29.6354L44.4555 30.696ZM45.8805 31.3923C46.4663 30.8065 46.4663 29.8568 45.8805 29.271C45.2947 28.6852 44.345 28.6852 43.7592 29.271L44.8199 30.3316L45.8805 31.3923ZM19.2283 19.0225C18.5655 18.5255 17.6253 18.6598 17.1283 19.3225C16.6312 19.9853 16.7655 20.9255 17.4283 21.4225L18.3283 20.2225L19.2283 19.0225ZM19.1148 20.8124L20.0148 19.6124V19.6124L19.1148 20.8124ZM19.2135 21.934L20.3366 22.9283V22.9283L19.2135 21.934ZM18.3283 23.5104L17.274 24.5774H17.274L18.3283 23.5104ZM20.2224 23.0864L19.6258 21.7101V21.7101L20.2224 23.0864ZM21.2258 23.4263L19.9097 24.146L19.9097 24.146L21.2258 23.4263ZM22.8882 23.7143L21.428 23.371V23.371L22.8882 23.7143ZM23.9491 23.166L23.3539 24.5428V24.5428L23.9491 23.166ZM26 23.8757L24.701 23.1257L24.701 23.1257L26 23.8757ZM24.7415 22.2856L25.8417 21.2661L25.8417 21.2661L24.7415 22.2856ZM24.8359 21.1869L23.9359 19.9869V19.9869L24.8359 21.1869ZM26.5347 21.7878C27.1974 21.2908 27.3317 20.3506 26.8347 19.6878C26.3376 19.0251 25.3974 18.8908 24.7347 19.3878L25.6347 20.5878L26.5347 21.7878ZM9.88849 38C9.06006 38 8.38849 38.6716 8.38849 39.5C8.38849 40.3284 9.06006 41 9.88849 41V39.5V38ZM10.1435 40.5941L11.5503 41.1148H11.5503L10.1435 40.5941ZM9.88849 42.3839L9.2915 43.76H9.2915L9.88849 42.3839ZM11.5009 41.3035L12.5549 42.3708H12.5549L11.5009 41.3035ZM12.5594 41.2575L11.5927 42.4044V42.4044L12.5594 41.2575ZM14.1635 42.2927L13.6209 40.8943V40.8943L14.1635 42.2927ZM14.2134 40.9246L12.7279 41.1328V41.1328L14.2134 40.9246ZM15.0041 40.0297L15.0609 38.5307V38.5307L15.0041 40.0297ZM17.1729 39.9495L15.6905 39.7202L15.6905 39.7202L17.1729 39.9495ZM15.3139 38.8687L14.6607 40.219H14.6607L15.3139 38.8687ZM14.5219 37.0164V38.5164V38.5164V37.0164ZM13.3486 35.5164C12.5202 35.5164 11.8486 36.188 11.8486 37.0164C11.8486 37.8448 12.5202 38.5164 13.3486 38.5164V37.0164V35.5164ZM15.0501 37.9679L16.3233 38.7611V38.7611L15.0501 37.9679ZM40.699 34.7219C40.6078 33.8985 39.8663 33.3049 39.0429 33.3961C38.2196 33.4873 37.626 34.2288 37.7172 35.0522L39.2081 34.887L40.699 34.7219ZM39.292 35.6442L40.7829 35.4791V35.4791L39.292 35.6442ZM38.5417 36.4871L38.5985 37.986V37.986L38.5417 36.4871ZM37.1014 36.8647L35.6019 36.8263V36.8263L37.1014 36.8647ZM38.4311 37.7878L37.8263 39.1604V39.1604L38.4311 37.7878ZM38.8707 38.755L40.2984 39.2153V39.2153L38.8707 38.755ZM38.5823 40.3185L39.6759 39.2918L38.5823 40.3185ZM39.6131 39.9663L38.8783 38.6586V38.6586L39.6131 39.9663ZM40.7424 40.3677L39.3326 40.88V40.88L40.7424 40.3677ZM41.4819 42L41.1396 40.5396V40.5396L41.4819 42ZM41.7511 40.1295L40.2545 40.0293V40.0293L41.7511 40.1295ZM43 38.8746L41.6091 39.4362V39.4362L43 38.8746ZM44.0049 37.3569C43.6948 36.5887 42.8206 36.2174 42.0524 36.5276C41.2843 36.8377 40.9129 37.7118 41.2231 38.48L42.614 37.9185L44.0049 37.3569ZM42.3984 39.6182L42.6573 38.1407V38.1407L42.3984 39.6182ZM10.1028 39.5428L10.8605 38.2482L10.1028 39.5428ZM33.495 16.4983L34.9101 16.9955C36.1702 13.4093 40.6142 9.41292 51.8269 8.49744L51.7049 7.00241L51.5828 5.50739C39.8632 6.46425 33.9158 10.7755 32.0798 16.0011L33.495 16.4983ZM52.4664 7.73226L50.9676 7.67125C50.8594 10.3297 50.4823 14.0784 49.6752 17.3794C49.2712 19.0318 48.7727 20.5164 48.1777 21.68C47.5688 22.8708 46.9444 23.557 46.3799 23.8555L47.0811 25.1815L47.7823 26.5075C49.14 25.7896 50.1221 24.4668 50.8488 23.0458C51.5893 21.5975 52.1553 19.8674 52.5894 18.0919C53.4585 14.5373 53.8518 10.5777 53.9652 7.79327L52.4664 7.73226ZM47.0811 25.1815L46.3799 23.8555C46.3669 23.8624 46.3539 23.869 46.341 23.8755L47.0118 25.2172L47.6826 26.5588C47.716 26.5421 47.7493 26.525 47.7823 26.5075L47.0811 25.1815ZM40.0707 15.3535L38.5782 15.2043L38.0913 20.0733L39.5838 20.2225L41.0764 20.3718L41.5633 15.5028L40.0707 15.3535ZM40.8792 20.7543L42.0461 21.6968L48.1787 14.1041L47.0118 13.1616L45.8449 12.2191L39.7123 19.8118L40.8792 20.7543ZM36.0522 28.5051L37.1129 29.5657C38.7686 27.9099 42.2777 26.0099 46.8688 26.6664L47.0811 25.1815L47.2934 23.6966C41.6564 22.8905 37.2316 25.2043 34.9915 27.4444L36.0522 28.5051ZM47.0811 25.1815L46.8688 26.6664C50.1801 27.1399 54.1927 28.9614 58.5811 33.4108L59.649 32.3575L60.717 31.3042C55.9663 26.4874 51.3804 24.281 47.2934 23.6966L47.0811 25.1815ZM59.6257 33.3818L58.6301 32.2598C57.3511 33.3947 55.4136 34.8572 53.3376 35.9275C51.2081 37.0253 49.2033 37.5695 47.6713 37.2631L47.3771 38.734L47.0829 40.2049C49.64 40.7163 52.413 39.7793 54.7122 38.594C57.0649 37.3811 59.2072 35.7585 60.6213 34.5037L59.6257 33.3818ZM44.9029 31.94L44.7607 33.4332L50.8881 34.0168L51.0303 32.5236L51.1725 31.0303L45.0451 30.4468L44.9029 31.94ZM44.4555 30.696L45.5162 31.7567L45.8805 31.3923L44.8199 30.3316L43.7592 29.271L43.3948 29.6354L44.4555 30.696ZM59.649 32.3575L58.5811 33.4108C58.2905 33.1162 58.258 32.59 58.6301 32.2598L59.6257 33.3818L60.6213 34.5037C61.5971 33.6379 61.5743 32.1734 60.717 31.3042L59.649 32.3575ZM44.9029 31.94L45.0451 30.4468C45.6929 30.5085 45.9763 31.2965 45.5162 31.7567L44.4555 30.696L43.3948 29.6354C42.0607 30.9695 42.8824 33.2544 44.7607 33.4332L44.9029 31.94ZM39.5838 20.2225L38.0913 20.0733C37.8707 22.2788 40.6534 23.4212 42.0461 21.6968L40.8792 20.7543L39.7123 19.8118C40.1927 19.2171 41.1524 19.6111 41.0764 20.3718L39.5838 20.2225ZM51.7049 7.00241L51.8269 8.49744C51.3553 8.53594 50.9481 8.15107 50.9676 7.67125L52.4664 7.73226L53.9652 7.79327C54.0192 6.46571 52.9 5.39984 51.5828 5.50739L51.7049 7.00241ZM29.8418 44.5791H28.3418C28.3418 50.6106 23.4523 55.5 17.4209 55.5V57V58.5C25.1092 58.5 31.3418 52.2674 31.3418 44.5791H29.8418ZM17.4209 57V55.5C11.3894 55.5 6.5 50.6106 6.5 44.5791H5H3.5C3.5 52.2674 9.73259 58.5 17.4209 58.5V57ZM5 44.5791H6.5C6.5 38.5477 11.3894 33.6583 17.4209 33.6583V32.1583V30.6583C9.73259 30.6583 3.5 36.8908 3.5 44.5791H5ZM17.4209 32.1583V33.6583C23.4523 33.6583 28.3418 38.5477 28.3418 44.5791H29.8418H31.3418C31.3418 36.8908 25.1092 30.6583 17.4209 30.6583V32.1583ZM25.5607 35.0808L26.8591 35.8319C28.6233 32.7821 31.917 30.7357 35.687 30.7357V29.2357V27.7357C30.8028 27.7357 26.5406 30.3911 24.2623 34.3297L25.5607 35.0808ZM35.687 29.2357V30.7357C41.3149 30.7357 45.8772 35.298 45.8772 40.9259H47.3772H48.8772C48.8772 33.6412 42.9717 27.7357 35.687 27.7357V29.2357ZM35.687 52.6162V51.1162C33.4196 51.1162 31.3292 50.3775 29.6374 49.1271L28.7459 50.3334L27.8543 51.5397C30.0448 53.1586 32.7562 54.1162 35.687 54.1162V52.6162ZM47.3772 40.9259H45.8772C45.8772 46.5538 41.3149 51.1162 35.687 51.1162V52.6162V54.1162C42.9717 54.1162 48.8772 48.2107 48.8772 40.9259H47.3772ZM10.6143 34.3502L11.9692 33.7065C11.2737 32.2425 10.8838 30.6041 10.8838 28.8704H9.38384H7.88384C7.88384 31.0587 8.3769 33.1361 9.2594 34.9938L10.6143 34.3502ZM9.38384 28.8704H10.8838C10.8838 22.6372 15.9368 17.5842 22.17 17.5842V16.0842V14.5842C14.28 14.5842 7.88384 20.9803 7.88384 28.8704H9.38384ZM22.17 16.0842V17.5842C28.4032 17.5842 33.4562 22.6372 33.4562 28.8704H34.9562H36.4562C36.4562 20.9803 30.0601 14.5842 22.17 14.5842V16.0842ZM18.3283 20.2225L17.4283 21.4225L18.2148 22.0124L19.1148 20.8124L20.0148 19.6124L19.2283 19.0225L18.3283 20.2225ZM19.2135 21.934L18.0904 20.9397C17.8269 21.2373 17.4839 21.6471 17.2307 22.0461C17.1114 22.2342 16.9514 22.5125 16.8591 22.8304C16.7907 23.0662 16.5961 23.9076 17.274 24.5774L18.3283 23.5104L19.3826 22.4434C19.6519 22.7096 19.7516 23.0264 19.7736 23.261C19.7932 23.47 19.7541 23.6187 19.7403 23.6664C19.7143 23.756 19.6959 23.7604 19.7638 23.6534C19.8851 23.4622 20.099 23.1967 20.3366 22.9283L19.2135 21.934ZM18.3283 23.5104L17.274 24.5774C17.811 25.108 18.4923 25.0914 18.6942 25.0826C18.993 25.0696 19.283 25.0041 19.5075 24.9425C19.9702 24.8155 20.4615 24.6176 20.8189 24.4626L20.2224 23.0864L19.6258 21.7101C19.3074 21.8481 18.97 21.9791 18.7137 22.0494C18.5788 22.0864 18.5368 22.0866 18.5639 22.0854C18.5792 22.0848 18.6649 22.0813 18.79 22.1104C18.9145 22.1394 19.1558 22.2194 19.3826 22.4434L18.3283 23.5104ZM21.2258 23.4263L19.9097 24.146C20.093 24.4813 20.3418 24.9171 20.589 25.2823C20.7087 25.4592 20.8599 25.6673 21.0282 25.8469C21.1108 25.935 21.2357 26.0578 21.3974 26.1687C21.529 26.259 21.8688 26.4717 22.3468 26.4717V24.9717V23.4717C22.57 23.4717 22.7459 23.5244 22.8569 23.5688C22.9687 23.6136 23.0489 23.6636 23.0945 23.6949C23.1421 23.7275 23.1743 23.7552 23.1904 23.7697C23.2074 23.785 23.2164 23.7946 23.2171 23.7954C23.2175 23.7958 23.2034 23.7805 23.1746 23.7428C23.1471 23.7067 23.1132 23.6595 23.0733 23.6006C22.9069 23.3547 22.7121 23.0179 22.5419 22.7067L21.2258 23.4263ZM22.3468 24.9717V26.4717C22.8022 26.4717 23.1414 26.2815 23.3378 26.13C23.5297 25.9821 23.6564 25.8189 23.7309 25.7111C23.8791 25.4963 23.9774 25.2675 24.0392 25.1076C24.1702 24.769 24.2741 24.3738 24.3484 24.0575L22.8882 23.7143L21.428 23.371C21.3622 23.6509 21.2958 23.8843 21.2412 24.0254C21.2103 24.1054 21.212 24.0792 21.2618 24.007C21.2871 23.9705 21.3641 23.8636 21.5061 23.7542C21.6526 23.6412 21.9415 23.4717 22.3468 23.4717V24.9717ZM23.9491 23.166L23.3539 24.5428C23.7778 24.7261 24.304 24.9468 24.7437 25.1087C24.956 25.187 25.1925 25.2681 25.4026 25.3209C25.4967 25.3445 25.6621 25.3826 25.8483 25.3923C25.936 25.3969 26.1178 25.401 26.3333 25.3479C26.5316 25.2991 27.0028 25.1388 27.299 24.6257L26 23.8757L24.701 23.1257C24.9886 22.6276 25.4427 22.4776 25.6162 22.4349C25.807 22.3879 25.9563 22.3939 26.0044 22.3964C26.1114 22.402 26.1695 22.4203 26.1334 22.4113C26.0832 22.3986 25.968 22.3626 25.7807 22.2937C25.4212 22.1612 24.9565 21.9673 24.5443 21.7891L23.9491 23.166ZM26 23.8757L27.299 24.6257C27.5452 24.1994 27.512 23.7938 27.4879 23.6282C27.4603 23.4392 27.4039 23.2922 27.3707 23.2135C27.3023 23.0517 27.2173 22.9163 27.1641 22.8356C27.0481 22.6599 26.9003 22.4723 26.7643 22.3076C26.4831 21.9669 26.1274 21.5743 25.8417 21.2661L24.7415 22.2856L23.6412 23.3051C23.9173 23.6031 24.2259 23.945 24.4509 24.2176C24.5681 24.3595 24.6339 24.4482 24.6596 24.4873C24.6772 24.5139 24.6451 24.4706 24.6074 24.3815C24.5895 24.3392 24.543 24.2237 24.5192 24.0609C24.4989 23.9216 24.4635 23.537 24.701 23.1257L26 23.8757ZM24.8359 21.1869L25.7359 22.3869L26.5347 21.7878L25.6347 20.5878L24.7347 19.3878L23.9359 19.9869L24.8359 21.1869ZM24.7415 22.2856L25.8417 21.2661C26.1361 21.5837 26.1099 22.1065 25.7359 22.3869L24.8359 21.1869L23.9359 19.9869C22.8586 20.7949 22.7492 22.3425 23.6412 23.3051L24.7415 22.2856ZM22.8882 23.7143L24.3484 24.0575C24.2554 24.4532 23.8124 24.7411 23.3539 24.5428L23.9491 23.166L24.5443 21.7891C23.2029 21.2092 21.7411 22.0391 21.428 23.371L22.8882 23.7143ZM20.2224 23.0864L20.8189 24.4626C20.4919 24.6044 20.0952 24.4853 19.9097 24.146L21.2258 23.4263L22.5419 22.7067C21.9689 21.6589 20.6937 21.2472 19.6258 21.7101L20.2224 23.0864ZM19.1148 20.8124L18.2148 22.0124C17.8263 21.721 17.841 21.2214 18.0904 20.9397L19.2135 21.934L20.3366 22.9283C21.1759 21.9803 21.1153 20.4378 20.0148 19.6124L19.1148 20.8124ZM10.1435 40.5941L8.7368 40.0734C8.59884 40.4461 8.42726 40.9523 8.33556 41.4159C8.29236 41.6343 8.24385 41.9517 8.27283 42.2814C8.29433 42.526 8.41728 43.3808 9.2915 43.76L9.88849 42.3839L10.4855 41.0079C10.8328 41.1585 11.0403 41.4178 11.1457 41.6286C11.2396 41.8164 11.257 41.9692 11.2613 42.0187C11.2695 42.1115 11.2539 42.1224 11.2786 41.9979C11.3225 41.7758 11.4258 41.451 11.5503 41.1148L10.1435 40.5941ZM9.88849 42.3839L9.2915 43.76C9.98414 44.0605 10.6133 43.7985 10.7983 43.7173C11.0722 43.5971 11.3189 43.4311 11.5059 43.2925C11.8913 43.0068 12.2777 42.6445 12.5549 42.3708L11.5009 41.3035L10.4469 40.2362C10.2 40.48 9.93282 40.7242 9.71937 40.8824C9.60698 40.9657 9.56787 40.9811 9.5927 40.9702C9.60675 40.9641 9.68532 40.9298 9.81256 40.9117C9.93907 40.8937 10.193 40.881 10.4855 41.0079L9.88849 42.3839ZM12.5594 41.2575L11.5927 42.4044C11.8849 42.6507 12.2745 42.9671 12.637 43.2181C12.8127 43.3397 13.0289 43.4791 13.2507 43.5856C13.3596 43.6379 13.5205 43.7071 13.7114 43.7521C13.8667 43.7886 14.2605 43.864 14.7061 43.6911L14.1635 42.2927L13.6209 40.8943C13.8289 40.8135 14.0121 40.799 14.1315 40.8003C14.252 40.8016 14.3448 40.8192 14.3987 40.8319C14.4549 40.8451 14.495 40.8593 14.5152 40.8669C14.5365 40.875 14.5484 40.8807 14.5494 40.8812C14.5498 40.8814 14.5312 40.8723 14.4907 40.8475C14.452 40.8239 14.4033 40.7921 14.3448 40.7516C14.1007 40.5826 13.7973 40.3391 13.5261 40.1105L12.5594 41.2575ZM14.1635 42.2927L14.7061 43.6911C15.1307 43.5264 15.378 43.2264 15.5064 43.0141C15.6318 42.8068 15.6909 42.6088 15.7213 42.4814C15.7818 42.2275 15.7907 41.9786 15.7905 41.8072C15.7901 41.4442 15.744 41.0381 15.6989 40.7163L14.2134 40.9246L12.7279 41.1328C12.7678 41.4175 12.7903 41.6591 12.7905 41.8104C12.7906 41.8962 12.7827 41.8711 12.803 41.7858C12.8133 41.7426 12.8465 41.6151 12.9393 41.4617C13.035 41.3034 13.2431 41.0409 13.6209 40.8943L14.1635 42.2927ZM15.0041 40.0297L14.9472 41.5286C15.4087 41.5461 15.9792 41.5615 16.4477 41.5534C16.6739 41.5495 16.9237 41.5397 17.1387 41.5129C17.235 41.5009 17.403 41.4766 17.58 41.4183C17.6634 41.3908 17.8344 41.3289 18.0162 41.2014C18.1833 41.0842 18.5647 40.7643 18.6552 40.1788L17.1729 39.9495L15.6905 39.7202C15.7784 39.1517 16.1476 38.8476 16.2939 38.745C16.4548 38.6322 16.5961 38.5838 16.6419 38.5687C16.7437 38.5352 16.8044 38.5313 16.7675 38.5359C16.7161 38.5423 16.5957 38.5504 16.3961 38.5539C16.0131 38.5605 15.5097 38.5478 15.0609 38.5307L15.0041 40.0297ZM17.1729 39.9495L18.6552 40.1788C18.7339 39.6701 18.5368 39.292 18.4549 39.1537C18.3578 38.9896 18.2499 38.8747 18.1903 38.815C18.0664 38.6913 17.9361 38.5962 17.8535 38.5388C17.6741 38.414 17.4571 38.2876 17.2577 38.1774C16.8466 37.9501 16.3465 37.7018 15.9671 37.5183L15.3139 38.8687L14.6607 40.219C15.0282 40.3967 15.4687 40.6163 15.806 40.8028C15.9809 40.8995 16.09 40.9665 16.1403 41.0015C16.1726 41.024 16.1331 41.0004 16.0699 40.9373C16.0405 40.908 15.9554 40.8207 15.8729 40.6811C15.8055 40.5673 15.6146 40.2107 15.6905 39.7202L17.1729 39.9495ZM14.5219 37.0164V35.5164H13.3486V37.0164V38.5164H14.5219V37.0164ZM15.3139 38.8687L15.9671 37.5183C16.4203 37.7376 16.6039 38.3108 16.3233 38.7611L15.0501 37.9679L13.777 37.1747C13.1003 38.2609 13.5332 39.6736 14.6607 40.219L15.3139 38.8687ZM14.2134 40.9246L15.6989 40.7163C15.7553 41.1189 15.4464 41.5475 14.9472 41.5286L15.0041 40.0297L15.0609 38.5307C13.6006 38.4754 12.538 39.7777 12.7279 41.1328L14.2134 40.9246ZM15.0501 37.9679L16.3233 38.7611C17.2041 37.3474 16.1875 35.5164 14.5219 35.5164V37.0164V38.5164C13.8331 38.5164 13.4128 37.7593 13.777 37.1747L15.0501 37.9679ZM11.5009 41.3035L12.5549 42.3708C12.3013 42.6212 11.8884 42.6537 11.5927 42.4044L12.5594 41.2575L13.5261 40.1105C12.6129 39.3409 11.2751 39.4183 10.4469 40.2362L11.5009 41.3035ZM10.1028 39.5428L9.34507 40.8373C9.09091 40.6886 8.93007 40.4636 8.85184 40.255C8.78444 40.0754 8.78964 39.9425 8.79107 39.915C8.79286 39.8803 8.79683 39.8795 8.78611 39.9212C8.77638 39.959 8.76029 40.0099 8.7368 40.0734L10.1435 40.5941L11.5503 41.1148C11.6337 40.8892 11.765 40.4969 11.7871 40.0697C11.8078 39.6691 11.7383 38.762 10.8605 38.2482L10.1028 39.5428ZM39.2081 34.887L37.7172 35.0522L37.8011 35.8094L39.292 35.6442L40.7829 35.4791L40.699 34.7219L39.2081 34.887ZM38.5417 36.4871L38.485 34.9882C38.1404 35.0012 37.6806 35.0319 37.276 35.1159C37.0865 35.1553 36.7988 35.2277 36.5221 35.3781C36.3002 35.4987 35.6249 35.9293 35.6019 36.8263L37.1014 36.8647L38.6009 36.9031C38.5917 37.2649 38.4437 37.5499 38.29 37.734C38.1517 37.8996 38.012 37.9828 37.9545 38.014C37.8472 38.0723 37.7977 38.0716 37.8865 38.0532C38.0384 38.0216 38.2953 37.9975 38.5985 37.986L38.5417 36.4871ZM37.1014 36.8647L35.6019 36.8263C35.5835 37.5435 36.021 38.0073 36.1574 38.1452C36.3528 38.3428 36.5742 38.4962 36.7455 38.604C37.0995 38.8266 37.5132 39.0225 37.8263 39.1604L38.4311 37.7878L39.0359 36.4151C38.7639 36.2952 38.5091 36.1691 38.3428 36.0645C38.2539 36.0086 38.2522 35.997 38.2904 36.0357C38.3111 36.0566 38.3772 36.1259 38.4434 36.2449C38.5098 36.3642 38.6089 36.5936 38.6009 36.9031L37.1014 36.8647ZM38.8707 38.755L37.4431 38.2947C37.3405 38.6128 37.2168 39.0235 37.1366 39.3934C37.0979 39.5718 37.0565 39.7974 37.045 40.0227C37.0393 40.1336 37.0376 40.2995 37.0691 40.4858C37.0955 40.6412 37.1765 41.0126 37.4887 41.3451L38.5823 40.3185L39.6759 39.2918C39.8232 39.4487 39.9053 39.6073 39.9507 39.719C39.9963 39.8312 40.017 39.9255 40.027 39.9846C40.0459 40.0967 40.0414 40.1709 40.0411 40.176C40.0404 40.1899 40.0427 40.1478 40.0684 40.0292C40.117 39.8054 40.2047 39.506 40.2984 39.2153L38.8707 38.755ZM38.5823 40.3185L37.4887 41.3451C38.0441 41.9368 38.7641 41.8551 38.9066 41.8381C39.1539 41.8085 39.3714 41.7341 39.5094 41.6814C39.8031 41.5693 40.1097 41.4078 40.348 41.2739L39.6131 39.9663L38.8783 38.6586C38.6755 38.7726 38.5227 38.8469 38.4393 38.8788C38.3887 38.8981 38.4382 38.8727 38.5507 38.8593C38.6088 38.8523 38.7478 38.8403 38.9289 38.8757C39.1175 38.9127 39.4167 39.0157 39.6759 39.2918L38.5823 40.3185ZM40.7424 40.3677L39.3326 40.88C39.469 41.2554 39.6377 41.7032 39.7927 42.0634C39.8669 42.2359 39.9572 42.4338 40.0535 42.6027C40.096 42.6773 40.1793 42.8177 40.3005 42.9561C40.3582 43.0219 40.4815 43.1541 40.6704 43.2707C40.8501 43.3816 41.275 43.5892 41.8242 43.4604L41.4819 42L41.1396 40.5396C41.6748 40.4141 42.0837 40.6176 42.2457 40.7175C42.4168 40.8232 42.5206 40.9376 42.5572 40.9794C42.6032 41.0319 42.6316 41.0734 42.6423 41.0894C42.6489 41.0992 42.6535 41.1066 42.656 41.1107C42.6573 41.1129 42.6583 41.1145 42.6589 41.1156C42.6592 41.1161 42.6594 41.1165 42.6596 41.1167C42.6597 41.117 42.6598 41.1171 42.6598 41.1171C42.6598 41.1171 42.6596 41.1167 42.6591 41.1157C42.6586 41.1148 42.6578 41.1135 42.6569 41.1118C42.655 41.1083 42.6524 41.1034 42.6492 41.097C42.6425 41.0841 42.634 41.0669 42.6237 41.0452C42.6027 41.0011 42.5775 40.9453 42.5485 40.8777C42.4289 40.5998 42.284 40.2182 42.1522 39.8554L40.7424 40.3677ZM41.4819 42L41.8242 43.4604C42.3243 43.3432 42.6 43.0197 42.6966 42.8934C42.8114 42.7433 42.8765 42.6021 42.9084 42.5268C42.9748 42.3705 43.0122 42.2207 43.0327 42.1309C43.0774 41.9344 43.1099 41.7085 43.1344 41.5081C43.185 41.0933 43.223 40.6 43.2478 40.2296L41.7511 40.1295L40.2545 40.0293C40.2306 40.3864 40.1968 40.8137 40.1564 41.1449C40.1354 41.3175 40.1175 41.421 40.1077 41.4643C40.1008 41.4944 40.1098 41.4422 40.1467 41.3552C40.1639 41.3146 40.2141 41.2011 40.3136 41.0709C40.395 40.9645 40.6552 40.6531 41.1396 40.5396L41.4819 42ZM43 38.8746L44.3909 38.3131L44.0049 37.3569L42.614 37.9185L41.2231 38.48L41.6091 39.4362L43 38.8746ZM41.7511 40.1295L43.2478 40.2296C43.2111 40.7773 42.7068 41.1951 42.1395 41.0957L42.3984 39.6182L42.6573 38.1407C41.4415 37.9277 40.3351 38.8248 40.2545 40.0293L41.7511 40.1295ZM39.6131 39.9663L40.348 41.2739C40.01 41.4639 39.5038 41.3511 39.3326 40.88L40.7424 40.3677L42.1522 39.8554C41.6525 38.4802 40.0548 37.9975 38.8783 38.6586L39.6131 39.9663ZM42.3984 39.6182L42.1395 41.0957C43.7218 41.373 44.9923 39.8027 44.3909 38.3131L43 38.8746L41.6091 39.4362C41.3291 38.7426 41.9206 38.0116 42.6573 38.1407L42.3984 39.6182ZM38.4311 37.7878L37.8263 39.1604C37.5084 39.0203 37.3258 38.6585 37.4431 38.2947L38.8707 38.755L40.2984 39.2153C40.6634 38.083 40.0928 36.8808 39.0359 36.4151L38.4311 37.7878ZM39.292 35.6442L37.8011 35.8094C37.7472 35.3225 38.1239 35.0018 38.485 34.9882L38.5417 36.4871L38.5985 37.986C39.8488 37.9387 40.9348 36.8505 40.7829 35.4791L39.292 35.6442ZM9.88849 39.5V41C9.89704 41 9.83864 41.0012 9.75409 40.9872C9.66415 40.9723 9.51265 40.9354 9.34507 40.8373L10.1028 39.5428L10.8605 38.2482C10.4206 37.9908 9.98242 38 9.88849 38V39.5Z" fill="#AD43D7"/>
</svg>
