<svg width="65" height="65" viewBox="0 0 65 65" fill="none" xmlns="http://www.w3.org/2000/svg">
<path d="M19.6515 32.5135C21.2576 33.0375 24.6303 34.7145 25.2727 37.2301M25.2727 37.2301C26.0758 40.3745 19.6515 52.1659 22.8636 56.0964C26.0758 60.0269 32.5 60.813 37.3182 59.2408M25.2727 37.2301C22.8637 36.444 6.00044 41.2476 6 27.0108C5.99951 11.2888 21.7242 5 32.5 5C43.2758 5 56.5909 15.2193 56.5909 27.0108C56.5909 30.7828 55.011 33.2734 52.7395 34.8718M41.5469 46.6632C38.4701 49.5451 36.568 53.6109 37.3182 59.2408C44.0101 61.0751 57.7152 59.8697 59 40.3745C54.0953 40.5345 46.3748 42.1412 41.5469 46.6632ZM37.3182 59.2408C39.7273 56.6205 45.6697 50.751 50.1667 48.2354M46.1515 32.5135C45.3485 32.5135 40.5303 34.8718 39.7273 37.2301C39.0849 39.1167 40.6727 44.3049 41.5469 46.6632M39.7273 37.2301C43.2412 37.7215 48.9518 37.5371 52.7395 34.8718M9.21209 34.8718C12.1565 31.7274 20.9363 25.5958 32.5 26.2247C44.0636 26.8535 50.8112 32.2514 52.7395 34.8718M19.3069 15.8553C17.436 16.1173 14.132 18.75 12.6534 23.8158M27.4389 31.0526C28.4246 32.0462 30.396 34.4042 30.396 37.2301M37.0494 31.0526C36.3101 31.6644 34.5099 33.2237 34.5099 37.2301" stroke="#AD43D7" stroke-width="3" stroke-linecap="round"/>
</svg>
