<svg width="65" height="65" viewBox="0 0 65 65" fill="none" xmlns="http://www.w3.org/2000/svg">
<path d="M34.2903 60V56.6327M34.2903 17.0225V23.2047M34.2903 17.0225C29.9355 15.102 29.9355 8.36735 34.2903 5C38 7.80612 39.6667 15.102 34.2903 17.0225ZM34.2903 56.6327C35.4194 54.9841 36.8889 53.7038 39.129 53.7038M34.2903 56.6327V45.0486M39.129 53.7038C37.6774 48.758 44.6129 43.5374 53 45.0486C53 51.7804 47.6452 55.3524 39.129 53.7038ZM34.2903 45.0486C33.1613 43.9496 31.871 42.5757 29.9355 41.3393M34.2903 45.0486V34.3328M29.9355 41.3393C32.3548 34.3328 23.6452 31.0356 13 33.5085C13 42.9879 24.6129 46.6972 29.9355 41.3393ZM29.9355 41.3393C28.3226 39.9655 23.8387 37.5475 20.7419 37.2178M34.2903 34.3328C35.2581 33.5085 36.8065 32.7666 37.1936 31.4477M34.2903 34.3328V23.2047M37.1936 31.4477C36.871 28.1505 38 19.7701 49.129 21.0066C51.5484 30.0739 42.0323 33.9206 37.1936 31.4477ZM37.1936 31.4477C38.6452 30.8982 40.7419 29.7991 42.6774 27.0514M34.2903 23.2047C33.8065 21.9683 32.1613 20.5 31 20.5M31 20.5C29.8351 17.2291 27.4444 15.9 23 17.0225C24.1111 20.9511 27.9032 23.4675 31 20.5Z" stroke="#AD43D7" stroke-width="3" stroke-linecap="round"/>
<circle cx="28.5" cy="27.5" r="1.5" stroke="#AD43D7" stroke-width="2"/>
<circle cx="42.5" cy="39.5" r="3" stroke="#AD43D7" stroke-width="3"/>
<circle cx="27.5" cy="49.5" r="2" stroke="#AD43D7" stroke-width="3"/>
</svg>
