<svg width="563" height="537" viewBox="0 0 563 537" fill="none" xmlns="http://www.w3.org/2000/svg">
<path fill-rule="evenodd" clip-rule="evenodd" d="M297.177 78.2682C347.51 82.2634 392.726 104.676 429.558 139.303C467.861 175.313 501.761 219.411 503.281 272.034C504.835 325.849 476.731 375.973 437.454 412.682C399.547 448.112 348.989 463.564 297.177 464.667C244.051 465.798 180.398 463.043 150.817 418.782C122.38 376.234 169.92 323.231 168.432 272.034C166.845 217.38 111.8 161.986 142.034 116.481C172.727 70.288 241.991 73.8878 297.177 78.2682Z" fill="#F2F2E2"/>
<path d="M288.556 498.053C421.64 498.053 529.526 491.752 529.526 483.98C529.526 476.208 421.64 469.908 288.556 469.908C155.472 469.908 47.5859 476.208 47.5859 483.98C47.5859 491.752 155.472 498.053 288.556 498.053Z" fill="#F5F5F5"/>
<path d="M141.903 304.729L124.867 265.2L177.588 242.48L141.903 304.729Z" fill="#FFD84C"/>
<path opacity="0.2" d="M141.903 304.729L124.867 265.2L177.588 242.48L141.903 304.729Z" fill="black"/>
<path d="M220.402 312.023C215.643 322.971 202.909 327.988 191.961 323.229C181.013 318.47 175.995 305.738 180.754 294.79L220.402 312.023Z" fill="#FFD84C"/>
<path d="M207.713 295.643H204.732V283.356C204.732 282.292 203.867 281.427 202.802 281.427H193.983C191.274 281.427 189.071 279.223 189.071 276.515V267.696C189.071 266.632 188.206 265.766 187.141 265.766H178.32C175.612 265.766 173.409 263.564 173.409 260.855V252.035C173.409 250.971 172.544 250.105 171.48 250.105H162.66C159.951 250.105 157.749 247.901 157.749 245.195V236.374C157.749 235.31 156.884 234.445 155.819 234.445H143.531V231.464H155.819C158.527 231.464 160.729 233.667 160.729 236.374V245.195C160.729 246.258 161.594 247.125 162.66 247.125H171.48C174.188 247.125 176.39 249.328 176.39 252.036V260.857C176.39 261.921 177.255 262.786 178.32 262.786H187.141C189.849 262.786 192.052 264.989 192.052 267.697V276.516C192.052 277.58 192.917 278.446 193.983 278.446H202.802C205.51 278.446 207.712 280.649 207.712 283.357V295.643H207.713Z" fill="#FFD84C"/>
<g opacity="0.5">
<path d="M207.713 295.643H204.732V283.356C204.732 282.292 203.867 281.427 202.802 281.427H193.983C191.274 281.427 189.071 279.223 189.071 276.515V267.696C189.071 266.632 188.206 265.766 187.141 265.766H178.32C175.612 265.766 173.409 263.564 173.409 260.855V252.035C173.409 250.971 172.544 250.105 171.48 250.105H162.66C159.951 250.105 157.749 247.901 157.749 245.195V236.374C157.749 235.31 156.884 234.445 155.819 234.445H143.531V231.464H155.819C158.527 231.464 160.729 233.667 160.729 236.374V245.195C160.729 246.258 161.594 247.125 162.66 247.125H171.48C174.188 247.125 176.39 249.328 176.39 252.036V260.857C176.39 261.921 177.255 262.786 178.32 262.786H187.141C189.849 262.786 192.052 264.989 192.052 267.697V276.516C192.052 277.58 192.917 278.446 193.983 278.446H202.802C205.51 278.446 207.712 280.649 207.712 283.357V295.643H207.713Z" fill="white"/>
</g>
<path d="M250.522 259.27L229.656 238.405L208.791 259.27L229.656 280.136L250.522 259.27Z" fill="#FFD84C"/>
<path opacity="0.2" d="M250.522 259.27L229.656 238.405L208.791 259.27L229.656 280.136L250.522 259.27Z" fill="white"/>
<path d="M249.118 128.8C245.924 101.75 221.406 82.4117 194.356 85.6058C167.306 88.7999 147.967 113.318 151.161 140.368C153.479 159.99 170.661 171.429 182.366 185.796C185.992 190.247 187.78 208.279 187.78 208.279L229.326 203.372C229.326 203.372 226.864 185.42 229.354 180.247C237.39 163.548 251.435 148.422 249.118 128.8Z" fill="#FFD84C"/>
<path d="M222.251 219.105L198.325 221.93C193.46 222.504 189.049 219.026 188.475 214.16L188.109 211.065L229.656 206.159L230.021 209.253C230.595 214.12 227.117 218.531 222.251 219.105Z" fill="#263238"/>
<path d="M212.665 232.909L210.866 233.122C206.001 233.696 201.59 230.217 201.016 225.352L200.91 224.452L220.329 222.159L220.436 223.058C221.009 227.924 217.53 232.335 212.665 232.909Z" fill="#263238"/>
<path opacity="0.5" d="M212.665 232.909L210.866 233.122C206.001 233.696 201.59 230.217 201.016 225.352L200.91 224.452L220.329 222.159L220.436 223.058C221.009 227.924 217.53 232.335 212.665 232.909Z" fill="white"/>
<path d="M249.121 128.8C246.726 108.525 232.352 92.5832 213.911 87.2142C202.341 86.1031 184.747 85.5923 185.613 92.9275C186.898 103.81 211.154 96.3167 217.321 101.694C223.488 107.073 201.009 121.107 208.874 126.384C216.738 131.663 230.174 116.972 230.174 116.972C230.174 116.972 226.743 137.549 232.695 138.312C238.647 139.075 236.039 122.831 239.779 122.39C243.52 121.949 248.586 129.936 246.173 148.857C248.617 142.577 249.97 135.991 249.121 128.8Z" fill="#FFD84C"/>
<path opacity="0.5" d="M249.121 128.8C246.726 108.525 232.352 92.5832 213.911 87.2142C202.341 86.1031 184.747 85.5923 185.613 92.9275C186.898 103.81 211.154 96.3167 217.321 101.694C223.488 107.073 201.009 121.107 208.874 126.384C216.738 131.663 230.174 116.972 230.174 116.972C230.174 116.972 226.743 137.549 232.695 138.312C238.647 139.075 236.039 122.831 239.779 122.39C243.52 121.949 248.586 129.936 246.173 148.857C248.617 142.577 249.97 135.991 249.121 128.8Z" fill="white"/>
<path d="M220.923 132.203C220.923 132.203 202.617 140.571 207.88 147.19C213.145 153.81 220.923 132.203 220.923 132.203Z" fill="#FFD84C"/>
<path opacity="0.7" d="M220.923 132.203C220.923 132.203 202.617 140.571 207.88 147.19C213.145 153.81 220.923 132.203 220.923 132.203Z" fill="white"/>
<path d="M167.504 87.2661C164.807 89.2559 162.287 91.4457 159.947 93.8444C159.528 94.2744 160.185 94.9331 160.605 94.5031C162.891 92.1628 165.343 90.0127 167.975 88.0702C168.451 87.7185 167.988 86.9094 167.504 87.2661Z" fill="#FFD84C"/>
<path d="M152.969 102.562C145.538 114.331 142.448 127.539 143.828 141.39C143.886 141.982 144.819 141.988 144.76 141.39C143.398 127.715 146.433 114.66 153.773 103.033C154.095 102.523 153.288 102.056 152.969 102.562Z" fill="#FFD84C"/>
<path d="M262.898 105.921C262.898 105.921 264.648 54.7391 284.02 58.0537C303.393 61.3683 262.898 105.921 262.898 105.921Z" fill="#FFD84C"/>
<path d="M248.794 92.4054C248.794 92.4054 218.761 68.9893 227.826 60.6922C236.891 52.3951 248.794 92.4054 248.794 92.4054Z" fill="#FFD84C"/>
<path opacity="0.5" d="M248.794 92.4054C248.794 92.4054 218.761 68.9893 227.826 60.6922C236.891 52.3951 248.794 92.4054 248.794 92.4054Z" fill="white"/>
<path d="M235.785 192.925C235.785 192.925 248.839 163.522 259.705 170.504C270.571 177.487 235.785 192.925 235.785 192.925Z" fill="#FFD84C"/>
<path opacity="0.2" d="M235.785 192.925C235.785 192.925 248.839 163.522 259.705 170.504C270.571 177.487 235.785 192.925 235.785 192.925Z" fill="black"/>
<path d="M178.723 195.268C178.723 195.268 165.144 178.449 159.302 184.868C153.461 191.287 178.723 195.268 178.723 195.268Z" fill="#FFD84C"/>
<path opacity="0.5" d="M178.723 195.268C178.723 195.268 165.144 178.449 159.302 184.868C153.461 191.287 178.723 195.268 178.723 195.268Z" fill="white"/>
<g opacity="0.7">
<path d="M222.255 219.105L198.329 221.93C193.464 222.504 189.053 219.026 188.479 214.16L188.113 211.065L229.66 206.159L230.025 209.253C230.599 214.12 227.121 218.531 222.255 219.105Z" fill="white"/>
</g>
<path d="M325.416 152.07C320.723 135.625 316.65 115.241 299.529 119.182C290.151 121.341 292.68 108.185 293.268 103.637C293.856 99.0896 298.959 95.0131 303.021 97.1408C304.8 98.0717 305.926 99.8986 307.544 101.087C311.556 104.03 317.582 102.154 320.867 98.4159C324.152 94.6788 325.427 89.6428 326.759 84.8493C328.092 80.0557 329.746 75.0471 333.498 71.7772C338.188 67.6883 345.797 67.4634 350.722 71.2652C355.648 75.0682 357.353 82.4867 354.584 88.0582C361.414 87.3971 366.826 82.0517 370.851 76.4937C374.877 70.9346 378.287 64.6956 383.82 60.6341C389.352 56.5725 397.988 55.5633 402.589 60.6552C407.492 66.0801 405.044 75.0483 400.202 80.5304C395.361 86.0113 388.651 89.5683 383.755 95.0007C378.86 100.433 376.228 109.303 380.966 114.873C384.584 119.126 390.796 119.656 396.197 121.073C401.756 122.532 407.348 125.626 409.646 130.893C411.944 136.161 409.263 143.629 403.593 144.571C397.123 145.646 392.53 138.692 389.431 132.912C386.333 127.13 380.571 120.63 374.489 123.086C368.155 125.643 368.917 134.856 371.437 141.204C374.301 148.424 377.982 155.32 382.387 161.717C385.329 165.99 388.656 171.697 385.581 175.874C382.167 180.515 374.268 177.662 371.372 172.682C367.068 165.284 367.627 147.52 354.927 148.847C351.608 149.194 348.831 152.716 345.587 153.606C339.821 155.193 327.006 157.64 325.416 152.07Z" fill="#FFD84C"/>
<path opacity="0.1" d="M325.416 152.07C320.723 135.625 316.65 115.241 299.529 119.182C290.151 121.341 292.68 108.185 293.268 103.637C293.856 99.0896 298.959 95.0131 303.021 97.1408C304.8 98.0717 305.926 99.8986 307.544 101.087C311.556 104.03 317.582 102.154 320.867 98.4159C324.152 94.6788 325.427 89.6428 326.759 84.8493C328.092 80.0557 329.746 75.0471 333.498 71.7772C338.188 67.6883 345.797 67.4634 350.722 71.2652C355.648 75.0682 357.353 82.4867 354.584 88.0582C361.414 87.3971 366.826 82.0517 370.851 76.4937C374.877 70.9346 378.287 64.6956 383.82 60.6341C389.352 56.5725 397.988 55.5633 402.589 60.6552C407.492 66.0801 405.044 75.0483 400.202 80.5304C395.361 86.0113 388.651 89.5683 383.755 95.0007C378.86 100.433 376.228 109.303 380.966 114.873C384.584 119.126 390.796 119.656 396.197 121.073C401.756 122.532 407.348 125.626 409.646 130.893C411.944 136.161 409.263 143.629 403.593 144.571C397.123 145.646 392.53 138.692 389.431 132.912C386.333 127.13 380.571 120.63 374.489 123.086C368.155 125.643 368.917 134.856 371.437 141.204C374.301 148.424 377.982 155.32 382.387 161.717C385.329 165.99 388.656 171.697 385.581 175.874C382.167 180.515 374.268 177.662 371.372 172.682C367.068 165.284 367.627 147.52 354.927 148.847C351.608 149.194 348.831 152.716 345.587 153.606C339.821 155.193 327.006 157.64 325.416 152.07Z" fill="white"/>
<path d="M429.56 109.416C429.321 110.481 429.667 111.626 430.325 112.497C430.954 113.33 431.913 113.964 432.956 113.991C434.102 114.022 435.154 113.335 435.942 112.502C436.661 111.744 437.247 110.781 437.241 109.735C437.235 108.66 436.575 107.65 435.665 107.077C433.483 105.704 430.157 106.76 429.56 109.416Z" fill="#FFD84C"/>
<path d="M407.58 174.314C407.402 175.103 407.658 175.95 408.145 176.595C408.61 177.211 409.321 177.68 410.093 177.701C410.941 177.723 411.72 177.215 412.304 176.598C412.835 176.037 413.27 175.324 413.266 174.551C413.262 173.756 412.772 173.008 412.1 172.584C410.483 171.566 408.021 172.348 407.58 174.314Z" fill="#FFD84C"/>
<path d="M348.235 56.4705C347.888 58.3348 348.39 60.3345 349.347 61.8607C350.26 63.3173 351.655 64.4246 353.17 64.4743C354.835 64.5278 356.364 63.326 357.509 61.8706C358.552 60.5445 359.405 58.8593 359.397 57.0323C359.389 55.1532 358.429 53.3846 357.108 52.3829C353.935 49.9768 349.103 51.8249 348.235 56.4705Z" fill="#FFD84C"/>
<path d="M409.504 70.1837C409.024 72.3152 409.716 74.6032 411.033 76.3469C412.289 78.0123 414.209 79.2787 416.296 79.3346C418.588 79.3955 420.693 78.0222 422.27 76.3568C423.706 74.8406 424.88 72.913 424.869 70.825C424.858 68.6762 423.535 66.6541 421.717 65.5082C417.35 62.7591 410.697 64.8719 409.504 70.1837Z" fill="#FFD84C"/>
<path opacity="0.1" d="M409.504 70.1837C409.024 72.3152 409.716 74.6032 411.033 76.3469C412.289 78.0123 414.209 79.2787 416.296 79.3346C418.588 79.3955 420.693 78.0222 422.27 76.3568C423.706 74.8406 424.88 72.913 424.869 70.825C424.858 68.6762 423.535 66.6541 421.717 65.5082C417.35 62.7591 410.697 64.8719 409.504 70.1837Z" fill="white"/>
<path d="M377.945 356.165L404.502 348.889L410.391 358.781L385.852 369.327L377.945 356.165Z" fill="#FFB573"/>
<path d="M411.988 363.37C412.664 364.726 413.116 366.251 412.757 366.992C412.532 367.394 412.079 367.61 411.624 367.532C411.233 367.5 410.871 367.316 410.613 367.02C409.204 365.449 409.477 360.56 409.491 360.345C409.498 360.223 409.58 360.12 409.697 360.085C409.814 360.053 409.938 360.094 410.013 360.188C410.764 361.19 411.425 362.254 411.988 363.37ZM410.731 366.164C410.812 366.333 410.916 366.488 411.042 366.626C411.186 366.824 411.412 366.943 411.656 366.953C412.074 366.984 412.195 366.84 412.246 366.722C412.704 365.862 411.348 363.103 410.084 361.199C409.984 362.88 410.204 364.564 410.731 366.164Z" fill="#FFD84C"/>
<path d="M410.029 360.23C410.057 360.261 410.072 360.301 410.073 360.342C410.146 361.934 409.089 365.736 407.747 366.115C407.437 366.236 406.966 366.193 406.54 365.517C406.226 365.025 406.126 364.426 406.263 363.859C406.712 361.901 409.508 360.142 409.637 360.059C409.727 360.005 409.839 360.005 409.928 360.058C409.984 360.102 410.019 360.163 410.029 360.23ZM406.944 365.102L407.005 365.256C407.276 365.701 407.478 365.638 407.554 365.624C408.327 365.322 409.319 362.68 409.445 360.93C408.273 361.676 407.358 362.764 406.824 364.047C406.734 364.401 406.778 364.777 406.944 365.102Z" fill="#FFD84C"/>
<path d="M407.93 359.837L401.988 347.932C401.764 347.484 401.881 346.939 402.27 346.624L410.88 339.638C411.64 339.013 412.762 339.122 413.387 339.88C413.467 339.977 413.537 340.083 413.595 340.196C415.661 344.525 417.332 348.458 420.005 353.796C423.154 360.1 423.11 358.124 426.915 365.484C429.203 369.921 424.535 373.271 423.34 371.503C417.922 363.38 414.856 363.786 410.085 361.991C409.127 361.561 408.36 360.794 407.93 359.837Z" fill="#263238"/>
<path opacity="0.1" d="M396.362 364.807L402.135 362.326L397.976 350.675L392.477 352.182L396.362 364.807Z" fill="black"/>
<path d="M321.548 388.338L347.668 397.052L347.066 408.548L320.805 403.676L321.548 388.338Z" fill="#FFB573"/>
<path d="M345.841 413.252C345.65 414.755 345.178 416.273 344.468 416.69C344.057 416.9 343.559 416.828 343.225 416.51C342.918 416.265 342.719 415.911 342.67 415.523C342.371 413.434 345.317 409.521 345.447 409.35C345.521 409.253 345.647 409.212 345.763 409.249C345.877 409.288 345.958 409.389 345.968 409.51C346.035 410.759 345.993 412.011 345.841 413.252ZM343.244 414.876C343.216 415.062 343.218 415.248 343.245 415.433C343.255 415.677 343.377 415.903 343.574 416.046C343.904 416.305 344.085 416.251 344.193 416.183C345.052 415.722 345.459 412.674 345.466 410.39C344.448 411.731 343.695 413.253 343.244 414.876Z" fill="#FFD84C"/>
<path d="M345.958 409.554C345.964 409.595 345.956 409.637 345.932 409.672C345.107 411.036 342.117 413.609 340.789 413.178C340.465 413.107 340.097 412.81 340.118 412.011C340.13 411.426 340.38 410.873 340.81 410.478C342.272 409.1 345.574 409.191 345.728 409.194C345.833 409.199 345.926 409.261 345.971 409.356C345.992 409.422 345.987 409.493 345.958 409.554ZM340.686 411.889L340.65 412.05C340.628 412.571 340.831 412.631 340.902 412.662C341.713 412.84 344.006 411.195 345.083 409.81C343.694 409.778 342.329 410.175 341.172 410.944C340.901 411.19 340.728 411.525 340.686 411.889Z" fill="#FFD84C"/>
<path d="M344.427 408.06L346.105 394.861C346.168 394.364 346.567 393.976 347.067 393.929L358.108 392.908C359.086 392.81 359.96 393.525 360.057 394.503C360.069 394.628 360.068 394.755 360.054 394.881C359.367 399.628 358.568 403.825 357.823 409.75C356.937 416.741 357.999 415.073 357.072 423.307C356.507 428.267 350.764 428.458 350.753 426.323C350.765 416.559 347.99 415.194 345.022 411.049C344.464 410.16 344.252 409.096 344.427 408.06Z" fill="#263238"/>
<path opacity="0.1" d="M329.727 405.331L336 406.494L338.505 393.995L333.617 392.365L329.727 405.331Z" fill="black"/>
<path d="M273.037 262.167C273.037 262.167 261.992 281.638 248.321 327.622C234.65 373.607 243.763 389.35 286.848 399.706L328.275 405.92L331.59 391.007C331.59 391.007 296.648 374.248 276.381 367.195C274.051 366.385 272.945 363.74 274.03 361.524C280.788 347.733 302.014 302.741 309.633 266.724L273.037 262.167Z" fill="#FFD84C"/>
<path opacity="0.1" d="M273.037 262.167C273.037 262.167 261.992 281.638 248.321 327.622C234.65 373.607 243.763 389.35 286.848 399.706L328.275 405.92L331.59 391.007C331.59 391.007 296.32 374.092 276.098 367.097C273.915 366.343 272.884 363.861 273.902 361.788C280.516 348.313 301.966 302.973 309.634 266.725L273.037 262.167Z" fill="black"/>
<path d="M330.887 388.727L326.148 407.37C326.148 407.37 328.634 410.166 331.586 408.846L335.703 389.815C335.703 389.815 333.994 386.708 330.887 388.727Z" fill="#FFD84C"/>
<path opacity="0.6" d="M330.887 388.727L326.148 407.37C326.148 407.37 328.634 410.166 331.586 408.846L335.703 389.815C335.703 389.815 333.994 386.708 330.887 388.727Z" fill="white"/>
<path d="M283.94 276.665C285.529 298.897 293.053 340.049 299.268 364.492C305.482 388.934 322.052 393.906 339.452 390.591C356.851 387.276 385.023 370.706 397.036 366.977L392.064 350.821C392.064 350.821 353.056 358.424 336.462 365.953C334.198 366.98 331.642 365.296 331.646 362.811C331.672 344.904 330.398 290.428 314.595 266.724L283.939 263.526C283.939 263.526 283.706 273.389 283.94 276.665Z" fill="#FFD84C"/>
<path d="M388.852 349.785L395.169 369.049C395.169 369.049 398.173 369.67 400.14 367.495L393.823 348.439C393.823 348.439 391.13 346.886 388.852 349.785Z" fill="#FFD84C"/>
<path opacity="0.6" d="M388.852 349.785L395.169 369.049C395.169 369.049 398.173 369.67 400.14 367.495L393.823 348.439C393.823 348.439 391.13 346.886 388.852 349.785Z" fill="white"/>
<path d="M289.949 186.975L286.241 167.653C286.09 166.873 286.108 166.068 286.29 165.295L296.165 127.32L301.035 122.118C301.701 121.33 302.067 120.331 302.067 119.3V116.022C302.067 115.548 302.145 115.075 302.297 114.625L303.226 111.874C304.011 109.552 302.732 107.039 300.391 106.308L299.791 106.121C298.664 105.768 297.441 105.888 296.403 106.453L290.664 109.572C289.32 110.303 288.457 111.682 288.387 113.211L287.877 124.42C287.877 124.42 270.478 156.734 271.513 167.711C272.548 178.689 277.727 195.149 277.727 195.149C277.727 195.149 285.599 195.054 289.949 186.975Z" fill="#FFB573"/>
<path d="M342.148 197.953L360.583 185.939L374.673 149.897L373.284 143.487C373.108 142.677 373.225 141.831 373.614 141.099L375.544 137.466C376.153 136.32 377.345 135.604 378.643 135.604H379.038C379.703 135.604 380.354 135.415 380.915 135.06L383.066 133.698C384.794 132.604 387.087 133.213 388.044 135.02L391.158 143.25C391.931 144.712 391.581 146.514 390.314 147.578L383.37 154.454C383.37 154.454 376.327 191.103 372.599 195.149C368.87 199.196 348.571 209.346 348.571 209.346L342.148 197.953Z" fill="#FFB573"/>
<path d="M296.163 196.297L293.264 186.562C293.264 186.562 295.335 182.212 291.607 182.212C291.607 182.212 280.835 184.905 273.586 195.151C273.586 195.151 271.722 199.198 274.829 199.405L277.936 213.698C277.936 213.698 296.369 206.032 296.163 196.297Z" fill="#263238"/>
<path d="M324.12 201.061C324.12 201.061 337.169 197.524 339.655 195.15C339.655 195.15 341.008 191.593 343.494 192.007C345.98 192.421 351.669 201.268 351.669 210.174C351.669 210.174 351.669 214.732 347.941 212.452C347.941 212.452 340.691 217.631 327.434 221.566C327.434 221.566 319.148 208.725 324.12 201.061Z" fill="#263238"/>
<path d="M306.497 203.092C311.947 203.839 317.376 202.11 320.903 200.579C321.374 199.84 321.464 199.391 321.464 199.391C317.542 194.291 320.311 184.858 322.611 178.494L308.355 187.278C308.836 192.59 308.577 195.606 300.945 196.219C300.945 196.219 300.171 196.706 299.453 197.846C300.181 200.114 302.028 202.479 306.497 203.092Z" fill="#FFB573"/>
<path opacity="0.2" d="M316.832 182.025L308.438 187.29C308.572 188.525 308.595 189.772 308.506 191.011C311.388 191.048 316.165 189.344 317.239 186.386C317.468 184.921 317.327 183.422 316.832 182.025Z" fill="black"/>
<path d="M315.906 147.89C315.906 147.89 301.4 145.864 303.155 152.633C304.91 159.4 315.906 147.89 315.906 147.89Z" fill="#263238"/>
<path opacity="0.5" d="M315.906 147.89C315.906 147.89 301.4 145.864 303.155 152.633C304.91 159.4 315.906 147.89 315.906 147.89Z" fill="black"/>
<path d="M334.128 149.782C333.4 147.216 331.605 140.012 335.401 139.295C341.941 138.062 343.26 145.391 343.26 145.391C343.26 145.391 352.499 145.236 346.706 153.783C346.706 153.783 350.361 160.768 342.571 159.957C337.943 159.474 334.98 152.789 334.128 149.782Z" fill="#263238"/>
<path opacity="0.2" d="M334.128 149.782C333.4 147.216 331.605 140.012 335.401 139.295C341.941 138.062 343.26 145.391 343.26 145.391C343.26 145.391 352.499 145.236 346.706 153.783C346.706 153.783 350.361 160.768 342.571 159.957C337.943 159.474 334.98 152.789 334.128 149.782Z" fill="black"/>
<path d="M331.812 149.589C331.812 149.589 335.765 146.257 338.729 150.584C341.693 154.912 336.254 158.065 336.254 158.065C336.254 158.065 334.785 151.683 331.812 149.589Z" fill="#FFD84C"/>
<path d="M323.639 182.311C323.639 182.311 325.882 188.134 323.056 188.306C320.23 188.48 324.061 186.155 323.639 182.311Z" fill="#263238"/>
<path d="M332.943 168.54C328.325 178.865 326.586 183.317 319.215 186.724C308.12 191.86 296.457 183.915 297.894 172.432C299.208 162.088 306.568 146.895 318.475 146.65C326.987 146.388 334.1 153.074 334.362 161.586C334.437 163.982 333.951 166.364 332.943 168.54Z" fill="#FFB573"/>
<path d="M305.348 161.331C305.013 162.204 304.296 162.716 303.739 162.512C303.183 162.309 302.983 161.422 303.298 160.564C303.614 159.705 304.35 159.18 304.904 159.4C305.458 159.618 305.663 160.472 305.348 161.331Z" fill="#263238"/>
<path d="M305.135 159.535L303.297 158.163C303.297 158.163 303.744 160.179 305.135 159.535Z" fill="#263238"/>
<path d="M306.278 165.355C304.768 167.028 303.037 168.486 301.133 169.689C301.79 170.652 302.833 171.282 303.991 171.419L306.278 165.355Z" fill="#ED893E"/>
<path d="M320.245 163.344C320.009 163.349 319.797 163.197 319.726 162.972C318.966 161.366 317.57 160.152 315.875 159.62C315.587 159.533 315.421 159.231 315.507 158.941C315.59 158.661 315.886 158.5 316.167 158.584C316.173 158.586 316.179 158.587 316.186 158.59C318.228 159.214 319.897 160.698 320.755 162.651C320.844 162.931 320.688 163.229 320.409 163.317C320.358 163.342 320.301 163.351 320.245 163.344Z" fill="#263238"/>
<path d="M304.078 155.456C303.893 155.392 303.754 155.234 303.713 155.042C303.657 154.75 303.845 154.466 304.136 154.403C305.851 153.991 307.658 154.458 308.956 155.653C309.164 155.848 309.173 156.173 308.979 156.38C308.969 156.39 308.959 156.399 308.949 156.409C308.741 156.617 308.405 156.616 308.198 156.407C308.196 156.404 308.195 156.403 308.192 156.401C307.147 155.506 305.738 155.164 304.399 155.479C304.293 155.505 304.18 155.497 304.078 155.456Z" fill="#263238"/>
<path d="M315.066 164.966C314.735 165.822 314.015 166.35 313.458 166.148C312.901 165.945 312.701 165.058 313.017 164.2C313.333 163.342 314.068 162.816 314.625 163.018C315.182 163.221 315.327 164.133 315.066 164.966Z" fill="#263238"/>
<path d="M314.838 163.252L313 161.88C313 161.88 313.456 163.83 314.838 163.252Z" fill="#263238"/>
<path d="M329.038 174.547C329.038 174.547 325.531 166.035 327.457 156.296C327.457 156.296 308.714 156.143 314.757 151.448C314.757 151.448 298.963 147.298 305.133 140.185C311.304 133.073 322.122 137.962 326.419 144.186C326.419 144.186 335.979 148.048 337.237 158.164C338.718 170.082 324.106 188.224 323.159 183.554C322.601 180.801 329.038 174.547 329.038 174.547Z" fill="#263238"/>
<path d="M332.762 177.746C331.387 179.388 329.419 180.421 327.287 180.62C324.449 180.841 323.564 178.17 324.806 175.758C325.942 173.598 328.777 170.875 331.415 171.731C333.313 172.414 334.296 174.506 333.614 176.404C333.432 176.907 333.142 177.366 332.762 177.746Z" fill="#FFB573"/>
<path d="M323.735 199.134C320.865 201.357 315.327 204.575 308.432 203.257C301.444 201.921 300.605 197.688 300.768 195.158C287.703 195.036 282.18 198.576 282.18 198.576C272.548 211.936 270.062 265.999 270.062 265.999C292.123 272.834 318.893 273.145 318.893 273.145C321.068 254.813 336.745 211.317 336.745 211.317C336.745 211.317 334.899 203.848 323.735 199.134Z" fill="#263238"/>
<path d="M298.382 194.69L302.026 194.638C302.026 194.638 301.135 199.972 307.815 201.215C314.496 202.458 323.093 198.149 323.093 198.149L326.768 199.866C326.768 199.866 317.263 207.119 306.481 204.633C295.699 202.147 298.382 194.69 298.382 194.69Z" fill="#263238"/>
<path opacity="0.7" d="M298.382 194.69L302.026 194.638C302.026 194.638 301.135 199.972 307.815 201.215C314.496 202.458 323.093 198.149 323.093 198.149L326.768 199.866C326.768 199.866 317.263 207.119 306.481 204.633C295.699 202.147 298.382 194.69 298.382 194.69Z" fill="white"/>
<path d="M314.29 106.05C314.172 105.861 312.921 101.814 318.404 99.3006C323.888 96.7876 324.915 99.1614 328.152 97.5967C328.152 97.5967 326.901 102.041 322.295 105.661C317.69 109.284 314.754 106.791 314.29 106.05Z" fill="black"/>
<path d="M301.252 118.839C294.562 123.028 274.272 133.759 273.179 132.015C272.087 130.27 290.605 116.707 297.295 112.518C303.985 108.33 310.295 106.349 311.387 108.095C312.481 109.84 307.942 114.651 301.252 118.839Z" fill="#FFD84C"/>
<path opacity="0.4" d="M301.252 118.839C294.562 123.028 274.272 133.759 273.179 132.015C272.087 130.27 290.605 116.707 297.295 112.518C303.985 108.33 310.295 106.349 311.387 108.095C312.481 109.84 307.942 114.651 301.252 118.839Z" fill="white"/>
<path d="M309.558 110.739L308.208 108.583C307.913 108.112 308.056 107.49 308.527 107.196L314.214 103.635L316.632 107.498L310.945 111.059C310.474 111.353 309.853 111.21 309.558 110.739Z" fill="#263238"/>
<path opacity="0.5" d="M309.558 110.739L308.208 108.583C307.913 108.112 308.056 107.49 308.527 107.196L314.214 103.635L316.632 107.498L310.945 111.059C310.474 111.353 309.853 111.21 309.558 110.739Z" fill="white"/>
<path d="M328.156 97.5977C324.92 99.1611 323.892 96.7886 318.408 99.3016C317.812 99.575 317.307 99.8695 316.86 100.173C316.591 100.518 316.501 100.865 316.74 101.175C317.717 102.442 321.387 99.5949 322.083 100.487C322.779 101.38 320.442 102.11 321.303 103.266C322.162 104.418 320.3 105.517 321.113 106.475C321.497 106.244 321.888 105.985 322.3 105.662C326.906 102.042 328.156 97.5977 328.156 97.5977Z" fill="#FFD84C"/>
<path d="M397.785 121.847C383.449 119.67 370.997 123.371 369.973 130.115C369.39 133.954 378.111 135.011 383.66 138.143C387.859 140.513 387.901 145.329 394.076 146.266C408.412 148.444 420.864 144.741 421.888 137.999C422.912 131.257 412.121 124.025 397.785 121.847ZM395.379 135.623C392.071 135.121 389.556 133.613 389.763 132.256C389.969 130.899 392.817 130.207 396.126 130.709C399.434 131.211 401.948 132.718 401.742 134.076C401.536 135.433 398.686 136.126 395.379 135.623Z" fill="#FFD84C"/>
<path opacity="0.9" d="M397.785 121.847C383.449 119.67 370.997 123.371 369.973 130.115C369.39 133.954 378.111 135.011 383.66 138.143C387.859 140.513 387.901 145.329 394.076 146.266C408.412 148.444 420.864 144.741 421.888 137.999C422.912 131.257 412.121 124.025 397.785 121.847ZM395.379 135.623C392.071 135.121 389.556 133.613 389.763 132.256C389.969 130.899 392.817 130.207 396.126 130.709C399.434 131.211 401.948 132.718 401.742 134.076C401.536 135.433 398.686 136.126 395.379 135.623Z" fill="#263238"/>
<path d="M387.284 128.029C387.284 129.087 385.452 129.946 383.193 129.946C380.933 129.946 379.102 129.088 379.102 128.029C379.102 126.97 380.933 126.113 383.193 126.113C385.452 126.113 387.284 126.97 387.284 128.029Z" fill="#FFD84C"/>
<path opacity="0.9" d="M387.284 128.029C387.284 129.087 385.452 129.946 383.193 129.946C380.933 129.946 379.102 129.088 379.102 128.029C379.102 126.97 380.933 126.113 383.193 126.113C385.452 126.113 387.284 126.97 387.284 128.029Z" fill="white"/>
<path d="M399.324 124.119C399.324 124.934 397.667 125.596 395.623 125.596C393.579 125.596 391.922 124.934 391.922 124.119C391.922 123.304 393.579 122.643 395.623 122.643C397.667 122.643 399.324 123.304 399.324 124.119Z" fill="#FFD84C"/>
<path opacity="0.7" d="M399.324 124.119C399.324 124.934 397.667 125.596 395.623 125.596C393.579 125.596 391.922 124.934 391.922 124.119C391.922 123.304 393.579 122.643 395.623 122.643C397.667 122.643 399.324 123.304 399.324 124.119Z" fill="white"/>
<path d="M408.308 131.518C410.968 131.518 413.124 130.605 413.124 129.479C413.124 128.353 410.968 127.439 408.308 127.439C405.648 127.439 403.492 128.353 403.492 129.479C403.492 130.605 405.648 131.518 408.308 131.518Z" fill="#FFD84C"/>
<path opacity="0.6" d="M408.308 131.518C410.968 131.518 413.124 130.605 413.124 129.479C413.124 128.353 410.968 127.439 408.308 127.439C405.648 127.439 403.492 128.353 403.492 129.479C403.492 130.605 405.648 131.518 408.308 131.518Z" fill="white"/>
<path d="M417.117 138.904C417.117 139.933 415.146 140.769 412.715 140.769C410.284 140.769 408.312 139.933 408.312 138.904C408.312 137.875 410.284 137.04 412.715 137.04C415.146 137.04 417.117 137.874 417.117 138.904Z" fill="#FFD84C"/>
<path opacity="0.8" d="M417.117 138.904C417.117 139.933 415.146 140.769 412.715 140.769C410.284 140.769 408.312 139.933 408.312 138.904C408.312 137.875 410.284 137.04 412.715 137.04C415.146 137.04 417.117 137.874 417.117 138.904Z" fill="white"/>
<path d="M403.464 141.027C403.464 142.199 401.348 143.15 398.74 143.15C396.131 143.15 394.016 142.199 394.016 141.027C394.016 139.854 396.131 138.904 398.74 138.904C401.348 138.904 403.464 139.855 403.464 141.027Z" fill="#FFD84C"/>
<path opacity="0.4" d="M403.464 141.027C403.464 142.199 401.348 143.15 398.74 143.15C396.131 143.15 394.016 142.199 394.016 141.027C394.016 139.854 396.131 138.904 398.74 138.904C401.348 138.904 403.464 139.855 403.464 141.027Z" fill="white"/>
<path d="M377.047 137.04C377.047 137.04 381.776 133.239 384.884 133.146C385.566 133.126 386.126 133.713 386.127 134.395C386.129 135.4 385.975 136.796 385.125 137.04C383.771 137.428 380.775 139.543 380.775 139.543L377.047 137.04Z" fill="#FFB573"/>
<path d="M278.327 215.645C278.852 213.343 279.825 209.142 285.823 214.268C291.82 219.393 290.479 211.647 295.148 211.896C299.816 212.146 293.82 221.392 293.82 221.392C293.82 221.392 301.207 220.642 301.136 225.14C301.065 229.638 291.565 227.879 291.565 227.879C291.565 227.879 287.072 241.131 283.074 236.384C279.076 231.636 285.726 226.389 284.65 222.141C283.574 217.893 277.096 221.026 278.327 215.645Z" fill="#FFD84C"/>
<path opacity="0.8" d="M278.327 215.645C278.852 213.343 279.825 209.142 285.823 214.268C291.82 219.393 290.479 211.647 295.148 211.896C299.816 212.146 293.82 221.392 293.82 221.392C293.82 221.392 301.207 220.642 301.136 225.14C301.065 229.638 291.565 227.879 291.565 227.879C291.565 227.879 287.072 241.131 283.074 236.384C279.076 231.636 285.726 226.389 284.65 222.141C283.574 217.893 277.096 221.026 278.327 215.645Z" fill="white"/>
<path d="M303.031 259.927C303.577 256.994 301.159 250.431 305.19 248.189C309.219 245.947 308.981 256.162 312.828 254.058C316.676 251.954 317.919 255.885 316.262 259.927C314.606 263.968 311.672 264.59 312.828 268.318C313.984 272.047 310.481 268.732 305.19 266.246C299.899 263.761 302.472 262.934 303.031 259.927Z" fill="#FFD84C"/>
<path opacity="0.2" d="M303.031 259.927C303.577 256.994 301.159 250.431 305.19 248.189C309.219 245.947 308.981 256.162 312.828 254.058C316.676 251.954 317.919 255.885 316.262 259.927C314.606 263.968 311.672 264.59 312.828 268.318C313.984 272.047 310.481 268.732 305.19 266.246C299.899 263.761 302.472 262.934 303.031 259.927Z" fill="black"/>
<path d="M268.114 439.634C265.32 453.27 267.097 466.718 273.281 479.187C273.545 479.719 274.42 479.396 274.154 478.858C268.048 466.546 266.274 453.259 269.033 439.789C269.154 439.2 268.234 439.048 268.114 439.634Z" fill="#FFD84C"/>
<path d="M279.674 427.139C279.33 427.136 279.023 427.08 278.733 426.998C276.084 435.387 275.321 444.216 276.499 453.266C276.576 453.855 277.508 453.833 277.431 453.237C276.259 444.249 277.022 435.474 279.674 427.139Z" fill="#FFD84C"/>
<path d="M284.463 414.18C283.223 416.282 282.127 418.426 281.156 420.603C281.458 420.739 281.712 420.927 281.94 421.138C282.915 418.929 284.026 416.755 285.281 414.625C285.588 414.108 284.768 413.664 284.463 414.18Z" fill="#FFD84C"/>
<path d="M302.93 174.397C302.93 174.397 305.698 173.802 313.429 174.233C312.517 176.916 310.814 179.025 306.849 178.805C304.867 178.917 303.12 177.116 302.944 174.782C302.934 174.654 302.929 174.525 302.93 174.397Z" fill="#263238"/>
<path d="M308.684 176.724C307.162 176.542 305.648 176.927 304.359 177.823C305.091 178.426 305.955 178.759 306.833 178.774C308.353 178.962 309.864 178.576 311.149 177.676C310.423 177.063 309.561 176.729 308.684 176.724Z" fill="#A02724"/>
<path d="M303.281 174.342C303.435 175.032 303.9 175.579 304.487 175.76C306.782 175.875 309.075 175.766 311.341 175.438C312.074 175.395 312.727 174.926 313.082 174.186C309.806 173.941 306.529 173.993 303.281 174.342Z" fill="white"/>
<path d="M380.493 218.066L363.984 222.553L365.233 246.389C364.168 246.307 362.929 246.426 361.611 246.785C357.827 247.813 354.852 250.382 354.964 252.523C355.076 254.663 358.234 255.566 362.017 254.538C365.8 253.51 368.776 250.941 368.664 248.8C368.359 242.986 367.494 226.474 367.494 226.474L377.995 223.62L380.493 218.066Z" fill="#FFD84C"/>
<path d="M439.651 227.545L429.946 230.182L430.68 244.195C430.054 244.147 429.325 244.217 428.55 244.427C426.325 245.031 424.577 246.542 424.642 247.8C424.708 249.059 426.565 249.589 428.788 248.985C431.013 248.381 432.762 246.871 432.696 245.612C432.517 242.194 432.009 232.486 432.009 232.486L438.182 230.809L439.651 227.545Z" fill="#FFD84C"/>
<path d="M278.961 238.513L266.721 241.839L267.647 259.51C266.858 259.449 265.939 259.538 264.961 259.804C262.156 260.565 259.95 262.471 260.034 264.058C260.117 265.645 262.458 266.313 265.263 265.552C268.068 264.79 270.274 262.885 270.191 261.297C269.965 256.987 269.324 244.745 269.324 244.745L277.109 242.63L278.961 238.513Z" fill="#FFD84C"/>
<path opacity="0.2" d="M278.961 238.513L266.721 241.839L267.647 259.51C266.858 259.449 265.939 259.538 264.961 259.804C262.156 260.565 259.95 262.471 260.034 264.058C260.117 265.645 262.458 266.313 265.263 265.552C268.068 264.79 270.274 262.885 270.191 261.297C269.965 256.987 269.324 244.745 269.324 244.745L277.109 242.63L278.961 238.513Z" fill="white"/>
<path d="M379.565 250.261L381.063 278.828C379.786 278.73 378.301 278.873 376.72 279.303C372.186 280.536 368.619 283.615 368.754 286.18C368.888 288.745 372.672 289.826 377.207 288.595C381.741 287.362 385.308 284.283 385.174 281.718C384.808 274.749 383.772 254.96 383.772 254.96L404.051 249.449L405.247 272.258C403.97 272.159 402.485 272.302 400.904 272.732C396.371 273.965 392.804 277.044 392.938 279.609C393.072 282.174 396.856 283.255 401.392 282.024C405.925 280.791 409.492 277.712 409.358 275.147C408.993 268.179 407.654 242.63 407.654 242.63L379.565 250.261Z" fill="#FFD84C"/>
<path d="M385.808 182.729L386.553 196.958C385.918 196.909 385.178 196.98 384.391 197.194C382.133 197.808 380.357 199.341 380.424 200.619C380.491 201.897 382.375 202.435 384.634 201.821C386.893 201.207 388.67 199.673 388.603 198.396C388.421 194.924 387.904 185.069 387.904 185.069L398.005 182.323L398.6 193.683C397.965 193.634 397.224 193.705 396.438 193.919C394.179 194.533 392.403 196.067 392.469 197.344C392.536 198.622 394.422 199.16 396.68 198.546C398.938 197.932 400.715 196.398 400.648 195.121C400.467 191.65 399.799 178.924 399.799 178.924L385.808 182.729Z" fill="#FFD84C"/>
<path opacity="0.2" d="M385.808 182.729L386.553 196.958C385.918 196.909 385.178 196.98 384.391 197.194C382.133 197.808 380.357 199.341 380.424 200.619C380.491 201.897 382.375 202.435 384.634 201.821C386.893 201.207 388.67 199.673 388.603 198.396C388.421 194.924 387.904 185.069 387.904 185.069L398.005 182.323L398.6 193.683C397.965 193.634 397.224 193.705 396.438 193.919C394.179 194.533 392.403 196.067 392.469 197.344C392.536 198.622 394.422 199.16 396.68 198.546C398.938 197.932 400.715 196.398 400.648 195.121C400.467 191.65 399.799 178.924 399.799 178.924L385.808 182.729Z" fill="black"/>
<path d="M412.886 312.199C414.546 320.819 402.693 330.348 386.412 333.483C370.131 336.619 355.588 332.172 353.928 323.552C352.269 314.932 364.121 305.403 380.402 302.267C396.682 299.132 411.226 303.578 412.886 312.199Z" fill="#FFD84C"/>
<path d="M394.341 329.97L383.413 317.875L377.758 333.163C380.46 333.105 383.291 332.814 386.182 332.257C389.074 331.7 391.81 330.918 394.341 329.97Z" fill="white"/>
<path d="M389.066 302.586C386.364 302.645 383.533 302.936 380.642 303.492C377.75 304.049 375.015 304.831 372.484 305.779L383.411 317.874L389.066 302.586Z" fill="white"/>
<path d="M373.445 333.052L383.405 317.875L360.523 329.103C362.028 330.155 363.903 331.055 366.156 331.744C368.409 332.432 370.872 332.858 373.445 333.052Z" fill="#263238"/>
<path d="M406.296 306.647C404.792 305.594 402.916 304.694 400.664 304.006C398.411 303.317 395.948 302.891 393.375 302.697L383.414 317.875L406.296 306.647Z" fill="#263238"/>
<path d="M392.498 316.123C393.01 318.783 389.353 321.723 384.329 322.692C379.306 323.659 374.816 322.286 374.306 319.627C373.794 316.967 377.451 314.027 382.475 313.058C387.498 312.09 391.986 313.462 392.498 316.123Z" fill="#FFD84C"/>
<path opacity="0.3" d="M392.498 316.123C393.01 318.783 389.353 321.723 384.329 322.692C379.306 323.659 374.816 322.286 374.306 319.627C373.794 316.967 377.451 314.027 382.475 313.058C387.498 312.09 391.986 313.462 392.498 316.123Z" fill="black"/>
<path d="M385.139 317.54C385.237 318.049 384.539 318.609 383.579 318.794C382.62 318.978 381.764 318.717 381.665 318.209C381.567 317.701 382.266 317.14 383.225 316.955C384.185 316.771 385.042 317.032 385.139 317.54Z" fill="white"/>
<path d="M461.191 282.195C459.657 287.042 450.992 288.623 441.837 285.726C432.683 282.829 426.505 276.552 428.038 271.705C429.572 266.858 438.237 265.277 447.392 268.174C456.546 271.071 462.724 277.348 461.191 282.195Z" fill="#FFD84C"/>
<path d="M446.839 286.124L444.613 276.95L437.516 283.173C438.908 283.888 440.429 284.522 442.054 285.037C443.68 285.553 445.288 285.909 446.839 286.124Z" fill="white"/>
<path d="M451.706 270.726C450.315 270.01 448.793 269.376 447.168 268.863C445.542 268.348 443.933 267.992 442.383 267.775L444.609 276.95L451.706 270.726Z" fill="white"/>
<path d="M435.356 281.928L444.616 276.95L429.867 276.351C430.343 277.301 431.049 278.277 432.006 279.25C432.962 280.223 434.099 281.121 435.356 281.928Z" fill="#263238"/>
<path d="M459.366 277.548C458.89 276.597 458.184 275.622 457.227 274.649C456.27 273.675 455.133 272.779 453.878 271.97L444.617 276.949L459.366 277.548Z" fill="#263238"/>
<path d="M449.724 278.569C449.25 280.065 446.577 280.553 443.752 279.659C440.927 278.765 439.021 276.828 439.494 275.333C439.968 273.838 442.641 273.349 445.466 274.243C448.291 275.136 450.197 277.074 449.724 278.569Z" fill="#FFD84C"/>
<path opacity="0.3" d="M449.724 278.569C449.25 280.065 446.577 280.553 443.752 279.659C440.927 278.765 439.021 276.828 439.494 275.333C439.968 273.838 442.641 273.349 445.466 274.243C448.291 275.136 450.197 277.074 449.724 278.569Z" fill="black"/>
<path d="M445.591 277.259C445.501 277.545 444.991 277.638 444.452 277.466C443.912 277.296 443.548 276.926 443.639 276.641C443.73 276.355 444.239 276.262 444.779 276.434C445.318 276.605 445.682 276.973 445.591 277.259Z" fill="white"/>
</svg>
