<svg width="563" height="537" viewBox="0 0 563 537" fill="none" xmlns="http://www.w3.org/2000/svg">
<path d="M168.564 276.128C164.672 272.195 158.054 271.32 153.274 274.107C153.274 274.107 161.776 257.826 147.717 243.507C136.962 232.555 121.135 230.146 105.318 241.35C99.4693 245.493 97.2537 251.3 97.2537 251.3C97.2537 251.3 91.1458 249.339 88.231 248.945C82.0082 248.102 75.4236 251.023 71.8718 256.202C68.3201 261.381 67.9689 268.576 70.9976 274.077C67.3814 272.888 63.0586 274.388 60.9568 277.563C58.855 280.736 59.1235 288.749 65.8832 290.428L169.636 289.961C172.474 285.209 172.456 280.061 168.564 276.128Z" fill="#EBEBEB"/>
<path d="M314.003 263.685C311.871 261.53 308.246 261.051 305.628 262.577C305.628 262.577 310.285 253.66 302.584 245.818C296.693 239.818 288.025 238.499 279.362 244.636C276.158 246.906 274.945 250.086 274.945 250.086C274.945 250.086 271.599 249.012 270.003 248.796C266.594 248.334 262.988 249.934 261.043 252.771C259.098 255.607 258.905 259.548 260.564 262.561C258.583 261.91 256.215 262.732 255.065 264.471C253.914 266.21 254.061 270.598 257.763 271.517L314.59 271.262C316.145 268.658 316.135 265.839 314.003 263.685Z" fill="#F5F5F5"/>
<path d="M450.342 281.92C448.797 280.36 446.171 280.013 444.276 281.119C444.276 281.119 447.649 274.66 442.071 268.979C437.804 264.634 431.525 263.678 425.251 268.123C422.93 269.767 422.052 272.07 422.052 272.07C422.052 272.07 419.629 271.293 418.472 271.136C416.003 270.802 413.391 271.961 411.982 274.015C410.573 276.07 410.433 278.925 411.635 281.107C410.2 280.636 408.486 281.231 407.651 282.49C406.818 283.749 406.924 286.928 409.606 287.594L450.767 287.408C451.894 285.522 451.886 283.48 450.342 281.92Z" fill="#F5F5F5"/>
<path d="M365.843 65.6232C363.942 63.7018 360.708 63.2743 358.373 64.6362C358.373 64.6362 362.527 56.6821 355.658 49.6872C350.404 44.3365 342.672 43.1594 334.945 48.6325C332.088 50.657 331.005 53.4934 331.005 53.4934C331.005 53.4934 328.022 52.5354 326.598 52.3421C323.557 51.9307 320.341 53.357 318.606 55.8874C316.872 58.4177 316.7 61.9329 318.179 64.6201C316.412 64.039 314.3 64.7726 313.274 66.3223C312.247 67.8732 312.378 71.7869 315.68 72.6074L366.367 72.3786C367.753 70.0599 367.745 67.5446 365.843 65.6232Z" fill="#F5F5F5"/>
<path d="M509.572 241.903C507.368 239.676 503.62 239.181 500.913 240.758C500.913 240.758 505.728 231.539 497.766 223.431C491.676 217.228 482.713 215.864 473.757 222.208C470.445 224.554 469.19 227.843 469.19 227.843C469.19 227.843 465.731 226.732 464.081 226.509C460.558 226.031 456.829 227.686 454.818 230.618C452.807 233.551 452.608 237.625 454.323 240.74C452.275 240.067 449.827 240.916 448.637 242.714C447.447 244.512 447.599 249.049 451.428 249.999L510.182 249.735C511.786 247.046 511.777 244.131 509.572 241.903Z" fill="#EBEBEB"/>
<path d="M514.984 107.485C510.296 102.748 502.325 101.694 496.568 105.052C496.568 105.052 506.809 85.4425 489.875 68.1973C476.922 55.0053 457.86 52.1045 438.81 65.5982C431.765 70.588 429.096 77.5819 429.096 77.5819C429.096 77.5819 421.739 75.2202 418.23 74.7444C410.735 73.7284 402.804 77.2468 398.527 83.4846C394.249 89.7224 393.826 98.3874 397.475 105.013C393.12 103.581 387.913 105.389 385.381 109.211C382.85 113.034 383.173 122.683 391.315 124.706L516.276 124.143C519.695 118.422 519.672 112.222 514.984 107.485Z" fill="#F5F5F5"/>
<path d="M238.084 522.493C269.304 522.493 294.613 516.781 294.613 509.735C294.613 502.689 269.304 496.977 238.084 496.977C206.864 496.977 181.555 502.689 181.555 509.735C181.555 516.781 206.864 522.493 238.084 522.493Z" fill="#F5F5F5"/>
<path d="M99.1445 479.051L100.374 480.273L110.403 476.756L101.823 481.933L104.301 483.83L112.843 477.642L106.354 485.232L109.326 487.293L116.179 478.256L110.698 488.473L112.224 489.363L119.589 480.861L114.541 490.405L116.877 491.202C116.877 491.202 126.066 481.066 126.293 481.066C126.52 481.066 119.236 492.043 119.236 492.043L122.478 493.062L129.566 483.586L126.906 493.99L131.044 494.368L134.673 480.517L133.56 494.335L136.825 494.304L136.921 481.198L141.534 493.712L143.057 493.461L140.208 479.981L146.957 492.27L147.748 492.22L142.122 479.437L150.327 491.328L154.331 490.29L147.846 477.947L157.644 488.562L160.616 487.249L153.7 478.388L163.952 485.157L165.475 483.913L158.417 478.068L167.596 482.279L170.028 480.517L163.681 477.198L171.362 478.176C171.362 478.176 171.804 477.308 172.565 475.95H97.0352C97.3842 477.067 98.0673 477.864 99.1445 479.051Z" fill="#EBEBEB"/>
<path d="M362.427 469.462L364.389 471.413L380.4 465.798L366.701 474.064L370.657 477.092L384.295 467.212L373.936 479.33L378.68 482.621L389.62 468.193L380.867 484.505L383.304 485.926L395.063 472.35L387.004 487.588L390.734 488.861C390.734 488.861 405.405 472.677 405.767 472.677C406.129 472.677 394.5 490.203 394.5 490.203L399.676 491.832L410.991 476.703L406.745 493.314L413.351 493.918L419.145 471.804L417.366 493.866L422.578 493.815L422.733 472.891L430.098 492.87L432.53 492.469L427.981 470.948L438.756 490.568L440.019 490.489L431.035 470.08L444.134 489.064L450.527 487.408L440.179 467.699L455.823 484.647L460.567 482.55L449.525 468.402L465.892 479.209L468.323 477.222L457.056 467.89L471.708 474.613L475.593 471.799L465.459 466.5L477.722 468.06C477.722 468.06 478.427 466.674 479.643 464.506H359.059C359.616 466.296 360.707 467.568 362.427 469.462Z" fill="#EBEBEB"/>
<path d="M97.0635 471.336L98.2933 469.297L108.322 475.165L99.7421 466.526L102.22 463.362L110.762 473.687L104.273 461.021L107.245 457.581L114.098 472.661L108.617 455.613L110.144 454.127L117.509 468.316L112.461 452.39L114.797 451.06C114.797 451.06 123.987 467.974 124.213 467.974C124.44 467.974 117.156 449.656 117.156 449.656L120.398 447.955L127.485 463.767L124.825 446.406L128.963 445.775L132.593 468.888L131.478 445.831L134.743 445.882L134.839 467.752L139.452 446.87L140.975 447.29L138.126 469.784L144.875 449.278L145.666 449.36L140.04 470.691L148.245 450.85L152.249 452.581L145.767 473.18L155.565 455.467L158.537 457.658L151.622 472.444L161.873 461.149L163.396 463.225L156.339 472.979L165.517 465.952L167.95 468.894L161.602 474.431L169.284 472.801C169.284 472.801 169.725 474.25 170.486 476.515H94.9531C95.3032 474.645 95.9863 473.315 97.0635 471.336Z" fill="#455A64"/>
<path d="M362.427 454.534L364.39 451.279L380.401 460.649L366.702 446.854L370.658 441.802L384.297 458.288L373.937 438.067L378.681 432.575L389.621 456.651L380.868 429.433L383.306 427.062L395.066 449.714L387.006 424.286L390.736 422.163C390.736 422.163 405.407 449.169 405.769 449.169C406.131 449.169 394.502 419.922 394.502 419.922L399.678 417.205L410.993 442.45L406.747 414.733L413.354 413.725L419.147 450.627L417.368 413.814L422.58 413.896L422.735 448.812L430.1 415.473L432.532 416.143L427.984 452.056L438.759 419.316L440.022 419.446L431.038 453.502L444.138 421.824L450.53 424.587L440.182 457.475L455.826 429.195L460.57 432.694L449.528 456.301L465.895 438.268L468.326 441.582L457.059 457.154L471.712 445.934L475.596 450.63L465.462 459.472L477.725 456.868C477.725 456.868 478.43 459.181 479.646 462.798H359.059C359.616 459.817 360.707 457.695 362.427 454.534Z" fill="#455A64"/>
<path d="M159.911 150.416C156.282 131.354 141.048 114.219 121.881 111.206C115.196 110.156 107.956 110.889 102.384 114.728C96.8125 118.566 93.438 125.97 95.6043 132.38C88.5363 131.323 81.0913 136.414 79.5115 143.384C77.9316 150.355 82.4531 158.157 89.2859 160.253C85.1027 162.009 81.4855 165.082 79.0776 168.927C70.9452 162.595 58.1861 163.259 50.754 170.399C43.322 177.54 42.1502 190.262 48.1528 198.641L151.498 197.979C163.569 182.787 163.54 169.477 159.911 150.416Z" fill="#EBEBEB"/>
<path d="M441.97 194.664C345.569 195.973 249.169 197.284 152.768 198.593C143.194 198.723 133.394 198.818 124.347 195.687C115.299 192.555 106.999 185.5 105.123 176.111C103.246 166.722 109.992 155.723 119.561 155.395C103.269 135.96 108.586 102.516 130.1 89.0899C131.39 60.094 157.791 34.4856 186.813 34.0796C215.834 33.6736 242.941 58.5335 245.042 87.481C255.385 80.8298 270.092 81.9403 279.318 90.0705C288.546 98.2006 291.5 112.649 286.204 123.748C297.57 117.847 312.903 121.113 320.879 131.134C328.853 141.154 328.595 156.83 320.294 166.581C329.904 162.274 342.161 164.887 349.18 172.739C349.35 164.057 356.195 155.967 364.729 154.36C373.263 152.754 382.581 157.804 385.896 165.83C389.77 158.337 399.611 154.573 407.496 157.567C415.381 160.561 420.243 169.909 418.166 178.085C423.086 174.649 430.056 174.447 435.167 177.593C440.277 180.739 443.235 187.054 442.383 192.993" fill="#F5F5F5"/>
<path d="M216.322 144.834C216.304 144.832 216.303 144.525 216.318 143.943C216.333 143.652 216.335 143.291 216.311 142.865C216.301 142.438 216.288 141.946 216.221 141.395C216.02 139.205 215.367 135.976 213.39 132.51C212.402 130.789 211.079 129.028 209.371 127.426C207.639 125.86 205.534 124.427 203.061 123.485C198.183 121.539 191.885 121.287 186.262 123.88L186.046 123.978L185.911 123.779C185.257 122.815 184.526 121.806 183.696 120.864C179.359 115.867 173.524 112.75 167.935 111.603C162.312 110.427 157.017 111.223 152.956 112.681C148.851 114.122 145.918 116.174 144.052 117.713C143.117 118.49 142.422 119.135 141.977 119.594C141.767 119.799 141.596 119.967 141.455 120.105C141.334 120.218 141.27 120.274 141.262 120.267C141.255 120.26 141.306 120.192 141.413 120.067C141.544 119.918 141.703 119.737 141.896 119.516C142.318 119.029 142.992 118.355 143.912 117.546C145.75 115.944 148.681 113.818 152.824 112.308C156.921 110.784 162.302 109.927 168.042 111.098C173.741 112.239 179.696 115.4 184.121 120.497C184.969 121.459 185.714 122.489 186.38 123.474L186.029 123.374C191.818 120.712 198.265 120.998 203.249 123.018C205.775 123.998 207.925 125.481 209.681 127.097C211.412 128.751 212.74 130.559 213.724 132.323C215.692 135.874 216.292 139.163 216.431 141.379C216.559 143.616 216.322 144.834 216.322 144.834Z" fill="#E0E0E0"/>
<path d="M379.527 241.09C379.545 241.139 378.749 241.454 377.506 242.045C376.263 242.633 374.581 243.527 372.845 244.705L372.798 244.737L372.664 244.827L372.567 244.7C371.306 243.036 370.047 241.626 369.107 240.636C368.166 239.643 367.557 239.056 367.591 239.018C367.606 239.001 367.779 239.127 368.073 239.373C368.369 239.619 368.782 239.989 369.277 240.467C370.268 241.42 371.566 242.817 372.839 244.494L372.607 244.457L372.655 244.425C374.41 243.234 376.131 242.364 377.409 241.827C378.048 241.556 378.574 241.363 378.943 241.242C379.311 241.121 379.519 241.068 379.527 241.09Z" fill="#263238"/>
<path d="M351.986 172.826C352.016 172.858 351.707 173.217 351.123 173.84C350.539 174.463 349.679 175.35 348.606 176.437C346.461 178.61 343.468 181.582 340.134 184.835C340.093 184.875 340.052 184.914 340.015 184.951L339.789 185.171L339.568 184.947C336.324 181.654 333.418 178.654 331.339 176.463C330.299 175.368 329.466 174.474 328.901 173.846C328.335 173.218 328.037 172.858 328.069 172.826C328.1 172.796 328.456 173.099 329.075 173.674C329.694 174.248 330.575 175.095 331.656 176.15C333.817 178.262 336.773 181.211 340.018 184.503L339.572 184.499C339.61 184.462 339.651 184.422 339.691 184.383C343.025 181.13 346.068 178.209 348.292 176.118C349.405 175.073 350.312 174.234 350.949 173.665C351.588 173.095 351.955 172.795 351.986 172.826Z" fill="#263238"/>
<path d="M369.658 188.658C369.753 188.839 365.875 190.134 362.415 193.573C362.227 193.764 362.04 193.952 361.865 194.13L361.651 194.346L361.429 194.151C358.007 191.165 355.414 188.738 355.523 188.614C355.63 188.489 358.4 190.711 361.841 193.676L361.406 193.697C361.587 193.513 361.771 193.312 361.971 193.12C363.748 191.365 365.698 190.172 367.17 189.491C368.648 188.809 369.634 188.586 369.658 188.658Z" fill="#263238"/>
<path d="M424.848 160.147C424.875 160.237 423.236 160.756 420.657 161.765C418.08 162.773 414.571 164.312 410.909 166.409C410.677 166.542 410.446 166.676 410.231 166.799L410.015 166.923L409.852 166.739C407.158 163.723 404.473 161.273 402.468 159.593C400.464 157.907 399.168 156.951 399.22 156.876C399.243 156.844 399.595 157.043 400.208 157.446C400.821 157.848 401.689 158.461 402.731 159.267C404.817 160.874 407.577 163.296 410.303 166.335L409.924 166.276C410.141 166.15 410.374 166.016 410.608 165.881C414.305 163.763 417.876 162.271 420.508 161.361C421.825 160.905 422.906 160.584 423.659 160.385C424.413 160.19 424.837 160.108 424.848 160.147Z" fill="#263238"/>
<path d="M451.335 192.424C451.374 192.512 450.264 193.036 448.591 194.076C446.918 195.109 444.707 196.714 442.622 198.866L442.607 198.882L442.406 199.086L442.191 198.9C439.906 196.924 437.861 195.11 436.401 193.775C434.94 192.44 434.065 191.583 434.12 191.519C434.174 191.456 435.148 192.199 436.681 193.451C438.214 194.704 440.303 196.466 442.588 198.442L442.172 198.461L442.189 198.445C444.319 196.245 446.623 194.659 448.375 193.707C450.129 192.745 451.308 192.358 451.335 192.424Z" fill="#263238"/>
<path d="M446.136 143.46C446.155 143.509 445.302 143.804 444.016 144.476C442.732 145.142 441.028 146.232 439.44 147.78L439.331 147.887L439.224 147.779C439.193 147.748 439.16 147.715 439.125 147.682C437.52 146.083 436.077 144.624 435.045 143.556C434.528 143.023 434.115 142.587 433.834 142.282C433.552 141.975 433.404 141.799 433.419 141.784C433.434 141.769 433.611 141.916 433.918 142.197C434.226 142.477 434.663 142.888 435.2 143.403C436.272 144.431 437.738 145.865 439.343 147.464C439.376 147.497 439.411 147.531 439.442 147.561L439.226 147.56C440.844 145.985 442.597 144.905 443.922 144.282C444.584 143.968 445.137 143.753 445.525 143.624C445.911 143.495 446.13 143.441 446.136 143.46Z" fill="#263238"/>
<path d="M433.936 311.09L432.543 306.931C424.373 285.343 403.51 269.992 379.06 269.992C357.786 269.992 339.227 281.613 329.382 298.853L326.67 304.252C323.598 311.266 321.891 319.014 321.891 327.161H436.23C436.229 321.581 435.426 316.189 433.936 311.09Z" fill="#F990E7"/>
<path opacity="0.4" d="M433.936 311.09L432.543 306.931C424.373 285.343 403.51 269.992 379.06 269.992C357.786 269.992 339.227 281.613 329.382 298.853L326.67 304.252C323.598 311.266 321.891 319.014 321.891 327.161H436.23C436.229 321.581 435.426 316.189 433.936 311.09Z" fill="white"/>
<path d="M427.343 312.893L382.28 312.997C382.28 312.997 386.397 311.618 396.268 310.298C398.778 309.962 413.541 309.524 426.106 309.202C418.852 290.035 400.331 276.406 378.623 276.406C359.736 276.406 343.26 286.724 334.518 302.029L377.583 303.994L332.111 306.822C329.384 313.049 327.867 319.928 327.867 327.161H429.378C429.38 322.207 428.666 317.42 427.343 312.893Z" fill="#F990E7"/>
<path opacity="0.7" d="M427.343 312.893L382.28 312.997C382.28 312.997 386.397 311.618 396.268 310.298C398.778 309.962 413.541 309.524 426.106 309.202C418.852 290.035 400.331 276.406 378.623 276.406C359.736 276.406 343.26 286.724 334.518 302.029L377.583 303.994L332.111 306.822C329.384 313.049 328.523 320.058 327.867 327.161H429.378C429.38 322.207 428.666 317.42 427.343 312.893Z" fill="white"/>
<path d="M426.104 309.201C426.104 309.201 426.058 309.111 425.983 308.93C425.906 308.735 425.8 308.468 425.663 308.126C425.518 307.775 425.367 307.328 425.14 306.821C424.905 306.314 424.637 305.733 424.334 305.08C424.02 304.431 423.62 303.734 423.21 302.958C422.778 302.194 422.266 301.389 421.728 300.517C420.579 298.822 419.229 296.912 417.521 294.977C414.133 291.107 409.562 286.875 403.654 283.454C400.709 281.742 397.404 280.322 393.853 279.264C392.083 278.714 390.235 278.318 388.357 277.959C386.468 277.659 384.541 277.393 382.577 277.301C380.615 277.164 378.67 277.205 376.757 277.278C374.847 277.411 372.967 277.583 371.14 277.902C367.482 278.504 364.017 279.463 360.838 280.689C354.476 283.16 349.26 286.555 345.294 289.839C341.322 293.136 338.52 296.267 336.71 298.512C335.816 299.646 335.128 300.532 334.691 301.155C334.472 301.451 334.301 301.682 334.177 301.85C334.059 302.006 333.992 302.081 333.992 302.081C333.992 302.081 334.041 301.993 334.149 301.831C334.267 301.657 334.429 301.42 334.637 301.115C335.055 300.478 335.727 299.578 336.607 298.43C338.388 296.154 341.172 292.989 345.14 289.654C349.103 286.333 354.331 282.899 360.725 280.398C363.92 279.157 367.405 278.185 371.086 277.575C372.925 277.252 374.817 277.076 376.74 276.942C378.664 276.868 380.622 276.825 382.597 276.964C384.574 277.057 386.514 277.324 388.416 277.629C390.307 277.99 392.166 278.391 393.949 278.947C397.524 280.016 400.852 281.454 403.813 283.185C409.75 286.644 414.324 290.915 417.706 294.822C419.41 296.776 420.752 298.704 421.89 300.416C422.422 301.296 422.928 302.109 423.354 302.88C423.756 303.664 424.149 304.368 424.455 305.024C424.748 305.684 425.008 306.271 425.236 306.783C425.454 307.296 425.596 307.747 425.73 308.103C425.854 308.45 425.949 308.722 426.019 308.92C426.08 309.104 426.104 309.201 426.104 309.201Z" fill="white"/>
<path d="M368.746 270.702C368.747 270.707 368.683 270.726 368.557 270.756C368.412 270.788 368.227 270.829 367.995 270.88C367.503 270.997 366.765 271.111 365.836 271.354C363.968 271.781 361.287 272.532 358.092 273.771C356.492 274.386 354.781 275.161 352.977 276.057C351.195 276.992 349.307 278.032 347.424 279.292C343.638 281.774 339.79 284.994 336.31 288.892C332.86 292.821 330.129 297.031 328.124 301.091C327.102 303.113 326.298 305.113 325.586 306.996C324.915 308.895 324.352 310.687 323.938 312.35C323.096 315.671 322.676 318.423 322.477 320.329C322.349 321.281 322.325 322.026 322.269 322.529C322.246 322.765 322.227 322.953 322.213 323.101C322.199 323.23 322.188 323.296 322.182 323.296C322.176 323.296 322.174 323.229 322.177 323.099C322.183 322.951 322.19 322.761 322.2 322.525C322.235 322.02 322.236 321.271 322.345 320.317C322.503 318.401 322.888 315.635 323.705 312.291C324.106 310.617 324.658 308.813 325.321 306.9C326.025 305.003 326.823 302.989 327.844 300.951C329.845 296.862 332.584 292.619 336.056 288.667C339.558 284.743 343.436 281.511 347.252 279.03C349.15 277.771 351.053 276.735 352.851 275.806C354.669 274.916 356.394 274.15 358.006 273.547C361.227 272.332 363.926 271.615 365.809 271.225C366.744 271.002 367.487 270.909 367.983 270.814C368.218 270.776 368.404 270.746 368.552 270.722C368.679 270.703 368.745 270.697 368.746 270.702Z" fill="#F990E7"/>
<path d="M542.082 385.979C542.082 385.979 531.684 397.149 517.273 399.375C502.863 401.602 473.041 383.862 459.306 388.879C457.79 389.432 456.036 390.387 455.98 392.044C455.953 392.845 456.36 393.648 456.169 394.424C456.011 395.066 455.482 395.529 454.969 395.928C445.231 403.478 431.93 403.116 419.772 402.334C407.614 401.552 394.373 400.981 384.436 408.251C379.907 411.564 376.387 416.33 371.439 418.93C367.116 421.201 362.127 421.594 357.288 421.947C352.794 422.274 348.192 422.59 343.859 421.314C340.783 420.408 337.978 418.735 335.211 417.078C330.703 414.379 326.617 410.979 321.384 410.697C318.492 410.542 315.675 410.56 312.821 411.153C312.01 411.321 306.254 413.729 305.995 413.535C310.107 416.612 308.243 423.955 303.862 426.606C299.48 429.256 294.011 428.654 288.975 427.968C275.977 426.201 262.483 424.247 251.526 416.819C245.831 412.959 241.049 407.75 235.155 404.224C223.449 397.222 209.069 397.72 195.556 398.423C191.964 398.61 188.024 398.946 185.463 401.551C184.397 402.635 183.677 404.019 182.762 405.24C178.272 411.225 169.942 412.356 162.637 411.687C155.332 411.018 147.929 409.047 140.767 410.681C131.941 412.696 124.985 419.859 116.35 422.616C104.352 426.447 91.4727 421.184 80.5061 414.868C69.5395 408.552 58.6975 400.899 46.2111 399.505C40.1065 398.823 33.67 399.65 28.0391 397.123V381.531L542.082 355.077V385.979Z" fill="#FAFAFA"/>
<path d="M27.3086 326.061V396.44C27.3086 396.44 49.8604 392.884 66.4548 393.854C83.0503 394.824 83.4756 398.225 100.495 399.272C117.515 400.32 113.118 393.081 132.336 391.69C151.555 390.299 156.661 398.703 167.724 395.471C178.788 392.238 206.47 379.319 231.976 383.834C257.482 388.349 261.546 398.299 287.397 397.532C313.248 396.764 323.923 388.805 344.329 386.319C364.735 383.833 365.392 392.966 385.241 392.874C422.566 392.7 437.695 388.461 440.426 387.829C461.49 382.958 452.639 376.451 471.746 377.534C480.975 378.057 495.699 388.947 512.468 388.301C529.236 387.654 538.35 383.143 542.082 380.6V326.06H27.3086V326.061ZM98.5137 394.183C92.2362 394.183 87.1465 392.391 87.1465 390.181C87.1465 387.971 92.2351 386.179 98.5137 386.179C104.791 386.179 109.88 387.971 109.88 390.181C109.88 392.391 104.79 394.183 98.5137 394.183ZM115.721 386.754C113.727 386.754 112.112 386.115 112.112 385.327C112.112 384.538 113.728 383.899 115.721 383.899C117.715 383.899 119.331 384.538 119.331 385.327C119.332 386.114 117.716 386.754 115.721 386.754ZM384.072 385.98C376.333 385.98 370.059 384.089 370.059 381.757C370.059 379.425 376.333 377.534 384.072 377.534C391.811 377.534 398.086 379.424 398.086 381.757C398.086 384.089 391.811 385.98 384.072 385.98Z" fill="#F5F5F5"/>
<path d="M154.963 426.226C163.535 426.226 170.484 423.717 170.484 420.621C170.484 417.525 163.535 415.016 154.963 415.016C146.391 415.016 139.441 417.525 139.441 420.621C139.441 423.717 146.391 426.226 154.963 426.226Z" fill="#FAFAFA"/>
<path d="M336.281 428.554C336.281 430.563 331.77 432.192 326.207 432.192C320.643 432.192 316.133 430.563 316.133 428.554C316.133 426.544 320.644 424.916 326.207 424.916C331.77 424.916 336.281 426.545 336.281 428.554Z" fill="#FAFAFA"/>
<path d="M479.65 412.017C489.094 412.017 496.749 409.252 496.749 405.842C496.749 402.431 489.094 399.666 479.65 399.666C470.206 399.666 462.551 402.431 462.551 405.842C462.551 409.252 470.206 412.017 479.65 412.017Z" fill="#FAFAFA"/>
<path fill-rule="evenodd" clip-rule="evenodd" d="M318.434 332.923L322.342 326.227L436.931 326.18L444.792 335.465L400.116 337.413C400.116 337.413 431.727 338.3 428.838 339.652C425.949 341.005 377.825 345.892 377.825 345.892C377.825 345.892 397.884 352.437 395.61 352.452C393.338 352.466 349.734 349.405 352.824 346.05C355.914 342.695 388.864 340.821 388.864 340.821L342.502 340.851L390.63 335.806L318.434 332.923Z" fill="#BA90F9"/>
<path opacity="0.4" fill-rule="evenodd" clip-rule="evenodd" d="M318.434 332.923L322.342 326.227L436.931 326.18L444.792 335.465L400.116 337.413C400.116 337.413 431.727 338.3 428.838 339.652C425.949 341.005 377.825 345.892 377.825 345.892C377.825 345.892 397.884 352.437 395.61 352.452C393.338 352.466 349.734 349.405 352.824 346.05C355.914 342.695 388.864 340.821 388.864 340.821L342.502 340.851L390.63 335.806L318.434 332.923Z" fill="white"/>
<path d="M419.162 328.964C419.162 329.157 402.787 329.313 382.592 329.313C362.391 329.313 346.02 329.156 346.02 328.964C346.02 328.77 362.391 328.615 382.592 328.615C402.787 328.615 419.162 328.772 419.162 328.964Z" fill="white"/>
<path d="M399.219 332.713C399.219 332.906 392.244 333.062 383.642 333.062C375.036 333.062 368.062 332.905 368.062 332.713C368.062 332.521 375.036 332.364 383.642 332.364C392.245 332.364 399.219 332.52 399.219 332.713Z" fill="white"/>
<path d="M382.673 348.506C382.673 348.7 381.746 348.855 380.602 348.855C379.458 348.855 378.531 348.699 378.531 348.506C378.531 348.314 379.458 348.157 380.602 348.157C381.746 348.157 382.673 348.314 382.673 348.506Z" fill="white"/>
<path d="M537.989 325.999C537.989 326.099 424.56 326.179 284.669 326.179C144.73 326.179 31.3242 326.099 31.3242 325.999C31.3242 325.899 144.73 325.818 284.669 325.818C424.56 325.818 537.989 325.899 537.989 325.999Z" fill="#263238"/>
<path d="M292.601 355.476C292.601 355.476 246.643 370.206 244.621 370.795C242.598 371.385 242.224 403.497 246.351 421.007C250.479 438.516 243.99 437.083 241.928 455.35C239.866 473.617 241.928 494.534 241.928 494.534L254.647 496.976C254.647 496.976 264.036 471.6 267.249 456.9C269.89 444.818 273.452 425.888 272.274 418.523C271.096 411.157 288.33 380.296 288.33 371.716L292.601 355.476Z" fill="#FFBF9D"/>
<path d="M216.819 353.166C216.525 354.05 221.308 411.746 219.834 414.692C218.361 417.638 204.401 436.501 204.418 453.399C204.43 464.611 207.356 491.882 207.356 491.882L219.063 491.42C219.063 491.42 224.084 470.331 230.611 456.778C237.136 443.225 237.806 436.788 241.931 428.685C246.055 420.583 248.047 416.243 250.474 403.496C253.486 387.682 265.233 358.007 265.233 358.007L216.819 353.166Z" fill="#FFBF9D"/>
<path d="M207.357 491.883C207.357 491.883 207.314 491.644 207.256 491.176C207.2 490.691 207.12 489.997 207.015 489.09C206.821 487.236 206.54 484.526 206.176 481.029C205.832 477.518 205.427 473.211 205.029 468.186C204.831 465.674 204.635 462.981 204.477 460.118C204.392 458.686 204.334 457.211 204.278 455.694C204.265 454.935 204.252 454.166 204.238 453.386C204.275 452.604 204.311 451.813 204.348 451.012C204.787 444.592 207.034 437.794 210.271 430.961C211.895 427.537 213.797 424.099 215.899 420.64C216.939 418.904 218.061 417.177 219.146 415.411C219.405 414.96 219.7 414.539 219.733 414.076C219.804 413.576 219.822 413.052 219.849 412.53C219.875 411.481 219.875 410.42 219.856 409.351C219.664 400.797 219.055 391.783 218.452 382.396C218.129 377.703 217.802 372.916 217.467 368.045C217.298 365.609 217.127 363.153 216.956 360.676C216.874 359.437 216.791 358.194 216.709 356.945L216.596 355.067L216.548 354.122L216.532 353.644L216.527 353.4C216.531 353.293 216.541 353.185 216.554 353.079L216.581 352.865L216.844 352.892C224.448 353.651 232.434 354.449 240.557 355.26C249.018 356.108 257.331 356.94 265.258 357.734L265.62 357.77L265.487 358.111C258.271 376.791 251.996 394.634 249.003 411.434C247.975 415.574 246.604 419.524 244.896 423.17C243.218 426.836 241.255 430.199 239.921 433.696C238.54 437.174 237.45 440.628 236.249 443.889C235.061 447.155 233.8 450.241 232.497 453.133C226.872 464.508 223.991 474.305 221.963 480.989C220.974 484.345 220.265 486.958 219.79 488.727C219.557 489.602 219.378 490.271 219.254 490.74C219.133 491.193 219.061 491.421 219.061 491.421C219.061 491.421 219.099 491.184 219.203 490.727C219.317 490.256 219.479 489.582 219.691 488.702C220.135 486.923 220.812 484.3 221.772 480.933C223.74 474.235 226.579 464.385 232.164 452.982C233.452 450.092 234.698 447.013 235.872 443.75C237.06 440.493 238.139 437.038 239.518 433.533C240.855 430.001 242.822 426.614 244.476 422.975C246.166 419.345 247.513 415.434 248.529 411.312C249.592 407.202 250.236 402.875 251.332 398.517C252.415 394.165 253.73 389.769 255.156 385.313C258.027 376.406 261.335 367.253 264.974 357.904L265.204 358.281C257.278 357.49 248.964 356.66 240.502 355.814C232.379 355.001 224.394 354.201 216.79 353.44L216.874 353.183C217.286 353.333 216.99 353.247 217.082 353.291L217.083 353.328L217.081 353.403L217.087 353.632L217.102 354.097L217.148 355.035L217.258 356.909C217.34 358.157 217.422 359.399 217.502 360.637C217.672 363.113 217.84 365.57 218.008 368.005C218.338 372.877 218.661 377.665 218.979 382.359C219.572 391.75 220.168 400.762 220.345 409.342C220.361 410.414 220.359 411.482 220.331 412.544C220.302 413.077 220.285 413.606 220.207 414.147C220.143 414.75 219.809 415.209 219.555 415.656C218.456 417.435 217.337 419.149 216.294 420.88C214.19 424.324 212.288 427.743 210.662 431.147C207.422 437.939 205.172 444.686 204.713 451.035C204.673 451.828 204.634 452.611 204.595 453.383C204.605 454.16 204.614 454.925 204.625 455.682C204.674 457.196 204.725 458.668 204.803 460.099C204.947 462.959 205.13 465.65 205.313 468.162C205.683 473.187 206.059 477.495 206.371 481.008C206.693 484.51 206.943 487.222 207.113 489.079C207.196 489.987 207.261 490.683 207.305 491.17C207.35 491.641 207.357 491.883 207.357 491.883Z" fill="#FF9A6C"/>
<path opacity="0.3" d="M217.656 386.671C217.656 386.671 231.341 393.325 243.707 393.689C256.073 394.052 255.369 398.162 260.689 399.476C271.987 402.267 280.874 390.988 280.874 390.988L284.612 382.996L218.439 384.989L217.656 386.671Z" fill="black"/>
<path d="M219.266 490.589C219.266 490.589 217.482 500.706 219.444 505.945C220.924 509.897 224.286 515.791 225.048 518.108C225.81 520.424 227.254 524.479 222.722 525.059C218.19 525.637 207.903 527.762 206.188 519.267C204.474 510.771 206.378 509.999 204.282 506.331C202.187 502.662 201.803 499.573 205.266 496.167C207.598 493.874 207.131 489.736 207.131 489.736L219.266 490.589Z" fill="#FFBF9D"/>
<path d="M241.63 490.814C241.63 492.482 242.413 495.841 240.579 499.606C239.69 501.432 238.769 504.086 238.309 506.085C237.85 508.083 238.061 510.423 239.426 511.857C241.39 513.918 244.555 513.224 247.289 513.248C254.447 513.311 261.045 519.257 268.109 517.997C269.565 517.737 271.018 517.138 272.051 515.995C273.085 514.852 273.614 513.097 273.109 511.595C272.253 509.046 269.254 508.485 266.82 507.845C261.784 506.524 257.587 501.598 254.65 496.974L257.111 488.639L241.63 490.814Z" fill="#FFBF9D"/>
<path d="M240.671 215.272C240.225 215.272 233.413 213.632 223.165 216.454C212.92 219.275 209.04 224.182 204.586 225.37C200.131 226.558 176.075 238.883 167.462 240.219C158.85 241.555 133.754 252.396 133.754 252.396L135.981 262.196C135.981 262.196 166.63 257.629 181.629 253.322C196.627 249.015 225.663 242.654 225.663 242.654C225.663 242.654 235.474 249.425 236.067 249.722C236.661 250.019 240.671 215.272 240.671 215.272Z" fill="#FFBF9D"/>
<path d="M123.78 271.203C123.78 271.203 126.975 268.816 128.813 267.171C129.853 266.239 133.45 263.546 136.045 262.559C137.944 261.837 141.748 260.126 141.748 260.126L139.05 250.166L133.759 252.395C133.759 252.395 130.566 249.829 127.886 248.884C125.391 248.003 121.738 241.687 120.537 242.781C119.211 243.986 119.898 245.59 121.691 248.283C123.485 250.974 124.479 252.549 123.365 254.372C122.252 256.196 115.273 258.674 112.189 259.394C109.734 259.969 106.833 260.858 107.354 262.074C107.896 263.337 111.856 263.181 118.087 261.646C118.345 261.534 119.731 261.975 116.618 263.508C115.504 264.056 108.164 265.808 107.809 267.256C107.453 268.703 109.198 269.044 110.192 269.024C111.503 268.997 117.697 267.022 117.697 267.022C117.697 267.022 112.012 270.569 111.978 271.123C111.943 271.678 112.098 272.496 113.274 272.621C114.449 272.745 119.672 270.173 121.259 269.335C122.847 268.497 124.786 266.513 124.786 266.513C124.539 266.804 122.144 269.399 122.007 270.002C121.869 270.606 122.4 271.307 122.778 271.378C123.154 271.449 123.78 271.203 123.78 271.203Z" fill="#FFBF9D"/>
<path d="M130.917 258.726C130.919 258.74 130.794 258.772 130.563 258.799C130.332 258.827 129.994 258.836 129.578 258.792C128.755 258.711 127.597 258.339 126.641 257.468C125.686 256.594 125.213 255.473 125.057 254.66C124.975 254.251 124.955 253.913 124.962 253.681C124.969 253.449 124.99 253.321 125.003 253.322C125.045 253.321 125.015 253.837 125.213 254.625C125.403 255.406 125.882 256.466 126.794 257.3C127.706 258.133 128.805 258.514 129.6 258.633C130.403 258.761 130.914 258.684 130.917 258.726Z" fill="#FF9A6C"/>
<path d="M120.116 259.145C120.149 259.131 120.334 259.514 120.671 260.111C121.006 260.709 121.506 261.513 122.151 262.335C122.796 263.155 123.459 263.833 123.959 264.3C124.46 264.768 124.788 265.04 124.767 265.068C124.751 265.089 124.387 264.863 123.853 264.419C123.319 263.978 122.628 263.307 121.972 262.473C121.319 261.639 120.832 260.809 120.529 260.186C120.226 259.564 120.091 259.156 120.116 259.145Z" fill="#FF9A6C"/>
<path d="M121.724 263.582C121.763 263.627 120.947 264.373 119.816 265.129C118.688 265.889 117.688 266.36 117.661 266.307C117.63 266.25 118.573 265.693 119.691 264.941C120.81 264.193 121.682 263.531 121.724 263.582Z" fill="#FF9A6C"/>
<path d="M270.52 207.104C270.52 207.104 282.993 198.937 290.567 201.609C298.14 204.283 321.306 213.06 327.097 214.017C332.888 214.974 365.828 212.212 365.828 212.212L368.778 220.026C368.778 220.026 345.807 229.378 334.819 230.269C323.83 231.16 290.122 224.329 290.122 224.329L270.52 207.104Z" fill="#FFBF9D"/>
<path d="M362.883 212.494L365.828 212.212C365.828 212.212 366.893 208.203 368.548 206.399C370.089 204.721 370.311 198.44 371.667 198.786C373.162 199.166 373.29 200.663 373.015 203.435C372.74 206.207 372.621 207.806 374.205 208.743C375.789 209.679 382.098 208.74 384.733 208.04C386.833 207.483 389.398 206.987 389.493 208.122C389.592 209.301 386.518 210.784 381.16 212.139C380.919 212.157 380.043 213.054 383.03 212.959C384.099 212.926 390.388 211.289 391.243 212.245C392.099 213.202 390.91 214.166 390.146 214.553C389.138 215.063 383.631 216.067 383.631 216.067C383.631 216.067 389.389 216.465 389.638 216.872C389.889 217.28 390.102 217.964 389.258 218.534C388.414 219.105 383.404 219.262 381.858 219.267C380.313 219.272 378.035 218.547 378.035 218.547C378.34 218.669 381.211 219.673 381.56 220.076C381.908 220.478 381.788 221.227 381.53 221.433C381.271 221.64 380.696 221.706 380.696 221.706C380.696 221.706 377.301 221.185 375.239 220.676C374.071 220.388 370.247 219.796 367.875 220.096" fill="#FFBF9D"/>
<path d="M370.559 215.743C370.563 215.754 370.671 215.729 370.857 215.656C371.044 215.584 371.305 215.454 371.604 215.254C372.197 214.858 372.927 214.108 373.302 213.058C373.674 212.008 373.581 210.964 373.371 210.283C373.268 209.938 373.145 209.673 373.046 209.5C372.947 209.326 372.88 209.238 372.87 209.244C372.838 209.261 373.07 209.641 373.237 210.32C373.408 210.99 373.474 211.99 373.118 212.994C372.761 213.996 372.08 214.73 371.523 215.143C370.964 215.562 370.545 215.71 370.559 215.743Z" fill="#FF9A6C"/>
<path d="M378.943 211.692C378.913 211.694 378.927 212.061 378.913 212.651C378.9 213.241 378.844 214.055 378.687 214.94C378.528 215.825 378.298 216.608 378.107 217.166C377.916 217.725 377.776 218.064 377.804 218.077C377.826 218.086 378.011 217.766 378.237 217.214C378.464 216.663 378.718 215.873 378.879 214.975C379.038 214.076 379.073 213.247 379.051 212.652C379.029 212.055 378.966 211.69 378.943 211.692Z" fill="#FF9A6C"/>
<path d="M379.512 215.718C379.501 215.768 380.423 216.005 381.588 216.122C382.753 216.243 383.704 216.197 383.704 216.145C383.704 216.089 382.762 216.047 381.608 215.928C380.454 215.812 379.523 215.662 379.512 215.718Z" fill="#FF9A6C"/>
<path opacity="0.6" d="M290.117 224.33C290.117 224.33 326.955 229.914 336.192 228.251C345.428 226.589 368.773 220.028 368.773 220.028C368.773 220.028 344.124 229.859 334.814 230.271C320.776 230.889 290.117 224.33 290.117 224.33Z" fill="white"/>
<path d="M230.632 246.068C230.632 246.068 235.428 254.485 237.358 258.791C239.289 263.098 240.673 271.592 240.673 271.592C240.673 271.592 238.414 287.672 224.933 295.309C207.383 305.25 163.29 330.938 159.429 335.987C155.568 341.036 168.208 372.23 196.273 382.476C224.339 392.722 244.01 387.35 255.719 393.376C275.165 403.385 288.043 380.249 288.043 380.249C288.043 380.249 296.332 350.988 299.629 340.817C305.924 321.396 298.822 294.574 294.961 280.763C291.1 266.954 299.186 251.123 294.359 236.855C290.122 224.329 288.779 222.904 288.779 222.904L274.222 204.989L236.809 214.849C239.54 226.286 237.951 236.794 230.632 246.068Z" fill="#BA90F9"/>
<path d="M259.031 305.238C259.041 305.255 258.811 305.409 258.363 305.688C257.866 305.99 257.211 306.387 256.392 306.884C254.683 307.927 252.162 309.357 249.036 311.101C245.898 312.824 242.142 314.84 237.951 317.035C233.764 319.238 229.145 321.627 224.373 324.269C219.603 326.913 215.12 329.546 211.195 332.175C210.204 332.816 209.28 333.503 208.359 334.137C207.436 334.771 206.555 335.402 205.731 336.054C204.897 336.691 204.092 337.306 203.318 337.899C202.571 338.523 201.855 339.124 201.168 339.697C199.778 340.819 198.609 341.934 197.57 342.901C197.052 343.381 196.567 343.83 196.119 344.245C195.698 344.677 195.311 345.075 194.958 345.435C194.284 346.115 193.746 346.659 193.337 347.071C192.962 347.442 192.757 347.63 192.743 347.617C192.729 347.604 192.905 347.39 193.253 346.995C193.643 346.563 194.157 345.995 194.8 345.284C195.143 344.91 195.519 344.501 195.928 344.055C196.369 343.628 196.843 343.167 197.351 342.673C198.374 341.682 199.528 340.542 200.909 339.395C201.589 338.81 202.303 338.198 203.044 337.561C203.816 336.957 204.618 336.331 205.448 335.682C206.27 335.02 207.151 334.378 208.071 333.735C208.992 333.092 209.915 332.395 210.906 331.745C214.831 329.082 219.32 326.428 224.101 323.778C228.882 321.132 233.511 318.755 237.71 316.577C241.915 314.408 245.686 312.431 248.845 310.753C251.992 309.055 254.54 307.68 256.282 306.695C257.122 306.237 257.794 305.869 258.304 305.59C258.772 305.343 259.022 305.222 259.031 305.238Z" fill="#263238"/>
<path d="M282.992 262.19C283.022 262.213 282.662 262.706 281.984 263.577C281.313 264.456 280.275 265.673 278.931 267.121C277.594 268.576 275.905 270.219 273.945 271.948C271.965 273.656 269.704 275.438 267.211 277.139C264.705 278.824 262.211 280.264 259.891 281.468C257.558 282.647 255.405 283.606 253.558 284.309C251.715 285.019 250.2 285.532 249.135 285.829C248.074 286.136 247.484 286.287 247.473 286.251C247.462 286.214 248.031 285.992 249.068 285.621C250.107 285.263 251.596 284.694 253.41 283.942C255.228 283.196 257.349 282.207 259.654 281.011C261.945 279.79 264.411 278.347 266.898 276.676C269.373 274.988 271.626 273.233 273.61 271.558C275.575 269.863 277.282 268.26 278.648 266.848C280.02 265.442 281.1 264.27 281.818 263.438C282.544 262.612 282.962 262.166 282.992 262.19Z" fill="#263238"/>
<path d="M280.052 252C280.085 252.022 279.925 252.329 279.606 252.868C279.29 253.409 278.8 254.171 278.167 255.095C276.902 256.942 275.019 259.407 272.712 261.931C270.399 264.452 268.111 266.546 266.382 267.969C265.518 268.681 264.802 269.236 264.292 269.598C263.782 269.963 263.49 270.15 263.467 270.119C263.414 270.051 264.471 269.162 266.124 267.669C267.778 266.177 270.005 264.056 272.299 261.553C274.589 259.047 276.506 256.641 277.847 254.863C279.188 253.085 279.982 251.954 280.052 252Z" fill="#263238"/>
<g opacity="0.3">
<path d="M189.875 361.327C183.722 353.427 176.732 343.428 170.997 338.334C168.837 336.416 165.903 334.55 163.25 335.692C161.294 336.534 160.276 338.827 160.343 340.956C160.41 343.084 160.577 347.216 161.505 349.133C165.427 357.234 170.272 365.934 182.191 374.866C188.657 379.712 197.627 383.607 207.722 385.954C210.948 386.704 214.755 387.529 218.44 387.854C209.07 384.555 195.978 369.165 189.875 361.327Z" fill="black"/>
</g>
<path d="M274.344 338.093C274.487 338.151 270.975 347.116 266.5 358.115C262.024 369.118 258.281 377.987 258.137 377.929C257.994 377.871 261.505 368.908 265.982 357.905C270.457 346.906 274.201 338.035 274.344 338.093Z" fill="#263238"/>
<g opacity="0.3">
<path d="M277.055 328.993L260.664 371.715C266.284 365.712 270.517 359.141 272.976 351.294C275.436 343.447 276.705 335.286 277.968 327.161C277.664 327.772 277.36 328.383 277.055 328.993Z" fill="black"/>
</g>
<path d="M281.115 285.07C280.459 285.765 280.055 286.25 280.055 286.25C280.055 286.25 280.461 285.812 281.115 285.07Z" fill="white"/>
<path opacity="0.6" d="M294.964 280.765C291.103 266.955 299.189 251.124 294.363 236.856C292.671 231.857 291.442 228.629 290.575 226.551C291.444 230.885 293.145 236.508 294.148 242.569C295.967 253.561 292.24 268.666 289.159 274.22C286.877 278.334 282.982 282.951 281.116 285.07C283.263 282.797 288.143 278.244 290.7 280.8C294.038 284.138 297.242 298.775 299.686 311.098C302.132 323.421 294.719 349.206 291.939 358.01C289.159 366.815 280.055 389.834 280.055 389.834H280.056C285.158 385.435 288.046 380.249 288.046 380.249C288.046 380.249 296.335 350.988 299.633 340.817C305.927 321.397 298.825 294.574 294.964 280.765Z" fill="white"/>
<g opacity="0.6">
<path d="M281.771 250.234L280.15 251.125C278.209 255.146 275.705 258.896 272.734 262.23C276.949 261.117 280.524 257.83 281.989 253.725C282.401 252.568 282.602 251.136 281.771 250.234Z" fill="white"/>
</g>
<path d="M245.394 212.586L241.328 213.658C241.328 213.658 260.772 226.872 264.45 217.608C267.747 209.305 268.875 206.398 268.875 206.398L251.923 208.647L245.394 212.586Z" fill="#FFBF9D"/>
<path d="M263.89 150.792C264.811 149.13 265.123 143.801 258.064 141.09C253.689 139.409 251.745 142.911 249.903 142.439C245.762 141.375 241.295 140.327 237.305 141.864C235.623 142.513 234.123 143.594 232.401 144.129C229.479 145.039 226.216 144.287 223.328 145.299C219.926 146.492 217.657 150.298 218.227 153.859C214.238 154.311 210.102 154.812 206.685 156.921C203.269 159.029 200.794 163.237 201.989 167.069C198.879 167.758 195.648 168.58 193.261 170.689C190.875 172.8 189.674 176.601 191.442 179.249C192.431 180.732 194.184 181.661 194.891 183.298C195.574 184.882 195.101 186.694 195.091 188.42C195.06 193.964 200.892 198.748 206.322 197.631C206.82 202.282 211.385 206.113 216.053 205.795C217.735 205.68 219.363 205.103 221.048 205.028C223.777 204.907 226.367 206.099 228.883 207.162C231.224 208.153 233.665 209.064 236.206 209.107C238.749 209.151 241.438 208.177 242.861 206.071C246.2 208.908 250.775 210.233 255.113 209.623C259.452 209.013 263.483 206.475 265.91 202.828C269.479 204.815 274.442 203.759 276.893 200.491C279.344 197.222 278.967 192.162 276.059 189.293C278.661 188.217 279.558 184.769 278.729 182.079C277.9 179.389 275.827 177.295 273.825 175.317C275.185 174.911 275.956 173.377 275.922 171.96C275.887 170.541 275.227 169.221 274.533 167.984C271.602 162.757 267.809 158.015 263.354 154.008" fill="#263238"/>
<path d="M219.892 158.738C223.739 151.232 233.834 150.141 242.049 148.229C246.683 147.151 248.816 147.703 252.36 147.885C255.904 148.068 259.313 149.214 261.923 151.619C265.021 154.477 267.828 157.82 269.159 161.819C270.526 165.928 271.091 170.114 271.021 173.678C270.936 178.008 269.465 184.915 267.717 188.877L260.764 191.281C254.876 192.761 248.905 194.25 242.835 194.141C236.765 194.033 230.481 192.132 226.295 187.735C220.481 181.625 216.044 166.244 219.892 158.738Z" fill="#263238"/>
<path d="M233.307 160.702L246.399 151.928L250.233 151.557C258.656 149.774 266.459 157.807 267.982 164.611C269.674 172.171 271.442 181.468 271.441 187.308C271.437 199.054 262.059 202.05 262.059 202.05C262.059 202.05 264.021 211.279 264.904 215.033L244.511 214.896L230.349 165.361C229.977 163.275 231.262 161.252 233.307 160.702Z" fill="#FFBF9D"/>
<path d="M254.038 188.307C253.989 187.699 254.205 187.104 254.547 186.655C255.231 185.757 256.442 185.423 257.473 185.849C258.504 186.275 259.291 187.435 259.376 188.652C259.022 189.453 258.351 190.087 257.514 190.345C257.384 190.384 257.251 190.418 257.116 190.443C256.466 190.566 255.76 190.49 255.164 190.118C254.569 189.746 254.099 189.058 254.038 188.307Z" fill="#FF9A6C"/>
<path d="M258.831 183.366C258.81 183.278 259.766 182.953 261.326 182.495C261.724 182.389 262.093 182.248 262.117 181.963C262.165 181.656 261.928 181.247 261.657 180.809C261.122 179.892 260.563 178.931 259.975 177.923C257.623 173.809 255.852 170.4 256.019 170.308C256.185 170.214 258.227 173.474 260.579 177.587C261.149 178.603 261.694 179.572 262.212 180.499C262.438 180.934 262.783 181.412 262.673 182.051C262.612 182.37 262.35 182.635 262.103 182.747C261.857 182.867 261.63 182.907 261.433 182.951C259.844 183.291 258.851 183.456 258.831 183.366Z" fill="#263238"/>
<path d="M262.075 202.034C262.075 202.034 254.446 203.752 246.082 200.374C246.082 200.374 251.428 207.667 262.726 204.776L262.075 202.034Z" fill="#FF9A6C"/>
<path d="M254.35 185.199C254.604 185.143 254.879 186.859 256.542 187.844C258.201 188.835 260 188.351 260.052 188.589C260.092 188.693 259.697 188.987 258.928 189.13C258.175 189.276 257.03 189.208 256.013 188.606C254.998 188.001 254.455 187.066 254.285 186.371C254.106 185.663 254.231 185.208 254.35 185.199Z" fill="#263238"/>
<path d="M265.586 164.502C265.381 164.93 264.129 164.864 262.733 165.206C261.326 165.503 260.224 166.106 259.858 165.808C259.693 165.66 259.787 165.259 260.217 164.793C260.639 164.33 261.416 163.839 262.38 163.619C263.343 163.4 264.254 163.505 264.831 163.74C265.417 163.976 265.671 164.297 265.586 164.502Z" fill="#263238"/>
<path d="M243.501 169.251C243.881 169.547 245.02 168.938 246.473 168.633C247.918 168.283 249.212 168.342 249.422 167.913C249.512 167.707 249.246 167.388 248.641 167.157C248.043 166.926 247.1 166.825 246.105 167.05C245.109 167.275 244.305 167.769 243.871 168.235C243.426 168.704 243.331 169.104 243.501 169.251Z" fill="#263238"/>
<path d="M236.395 183.969C236.257 183.116 234.952 181.261 234.089 181.262C231.783 181.269 227.757 182.092 228.624 187.813C229.811 195.632 238.215 193.017 238.195 192.792C238.18 192.614 236.869 186.914 236.395 183.969Z" fill="#FFBF9D"/>
<path d="M234.804 190.073C234.765 190.053 234.681 190.189 234.468 190.329C234.258 190.466 233.882 190.596 233.452 190.505C232.579 190.327 231.685 189.121 231.434 187.718C231.306 187.009 231.351 186.308 231.518 185.709C231.671 185.101 231.98 184.645 232.385 184.508C232.785 184.349 233.116 184.555 233.245 184.759C233.384 184.962 233.357 185.126 233.401 185.132C233.426 185.149 233.549 184.976 233.438 184.663C233.382 184.513 233.263 184.342 233.055 184.22C232.845 184.096 232.557 184.059 232.272 184.135C231.675 184.268 231.218 184.905 231.033 185.563C230.817 186.229 230.748 187.018 230.892 187.814C231.181 189.382 232.212 190.734 233.392 190.889C233.964 190.949 234.398 190.713 234.607 190.493C234.818 190.264 234.833 190.084 234.804 190.073Z" fill="#FF9A6C"/>
<path d="M247.008 178.004C247.227 178.199 248.384 177.186 250.135 177.047C251.881 176.882 253.24 177.677 253.412 177.447C253.496 177.345 253.259 176.979 252.667 176.618C252.083 176.258 251.112 175.942 250.022 176.035C248.932 176.131 248.048 176.608 247.555 177.062C247.051 177.519 244.245 176.533 247.008 178.004Z" fill="#263238"/>
<path d="M267.471 173.832C267.332 174.052 266.097 173.475 264.572 173.789C263.045 174.08 262.085 175.093 261.881 174.939C261.783 174.874 261.895 174.503 262.309 174.05C262.717 173.599 263.467 173.09 264.418 172.901C265.369 172.714 266.239 172.901 266.772 173.166C267.313 173.43 269.46 171.898 267.471 173.832Z" fill="#263238"/>
<path d="M257.241 149.836C256.649 149.109 255.705 148.78 254.799 148.544C252.354 147.906 249.814 147.691 247.288 147.684C245.019 147.677 242.702 147.848 240.604 148.713C238.505 149.577 236.636 151.232 235.984 153.406C235.875 153.771 235.811 154.151 235.785 154.534C233.556 154.236 231.16 154.911 229.395 156.343C226.807 158.445 225.535 161.902 225.634 165.236C225.733 168.569 227.081 171.774 228.966 174.524C230.851 177.275 232.479 179.517 234.928 181.781C237.141 182.146 239.665 180.811 239.854 178.474C240.043 176.137 238.906 173.737 236.976 172.405C239.418 170.246 241.439 167.445 242.005 164.235C242.155 163.39 242.182 162.517 242.097 161.655C242.591 161.48 243.064 161.245 243.49 160.938C244.822 159.977 245.696 158.406 245.808 156.766C248.873 157.652 252.298 157.203 255.032 155.557C256.027 154.958 256.96 154.175 257.465 153.129C257.975 152.085 257.975 150.738 257.241 149.836Z" fill="#263238"/>
<path d="M197.793 175.092C197.793 174.983 199.319 175.388 201.84 174.816C203.082 174.517 204.568 173.969 206.007 172.937C207.459 171.941 208.847 170.433 209.746 168.491L209.841 168.286L210.056 168.355C213.164 169.37 217.084 169.392 220.768 167.988C224.342 166.656 227.225 164.198 228.914 161.478L228.997 161.343L229.155 161.357C231.332 161.552 233.377 161.161 235.037 160.466C236.719 159.799 238.028 158.855 239.001 157.981C240.946 156.191 241.556 154.709 241.642 154.77C241.663 154.78 241.512 155.138 241.156 155.767C240.787 156.388 240.175 157.265 239.21 158.204C238.243 159.132 236.921 160.136 235.199 160.857C233.498 161.605 231.383 162.045 229.105 161.864L229.346 161.745C227.624 164.58 224.652 167.139 220.963 168.513C217.163 169.962 213.104 169.922 209.897 168.837L210.206 168.701C209.241 170.734 207.768 172.281 206.246 173.284C204.736 174.323 203.191 174.849 201.905 175.112C200.611 175.369 199.563 175.354 198.861 175.288C198.508 175.26 198.242 175.196 198.063 175.167C197.881 175.13 197.791 175.105 197.793 175.092Z" fill="#455A64"/>
<path d="M232.838 172.798C232.866 172.794 232.969 173.215 232.971 173.999C232.97 174.778 232.842 175.935 232.295 177.248C231.757 178.551 230.756 180.021 229.167 181.088C227.602 182.155 225.485 182.825 223.262 182.615L223.543 182.453C223.413 182.713 223.275 182.991 223.134 183.27C222.054 185.299 220.574 186.96 219.027 188.195C217.487 189.448 215.871 190.256 214.476 190.778C213.072 191.293 211.878 191.515 211.052 191.603C210.224 191.681 209.764 191.668 209.762 191.635C209.743 191.514 211.616 191.507 214.333 190.41C217.006 189.346 220.55 186.961 222.641 183.008C222.777 182.738 222.911 182.471 223.035 182.221L223.126 182.04L223.317 182.059C225.394 182.259 227.394 181.651 228.886 180.667C230.4 179.686 231.38 178.324 231.943 177.094C233.063 174.577 232.711 172.778 232.838 172.798Z" fill="#455A64"/>
<path d="M231.441 195.545C231.507 195.548 231.56 196.019 231.382 196.754C231.208 197.486 230.746 198.462 229.941 199.301C229.132 200.137 228.173 200.635 227.449 200.835C226.721 201.042 226.248 201.004 226.243 200.94C226.201 200.779 228.048 200.497 229.539 198.913C231.065 197.366 231.279 195.509 231.441 195.545Z" fill="#455A64"/>
<path opacity="0.6" d="M262.074 202.034C262.074 202.034 266.322 200.299 268.874 194.146C271.426 187.993 271.026 183.138 271.026 183.138C271.026 183.138 272.023 191.373 269.481 195.543C266.016 201.23 262.074 202.034 262.074 202.034Z" fill="white"/>
<path opacity="0.6" d="M278.731 182.08C277.902 179.389 275.829 177.296 273.827 175.318C275.187 174.912 275.958 173.378 275.924 171.961C275.889 170.542 275.229 169.222 274.535 167.985C273.545 166.219 272.448 164.515 271.27 162.869C271.747 163.662 275.45 169.944 274.283 171.959C273.036 174.113 271.027 174.452 271.027 174.452C271.027 174.452 278.476 180.709 277.683 184.097C276.889 187.484 273.83 187.498 273.83 187.498C273.83 187.498 277.576 191.255 277.743 194.963C277.877 197.94 275.636 201.256 274.746 202.451C275.571 201.933 276.308 201.279 276.898 200.492C279.349 197.224 278.972 192.164 276.064 189.295C278.661 188.218 279.56 184.77 278.731 182.08Z" fill="white"/>
</svg>
