<svg width="154" height="52" viewBox="0 0 154 52" fill="none" xmlns="http://www.w3.org/2000/svg">
<rect x="0.5" y="0.5" width="153" height="51" rx="9.5" fill="white"/>
<rect x="0.5" y="0.5" width="153" height="51" rx="9.5" stroke="#212529"/>
<path d="M32.0454 25.4221C32.0747 23.1834 33.2977 21.0652 35.2378 19.8926C34.0139 18.1742 31.9639 17.0847 29.8311 17.0191C27.5563 16.7844 25.3509 18.3573 24.1917 18.3573C23.0101 18.3573 21.2253 17.0424 19.3034 17.0813C16.7983 17.1609 14.4629 18.561 13.2441 20.7141C10.6242 25.1734 12.5784 31.727 15.0881 35.3315C16.3437 37.0965 17.8112 39.0681 19.7314 38.9982C21.6104 38.9216 22.3122 37.8203 24.5803 37.8203C26.8273 37.8203 27.4857 38.9982 29.4449 38.9537C31.4611 38.9216 32.7315 37.1809 33.9431 35.3991C34.8452 34.1415 35.5394 32.7515 36 31.2807C33.6305 30.2955 32.0482 27.9513 32.0454 25.4221Z" fill="#212529"/>
<path d="M28.3449 14.6486C29.4443 13.3512 29.9859 11.6836 29.8547 10C28.1752 10.1734 26.6237 10.9626 25.5095 12.2102C24.42 13.4292 23.853 15.0674 23.9602 16.6867C25.6403 16.7037 27.2921 15.936 28.3449 14.6486Z" fill="#212529"/>
<path d="M48.245 20C48.135 20 48.047 19.9743 47.981 19.923C47.9223 19.8717 47.8747 19.802 47.838 19.714L45.385 12.641C45.3703 12.597 45.363 12.5567 45.363 12.52C45.363 12.4613 45.385 12.41 45.429 12.366C45.473 12.322 45.5243 12.3 45.583 12.3H46.155C46.243 12.3 46.309 12.3257 46.353 12.377C46.4043 12.421 46.4337 12.4613 46.441 12.498L48.597 18.735L50.753 12.498C50.7677 12.4613 50.797 12.421 50.841 12.377C50.885 12.3257 50.951 12.3 51.039 12.3H51.611C51.6697 12.3 51.721 12.322 51.765 12.366C51.8163 12.41 51.842 12.4613 51.842 12.52C51.842 12.5567 51.8347 12.597 51.82 12.641L49.356 19.714C49.3267 19.802 49.279 19.8717 49.213 19.923C49.1543 19.9743 49.07 20 48.96 20H48.245ZM53.4546 20C53.3813 20 53.319 19.978 53.2676 19.934C53.2236 19.8827 53.2016 19.8203 53.2016 19.747V14.533C53.2016 14.4597 53.2236 14.401 53.2676 14.357C53.319 14.3057 53.3813 14.28 53.4546 14.28H53.9826C54.056 14.28 54.1146 14.3057 54.1586 14.357C54.2026 14.401 54.2246 14.4597 54.2246 14.533V19.747C54.2246 19.8203 54.2026 19.8827 54.1586 19.934C54.1146 19.978 54.056 20 53.9826 20H53.4546ZM53.3666 13.213C53.2933 13.213 53.231 13.191 53.1796 13.147C53.1356 13.0957 53.1136 13.0333 53.1136 12.96V12.366C53.1136 12.2927 53.1356 12.234 53.1796 12.19C53.231 12.1387 53.2933 12.113 53.3666 12.113H54.0596C54.133 12.113 54.1916 12.1387 54.2356 12.19C54.287 12.234 54.3126 12.2927 54.3126 12.366V12.96C54.3126 13.0333 54.287 13.0957 54.2356 13.147C54.1916 13.191 54.133 13.213 54.0596 13.213H53.3666ZM58.2401 20.11C57.8295 20.11 57.4775 20.0587 57.1841 19.956C56.8908 19.8533 56.6525 19.7287 56.4691 19.582C56.2858 19.4353 56.1465 19.2887 56.0511 19.142C55.9631 18.9953 55.9155 18.878 55.9081 18.79C55.9008 18.7093 55.9265 18.647 55.9851 18.603C56.0438 18.559 56.1025 18.537 56.1611 18.537H56.6451C56.6891 18.537 56.7221 18.5443 56.7441 18.559C56.7735 18.5663 56.8101 18.5957 56.8541 18.647C56.9495 18.7497 57.0558 18.8523 57.1731 18.955C57.2905 19.0577 57.4335 19.142 57.6021 19.208C57.7781 19.274 57.9945 19.307 58.2511 19.307C58.6251 19.307 58.9331 19.2373 59.1751 19.098C59.4171 18.9513 59.5381 18.7387 59.5381 18.46C59.5381 18.2767 59.4868 18.13 59.3841 18.02C59.2888 17.91 59.1128 17.811 58.8561 17.723C58.6068 17.635 58.2621 17.5433 57.8221 17.448C57.3821 17.3453 57.0338 17.2207 56.7771 17.074C56.5205 16.92 56.3371 16.7403 56.2271 16.535C56.1171 16.3223 56.0621 16.084 56.0621 15.82C56.0621 15.5487 56.1428 15.2883 56.3041 15.039C56.4655 14.7823 56.7001 14.5733 57.0081 14.412C57.3235 14.2507 57.7158 14.17 58.1851 14.17C58.5665 14.17 58.8928 14.2177 59.1641 14.313C59.4355 14.4083 59.6591 14.5293 59.8351 14.676C60.0111 14.8153 60.1431 14.9547 60.2311 15.094C60.3191 15.2333 60.3668 15.3507 60.3741 15.446C60.3815 15.5193 60.3595 15.5817 60.3081 15.633C60.2568 15.677 60.1981 15.699 60.1321 15.699H59.6701C59.6188 15.699 59.5748 15.688 59.5381 15.666C59.5088 15.644 59.4795 15.6183 59.4501 15.589C59.3768 15.4937 59.2888 15.3983 59.1861 15.303C59.0908 15.2077 58.9625 15.1307 58.8011 15.072C58.6471 15.006 58.4418 14.973 58.1851 14.973C57.8185 14.973 57.5435 15.05 57.3601 15.204C57.1768 15.358 57.0851 15.5523 57.0851 15.787C57.0851 15.9263 57.1255 16.051 57.2061 16.161C57.2868 16.271 57.4408 16.37 57.6681 16.458C57.8955 16.546 58.2328 16.6413 58.6801 16.744C59.1641 16.8393 59.5455 16.9677 59.8241 17.129C60.1028 17.2903 60.3008 17.4773 60.4181 17.69C60.5355 17.9027 60.5941 18.1483 60.5941 18.427C60.5941 18.735 60.5025 19.0173 60.3191 19.274C60.1431 19.5307 59.8791 19.736 59.5271 19.89C59.1825 20.0367 58.7535 20.11 58.2401 20.11ZM62.4506 20C62.3772 20 62.3149 19.978 62.2636 19.934C62.2196 19.8827 62.1976 19.8203 62.1976 19.747V14.533C62.1976 14.4597 62.2196 14.401 62.2636 14.357C62.3149 14.3057 62.3772 14.28 62.4506 14.28H62.9786C63.0519 14.28 63.1106 14.3057 63.1546 14.357C63.1986 14.401 63.2206 14.4597 63.2206 14.533V19.747C63.2206 19.8203 63.1986 19.8827 63.1546 19.934C63.1106 19.978 63.0519 20 62.9786 20H62.4506ZM62.3626 13.213C62.2892 13.213 62.2269 13.191 62.1756 13.147C62.1316 13.0957 62.1096 13.0333 62.1096 12.96V12.366C62.1096 12.2927 62.1316 12.234 62.1756 12.19C62.2269 12.1387 62.2892 12.113 62.3626 12.113H63.0556C63.1289 12.113 63.1876 12.1387 63.2316 12.19C63.2829 12.234 63.3086 12.2927 63.3086 12.366V12.96C63.3086 13.0333 63.2829 13.0957 63.2316 13.147C63.1876 13.191 63.1289 13.213 63.0556 13.213H62.3626ZM67.4246 20C67.014 20 66.6803 19.923 66.4236 19.769C66.167 19.6077 65.98 19.384 65.8626 19.098C65.7453 18.8047 65.6866 18.46 65.6866 18.064V15.16H64.8286C64.7553 15.16 64.693 15.138 64.6416 15.094C64.5976 15.0427 64.5756 14.9803 64.5756 14.907V14.533C64.5756 14.4597 64.5976 14.401 64.6416 14.357C64.693 14.3057 64.7553 14.28 64.8286 14.28H65.6866V12.443C65.6866 12.3697 65.7086 12.311 65.7526 12.267C65.804 12.2157 65.8663 12.19 65.9396 12.19H66.4566C66.53 12.19 66.5886 12.2157 66.6326 12.267C66.684 12.311 66.7096 12.3697 66.7096 12.443V14.28H68.0736C68.147 14.28 68.2056 14.3057 68.2496 14.357C68.301 14.401 68.3266 14.4597 68.3266 14.533V14.907C68.3266 14.9803 68.301 15.0427 68.2496 15.094C68.2056 15.138 68.147 15.16 68.0736 15.16H66.7096V17.987C66.7096 18.3317 66.7683 18.603 66.8856 18.801C67.003 18.999 67.212 19.098 67.5126 19.098H68.1836C68.257 19.098 68.3156 19.1237 68.3596 19.175C68.411 19.219 68.4366 19.2777 68.4366 19.351V19.747C68.4366 19.8203 68.411 19.8827 68.3596 19.934C68.3156 19.978 68.257 20 68.1836 20H67.4246ZM72.0955 20.11C71.3402 20.11 70.7388 19.879 70.2915 19.417C69.8442 18.9477 69.5985 18.3097 69.5545 17.503C69.5472 17.4077 69.5435 17.2867 69.5435 17.14C69.5435 16.986 69.5472 16.8613 69.5545 16.766C69.5838 16.2453 69.7048 15.7907 69.9175 15.402C70.1302 15.006 70.4198 14.7017 70.7865 14.489C71.1605 14.2763 71.5968 14.17 72.0955 14.17C72.6528 14.17 73.1185 14.2873 73.4925 14.522C73.8738 14.7567 74.1635 15.0903 74.3615 15.523C74.5595 15.9557 74.6585 16.4617 74.6585 17.041V17.228C74.6585 17.3087 74.6328 17.371 74.5815 17.415C74.5375 17.459 74.4788 17.481 74.4055 17.481H70.5995C70.5995 17.4883 70.5995 17.503 70.5995 17.525C70.5995 17.547 70.5995 17.5653 70.5995 17.58C70.6142 17.8807 70.6802 18.163 70.7975 18.427C70.9148 18.6837 71.0835 18.8927 71.3035 19.054C71.5235 19.2153 71.7875 19.296 72.0955 19.296C72.3595 19.296 72.5795 19.2557 72.7555 19.175C72.9315 19.0943 73.0745 19.0063 73.1845 18.911C73.2945 18.8083 73.3678 18.7313 73.4045 18.68C73.4705 18.5847 73.5218 18.5297 73.5585 18.515C73.5952 18.493 73.6538 18.482 73.7345 18.482H74.2625C74.3358 18.482 74.3945 18.504 74.4385 18.548C74.4898 18.5847 74.5118 18.6397 74.5045 18.713C74.4972 18.823 74.4385 18.9587 74.3285 19.12C74.2185 19.274 74.0608 19.428 73.8555 19.582C73.6502 19.736 73.4008 19.8643 73.1075 19.967C72.8142 20.0623 72.4768 20.11 72.0955 20.11ZM70.5995 16.722H73.6135V16.689C73.6135 16.359 73.5512 16.0657 73.4265 15.809C73.3092 15.5523 73.1368 15.3507 72.9095 15.204C72.6822 15.05 72.4108 14.973 72.0955 14.973C71.7802 14.973 71.5088 15.05 71.2815 15.204C71.0615 15.3507 70.8928 15.5523 70.7755 15.809C70.6582 16.0657 70.5995 16.359 70.5995 16.689V16.722ZM76.183 20C76.1097 20 76.0474 19.978 75.996 19.934C75.952 19.8827 75.93 19.8203 75.93 19.747V19.362C75.93 19.296 75.9447 19.2337 75.974 19.175C76.0107 19.1163 76.0474 19.0613 76.084 19.01L79.12 15.149H76.282C76.2087 15.149 76.1464 15.127 76.095 15.083C76.051 15.039 76.029 14.9767 76.029 14.896V14.533C76.029 14.4597 76.051 14.401 76.095 14.357C76.1464 14.3057 76.2087 14.28 76.282 14.28H80.198C80.2714 14.28 80.33 14.3057 80.374 14.357C80.4254 14.401 80.451 14.4597 80.451 14.533V14.94C80.451 15.006 80.4327 15.0647 80.396 15.116C80.3667 15.1673 80.3337 15.2223 80.297 15.281L77.294 19.131H80.418C80.4914 19.131 80.55 19.153 80.594 19.197C80.6454 19.241 80.671 19.3033 80.671 19.384V19.747C80.671 19.8203 80.6454 19.8827 80.594 19.934C80.55 19.978 80.4914 20 80.418 20H76.183ZM82.1384 17.162C82.0651 17.162 82.0027 17.14 81.9514 17.096C81.9074 17.0447 81.8854 16.9823 81.8854 16.909V16.491C81.8854 16.4177 81.9074 16.359 81.9514 16.315C82.0027 16.2637 82.0651 16.238 82.1384 16.238H85.4384C85.5117 16.238 85.5704 16.2637 85.6144 16.315C85.6657 16.359 85.6914 16.4177 85.6914 16.491V16.909C85.6914 16.9823 85.6657 17.0447 85.6144 17.096C85.5704 17.14 85.5117 17.162 85.4384 17.162H82.1384ZM87.8515 20C87.7782 20 87.7159 19.978 87.6645 19.934C87.6205 19.8827 87.5985 19.8203 87.5985 19.747V14.533C87.5985 14.4597 87.6205 14.401 87.6645 14.357C87.7159 14.3057 87.7782 14.28 87.8515 14.28H88.3685C88.4419 14.28 88.5005 14.3057 88.5445 14.357C88.5959 14.401 88.6215 14.4597 88.6215 14.533V15.017C88.8122 14.7677 89.0505 14.566 89.3365 14.412C89.6299 14.2507 90.0039 14.17 90.4585 14.17C90.9352 14.17 91.3385 14.2763 91.6685 14.489C92.0059 14.6943 92.2589 14.984 92.4275 15.358C92.5962 15.7247 92.6805 16.1537 92.6805 16.645V19.747C92.6805 19.8203 92.6585 19.8827 92.6145 19.934C92.5705 19.978 92.5119 20 92.4385 20H91.8885C91.8152 20 91.7529 19.978 91.7015 19.934C91.6575 19.8827 91.6355 19.8203 91.6355 19.747V16.7C91.6355 16.1867 91.5109 15.787 91.2615 15.501C91.0122 15.2077 90.6455 15.061 90.1615 15.061C89.7069 15.061 89.3402 15.2077 89.0615 15.501C88.7902 15.787 88.6545 16.1867 88.6545 16.7V19.747C88.6545 19.8203 88.6289 19.8827 88.5775 19.934C88.5335 19.978 88.4749 20 88.4015 20H87.8515ZM96.9424 20.11C96.3851 20.11 95.9194 20.0037 95.5454 19.791C95.1714 19.5783 94.8854 19.285 94.6874 18.911C94.4894 18.5297 94.3794 18.097 94.3574 17.613C94.3501 17.4883 94.3464 17.3307 94.3464 17.14C94.3464 16.942 94.3501 16.7843 94.3574 16.667C94.3794 16.1757 94.4894 15.743 94.6874 15.369C94.8928 14.995 95.1824 14.7017 95.5564 14.489C95.9304 14.2763 96.3924 14.17 96.9424 14.17C97.4924 14.17 97.9544 14.2763 98.3284 14.489C98.7024 14.7017 98.9884 14.995 99.1864 15.369C99.3918 15.743 99.5054 16.1757 99.5274 16.667C99.5348 16.7843 99.5384 16.942 99.5384 17.14C99.5384 17.3307 99.5348 17.4883 99.5274 17.613C99.5054 18.097 99.3954 18.5297 99.1974 18.911C98.9994 19.285 98.7134 19.5783 98.3394 19.791C97.9654 20.0037 97.4998 20.11 96.9424 20.11ZM96.9424 19.263C97.3971 19.263 97.7601 19.12 98.0314 18.834C98.3028 18.5407 98.4494 18.1153 98.4714 17.558C98.4788 17.448 98.4824 17.3087 98.4824 17.14C98.4824 16.9713 98.4788 16.832 98.4714 16.722C98.4494 16.1647 98.3028 15.743 98.0314 15.457C97.7601 15.1637 97.3971 15.017 96.9424 15.017C96.4878 15.017 96.1211 15.1637 95.8424 15.457C95.5711 15.743 95.4281 16.1647 95.4134 16.722C95.4061 16.832 95.4024 16.9713 95.4024 17.14C95.4024 17.3087 95.4061 17.448 95.4134 17.558C95.4281 18.1153 95.5711 18.5407 95.8424 18.834C96.1211 19.12 96.4878 19.263 96.9424 19.263ZM103.38 20.11C102.911 20.11 102.511 20.0073 102.181 19.802C101.858 19.5893 101.613 19.296 101.444 18.922C101.275 18.548 101.191 18.119 101.191 17.635V14.533C101.191 14.4597 101.213 14.401 101.257 14.357C101.308 14.3057 101.371 14.28 101.444 14.28H101.994C102.067 14.28 102.126 14.3057 102.17 14.357C102.221 14.401 102.247 14.4597 102.247 14.533V17.58C102.247 18.6727 102.724 19.219 103.677 19.219C104.132 19.219 104.495 19.076 104.766 18.79C105.045 18.4967 105.184 18.0933 105.184 17.58V14.533C105.184 14.4597 105.206 14.401 105.25 14.357C105.301 14.3057 105.364 14.28 105.437 14.28H105.976C106.057 14.28 106.119 14.3057 106.163 14.357C106.207 14.401 106.229 14.4597 106.229 14.533V19.747C106.229 19.8203 106.207 19.8827 106.163 19.934C106.119 19.978 106.057 20 105.976 20H105.47C105.397 20 105.334 19.978 105.283 19.934C105.239 19.8827 105.217 19.8203 105.217 19.747V19.263C105.019 19.5197 104.777 19.725 104.491 19.879C104.212 20.033 103.842 20.11 103.38 20.11ZM110.173 20.11C109.762 20.11 109.41 20.0587 109.117 19.956C108.824 19.8533 108.585 19.7287 108.402 19.582C108.219 19.4353 108.079 19.2887 107.984 19.142C107.896 18.9953 107.848 18.878 107.841 18.79C107.834 18.7093 107.859 18.647 107.918 18.603C107.977 18.559 108.035 18.537 108.094 18.537H108.578C108.622 18.537 108.655 18.5443 108.677 18.559C108.706 18.5663 108.743 18.5957 108.787 18.647C108.882 18.7497 108.989 18.8523 109.106 18.955C109.223 19.0577 109.366 19.142 109.535 19.208C109.711 19.274 109.927 19.307 110.184 19.307C110.558 19.307 110.866 19.2373 111.108 19.098C111.35 18.9513 111.471 18.7387 111.471 18.46C111.471 18.2767 111.42 18.13 111.317 18.02C111.222 17.91 111.046 17.811 110.789 17.723C110.54 17.635 110.195 17.5433 109.755 17.448C109.315 17.3453 108.967 17.2207 108.71 17.074C108.453 16.92 108.27 16.7403 108.16 16.535C108.05 16.3223 107.995 16.084 107.995 15.82C107.995 15.5487 108.076 15.2883 108.237 15.039C108.398 14.7823 108.633 14.5733 108.941 14.412C109.256 14.2507 109.649 14.17 110.118 14.17C110.499 14.17 110.826 14.2177 111.097 14.313C111.368 14.4083 111.592 14.5293 111.768 14.676C111.944 14.8153 112.076 14.9547 112.164 15.094C112.252 15.2333 112.3 15.3507 112.307 15.446C112.314 15.5193 112.292 15.5817 112.241 15.633C112.19 15.677 112.131 15.699 112.065 15.699H111.603C111.552 15.699 111.508 15.688 111.471 15.666C111.442 15.644 111.412 15.6183 111.383 15.589C111.31 15.4937 111.222 15.3983 111.119 15.303C111.024 15.2077 110.895 15.1307 110.734 15.072C110.58 15.006 110.375 14.973 110.118 14.973C109.751 14.973 109.476 15.05 109.293 15.204C109.11 15.358 109.018 15.5523 109.018 15.787C109.018 15.9263 109.058 16.051 109.139 16.161C109.22 16.271 109.374 16.37 109.601 16.458C109.828 16.546 110.166 16.6413 110.613 16.744C111.097 16.8393 111.478 16.9677 111.757 17.129C112.036 17.2903 112.234 17.4773 112.351 17.69C112.468 17.9027 112.527 18.1483 112.527 18.427C112.527 18.735 112.435 19.0173 112.252 19.274C112.076 19.5307 111.812 19.736 111.46 19.89C111.115 20.0367 110.686 20.11 110.173 20.11ZM119.137 20.11C118.726 20.11 118.374 20.0587 118.081 19.956C117.787 19.8533 117.549 19.7287 117.366 19.582C117.182 19.4353 117.043 19.2887 116.948 19.142C116.86 18.9953 116.812 18.878 116.805 18.79C116.797 18.7093 116.823 18.647 116.882 18.603C116.94 18.559 116.999 18.537 117.058 18.537H117.542C117.586 18.537 117.619 18.5443 117.641 18.559C117.67 18.5663 117.707 18.5957 117.751 18.647C117.846 18.7497 117.952 18.8523 118.07 18.955C118.187 19.0577 118.33 19.142 118.499 19.208C118.675 19.274 118.891 19.307 119.148 19.307C119.522 19.307 119.83 19.2373 120.072 19.098C120.314 18.9513 120.435 18.7387 120.435 18.46C120.435 18.2767 120.383 18.13 120.281 18.02C120.185 17.91 120.009 17.811 119.753 17.723C119.503 17.635 119.159 17.5433 118.719 17.448C118.279 17.3453 117.93 17.2207 117.674 17.074C117.417 16.92 117.234 16.7403 117.124 16.535C117.014 16.3223 116.959 16.084 116.959 15.82C116.959 15.5487 117.039 15.2883 117.201 15.039C117.362 14.7823 117.597 14.5733 117.905 14.412C118.22 14.2507 118.612 14.17 119.082 14.17C119.463 14.17 119.789 14.2177 120.061 14.313C120.332 14.4083 120.556 14.5293 120.732 14.676C120.908 14.8153 121.04 14.9547 121.128 15.094C121.216 15.2333 121.263 15.3507 121.271 15.446C121.278 15.5193 121.256 15.5817 121.205 15.633C121.153 15.677 121.095 15.699 121.029 15.699H120.567C120.515 15.699 120.471 15.688 120.435 15.666C120.405 15.644 120.376 15.6183 120.347 15.589C120.273 15.4937 120.185 15.3983 120.083 15.303C119.987 15.2077 119.859 15.1307 119.698 15.072C119.544 15.006 119.338 14.973 119.082 14.973C118.715 14.973 118.44 15.05 118.257 15.204C118.073 15.358 117.982 15.5523 117.982 15.787C117.982 15.9263 118.022 16.051 118.103 16.161C118.183 16.271 118.337 16.37 118.565 16.458C118.792 16.546 119.129 16.6413 119.577 16.744C120.061 16.8393 120.442 16.9677 120.721 17.129C120.999 17.2903 121.197 17.4773 121.315 17.69C121.432 17.9027 121.491 18.1483 121.491 18.427C121.491 18.735 121.399 19.0173 121.216 19.274C121.04 19.5307 120.776 19.736 120.424 19.89C120.079 20.0367 119.65 20.11 119.137 20.11ZM125.228 20.11C124.759 20.11 124.359 20.0073 124.029 19.802C123.706 19.5893 123.461 19.296 123.292 18.922C123.123 18.548 123.039 18.119 123.039 17.635V14.533C123.039 14.4597 123.061 14.401 123.105 14.357C123.156 14.3057 123.219 14.28 123.292 14.28H123.842C123.915 14.28 123.974 14.3057 124.018 14.357C124.069 14.401 124.095 14.4597 124.095 14.533V17.58C124.095 18.6727 124.572 19.219 125.525 19.219C125.98 19.219 126.343 19.076 126.614 18.79C126.893 18.4967 127.032 18.0933 127.032 17.58V14.533C127.032 14.4597 127.054 14.401 127.098 14.357C127.149 14.3057 127.212 14.28 127.285 14.28H127.824C127.905 14.28 127.967 14.3057 128.011 14.357C128.055 14.401 128.077 14.4597 128.077 14.533V19.747C128.077 19.8203 128.055 19.8827 128.011 19.934C127.967 19.978 127.905 20 127.824 20H127.318C127.245 20 127.182 19.978 127.131 19.934C127.087 19.8827 127.065 19.8203 127.065 19.747V19.263C126.867 19.5197 126.625 19.725 126.339 19.879C126.06 20.033 125.69 20.11 125.228 20.11ZM130.294 20C130.221 20 130.159 19.978 130.107 19.934C130.063 19.8827 130.041 19.8203 130.041 19.747V14.544C130.041 14.4707 130.063 14.4083 130.107 14.357C130.159 14.3057 130.221 14.28 130.294 14.28H130.8C130.874 14.28 130.936 14.3057 130.987 14.357C131.039 14.4083 131.064 14.4707 131.064 14.544V15.028C131.211 14.7787 131.413 14.5917 131.669 14.467C131.926 14.3423 132.234 14.28 132.593 14.28H133.033C133.107 14.28 133.165 14.3057 133.209 14.357C133.253 14.401 133.275 14.4597 133.275 14.533V14.984C133.275 15.0573 133.253 15.116 133.209 15.16C133.165 15.204 133.107 15.226 133.033 15.226H132.373C131.977 15.226 131.666 15.3433 131.438 15.578C131.211 15.8053 131.097 16.117 131.097 16.513V19.747C131.097 19.8203 131.072 19.8827 131.02 19.934C130.969 19.978 130.907 20 130.833 20H130.294Z" fill="#212529"/>
<path d="M45.88 40C45.7627 40 45.66 39.956 45.572 39.868C45.484 39.78 45.44 39.6773 45.44 39.56C45.44 39.4867 45.4473 39.406 45.462 39.318L50.918 25.084C50.9767 24.9373 51.0573 24.82 51.16 24.732C51.2627 24.644 51.4167 24.6 51.622 24.6H53.118C53.3087 24.6 53.4553 24.644 53.558 24.732C53.6753 24.82 53.7633 24.9373 53.822 25.084L59.256 39.318C59.2853 39.406 59.3 39.4867 59.3 39.56C59.3 39.6773 59.256 39.78 59.168 39.868C59.08 39.956 58.9773 40 58.86 40H57.738C57.562 40 57.43 39.956 57.342 39.868C57.2687 39.78 57.2173 39.6993 57.188 39.626L55.978 36.502H48.762L47.552 39.626C47.5373 39.6993 47.486 39.78 47.398 39.868C47.31 39.956 47.178 40 47.002 40H45.88ZM49.4 34.61H55.34L52.37 26.8L49.4 34.61ZM61.2343 44.18C61.0876 44.18 60.9629 44.1287 60.8603 44.026C60.7723 43.938 60.7283 43.8207 60.7283 43.674V29.066C60.7283 28.9193 60.7723 28.802 60.8603 28.714C60.9629 28.6113 61.0876 28.56 61.2343 28.56H62.2463C62.3929 28.56 62.5103 28.6113 62.5983 28.714C62.7009 28.802 62.7523 28.9193 62.7523 29.066V30.034C63.1043 29.55 63.5736 29.1467 64.1603 28.824C64.7469 28.5013 65.4803 28.34 66.3603 28.34C67.1816 28.34 67.8783 28.4793 68.4503 28.758C69.0369 29.0367 69.5136 29.418 69.8803 29.902C70.2616 30.386 70.5476 30.936 70.7383 31.552C70.9289 32.168 71.0316 32.828 71.0463 33.532C71.0609 33.7667 71.0683 34.016 71.0683 34.28C71.0683 34.544 71.0609 34.7933 71.0463 35.028C71.0316 35.7173 70.9289 36.3773 70.7383 37.008C70.5476 37.624 70.2616 38.174 69.8803 38.658C69.5136 39.1273 69.0369 39.5087 68.4503 39.802C67.8783 40.0807 67.1816 40.22 66.3603 40.22C65.5096 40.22 64.7909 40.066 64.2043 39.758C63.6323 39.4353 63.1629 39.0393 62.7963 38.57V43.674C62.7963 43.8207 62.7523 43.938 62.6643 44.026C62.5763 44.1287 62.4516 44.18 62.2903 44.18H61.2343ZM65.8983 38.438C66.6609 38.438 67.2549 38.2767 67.6803 37.954C68.1203 37.6167 68.4356 37.184 68.6263 36.656C68.8169 36.1133 68.9269 35.534 68.9563 34.918C68.9709 34.4927 68.9709 34.0673 68.9563 33.642C68.9269 33.026 68.8169 32.454 68.6263 31.926C68.4356 31.3833 68.1203 30.9507 67.6803 30.628C67.2549 30.2907 66.6609 30.122 65.8983 30.122C65.1796 30.122 64.5929 30.2907 64.1383 30.628C63.6983 30.9653 63.3683 31.398 63.1483 31.926C62.9429 32.4393 62.8256 32.9673 62.7963 33.51C62.7816 33.7447 62.7743 34.0233 62.7743 34.346C62.7743 34.6687 62.7816 34.9547 62.7963 35.204C62.8109 35.7173 62.9283 36.2233 63.1483 36.722C63.3829 37.2207 63.7276 37.6313 64.1823 37.954C64.6369 38.2767 65.2089 38.438 65.8983 38.438ZM73.6798 44.18C73.5331 44.18 73.4084 44.1287 73.3058 44.026C73.2178 43.938 73.1738 43.8207 73.1738 43.674V29.066C73.1738 28.9193 73.2178 28.802 73.3058 28.714C73.4084 28.6113 73.5331 28.56 73.6798 28.56H74.6918C74.8384 28.56 74.9558 28.6113 75.0438 28.714C75.1464 28.802 75.1978 28.9193 75.1978 29.066V30.034C75.5498 29.55 76.0191 29.1467 76.6058 28.824C77.1924 28.5013 77.9258 28.34 78.8058 28.34C79.6271 28.34 80.3238 28.4793 80.8958 28.758C81.4824 29.0367 81.9591 29.418 82.3258 29.902C82.7071 30.386 82.9931 30.936 83.1838 31.552C83.3744 32.168 83.4771 32.828 83.4918 33.532C83.5064 33.7667 83.5138 34.016 83.5138 34.28C83.5138 34.544 83.5064 34.7933 83.4918 35.028C83.4771 35.7173 83.3744 36.3773 83.1838 37.008C82.9931 37.624 82.7071 38.174 82.3258 38.658C81.9591 39.1273 81.4824 39.5087 80.8958 39.802C80.3238 40.0807 79.6271 40.22 78.8058 40.22C77.9551 40.22 77.2364 40.066 76.6498 39.758C76.0778 39.4353 75.6084 39.0393 75.2418 38.57V43.674C75.2418 43.8207 75.1978 43.938 75.1098 44.026C75.0218 44.1287 74.8971 44.18 74.7358 44.18H73.6798ZM78.3438 38.438C79.1064 38.438 79.7004 38.2767 80.1258 37.954C80.5658 37.6167 80.8811 37.184 81.0718 36.656C81.2624 36.1133 81.3724 35.534 81.4018 34.918C81.4164 34.4927 81.4164 34.0673 81.4018 33.642C81.3724 33.026 81.2624 32.454 81.0718 31.926C80.8811 31.3833 80.5658 30.9507 80.1258 30.628C79.7004 30.2907 79.1064 30.122 78.3438 30.122C77.6251 30.122 77.0384 30.2907 76.5838 30.628C76.1438 30.9653 75.8138 31.398 75.5938 31.926C75.3884 32.4393 75.2711 32.9673 75.2418 33.51C75.2271 33.7447 75.2198 34.0233 75.2198 34.346C75.2198 34.6687 75.2271 34.9547 75.2418 35.204C75.2564 35.7173 75.3738 36.2233 75.5938 36.722C75.8284 37.2207 76.1731 37.6313 76.6278 37.954C77.0824 38.2767 77.6544 38.438 78.3438 38.438ZM95.5658 40.22C94.2898 40.22 93.2191 40.0293 92.3538 39.648C91.4885 39.252 90.8211 38.746 90.3518 38.13C89.8971 37.4993 89.6551 36.832 89.6258 36.128C89.6258 36.0107 89.6698 35.908 89.7578 35.82C89.8605 35.7173 89.9778 35.666 90.1098 35.666H91.2318C91.4078 35.666 91.5398 35.71 91.6278 35.798C91.7158 35.886 91.7745 35.9887 91.8038 36.106C91.8771 36.458 92.0531 36.81 92.3318 37.162C92.6251 37.4993 93.0285 37.7853 93.5418 38.02C94.0698 38.24 94.7445 38.35 95.5658 38.35C96.8271 38.35 97.7511 38.13 98.3378 37.69C98.9391 37.2353 99.2398 36.634 99.2398 35.886C99.2398 35.3727 99.0785 34.962 98.7558 34.654C98.4478 34.3313 97.9711 34.0453 97.3258 33.796C96.6805 33.5467 95.8445 33.2753 94.8178 32.982C93.7471 32.674 92.8598 32.3367 92.1558 31.97C91.4518 31.6033 90.9238 31.1487 90.5718 30.606C90.2345 30.0633 90.0658 29.374 90.0658 28.538C90.0658 27.746 90.2785 27.042 90.7038 26.426C91.1291 25.7953 91.7378 25.2967 92.5298 24.93C93.3365 24.5633 94.3118 24.38 95.4558 24.38C96.3651 24.38 97.1571 24.5047 97.8318 24.754C98.5211 24.9887 99.0931 25.3113 99.5478 25.722C100.002 26.118 100.347 26.5507 100.582 27.02C100.816 27.4747 100.941 27.922 100.956 28.362C100.956 28.4647 100.919 28.5673 100.846 28.67C100.772 28.758 100.655 28.802 100.494 28.802H99.3278C99.2251 28.802 99.1151 28.7727 98.9978 28.714C98.8951 28.6553 98.8145 28.5453 98.7558 28.384C98.6678 27.7827 98.3305 27.2767 97.7438 26.866C97.1571 26.4553 96.3945 26.25 95.4558 26.25C94.5025 26.25 93.7251 26.4333 93.1238 26.8C92.5371 27.1667 92.2438 27.7387 92.2438 28.516C92.2438 29.0147 92.3831 29.4327 92.6618 29.77C92.9405 30.0927 93.3805 30.3787 93.9818 30.628C94.5831 30.8773 95.3678 31.1413 96.3358 31.42C97.5091 31.7427 98.4698 32.0873 99.2178 32.454C99.9658 32.806 100.516 33.2533 100.868 33.796C101.234 34.324 101.418 35.006 101.418 35.842C101.418 36.766 101.176 37.558 100.692 38.218C100.208 38.8633 99.5258 39.362 98.6458 39.714C97.7805 40.0513 96.7538 40.22 95.5658 40.22ZM107.821 40C107 40 106.333 39.846 105.819 39.538C105.306 39.2153 104.932 38.768 104.697 38.196C104.463 37.6093 104.345 36.92 104.345 36.128V30.32H102.629C102.483 30.32 102.358 30.276 102.255 30.188C102.167 30.0853 102.123 29.9607 102.123 29.814V29.066C102.123 28.9193 102.167 28.802 102.255 28.714C102.358 28.6113 102.483 28.56 102.629 28.56H104.345V24.886C104.345 24.7393 104.389 24.622 104.477 24.534C104.58 24.4313 104.705 24.38 104.851 24.38H105.885C106.032 24.38 106.149 24.4313 106.237 24.534C106.34 24.622 106.391 24.7393 106.391 24.886V28.56H109.119C109.266 28.56 109.383 28.6113 109.471 28.714C109.574 28.802 109.625 28.9193 109.625 29.066V29.814C109.625 29.9607 109.574 30.0853 109.471 30.188C109.383 30.276 109.266 30.32 109.119 30.32H106.391V35.974C106.391 36.6633 106.509 37.206 106.743 37.602C106.978 37.998 107.396 38.196 107.997 38.196H109.339C109.486 38.196 109.603 38.2473 109.691 38.35C109.794 38.438 109.845 38.5553 109.845 38.702V39.494C109.845 39.6407 109.794 39.7653 109.691 39.868C109.603 39.956 109.486 40 109.339 40H107.821ZM115.975 40.22C114.86 40.22 113.929 40.0073 113.181 39.582C112.433 39.1567 111.861 38.57 111.465 37.822C111.069 37.0593 110.849 36.194 110.805 35.226C110.79 34.9767 110.783 34.6613 110.783 34.28C110.783 33.884 110.79 33.5687 110.805 33.334C110.849 32.3513 111.069 31.486 111.465 30.738C111.876 29.99 112.455 29.4033 113.203 28.978C113.951 28.5527 114.875 28.34 115.975 28.34C117.075 28.34 117.999 28.5527 118.747 28.978C119.495 29.4033 120.067 29.99 120.463 30.738C120.874 31.486 121.101 32.3513 121.145 33.334C121.16 33.5687 121.167 33.884 121.167 34.28C121.167 34.6613 121.16 34.9767 121.145 35.226C121.101 36.194 120.881 37.0593 120.485 37.822C120.089 38.57 119.517 39.1567 118.769 39.582C118.021 40.0073 117.09 40.22 115.975 40.22ZM115.975 38.526C116.884 38.526 117.61 38.24 118.153 37.668C118.696 37.0813 118.989 36.2307 119.033 35.116C119.048 34.896 119.055 34.6173 119.055 34.28C119.055 33.9427 119.048 33.664 119.033 33.444C118.989 32.3293 118.696 31.486 118.153 30.914C117.61 30.3273 116.884 30.034 115.975 30.034C115.066 30.034 114.332 30.3273 113.775 30.914C113.232 31.486 112.946 32.3293 112.917 33.444C112.902 33.664 112.895 33.9427 112.895 34.28C112.895 34.6173 112.902 34.896 112.917 35.116C112.946 36.2307 113.232 37.0813 113.775 37.668C114.332 38.24 115.066 38.526 115.975 38.526ZM123.768 40C123.621 40 123.497 39.956 123.394 39.868C123.306 39.7653 123.262 39.6407 123.262 39.494V29.088C123.262 28.9413 123.306 28.8167 123.394 28.714C123.497 28.6113 123.621 28.56 123.768 28.56H124.78C124.927 28.56 125.051 28.6113 125.154 28.714C125.257 28.8167 125.308 28.9413 125.308 29.088V30.056C125.601 29.5573 126.005 29.1833 126.518 28.934C127.031 28.6847 127.647 28.56 128.366 28.56H129.246C129.393 28.56 129.51 28.6113 129.598 28.714C129.686 28.802 129.73 28.9193 129.73 29.066V29.968C129.73 30.1147 129.686 30.232 129.598 30.32C129.51 30.408 129.393 30.452 129.246 30.452H127.926C127.134 30.452 126.511 30.6867 126.056 31.156C125.601 31.6107 125.374 32.234 125.374 33.026V39.494C125.374 39.6407 125.323 39.7653 125.22 39.868C125.117 39.956 124.993 40 124.846 40H123.768ZM135.298 40.22C133.788 40.22 132.585 39.758 131.69 38.834C130.796 37.8953 130.304 36.6193 130.216 35.006C130.202 34.8153 130.194 34.5733 130.194 34.28C130.194 33.972 130.202 33.7227 130.216 33.532C130.275 32.4907 130.517 31.5813 130.942 30.804C131.368 30.012 131.947 29.4033 132.68 28.978C133.428 28.5527 134.301 28.34 135.298 28.34C136.413 28.34 137.344 28.5747 138.092 29.044C138.855 29.5133 139.434 30.1807 139.83 31.046C140.226 31.9113 140.424 32.9233 140.424 34.082V34.456C140.424 34.6173 140.373 34.742 140.27 34.83C140.182 34.918 140.065 34.962 139.918 34.962H132.306C132.306 34.9767 132.306 35.006 132.306 35.05C132.306 35.094 132.306 35.1307 132.306 35.16C132.336 35.7613 132.468 36.326 132.702 36.854C132.937 37.3673 133.274 37.7853 133.714 38.108C134.154 38.4307 134.682 38.592 135.298 38.592C135.826 38.592 136.266 38.5113 136.618 38.35C136.97 38.1887 137.256 38.0127 137.476 37.822C137.696 37.6167 137.843 37.4627 137.916 37.36C138.048 37.1693 138.151 37.0593 138.224 37.03C138.298 36.986 138.415 36.964 138.576 36.964H139.632C139.779 36.964 139.896 37.008 139.984 37.096C140.087 37.1693 140.131 37.2793 140.116 37.426C140.102 37.646 139.984 37.9173 139.764 38.24C139.544 38.548 139.229 38.856 138.818 39.164C138.408 39.472 137.909 39.7287 137.322 39.934C136.736 40.1247 136.061 40.22 135.298 40.22ZM132.306 33.444H138.334V33.378C138.334 32.718 138.21 32.1313 137.96 31.618C137.726 31.1047 137.381 30.7013 136.926 30.408C136.472 30.1 135.929 29.946 135.298 29.946C134.668 29.946 134.125 30.1 133.67 30.408C133.23 30.7013 132.893 31.1047 132.658 31.618C132.424 32.1313 132.306 32.718 132.306 33.378V33.444Z" fill="#212529"/>
</svg>
