<svg width="154" height="52" viewBox="0 0 154 52" fill="#fff" xmlns="http://www.w3.org/2000/svg">
<rect x="0.5" y="0.5" width="153" height="51" rx="9.5" stroke="black"/>
<path d="M32.0454 25.4221C32.0747 23.1834 33.2977 21.0652 35.2378 19.8926C34.0139 18.1742 31.9639 17.0847 29.8311 17.0191C27.5563 16.7844 25.3509 18.3573 24.1917 18.3573C23.0101 18.3573 21.2253 17.0424 19.3034 17.0813C16.7983 17.1609 14.4629 18.561 13.2441 20.7141C10.6242 25.1734 12.5784 31.727 15.0881 35.3315C16.3437 37.0965 17.8112 39.0681 19.7314 38.9982C21.6104 38.9216 22.3122 37.8203 24.5803 37.8203C26.8273 37.8203 27.4857 38.9982 29.4449 38.9537C31.4611 38.9216 32.7315 37.1809 33.9431 35.3991C34.8452 34.1415 35.5394 32.7515 36 31.2807C33.6305 30.2955 32.0482 27.9513 32.0454 25.4221Z" fill="black"/>
<path d="M28.3449 14.6486C29.4443 13.3512 29.9859 11.6836 29.8547 10C28.1752 10.1734 26.6237 10.9626 25.5095 12.2102C24.42 13.4292 23.853 15.0674 23.9602 16.6867C25.6403 16.7037 27.2921 15.936 28.3449 14.6486Z" fill="black"/>
<path d="M51.138 12.928H45C44.8973 12.928 44.8203 12.9023 44.769 12.851C44.7177 12.7923 44.692 12.708 44.692 12.598C44.692 12.554 44.6957 12.5063 44.703 12.455C44.7103 12.3963 44.7213 12.3413 44.736 12.29H50.874C51.0793 12.29 51.182 12.4 51.182 12.62C51.182 12.664 51.1783 12.7117 51.171 12.763C51.1637 12.8143 51.1527 12.8693 51.138 12.928ZM47.002 16.173C47.1927 16.1143 47.4017 16.063 47.629 16.019C47.8563 15.975 48.1057 15.953 48.377 15.953C48.993 15.953 49.4623 16.1033 49.785 16.404C50.115 16.6973 50.28 17.0603 50.28 17.493C50.28 18.0063 50.0783 18.406 49.675 18.692C49.279 18.9707 48.7437 19.11 48.069 19.11C47.6583 19.11 47.266 19.066 46.892 18.978C46.518 18.8827 46.2137 18.758 45.979 18.604C45.7517 18.45 45.638 18.285 45.638 18.109C45.638 17.9843 45.6673 17.8853 45.726 17.812C45.792 17.7387 45.8727 17.6873 45.968 17.658C46.2173 17.8707 46.518 18.0467 46.87 18.186C47.222 18.3253 47.6143 18.395 48.047 18.395C48.5017 18.395 48.85 18.3107 49.092 18.142C49.334 17.9733 49.455 17.757 49.455 17.493C49.455 17.207 49.3487 16.9943 49.136 16.855C48.9307 16.7083 48.6337 16.635 48.245 16.635C48.0177 16.635 47.7867 16.6607 47.552 16.712C47.3173 16.7633 47.0973 16.822 46.892 16.888C46.7233 16.8147 46.5437 16.7083 46.353 16.569C46.1697 16.4297 46.012 16.261 45.88 16.063C45.7553 15.865 45.693 15.6413 45.693 15.392C45.693 15.0033 45.8213 14.677 46.078 14.413C46.3347 14.1417 46.7747 14.006 47.398 14.006H49.048V12.686H49.829V14.314C49.829 14.4753 49.7923 14.5853 49.719 14.644C49.653 14.7027 49.532 14.732 49.356 14.732H47.387C47.0717 14.732 46.8443 14.7943 46.705 14.919C46.573 15.0437 46.507 15.2013 46.507 15.392C46.507 15.5827 46.5583 15.7403 46.661 15.865C46.7637 15.9897 46.8773 16.0923 47.002 16.173ZM52.218 12.752H52.999V19.077C52.955 19.0843 52.9036 19.0917 52.845 19.099C52.7936 19.1137 52.7386 19.121 52.68 19.121C52.526 19.121 52.4086 19.088 52.328 19.022C52.2546 18.9633 52.218 18.8717 52.218 18.747V12.752ZM54.209 12.928H51.206C51.1033 12.928 51.0263 12.9023 50.975 12.851C50.9236 12.7923 50.898 12.708 50.898 12.598C50.898 12.554 50.9016 12.5063 50.909 12.455C50.9163 12.3963 50.9273 12.3413 50.942 12.29H53.945C54.1503 12.29 54.253 12.4 54.253 12.62C54.253 12.664 54.2493 12.7117 54.242 12.763C54.2346 12.8143 54.2236 12.8693 54.209 12.928ZM56.7062 15.909H55.4742C55.4376 15.8503 55.4119 15.7917 55.3972 15.733C55.3899 15.6743 55.3862 15.6157 55.3862 15.557C55.3862 15.4983 55.3936 15.436 55.4082 15.37C55.4229 15.304 55.4449 15.2417 55.4742 15.183H56.6622C56.9849 15.183 57.2562 15.0803 57.4762 14.875C57.7036 14.6623 57.8172 14.402 57.8172 14.094C57.8172 13.764 57.7182 13.4927 57.5202 13.28C57.3222 13.0673 57.0582 12.9317 56.7282 12.873L57.8392 12.84C58.0519 12.9353 58.2352 13.1003 58.3892 13.335C58.5506 13.5623 58.6312 13.841 58.6312 14.171C58.6312 14.4863 58.5396 14.7687 58.3562 15.018C58.1729 15.26 57.9529 15.425 57.6962 15.513C58.0189 15.6303 58.2939 15.832 58.5212 16.118C58.7559 16.404 58.8732 16.7707 58.8732 17.218C58.8732 17.7607 58.6716 18.2117 58.2682 18.571C57.8649 18.9303 57.2929 19.11 56.5522 19.11C56.2296 19.11 55.9179 19.0733 55.6172 19C55.3239 18.9193 55.0856 18.813 54.9022 18.681C54.7189 18.549 54.6272 18.4023 54.6272 18.241C54.6272 18.1457 54.6529 18.0613 54.7042 17.988C54.7629 17.9073 54.8362 17.8487 54.9242 17.812C55.1589 18.0247 55.4046 18.175 55.6612 18.263C55.9252 18.351 56.2186 18.395 56.5412 18.395C56.9959 18.395 57.3626 18.285 57.6412 18.065C57.9199 17.8377 58.0592 17.5223 58.0592 17.119C58.0592 16.789 57.9346 16.5067 57.6852 16.272C57.4359 16.03 57.1096 15.909 56.7062 15.909ZM59.7972 12.928H54.2752C54.1726 12.928 54.0956 12.9023 54.0442 12.851C53.9929 12.7923 53.9672 12.708 53.9672 12.598C53.9672 12.554 53.9709 12.5063 53.9782 12.455C53.9856 12.3963 53.9966 12.3413 54.0112 12.29H59.5332C59.7386 12.29 59.8412 12.4 59.8412 12.62C59.8412 12.664 59.8376 12.7117 59.8302 12.763C59.8229 12.8143 59.8119 12.8693 59.7972 12.928ZM61.4312 15.128H64.3352V15.832H61.9922C61.8382 15.832 61.7172 15.8723 61.6292 15.953C61.5412 16.0263 61.4972 16.1547 61.4972 16.338V16.811C61.4458 16.8403 61.3835 16.866 61.3102 16.888C61.2442 16.91 61.1708 16.921 61.0902 16.921C60.8848 16.921 60.7052 16.8477 60.5512 16.701C60.3972 16.5543 60.3202 16.3233 60.3202 16.008C60.3202 15.722 60.4155 15.5057 60.6062 15.359C60.7968 15.205 61.0718 15.128 61.4312 15.128ZM64.5442 12.928H59.8582C59.7555 12.928 59.6785 12.9023 59.6272 12.851C59.5758 12.7923 59.5502 12.708 59.5502 12.598C59.5502 12.554 59.5538 12.5063 59.5612 12.455C59.5685 12.3963 59.5795 12.3413 59.5942 12.29H64.2802C64.4855 12.29 64.5882 12.4 64.5882 12.62C64.5882 12.664 64.5845 12.7117 64.5772 12.763C64.5698 12.8143 64.5588 12.8693 64.5442 12.928ZM64.0932 12.752H64.8742V19.077C64.8302 19.0843 64.7788 19.0917 64.7202 19.099C64.6688 19.1137 64.6138 19.121 64.5552 19.121C64.4012 19.121 64.2838 19.088 64.2032 19.022C64.1298 18.9633 64.0932 18.8717 64.0932 18.747V12.752ZM66.0842 12.928H63.0812C62.9785 12.928 62.9015 12.9023 62.8502 12.851C62.7988 12.7923 62.7732 12.708 62.7732 12.598C62.7732 12.554 62.7768 12.5063 62.7842 12.455C62.7915 12.3963 62.8025 12.3413 62.8172 12.29H65.8202C66.0255 12.29 66.1282 12.4 66.1282 12.62C66.1282 12.664 66.1245 12.7117 66.1172 12.763C66.1098 12.8143 66.0988 12.8693 66.0842 12.928ZM70.1321 15.601C70.0441 15.4983 69.8901 15.392 69.6701 15.282C69.4501 15.172 69.2007 15.117 68.9221 15.117C68.5114 15.117 68.1704 15.2563 67.8991 15.535C67.6351 15.8063 67.5031 16.1657 67.5031 16.613C67.5031 16.9943 67.5947 17.317 67.7781 17.581C67.9687 17.845 68.2144 18.054 68.5151 18.208C68.8157 18.3547 69.1347 18.4463 69.4721 18.483C69.4794 18.5197 69.4831 18.549 69.4831 18.571C69.4831 18.593 69.4831 18.6223 69.4831 18.659C69.4831 18.7983 69.4391 18.9083 69.3511 18.989C69.2704 19.0697 69.1567 19.11 69.0101 19.11C68.7901 19.11 68.5444 19.0623 68.2731 18.967C68.0091 18.8643 67.7561 18.7103 67.5141 18.505C67.2721 18.2997 67.0704 18.0467 66.9091 17.746C66.7551 17.438 66.6781 17.0787 66.6781 16.668C66.6781 16.184 66.7807 15.777 66.9861 15.447C67.1914 15.1097 67.4554 14.8567 67.7781 14.688C68.1081 14.512 68.4601 14.424 68.8341 14.424C69.2301 14.424 69.5711 14.4937 69.8571 14.633C70.1504 14.7723 70.4034 14.9483 70.6161 15.161L70.1321 15.601ZM70.5391 17.119C70.5097 17.1483 70.4621 17.1703 70.3961 17.185C70.3301 17.1923 70.2677 17.196 70.2091 17.196C70.0771 17.196 69.9634 17.1667 69.8681 17.108C69.7801 17.042 69.7361 16.932 69.7361 16.778C69.7361 16.3307 69.8277 15.931 70.0111 15.579C70.1944 15.2197 70.4474 14.9373 70.7701 14.732C71.1001 14.5267 71.4704 14.424 71.8811 14.424C72.1744 14.424 72.4127 14.4643 72.5961 14.545C72.7794 14.6257 72.9224 14.71 73.0251 14.798L72.6951 15.304C72.5997 15.26 72.5007 15.2197 72.3981 15.183C72.2954 15.139 72.1524 15.117 71.9691 15.117C71.5437 15.117 71.1991 15.271 70.9351 15.579C70.6711 15.887 70.5391 16.4003 70.5391 17.119ZM72.8601 12.928H66.1501C66.0474 12.928 65.9704 12.9023 65.9191 12.851C65.8677 12.7923 65.8421 12.708 65.8421 12.598C65.8421 12.554 65.8457 12.5063 65.8531 12.455C65.8604 12.3963 65.8714 12.3413 65.8861 12.29H72.5961C72.8014 12.29 72.9041 12.4 72.9041 12.62C72.9041 12.664 72.9004 12.7117 72.8931 12.763C72.8857 12.8143 72.8747 12.8693 72.8601 12.928ZM72.4091 12.752H73.1901V19.077C73.1461 19.0843 73.0947 19.0917 73.0361 19.099C72.9847 19.1137 72.9297 19.121 72.8711 19.121C72.7171 19.121 72.5997 19.088 72.5191 19.022C72.4457 18.9633 72.4091 18.8717 72.4091 18.747V12.752ZM74.4001 12.928H71.3971C71.2944 12.928 71.2174 12.9023 71.1661 12.851C71.1147 12.7923 71.0891 12.708 71.0891 12.598C71.0891 12.554 71.0927 12.5063 71.1001 12.455C71.1074 12.3963 71.1184 12.3413 71.1331 12.29H74.1361C74.3414 12.29 74.4441 12.4 74.4441 12.62C74.4441 12.664 74.4404 12.7117 74.4331 12.763C74.4257 12.8143 74.4147 12.8693 74.4001 12.928ZM76.2325 12.378H75.5065C75.3599 11.9893 75.1399 11.641 74.8465 11.333C74.5605 11.025 74.2489 10.7683 73.9115 10.563C73.5742 10.3503 73.2589 10.211 72.9655 10.145C72.9582 10.1303 72.9545 10.1083 72.9545 10.079C72.9472 10.0423 72.9435 10.0093 72.9435 9.98C72.9435 9.84067 72.9839 9.73067 73.0645 9.65C73.1379 9.562 73.2442 9.518 73.3835 9.518C73.5889 9.518 73.8272 9.595 74.0985 9.749C74.3699 9.89567 74.6449 10.101 74.9235 10.365C75.2022 10.6217 75.4589 10.9223 75.6935 11.267C75.9282 11.6117 76.1079 11.982 76.2325 12.378ZM75.4735 12.752H76.2545V19.077C76.2105 19.0843 76.1592 19.0917 76.1005 19.099C76.0492 19.1137 75.9942 19.121 75.9355 19.121C75.7815 19.121 75.6642 19.088 75.5835 19.022C75.5102 18.9633 75.4735 18.8717 75.4735 18.747V12.752ZM77.4645 12.928H74.4615C74.3589 12.928 74.2819 12.9023 74.2305 12.851C74.1792 12.7923 74.1535 12.708 74.1535 12.598C74.1535 12.554 74.1572 12.5063 74.1645 12.455C74.1719 12.3963 74.1829 12.3413 74.1975 12.29H77.2005C77.4059 12.29 77.5085 12.4 77.5085 12.62C77.5085 12.664 77.5049 12.7117 77.4975 12.763C77.4902 12.8143 77.4792 12.8693 77.4645 12.928ZM83.6688 12.928H77.5308C77.4281 12.928 77.3511 12.9023 77.2998 12.851C77.2484 12.7923 77.2228 12.708 77.2228 12.598C77.2228 12.554 77.2264 12.5063 77.2338 12.455C77.2411 12.3963 77.2521 12.3413 77.2668 12.29H83.4048C83.6101 12.29 83.7128 12.4 83.7128 12.62C83.7128 12.664 83.7091 12.7117 83.7018 12.763C83.6944 12.8143 83.6834 12.8693 83.6688 12.928ZM79.5328 16.173C79.7234 16.1143 79.9324 16.063 80.1598 16.019C80.3871 15.975 80.6364 15.953 80.9078 15.953C81.5238 15.953 81.9931 16.1033 82.3158 16.404C82.6458 16.6973 82.8108 17.0603 82.8108 17.493C82.8108 18.0063 82.6091 18.406 82.2058 18.692C81.8098 18.9707 81.2744 19.11 80.5998 19.11C80.1891 19.11 79.7968 19.066 79.4228 18.978C79.0488 18.8827 78.7444 18.758 78.5098 18.604C78.2824 18.45 78.1688 18.285 78.1688 18.109C78.1688 17.9843 78.1981 17.8853 78.2568 17.812C78.3228 17.7387 78.4034 17.6873 78.4988 17.658C78.7481 17.8707 79.0488 18.0467 79.4008 18.186C79.7528 18.3253 80.1451 18.395 80.5778 18.395C81.0324 18.395 81.3808 18.3107 81.6228 18.142C81.8648 17.9733 81.9858 17.757 81.9858 17.493C81.9858 17.207 81.8794 16.9943 81.6668 16.855C81.4614 16.7083 81.1644 16.635 80.7758 16.635C80.5484 16.635 80.3174 16.6607 80.0828 16.712C79.8481 16.7633 79.6281 16.822 79.4228 16.888C79.2541 16.8147 79.0744 16.7083 78.8838 16.569C78.7004 16.4297 78.5428 16.261 78.4108 16.063C78.2861 15.865 78.2238 15.6413 78.2238 15.392C78.2238 15.0033 78.3521 14.677 78.6088 14.413C78.8654 14.1417 79.3054 14.006 79.9288 14.006H81.5788V12.686H82.3598V14.314C82.3598 14.4753 82.3231 14.5853 82.2498 14.644C82.1838 14.7027 82.0628 14.732 81.8868 14.732H79.9178C79.6024 14.732 79.3751 14.7943 79.2358 14.919C79.1038 15.0437 79.0378 15.2013 79.0378 15.392C79.0378 15.5827 79.0891 15.7403 79.1918 15.865C79.2944 15.9897 79.4081 16.0923 79.5328 16.173ZM90.3719 16.481L90.6579 17.009C90.5992 17.1337 90.4966 17.2693 90.3499 17.416C90.2032 17.5627 90.0089 17.6873 89.7669 17.79C89.5322 17.8853 89.2426 17.933 88.8979 17.933C88.5459 17.933 88.2122 17.8597 87.8969 17.713C87.5889 17.5663 87.3359 17.35 87.1379 17.064C86.9399 16.7707 86.8409 16.4077 86.8409 15.975C86.8409 15.5937 86.9289 15.2637 87.1049 14.985C87.2809 14.7063 87.5156 14.4937 87.8089 14.347C88.1022 14.193 88.4249 14.116 88.7769 14.116C89.0996 14.116 89.3269 14.1637 89.4589 14.259C89.5982 14.347 89.6679 14.457 89.6679 14.589C89.6679 14.6623 89.6532 14.7247 89.6239 14.776C89.6019 14.82 89.5726 14.864 89.5359 14.908C89.4406 14.8713 89.3526 14.8457 89.2719 14.831C89.1912 14.809 89.0922 14.798 88.9749 14.798C88.5789 14.798 88.2599 14.9043 88.0179 15.117C87.7832 15.3297 87.6659 15.6303 87.6659 16.019C87.6659 16.3783 87.7832 16.6717 88.0179 16.899C88.2599 17.1263 88.5826 17.24 88.9859 17.24C89.2792 17.24 89.5212 17.196 89.7119 17.108C89.9026 17.0127 90.0492 16.9063 90.1519 16.789C90.2619 16.6643 90.3352 16.5617 90.3719 16.481ZM90.9439 15.656L90.6029 15.238C90.7716 14.9373 91.0026 14.6807 91.2959 14.468C91.5966 14.248 91.9926 14.138 92.4839 14.138C92.8799 14.138 93.2246 14.2223 93.5179 14.391C93.8186 14.5523 94.0496 14.776 94.2109 15.062C94.3796 15.348 94.4639 15.6743 94.4639 16.041C94.4639 16.4443 94.3759 16.7927 94.1999 17.086C94.0239 17.372 93.7892 17.592 93.4959 17.746C93.2026 17.9 92.8799 17.977 92.5279 17.977C92.2932 17.977 92.1136 17.944 91.9889 17.878C91.8716 17.8047 91.8129 17.6947 91.8129 17.548C91.8129 17.4747 91.8202 17.416 91.8349 17.372C91.8569 17.3207 91.8752 17.2803 91.8899 17.251C91.9339 17.2583 92.0036 17.2693 92.0989 17.284C92.1942 17.2913 92.2712 17.295 92.3299 17.295C92.6966 17.295 93.0046 17.1887 93.2539 16.976C93.5106 16.7633 93.6389 16.448 93.6389 16.03C93.6389 15.678 93.5216 15.392 93.2869 15.172C93.0522 14.9447 92.7332 14.831 92.3299 14.831C92.0366 14.831 91.7616 14.919 91.5049 15.095C91.2482 15.2637 91.0612 15.4507 90.9439 15.656ZM95.0799 12.928H86.2689C86.1662 12.928 86.0892 12.9023 86.0379 12.851C85.9866 12.7923 85.9609 12.708 85.9609 12.598C85.9609 12.554 85.9646 12.5063 85.9719 12.455C85.9792 12.3963 85.9902 12.3413 86.0049 12.29H94.8159C95.0212 12.29 95.1239 12.4 95.1239 12.62C95.1239 12.664 95.1202 12.7117 95.1129 12.763C95.1056 12.8143 95.0946 12.8693 95.0799 12.928ZM90.3059 12.752H91.0869V19.077C91.0429 19.0843 90.9916 19.0917 90.9329 19.099C90.8816 19.1137 90.8266 19.121 90.7679 19.121C90.6139 19.121 90.4966 19.088 90.4159 19.022C90.3426 18.9633 90.3059 18.8717 90.3059 18.747V12.752ZM96.3791 16.349C96.1958 16.3343 96.0491 16.294 95.9391 16.228C95.8364 16.1547 95.7851 16.052 95.7851 15.92C95.7851 15.8393 95.7998 15.7697 95.8291 15.711C95.8584 15.645 95.8878 15.5863 95.9171 15.535C95.9978 15.5643 96.0968 15.59 96.2141 15.612C96.3314 15.6267 96.4598 15.634 96.5991 15.634C97.1858 15.634 97.5964 15.4983 97.8311 15.227C98.0658 14.9483 98.1831 14.6183 98.1831 14.237C98.1831 13.951 98.1281 13.6833 98.0181 13.434C97.9154 13.1847 97.7724 12.9647 97.5891 12.774L98.3371 12.686C98.5204 12.8767 98.6744 13.1003 98.7991 13.357C98.9311 13.6063 98.9971 13.9143 98.9971 14.281C98.9971 14.721 98.9018 15.0877 98.7111 15.381C98.5278 15.6743 98.2894 15.898 97.9961 16.052C97.7028 16.1987 97.3984 16.2867 97.0831 16.316C97.2958 16.7853 97.5598 17.2217 97.8751 17.625C98.1904 18.021 98.6048 18.362 99.1181 18.648C99.1181 18.7947 99.0814 18.912 99.0081 19C98.9348 19.088 98.8248 19.132 98.6781 19.132C98.4581 19.132 98.2124 19.0257 97.9411 18.813C97.6698 18.6003 97.3948 18.2887 97.1161 17.878C96.8448 17.46 96.5991 16.9503 96.3791 16.349ZM99.9101 12.928H95.2571C95.1544 12.928 95.0774 12.9023 95.0261 12.851C94.9748 12.7923 94.9491 12.708 94.9491 12.598C94.9491 12.554 94.9528 12.5063 94.9601 12.455C94.9674 12.3963 94.9784 12.3413 94.9931 12.29H99.6461C99.8514 12.29 99.9541 12.4 99.9541 12.62C99.9541 12.664 99.9504 12.7117 99.9431 12.763C99.9358 12.8143 99.9248 12.8693 99.9101 12.928ZM101.5 15.128H104.404V15.832H102.061C101.907 15.832 101.786 15.8723 101.698 15.953C101.61 16.0263 101.566 16.1547 101.566 16.338V16.811C101.515 16.8403 101.452 16.866 101.379 16.888C101.313 16.91 101.24 16.921 101.159 16.921C100.954 16.921 100.774 16.8477 100.62 16.701C100.466 16.5543 100.389 16.3233 100.389 16.008C100.389 15.722 100.484 15.5057 100.675 15.359C100.866 15.205 101.141 15.128 101.5 15.128ZM104.613 12.928H99.927C99.8243 12.928 99.7473 12.9023 99.696 12.851C99.6446 12.7923 99.619 12.708 99.619 12.598C99.619 12.554 99.6226 12.5063 99.63 12.455C99.6373 12.3963 99.6483 12.3413 99.663 12.29H104.349C104.554 12.29 104.657 12.4 104.657 12.62C104.657 12.664 104.653 12.7117 104.646 12.763C104.639 12.8143 104.628 12.8693 104.613 12.928ZM104.162 12.752H104.943V19.077C104.899 19.0843 104.848 19.0917 104.789 19.099C104.738 19.1137 104.683 19.121 104.624 19.121C104.47 19.121 104.353 19.088 104.272 19.022C104.199 18.9633 104.162 18.8717 104.162 18.747V12.752ZM106.153 12.928H103.15C103.047 12.928 102.97 12.9023 102.919 12.851C102.868 12.7923 102.842 12.708 102.842 12.598C102.842 12.554 102.846 12.5063 102.853 12.455C102.86 12.3963 102.871 12.3413 102.886 12.29H105.889C106.094 12.29 106.197 12.4 106.197 12.62C106.197 12.664 106.193 12.7117 106.186 12.763C106.179 12.8143 106.168 12.8693 106.153 12.928ZM107.231 12.752H108.012V19.077C107.968 19.0843 107.917 19.0917 107.858 19.099C107.807 19.1137 107.752 19.121 107.693 19.121C107.539 19.121 107.422 19.088 107.341 19.022C107.268 18.9633 107.231 18.8717 107.231 18.747V12.752ZM109.222 12.928H106.219C106.116 12.928 106.039 12.9023 105.988 12.851C105.937 12.7923 105.911 12.708 105.911 12.598C105.911 12.554 105.915 12.5063 105.922 12.455C105.929 12.3963 105.94 12.3413 105.955 12.29H108.958C109.163 12.29 109.266 12.4 109.266 12.62C109.266 12.664 109.262 12.7117 109.255 12.763C109.248 12.8143 109.237 12.8693 109.222 12.928Z" fill="black"/>
<path d="M45.88 40C45.7627 40 45.66 39.956 45.572 39.868C45.484 39.78 45.44 39.6773 45.44 39.56C45.44 39.4867 45.4473 39.406 45.462 39.318L50.918 25.084C50.9767 24.9373 51.0573 24.82 51.16 24.732C51.2627 24.644 51.4167 24.6 51.622 24.6H53.118C53.3087 24.6 53.4553 24.644 53.558 24.732C53.6753 24.82 53.7633 24.9373 53.822 25.084L59.256 39.318C59.2853 39.406 59.3 39.4867 59.3 39.56C59.3 39.6773 59.256 39.78 59.168 39.868C59.08 39.956 58.9773 40 58.86 40H57.738C57.562 40 57.43 39.956 57.342 39.868C57.2687 39.78 57.2173 39.6993 57.188 39.626L55.978 36.502H48.762L47.552 39.626C47.5373 39.6993 47.486 39.78 47.398 39.868C47.31 39.956 47.178 40 47.002 40H45.88ZM49.4 34.61H55.34L52.37 26.8L49.4 34.61ZM61.2343 44.18C61.0876 44.18 60.9629 44.1287 60.8603 44.026C60.7723 43.938 60.7283 43.8207 60.7283 43.674V29.066C60.7283 28.9193 60.7723 28.802 60.8603 28.714C60.9629 28.6113 61.0876 28.56 61.2343 28.56H62.2463C62.3929 28.56 62.5103 28.6113 62.5983 28.714C62.7009 28.802 62.7523 28.9193 62.7523 29.066V30.034C63.1043 29.55 63.5736 29.1467 64.1603 28.824C64.7469 28.5013 65.4803 28.34 66.3603 28.34C67.1816 28.34 67.8783 28.4793 68.4503 28.758C69.0369 29.0367 69.5136 29.418 69.8803 29.902C70.2616 30.386 70.5476 30.936 70.7383 31.552C70.9289 32.168 71.0316 32.828 71.0463 33.532C71.0609 33.7667 71.0683 34.016 71.0683 34.28C71.0683 34.544 71.0609 34.7933 71.0463 35.028C71.0316 35.7173 70.9289 36.3773 70.7383 37.008C70.5476 37.624 70.2616 38.174 69.8803 38.658C69.5136 39.1273 69.0369 39.5087 68.4503 39.802C67.8783 40.0807 67.1816 40.22 66.3603 40.22C65.5096 40.22 64.7909 40.066 64.2043 39.758C63.6323 39.4353 63.1629 39.0393 62.7963 38.57V43.674C62.7963 43.8207 62.7523 43.938 62.6643 44.026C62.5763 44.1287 62.4516 44.18 62.2903 44.18H61.2343ZM65.8983 38.438C66.6609 38.438 67.2549 38.2767 67.6803 37.954C68.1203 37.6167 68.4356 37.184 68.6263 36.656C68.8169 36.1133 68.9269 35.534 68.9563 34.918C68.9709 34.4927 68.9709 34.0673 68.9563 33.642C68.9269 33.026 68.8169 32.454 68.6263 31.926C68.4356 31.3833 68.1203 30.9507 67.6803 30.628C67.2549 30.2907 66.6609 30.122 65.8983 30.122C65.1796 30.122 64.5929 30.2907 64.1383 30.628C63.6983 30.9653 63.3683 31.398 63.1483 31.926C62.9429 32.4393 62.8256 32.9673 62.7963 33.51C62.7816 33.7447 62.7743 34.0233 62.7743 34.346C62.7743 34.6687 62.7816 34.9547 62.7963 35.204C62.8109 35.7173 62.9283 36.2233 63.1483 36.722C63.3829 37.2207 63.7276 37.6313 64.1823 37.954C64.6369 38.2767 65.2089 38.438 65.8983 38.438ZM73.6798 44.18C73.5331 44.18 73.4084 44.1287 73.3058 44.026C73.2178 43.938 73.1738 43.8207 73.1738 43.674V29.066C73.1738 28.9193 73.2178 28.802 73.3058 28.714C73.4084 28.6113 73.5331 28.56 73.6798 28.56H74.6918C74.8384 28.56 74.9558 28.6113 75.0438 28.714C75.1464 28.802 75.1978 28.9193 75.1978 29.066V30.034C75.5498 29.55 76.0191 29.1467 76.6058 28.824C77.1924 28.5013 77.9258 28.34 78.8058 28.34C79.6271 28.34 80.3238 28.4793 80.8958 28.758C81.4824 29.0367 81.9591 29.418 82.3258 29.902C82.7071 30.386 82.9931 30.936 83.1838 31.552C83.3744 32.168 83.4771 32.828 83.4918 33.532C83.5064 33.7667 83.5138 34.016 83.5138 34.28C83.5138 34.544 83.5064 34.7933 83.4918 35.028C83.4771 35.7173 83.3744 36.3773 83.1838 37.008C82.9931 37.624 82.7071 38.174 82.3258 38.658C81.9591 39.1273 81.4824 39.5087 80.8958 39.802C80.3238 40.0807 79.6271 40.22 78.8058 40.22C77.9551 40.22 77.2364 40.066 76.6498 39.758C76.0778 39.4353 75.6084 39.0393 75.2418 38.57V43.674C75.2418 43.8207 75.1978 43.938 75.1098 44.026C75.0218 44.1287 74.8971 44.18 74.7358 44.18H73.6798ZM78.3438 38.438C79.1064 38.438 79.7004 38.2767 80.1258 37.954C80.5658 37.6167 80.8811 37.184 81.0718 36.656C81.2624 36.1133 81.3724 35.534 81.4018 34.918C81.4164 34.4927 81.4164 34.0673 81.4018 33.642C81.3724 33.026 81.2624 32.454 81.0718 31.926C80.8811 31.3833 80.5658 30.9507 80.1258 30.628C79.7004 30.2907 79.1064 30.122 78.3438 30.122C77.6251 30.122 77.0384 30.2907 76.5838 30.628C76.1438 30.9653 75.8138 31.398 75.5938 31.926C75.3884 32.4393 75.2711 32.9673 75.2418 33.51C75.2271 33.7447 75.2198 34.0233 75.2198 34.346C75.2198 34.6687 75.2271 34.9547 75.2418 35.204C75.2564 35.7173 75.3738 36.2233 75.5938 36.722C75.8284 37.2207 76.1731 37.6313 76.6278 37.954C77.0824 38.2767 77.6544 38.438 78.3438 38.438ZM95.5658 40.22C94.2898 40.22 93.2191 40.0293 92.3538 39.648C91.4885 39.252 90.8211 38.746 90.3518 38.13C89.8971 37.4993 89.6551 36.832 89.6258 36.128C89.6258 36.0107 89.6698 35.908 89.7578 35.82C89.8605 35.7173 89.9778 35.666 90.1098 35.666H91.2318C91.4078 35.666 91.5398 35.71 91.6278 35.798C91.7158 35.886 91.7745 35.9887 91.8038 36.106C91.8771 36.458 92.0531 36.81 92.3318 37.162C92.6251 37.4993 93.0285 37.7853 93.5418 38.02C94.0698 38.24 94.7445 38.35 95.5658 38.35C96.8271 38.35 97.7511 38.13 98.3378 37.69C98.9391 37.2353 99.2398 36.634 99.2398 35.886C99.2398 35.3727 99.0785 34.962 98.7558 34.654C98.4478 34.3313 97.9711 34.0453 97.3258 33.796C96.6805 33.5467 95.8445 33.2753 94.8178 32.982C93.7471 32.674 92.8598 32.3367 92.1558 31.97C91.4518 31.6033 90.9238 31.1487 90.5718 30.606C90.2345 30.0633 90.0658 29.374 90.0658 28.538C90.0658 27.746 90.2785 27.042 90.7038 26.426C91.1291 25.7953 91.7378 25.2967 92.5298 24.93C93.3365 24.5633 94.3118 24.38 95.4558 24.38C96.3651 24.38 97.1571 24.5047 97.8318 24.754C98.5211 24.9887 99.0931 25.3113 99.5478 25.722C100.002 26.118 100.347 26.5507 100.582 27.02C100.816 27.4747 100.941 27.922 100.956 28.362C100.956 28.4647 100.919 28.5673 100.846 28.67C100.772 28.758 100.655 28.802 100.494 28.802H99.3278C99.2251 28.802 99.1151 28.7727 98.9978 28.714C98.8951 28.6553 98.8145 28.5453 98.7558 28.384C98.6678 27.7827 98.3305 27.2767 97.7438 26.866C97.1571 26.4553 96.3945 26.25 95.4558 26.25C94.5025 26.25 93.7251 26.4333 93.1238 26.8C92.5371 27.1667 92.2438 27.7387 92.2438 28.516C92.2438 29.0147 92.3831 29.4327 92.6618 29.77C92.9405 30.0927 93.3805 30.3787 93.9818 30.628C94.5831 30.8773 95.3678 31.1413 96.3358 31.42C97.5091 31.7427 98.4698 32.0873 99.2178 32.454C99.9658 32.806 100.516 33.2533 100.868 33.796C101.234 34.324 101.418 35.006 101.418 35.842C101.418 36.766 101.176 37.558 100.692 38.218C100.208 38.8633 99.5258 39.362 98.6458 39.714C97.7805 40.0513 96.7538 40.22 95.5658 40.22ZM107.821 40C107 40 106.333 39.846 105.819 39.538C105.306 39.2153 104.932 38.768 104.697 38.196C104.463 37.6093 104.345 36.92 104.345 36.128V30.32H102.629C102.483 30.32 102.358 30.276 102.255 30.188C102.167 30.0853 102.123 29.9607 102.123 29.814V29.066C102.123 28.9193 102.167 28.802 102.255 28.714C102.358 28.6113 102.483 28.56 102.629 28.56H104.345V24.886C104.345 24.7393 104.389 24.622 104.477 24.534C104.58 24.4313 104.705 24.38 104.851 24.38H105.885C106.032 24.38 106.149 24.4313 106.237 24.534C106.34 24.622 106.391 24.7393 106.391 24.886V28.56H109.119C109.266 28.56 109.383 28.6113 109.471 28.714C109.574 28.802 109.625 28.9193 109.625 29.066V29.814C109.625 29.9607 109.574 30.0853 109.471 30.188C109.383 30.276 109.266 30.32 109.119 30.32H106.391V35.974C106.391 36.6633 106.509 37.206 106.743 37.602C106.978 37.998 107.396 38.196 107.997 38.196H109.339C109.486 38.196 109.603 38.2473 109.691 38.35C109.794 38.438 109.845 38.5553 109.845 38.702V39.494C109.845 39.6407 109.794 39.7653 109.691 39.868C109.603 39.956 109.486 40 109.339 40H107.821ZM115.975 40.22C114.86 40.22 113.929 40.0073 113.181 39.582C112.433 39.1567 111.861 38.57 111.465 37.822C111.069 37.0593 110.849 36.194 110.805 35.226C110.79 34.9767 110.783 34.6613 110.783 34.28C110.783 33.884 110.79 33.5687 110.805 33.334C110.849 32.3513 111.069 31.486 111.465 30.738C111.876 29.99 112.455 29.4033 113.203 28.978C113.951 28.5527 114.875 28.34 115.975 28.34C117.075 28.34 117.999 28.5527 118.747 28.978C119.495 29.4033 120.067 29.99 120.463 30.738C120.874 31.486 121.101 32.3513 121.145 33.334C121.16 33.5687 121.167 33.884 121.167 34.28C121.167 34.6613 121.16 34.9767 121.145 35.226C121.101 36.194 120.881 37.0593 120.485 37.822C120.089 38.57 119.517 39.1567 118.769 39.582C118.021 40.0073 117.09 40.22 115.975 40.22ZM115.975 38.526C116.884 38.526 117.61 38.24 118.153 37.668C118.696 37.0813 118.989 36.2307 119.033 35.116C119.048 34.896 119.055 34.6173 119.055 34.28C119.055 33.9427 119.048 33.664 119.033 33.444C118.989 32.3293 118.696 31.486 118.153 30.914C117.61 30.3273 116.884 30.034 115.975 30.034C115.066 30.034 114.332 30.3273 113.775 30.914C113.232 31.486 112.946 32.3293 112.917 33.444C112.902 33.664 112.895 33.9427 112.895 34.28C112.895 34.6173 112.902 34.896 112.917 35.116C112.946 36.2307 113.232 37.0813 113.775 37.668C114.332 38.24 115.066 38.526 115.975 38.526ZM123.768 40C123.621 40 123.497 39.956 123.394 39.868C123.306 39.7653 123.262 39.6407 123.262 39.494V29.088C123.262 28.9413 123.306 28.8167 123.394 28.714C123.497 28.6113 123.621 28.56 123.768 28.56H124.78C124.927 28.56 125.051 28.6113 125.154 28.714C125.257 28.8167 125.308 28.9413 125.308 29.088V30.056C125.601 29.5573 126.005 29.1833 126.518 28.934C127.031 28.6847 127.647 28.56 128.366 28.56H129.246C129.393 28.56 129.51 28.6113 129.598 28.714C129.686 28.802 129.73 28.9193 129.73 29.066V29.968C129.73 30.1147 129.686 30.232 129.598 30.32C129.51 30.408 129.393 30.452 129.246 30.452H127.926C127.134 30.452 126.511 30.6867 126.056 31.156C125.601 31.6107 125.374 32.234 125.374 33.026V39.494C125.374 39.6407 125.323 39.7653 125.22 39.868C125.117 39.956 124.993 40 124.846 40H123.768ZM135.298 40.22C133.788 40.22 132.585 39.758 131.69 38.834C130.796 37.8953 130.304 36.6193 130.216 35.006C130.202 34.8153 130.194 34.5733 130.194 34.28C130.194 33.972 130.202 33.7227 130.216 33.532C130.275 32.4907 130.517 31.5813 130.942 30.804C131.368 30.012 131.947 29.4033 132.68 28.978C133.428 28.5527 134.301 28.34 135.298 28.34C136.413 28.34 137.344 28.5747 138.092 29.044C138.855 29.5133 139.434 30.1807 139.83 31.046C140.226 31.9113 140.424 32.9233 140.424 34.082V34.456C140.424 34.6173 140.373 34.742 140.27 34.83C140.182 34.918 140.065 34.962 139.918 34.962H132.306C132.306 34.9767 132.306 35.006 132.306 35.05C132.306 35.094 132.306 35.1307 132.306 35.16C132.336 35.7613 132.468 36.326 132.702 36.854C132.937 37.3673 133.274 37.7853 133.714 38.108C134.154 38.4307 134.682 38.592 135.298 38.592C135.826 38.592 136.266 38.5113 136.618 38.35C136.97 38.1887 137.256 38.0127 137.476 37.822C137.696 37.6167 137.843 37.4627 137.916 37.36C138.048 37.1693 138.151 37.0593 138.224 37.03C138.298 36.986 138.415 36.964 138.576 36.964H139.632C139.779 36.964 139.896 37.008 139.984 37.096C140.087 37.1693 140.131 37.2793 140.116 37.426C140.102 37.646 139.984 37.9173 139.764 38.24C139.544 38.548 139.229 38.856 138.818 39.164C138.408 39.472 137.909 39.7287 137.322 39.934C136.736 40.1247 136.061 40.22 135.298 40.22ZM132.306 33.444H138.334V33.378C138.334 32.718 138.21 32.1313 137.96 31.618C137.726 31.1047 137.381 30.7013 136.926 30.408C136.472 30.1 135.929 29.946 135.298 29.946C134.668 29.946 134.125 30.1 133.67 30.408C133.23 30.7013 132.893 31.1047 132.658 31.618C132.424 32.1313 132.306 32.718 132.306 33.378V33.444Z" fill="black"/>
</svg>