<svg width="44" height="43" viewBox="0 0 44 43" fill="none" xmlns="http://www.w3.org/2000/svg">
<g filter="url(#filter0_d_1001_267)">
<path d="M29.334 39.3333C29.334 40.3416 28.509 41.1666 27.5007 41.1666H3.66732C2.65898 41.1666 1.83398 40.3416 1.83398 39.3333C1.83398 38.325 2.65898 37.5 3.66732 37.5H27.5007C28.509 37.5 29.334 38.325 29.334 39.3333ZM41.9657 10.1833C42.0757 9.10165 41.2323 8.16665 40.1507 8.16665H33.0007V2.66665C33.0007 1.65831 32.1757 0.833313 31.1673 0.833313C30.159 0.833313 29.334 1.65831 29.334 2.66665V8.16665H22.184C21.1023 8.16665 20.259 9.10165 20.3507 10.1833L20.7907 14.6016L33.0007 26.8116L39.6373 33.4483L41.9657 10.1833ZM38.849 40.4517C39.0189 40.282 39.1538 40.0806 39.2458 39.8588C39.3378 39.637 39.3851 39.3993 39.3851 39.1592C39.3851 38.919 39.3378 38.6813 39.2458 38.4595C39.1538 38.2377 39.0189 38.0363 38.849 37.8667L22.0007 21L16.519 15.5183L5.15232 4.15165C4.98271 3.98169 4.78125 3.84685 4.55946 3.75485C4.33768 3.66285 4.09993 3.6155 3.85982 3.6155C3.61971 3.6155 3.38196 3.66285 3.16017 3.75485C2.93839 3.84685 2.73693 3.98169 2.56732 4.15165C1.83398 4.86665 1.83398 6.02165 2.54898 6.73665L11.6973 15.885C7.00399 16.875 2.97065 19.6983 2.01732 24.3733C1.81565 25.4916 2.73232 26.5 3.85065 26.5H22.3123L25.979 30.1666H3.66732C2.65898 30.1666 1.83398 30.9916 1.83398 32C1.83398 33.0083 2.65898 33.8333 3.66732 33.8333H27.5007C28.0873 33.8333 28.5823 33.54 28.9307 33.1L36.264 40.4333C36.979 41.1667 38.134 41.1667 38.849 40.4517Z" fill="#AD43D7"/>
<path d="M40.7221 10.0568L40.7219 10.0588L38.6562 30.6994L33.8845 25.9278L21.9903 14.0335L21.5956 10.071C21.5685 9.70576 21.8525 9.41665 22.184 9.41665H29.334H30.584V8.16665V2.66665C30.584 2.34867 30.8493 2.08331 31.1673 2.08331C31.4853 2.08331 31.7507 2.34867 31.7507 2.66665V8.16665V9.41665H33.0007H40.1507C40.4881 9.41665 40.7576 9.70787 40.7221 10.0568ZM37.966 39.5669L37.9651 39.5678C37.7402 39.7926 37.3854 39.7929 37.159 39.5607L37.1535 39.555L37.1479 39.5494L29.8145 32.2161L28.8219 31.2235L28.8138 31.2337L26.8629 29.2828L23.1962 25.6161L22.8301 25.25H22.3123H3.85065C3.67163 25.25 3.49877 25.1686 3.37868 25.0317C3.26522 24.9024 3.22224 24.7528 3.24574 24.6054C4.06975 20.6072 7.54844 18.0376 11.9553 17.1081L14.2121 16.632L12.5812 15.0011L3.43287 5.85276C3.208 5.6279 3.20776 5.27303 3.43994 5.04665L3.44607 5.04068L3.45211 5.03462C3.50561 4.98101 3.56916 4.93848 3.63912 4.90946C3.70908 4.88044 3.78408 4.8655 3.85982 4.8655C3.93556 4.8655 4.01056 4.88044 4.08052 4.90946C4.15048 4.93848 4.21403 4.98101 4.26753 5.03462L4.26843 5.03553L15.6351 16.4022L21.1163 21.8834L21.1168 21.8839L37.9646 38.7501L37.966 38.7514C38.0196 38.8049 38.0622 38.8685 38.0912 38.9385C38.1202 39.0084 38.1351 39.0834 38.1351 39.1591C38.1351 39.2349 38.1202 39.3099 38.0912 39.3798C38.0622 39.4498 38.0196 39.5134 37.966 39.5669ZM25.979 31.4166H28.669L27.9506 32.3241C27.7923 32.5241 27.6354 32.5833 27.5007 32.5833H3.66732C3.34934 32.5833 3.08398 32.318 3.08398 32C3.08398 31.682 3.34934 31.4166 3.66732 31.4166H25.979ZM28.084 39.3333C28.084 39.6513 27.8186 39.9166 27.5007 39.9166H3.66732C3.34934 39.9166 3.08398 39.6513 3.08398 39.3333C3.08398 39.0153 3.34934 38.75 3.66732 38.75H27.5007C27.8186 38.75 28.084 39.0153 28.084 39.3333Z" stroke="#AD43D7" stroke-width="2.5"/>
</g>
<defs>
<filter id="filter0_d_1001_267" x="-2.16602" y="0.833313" width="48.1406" height="48.3333" filterUnits="userSpaceOnUse" color-interpolation-filters="sRGB">
<feFlood flood-opacity="0" result="BackgroundImageFix"/>
<feColorMatrix in="SourceAlpha" type="matrix" values="0 0 0 0 0 0 0 0 0 0 0 0 0 0 0 0 0 0 127 0" result="hardAlpha"/>
<feOffset dy="4"/>
<feGaussianBlur stdDeviation="2"/>
<feComposite in2="hardAlpha" operator="out"/>
<feColorMatrix type="matrix" values="0 0 0 0 0 0 0 0 0 0 0 0 0 0 0 0 0 0 0.25 0"/>
<feBlend mode="normal" in2="BackgroundImageFix" result="effect1_dropShadow_1001_267"/>
<feBlend mode="normal" in="SourceGraphic" in2="effect1_dropShadow_1001_267" result="shape"/>
</filter>
</defs>
</svg>
