<?xml version="1.0" encoding="iso-8859-1"?>
<!-- Generator: Adobe Illustrator 21.1.0, SVG Export Plug-In . SVG Version: 6.00 Build 0)  -->
<svg version="1.1" id="Layer_1" xmlns="http://www.w3.org/2000/svg" xmlns:xlink="http://www.w3.org/1999/xlink" x="0px" y="0px"
	 viewBox="0 0 442.894 449.976" style="enable-background:new 0 0 442.894 449.976;" xml:space="preserve">
<circle style="fill:#049948;" cx="221.447" cy="224.988" r="177.149"/>
<g>
	<defs>
		<rect id="SVGID_1_" width="442.894" height="449.976"/>
	</defs>
	<clipPath id="SVGID_2_">
		<use xlink:href="#SVGID_1_"  style="overflow:visible;"/>
	</clipPath>
</g>
<g>
	<defs>
		<rect id="SVGID_3_" width="442.894" height="449.976"/>
	</defs>
	<clipPath id="SVGID_4_">
		<use xlink:href="#SVGID_3_"  style="overflow:visible;"/>
	</clipPath>
	<path style="clip-path:url(#SVGID_4_);fill:#049948;" d="M21.518,313.772c-2.137,0-4.162-1.288-5.022-3.421
		C5.548,283.247,0,254.528,0,224.987C0,100.927,99.339,0,221.446,0c37.96,0,75.407,9.923,108.3,28.698
		c2.611,1.489,3.539,4.851,2.072,7.504c-1.466,2.657-4.776,3.6-7.389,2.107c-31.27-17.848-66.882-27.284-102.983-27.284
		c-116.124,0-210.595,95.982-210.595,213.962c0,28.097,5.278,55.411,15.685,81.18c1.136,2.818-0.188,6.036-2.961,7.192
		C22.903,313.639,22.204,313.772,21.518,313.772"/>
	<path style="clip-path:url(#SVGID_4_);fill:#049948;" d="M221.446,449.976c-37.807,0-75.129-9.852-107.929-28.485
		c-2.614-1.487-3.55-4.847-2.088-7.506c1.462-2.655,4.764-3.604,7.384-2.12c31.187,17.717,66.676,27.086,102.633,27.086
		c116.124,0,210.595-95.987,210.595-213.965c0-27.759-5.156-54.761-15.321-80.269c-1.125-2.824,0.214-6.036,2.993-7.181
		c2.775-1.138,5.941,0.217,7.065,3.039c10.693,26.832,16.116,55.228,16.116,84.411C442.894,349.045,343.553,449.976,221.446,449.976
		"/>
</g>
<g>
	<rect x="54.583" y="153.976" style="fill:none;" width="346.234" height="165"/>
	<path style="fill:#FDFEFE;" d="M114.521,278.222v-0.559c0-5.021,1.86-9.485,5.208-13.392l67.52-78.494h-57.848
		c-6.882,0-12.648-5.58-12.648-12.462c0-6.882,5.766-12.648,12.648-12.648h83.145c6.882,0,12.648,5.766,12.648,12.648v0.558
		c0,5.022-1.86,9.3-5.208,13.393l-67.52,78.493h60.08c6.882,0,12.648,5.767,12.648,12.648c0,6.883-5.767,12.463-12.648,12.463
		h-85.376C120.287,290.871,114.521,285.105,114.521,278.222z"/>
	<path style="fill:#FDFEFE;" d="M248.254,204.192c0-7.812,6.324-14.136,14.136-14.136c7.813,0,14.137,6.324,14.137,14.136v1.116
		c6.511-8.37,14.881-15.997,29.203-15.997c21.391,0,33.853,14.136,33.853,37.016v51.522c0,7.813-6.324,14.137-14.137,14.137
		c-7.812,0-14.136-6.324-14.136-14.137v-42.595c0-13.393-6.324-20.274-17.112-20.274c-10.789,0-17.671,6.882-17.671,20.274v42.595
		c0,7.813-6.324,14.137-14.137,14.137c-7.812,0-14.136-6.324-14.136-14.137V204.192z"/>
</g>
<g>
	<rect x="332.455" y="51.976" style="fill:none;" width="105" height="66"/>
	<path style="fill:#049948;" d="M352.744,88.048c-0.756-0.648-1.403-1.782-1.403-2.97c0-2.16,1.836-3.996,3.996-3.996
		c1.188,0,1.998,0.486,2.646,1.026c2.16,1.836,4.429,2.808,7.398,2.808c3.132,0,5.346-1.782,5.346-4.59v-0.108
		c0-3.078-2.754-4.806-7.397-4.806h-1.296c-1.944,0-3.564-1.62-3.564-3.564c0-1.134,0.486-2.106,1.782-3.402l7.344-7.398h-11.61
		c-1.943,0-3.563-1.62-3.563-3.564c0-1.944,1.62-3.564,3.563-3.564h18.414c2.431,0,4.213,1.404,4.213,3.672
		c0,2.052-0.973,3.186-2.484,4.644l-7.398,7.074c5.131,0.864,10.152,3.564,10.152,10.584v0.108c0,7.128-5.184,12.366-13.608,12.366
		C359.873,92.368,355.822,90.694,352.744,88.048z"/>
	<path style="fill:#049948;" d="M384.928,72.927v-0.108c0-10.962,6.804-19.548,16.849-19.548c9.99,0,16.74,8.478,16.74,19.44v0.108
		c0,10.962-6.75,19.548-16.849,19.548C391.57,92.368,384.928,83.89,384.928,72.927z M409.984,72.927v-0.108
		c0-6.858-3.349-12.042-8.316-12.042s-8.208,5.022-8.208,11.934v0.108c0,6.912,3.294,12.042,8.316,12.042
		C406.798,84.862,409.984,79.786,409.984,72.927z"/>
</g>
<g>
</g>
</svg>
