<svg width="1024" height="1024" viewBox="0 0 1024 1024" fill="none" xmlns="http://www.w3.org/2000/svg">
<g clip-path="url(#clip0_1176_1434)">
<circle cx="512" cy="512" r="469.041" fill="#FFCC00" stroke="#FFCC00" stroke-width="85.9178"/>
<path d="M121.479 516.609V488.036C121.479 395.969 140.65 329.666 178.991 289.127C217.332 248.588 267.029 228.319 328.081 228.319C387.424 228.319 433.214 243.093 465.45 272.643C497.685 302.192 513.803 346.15 513.803 404.516V430.525H418.195V396.457C418.195 364.954 410.746 341.022 395.85 324.66C381.197 308.297 359.096 300.116 329.547 300.116C297.067 300.116 271.913 313.304 254.086 339.678C236.502 365.809 227.711 406.836 227.711 462.76V542.251C227.711 597.931 236.869 639.08 255.185 665.699C273.5 692.318 298.776 705.627 331.012 705.627C359.829 705.627 381.563 697.446 396.216 681.084C410.869 664.478 418.195 638.225 418.195 602.327V575.219H513.803V607.455C514.047 660.204 498.052 701.476 465.816 731.27C433.824 761.063 387.669 775.96 327.349 775.96C262.633 775.96 212.081 755.324 175.694 714.053C139.551 672.781 121.479 606.967 121.479 516.609ZM548.603 673.392C548.603 640.423 561.668 614.049 587.799 594.268C613.929 574.242 648.973 564.23 692.931 564.23H777.184V538.588C777.184 520.516 772.666 506.962 763.63 497.927C754.839 488.647 740.43 484.007 720.405 484.007C700.868 484.007 685.849 488.036 675.348 496.095C664.847 503.91 659.597 515.388 659.597 530.529V538.588L569.849 538.221V527.598C569.849 497.56 583.769 473.139 611.609 454.335C639.693 435.287 678.157 425.763 726.999 425.763C775.841 425.763 812.594 434.798 837.26 452.87C861.925 470.941 874.257 500.613 874.257 541.885V688.044C874.257 702.697 875.356 716.617 877.554 729.804C879.752 742.747 883.293 753.981 888.177 763.505V769H793.302C789.639 762.895 786.586 755.568 784.144 747.021C781.946 738.23 780.359 729.194 779.382 719.914C771.079 733.59 757.036 746.044 737.255 757.278C717.474 768.267 692.443 773.762 662.161 773.762C626.75 773.762 598.91 765.215 578.641 748.12C558.616 731.025 548.603 706.116 548.603 673.392ZM644.211 667.164C644.211 683.526 648.973 695.859 658.498 704.162C668.266 712.465 682.186 716.617 700.258 716.617C719.55 716.617 737.133 709.779 753.007 696.103C769.125 682.427 777.184 667.042 777.184 649.948V616.247H722.603C695.984 616.247 676.203 620.398 663.26 628.701C650.561 636.76 644.211 649.581 644.211 667.164Z" fill="white"/>
</g>
<defs>
<clipPath id="clip0_1176_1434">
<rect width="1024" height="1024" fill="white"/>
</clipPath>
</defs>
</svg>
