<svg width="40" height="40" viewBox="0 0 40 40" fill="none" xmlns="http://www.w3.org/2000/svg">
<path d="M28 20.7444V26.2601H24.7713V21.0807C24.7713 19.8027 24.3004 18.9283 23.157 18.9283C22.2825 18.9283 21.7444 19.5336 21.5426 20.0718C21.4753 20.2735 21.4081 20.5426 21.4081 20.8789V26.2601H18.1794C18.1794 26.2601 18.2466 17.5157 18.1794 16.6413H21.4081V17.9865C21.8117 17.3139 22.6188 16.3722 24.3004 16.3722C26.3856 16.3722 28 17.7848 28 20.7444ZM14.8161 12C13.7399 12 13 12.7399 13 13.6816C13 14.6233 13.6726 15.3632 14.7489 15.3632C15.8924 15.3632 16.565 14.6233 16.565 13.6816C16.6323 12.6726 15.9596 12 14.8161 12ZM13.2018 26.2601H16.4305V16.6413H13.2018V26.2601Z" fill="#FFFFFF"/>
</svg>
