<svg width="350" height="350" viewBox="0 0 350 350" fill="none" xmlns="http://www.w3.org/2000/svg">
<g clip-path="url(#clip0_114_183)">
<path d="M0.402954 175.12C-0.0052884 78.9459 78.4044 0.103545 175.653 0.364415C270.948 0.619848 349.946 77.31 349.951 175.033C349.956 273.473 269.342 351.533 171.511 349.62C77.4246 347.777 0.206998 270.886 0.402954 175.12ZM231.931 54.3427C231.931 45.3535 224.991 38.4459 216.216 38.8644C211.187 39.1035 207.05 41.4622 203.441 44.8481C189.768 57.6687 176.072 70.4676 162.426 83.31C145.345 99.3806 128.264 115.451 111.254 131.598C105.223 137.326 98.675 142.549 93.3787 149.011C87.549 156.12 86.2209 168.484 98.2994 175.082C107.52 180.114 116.698 185.218 125.875 190.326C135.928 195.919 145.96 201.544 155.992 207.18C159.068 208.908 159.454 209.821 158.295 212.517C148.116 236.218 137.948 259.924 127.72 283.598C125.015 289.853 125.586 295.837 129.119 301.468C133.936 309.158 146.009 310.158 153.298 303.484C160.042 297.31 166.639 290.968 173.253 284.652C192.712 266.082 212.139 247.478 231.593 228.902C242.006 218.957 252.577 209.174 262.837 199.071C274.002 188.076 268.357 177.402 259.904 172.19C251.347 166.919 242.48 162.152 233.749 157.169C223.282 151.196 212.814 145.239 202.347 139.267C200.306 138.103 198.537 137.076 199.832 134.011C210.174 109.593 220.38 85.1198 230.641 60.6687C231.484 58.6361 231.985 56.5546 231.931 54.3427Z" fill="#6DBA4C"/>
<path d="M231.936 54.3425C231.985 56.5489 231.484 58.6359 230.635 60.6685C220.374 85.1196 210.168 109.592 199.826 134.011C198.525 137.076 200.3 138.103 202.341 139.266C212.808 145.239 223.276 151.201 233.743 157.168C242.479 162.152 251.346 166.918 259.898 172.19C268.351 177.402 273.996 188.076 262.832 199.071C252.571 209.168 242 218.957 231.587 228.902C212.133 247.478 192.706 266.082 173.247 284.652C166.633 290.967 160.036 297.31 153.292 303.484C146.003 310.158 133.93 309.152 129.113 301.467C125.586 295.837 125.014 289.853 127.714 283.598C137.947 259.918 148.115 236.217 158.289 212.516C159.448 209.821 159.062 208.908 155.986 207.179C145.96 201.543 135.923 195.918 125.869 190.326C116.692 185.217 107.509 180.12 98.2935 175.082C86.215 168.484 87.5431 156.125 93.3728 149.011C98.6691 142.549 105.217 137.326 111.248 131.598C128.259 115.451 145.339 99.3804 162.42 83.3098C176.072 70.4674 189.762 57.6685 203.435 44.848C207.044 41.4675 211.181 39.1088 216.21 38.8642C224.99 38.4458 231.936 45.3589 231.936 54.3425Z" fill="#FDFEFD"/>
</g>
<defs>
<clipPath id="clip0_114_183">
<rect width="350" height="350" fill="white"/>
</clipPath>
</defs>
</svg>
