<svg width="350" height="350" viewBox="0 0 350 350" fill="none" xmlns="http://www.w3.org/2000/svg">
<path d="M60.9727 258.624L56.2781 261.775C54.0502 263.266 51.0374 262.662 49.5518 260.439L49.1455 259.834C47.66 257.598 48.2624 254.573 50.4765 253.082L55.1433 249.96C51.976 244.853 49.1313 239.55 46.6231 234.036L33.1281 239.649C30.5776 240.704 27.6628 239.494 26.5978 236.934L26.4296 236.526C25.3786 233.966 26.5838 231.04 29.1342 229.971L42.6432 224.358C40.7374 219.182 39.1258 213.865 37.8366 208.435L32.4974 209.505C29.877 210.025 27.3125 208.323 26.794 205.678L26.6538 204.961C26.1353 202.331 27.831 199.757 30.4655 199.236L35.7906 198.167C34.8517 192.386 34.2631 186.492 34.0529 180.5H0.0703125C1.61179 225.104 19.7032 265.489 48.3889 295.647L71.9873 271.959C68.0498 267.768 64.3783 263.308 60.9727 258.624Z" fill="#6DBB4C"/>
<path d="M305.34 174.663C305.34 102.629 247.17 44.2251 175.393 44.2251C103.616 44.2251 45.4463 102.615 45.4463 174.663C45.4463 246.71 103.616 305.1 175.393 305.1C247.17 305.1 305.34 246.696 305.34 174.663ZM175.043 66.1826C187.655 66.1826 197.871 76.437 197.871 89.0969C197.871 101.756 187.655 112.011 175.043 112.011C162.431 112.011 152.215 101.756 152.215 89.0969C152.215 76.437 162.431 66.1826 175.043 66.1826ZM258.871 142.071C256.601 142 254.331 142.113 251.29 142.155C240.401 142.563 228.728 142.282 217.055 142.647C214.056 142.746 210.987 142.788 208.073 143.407C203.813 144.307 200.365 146.628 198.739 150.933C197.731 153.619 197.254 156.405 197.184 159.316C196.974 166.659 198.613 173.734 199.903 180.866C202.649 196.142 205.452 211.418 208.255 226.68C210.749 240.226 213.271 253.772 215.78 267.318C216.2 269.569 216.438 271.819 216.466 274.112C216.551 281.849 207.68 286.111 201.626 283.776C197.997 282.383 195.937 279.795 195.236 275.969C192.237 259.764 189.182 243.574 186.169 227.383C184.992 221.082 183.927 214.752 182.344 208.549C181.615 205.693 180.55 202.978 177.859 201.318C174.664 199.349 172.114 199.87 169.97 203.006C168.498 205.173 167.503 207.55 166.691 210.04C165.331 214.189 164.701 218.494 163.93 222.77C161.968 233.559 160.048 244.347 158.114 255.136C157.064 261.03 156.026 266.924 154.961 272.804C154.387 275.912 153.448 278.838 151.206 281.244C147.128 285.646 138.776 285.225 135.427 280.217C133.717 277.671 133.759 274.618 134.236 271.735C136.309 259.131 138.51 246.556 140.696 233.981C143.666 216.918 146.693 199.856 149.608 182.779C150.449 177.884 151.346 172.947 151.654 167.995C152.005 162.087 152.173 156.109 149.706 150.468C147.73 145.939 144.521 143.252 139.421 143.182C132.133 143.084 124.847 142.985 117.559 142.858C108.955 142.704 100.365 142.563 91.7608 142.296C85.1185 142.085 81.1806 137.443 81.4188 130.733C81.573 126.359 83.6191 123.278 87.1784 121.154C89.3786 119.832 91.957 120.071 94.4513 120.099C103 120.198 111.562 120.24 120.11 120.394C132.162 120.619 144.199 120.198 156.237 120.254C159.992 120.268 163.734 120.324 167.475 120.296C181.993 120.183 196.511 119.973 211.029 119.916C226.136 119.86 241.242 119.902 256.349 119.959C263.818 119.987 269.409 126.443 268.12 133.814C267.405 138.146 264.406 142.239 258.871 142.071Z" fill="#6DBB4C"/>
<path d="M315.961 180.514C315.737 186.886 315.078 193.159 314.041 199.278L319.913 200.502C322.534 201.051 324.215 203.625 323.669 206.255L323.515 206.973C322.968 209.603 320.403 211.291 317.783 210.742L311.897 209.519C310.65 214.54 309.151 219.463 307.385 224.246L321.132 229.957C323.683 231.012 324.888 233.952 323.837 236.512L323.669 236.92C322.618 239.48 319.689 240.69 317.139 239.635L303.405 233.924C300.939 239.367 298.122 244.628 295.011 249.678L300.084 253.082C302.312 254.573 302.915 257.598 301.415 259.834L301.009 260.439C299.524 262.676 296.511 263.28 294.283 261.775L289.196 258.357C285.832 263.013 282.189 267.458 278.279 271.664L301.92 295.394C330.465 265.264 348.459 224.977 350 180.5H315.961V180.514Z" fill="#6DBB4C"/>
<path d="M35.8744 151.903L30.6755 150.82C28.0549 150.271 26.3733 147.697 26.9199 145.067L27.074 144.349C27.6205 141.719 30.185 140.031 32.8055 140.579L37.9625 141.663C39.2937 136.177 40.9334 130.831 42.8812 125.627L29.148 119.916C26.5975 118.861 25.3924 115.921 26.4434 113.361L26.6116 112.953C27.6626 110.393 30.5914 109.183 33.1418 110.238L46.9031 115.963C49.2571 110.857 51.8918 105.92 54.8205 101.166L50.4906 98.2537C48.2623 96.7625 47.6598 93.7382 49.1592 91.5016L49.5655 90.8967C51.0511 88.6602 54.0638 88.0553 56.2922 89.5605L60.6221 92.4724C64.0134 87.7603 67.6992 83.2588 71.6228 79.0107L47.3795 54.0288C18.8621 84.511 1.06502 125.205 0 170.062H34.0527C34.2769 163.888 34.8935 157.839 35.8744 151.903Z" fill="#6DBB4C"/>
<path d="M151.807 321.037C151.289 323.668 148.738 325.384 146.104 324.863L145.389 324.723C142.769 324.202 141.059 321.642 141.577 318.998L142.741 313.146C136.967 311.796 131.347 310.08 125.868 308.04L120.319 321.487C119.268 324.047 116.339 325.257 113.789 324.202L113.382 324.033C110.832 322.979 109.627 320.039 110.678 317.479L116.227 304.031C111.112 301.668 106.151 299.024 101.387 296.084L98.1498 300.937C96.6643 303.173 93.6515 303.778 91.4231 302.273L90.8207 301.865C88.5927 300.374 87.9898 297.349 89.4893 295.113L92.7125 290.274C88.0318 286.898 83.5759 283.241 79.3578 279.331L55.7871 302.99C85.9018 331.123 125.882 348.734 169.941 350V331.39V316.775C164.195 316.564 158.52 316.03 152.97 315.158L151.807 321.037Z" fill="#6DBB4C"/>
<path d="M257.679 290.007L261.084 295.127C262.57 297.363 261.968 300.387 259.753 301.879L259.151 302.287C256.923 303.778 253.909 303.173 252.424 300.95L249.019 295.83C244.198 298.812 239.196 301.513 234.01 303.918L239.602 317.478C240.653 320.038 239.448 322.964 236.897 324.033L236.491 324.202C233.941 325.257 231.026 324.047 229.961 321.487L224.369 307.941C218.988 309.953 213.467 311.655 207.805 313.005L208.996 318.983C209.515 321.614 207.819 324.188 205.185 324.708L204.47 324.849C201.85 325.369 199.285 323.668 198.767 321.023L197.576 315.045C191.956 315.945 186.239 316.522 180.423 316.747V349.972C224.496 348.635 264.462 330.94 294.521 302.751L270.908 279.049C266.76 282.973 262.332 286.631 257.679 290.007Z" fill="#6DBB4C"/>
<path d="M92.7272 59.6977L89.5043 54.8588C88.0187 52.6222 88.6212 49.5982 90.8353 48.1071L91.4382 47.6992C93.6662 46.208 96.6789 46.8129 98.1645 49.0354L101.402 53.8884C106.166 50.9625 111.127 48.304 116.242 45.941L110.692 32.4934C109.642 29.9333 110.847 27.0075 113.397 25.9384L113.803 25.7696C116.354 24.7147 119.269 25.9244 120.334 28.4844L125.883 41.9319C131.348 39.8923 136.982 38.1762 142.755 36.8258L141.592 30.9742C141.074 28.3438 142.769 25.7696 145.404 25.2492L146.118 25.1085C148.739 24.588 151.304 26.2901 151.822 28.9346L152.985 34.8143C158.548 33.9422 164.21 33.3936 169.955 33.1967V18.5958V0C125.883 1.26597 85.9025 18.8771 55.8018 46.9958L79.3724 70.6414C83.5905 66.7308 88.0469 63.0736 92.7272 59.6977Z" fill="#6DBB4C"/>
<path d="M198.795 28.9627C199.313 26.3323 201.863 24.6162 204.498 25.1366L205.213 25.2773C207.833 25.7977 209.543 28.3579 209.025 31.0023L207.833 36.9805C213.495 38.3309 219.03 40.0328 224.397 42.0444L229.989 28.4985C231.039 25.9384 233.968 24.7287 236.519 25.7837L236.925 25.9525C239.476 27.0075 240.681 29.9473 239.63 32.5074L234.038 46.0675C239.224 48.4586 244.226 51.1735 249.047 54.1558L252.452 49.0354C253.938 46.7989 256.951 46.194 259.179 47.6992L259.781 48.1071C262.009 49.5982 262.612 52.6222 261.113 54.8588L257.707 59.9791C262.346 63.355 266.774 67.0122 270.978 70.9229L294.563 47.2208C264.49 19.0318 224.523 1.33631 180.465 0V33.2248C186.281 33.4499 191.998 34.0125 197.618 34.9269L198.795 28.9627Z" fill="#6DBB4C"/>
<path d="M288.887 92.4445L293.217 89.5327C295.445 88.0415 298.458 88.6464 299.944 90.8689L300.35 91.4738C301.836 93.7103 301.233 96.7347 299.019 98.2258L294.689 101.137C297.604 105.892 300.252 110.829 302.606 115.935L316.367 110.21C318.918 109.155 321.833 110.365 322.898 112.925L323.066 113.333C324.117 115.893 322.912 118.819 320.361 119.888L306.628 125.599C308.576 130.804 310.215 136.163 311.547 141.634L316.704 140.552C319.324 140.003 321.889 141.691 322.435 144.321L322.59 145.039C323.136 147.669 321.454 150.243 318.834 150.792L313.635 151.875C314.616 157.811 315.233 163.873 315.457 170.035H349.51C348.445 125.177 330.633 84.4827 302.13 54.001L277.887 78.9828C281.824 83.245 285.496 87.7321 288.887 92.4445Z" fill="#6DBB4C"/>
</svg>
