<svg width="1024" height="1024" viewBox="0 0 1024 1024" fill="none" xmlns="http://www.w3.org/2000/svg">
<g clip-path="url(#clip0_1494_12908)">
<circle cx="512" cy="512" r="512" fill="#8DC6FF"/>
<path d="M219.984 713.86H138.05V333.45H233.361L330.902 548.319H333.689L431.509 333.45H525.706V713.86H442.935V478.368H439.033L358.771 656.45H304.706L224.165 478.368H219.984V713.86Z" fill="white"/>
<path d="M727.755 760.122C763.148 760.122 782.378 739.778 782.378 703.827V662.302H778.476C767.607 688.778 737.509 709.122 695.148 709.122C628.82 709.122 585.066 660.909 585.066 568.106V553.614C585.066 461.368 628.542 412.876 695.148 412.876C736.673 412.876 767.607 432.942 779.034 461.368H782.935V416.22H871.558V711.352C871.558 795.794 793.804 822.827 726.083 822.827C634.673 822.827 593.984 779.909 591.197 730.302H676.197C680.935 748.975 700.722 760.122 727.755 760.122ZM730.263 482.27C697.935 482.27 677.312 507.352 677.312 555.286V572.007C677.312 619.663 697.935 645.302 730.263 645.302C762.033 645.302 782.378 619.663 782.378 572.007V555.286C782.378 507.909 761.476 482.27 730.263 482.27Z" fill="white"/>
</g>
<defs>
<clipPath id="clip0_1494_12908">
<rect width="1024" height="1024" fill="white"/>
</clipPath>
</defs>
</svg>
