<svg width="722" height="531" viewBox="0 0 722 531" fill="none" xmlns="http://www.w3.org/2000/svg">
<path d="M64.3644 253.678C64.3644 253.678 56.3242 253.1 57.0645 271.137C57.8048 289.175 59.6454 298.782 59.6454 298.782C59.6454 298.782 59.4095 302.782 56.3117 301.997C53.2138 301.212 47.3877 297.32 44.5094 300.229C41.5251 303.246 42.586 307.875 46.5444 313.326C50.5029 318.778 58.7385 331.039 59.4788 332.151C60.2056 333.243 60.4973 335.289 58.3015 335.092C56.1056 334.896 41.2854 329.873 39.3225 337.047C37.3596 344.223 50.8841 357.597 52.3349 359.088C53.7856 360.578 53.8636 361.519 53.2754 362.42C52.6872 363.322 47.8643 361.164 43.591 359.909C39.3167 358.652 34.1414 357.946 33.3559 362.181C32.5704 366.415 38.5274 378.808 60.8352 391.832L71.567 397.19L81.7251 390.711C102.618 375.52 107.305 362.595 106.101 358.46C104.896 354.325 99.8165 355.547 95.6905 357.224C91.5636 358.901 86.9813 361.531 86.3055 360.692C85.6297 359.854 85.6133 358.909 86.9071 357.282C88.201 355.654 100.32 340.993 97.6495 334.051C94.9791 327.108 80.7355 333.588 78.5704 334.003C76.4054 334.418 76.4911 332.353 77.1053 331.195C77.731 330.015 84.6988 316.991 88.0922 311.171C91.4856 305.351 92.0786 300.64 88.8074 297.936C85.6528 295.329 80.2445 299.784 77.241 300.875C74.2375 301.966 73.6021 298.01 73.6021 298.01C73.6021 298.01 74.4724 288.267 73.4048 270.246C72.3372 252.225 64.2017 253.679 64.2017 253.679" fill="#EBEBEB"/>
<path d="M64.9991 269.833C64.9991 269.833 65.0203 269.96 65.0424 270.209C65.0626 270.476 65.0915 270.844 65.1281 271.316C65.1955 272.31 65.2927 273.741 65.4169 275.576C65.6633 279.276 65.98 284.631 66.3449 291.25C67.0804 304.488 67.94 322.783 68.8228 342.991C69.7056 363.206 70.52 381.503 71.1813 394.744C71.5173 401.35 71.7897 406.702 71.9784 410.423C72.0699 412.259 72.1411 413.692 72.1902 414.685C72.2095 415.159 72.2239 415.528 72.2355 415.794C72.2432 416.045 72.2364 416.173 72.2364 416.173C72.2364 416.173 72.2152 416.046 72.1931 415.796C72.1729 415.53 72.144 415.162 72.1074 414.689C72.04 413.697 71.9428 412.265 71.8186 410.43C71.5722 406.732 71.2555 401.377 70.8906 394.757C70.1551 381.52 69.2955 363.222 68.4117 343.007C67.529 322.799 66.7155 304.504 66.0542 291.264C65.7182 284.658 65.4458 279.306 65.2561 275.584C65.1647 273.747 65.0934 272.314 65.0443 271.32C65.0251 270.847 65.0106 270.478 64.9991 270.21C64.9924 269.962 64.9991 269.833 64.9991 269.833Z" fill="#E0E0E0"/>
<path d="M52.4409 306.002C52.4611 305.982 52.6979 306.18 53.109 306.558C53.5219 306.932 54.1015 307.493 54.8119 308.193C56.228 309.596 58.1331 311.586 60.1932 313.82C62.209 316.026 64.0323 318.02 65.4417 319.563C66.0684 320.243 66.6007 320.821 67.0387 321.295C67.4171 321.703 67.6173 321.938 67.598 321.959C67.5788 321.98 67.3401 321.783 66.9261 321.409C66.5141 321.032 65.9336 320.471 65.2309 319.764C63.8282 318.347 61.9501 316.333 59.89 314.099C57.8588 311.909 56.0229 309.929 54.602 308.396C53.9715 307.72 53.4353 307.144 52.9954 306.671C52.619 306.259 52.4206 306.022 52.4409 306.002Z" fill="#E0E0E0"/>
<path d="M68.6633 321.605C68.5825 321.525 72.5073 317.416 77.4284 312.426C82.3515 307.435 86.4063 303.455 86.4871 303.535C86.568 303.615 82.6441 307.724 77.7211 312.715C72.7999 317.704 68.7442 321.684 68.6633 321.605Z" fill="#E0E0E0"/>
<path d="M68.6196 352.704C68.607 352.679 68.8737 352.511 69.3676 352.229C69.9403 351.907 70.6412 351.513 71.4671 351.05C73.2384 350.055 75.6798 348.672 78.3184 347.049C80.9619 345.432 83.305 343.888 84.9926 342.758C85.7801 342.232 86.4481 341.787 86.9949 341.423C87.4705 341.111 87.741 340.948 87.7583 340.971C87.7747 340.994 87.536 341.199 87.0893 341.553C86.6416 341.905 85.9851 342.402 85.1591 342.997C83.5101 344.19 81.1853 345.779 78.5331 347.401C75.8858 349.028 73.4136 350.375 71.6038 351.306C70.697 351.768 69.9586 352.133 69.4407 352.37C68.9238 352.609 68.6321 352.729 68.6196 352.704Z" fill="#E0E0E0"/>
<path d="M50.8406 341.82C50.855 341.796 51.1188 341.921 51.5828 342.169C52.0468 342.416 52.712 342.786 53.5283 343.25C55.162 344.178 57.405 345.485 59.8684 346.95C62.3329 348.416 64.5528 349.762 66.1479 350.755C66.946 351.251 67.5881 351.659 68.027 351.948C68.466 352.238 68.7019 352.41 68.6874 352.435C68.673 352.459 68.4092 352.333 67.9452 352.086C67.4812 351.839 66.816 351.469 65.9997 351.005C64.366 350.077 62.123 348.77 59.6586 347.304C57.1951 345.838 54.9762 344.492 53.3801 343.5C52.582 343.004 51.9399 342.596 51.5009 342.306C51.061 342.017 50.8252 341.844 50.8406 341.82Z" fill="#E0E0E0"/>
<path d="M47.313 369.271C47.3274 369.246 47.6624 369.41 48.2574 369.727C48.9187 370.092 49.7562 370.554 50.7555 371.105C52.8551 372.284 55.7421 373.937 58.9179 375.784C62.0947 377.632 64.9587 379.326 67.0207 380.569C67.994 381.164 68.8093 381.664 69.4524 382.059C70.0223 382.419 70.3303 382.63 70.3159 382.654C70.3015 382.679 69.9665 382.514 69.3715 382.197C68.7102 381.833 67.8727 381.37 66.8734 380.82C64.7738 379.641 61.8858 377.988 58.71 376.139C55.5342 374.292 52.6702 372.599 50.6082 371.356C49.6349 370.759 48.8196 370.259 48.1755 369.865C47.6066 369.506 47.2985 369.295 47.313 369.271Z" fill="#E0E0E0"/>
<path d="M69.8559 382.179C69.8424 382.154 70.1755 381.934 70.7887 381.554C71.4712 381.138 72.3472 380.605 73.3975 379.966C75.5991 378.624 78.6335 376.761 81.9267 374.612C85.2239 372.468 88.159 370.45 90.274 368.977C91.2839 368.275 92.1262 367.691 92.7818 367.235C93.3767 366.826 93.7136 366.611 93.73 366.634C93.7473 366.656 93.4422 366.915 92.8761 367.364C92.3101 367.812 91.4812 368.447 90.4425 369.214C88.3679 370.749 85.4539 372.809 82.1501 374.958C78.851 377.111 75.7859 378.938 73.5438 380.217C72.4214 380.853 71.5068 381.36 70.8676 381.694C70.2294 382.03 69.8693 382.204 69.8559 382.179Z" fill="#E0E0E0"/>
<path d="M85.9835 400.701H56.293L65.9832 474.054H76.2924L85.9835 400.701Z" fill="#E0E0E0"/>
<path d="M57.8357 409.717C57.8242 409.725 57.8685 409.821 57.9946 409.978C58.1207 410.134 58.3537 410.337 58.7108 410.49C59.4145 410.796 60.6506 410.821 61.8462 410.105C63.0447 409.444 64.0892 408.145 65.6959 407.57C67.2891 406.962 69.2636 407.071 71.1552 407.679C73.07 408.271 74.7325 409.241 76.239 410.143C77.7485 411.041 79.1319 411.842 80.3727 412.361C81.605 412.899 82.6783 413.147 83.4215 413.242C83.7941 413.291 84.0848 413.307 84.2831 413.301C84.4804 413.301 84.5834 413.292 84.5844 413.276C84.6008 413.179 82.9036 413.194 80.5123 412.049C79.3138 411.501 77.967 410.681 76.4691 409.76C74.9789 408.84 73.275 407.828 71.2986 407.217C69.3454 406.588 67.2449 406.475 65.5361 407.154C64.6822 407.48 63.965 407.99 63.3672 408.495C62.7608 408.997 62.2178 409.47 61.6681 409.812C60.5822 410.514 59.4415 410.543 58.7763 410.314C58.0928 410.077 57.8733 409.677 57.8357 409.717Z" fill="#F5F5F5"/>
<path d="M58.917 423.227C58.9565 423.252 59.1519 422.925 59.6169 422.44C60.0896 421.969 60.8635 421.353 61.9879 420.936C63.1017 420.509 64.5332 420.254 66.1168 420.314C67.7071 420.369 69.4399 420.718 71.2834 421.018C73.1231 421.327 74.9454 421.465 76.5733 421.237C78.2002 421.028 79.6144 420.56 80.7359 420.049C81.8603 419.536 82.692 418.975 83.2388 418.561C83.7866 418.146 84.0474 417.867 84.032 417.848C83.9762 417.768 82.8297 418.794 80.5992 419.736C79.4863 420.195 78.101 420.616 76.5203 420.794C74.9396 420.991 73.1895 420.846 71.3605 420.54C69.5324 420.244 67.7716 419.901 66.1312 419.868C64.488 419.832 63.0074 420.131 61.8609 420.619C60.7037 421.096 59.9221 421.788 59.4783 422.315C59.2645 422.589 59.1086 422.807 59.0287 422.973C58.9411 423.132 58.9026 423.219 58.917 423.227Z" fill="#F5F5F5"/>
<path d="M82.6213 430.461C82.6328 430.439 82.3575 430.253 81.803 430.036C81.2504 429.818 80.4071 429.593 79.3424 429.509C78.2787 429.424 77.0051 429.493 75.6227 429.721C74.2384 429.946 72.7539 430.328 71.1954 430.659C69.6378 430.987 68.1351 431.208 66.7738 431.159C65.4136 431.111 64.2035 430.814 63.264 430.399C61.354 429.561 60.6734 428.34 60.6012 428.417C60.5829 428.428 60.7177 428.734 61.1037 429.192C61.4859 429.649 62.154 430.233 63.1196 430.709C64.0832 431.183 65.3376 431.529 66.7546 431.603C68.1745 431.68 69.7196 431.464 71.2955 431.132C72.8714 430.797 74.3443 430.404 75.6987 430.159C77.0522 429.911 78.2893 429.81 79.3232 429.848C81.4064 429.919 82.5914 430.549 82.6213 430.461Z" fill="#F5F5F5"/>
<path d="M61.5417 440.633C61.5561 440.711 62.6016 439.973 64.4239 440.342C65.3173 440.503 66.3165 440.957 67.44 441.467C68.5586 441.989 69.9073 442.435 71.3542 442.546C74.271 442.826 76.8654 441.884 78.4567 440.9C79.2721 440.417 79.8401 439.896 80.2242 439.541C80.5852 439.156 80.771 438.935 80.7469 438.912C80.6824 438.841 79.9017 439.719 78.2844 440.603C76.695 441.483 74.1902 442.332 71.3965 442.063C68.5855 441.902 66.4282 440.226 64.4788 440.005C63.5287 439.862 62.7344 439.999 62.2396 440.199C61.7391 440.395 61.5273 440.616 61.5417 440.633Z" fill="#F5F5F5"/>
<path d="M63.1935 454.713C63.1925 454.769 64.1889 454.762 65.6685 454.221C67.1606 453.723 69.008 452.578 71.1653 451.721C72.2473 451.309 73.3332 451.055 74.32 451.061C75.3077 451.066 76.1895 451.306 76.8566 451.639C78.2207 452.318 78.6154 453.284 78.6905 453.222C78.7116 453.212 78.652 452.971 78.4084 452.596C78.1687 452.224 77.7143 451.737 77.0174 451.337C76.3223 450.94 75.3885 450.645 74.3257 450.614C73.261 450.583 72.1135 450.841 70.992 451.269C68.7567 452.16 66.9681 453.337 65.5424 453.903C64.1359 454.509 63.1819 454.635 63.1935 454.713Z" fill="#F5F5F5"/>
<path d="M64.6507 461.263C64.6343 461.324 65.3457 461.58 66.5308 461.873C67.7139 462.168 69.3754 462.482 71.2295 462.666C73.0856 462.847 74.775 462.862 75.9938 462.803C77.2125 462.746 77.9605 462.634 77.9567 462.571C77.9489 462.425 74.9483 462.553 71.2777 462.184C67.6061 461.832 64.6872 461.122 64.6507 461.263Z" fill="#F5F5F5"/>
<path d="M666.343 97.4954L611.687 77.8676L557.562 97.2307C550.653 100.494 544.592 102.448 544.592 108.885V140.934C544.592 163.191 550.424 185.245 562.421 204.717C572.518 221.103 588.152 237.974 612.218 248.697C634.342 241.51 650.856 222.352 660.952 205.967C672.951 186.495 678.782 164.44 678.782 142.183V113.364C678.782 104.185 673.917 99.7028 666.343 97.4954Z" fill="#F5F5F5"/>
<path d="M612.218 230.098C593.177 221.614 580.808 207.981 572.82 195.017C563.327 179.612 558.714 162.163 558.714 144.553V122.073C558.714 116.981 561.786 112.211 567.886 109.363L611.697 92.9815L611.688 77.8676L557.562 97.2307C551.881 99.7124 544.592 102.448 544.592 108.885V140.934C544.592 163.191 550.424 185.245 562.421 204.717C572.518 221.103 588.152 237.974 612.218 248.697V230.098Z" fill="#EBEBEB"/>
<path d="M612.217 248.698C616.05 247.414 619.573 245.936 622.955 244.093C632.029 239.15 639.769 232.362 645.676 226.218C652.284 219.346 657.208 211.919 661.482 204.982C673.48 185.51 679.312 163.455 678.78 140.584L678.814 114.125C678.781 100.949 672.023 99.9772 666.342 97.4954L611.686 77.8676L611.695 92.9815L656.017 109.627C662.118 112.475 665.19 117.245 665.19 122.337V144.819C665.19 162.428 660.576 179.878 651.084 195.282C643.095 208.246 631.258 221.614 612.217 230.098V248.698Z" fill="#E0E0E0"/>
<path d="M626.184 143.112L626.245 138.787C626.245 130.962 619.879 124.596 612.054 124.596C604.229 124.596 597.863 130.962 597.863 138.765L597.802 143.171C593.972 143.738 591.031 147.029 591.031 151.016V176.528C591.031 180.913 594.586 184.469 598.972 184.469H625.459C629.845 184.469 633.4 180.914 633.4 176.528V151.016C633.4 146.875 630.229 143.479 626.184 143.112ZM615.838 170.179H608.911L609.992 165.176C608.792 164.431 607.992 163.105 607.992 161.59C607.992 159.257 609.882 157.367 612.216 157.367C614.548 157.367 616.439 159.258 616.439 161.59C616.439 163.051 615.697 164.338 614.569 165.097C615.059 167.036 615.838 170.179 615.838 170.179ZM623.127 143.076H600.861L600.921 138.787C600.921 132.648 605.915 127.654 612.054 127.654C618.193 127.654 623.187 132.648 623.187 138.765L623.127 143.076Z" fill="#E0E0E0"/>
<path d="M567.569 142.8C567.449 142.818 567.069 141.131 566.75 138.362C566.421 135.594 566.179 131.737 566.306 127.481C566.367 125.352 566.507 123.327 566.701 121.493C566.877 119.66 567.213 117.941 567.922 116.656C568.617 115.363 569.587 114.593 570.316 114.251C571.058 113.906 571.52 113.922 571.526 113.974C571.619 114.095 569.68 114.476 568.526 116.96C567.957 118.161 567.705 119.757 567.578 121.573C567.434 123.394 567.322 125.4 567.262 127.507C567.137 131.721 567.269 135.54 567.424 138.304C567.568 141.069 567.709 142.782 567.569 142.8Z" fill="white"/>
<path d="M568.372 156.751C568.108 156.757 567.867 155.439 567.836 153.81C567.804 152.181 567.992 150.855 568.255 150.85C568.519 150.845 568.759 152.161 568.791 153.792C568.824 155.421 568.636 156.747 568.372 156.751Z" fill="white"/>
<path d="M690.828 474.119C690.828 474.257 543.884 474.369 362.661 474.369C181.375 474.369 34.4629 474.256 34.4629 474.119C34.4629 473.981 181.375 473.868 362.661 473.868C543.884 473.867 690.828 473.98 690.828 474.119Z" fill="#263238"/>
<path d="M573.707 105.072H155.979C148.777 105.072 142.939 110.909 142.939 118.11V413.161C142.939 420.362 148.777 426.201 155.979 426.201H316.302C316.302 426.201 326.501 457.737 294.886 474.054H444.796C444.796 474.054 409.102 461.817 418.28 426.201H573.708C580.908 426.201 586.746 420.362 586.746 413.161V118.111C586.746 110.909 580.909 105.072 573.707 105.072Z" fill="#455A64"/>
<path d="M370.419 395.17C376.102 403.291 367.208 412.185 359.084 406.504C358.817 406.315 358.573 406.072 358.387 405.804C352.719 397.685 361.602 388.802 369.72 394.471C369.988 394.659 370.231 394.902 370.419 395.17Z" fill="#263238"/>
<path d="M579.554 372.223H150.133V119.812C150.133 114.656 154.313 110.477 159.468 110.477H570.218C575.374 110.477 579.553 114.657 579.553 119.812V372.223H579.554Z" fill="white"/>
<path d="M579.554 132.227H150.133V119.289C150.133 114.423 154.078 110.477 158.945 110.477H572.32C576.316 110.477 579.555 113.716 579.555 117.712L579.554 132.227Z" fill="#EBEBEB"/>
<path d="M163.806 124.825C165.472 124.825 166.823 123.474 166.823 121.808C166.823 120.141 165.472 118.791 163.806 118.791C162.14 118.791 160.789 120.141 160.789 121.808C160.789 123.474 162.14 124.825 163.806 124.825Z" fill="#E0E0E0"/>
<path d="M172.801 124.824C174.467 124.824 175.817 123.473 175.817 121.808C175.817 120.142 174.467 118.792 172.801 118.792C171.135 118.792 169.785 120.142 169.785 121.808C169.785 123.473 171.135 124.824 172.801 124.824Z" fill="#E0E0E0"/>
<path d="M181.352 124.824C183.018 124.824 184.368 123.473 184.368 121.808C184.368 120.142 183.018 118.792 181.352 118.792C179.686 118.792 178.336 120.142 178.336 121.808C178.336 123.473 179.686 124.824 181.352 124.824Z" fill="#E0E0E0"/>
<path d="M499.024 426.242C499.024 426.381 439.581 426.493 366.271 426.493C292.936 426.493 233.506 426.381 233.506 426.242C233.506 426.104 292.936 425.992 366.271 425.992C439.58 425.992 499.024 426.104 499.024 426.242Z" fill="#263238"/>
<path d="M431.169 169.059L365.693 144.941L300.853 168.735C292.576 172.745 285.314 175.146 285.314 183.055V222.436C285.314 249.784 292.301 276.885 306.674 300.812C318.769 320.946 337.498 341.676 366.33 354.853C392.834 346.022 412.617 322.481 424.711 302.348C439.085 278.422 446.07 251.322 446.07 223.972V188.559C446.07 177.279 440.243 171.772 431.169 169.059Z" fill="#1686FF"/>
<g opacity="0.8">
<path d="M431.169 169.059L365.693 144.941L300.853 168.735C292.576 172.745 285.314 175.146 285.314 183.055V222.436C285.314 249.784 292.301 276.885 306.674 300.812C318.769 320.946 337.498 341.676 366.33 354.853C392.834 346.022 412.617 322.481 424.711 302.348C439.085 278.422 446.07 251.322 446.07 223.972V188.559C446.07 177.279 440.243 171.772 431.169 169.059Z" fill="white"/>
</g>
<path d="M405.677 268.751H393.645V203.266C393.645 187.853 381.106 175.314 365.692 175.314C350.279 175.314 337.739 187.853 337.739 203.266V268.751H325.709V203.266C325.709 181.219 343.646 163.282 365.693 163.282C387.74 163.282 405.678 181.219 405.678 203.266V268.751H405.677Z" fill="#1686FF"/>
<g opacity="0.4">
<path d="M405.677 268.751H393.645V203.266C393.645 187.853 381.106 175.314 365.692 175.314C350.279 175.314 337.739 187.853 337.739 203.266V268.751H325.709V203.266C325.709 181.219 343.646 163.282 365.693 163.282C387.74 163.282 405.678 181.219 405.678 203.266V268.751H405.677Z" fill="black"/>
</g>
<path d="M413.984 308.762H317.403C314.313 308.762 311.809 306.257 311.809 303.168V245.216C311.809 242.126 314.313 239.622 317.403 239.622H413.983C417.072 239.622 419.577 242.126 419.577 245.216V303.168C419.577 306.258 417.073 308.762 413.984 308.762Z" fill="#1686FF"/>
<g opacity="0.5">
<path d="M374.701 265.184C374.701 260.209 370.668 256.177 365.693 256.177C360.718 256.177 356.686 260.209 356.686 265.184C356.686 269.302 359.464 272.734 363.236 273.81V287.277H368.151V273.81C371.922 272.734 374.701 269.302 374.701 265.184Z" fill="black"/>
</g>
<path d="M317.557 302.206C317.31 302.206 317.109 290.675 317.109 276.454C317.109 262.229 317.31 250.701 317.557 250.701C317.804 250.701 318.005 262.229 318.005 276.454C318.005 290.676 317.804 302.206 317.557 302.206Z" fill="#FAFAFA"/>
<path d="M358.639 276.731C358.61 276.776 358.217 276.591 357.583 276.132C356.948 275.676 356.103 274.899 355.261 273.765C353.581 271.562 352.045 267.56 353.042 263.239C354.089 258.927 357.257 256.039 359.746 254.823C361.006 254.188 362.11 253.871 362.883 253.75C363.655 253.625 364.089 253.635 364.096 253.688C364.133 253.858 362.387 254.021 360.051 255.379C357.751 256.677 354.877 259.463 353.914 263.446C352.989 267.436 354.309 271.214 355.782 273.406C357.261 275.668 358.748 276.597 358.639 276.731Z" fill="#FAFAFA"/>
<path d="M446.637 339.58C446.637 339.58 446.895 339.219 447.416 338.533C447.547 338.36 447.693 338.169 447.855 337.956C448.003 337.734 448.136 337.471 448.297 337.196C448.611 336.641 449.005 336.012 449.286 335.216C449.44 334.826 449.624 334.42 449.78 333.979C449.905 333.527 450.036 333.051 450.174 332.552C450.334 332.058 450.418 331.522 450.503 330.961C450.575 330.4 450.728 329.825 450.747 329.21C451.01 326.766 450.849 323.914 450.36 320.766C449.384 314.45 446.705 307.011 442.605 298.927C438.512 290.825 432.876 282.111 425.95 273.027C419.022 263.941 410.693 254.555 401.116 245.132C391.531 235.72 380.678 226.264 368.514 217.303C362.428 212.831 356.008 208.492 349.24 204.405C342.479 200.309 335.351 196.491 327.833 193.181C320.315 189.912 312.382 187.064 304.014 185.714C299.845 185.071 295.543 184.761 291.313 185.401C289.203 185.726 287.129 186.301 285.177 187.178C283.255 188.116 281.488 189.366 280.027 190.944C278.624 192.575 277.577 194.471 276.862 196.486C276.215 198.527 275.871 200.652 275.791 202.786C275.63 207.063 276.429 211.303 277.541 215.374C279.832 223.536 283.565 231.096 287.669 238.196C291.813 245.29 296.419 251.94 301.259 258.191C306.09 264.452 311.132 270.336 316.269 275.875C326.558 286.942 337.188 296.649 347.631 305.102C358.084 313.544 368.356 320.751 378.172 326.6C387.985 332.447 397.284 337.054 405.798 340.199C414.296 343.353 421.99 345.166 428.375 345.417C431.558 345.544 434.41 345.379 436.807 344.84C437.417 344.753 437.97 344.535 438.519 344.399C439.066 344.252 439.588 344.107 440.061 343.891C440.541 343.697 440.999 343.514 441.435 343.337C441.855 343.131 442.238 342.903 442.607 342.706C443.365 342.336 443.945 341.873 444.46 341.498C444.716 341.306 444.961 341.144 445.165 340.972C445.358 340.787 445.532 340.621 445.688 340.471C446.308 339.878 446.637 339.58 446.637 339.58C446.637 339.58 446.334 339.901 445.721 340.51C445.567 340.663 445.394 340.834 445.205 341.022C445.002 341.198 444.758 341.364 444.505 341.56C443.992 341.944 443.413 342.416 442.655 342.795C442.286 342.998 441.903 343.232 441.481 343.442C441.045 343.622 440.586 343.812 440.104 344.01C439.63 344.231 439.106 344.381 438.556 344.533C438.006 344.674 437.448 344.896 436.837 344.988C434.429 345.547 431.563 345.728 428.365 345.615C421.949 345.394 414.225 343.601 405.698 340.466C397.154 337.339 387.828 332.745 377.987 326.91C368.144 321.071 357.845 313.87 347.367 305.43C336.899 296.98 326.243 287.271 315.928 276.194C310.779 270.651 305.723 264.759 300.878 258.489C296.024 252.227 291.404 245.563 287.243 238.448C283.123 231.325 279.371 223.739 277.058 215.513C275.937 211.408 275.126 207.126 275.288 202.773C275.37 200.6 275.72 198.428 276.386 196.331C277.12 194.259 278.2 192.301 279.652 190.616C281.161 188.982 282.988 187.693 284.963 186.73C286.969 185.829 289.089 185.243 291.237 184.911C295.543 184.261 299.887 184.578 304.091 185.226C312.524 186.589 320.486 189.453 328.03 192.735C335.57 196.059 342.715 199.89 349.487 203.999C356.266 208.098 362.693 212.45 368.786 216.934C380.963 225.921 391.82 235.401 401.406 244.839C410.983 254.289 419.309 263.701 426.23 272.815C433.148 281.927 438.774 290.671 442.854 298.803C446.94 306.919 449.6 314.389 450.551 320.739C451.028 323.903 451.174 326.771 450.894 329.228C450.872 329.846 450.715 330.424 450.638 330.988C450.549 331.551 450.46 332.09 450.295 332.585C450.153 333.086 450.017 333.564 449.888 334.018C449.727 334.461 449.539 334.868 449.38 335.259C449.089 336.055 448.687 336.684 448.363 337.237C448.198 337.511 448.061 337.773 447.909 337.994C447.743 338.204 447.593 338.394 447.458 338.565C446.921 339.242 446.637 339.58 446.637 339.58Z" fill="#1686FF"/>
<path d="M477.454 265.194C477.454 265.194 477.406 264.753 477.339 263.894C477.323 263.679 477.303 263.438 477.282 263.172C477.245 262.908 477.169 262.623 477.106 262.311C476.972 261.687 476.847 260.955 476.527 260.176C476.383 259.782 476.25 259.356 476.072 258.923C475.864 258.502 475.645 258.06 475.416 257.596C475.207 257.12 474.912 256.665 474.603 256.19C474.283 255.723 474.015 255.192 473.618 254.721C472.188 252.722 470.169 250.701 467.708 248.676C462.776 244.613 455.826 240.844 447.385 237.541C438.937 234.22 428.93 231.469 417.715 229.3C406.496 227.131 394.034 225.672 380.614 225.014C367.195 224.371 352.802 224.539 337.759 225.949C330.241 226.663 322.561 227.698 314.791 229.154C307.019 230.598 299.157 232.493 291.344 235.028C283.557 237.593 275.741 240.749 268.599 245.312C265.059 247.608 261.643 250.24 258.913 253.533C257.554 255.18 256.39 256.989 255.516 258.944C254.707 260.923 254.22 263.032 254.18 265.182C254.218 267.333 254.699 269.444 255.507 271.425C256.383 273.379 257.54 275.194 258.9 276.84C261.627 280.138 265.046 282.771 268.586 285.069C275.729 289.635 283.547 292.792 291.335 295.358C299.15 297.893 307.014 299.79 314.787 301.234C322.558 302.69 330.239 303.726 337.759 304.439C352.805 305.849 367.199 306.017 380.619 305.374C394.039 304.715 406.502 303.256 417.721 301.087C428.935 298.918 438.942 296.167 447.388 292.846C455.829 289.542 462.779 285.774 467.71 281.71C470.17 279.687 472.189 277.665 473.619 275.667C474.015 275.196 474.284 274.665 474.603 274.198C474.913 273.723 475.207 273.268 475.416 272.792C475.645 272.328 475.864 271.885 476.072 271.466C476.249 271.032 476.382 270.607 476.526 270.213C476.846 269.433 476.971 268.702 477.105 268.078C477.168 267.766 477.244 267.481 477.281 267.216C477.302 266.951 477.321 266.71 477.338 266.494C477.406 265.635 477.454 265.194 477.454 265.194C477.454 265.194 477.441 265.635 477.39 266.497C477.376 266.714 477.362 266.956 477.346 267.223C477.313 267.489 477.241 267.776 477.181 268.091C477.054 268.718 476.937 269.457 476.624 270.243C476.482 270.641 476.352 271.07 476.177 271.507C475.971 271.932 475.754 272.378 475.527 272.847C475.32 273.327 475.029 273.789 474.72 274.267C474.403 274.739 474.135 275.276 473.74 275.751C472.315 277.772 470.296 279.814 467.835 281.859C462.901 285.963 455.943 289.768 447.492 293.104C439.035 296.458 429.017 299.239 417.789 301.434C406.557 303.628 394.079 305.11 380.641 305.788C367.203 306.45 352.789 306.298 337.718 304.898C330.185 304.19 322.49 303.158 314.7 301.704C306.91 300.262 299.026 298.365 291.184 295.825C283.368 293.252 275.519 290.088 268.317 285.488C264.748 283.172 261.292 280.516 258.516 277.159C257.131 275.484 255.946 273.629 255.047 271.622C254.215 269.586 253.717 267.405 253.68 265.181C253.718 262.958 254.223 260.779 255.056 258.746C255.953 256.738 257.145 254.89 258.528 253.214C261.308 249.862 264.761 247.206 268.331 244.892C275.531 240.295 283.379 237.133 291.193 234.561C299.033 232.021 306.915 230.126 314.704 228.684C322.492 227.23 330.185 226.199 337.717 225.49C352.785 224.09 367.198 223.938 380.635 224.599C394.072 225.276 406.55 226.758 417.783 228.952C429.01 231.146 439.029 233.926 447.487 237.28C455.938 240.616 462.896 244.421 467.832 248.526C470.293 250.571 472.312 252.613 473.739 254.633C474.133 255.109 474.402 255.646 474.72 256.118C475.028 256.597 475.319 257.058 475.527 257.539C475.754 258.008 475.971 258.454 476.177 258.88C476.352 259.318 476.481 259.747 476.624 260.144C476.937 260.931 477.055 261.669 477.182 262.297C477.241 262.612 477.313 262.899 477.347 263.165C477.363 263.432 477.377 263.674 477.391 263.89C477.441 264.753 477.454 265.194 477.454 265.194Z" fill="#1686FF"/>
<path d="M436.626 172.599C436.626 172.599 436.247 172.367 435.527 171.894C435.346 171.776 435.145 171.643 434.922 171.497C434.69 171.365 434.418 171.249 434.133 171.108C433.558 170.831 432.904 170.483 432.09 170.257C431.691 170.13 431.273 169.975 430.822 169.848C430.361 169.755 429.878 169.657 429.37 169.555C428.866 169.429 428.325 169.382 427.761 169.336C427.197 169.303 426.613 169.19 425.998 169.214C423.541 169.12 420.707 169.477 417.6 170.182C411.366 171.59 404.13 174.774 396.348 179.422C388.547 184.064 380.241 190.287 371.657 197.822C363.069 205.359 354.281 214.315 345.539 224.517C336.809 234.728 328.123 246.207 320.022 258.96C315.979 265.339 312.093 272.042 308.482 279.076C304.861 286.102 301.543 293.477 298.759 301.205C296.017 308.932 293.722 317.042 292.951 325.482C292.597 329.686 292.584 333.999 293.515 338.175C293.983 340.257 294.701 342.286 295.709 344.174C296.777 346.026 298.146 347.703 299.821 349.052C301.544 350.34 303.507 351.252 305.567 351.828C307.647 352.333 309.791 352.53 311.926 352.463C316.204 352.33 320.379 351.24 324.363 349.851C332.349 347.002 339.633 342.758 346.433 338.175C353.225 333.551 359.542 328.499 365.445 323.24C371.358 317.989 376.881 312.554 382.053 307.048C392.385 296.021 401.337 284.748 409.051 273.747C416.752 262.737 423.236 251.993 428.395 241.797C433.551 231.605 437.507 222.012 440.057 213.3C442.618 204.606 443.898 196.804 443.707 190.417C443.614 187.232 443.254 184.399 442.551 182.044C442.421 181.443 442.167 180.906 441.993 180.367C441.809 179.831 441.628 179.32 441.38 178.863C441.154 178.397 440.938 177.953 440.733 177.531C440.499 177.125 440.244 176.759 440.022 176.404C439.601 175.674 439.1 175.127 438.689 174.639C438.481 174.398 438.302 174.163 438.116 173.972C437.918 173.793 437.739 173.63 437.58 173.484C436.944 172.907 436.626 172.599 436.626 172.599C436.626 172.599 436.965 172.88 437.616 173.449C437.779 173.592 437.962 173.752 438.163 173.928C438.353 174.118 438.535 174.35 438.747 174.59C439.166 175.075 439.676 175.62 440.107 176.349C440.335 176.705 440.595 177.07 440.833 177.477C441.043 177.899 441.264 178.345 441.495 178.811C441.747 179.269 441.933 179.781 442.122 180.318C442.3 180.858 442.56 181.399 442.695 182.002C443.418 184.366 443.795 187.213 443.903 190.411C444.124 196.826 442.868 204.656 440.327 213.378C437.796 222.117 433.856 231.738 428.711 241.956C423.565 252.178 417.09 262.948 409.393 273.984C401.683 285.009 392.732 296.308 382.391 307.363C377.216 312.881 371.686 318.331 365.765 323.597C359.852 328.87 353.522 333.939 346.711 338.58C339.888 343.18 332.579 347.446 324.531 350.32C320.513 351.721 316.297 352.825 311.943 352.963C309.77 353.031 307.578 352.832 305.441 352.312C303.323 351.722 301.295 350.78 299.514 349.447C297.78 348.054 296.368 346.321 295.271 344.417C294.234 342.478 293.503 340.403 293.026 338.283C292.079 334.033 292.098 329.676 292.455 325.438C293.233 316.93 295.542 308.79 298.297 301.039C301.094 293.286 304.424 285.896 308.057 278.856C311.679 271.81 315.578 265.099 319.632 258.711C327.758 245.944 336.468 234.46 345.223 224.246C353.991 214.041 362.807 205.087 371.423 197.554C380.036 190.025 388.372 183.81 396.204 179.181C404.018 174.545 411.288 171.376 417.557 169.991C420.681 169.298 423.532 168.954 426.003 169.065C426.621 169.044 427.209 169.161 427.777 169.199C428.345 169.249 428.888 169.301 429.394 169.431C429.903 169.538 430.389 169.641 430.851 169.739C431.304 169.869 431.724 170.029 432.124 170.16C432.939 170.395 433.594 170.754 434.168 171.038C434.453 171.185 434.723 171.303 434.954 171.44C435.176 171.591 435.376 171.728 435.555 171.85C436.268 172.339 436.626 172.599 436.626 172.599Z" fill="#1686FF"/>
<path d="M252.715 311.32C254.336 312.941 254.336 315.569 252.715 317.189C251.094 318.811 248.466 318.811 246.845 317.189C245.224 315.568 245.224 312.94 246.845 311.32C248.466 309.699 251.094 309.699 252.715 311.32Z" fill="#1686FF"/>
<path d="M486.902 182.702C486.902 184.994 485.044 186.853 482.751 186.853C480.458 186.853 478.6 184.995 478.6 182.702C478.6 180.41 480.458 178.552 482.751 178.552C485.044 178.552 486.902 180.409 486.902 182.702Z" fill="#1686FF"/>
<path d="M278.927 324.968C278.927 325.55 278.454 326.023 277.871 326.023C277.289 326.023 276.816 325.55 276.816 324.968C276.816 324.385 277.289 323.913 277.871 323.913C278.454 323.913 278.927 324.385 278.927 324.968Z" fill="#1686FF"/>
<path d="M301.44 208.659C301.44 209.242 300.968 209.714 300.385 209.714C299.803 209.714 299.33 209.242 299.33 208.659C299.33 208.077 299.803 207.604 300.385 207.604C300.969 207.604 301.44 208.077 301.44 208.659Z" fill="#1686FF"/>
<path d="M466.05 265.194C466.05 265.776 465.577 266.249 464.995 266.249C464.412 266.249 463.939 265.776 463.939 265.194C463.939 264.611 464.412 264.139 464.995 264.139C465.578 264.139 466.05 264.611 466.05 265.194Z" fill="#1686FF"/>
<path d="M480.71 216.017C480.71 216.599 480.237 217.072 479.655 217.072C479.072 217.072 478.6 216.599 478.6 216.017C478.6 215.435 479.072 214.962 479.655 214.962C480.237 214.962 480.71 215.435 480.71 216.017Z" fill="#1686FF"/>
<path d="M650.303 373.509C654.929 370.604 660.23 368.78 665.664 368.222C668.174 367.964 670.916 368.038 672.93 369.559C673.358 369.881 673.774 370.359 673.678 370.885C673.608 371.272 673.281 371.554 672.968 371.793C666.717 376.561 657.263 377.163 650.303 373.509Z" fill="#1686FF"/>
<path d="M650.697 373.075C654.174 370.361 657.673 367.628 660.619 364.346C663.564 361.063 665.958 357.164 666.839 352.842C667.106 351.531 667.189 350.033 666.347 348.992C658.439 355.169 652.226 363.157 650.697 373.075Z" fill="#1686FF"/>
<path d="M650.383 373.45C650.979 369.123 651.193 364.676 650.199 360.423C649.206 356.17 646.892 352.1 643.26 349.674C641.893 352.868 642.481 356.548 643.443 359.887C644.931 365.046 647.265 369.959 650.323 374.372" fill="#1686FF"/>
<path d="M642.631 387.342C647.337 387.914 651.436 390.394 654.95 393.577C658.465 396.76 660.962 401.047 661.997 405.674C657.381 405.389 653.465 402.133 650.624 398.483C647.783 394.832 645.815 390.828 642.695 387.413" fill="#1686FF"/>
<path d="M640.947 389.564C644.738 380.226 643.365 368.975 637.439 360.823C634.757 370.36 635.742 381.134 640.947 389.564Z" fill="#1686FF"/>
<path d="M630.705 401.761C634.976 401.496 639.319 402.513 643.027 404.648C646.736 406.783 649.796 410.027 651.712 413.854C651.973 414.374 652.202 415.035 651.854 415.501C651.55 415.906 650.965 415.944 650.461 415.911C646.32 415.642 642.651 413.152 639.623 410.315C636.595 407.479 633.958 404.202 630.611 401.749" fill="#1686FF"/>
<path d="M631.029 401.096C633.233 394.047 633.369 386.365 631.42 379.241C630.65 376.428 629.357 373.466 626.756 372.147C626.534 372.035 626.276 371.934 626.043 372.022C625.822 372.105 625.693 372.332 625.592 372.545C624.667 374.478 624.397 376.674 624.493 378.815C624.588 380.957 625.033 383.065 625.476 385.162C626.295 389.042 626.731 393.211 628.858 396.557C629.364 397.351 629.809 398.208 630.211 399.059C630.613 399.91 630.616 400.209 630.986 400.886" fill="#1686FF"/>
<path d="M603.914 405.137C605.923 397.495 603.79 388.231 598.975 381.966C598.621 381.505 598.15 381.01 597.572 381.064C596.685 381.146 596.455 382.328 596.494 383.218C596.843 391.027 599.447 398.722 603.914 405.137Z" fill="#1686FF"/>
<path d="M601.469 406.808C592.185 409.224 581.534 406.875 573.812 401.183C578.389 398.864 583.783 398.202 588.784 399.345C593.785 400.489 598.356 402.73 601.469 406.808Z" fill="#1686FF"/>
<path d="M599.409 401.719C594.21 393.242 584.241 387.709 574.309 387.205C575.453 391.244 578.772 394.385 582.518 396.282C586.264 398.18 590.445 399.005 594.567 399.805C596.171 400.117 598.37 400.46 599.409 401.719Z" fill="#1686FF"/>
<path d="M603.398 377.031C601.99 372.207 600.575 367.341 600.188 362.331C599.801 357.321 600.516 352.09 603.115 347.79C607.972 357.188 608.464 368.169 603.544 377.534" fill="#1686FF"/>
<path d="M587.044 368.765C581.365 358.443 569.776 350.196 558.051 349.041C562.574 360.303 574.91 369.008 587.044 368.765Z" fill="#1686FF"/>
<path d="M590.619 370.789C582.148 372.079 574.931 377.489 567.015 380.769C565.322 381.471 563.496 382.029 561.679 381.791C559.863 381.553 558.069 380.335 557.662 378.547C557.324 377.063 557.999 375.489 559.064 374.401C560.128 373.314 561.535 372.634 562.939 372.05C571.561 368.46 580.807 368.371 589.889 370.547" fill="#1686FF"/>
<path d="M595.52 376.729C593.603 377.278 592.947 378.272 591.429 379.564C586.277 383.952 580.097 387.127 573.53 388.759C572.847 388.928 571.95 388.997 571.611 388.379C571.314 387.84 571.69 387.186 572.074 386.706C574.826 383.262 578.751 380.907 582.882 379.369C587.012 377.831 590.591 375.977 595.521 376.374" fill="#1686FF"/>
<path d="M601.052 340.847C594.164 347.277 584.462 350.578 575.082 349.682C574.656 349.642 574.19 349.574 573.9 349.258C573.246 348.546 574.031 347.449 574.793 346.855C582.427 340.903 591.676 338.436 601.052 340.847Z" fill="#1686FF"/>
<path d="M594.494 338.447C585.389 331.621 572.903 329.561 562.088 333.1C566.169 337.122 571.831 339.286 577.53 339.879C583.229 340.472 588.936 339.841 594.494 338.447Z" fill="#1686FF"/>
<path d="M597.102 321.958C597.851 314.337 597.364 308.32 597.894 300.664C597.936 300.053 598.067 299.317 598.64 299.096C599.437 298.789 600.101 299.769 600.362 300.582C602.631 307.64 601.391 315.735 597.113 321.79" fill="#1686FF"/>
<path d="M597.651 322.8C592.485 319.606 588.61 315.434 585.026 310.53C582.533 307.118 580.431 303.031 580.998 298.843C584.499 298.773 587.827 300.705 590.103 303.365C592.381 306.025 593.735 309.351 594.745 312.704C595.757 316.059 596.465 319.505 597.651 322.8Z" fill="#1686FF"/>
<path d="M585.246 319.355C573.91 315.162 563.333 308.926 554.178 301.035C557.889 299.54 562.138 300.434 565.848 301.932C574.325 305.354 581.251 311.13 585.408 319.272" fill="#1686FF"/>
<path d="M594.162 326.969C588.427 327.596 582.601 328.004 576.911 327.053C571.318 326.118 566.033 323.901 560.806 321.701C560.373 321.519 559.902 321.3 559.712 320.871C559.506 320.404 559.725 319.835 560.105 319.493C560.483 319.15 560.986 318.987 561.478 318.849C567.16 317.26 573.292 318.004 578.882 319.889C584.473 321.775 589.056 324.014 594.162 326.969Z" fill="#1686FF"/>
<path d="M626.909 341.108C630.822 333.209 630.568 323.993 627.188 315.852C624.808 319.478 624.517 324.095 624.952 328.409C625.387 332.724 626.7 337.165 626.786 341.501" fill="#1686FF"/>
<path d="M642.541 333.224C652.31 333.037 662.083 337.2 668.715 344.374C663.84 345.14 658.818 343.883 654.382 341.717C649.947 339.551 646.006 336.513 642.1 333.496" fill="#1686FF"/>
<path d="M653.051 329.709C657.83 329.321 662.428 328.73 667.024 330.137C671.619 331.546 675.801 334.742 677.674 339.168C673.204 339.672 668.671 338.551 664.574 336.694C660.477 334.838 656.751 332.267 653.051 329.709Z" fill="#1686FF"/>
<path d="M637.491 329.87C641.791 327.052 646.205 324.184 651.212 323.016C656.218 321.85 662.02 322.712 665.511 326.485C661.458 328.863 656.541 329.144 651.843 329.14C647.144 329.136 641.384 329.083 636.955 330.65" fill="#1686FF"/>
<path d="M637.463 330.097C644.813 322.88 647.6 309.914 644.643 300.045C638.866 308.824 636.278 319.655 637.463 330.097Z" fill="#1686FF"/>
<path d="M617.252 309.647C615.866 306.424 614.891 303.042 613.647 299.761C612.403 296.481 610.857 293.253 608.507 290.648C606.157 288.043 602.907 286.104 599.404 285.93C601.597 295.862 608.194 304.735 617.072 309.698" fill="#1686FF"/>
<path d="M620.91 313.908C623.204 310.75 625.854 306.464 628.966 304.108C632.077 301.751 636.127 300.324 639.924 301.229C636.063 308.132 628.766 312.997 620.91 313.908Z" fill="#1686FF"/>
<path d="M620.179 309.91C621.683 306.089 623.197 302.228 623.806 298.167C624.414 294.107 624.044 289.769 621.968 286.227C617.934 293.854 616.634 302.041 619.974 309.996" fill="#1686FF"/>
<path d="M617.217 286.226C614.932 278.665 608.009 273.098 600.534 270.544C599.592 270.222 598.594 269.954 597.609 270.106C596.624 270.258 595.66 270.931 595.453 271.906C595.181 273.192 596.243 274.344 597.242 275.199C603.063 280.175 609.905 283.952 617.217 286.226Z" fill="#1686FF"/>
<path d="M617.133 280.043C616.843 275.168 616.538 270.223 614.953 265.604C613.367 260.985 610.311 256.652 605.865 254.631C605.109 259.555 607.281 264.453 609.901 268.689C612.52 272.926 615.678 276.925 617.252 281.651" fill="#1686FF"/>
<path d="M617.254 283.399C619.143 277.889 619.338 270.89 622.637 266.089C624.944 262.733 628.637 260.448 630.624 256.894C631.944 260.213 631.541 264.038 630.159 267.333C628.779 270.628 626.497 273.463 624.055 276.071C621.615 278.679 619.524 280.641 617.254 283.399Z" fill="#1686FF"/>
<path d="M617.217 445.669C617.364 445.669 617.491 408.91 617.501 363.578C617.511 318.23 617.401 281.479 617.253 281.479C617.106 281.479 616.979 318.229 616.969 363.578C616.96 408.91 617.07 445.669 617.217 445.669Z" fill="#1686FF"/>
<path d="M585.094 335.561C585.083 335.597 585.576 335.78 586.476 336.08C587.469 336.415 588.747 336.846 590.28 337.363C593.486 338.456 597.893 340.037 602.674 341.997C607.409 344.029 611.873 345.678 614.416 347.88C615.686 348.968 616.415 350.144 616.775 351.002C617.14 351.865 617.206 352.393 617.254 352.384C617.272 352.381 617.266 352.249 617.238 351.998C617.196 351.75 617.132 351.38 616.969 350.926C616.659 350.019 615.949 348.761 614.666 347.599C613.388 346.434 611.61 345.387 609.572 344.434C607.534 343.483 605.274 342.49 602.876 341.505C598.08 339.54 593.641 338.009 590.397 337.006C588.777 336.501 587.454 336.128 586.537 335.882C585.617 335.642 585.105 335.525 585.094 335.561Z" fill="#1686FF"/>
<path d="M574.565 309.698C574.553 309.711 574.687 309.854 574.952 310.112C575.265 310.406 575.655 310.772 576.132 311.22C577.227 312.215 578.717 313.57 580.535 315.22C584.337 318.606 589.493 323.196 595.19 328.27C600.912 333.362 605.856 338.228 609.282 341.891C610.997 343.721 612.349 345.237 613.27 346.295C613.701 346.786 614.053 347.188 614.335 347.512C614.581 347.787 614.718 347.926 614.733 347.915C614.747 347.903 614.638 347.742 614.418 347.444C614.195 347.149 613.871 346.709 613.428 346.163C612.553 345.062 611.242 343.505 609.557 341.637C606.193 337.898 601.275 332.976 595.544 327.873C589.802 322.792 584.579 318.228 580.782 314.938C578.919 313.339 577.391 312.028 576.267 311.064C575.764 310.646 575.352 310.305 575.022 310.031C574.735 309.8 574.577 309.684 574.565 309.698Z" fill="#1686FF"/>
<path d="M601.367 333.448C601.517 333.382 600.321 330.622 599.13 327.132C597.928 323.642 597.363 320.697 597.211 320.722C597.072 320.737 597.41 323.768 598.628 327.302C599.227 329.067 599.887 330.619 600.407 331.72C600.928 332.821 601.302 333.477 601.367 333.448Z" fill="#1686FF"/>
<path d="M617.182 355.696C617.212 355.717 617.525 355.352 618.064 354.673C618.662 353.906 619.419 352.935 620.322 351.777C622.22 349.325 624.842 345.94 627.781 342.236C630.723 338.531 633.424 335.209 635.381 332.804C636.304 331.661 637.077 330.704 637.689 329.948C638.228 329.268 638.513 328.881 638.485 328.857C638.457 328.833 638.119 329.175 637.531 329.814C636.942 330.452 636.109 331.391 635.092 332.563C633.059 334.907 630.309 338.197 627.363 341.906C624.42 345.615 621.841 349.04 620.02 351.552C619.108 352.807 618.383 353.832 617.895 354.551C617.408 355.268 617.152 355.674 617.182 355.696Z" fill="#1686FF"/>
<path d="M624.227 346.654C624.314 346.747 626.193 344.518 627.178 341.13C627.905 338.743 627.937 336.559 627.847 335.561L627.612 335.58C627.717 336.006 627.794 336.23 627.837 336.223C627.879 336.217 627.881 335.98 627.846 335.542L627.611 335.561C627.526 336.552 627.375 338.66 626.669 340.979C625.719 344.262 624.085 346.564 624.227 346.654Z" fill="#1686FF"/>
<path d="M633.319 335.216C633.388 335.29 633.992 334.528 635.379 334.02C636.756 333.487 638.827 333.37 641.1 333.564C643.374 333.731 645.406 334.137 646.859 334.494C648.313 334.854 649.202 335.137 649.229 335.063C649.253 335.001 648.407 334.591 646.96 334.132C645.515 333.678 643.455 333.205 641.14 333.035C638.842 332.837 636.662 333.014 635.24 333.671C633.797 334.309 633.271 335.203 633.319 335.216Z" fill="#1686FF"/>
<path d="M635.473 332.444C635.514 332.527 636.674 331.963 638.63 331.294C640.582 330.623 643.364 329.918 646.505 329.673C649.647 329.439 652.504 329.714 654.535 330.081C656.57 330.445 657.801 330.827 657.829 330.739C657.841 330.704 657.543 330.579 656.993 330.383C656.445 330.179 655.63 329.945 654.609 329.714C652.571 329.246 649.664 328.905 646.465 329.144C643.268 329.392 640.446 330.17 638.502 330.941C637.529 331.324 636.758 331.679 636.247 331.964C635.732 332.243 635.457 332.411 635.473 332.444Z" fill="#1686FF"/>
<path d="M617.253 320.721C617.395 320.758 618.425 317.178 619.554 312.727C620.683 308.274 621.483 304.636 621.341 304.6C621.199 304.563 620.168 308.143 619.039 312.596C617.911 317.047 617.111 320.686 617.253 320.721Z" fill="#1686FF"/>
<path d="M617.106 320.721C617.264 320.772 617.927 318.381 619.657 315.935C621.341 313.437 623.491 312.184 623.413 312.06C623.385 312.005 622.792 312.223 621.964 312.807C621.134 313.385 620.108 314.364 619.223 315.63C617.427 318.175 616.978 320.713 617.106 320.721Z" fill="#1686FF"/>
<path d="M617.218 426.074C617.275 426.082 617.383 425.19 617.797 423.63C618.206 422.069 618.977 419.855 620.254 417.265C622.793 412.076 627.414 405.496 633.286 398.904C636.196 395.58 639.019 392.444 641.415 389.441C643.815 386.443 645.788 383.586 647.228 381.059C648.673 378.533 649.613 376.367 650.162 374.838C650.432 374.072 650.63 373.473 650.739 373.059C650.855 372.648 650.907 372.429 650.89 372.424C650.843 372.409 650.575 373.266 649.97 374.764C649.365 376.262 648.379 378.387 646.904 380.87C645.433 383.355 643.445 386.168 641.035 389.135C638.629 392.107 635.803 395.226 632.888 398.556C627 405.165 622.39 411.827 619.917 417.103C618.673 419.736 617.949 421.992 617.599 423.58C617.428 424.377 617.314 424.997 617.274 425.424C617.219 425.848 617.199 426.071 617.218 426.074Z" fill="#1686FF"/>
<path d="M588.19 393.288C588.173 393.328 588.728 393.609 589.711 394.142C590.686 394.691 592.071 395.535 593.657 396.751C595.243 397.966 597.017 399.56 598.839 401.478C600.657 403.399 602.532 405.631 604.443 408.021C608.266 412.818 611.843 417.062 613.984 420.451C615.07 422.132 615.861 423.549 616.379 424.542C616.901 425.534 617.178 426.091 617.216 426.074C617.233 426.066 617.183 425.918 617.076 425.643C616.962 425.369 616.809 424.958 616.564 424.451C616.101 423.425 615.356 421.969 614.301 420.251C612.222 416.781 608.674 412.478 604.857 407.689C602.942 405.294 601.045 403.057 599.192 401.139C597.336 399.224 595.515 397.64 593.882 396.451C592.249 395.26 590.82 394.456 589.807 393.96C589.304 393.707 588.892 393.552 588.62 393.435C588.345 393.321 588.197 393.271 588.19 393.288Z" fill="#1686FF"/>
<path d="M587.621 403.924C587.614 404.001 588.85 404.151 590.836 404.391C592.817 404.647 595.575 404.978 598.463 405.892C601.34 406.83 603.732 408.258 605.291 409.475C606.865 410.691 607.607 411.698 607.68 411.64C607.705 411.621 607.552 411.347 607.204 410.899C606.86 410.449 606.297 409.847 605.529 409.185C603.995 407.863 601.58 406.35 598.626 405.387C595.668 404.45 592.872 404.179 590.875 404.017C588.869 403.872 587.627 403.855 587.621 403.924Z" fill="#1686FF"/>
<path d="M606.743 410.472C606.91 410.377 605.461 408.163 604.337 405.186C603.282 402.181 603.036 399.547 602.846 399.577C602.778 399.586 602.78 400.244 602.899 401.302C603.025 402.357 603.278 403.823 603.837 405.367C604.399 406.908 605.135 408.197 605.701 409.094C606.276 409.991 606.683 410.508 606.743 410.472Z" fill="#1686FF"/>
<path d="M578.789 364.734C578.783 364.751 578.961 364.844 579.303 365.007C579.702 365.188 580.202 365.415 580.815 365.693C581.477 365.977 582.28 366.337 583.185 366.815C584.094 367.284 585.153 367.766 586.257 368.429C586.817 368.748 587.402 369.081 588.011 369.427C588.619 369.776 589.221 370.192 589.861 370.592C591.154 371.377 592.449 372.343 593.832 373.329C596.538 375.383 599.383 377.813 602.121 380.62C604.834 383.454 607.167 386.381 609.127 389.156C610.065 390.572 610.987 391.899 611.726 393.219C612.104 393.873 612.499 394.489 612.828 395.108C613.153 395.728 613.465 396.325 613.765 396.895C614.39 398.021 614.836 399.097 615.273 400.021C615.719 400.942 616.051 401.757 616.313 402.428C616.57 403.05 616.78 403.557 616.947 403.961C617.099 404.31 617.186 404.491 617.203 404.485C617.221 404.479 617.167 404.287 617.048 403.926C616.905 403.511 616.726 402.99 616.506 402.354C616.274 401.668 615.967 400.838 615.546 399.903C615.133 398.963 614.707 397.871 614.101 396.727C613.809 396.147 613.505 395.542 613.188 394.913C612.867 394.285 612.479 393.66 612.106 392.997C611.377 391.658 610.464 390.313 609.529 388.878C607.577 386.067 605.237 383.107 602.503 380.251C599.742 377.422 596.864 374.982 594.123 372.936C592.722 371.953 591.408 370.994 590.096 370.22C589.446 369.824 588.835 369.415 588.218 369.072C587.6 368.734 587.005 368.41 586.436 368.099C585.314 367.454 584.236 366.992 583.312 366.546C582.39 366.093 581.571 365.759 580.895 365.503C580.265 365.261 579.752 365.064 579.342 364.907C578.987 364.777 578.796 364.716 578.789 364.734Z" fill="#1686FF"/>
<path d="M601.762 380.126C601.81 380.118 601.553 379.226 600.499 378.245C599.471 377.265 597.594 376.358 595.41 376.292C593.232 376.235 591.343 376.844 590.053 377.339C588.757 377.848 588.003 378.261 588.028 378.323C588.058 378.397 588.865 378.106 590.177 377.694C591.483 377.295 593.328 376.768 595.392 376.824C597.449 376.887 599.225 377.68 600.254 378.531C601.306 379.377 601.678 380.177 601.762 380.126Z" fill="#1686FF"/>
<path d="M605.195 383.668C605.341 383.587 604.046 381.688 603.751 378.967C603.411 376.25 604.235 374.103 604.074 374.058C604.016 374.034 603.726 374.534 603.477 375.428C603.226 376.317 603.06 377.613 603.223 379.028C603.391 380.442 603.85 381.665 604.299 382.473C604.748 383.285 605.144 383.705 605.195 383.668Z" fill="#1686FF"/>
<path d="M642.603 431.341C641.811 445.388 637.578 459.675 631.066 474.119H602.753C596.543 459.818 592.602 445.553 591.902 431.341H642.603Z" fill="#263238"/>
<path d="M596.492 454.072C596.492 454.218 605.815 454.338 617.312 454.338C628.813 454.338 638.133 454.218 638.133 454.072C638.133 453.926 628.813 453.806 617.312 453.806C605.815 453.806 596.492 453.925 596.492 454.072Z" fill="#FAFAFA"/>
<path d="M597.125 459.161C597.125 459.308 605.864 459.426 616.643 459.426C627.425 459.426 636.162 459.307 636.162 459.161C636.162 459.014 627.425 458.895 616.643 458.895C605.864 458.895 597.125 459.014 597.125 459.161Z" fill="#FAFAFA"/>
<path d="M630.611 440.564C630.464 440.564 630.346 443.485 630.346 447.085C630.346 450.687 630.464 453.607 630.611 453.607C630.758 453.607 630.877 450.687 630.877 447.085C630.877 443.484 630.758 440.564 630.611 440.564Z" fill="#FAFAFA"/>
<path d="M615.44 440.564C615.293 440.564 615.174 443.588 615.174 447.318C615.174 451.049 615.293 454.072 615.44 454.072C615.586 454.072 615.705 451.048 615.705 447.318C615.705 443.588 615.586 440.564 615.44 440.564Z" fill="#FAFAFA"/>
<path d="M601.199 440.449C601.053 440.449 600.934 443.534 600.934 447.338C600.934 451.144 601.053 454.227 601.199 454.227C601.346 454.227 601.465 451.144 601.465 447.338C601.465 443.534 601.347 440.449 601.199 440.449Z" fill="#FAFAFA"/>
<path d="M592.801 440.564C592.801 440.71 603.735 440.83 617.22 440.83C630.71 440.83 641.641 440.71 641.641 440.564C641.641 440.418 630.709 440.298 617.22 440.298C603.735 440.298 592.801 440.418 592.801 440.564Z" fill="#FAFAFA"/>
<path d="M104.573 442.725L99.9996 466.129L91.0449 483.598C90.3999 484.857 90.9554 486.399 92.255 486.958C92.9828 487.271 93.8106 487.215 94.4864 486.802C98.7886 484.172 114.568 474.419 114.806 472.687C115.083 470.682 121.27 448.319 121.27 448.319L104.573 442.725Z" fill="#1686FF"/>
<path d="M92.2539 486.958L115.149 471.116L114.932 472.103C114.745 472.956 114.265 473.717 113.57 474.246C111.71 475.66 106.488 479.451 94.5556 486.818C93.8616 487.247 92.9942 487.3 92.2539 486.958Z" fill="#263238"/>
<path d="M111.994 464.229C111.322 464.504 110.937 465.346 111.185 466.028C111.432 466.711 112.284 467.109 112.961 466.846C113.638 466.582 114.13 465.587 113.807 464.936C113.485 464.285 112.459 463.872 111.865 464.291" fill="#EBEBEB"/>
<path d="M99.8104 477.948C99.6641 477.984 99.407 476.648 98.1652 475.689C96.9522 474.691 95.5939 474.739 95.5958 474.587C95.5881 474.526 95.9231 474.409 96.4844 474.452C97.0418 474.49 97.8129 474.74 98.4915 475.279C99.1673 475.82 99.5822 476.516 99.744 477.051C99.9115 477.59 99.872 477.941 99.8104 477.948Z" fill="#263238"/>
<path d="M97.4669 480.703C97.3341 480.779 96.7526 479.858 95.6234 479.25C94.5077 478.615 93.4189 478.611 93.4131 478.457C93.3717 478.323 94.6011 478.075 95.8776 478.791C97.1598 479.493 97.6017 480.668 97.4669 480.703Z" fill="#263238"/>
<path d="M103.775 474.627C103.643 474.714 102.754 473.292 101.082 472.19C99.4262 471.063 97.7742 470.784 97.8031 470.627C97.7925 470.494 99.5946 470.55 101.374 471.755C103.163 472.941 103.902 474.586 103.775 474.627Z" fill="#263238"/>
<path d="M105.761 467.628C105.668 467.754 104.499 466.934 102.838 466.507C101.182 466.056 99.7612 466.19 99.743 466.035C99.7035 465.907 101.192 465.521 102.972 466C104.757 466.464 105.859 467.537 105.761 467.628Z" fill="#263238"/>
<path d="M107.276 460.792C107.174 460.912 106.051 459.851 104.264 459.544C102.484 459.197 101.058 459.789 101.005 459.642C100.979 459.585 101.296 459.348 101.902 459.156C102.502 458.961 103.399 458.854 104.358 459.029C105.318 459.207 106.117 459.625 106.61 460.019C107.108 460.414 107.322 460.748 107.276 460.792Z" fill="#263238"/>
<path d="M104.592 458.251C104.562 458.245 104.579 457.92 104.754 457.363C104.929 456.811 105.275 456.016 105.96 455.209C106.307 454.832 106.691 454.332 107.408 454.168C107.765 454.085 108.234 454.25 108.443 454.619C108.651 454.979 108.653 455.38 108.58 455.751C108.232 457.225 106.649 458.376 104.94 458.224C103.23 458.041 101.926 456.756 101.544 455.334C101.472 454.972 101.46 454.545 101.728 454.19C101.993 453.832 102.501 453.778 102.822 453.908C103.491 454.163 103.84 454.657 104.181 455.042C104.842 455.864 105.19 456.651 105.374 457.201C105.558 457.754 105.585 458.077 105.555 458.084C105.459 458.128 105.217 456.811 103.898 455.282C103.56 454.923 103.176 454.477 102.689 454.322C102.451 454.245 102.221 454.295 102.092 454.473C101.962 454.641 101.947 454.944 102.015 455.231C102.345 456.398 103.539 457.57 104.987 457.702C106.426 457.845 107.816 456.83 108.108 455.647C108.174 455.361 108.161 455.056 108.045 454.853C107.931 454.653 107.712 454.556 107.478 454.596C106.985 454.679 106.574 455.102 106.235 455.454C104.88 456.95 104.69 458.297 104.592 458.251Z" fill="#263238"/>
<path d="M182.577 444.545L186.475 468.072L194.923 485.791C195.533 487.068 194.933 488.593 193.617 489.114C192.881 489.406 192.055 489.327 191.391 488.894C187.166 486.141 171.675 475.939 171.486 474.2C171.268 472.188 165.727 449.657 165.727 449.657L182.577 444.545Z" fill="#1686FF"/>
<path d="M193.618 489.114L171.188 472.62L171.375 473.612C171.538 474.471 171.996 475.245 172.676 475.794C174.494 477.26 179.605 481.201 191.321 488.908C192.003 489.357 192.868 489.435 193.618 489.114Z" fill="#263238"/>
<path d="M174.541 465.827C175.204 466.122 175.564 466.974 175.297 467.648C175.03 468.324 174.167 468.698 173.498 468.415C172.829 468.132 172.366 467.123 172.707 466.482C173.047 465.841 174.085 465.457 174.667 465.893" fill="#EBEBEB"/>
<path d="M186.325 479.891C186.469 479.93 186.765 478.604 188.034 477.679C189.275 476.718 190.632 476.803 190.634 476.653C190.644 476.592 190.313 476.466 189.75 476.492C189.191 476.515 188.413 476.742 187.719 477.262C187.028 477.783 186.593 478.467 186.416 478.997C186.234 479.53 186.263 479.882 186.325 479.891Z" fill="#263238"/>
<path d="M188.588 482.712C188.719 482.792 189.327 481.888 190.473 481.312C191.607 480.709 192.696 480.737 192.706 480.584C192.751 480.451 191.528 480.168 190.232 480.847C188.929 481.512 188.454 482.672 188.588 482.712Z" fill="#263238"/>
<path d="M182.456 476.457C182.587 476.547 183.515 475.152 185.219 474.099C186.907 473.02 188.566 472.788 188.541 472.631C188.556 472.499 186.754 472.503 184.94 473.655C183.117 474.79 182.331 476.413 182.456 476.457Z" fill="#263238"/>
<path d="M180.673 469.404C180.763 469.533 181.955 468.747 183.628 468.368C185.296 467.965 186.712 468.14 186.735 467.985C186.778 467.858 185.302 467.43 183.509 467.858C181.712 468.269 180.579 469.309 180.673 469.404Z" fill="#263238"/>
<path d="M179.355 462.527C179.453 462.648 180.607 461.621 182.401 461.366C184.19 461.071 185.599 461.704 185.656 461.559C185.685 461.502 185.374 461.256 184.774 461.047C184.179 460.836 183.287 460.702 182.321 460.848C181.356 460.998 180.546 461.394 180.041 461.773C179.534 462.155 179.311 462.482 179.355 462.527Z" fill="#263238"/>
<path d="M182.111 460.065C182.14 460.06 182.134 459.734 181.975 459.172C181.816 458.615 181.492 457.81 180.831 456.984C180.496 456.597 180.126 456.087 179.414 455.902C179.06 455.808 178.586 455.96 178.367 456.323C178.148 456.677 178.134 457.077 178.196 457.451C178.502 458.933 180.051 460.13 181.765 460.028C183.479 459.894 184.819 458.648 185.242 457.237C185.325 456.877 185.348 456.451 185.091 456.089C184.837 455.723 184.33 455.655 184.006 455.775C183.33 456.011 182.966 456.494 182.614 456.87C181.93 457.671 181.559 458.448 181.36 458.992C181.159 459.54 181.124 459.862 181.153 459.87C181.246 459.915 181.527 458.607 182.889 457.116C183.238 456.767 183.633 456.332 184.126 456.192C184.366 456.122 184.594 456.178 184.718 456.359C184.844 456.532 184.85 456.835 184.773 457.12C184.409 458.277 183.182 459.414 181.731 459.504C180.288 459.605 178.928 458.551 178.671 457.36C178.613 457.073 178.635 456.768 178.757 456.568C178.876 456.371 179.098 456.281 179.331 456.328C179.822 456.425 180.221 456.859 180.548 457.222C181.86 458.756 182.011 460.108 182.111 460.065Z" fill="#263238"/>
<path d="M106.807 289.491C104.633 286.18 95.6139 466.022 96.2185 467.054L119.976 467.395L132.909 371.3L139.941 297.824L151.28 366.864L165.193 468.046L191.157 468.42L175.109 285.01L141.486 265.744L106.807 289.491Z" fill="#263238"/>
<path d="M129.493 168.672C129.493 168.672 122.211 169.938 119.434 172.365C116.658 174.792 113.836 180.371 113.836 180.371L99.9941 189.767L112.18 238.328L101.966 305.436L104.006 311.223L180.359 309.946L181.815 304.681L173.921 243.602L177.389 202.669L180.577 186.232L166.749 180.036C166.749 180.036 173.083 178.072 173.372 176.979C173.662 175.886 159.104 168.412 159.104 168.412C159.104 168.412 136.133 164.519 129.493 168.672Z" fill="#1686FF"/>
<g opacity="0.3">
<path d="M106.33 273.914C114.942 285.077 126.711 293.305 138.288 301.352C140.73 303.049 143.265 304.787 146.184 305.362C150.363 306.185 154.951 304.259 157.29 300.698C158.965 298.146 159.534 294.929 161.521 292.611C162.865 291.043 164.745 290.029 166.186 288.552C167.433 287.274 168.313 285.691 169.179 284.129C170.757 281.279 172.334 278.43 173.913 275.58C168.158 275.556 162.842 278.39 157.65 280.872C152.458 283.354 146.686 285.596 141.077 284.312C133.311 282.536 128.363 274.634 120.9 271.845C116.207 270.091 110.722 270.613 106.444 273.22" fill="black"/>
</g>
<path d="M99.9931 189.768C99.9931 189.768 97.1484 193.399 96.5179 201.024C95.8873 208.65 90.9748 248.655 92.6268 254.405C94.2787 260.154 115.66 284.152 122.782 283.561L125.441 282.6L127.986 284.572L139.367 276.042L114.284 244.48L115.632 199.044C115.632 199.044 107.927 187.97 99.9931 189.768Z" fill="#1686FF"/>
<path d="M119.434 172.366C119.448 172.386 119.204 172.525 118.811 172.89C118.416 173.252 117.875 173.841 117.28 174.695C116.669 175.54 116.049 176.658 115.286 177.977C114.475 179.262 113.545 180.736 112.504 182.385L112.343 182.187C113.726 181.648 115.417 181.639 117.036 182.17C118.661 182.69 120.233 183.623 121.756 184.754C124.798 187.057 127.579 190.268 130.27 193.909C135.637 201.23 140.866 210.277 145.913 220.303L145.94 220.356L145.938 220.419C145.824 224.388 145.705 228.541 145.583 232.772C144.971 254.247 144.418 273.687 144.015 287.786C143.797 294.805 143.62 300.494 143.496 304.456C143.425 306.404 143.369 307.926 143.33 308.988C143.306 309.486 143.287 309.877 143.274 310.166C143.259 310.432 143.246 310.567 143.237 310.566C143.229 310.566 143.224 310.43 143.222 310.164C143.224 309.875 143.226 309.484 143.228 308.985C143.245 307.922 143.269 306.399 143.3 304.45C143.386 300.487 143.508 294.798 143.659 287.777C143.999 273.697 144.433 254.25 145.08 232.759C145.204 228.526 145.325 224.372 145.441 220.402L145.466 220.518C140.446 210.516 135.242 201.464 129.932 194.156C127.268 190.517 124.527 187.323 121.545 185.035C120.049 183.907 118.51 182.983 116.939 182.465C115.373 181.939 113.765 181.938 112.438 182.436L112.055 182.581L112.276 182.238C113.335 180.602 114.282 179.141 115.107 177.866C115.879 176.573 116.53 175.444 117.162 174.609C117.78 173.762 118.345 173.18 118.76 172.833C119.176 172.483 119.434 172.366 119.434 172.366Z" fill="#263238"/>
<path d="M170.743 178.167C170.767 178.247 169.281 178.683 166.97 179.608C164.668 180.537 161.525 181.997 158.52 184.306C155.51 186.608 153.172 189.16 151.479 190.987C150.692 191.844 150.025 192.573 149.48 193.167C149.004 193.678 148.728 193.952 148.701 193.929C148.675 193.906 148.901 193.591 149.332 193.04C149.764 192.489 150.4 191.704 151.213 190.751C152.843 188.859 155.158 186.248 158.215 183.906C161.273 181.557 164.491 180.126 166.842 179.276C168.021 178.847 168.996 178.563 169.673 178.384C170.353 178.207 170.735 178.136 170.743 178.167Z" fill="#263238"/>
<path d="M145.861 220.496C145.826 220.492 145.862 219.985 145.955 219.068C146.062 218.153 146.256 216.833 146.562 215.216C147.162 211.979 148.234 207.556 149.647 202.738C151.087 197.927 152.604 193.632 153.927 190.614C154.58 189.102 155.175 187.906 155.617 187.098C156.077 186.299 156.346 185.866 156.376 185.884C156.406 185.901 156.196 186.365 155.792 187.187C155.406 188.018 154.863 189.228 154.255 190.751C153.023 193.789 151.564 198.084 150.129 202.881C148.72 207.685 147.597 212.08 146.911 215.287C146.561 216.89 146.315 218.194 146.149 219.097C145.995 220.001 145.894 220.5 145.861 220.496Z" fill="#263238"/>
<path d="M148.233 193.643C148.108 193.583 149.855 189.701 152.134 184.972C154.413 180.242 156.362 176.458 156.486 176.519C156.611 176.578 154.865 180.461 152.585 185.19C150.306 189.918 148.358 193.702 148.233 193.643Z" fill="#263238"/>
<path d="M150.609 211.656L150.833 211.179C151.063 211.352 151.407 211.475 151.739 211.48C152.117 211.486 152.272 211.362 152.275 211.192C152.282 210.676 150.674 211.007 150.688 209.983C150.695 209.514 151.079 209.129 151.863 209.141C152.209 209.146 152.563 209.233 152.817 209.399L152.613 209.881C152.359 209.732 152.096 209.657 151.851 209.654C151.473 209.648 151.325 209.788 151.323 209.962C151.315 210.47 152.925 210.143 152.909 211.156C152.902 211.617 152.514 212.005 151.726 211.994C151.291 211.985 150.851 211.849 150.609 211.656Z" fill="white"/>
<path d="M155.479 211.486L155.471 211.998L153.336 211.967L153.375 209.209L155.46 209.239L155.452 209.751L154.002 209.73L153.993 210.329L155.274 210.347L155.267 210.844L153.987 210.825L153.978 211.464L155.479 211.486Z" fill="white"/>
<path d="M155.82 210.624C155.832 209.792 156.479 209.207 157.339 209.22C157.815 209.226 158.211 209.405 158.466 209.724L158.051 210.097C157.869 209.881 157.638 209.767 157.362 209.764C156.846 209.756 156.474 210.113 156.466 210.634C156.459 211.154 156.82 211.521 157.337 211.529C157.613 211.533 157.847 211.426 158.035 211.212L158.439 211.596C158.174 211.912 157.774 212.08 157.293 212.073C156.438 212.059 155.809 211.456 155.82 210.624Z" fill="white"/>
<path d="M160.914 211.251C160.87 211.115 160.834 210.98 160.8 210.848C160.763 210.757 160.736 210.665 160.706 210.573L160.702 210.837C160.694 211.361 160.467 211.574 160.076 211.569C159.69 211.563 159.465 211.343 159.472 210.819L159.495 209.298L158.856 209.289L158.834 210.833C158.823 211.645 159.281 212.101 160.065 212.111C160.526 212.118 160.872 211.963 161.088 211.674C161.018 211.541 160.961 211.398 160.914 211.251Z" fill="white"/>
<path d="M161.058 209.99L161.045 210.928C161.054 210.962 161.063 210.995 161.073 211.028C161.099 211.103 161.132 211.171 161.15 211.251C161.177 211.366 161.204 211.482 161.232 211.597C161.308 211.92 161.321 212.221 161.288 212.499C161.525 212.289 161.66 211.968 161.667 211.543L161.689 209.999L161.058 209.99Z" fill="white"/>
<path d="M164.039 212.791L163.518 212.015H163.487L162.931 212.008L162.919 212.776L162.281 212.766L162.321 210.008L163.514 210.025C164.251 210.036 164.706 210.425 164.698 211.044C164.692 211.458 164.478 211.758 164.118 211.906L164.724 212.802L164.039 212.791ZM163.472 210.544L162.952 210.537L162.939 211.498L163.459 211.506C163.848 211.512 164.049 211.334 164.053 211.034C164.056 210.73 163.862 210.55 163.472 210.544Z" fill="white"/>
<path d="M165.219 210.049L165.857 210.059L165.818 212.817L165.18 212.807L165.219 210.049Z" fill="white"/>
<path d="M167.076 210.596L166.193 210.584L166.201 210.064L168.604 210.098L168.596 210.618L167.713 210.606L167.682 212.844L167.043 212.834L167.076 210.596Z" fill="white"/>
<path d="M170.196 211.903L170.182 212.88L169.544 212.87L169.558 211.885L168.516 210.097L169.193 210.106L169.912 211.342L170.667 210.127L171.294 210.136L170.196 211.903Z" fill="white"/>
<path d="M163.304 219.097C163.273 219.109 163.139 218.852 162.924 218.374C162.706 217.897 162.429 217.19 162.124 216.303C161.511 214.531 160.847 212.009 160.482 209.164C160.123 206.316 160.137 203.708 160.287 201.84C160.362 200.905 160.452 200.151 160.544 199.634C160.633 199.117 160.697 198.834 160.732 198.839C160.811 198.849 160.698 199.999 160.642 201.858C160.583 203.716 160.625 206.288 160.98 209.1C161.34 211.911 161.941 214.411 162.462 216.196C162.981 217.982 163.379 219.068 163.304 219.097Z" fill="#263238"/>
<g opacity="0.3">
<path d="M147.743 211.434C147.333 214.861 146.234 216.554 146.184 220.004C146.174 220.744 145 232.413 145.689 232.683C146.5 232.999 149.589 224.498 150.263 220.261C150.792 216.941 151.728 212.573 152.284 209.256C153.904 199.582 157.494 194.373 162.526 185.953C163.479 184.359 167.036 180.018 167.036 180.018C166.693 179.801 165.282 180.47 164.294 180.914C161.456 182.191 156.375 186.251 156.375 186.251C156.375 186.251 153.322 192.085 152.29 195.021C150.315 200.652 148.786 206.334 147.666 211.992" fill="black"/>
</g>
<g opacity="0.3">
<path d="M115.954 182.059C115.954 182.059 112.851 183.754 112.871 185.119C112.89 186.484 113.936 187.646 115.131 188.308C116.325 188.968 117.685 189.256 118.964 189.732C121.976 190.856 124.485 193.011 126.753 195.29C130.472 199.025 133.737 203.212 136.456 207.728C138.716 211.484 140.788 215.667 144.573 217.88C142.011 213.298 139.354 208.865 136.792 204.284C134.236 199.711 131.282 195.374 127.951 191.33C124.62 187.285 119.19 182.384 115.954 182.059Z" fill="black"/>
</g>
<path d="M104.904 249.682C104.892 249.683 104.878 249.598 104.863 249.431C104.845 249.265 104.844 249.015 104.871 248.692C104.929 248.052 105.132 247.088 105.791 246.062C106.432 245.053 107.589 243.96 109.252 243.552C110.877 243.143 112.957 243.413 114.583 244.738L114.209 244.922C114.064 241.992 114.248 238.669 114.782 235.233C115.271 232.066 115.85 229.081 116.181 226.34C116.524 223.601 116.703 221.118 116.748 219.029C116.81 216.941 116.802 215.248 116.776 214.078C116.772 213.541 116.769 213.096 116.767 212.73C116.771 212.421 116.781 212.259 116.798 212.258C116.815 212.257 116.838 212.418 116.868 212.725C116.896 213.091 116.93 213.534 116.971 214.071C117.058 215.24 117.12 216.937 117.103 219.036C117.102 221.135 116.96 223.637 116.64 226.395C116.332 229.156 115.764 232.157 115.279 235.306C114.748 238.722 114.551 241.995 114.665 244.901L114.685 245.413L114.291 245.085C112.813 243.853 110.868 243.562 109.339 243.919C107.782 244.27 106.667 245.266 106.018 246.212C105.356 247.172 105.116 248.09 105.014 248.708C104.919 249.335 104.939 249.681 104.904 249.682Z" fill="#263238"/>
<path d="M107.325 273.136C107.333 273.127 107.438 273.219 107.632 273.403C107.85 273.617 108.13 273.889 108.475 274.226C109.225 274.931 110.324 275.966 111.808 277.171C113.295 278.369 115.147 279.771 117.415 281.131C118.549 281.8 119.779 282.501 121.145 283.007C121.82 283.259 122.55 283.397 123.29 283.328C124.012 283.269 124.778 282.971 125.271 282.456L125.42 282.3L125.58 282.424C126.382 283.041 127.246 283.707 128.131 284.388L127.849 284.387C131.353 281.754 135.196 278.866 139.219 275.842L139.175 276.201C139.111 276.121 139.042 276.035 138.972 275.949C135.541 271.677 132.484 267.461 129.639 263.674C126.807 259.878 124.237 256.477 122.012 253.673C119.792 250.866 117.91 248.664 116.56 247.189C115.894 246.442 115.349 245.89 114.981 245.512C114.615 245.132 114.429 244.927 114.441 244.913C114.452 244.901 114.662 245.082 115.051 245.439C115.443 245.793 116.012 246.327 116.702 247.054C118.101 248.493 120.03 250.665 122.289 253.449C124.553 256.23 127.157 259.613 130.009 263.395C132.874 267.166 135.945 271.377 139.362 275.631C139.432 275.717 139.5 275.803 139.564 275.882L139.727 276.086L139.52 276.241C135.49 279.255 131.64 282.133 128.13 284.757L127.987 284.864L127.848 284.755C126.967 284.069 126.106 283.398 125.308 282.776L125.617 282.742C124.976 283.404 124.145 283.683 123.33 283.756C122.517 283.828 121.715 283.666 121.007 283.394C119.592 282.855 118.366 282.137 117.225 281.447C114.953 280.047 113.112 278.61 111.641 277.375C110.174 276.134 109.1 275.064 108.379 274.325C108.053 273.967 107.79 273.679 107.583 273.453C107.403 273.252 107.316 273.145 107.325 273.136Z" fill="#263238"/>
<path d="M116.473 202.358C116.384 202.389 116.017 201.244 115.09 199.568C114.634 198.727 113.999 197.777 113.221 196.785C112.422 195.808 111.466 194.798 110.352 193.857C109.226 192.931 108.06 192.174 106.955 191.563C105.838 190.976 104.789 190.524 103.88 190.226C102.064 189.616 100.872 189.462 100.887 189.368C100.892 189.334 101.19 189.351 101.731 189.414C102.273 189.464 103.049 189.622 103.987 189.888C104.928 190.147 106.015 190.576 107.17 191.154C108.314 191.756 109.519 192.522 110.673 193.471C111.815 194.435 112.786 195.482 113.584 196.498C114.362 197.531 114.979 198.522 115.404 199.401C115.836 200.275 116.131 201.01 116.278 201.534C116.436 202.056 116.506 202.347 116.473 202.358Z" fill="#263238"/>
<g opacity="0.3">
<path d="M162.419 216.636C162.737 217.321 163.869 216.896 164.002 216.363C164.135 215.829 163.858 215.289 163.605 214.802C161.812 211.354 160.729 207.539 160.443 203.662C160.139 208.367 160.636 212.273 162.419 216.636Z" fill="black"/>
</g>
<g opacity="0.3">
<path d="M104.493 248.67C103.643 245.981 104.924 242.779 107.394 241.419C108.024 241.072 108.736 240.834 109.453 240.887C111.014 241 112.132 242.387 113.047 243.655C111.319 243.137 109.376 243.383 107.831 244.316C106.286 245.247 105.163 246.852 104.815 248.623" fill="black"/>
</g>
<path d="M179.705 190.452C179.772 190.497 179.203 191.404 178.4 192.925C177.595 194.444 176.594 196.602 175.78 199.092C174.972 201.586 174.511 203.92 174.268 205.622C174.023 207.324 173.95 208.392 173.87 208.389C173.812 208.388 173.759 207.312 173.917 205.58C174.072 203.85 174.483 201.467 175.303 198.936C176.128 196.408 177.198 194.241 178.091 192.75C178.983 191.258 179.657 190.419 179.705 190.452Z" fill="#263238"/>
<g opacity="0.3">
<path d="M173.344 214.897C172.826 215.431 172.685 219.916 172.685 219.916C172.694 225.331 173.031 227.708 173.04 233.123C173.043 235.359 173.042 237.628 172.446 239.782C172.129 240.926 171.65 242.016 171.173 243.102C170.569 244.476 169.958 245.863 169.077 247.077C168.34 248.094 167.429 248.97 166.539 249.856C162.263 254.111 158.362 258.741 154.892 263.675L152.775 266.777L173.779 247.073L174.814 244.466L174.866 244.161L173.344 214.897Z" fill="black"/>
</g>
<path d="M180.579 186.232C180.579 186.232 183.887 187.476 185.613 194.857C187.606 203.38 190.216 217.558 190.617 222.921C190.954 227.437 195.389 243.941 191.96 251.205C188.531 258.471 171.95 280.908 165.406 281.628L162.676 280.935L159.809 281.426L151.764 272.169L152.466 269.52C152.466 269.52 151.557 268.044 152.507 266.728C153.457 265.412 173.972 246.136 173.972 246.136C173.972 246.136 173.19 246.036 173.022 244.706C172.732 242.417 174.726 242.5 174.726 242.5L173.402 222.332L180.579 186.232Z" fill="#1686FF"/>
<path d="M181.823 248.531C181.734 248.655 180.222 247.571 178.074 246.895C175.933 246.195 174.072 246.197 174.072 246.044C174.05 245.92 175.985 245.687 178.227 246.417C180.474 247.128 181.912 248.443 181.823 248.531Z" fill="#263238"/>
<path d="M185.968 245.511C185.874 245.645 183.867 243.699 180.652 242.866C177.449 241.98 174.74 242.664 174.725 242.501C174.709 242.446 175.355 242.197 176.462 242.057C177.563 241.915 179.13 241.942 180.782 242.382C182.432 242.826 183.803 243.586 184.686 244.26C185.573 244.932 186.008 245.472 185.968 245.511Z" fill="#263238"/>
<path d="M174.071 246.044C174.051 246.092 173.729 246.064 173.307 245.747C173.1 245.587 172.887 245.325 172.772 244.979C172.656 244.632 172.661 244.224 172.759 243.837C172.829 243.578 172.923 243.354 173.054 243.134L173.031 243.183C173.33 242.489 173.963 242.359 174.31 242.327C174.69 242.303 174.898 242.413 174.887 242.464C174.877 242.526 174.671 242.53 174.365 242.629C174.075 242.719 173.616 242.941 173.489 243.337L173.484 243.352L173.466 243.387C173.382 243.545 173.297 243.757 173.243 243.964C173.061 244.611 173.252 245.169 173.549 245.49C173.842 245.815 174.108 245.969 174.071 246.044Z" fill="#263238"/>
<path d="M173.141 213.913C173.175 213.91 173.237 214.308 173.321 215.03C173.405 215.752 173.502 216.8 173.604 218.094C173.81 220.684 174.01 224.267 174.183 228.225C174.35 232.124 174.5 235.651 174.615 238.358C174.664 239.572 174.706 240.598 174.739 241.429C174.762 242.154 174.758 242.557 174.723 242.56C174.689 242.563 174.627 242.165 174.543 241.442C174.458 240.72 174.362 239.674 174.26 238.378C174.054 235.788 173.854 232.204 173.681 228.246C173.514 224.347 173.364 220.822 173.248 218.115C173.199 216.901 173.158 215.875 173.125 215.043C173.103 214.318 173.107 213.915 173.141 213.913Z" fill="#263238"/>
<path d="M174.405 245.905C174.415 245.916 174.24 246.088 173.896 246.404C173.519 246.744 173.013 247.202 172.376 247.776C171.021 249.006 169.112 250.737 166.748 252.881C164.375 255.068 161.556 257.711 158.453 260.735C156.903 262.246 155.276 263.854 153.608 265.541C153.206 265.964 152.818 266.408 152.578 266.917C152.324 267.425 152.288 267.979 152.403 268.564C152.498 269.152 152.721 269.754 152.701 270.456C152.682 271.106 152.433 271.927 151.67 272.243L151.766 271.85C153.098 273.373 154.496 274.97 155.918 276.596C157.304 278.183 158.667 279.744 159.994 281.263L159.765 281.182C160.736 281.017 161.692 280.855 162.634 280.694L162.67 280.688L162.701 280.692C163.958 280.846 165.001 281.426 166.09 281.239C167.173 281.107 168.154 280.541 169.018 279.896C170.733 278.559 172.225 277.036 173.613 275.609C176.37 272.714 178.629 269.963 180.486 267.654C182.34 265.343 183.788 263.465 184.79 262.18C185.273 261.565 185.656 261.077 185.945 260.709C186.212 260.377 186.356 260.207 186.369 260.216C186.381 260.225 186.26 260.411 186.015 260.761C185.743 261.141 185.381 261.646 184.927 262.282C183.967 263.6 182.559 265.508 180.734 267.85C178.908 270.188 176.673 272.97 173.922 275.902C172.529 277.352 171.06 278.876 169.297 280.266C168.406 280.936 167.367 281.557 166.149 281.712C164.902 281.915 163.746 281.291 162.652 281.177L162.718 281.175C161.776 281.338 160.821 281.502 159.85 281.669L159.713 281.693L159.622 281.588C158.294 280.07 156.929 278.51 155.542 276.925C154.121 275.298 152.725 273.7 151.394 272.176L151.16 271.908L151.489 271.782C151.965 271.6 152.196 271.005 152.211 270.438C152.235 269.873 152.03 269.274 151.925 268.647C151.796 268.024 151.842 267.292 152.145 266.709C152.428 266.117 152.852 265.646 153.267 265.211C154.953 263.518 156.585 261.924 158.149 260.419C161.276 257.412 164.122 254.793 166.527 252.638C168.934 250.483 170.896 248.792 172.26 247.642C172.92 247.094 173.445 246.659 173.837 246.333C174.2 246.041 174.394 245.893 174.405 245.905Z" fill="#263238"/>
<path d="M173.916 234.347C173.914 234.486 160.792 234.409 144.611 234.177C128.425 233.944 115.309 233.643 115.311 233.505C115.312 233.366 128.432 233.443 144.618 233.676C160.799 233.907 173.918 234.209 173.916 234.347Z" fill="#263238"/>
<path d="M158.854 242.287C158.872 242.29 158.863 242.418 158.831 242.659C158.794 242.899 158.759 243.258 158.654 243.708C158.476 244.615 158.123 245.914 157.5 247.451C156.284 250.511 153.729 254.544 149.581 257.532C145.43 260.517 140.794 261.66 137.505 261.842C135.849 261.945 134.506 261.867 133.589 261.748C133.129 261.703 132.778 261.622 132.538 261.582C132.299 261.535 132.176 261.503 132.178 261.486C132.186 261.376 134.213 261.779 137.476 261.489C140.71 261.219 145.229 260.044 149.287 257.125C153.341 254.204 155.89 250.293 157.172 247.311C158.486 244.311 158.747 242.26 158.854 242.287Z" fill="#263238"/>
<path d="M130.765 282.518C130.68 282.623 130.132 282.315 129.637 281.738C129.141 281.163 128.917 280.576 129.035 280.507C129.155 280.434 129.551 280.873 130.018 281.412C130.482 281.953 130.856 282.409 130.765 282.518Z" fill="#263238"/>
<path d="M134.44 279.651C134.328 279.734 133.914 279.363 133.514 278.824C133.115 278.285 132.881 277.782 132.993 277.699C133.103 277.616 133.518 277.987 133.918 278.526C134.316 279.065 134.55 279.568 134.44 279.651Z" fill="#263238"/>
<path d="M155.733 271.932C155.797 272.057 155.246 272.46 154.559 272.921C153.87 273.38 153.287 273.736 153.195 273.629C153.105 273.526 153.562 272.983 154.28 272.504C154.997 272.024 155.673 271.809 155.733 271.932Z" fill="#263238"/>
<path d="M158.465 274.616C158.579 274.687 158.246 275.419 157.549 276.103C156.855 276.79 156.118 277.112 156.05 276.995C155.975 276.875 156.549 276.388 157.198 275.746C157.85 275.106 158.346 274.538 158.465 274.616Z" fill="#263238"/>
<path d="M161.079 277.818C161.18 277.911 160.755 278.525 160.044 279.088C159.334 279.654 158.64 279.928 158.573 279.81C158.501 279.689 159.054 279.236 159.732 278.695C160.412 278.158 160.977 277.722 161.079 277.818Z" fill="#263238"/>
<path d="M123.733 175.364C123.875 175.308 125.024 178.201 126.988 181.476C128.936 184.761 130.933 187.148 130.817 187.246C130.768 187.288 130.205 186.744 129.396 185.772C128.587 184.802 127.549 183.39 126.558 181.732C125.57 180.072 124.822 178.487 124.353 177.314C123.884 176.14 123.673 175.387 123.733 175.364Z" fill="#263238"/>
<path d="M181.816 304.681C181.816 304.698 181.536 304.712 181.003 304.724C180.424 304.731 179.648 304.739 178.67 304.75C176.596 304.769 173.679 304.796 170.095 304.829C162.855 304.916 152.855 305.188 141.809 305.525C130.759 305.862 120.752 306.077 113.507 306.074C109.884 306.075 106.953 306.049 104.927 305.995C103.95 305.966 103.173 305.944 102.596 305.926C102.062 305.905 101.783 305.886 101.783 305.868C101.783 305.851 102.063 305.837 102.597 305.825C103.175 305.818 103.952 305.81 104.928 305.799C107.003 305.78 109.92 305.753 113.504 305.719C120.744 305.632 130.745 305.36 141.795 305.023C152.84 304.686 162.847 304.471 170.092 304.474C173.715 304.473 176.646 304.499 178.671 304.553C179.648 304.582 180.425 304.604 181.003 304.622C181.536 304.644 181.816 304.663 181.816 304.681Z" fill="#263238"/>
<path d="M161.87 176.941C161.756 177.041 160.578 175.695 158.732 174.563C156.897 173.41 155.169 172.953 155.208 172.806C155.219 172.681 157.075 172.933 158.997 174.137C160.928 175.325 161.977 176.876 161.87 176.941Z" fill="#1686FF"/>
<path d="M155.636 283.318C155.997 284.015 156.875 284.283 157.659 284.253C158.444 284.223 159.205 283.97 159.989 283.926C160.773 283.883 161.653 284.116 162.051 284.793C162.366 285.329 162.293 286.033 161.985 286.574C161.678 287.115 161.171 287.515 160.634 287.83C158.068 289.337 154.551 288.998 152.318 287.03" fill="#B78876"/>
<path d="M137.99 295.275C140.254 297.536 142.754 299.56 145.435 301.306C146.027 301.692 146.699 302.08 147.397 301.966C148.095 301.851 148.651 300.944 148.183 300.413C148.899 300.988 150.003 301.014 150.747 300.474C151.451 299.963 151.773 298.984 151.527 298.152C151.511 298.096 151.559 298.051 151.613 298.071C152.3 298.333 153.109 298.313 153.73 297.922C154.39 297.506 154.77 296.638 154.519 295.898C155.233 296.866 156.945 296.483 157.495 295.414C158.045 294.345 157.661 293.001 156.934 292.045C156.206 291.089 155.184 290.408 154.267 289.633C153.349 288.858 152.484 287.904 152.266 286.723" fill="#B78876"/>
<path d="M148.486 300.811C148.434 300.929 147.139 300.392 145.947 299.18C144.746 297.976 144.222 296.677 144.341 296.626C144.471 296.556 145.164 297.688 146.303 298.828C147.432 299.978 148.557 300.682 148.486 300.811Z" fill="#AA6550"/>
<path d="M152.085 298.581C152.013 298.694 150.899 298.091 149.801 296.998C148.698 295.909 148.086 294.8 148.196 294.729C148.315 294.647 149.089 295.593 150.154 296.641C151.211 297.696 152.165 298.462 152.085 298.581Z" fill="#AA6550"/>
<path d="M155.224 296.362C155.155 296.476 154.086 295.922 153.034 294.895C151.977 293.873 151.395 292.82 151.506 292.747C151.623 292.665 152.366 293.553 153.384 294.536C154.395 295.524 155.303 296.242 155.224 296.362Z" fill="#AA6550"/>
<path d="M131.675 273.521C131.675 273.521 131.388 272.294 134.548 272.69C137.709 273.088 139.122 273.393 142.673 273.21C146.224 273.026 151.985 272.014 151.985 272.014L161.254 280.171C161.254 280.171 151.773 288.5 148.937 289.984C146.101 291.467 140.326 295.167 137.04 294.99C134.542 294.856 134.317 293.613 134.317 293.613C134.317 293.613 131.879 291.936 132.242 291.12C132.242 291.12 129.346 290.962 129.889 288.741C129.889 288.741 127.825 288.36 127.49 287.181C127.155 286.004 128.714 284.619 129.313 284.025C130.277 283.07 138.713 276.879 138.749 276.705C138.749 276.705 131.542 275.99 131.675 273.521Z" fill="#B78876"/>
<path d="M137.654 282.525C137.739 282.635 136.04 284.085 133.863 285.764C131.684 287.444 129.849 288.716 129.765 288.606C129.68 288.496 131.377 287.046 133.557 285.367C135.734 283.688 137.569 282.415 137.654 282.525Z" fill="#AA6550"/>
<path d="M142.119 283.389C142.168 283.43 141.771 284.028 141.011 284.901C140.252 285.774 139.112 286.907 137.718 287.999C136.322 289.087 134.947 289.92 133.916 290.445C132.884 290.971 132.208 291.212 132.181 291.154C132.112 291.016 134.67 289.759 137.409 287.603C140.163 285.467 142.001 283.288 142.119 283.389Z" fill="#AA6550"/>
<path d="M146.106 286.245C146.154 286.28 145.728 286.972 144.85 287.945C143.976 288.916 142.611 290.135 140.895 291.17C139.174 292.202 137.459 292.837 136.191 293.155C134.921 293.475 134.111 293.526 134.102 293.468C134.059 293.309 137.277 292.789 140.637 290.74C144.018 288.733 145.986 286.133 146.106 286.245Z" fill="#AA6550"/>
<path d="M157.422 283.594C157.445 283.62 157.196 283.876 156.725 284.318C156.251 284.755 155.55 285.372 154.653 286.097C152.865 287.552 150.28 289.435 147.238 291.214C145.718 292.104 144.232 292.889 142.859 293.552C141.492 294.227 140.189 294.747 139.038 294.976C137.887 295.219 136.91 295.148 136.278 294.979C135.642 294.807 135.337 294.6 135.348 294.581C135.359 294.479 136.731 295.216 138.961 294.63C140.06 294.366 141.309 293.831 142.655 293.138C144.008 292.457 145.475 291.665 146.985 290.782C150.004 289.016 152.601 287.194 154.436 285.818C156.275 284.444 157.371 283.535 157.422 283.594Z" fill="#AA6550"/>
<path d="M140.446 121.744C131.187 120.889 123.018 127.786 122.326 137.059C121.749 144.776 121.207 153.125 121.197 157.335C121.179 166.37 130.194 167.905 130.194 167.905C130.194 167.905 129.935 170.578 129.638 173.896C129.039 180.576 134.077 186.436 140.772 186.84C147.337 187.235 152.977 182.231 153.367 175.667L155.525 139.296C156.055 130.337 149.383 122.57 140.446 121.744Z" fill="#B78876"/>
<path d="M130.18 167.775C130.18 167.775 135.883 168.322 142.005 164.597C142.005 164.597 138.978 171.127 129.977 170.184L130.18 167.775Z" fill="#AA6550"/>
<path d="M154.646 142.388C154.801 142.324 160.88 140.642 160.594 146.815C160.308 152.987 154.169 151.427 154.166 151.25C154.164 151.073 154.646 142.388 154.646 142.388Z" fill="#B78876"/>
<path d="M156.159 148.999C156.187 148.981 156.263 149.079 156.441 149.171C156.614 149.261 156.917 149.331 157.244 149.225C157.907 149.016 158.504 148.007 158.586 146.895C158.628 146.333 158.535 145.793 158.357 145.341C158.189 144.881 157.912 144.552 157.586 144.478C157.262 144.388 157.021 144.574 156.937 144.743C156.846 144.912 156.88 145.037 156.846 145.046C156.828 145.061 156.718 144.937 156.78 144.684C156.812 144.563 156.891 144.421 157.041 144.309C157.195 144.195 157.415 144.144 157.642 144.179C158.117 144.234 158.525 144.692 158.722 145.189C158.944 145.688 159.061 146.297 159.015 146.926C158.918 148.168 158.228 149.303 157.323 149.52C156.884 149.613 156.527 149.465 156.347 149.311C156.163 149.149 156.137 149.01 156.159 148.999Z" fill="#AA6550"/>
<path d="M125.834 141.982C125.8 142.663 126.349 143.253 127.059 143.302C127.767 143.35 128.372 142.839 128.406 142.158C128.439 141.478 127.891 140.887 127.182 140.838C126.471 140.789 125.867 141.302 125.834 141.982Z" fill="#263238"/>
<path d="M124.606 140.311C124.763 140.481 125.751 139.772 127.139 139.796C128.527 139.8 129.535 140.529 129.688 140.361C129.763 140.287 129.604 139.981 129.165 139.652C128.733 139.323 127.992 139 127.128 138.991C126.263 138.984 125.531 139.292 125.108 139.611C124.677 139.933 124.528 140.234 124.606 140.311Z" fill="#263238"/>
<path d="M139.744 142.363C139.71 143.044 140.259 143.634 140.969 143.682C141.679 143.73 142.281 143.219 142.316 142.539C142.35 141.858 141.801 141.267 141.092 141.218C140.381 141.17 139.778 141.683 139.744 142.363Z" fill="#263238"/>
<path d="M138.248 140.766C138.406 140.937 139.394 140.227 140.782 140.251C142.169 140.255 143.178 140.984 143.331 140.816C143.406 140.742 143.249 140.436 142.808 140.107C142.376 139.779 141.635 139.455 140.771 139.447C139.907 139.439 139.175 139.747 138.751 140.067C138.321 140.388 138.171 140.69 138.248 140.766Z" fill="#263238"/>
<path d="M133.062 150.989C133.069 150.91 132.209 150.748 130.813 150.55C130.46 150.509 130.125 150.433 130.069 150.19C129.989 149.933 130.143 149.553 130.321 149.143C130.667 148.29 131.029 147.395 131.408 146.459C132.919 142.636 134.018 139.491 133.864 139.431C133.709 139.371 132.359 142.422 130.848 146.244C130.484 147.186 130.135 148.086 129.804 148.945C129.664 149.346 129.427 149.799 129.6 150.333C129.691 150.6 129.949 150.795 130.176 150.86C130.402 150.932 130.601 150.939 130.776 150.952C132.182 151.05 133.055 151.068 133.062 150.989Z" fill="#263238"/>
<path d="M136.646 135.739C136.807 136.107 138.178 135.838 139.817 135.926C141.457 135.982 142.799 136.372 142.992 136.019C143.078 135.852 142.826 135.512 142.272 135.182C141.723 134.853 140.862 134.561 139.879 134.517C138.896 134.474 138.014 134.688 137.437 134.967C136.855 135.248 136.574 135.564 136.646 135.739Z" fill="#263238"/>
<path d="M124.087 135.196C124.327 135.515 125.287 135.201 126.438 135.203C127.588 135.164 128.559 135.446 128.788 135.118C128.888 134.96 128.74 134.642 128.318 134.337C127.903 134.033 127.205 133.78 126.415 133.793C125.624 133.806 124.935 134.083 124.531 134.399C124.119 134.718 123.981 135.04 124.087 135.196Z" fill="#263238"/>
<path d="M155.356 142.114C155.422 143.06 155.374 144.152 155.16 145.076C154.946 146 154.406 146.897 153.551 147.309C151.988 148.06 150.058 146.846 149.386 145.248C148.714 143.65 148.933 141.836 149.117 140.112C149.368 137.76 149.532 135.37 149.112 133.042C148.693 130.714 147.636 128.43 145.806 126.932C143.976 125.434 141.304 124.864 139.167 125.877C137.848 126.502 136.846 127.639 135.612 128.419C134.503 129.121 133.16 129.527 131.866 129.305C130.572 129.083 128.82 128.174 129.039 126.88C129.552 123.865 127.459 126.394 127.596 125.882C127.826 125.027 129.564 123.562 130.285 123.032C131.616 122.054 133.026 121.585 134.436 121.338C138.348 120.651 142.558 121.147 146.228 122.669C149.898 124.19 153.12 127.027 154.62 130.705C156.355 134.958 156.085 137.535 155.499 142.116" fill="#263238"/>
<path d="M135.999 155.096C136.014 155.372 134.86 155.659 133.423 155.737C131.985 155.814 130.809 155.652 130.793 155.376C130.779 155.099 131.931 154.813 133.369 154.736C134.806 154.658 135.984 154.819 135.999 155.096Z" fill="#263238"/>
<path d="M155.34 142.657C155.323 142.72 154.593 142.59 153.449 142.244C152.305 141.902 150.76 141.328 149.081 140.646C147.508 140.013 146.08 139.439 144.783 138.918C143.68 138.49 142.989 138.24 143.008 138.169C143.025 138.106 143.755 138.236 144.899 138.582C146.043 138.924 147.589 139.498 149.268 140.181C150.84 140.813 152.268 141.387 153.565 141.909C154.669 142.336 155.36 142.586 155.34 142.657Z" fill="#263238"/>
<path d="M129.655 137.323C130.476 137.42 131.148 138.045 131.271 138.861C131.515 140.479 131.243 142.178 130.478 143.627C129.491 145.499 127.696 146.927 125.651 147.469C124.477 147.78 123.153 147.788 122.127 147.139C120.69 146.23 120.247 144.352 120.121 142.656C120.03 141.419 120.062 140.092 120.743 139.055C121.612 137.73 123.317 137.22 124.899 137.134C126.481 137.048 129.655 137.323 129.655 137.323Z" fill="#263238"/>
<path d="M136.913 137.546C136.081 137.62 135.383 138.233 135.235 139.055C134.94 140.684 135.166 142.409 135.897 143.896C136.841 145.817 138.614 147.313 140.666 147.921C141.843 148.269 143.182 148.316 144.239 147.689C145.718 146.812 146.221 144.926 146.397 143.215C146.526 141.967 146.531 140.626 145.873 139.556C145.033 138.192 143.324 137.626 141.727 137.493C140.13 137.36 136.913 137.546 136.913 137.546Z" fill="#263238"/>
<path d="M138.373 137.802C138.37 137.941 135.998 138.005 133.076 137.948C130.152 137.889 127.786 137.73 127.789 137.591C127.792 137.453 130.163 137.388 133.087 137.446C136.008 137.504 138.376 137.664 138.373 137.802Z" fill="#263238"/>
<path d="M154.987 178.771C154.979 178.771 154.97 178.72 154.961 178.62C154.952 178.52 154.951 178.37 154.978 178.175C155.023 177.783 155.218 177.224 155.574 176.578C155.926 175.928 156.389 175.166 156.66 174.173C156.952 173.189 157.076 172.014 157.069 170.715C157.07 169.408 156.904 168.002 156.809 166.433C156.804 166.035 156.849 165.579 157.107 165.187C157.343 164.814 157.817 164.464 158.371 164.605C158.625 164.676 158.846 164.838 158.986 165.076C159.136 165.311 159.136 165.663 158.968 165.907C158.575 166.409 157.966 166.361 157.513 166.189C156.598 165.757 156.091 164.673 156.363 163.67C156.494 163.18 156.792 162.729 157.22 162.423C157.437 162.271 157.689 162.156 157.977 162.124C158.255 162.09 158.601 162.165 158.826 162.412C159.035 162.64 159.164 162.978 159.029 163.331C158.873 163.693 158.498 163.807 158.227 163.82C157.654 163.849 157.111 163.586 156.74 163.182C156.367 162.782 156.14 162.206 156.226 161.625C156.312 161.048 156.681 160.553 157.163 160.259C157.567 160.009 158.064 159.896 158.555 160.01C158.802 160.075 159.023 160.199 159.206 160.39C159.387 160.571 159.519 160.896 159.427 161.193C159.348 161.494 159.077 161.695 158.843 161.767C158.601 161.847 158.362 161.857 158.127 161.828C157.668 161.755 157.264 161.561 156.917 161.289C156.233 160.76 155.795 159.796 156.129 158.922C156.44 158.109 157.305 157.491 158.207 157.692C158.64 157.796 159.054 158.107 159.13 158.626C159.161 158.882 159.044 159.149 158.866 159.308C158.689 159.471 158.471 159.56 158.243 159.582C157.782 159.612 157.406 159.393 157.114 159.164C156.817 158.928 156.566 158.636 156.4 158.293C156.042 157.615 156.198 156.674 156.845 156.234C157.508 155.763 158.516 156.144 158.644 156.94L158.665 157.074L158.549 157.136C157.635 157.632 156.542 157.12 156.213 156.298C156.038 155.878 156.116 155.405 156.317 155.054C156.521 154.7 156.831 154.43 157.185 154.288C157.537 154.138 157.945 154.139 158.277 154.281C158.614 154.403 158.903 154.787 158.812 155.164C158.779 155.348 158.641 155.522 158.463 155.583C158.286 155.646 158.107 155.618 157.962 155.556C157.654 155.429 157.506 155.123 157.448 154.878C157.278 153.875 157.362 153.112 157.421 152.591C157.493 152.073 157.574 151.808 157.591 151.812C157.668 151.807 157.335 152.929 157.664 154.82C157.726 155.038 157.846 155.249 158.057 155.327C158.268 155.418 158.513 155.338 158.544 155.111C158.645 154.615 157.843 154.309 157.307 154.582C156.745 154.81 156.271 155.531 156.545 156.164C156.785 156.786 157.714 157.179 158.344 156.799L158.25 156.995C158.197 156.546 157.484 156.254 157.082 156.579C156.644 156.888 156.505 157.572 156.793 158.1C157.053 158.612 157.657 159.15 158.199 159.125C158.464 159.102 158.701 158.889 158.663 158.674C158.643 158.452 158.377 158.204 158.095 158.152C157.501 158.005 156.807 158.472 156.581 159.093C156.34 159.708 156.657 160.468 157.221 160.902C157.501 161.122 157.847 161.283 158.19 161.335C158.52 161.385 158.907 161.268 158.944 161.056C159.024 160.861 158.746 160.567 158.428 160.494C158.108 160.419 157.727 160.492 157.423 160.686C157.052 160.909 156.777 161.292 156.719 161.698C156.657 162.102 156.817 162.533 157.104 162.843C157.389 163.156 157.801 163.344 158.194 163.325C158.61 163.315 158.694 163.023 158.466 162.747C158.273 162.521 157.81 162.587 157.498 162.82C157.169 163.052 156.928 163.409 156.824 163.794C156.591 164.559 157.031 165.453 157.69 165.763C158.007 165.904 158.456 165.868 158.591 165.656C158.753 165.447 158.55 165.11 158.252 165.028C157.981 164.946 157.643 165.138 157.465 165.421C157.275 165.7 157.224 166.064 157.225 166.429C157.299 167.939 157.447 169.396 157.423 170.715C157.408 172.037 157.256 173.245 156.927 174.254C156.621 175.273 156.114 176.051 155.744 176.673C155.368 177.298 155.153 177.819 155.077 178.193C154.999 178.564 155.011 178.77 154.987 178.771Z" fill="#E0E0E0"/>
<path d="M158.536 149.228C158.475 148.765 158.371 148.297 158.126 147.899C157.882 147.5 157.476 147.179 157.011 147.135C156.492 147.087 155.961 147.424 155.785 147.914C155.614 148.39 155.834 148.978 156.24 149.28C156.25 149.288 156.257 149.295 156.266 149.301C156.269 149.303 156.272 149.307 156.276 149.309L156.272 149.305C156.309 149.331 156.348 149.356 156.379 149.375C156.54 149.478 156.767 149.49 156.929 149.59C157.26 149.795 157.367 150.231 157.351 150.62C157.336 151.009 157.23 151.394 157.259 151.783C157.28 152.065 157.441 152.394 157.724 152.4C157.969 152.405 158.143 152.164 158.245 151.94C158.627 151.103 158.659 150.142 158.536 149.228Z" fill="#E0E0E0"/>
<path d="M130.053 169.359C130.053 169.359 128.117 172.197 127.958 174.042C127.854 175.263 128.667 180.011 129.229 183.083C129.552 184.847 130.241 186.52 131.252 188.002L132.505 189.837C134.317 192.49 135.827 195.337 137.008 198.324C139.45 204.498 143.553 214.893 143.696 215.39C143.901 216.101 145.519 219.021 145.519 219.021L147.689 193.073L154.235 180.1C154.805 178.971 155.124 177.732 155.17 176.469L155.322 172.304C155.378 170.778 154.835 169.292 153.809 168.162L153.48 171.911L142.624 181.773L130.031 173.3L130.053 169.359Z" fill="white"/>
<path d="M142.072 181.855C142.13 181.945 140.856 182.313 139.803 183.997C138.709 185.622 137.883 188.246 137.167 191.175C137.094 191.465 137.023 191.752 136.955 192.021L136.858 192.408L136.554 192.153C134.362 190.316 132.678 188.415 131.461 187.065C130.255 185.704 129.535 184.859 129.582 184.814C129.63 184.768 130.439 185.532 131.711 186.832C132.991 188.119 134.713 189.971 136.872 191.767L136.47 191.898C136.538 191.629 136.609 191.342 136.681 191.052C137.399 188.112 138.294 185.438 139.511 183.794C140.105 182.974 140.741 182.414 141.253 182.158C141.751 181.888 142.069 181.837 142.072 181.855Z" fill="#263238"/>
<path d="M149.821 188.848C149.903 188.904 148.906 190.513 147.377 192.821L146.978 193.423L146.966 192.691C146.95 191.637 146.656 190.435 146.296 189.162C145.721 186.937 145.188 184.931 144.366 183.697C143.575 182.45 142.754 181.942 142.818 181.865C142.835 181.839 143.048 181.944 143.397 182.193C143.743 182.445 144.209 182.871 144.66 183.499C145.606 184.751 146.209 186.82 146.781 189.032C147.137 190.299 147.434 191.555 147.417 192.695L147.006 192.566C148.602 190.305 149.739 188.792 149.821 188.848Z" fill="#263238"/>
<path d="M144.854 217.249C144.715 217.258 144.097 209.391 143.472 199.681C142.847 189.966 142.452 182.087 142.59 182.078C142.729 182.07 143.347 189.935 143.972 199.649C144.598 209.359 144.993 217.241 144.854 217.249Z" fill="#263238"/>
<path d="M120.596 142.668C120.475 142.726 120.056 141.668 120.481 140.408C120.893 139.143 121.863 138.545 121.923 138.665C122.02 138.776 121.311 139.46 120.957 140.566C120.579 141.665 120.738 142.636 120.596 142.668Z" fill="#E0E0E0"/>
<path d="M136.473 143.212C136.371 143.296 135.736 142.478 135.742 141.261C135.736 140.044 136.371 139.226 136.474 139.311C136.602 139.381 136.233 140.199 136.244 141.261C136.232 142.323 136.601 143.141 136.473 143.212Z" fill="#E0E0E0"/>
</svg>
