<svg width="271" height="244" viewBox="0 0 271 244" fill="none" xmlns="http://www.w3.org/2000/svg">
<path d="M132.66 115C132.54 115 132.44 114.96 132.36 114.88C132.28 114.787 132.24 114.687 132.24 114.58C132.24 114.513 132.247 114.453 132.26 114.4L137.02 101.54C137.06 101.393 137.14 101.267 137.26 101.16C137.38 101.053 137.547 101 137.76 101H140.32C140.533 101 140.7 101.053 140.82 101.16C140.94 101.267 141.02 101.393 141.06 101.54L145.82 114.4C145.833 114.453 145.84 114.513 145.84 114.58C145.84 114.687 145.8 114.787 145.72 114.88C145.64 114.96 145.54 115 145.42 115H143.34C143.14 115 142.993 114.953 142.9 114.86C142.807 114.767 142.747 114.68 142.72 114.6L141.86 112.36H136.22L135.36 114.6C135.333 114.68 135.273 114.767 135.18 114.86C135.087 114.953 134.94 115 134.74 115H132.66ZM136.96 109.78H141.1L139.04 104.02L136.96 109.78Z" fill="#FF2626"/>
<path d="M182.98 31C182.833 31 182.713 30.9533 182.62 30.86C182.527 30.7667 182.48 30.6467 182.48 30.5V17.5C182.48 17.3533 182.527 17.2333 182.62 17.14C182.713 17.0467 182.833 17 182.98 17H192.04C192.187 17 192.307 17.0467 192.4 17.14C192.493 17.2333 192.54 17.3533 192.54 17.5V19.1C192.54 19.2333 192.493 19.3467 192.4 19.44C192.307 19.5333 192.187 19.58 192.04 19.58H185.56V22.72H191.6C191.747 22.72 191.867 22.7667 191.96 22.86C192.053 22.9533 192.1 23.0733 192.1 23.22V24.7C192.1 24.8333 192.053 24.9467 191.96 25.04C191.867 25.1333 191.747 25.18 191.6 25.18H185.56V28.42H192.2C192.347 28.42 192.467 28.4667 192.56 28.56C192.653 28.6533 192.7 28.7733 192.7 28.92V30.5C192.7 30.6467 192.653 30.7667 192.56 30.86C192.467 30.9533 192.347 31 192.2 31H182.98Z" fill="#FF2626"/>
<path d="M68.04 164.2C66.7867 164.2 65.72 163.993 64.84 163.58C63.9733 163.153 63.3 162.54 62.82 161.74C62.34 160.927 62.0733 159.94 62.02 158.78C62.0067 158.233 62 157.647 62 157.02C62 156.393 62.0067 155.793 62.02 155.22C62.0733 154.073 62.34 153.1 62.82 152.3C63.3133 151.487 64 150.867 64.88 150.44C65.76 150.013 66.8133 149.8 68.04 149.8C68.9333 149.8 69.7467 149.913 70.48 150.14C71.2133 150.367 71.8467 150.693 72.38 151.12C72.9133 151.547 73.3267 152.047 73.62 152.62C73.9133 153.193 74.0733 153.833 74.1 154.54C74.1 154.66 74.0533 154.76 73.96 154.84C73.88 154.92 73.78 154.96 73.66 154.96H71.38C71.22 154.96 71.0933 154.92 71 154.84C70.9067 154.76 70.8333 154.627 70.78 154.44C70.58 153.653 70.2467 153.113 69.78 152.82C69.3133 152.527 68.7333 152.38 68.04 152.38C67.2133 152.38 66.56 152.607 66.08 153.06C65.6 153.513 65.34 154.267 65.3 155.32C65.26 156.413 65.26 157.533 65.3 158.68C65.34 159.733 65.6 160.487 66.08 160.94C66.56 161.393 67.2133 161.62 68.04 161.62C68.7333 161.62 69.3133 161.473 69.78 161.18C70.26 160.873 70.5933 160.333 70.78 159.56C70.8333 159.36 70.9067 159.227 71 159.16C71.0933 159.08 71.22 159.04 71.38 159.04H73.66C73.78 159.04 73.88 159.08 73.96 159.16C74.0533 159.24 74.1 159.34 74.1 159.46C74.0733 160.167 73.9133 160.807 73.62 161.38C73.3267 161.953 72.9133 162.453 72.38 162.88C71.8467 163.307 71.2133 163.633 70.48 163.86C69.7467 164.087 68.9333 164.2 68.04 164.2Z" fill="#FF2626"/>
<path d="M9.98 77C9.83333 77 9.71333 76.9533 9.62 76.86C9.52667 76.7667 9.48 76.6467 9.48 76.5V63.5C9.48 63.3533 9.52667 63.2333 9.62 63.14C9.71333 63.0467 9.83333 63 9.98 63H12.1C12.2467 63 12.3667 63.0467 12.46 63.14C12.5533 63.2333 12.6 63.3533 12.6 63.5V68.06L16.72 63.38C16.7733 63.3 16.86 63.22 16.98 63.14C17.1133 63.0467 17.2867 63 17.5 63H19.92C20.04 63 20.14 63.0467 20.22 63.14C20.3 63.22 20.34 63.3133 20.34 63.42C20.34 63.5133 20.3133 63.5933 20.26 63.66L15.12 69.7L20.64 76.34C20.6933 76.3933 20.72 76.4733 20.72 76.58C20.72 76.6867 20.68 76.7867 20.6 76.88C20.52 76.96 20.42 77 20.3 77H17.8C17.56 77 17.38 76.9467 17.26 76.84C17.14 76.7333 17.06 76.66 17.02 76.62L12.6 71.5V76.5C12.6 76.6467 12.5533 76.7667 12.46 76.86C12.3667 76.9533 12.2467 77 12.1 77H9.98Z" fill="#FF2626"/>
<path d="M245.98 99C245.833 99 245.713 98.9533 245.62 98.86C245.527 98.7667 245.48 98.6467 245.48 98.5V85.5C245.48 85.3533 245.527 85.2333 245.62 85.14C245.713 85.0467 245.833 85 245.98 85H251.92C253.027 85 253.933 85.16 254.64 85.48C255.347 85.8 255.867 86.2533 256.2 86.84C256.547 87.4267 256.72 88.1133 256.72 88.9C256.72 89.3933 256.627 89.8267 256.44 90.2C256.267 90.5733 256.047 90.88 255.78 91.12C255.527 91.36 255.28 91.54 255.04 91.66C255.56 91.9 256.013 92.3 256.4 92.86C256.8 93.4067 257 94.06 257 94.82C257 95.66 256.813 96.3933 256.44 97.02C256.067 97.6467 255.513 98.1333 254.78 98.48C254.047 98.8267 253.153 99 252.1 99H245.98ZM248.66 96.66H251.72C252.373 96.66 252.867 96.48 253.2 96.12C253.533 95.7467 253.7 95.3067 253.7 94.8C253.7 94.28 253.527 93.8467 253.18 93.5C252.847 93.14 252.36 92.96 251.72 92.96H248.66V96.66ZM248.66 90.66H251.54C252.167 90.66 252.633 90.5067 252.94 90.2C253.26 89.88 253.42 89.4733 253.42 88.98C253.42 88.4867 253.26 88.0933 252.94 87.8C252.633 87.4933 252.167 87.34 251.54 87.34H248.66V90.66ZM261.506 102.5C260.946 102.5 260.433 102.4 259.966 102.2C259.513 102.013 259.146 101.733 258.866 101.36C258.6 100.987 258.466 100.533 258.466 100C258.466 99.68 258.52 99.38 258.626 99.1C258.746 98.8333 258.88 98.5933 259.026 98.38C259.186 98.1533 259.32 97.9733 259.426 97.84L261.146 95.7C261.213 95.62 261.3 95.5533 261.406 95.5C261.513 95.4333 261.62 95.4 261.726 95.4H262.766C262.873 95.4 262.966 95.44 263.046 95.52C263.126 95.6 263.166 95.6933 263.166 95.8C263.166 95.8533 263.146 95.9133 263.106 95.98C263.08 96.0467 263.033 96.12 262.966 96.2L261.866 97.56C262.266 97.5733 262.666 97.6733 263.066 97.86C263.466 98.0333 263.8 98.2933 264.066 98.64C264.333 98.9867 264.466 99.4333 264.466 99.98C264.466 100.487 264.333 100.927 264.066 101.3C263.813 101.687 263.46 101.98 263.006 102.18C262.566 102.393 262.066 102.5 261.506 102.5ZM261.506 100.96C261.84 100.96 262.106 100.867 262.306 100.68C262.506 100.507 262.606 100.28 262.606 100C262.606 99.72 262.506 99.4867 262.306 99.3C262.106 99.1267 261.84 99.04 261.506 99.04C261.173 99.04 260.906 99.1267 260.706 99.3C260.506 99.4867 260.406 99.72 260.406 100C260.406 100.28 260.506 100.507 260.706 100.68C260.906 100.867 261.173 100.96 261.506 100.96Z" fill="#FF2626"/>
<path d="M153.98 235C153.833 235 153.713 234.953 153.62 234.86C153.527 234.767 153.48 234.647 153.48 234.5V221.5C153.48 221.353 153.527 221.233 153.62 221.14C153.713 221.047 153.833 221 153.98 221H159.92C161.027 221 161.933 221.16 162.64 221.48C163.347 221.8 163.867 222.253 164.2 222.84C164.547 223.427 164.72 224.113 164.72 224.9C164.72 225.393 164.627 225.827 164.44 226.2C164.267 226.573 164.047 226.88 163.78 227.12C163.527 227.36 163.28 227.54 163.04 227.66C163.56 227.9 164.013 228.3 164.4 228.86C164.8 229.407 165 230.06 165 230.82C165 231.66 164.813 232.393 164.44 233.02C164.067 233.647 163.513 234.133 162.78 234.48C162.047 234.827 161.153 235 160.1 235H153.98ZM156.66 232.66H159.72C160.373 232.66 160.867 232.48 161.2 232.12C161.533 231.747 161.7 231.307 161.7 230.8C161.7 230.28 161.527 229.847 161.18 229.5C160.847 229.14 160.36 228.96 159.72 228.96H156.66V232.66ZM156.66 226.66H159.54C160.167 226.66 160.633 226.507 160.94 226.2C161.26 225.88 161.42 225.473 161.42 224.98C161.42 224.487 161.26 224.093 160.94 223.8C160.633 223.493 160.167 223.34 159.54 223.34H156.66V226.66ZM168.846 238.4C168.553 238.4 168.406 238.253 168.406 237.96V233.64L167.326 234.46C167.233 234.527 167.126 234.553 167.006 234.54C166.886 234.527 166.786 234.467 166.706 234.36L166.246 233.74C166.166 233.633 166.133 233.527 166.146 233.42C166.173 233.3 166.233 233.2 166.326 233.12L168.406 231.54C168.54 231.447 168.693 231.4 168.866 231.4H169.906C170.2 231.4 170.346 231.547 170.346 231.84V237.96C170.346 238.253 170.2 238.4 169.906 238.4H168.846ZM172.589 238.4C172.296 238.4 172.149 238.253 172.149 237.96V237.34C172.149 237.233 172.183 237.127 172.249 237.02C172.316 236.927 172.443 236.813 172.629 236.68C173.403 236.107 174.029 235.647 174.509 235.3C174.989 234.953 175.343 234.653 175.569 234.4C175.796 234.147 175.909 233.88 175.909 233.6C175.909 233.373 175.836 233.193 175.689 233.06C175.556 232.927 175.356 232.86 175.089 232.86C174.849 232.86 174.669 232.9 174.549 232.98C174.443 233.047 174.356 233.127 174.289 233.22C174.236 233.313 174.196 233.393 174.169 233.46C174.089 233.607 174.016 233.707 173.949 233.76C173.883 233.8 173.796 233.82 173.689 233.82H172.669C172.416 233.82 172.296 233.693 172.309 233.44C172.336 233.04 172.469 232.68 172.709 232.36C172.963 232.04 173.296 231.787 173.709 231.6C174.136 231.4 174.596 231.3 175.089 231.3C175.916 231.3 176.576 231.513 177.069 231.94C177.563 232.353 177.809 232.887 177.809 233.54C177.809 233.967 177.709 234.353 177.509 234.7C177.309 235.033 177.009 235.36 176.609 235.68C176.209 236.013 175.716 236.387 175.129 236.8H177.669C177.963 236.8 178.109 236.947 178.109 237.24V237.96C178.109 238.253 177.963 238.4 177.669 238.4H172.589Z" fill="#FF2626"/>
<path d="M113.98 183C113.833 183 113.713 182.953 113.62 182.86C113.527 182.767 113.48 182.647 113.48 182.5V169.5C113.48 169.353 113.527 169.233 113.62 169.14C113.713 169.047 113.833 169 113.98 169H119.92C121.027 169 121.933 169.16 122.64 169.48C123.347 169.8 123.867 170.253 124.2 170.84C124.547 171.427 124.72 172.113 124.72 172.9C124.72 173.393 124.627 173.827 124.44 174.2C124.267 174.573 124.047 174.88 123.78 175.12C123.527 175.36 123.28 175.54 123.04 175.66C123.56 175.9 124.013 176.3 124.4 176.86C124.8 177.407 125 178.06 125 178.82C125 179.66 124.813 180.393 124.44 181.02C124.067 181.647 123.513 182.133 122.78 182.48C122.047 182.827 121.153 183 120.1 183H113.98ZM116.66 180.66H119.72C120.373 180.66 120.867 180.48 121.2 180.12C121.533 179.747 121.7 179.307 121.7 178.8C121.7 178.28 121.527 177.847 121.18 177.5C120.847 177.14 120.36 176.96 119.72 176.96H116.66V180.66ZM116.66 174.66H119.54C120.167 174.66 120.633 174.507 120.94 174.2C121.26 173.88 121.42 173.473 121.42 172.98C121.42 172.487 121.26 172.093 120.94 171.8C120.633 171.493 120.167 171.34 119.54 171.34H116.66V174.66ZM128.846 186.4C128.553 186.4 128.406 186.253 128.406 185.96V181.64L127.326 182.46C127.233 182.527 127.126 182.553 127.006 182.54C126.886 182.527 126.786 182.467 126.706 182.36L126.246 181.74C126.166 181.633 126.133 181.527 126.146 181.42C126.173 181.3 126.233 181.2 126.326 181.12L128.406 179.54C128.54 179.447 128.693 179.4 128.866 179.4H129.906C130.2 179.4 130.346 179.547 130.346 179.84V185.96C130.346 186.253 130.2 186.4 129.906 186.4H128.846Z" fill="#FF2626"/>
<path d="M49.3941 99C49.2607 99 49.1407 98.9533 49.0341 98.86C48.9407 98.7667 48.8941 98.6467 48.8941 98.5V85.5C48.8941 85.3533 48.9407 85.2333 49.0341 85.14C49.1407 85.0467 49.2607 85 49.3941 85H51.2541C51.4541 85 51.6007 85.0533 51.6941 85.16C51.8007 85.2667 51.8741 85.3467 51.9141 85.4L55.5941 92.18L59.3141 85.4C59.3407 85.3467 59.4007 85.2667 59.4941 85.16C59.6007 85.0533 59.7541 85 59.9541 85H61.8141C61.9607 85 62.0807 85.0467 62.1741 85.14C62.2674 85.2333 62.3141 85.3533 62.3141 85.5V98.5C62.3141 98.6467 62.2674 98.7667 62.1741 98.86C62.0807 98.9533 61.9607 99 61.8141 99H59.7741C59.6407 99 59.5274 98.9533 59.4341 98.86C59.3407 98.7667 59.2941 98.6467 59.2941 98.5V90.42L56.7541 95.18C56.6874 95.3 56.6007 95.4067 56.4941 95.5C56.3874 95.5933 56.2474 95.64 56.0741 95.64H55.1341C54.9607 95.64 54.8207 95.5933 54.7141 95.5C54.6074 95.4067 54.5207 95.3 54.4541 95.18L51.9141 90.42V98.5C51.9141 98.6467 51.8674 98.7667 51.7741 98.86C51.6807 98.9533 51.5674 99 51.4341 99H49.3941ZM69.9408 103.4C68.9541 103.4 68.1341 103.267 67.4808 103C66.8274 102.747 66.3074 102.433 65.9208 102.06C65.5474 101.7 65.2808 101.34 65.1208 100.98C64.9608 100.62 64.8741 100.34 64.8608 100.14C64.8474 99.9933 64.8941 99.8733 65.0008 99.78C65.1074 99.6867 65.2274 99.64 65.3608 99.64H67.5008C67.6208 99.64 67.7208 99.6667 67.8008 99.72C67.8941 99.7867 67.9674 99.8933 68.0208 100.04C68.0874 100.2 68.1808 100.367 68.3008 100.54C68.4208 100.727 68.6008 100.88 68.8408 101C69.0941 101.12 69.4274 101.18 69.8408 101.18C70.3074 101.18 70.6941 101.113 71.0008 100.98C71.3074 100.847 71.5341 100.62 71.6808 100.3C71.8408 99.98 71.9208 99.5467 71.9208 99V97.66C71.6008 98.0067 71.1941 98.2933 70.7008 98.52C70.2208 98.7467 69.6274 98.86 68.9208 98.86C68.2274 98.86 67.6141 98.7533 67.0808 98.54C66.5608 98.3133 66.1274 98 65.7808 97.6C65.4341 97.1867 65.1674 96.6933 64.9808 96.12C64.7941 95.5467 64.6874 94.9 64.6608 94.18C64.6474 93.82 64.6474 93.4667 64.6608 93.12C64.6874 92.4267 64.7941 91.7933 64.9808 91.22C65.1674 90.6467 65.4341 90.1533 65.7808 89.74C66.1274 89.3133 66.5608 88.9867 67.0808 88.76C67.6141 88.52 68.2274 88.4 68.9208 88.4C69.6541 88.4 70.2808 88.54 70.8008 88.82C71.3208 89.1 71.7474 89.4467 72.0808 89.86V89.1C72.0808 88.9667 72.1274 88.8533 72.2208 88.76C72.3141 88.6533 72.4274 88.6 72.5608 88.6H74.5208C74.6541 88.6 74.7674 88.6533 74.8608 88.76C74.9674 88.8533 75.0208 88.9667 75.0208 89.1L75.0408 98.72C75.0408 99.72 74.8474 100.567 74.4608 101.26C74.0741 101.953 73.5008 102.48 72.7408 102.84C71.9941 103.213 71.0608 103.4 69.9408 103.4ZM69.8408 96.52C70.3208 96.52 70.7074 96.4133 71.0008 96.2C71.3074 95.9733 71.5341 95.6933 71.6808 95.36C71.8274 95.0133 71.9074 94.6533 71.9208 94.28C71.9341 94.1333 71.9408 93.9267 71.9408 93.66C71.9408 93.38 71.9341 93.1667 71.9208 93.02C71.9074 92.6467 71.8274 92.2933 71.6808 91.96C71.5341 91.6133 71.3074 91.3333 71.0008 91.12C70.7074 90.9067 70.3208 90.8 69.8408 90.8C69.3341 90.8 68.9341 90.9133 68.6408 91.14C68.3474 91.3533 68.1341 91.64 68.0008 92C67.8674 92.36 67.7874 92.7533 67.7608 93.18C67.7474 93.5 67.7474 93.8133 67.7608 94.12C67.7874 94.56 67.8674 94.96 68.0008 95.32C68.1341 95.68 68.3474 95.9733 68.6408 96.2C68.9341 96.4133 69.3341 96.52 69.8408 96.52Z" fill="#0066CC"/>
<path d="M239.394 176C239.261 176 239.141 175.953 239.034 175.86C238.941 175.767 238.894 175.647 238.894 175.5V162.5C238.894 162.353 238.941 162.233 239.034 162.14C239.141 162.047 239.261 162 239.394 162H241.254C241.454 162 241.601 162.053 241.694 162.16C241.801 162.267 241.874 162.347 241.914 162.4L245.594 169.18L249.314 162.4C249.341 162.347 249.401 162.267 249.494 162.16C249.601 162.053 249.754 162 249.954 162H251.814C251.961 162 252.081 162.047 252.174 162.14C252.267 162.233 252.314 162.353 252.314 162.5V175.5C252.314 175.647 252.267 175.767 252.174 175.86C252.081 175.953 251.961 176 251.814 176H249.774C249.641 176 249.527 175.953 249.434 175.86C249.341 175.767 249.294 175.647 249.294 175.5V167.42L246.754 172.18C246.687 172.3 246.601 172.407 246.494 172.5C246.387 172.593 246.247 172.64 246.074 172.64H245.134C244.961 172.64 244.821 172.593 244.714 172.5C244.607 172.407 244.521 172.3 244.454 172.18L241.914 167.42V175.5C241.914 175.647 241.867 175.767 241.774 175.86C241.681 175.953 241.567 176 241.434 176H239.394ZM255.541 176C255.407 176 255.294 175.953 255.201 175.86C255.107 175.767 255.061 175.647 255.061 175.5V166.1C255.061 165.953 255.107 165.833 255.201 165.74C255.294 165.647 255.407 165.6 255.541 165.6H257.501C257.647 165.6 257.767 165.647 257.861 165.74C257.954 165.833 258.001 165.953 258.001 166.1V166.88C258.347 166.453 258.794 166.1 259.341 165.82C259.887 165.54 260.554 165.4 261.341 165.4C262.127 165.4 262.814 165.58 263.401 165.94C264.001 166.287 264.467 166.8 264.801 167.48C265.147 168.147 265.321 168.96 265.321 169.92V175.5C265.321 175.647 265.267 175.767 265.161 175.86C265.067 175.953 264.954 176 264.821 176H262.701C262.554 176 262.434 175.953 262.341 175.86C262.247 175.767 262.201 175.647 262.201 175.5V170.04C262.201 169.333 262.027 168.787 261.681 168.4C261.347 168 260.854 167.8 260.201 167.8C259.574 167.8 259.074 168 258.701 168.4C258.327 168.787 258.141 169.333 258.141 170.04V175.5C258.141 175.647 258.094 175.767 258.001 175.86C257.907 175.953 257.794 176 257.661 176H255.541Z" fill="#FF2626"/>
<path d="M178.04 165.2C176.787 165.2 175.72 164.993 174.84 164.58C173.973 164.153 173.3 163.54 172.82 162.74C172.34 161.927 172.073 160.94 172.02 159.78C172.007 159.233 172 158.647 172 158.02C172 157.393 172.007 156.793 172.02 156.22C172.073 155.073 172.34 154.1 172.82 153.3C173.313 152.487 174 151.867 174.88 151.44C175.76 151.013 176.813 150.8 178.04 150.8C178.933 150.8 179.747 150.913 180.48 151.14C181.213 151.367 181.847 151.693 182.38 152.12C182.913 152.547 183.327 153.047 183.62 153.62C183.913 154.193 184.073 154.833 184.1 155.54C184.1 155.66 184.053 155.76 183.96 155.84C183.88 155.92 183.78 155.96 183.66 155.96H181.38C181.22 155.96 181.093 155.92 181 155.84C180.907 155.76 180.833 155.627 180.78 155.44C180.58 154.653 180.247 154.113 179.78 153.82C179.313 153.527 178.733 153.38 178.04 153.38C177.213 153.38 176.56 153.607 176.08 154.06C175.6 154.513 175.34 155.267 175.3 156.32C175.26 157.413 175.26 158.533 175.3 159.68C175.34 160.733 175.6 161.487 176.08 161.94C176.56 162.393 177.213 162.62 178.04 162.62C178.733 162.62 179.313 162.473 179.78 162.18C180.26 161.873 180.593 161.333 180.78 160.56C180.833 160.36 180.907 160.227 181 160.16C181.093 160.08 181.22 160.04 181.38 160.04H183.66C183.78 160.04 183.88 160.08 183.96 160.16C184.053 160.24 184.1 160.34 184.1 160.46C184.073 161.167 183.913 161.807 183.62 162.38C183.327 162.953 182.913 163.453 182.38 163.88C181.847 164.307 181.213 164.633 180.48 164.86C179.747 165.087 178.933 165.2 178.04 165.2ZM189.187 165.2C188.481 165.2 187.847 165.067 187.287 164.8C186.727 164.52 186.281 164.147 185.947 163.68C185.614 163.213 185.447 162.693 185.447 162.12C185.447 161.173 185.827 160.427 186.587 159.88C187.361 159.333 188.374 158.96 189.627 158.76L192.247 158.38V158.02C192.247 157.5 192.127 157.1 191.887 156.82C191.647 156.54 191.227 156.4 190.627 156.4C190.187 156.4 189.834 156.487 189.567 156.66C189.301 156.833 189.094 157.06 188.947 157.34C188.841 157.513 188.687 157.6 188.487 157.6H186.587C186.441 157.6 186.327 157.56 186.247 157.48C186.167 157.387 186.134 157.28 186.147 157.16C186.147 156.933 186.234 156.667 186.407 156.36C186.581 156.053 186.847 155.753 187.207 155.46C187.567 155.153 188.027 154.9 188.587 154.7C189.147 154.5 189.834 154.4 190.647 154.4C191.487 154.4 192.207 154.5 192.807 154.7C193.407 154.9 193.887 155.18 194.247 155.54C194.607 155.9 194.874 156.32 195.047 156.8C195.221 157.267 195.307 157.773 195.307 158.32V164.5C195.307 164.647 195.261 164.767 195.167 164.86C195.074 164.953 194.954 165 194.807 165H192.847C192.714 165 192.601 164.953 192.507 164.86C192.414 164.767 192.367 164.647 192.367 164.5V163.76C192.194 164.013 191.961 164.253 191.667 164.48C191.374 164.693 191.021 164.867 190.607 165C190.207 165.133 189.734 165.2 189.187 165.2ZM189.987 163.12C190.427 163.12 190.821 163.027 191.167 162.84C191.514 162.653 191.787 162.367 191.987 161.98C192.187 161.593 192.287 161.107 192.287 160.52V160.18L190.427 160.48C189.707 160.6 189.181 160.78 188.847 161.02C188.514 161.26 188.347 161.553 188.347 161.9C188.347 162.153 188.421 162.373 188.567 162.56C188.727 162.747 188.934 162.887 189.187 162.98C189.441 163.073 189.707 163.12 189.987 163.12Z" fill="#0066CC"/>
<path d="M109.04 236.2C107.787 236.2 106.72 235.993 105.84 235.58C104.973 235.153 104.3 234.54 103.82 233.74C103.34 232.927 103.073 231.94 103.02 230.78C103.007 230.233 103 229.647 103 229.02C103 228.393 103.007 227.793 103.02 227.22C103.073 226.073 103.34 225.1 103.82 224.3C104.313 223.487 105 222.867 105.88 222.44C106.76 222.013 107.813 221.8 109.04 221.8C109.933 221.8 110.747 221.913 111.48 222.14C112.213 222.367 112.847 222.693 113.38 223.12C113.913 223.547 114.327 224.047 114.62 224.62C114.913 225.193 115.073 225.833 115.1 226.54C115.1 226.66 115.053 226.76 114.96 226.84C114.88 226.92 114.78 226.96 114.66 226.96H112.38C112.22 226.96 112.093 226.92 112 226.84C111.907 226.76 111.833 226.627 111.78 226.44C111.58 225.653 111.247 225.113 110.78 224.82C110.313 224.527 109.733 224.38 109.04 224.38C108.213 224.38 107.56 224.607 107.08 225.06C106.6 225.513 106.34 226.267 106.3 227.32C106.26 228.413 106.26 229.533 106.3 230.68C106.34 231.733 106.6 232.487 107.08 232.94C107.56 233.393 108.213 233.62 109.04 233.62C109.733 233.62 110.313 233.473 110.78 233.18C111.26 232.873 111.593 232.333 111.78 231.56C111.833 231.36 111.907 231.227 112 231.16C112.093 231.08 112.22 231.04 112.38 231.04H114.66C114.78 231.04 114.88 231.08 114.96 231.16C115.053 231.24 115.1 231.34 115.1 231.46C115.073 232.167 114.913 232.807 114.62 233.38C114.327 233.953 113.913 234.453 113.38 234.88C112.847 235.307 112.213 235.633 111.48 235.86C110.747 236.087 109.933 236.2 109.04 236.2ZM117.607 236C117.474 236 117.361 235.953 117.267 235.86C117.174 235.767 117.127 235.647 117.127 235.5V226.1C117.127 225.967 117.174 225.853 117.267 225.76C117.361 225.653 117.474 225.6 117.607 225.6H119.567C119.701 225.6 119.814 225.653 119.907 225.76C120.014 225.853 120.067 225.967 120.067 226.1V226.9C120.401 226.487 120.807 226.167 121.287 225.94C121.781 225.713 122.347 225.6 122.987 225.6H123.847C123.981 225.6 124.094 225.647 124.187 225.74C124.281 225.833 124.327 225.953 124.327 226.1V227.82C124.327 227.967 124.281 228.087 124.187 228.18C124.094 228.273 123.981 228.32 123.847 228.32H122.087C121.501 228.32 121.041 228.487 120.707 228.82C120.374 229.14 120.207 229.6 120.207 230.2V235.5C120.207 235.647 120.161 235.767 120.067 235.86C119.974 235.953 119.854 236 119.707 236H117.607Z" fill="#0066CC"/>
<path d="M109.04 31.2C107.787 31.2 106.72 30.9933 105.84 30.58C104.973 30.1533 104.3 29.54 103.82 28.74C103.34 27.9267 103.073 26.94 103.02 25.78C103.007 25.2333 103 24.6467 103 24.02C103 23.3933 103.007 22.7933 103.02 22.22C103.073 21.0733 103.34 20.1 103.82 19.3C104.313 18.4867 105 17.8667 105.88 17.44C106.76 17.0133 107.813 16.8 109.04 16.8C109.933 16.8 110.747 16.9133 111.48 17.14C112.213 17.3667 112.847 17.6933 113.38 18.12C113.913 18.5467 114.327 19.0467 114.62 19.62C114.913 20.1933 115.073 20.8333 115.1 21.54C115.1 21.66 115.053 21.76 114.96 21.84C114.88 21.92 114.78 21.96 114.66 21.96H112.38C112.22 21.96 112.093 21.92 112 21.84C111.907 21.76 111.833 21.6267 111.78 21.44C111.58 20.6533 111.247 20.1133 110.78 19.82C110.313 19.5267 109.733 19.38 109.04 19.38C108.213 19.38 107.56 19.6067 107.08 20.06C106.6 20.5133 106.34 21.2667 106.3 22.32C106.26 23.4133 106.26 24.5333 106.3 25.68C106.34 26.7333 106.6 27.4867 107.08 27.94C107.56 28.3933 108.213 28.62 109.04 28.62C109.733 28.62 110.313 28.4733 110.78 28.18C111.26 27.8733 111.593 27.3333 111.78 26.56C111.833 26.36 111.907 26.2267 112 26.16C112.093 26.08 112.22 26.04 112.38 26.04H114.66C114.78 26.04 114.88 26.08 114.96 26.16C115.053 26.24 115.1 26.34 115.1 26.46C115.073 27.1667 114.913 27.8067 114.62 28.38C114.327 28.9533 113.913 29.4533 113.38 29.88C112.847 30.3067 112.213 30.6333 111.48 30.86C110.747 31.0867 109.933 31.2 109.04 31.2ZM117.627 31C117.481 31 117.361 30.9533 117.267 30.86C117.174 30.7667 117.127 30.6467 117.127 30.5V17.3C117.127 17.1533 117.174 17.0333 117.267 16.94C117.361 16.8467 117.481 16.8 117.627 16.8H119.627C119.761 16.8 119.874 16.8467 119.967 16.94C120.061 17.0333 120.107 17.1533 120.107 17.3V30.5C120.107 30.6467 120.061 30.7667 119.967 30.86C119.874 30.9533 119.761 31 119.627 31H117.627Z" fill="#0066CC"/>
<path d="M188.98 77C188.833 77 188.713 76.9533 188.62 76.86C188.527 76.7667 188.48 76.6467 188.48 76.5V63.5C188.48 63.3533 188.527 63.2333 188.62 63.14C188.713 63.0467 188.833 63 188.98 63H194.44C195.52 63 196.453 63.1667 197.24 63.5C198.04 63.8333 198.66 64.34 199.1 65.02C199.553 65.6867 199.78 66.52 199.78 67.52C199.78 68.5333 199.553 69.3733 199.1 70.04C198.66 70.6933 198.04 71.18 197.24 71.5C196.453 71.82 195.52 71.98 194.44 71.98H191.76V76.5C191.76 76.6467 191.713 76.7667 191.62 76.86C191.527 76.9533 191.407 77 191.26 77H188.98ZM191.7 69.5H194.34C195.02 69.5 195.547 69.3333 195.92 69C196.307 68.6667 196.5 68.1667 196.5 67.5C196.5 66.9133 196.327 66.4333 195.98 66.06C195.647 65.6867 195.1 65.5 194.34 65.5H191.7V69.5Z" fill="#0066CC"/>
<path d="M7.04 192.2C5.78667 192.2 4.72 191.993 3.84 191.58C2.97333 191.153 2.3 190.54 1.82 189.74C1.34 188.927 1.07333 187.94 1.02 186.78C1.00667 186.233 1 185.647 1 185.02C1 184.393 1.00667 183.793 1.02 183.22C1.07333 182.073 1.34 181.1 1.82 180.3C2.31333 179.487 3 178.867 3.88 178.44C4.76 178.013 5.81333 177.8 7.04 177.8C7.93333 177.8 8.74667 177.913 9.48 178.14C10.2133 178.367 10.8467 178.693 11.38 179.12C11.9133 179.547 12.3267 180.047 12.62 180.62C12.9133 181.193 13.0733 181.833 13.1 182.54C13.1 182.66 13.0533 182.76 12.96 182.84C12.88 182.92 12.78 182.96 12.66 182.96H10.38C10.22 182.96 10.0933 182.92 10 182.84C9.90667 182.76 9.83333 182.627 9.78 182.44C9.58 181.653 9.24667 181.113 8.78 180.82C8.31333 180.527 7.73333 180.38 7.04 180.38C6.21333 180.38 5.56 180.607 5.08 181.06C4.6 181.513 4.34 182.267 4.3 183.32C4.26 184.413 4.26 185.533 4.3 186.68C4.34 187.733 4.6 188.487 5.08 188.94C5.56 189.393 6.21333 189.62 7.04 189.62C7.73333 189.62 8.31333 189.473 8.78 189.18C9.26 188.873 9.59333 188.333 9.78 187.56C9.83333 187.36 9.90667 187.227 10 187.16C10.0933 187.08 10.22 187.04 10.38 187.04H12.66C12.78 187.04 12.88 187.08 12.96 187.16C13.0533 187.24 13.1 187.34 13.1 187.46C13.0733 188.167 12.9133 188.807 12.62 189.38C12.3267 189.953 11.9133 190.453 11.38 190.88C10.8467 191.307 10.2133 191.633 9.48 191.86C8.74667 192.087 7.93333 192.2 7.04 192.2ZM18.9472 192.2C18.1739 192.2 17.4872 192.027 16.8872 191.68C16.3005 191.32 15.8405 190.807 15.5072 190.14C15.1872 189.46 15.0272 188.64 15.0272 187.68V182.1C15.0272 181.953 15.0739 181.833 15.1672 181.74C15.2605 181.647 15.3739 181.6 15.5072 181.6H17.6272C17.7739 181.6 17.8939 181.647 17.9872 181.74C18.0805 181.833 18.1272 181.953 18.1272 182.1V187.56C18.1272 189.053 18.7805 189.8 20.0872 189.8C20.7139 189.8 21.2072 189.607 21.5672 189.22C21.9405 188.82 22.1272 188.267 22.1272 187.56V182.1C22.1272 181.953 22.1739 181.833 22.2672 181.74C22.3605 181.647 22.4805 181.6 22.6272 181.6H24.7472C24.8805 181.6 24.9939 181.647 25.0872 181.74C25.1805 181.833 25.2272 181.953 25.2272 182.1V191.5C25.2272 191.647 25.1805 191.767 25.0872 191.86C24.9939 191.953 24.8805 192 24.7472 192H22.7872C22.6405 192 22.5205 191.953 22.4272 191.86C22.3339 191.767 22.2872 191.647 22.2872 191.5V190.72C21.9405 191.2 21.4939 191.567 20.9472 191.82C20.4005 192.073 19.7339 192.2 18.9472 192.2Z" fill="#0066CC"/>
<path d="M238.98 228C238.833 228 238.713 227.953 238.62 227.86C238.527 227.767 238.48 227.647 238.48 227.5V214.5C238.48 214.353 238.527 214.233 238.62 214.14C238.713 214.047 238.833 214 238.98 214H247.9C248.047 214 248.167 214.047 248.26 214.14C248.353 214.233 248.4 214.353 248.4 214.5V216.2C248.4 216.347 248.353 216.467 248.26 216.56C248.167 216.653 248.047 216.7 247.9 216.7H241.6V220.08H247.5C247.647 220.08 247.767 220.127 247.86 220.22C247.953 220.313 248 220.433 248 220.58V222.28C248 222.413 247.953 222.527 247.86 222.62C247.767 222.713 247.647 222.76 247.5 222.76H241.6V227.5C241.6 227.647 241.553 227.767 241.46 227.86C241.367 227.953 241.247 228 241.1 228H238.98ZM254.892 228.2C253.359 228.2 252.139 227.773 251.232 226.92C250.339 226.067 249.866 224.827 249.812 223.2C249.812 223.093 249.812 222.953 249.812 222.78C249.812 222.593 249.812 222.447 249.812 222.34C249.866 221.313 250.099 220.433 250.512 219.7C250.926 218.953 251.506 218.387 252.252 218C252.999 217.6 253.872 217.4 254.872 217.4C255.992 217.4 256.926 217.633 257.672 218.1C258.432 218.553 258.999 219.18 259.372 219.98C259.759 220.767 259.952 221.673 259.952 222.7V223.16C259.952 223.293 259.899 223.407 259.792 223.5C259.699 223.593 259.586 223.64 259.452 223.64H252.912C252.912 223.653 252.912 223.68 252.912 223.72C252.912 223.747 252.912 223.773 252.912 223.8C252.926 224.227 253.006 224.62 253.152 224.98C253.312 225.327 253.532 225.607 253.812 225.82C254.106 226.033 254.452 226.14 254.852 226.14C255.186 226.14 255.459 226.093 255.672 226C255.886 225.907 256.059 225.793 256.192 225.66C256.339 225.527 256.446 225.413 256.512 225.32C256.632 225.187 256.726 225.107 256.792 225.08C256.872 225.04 256.992 225.02 257.152 225.02H259.232C259.366 225.02 259.472 225.06 259.552 225.14C259.646 225.207 259.686 225.307 259.672 225.44C259.659 225.653 259.546 225.92 259.332 226.24C259.132 226.547 258.832 226.853 258.432 227.16C258.032 227.453 257.532 227.7 256.932 227.9C256.346 228.1 255.666 228.2 254.892 228.2ZM252.912 221.82H256.832V221.78C256.832 221.3 256.752 220.887 256.592 220.54C256.446 220.18 256.226 219.9 255.932 219.7C255.639 219.5 255.286 219.4 254.872 219.4C254.459 219.4 254.106 219.5 253.812 219.7C253.519 219.9 253.292 220.18 253.132 220.54C252.986 220.887 252.912 221.3 252.912 221.78V221.82Z" fill="#0066CC"/>
<path d="M204.021 115.886L201.043 116.991C200.853 113.343 199.717 109.964 197.685 107L200.663 105.895C200.855 109.539 201.989 112.921 204.021 115.886Z" fill="#0066CC"/>
<path d="M208.638 117.143C211.631 119.237 212.369 123.484 210.202 126.647C208.035 129.81 203.84 130.606 200.848 128.512C197.856 126.419 197.118 122.171 199.285 119.009C201.452 115.846 205.646 115.05 208.638 117.143Z" stroke="#0066CC" stroke-width="2"/>
<path d="M201.155 97.3926C203.326 99.2009 203.637 102.533 201.768 104.844C199.899 107.155 196.617 107.496 194.446 105.687C192.275 103.879 191.965 100.547 193.834 98.2358C195.703 95.925 198.985 95.5842 201.155 97.3926Z" stroke="#FF2626" stroke-width="2"/>
<path d="M220.107 115.566L221.12 118.577C217.54 118.861 214.195 120.099 211.237 122.243L210.225 119.232C213.805 118.948 217.15 117.71 220.107 115.566Z" fill="#0066CC"/>
<path d="M236.965 117.703C234.747 122.344 229.332 124.32 224.9 122.202C220.467 120.085 218.601 114.631 220.819 109.99C223.036 105.348 228.451 103.373 232.883 105.491C237.316 107.608 239.182 113.062 236.965 117.703Z" stroke="#0066CC" stroke-width="2"/>
<path d="M236.431 131.751L233.453 132.856C233.261 129.212 232.127 125.829 230.095 122.865L233.074 121.76C233.265 125.404 234.399 128.786 236.431 131.751Z" fill="#0066CC"/>
<path d="M242.24 134.144L243.252 137.155C246.209 135.01 249.551 133.771 253.134 133.489L252.122 130.477C249.167 132.618 245.823 133.862 242.24 134.144Z" fill="#0066CC"/>
<path d="M241.342 132.88C244.18 135.187 244.622 139.484 242.248 142.488C239.874 145.492 235.643 145.991 232.805 143.684C229.967 141.378 229.525 137.08 231.899 134.076C234.273 131.072 238.504 130.574 241.342 132.88Z" stroke="#0066CC" stroke-width="2"/>
<path d="M262.488 128.858C263.032 131.728 261.179 134.546 258.37 135.166C255.561 135.786 252.832 133.979 252.288 131.109C251.744 128.238 253.596 125.42 256.405 124.8C259.214 124.181 261.943 125.988 262.488 128.858Z" stroke="#FF2626" stroke-width="2"/>
<path d="M50.808 201.897L54.7716 203.101C52.3601 207.123 51.1471 211.611 51.1834 216.377L47.2197 215.173C49.6312 211.15 50.8442 206.662 50.808 201.897Z" fill="#0066CC"/>
<path d="M54.5921 219.967C57.0962 224.487 55.5549 230.069 51.2381 232.461C46.9213 234.852 41.3717 233.199 38.8676 228.679C36.3635 224.159 37.9048 218.577 42.2216 216.185C46.5384 213.794 52.088 215.447 54.5921 219.967Z" stroke="#FF2626" stroke-width="2"/>
<path d="M62.925 189.497C65.4291 194.017 63.8878 199.599 59.571 201.99C55.2542 204.382 49.7046 202.728 47.2005 198.208C44.6964 193.688 46.2377 188.107 50.5545 185.715C54.8713 183.324 60.4209 184.977 62.925 189.497Z" stroke="#0066CC" stroke-width="2"/>
<path d="M77.297 198.509L76.2161 202.508C72.1949 199.95 67.7466 198.599 63.0578 198.51L64.1387 194.511C68.16 197.069 72.6082 198.421 77.297 198.509Z" fill="#0066CC"/>
<path d="M93.1771 198.591C95.6812 203.111 94.1399 208.693 89.8231 211.084C85.5062 213.476 79.9567 211.822 77.4526 207.302C74.9484 202.782 76.4897 197.201 80.8066 194.809C85.1234 192.418 90.6729 194.071 93.1771 198.591Z" stroke="#0066CC" stroke-width="2"/>
<path d="M201.893 203.667L199.285 201.864C202.061 199.55 204.079 196.617 205.244 193.185L207.852 194.988C205.076 197.303 203.058 200.236 201.893 203.667Z" fill="#0066CC"/>
<path d="M214.604 185.356C216.815 188.3 216.294 192.478 213.492 194.695C210.69 196.912 206.621 196.366 204.409 193.421C202.198 190.477 202.72 186.298 205.522 184.081C208.324 181.865 212.393 182.411 214.604 185.356Z" stroke="#FF2626" stroke-width="2"/>
<path d="M205.812 209.324C206.935 215.425 203.048 221.2 197.206 222.276C191.365 223.351 185.676 219.339 184.553 213.237C183.43 207.136 187.317 201.361 193.159 200.285C199 199.21 204.689 203.223 205.812 209.324Z" stroke="#0066CC" stroke-width="2"/>
<path d="M175.475 199.86L177.534 196.771C180.219 200.09 183.612 202.51 187.574 203.921L185.515 207.01C182.829 203.692 179.436 201.271 175.475 199.86Z" fill="#0066CC"/>
<path d="M176.61 189.397C179.023 193.251 177.95 198.319 174.278 200.732C170.605 203.144 165.661 202.028 163.247 198.175C160.834 194.321 161.907 189.253 165.579 186.84C169.252 184.428 174.197 185.544 176.61 189.397Z" stroke="#0066CC" stroke-width="2"/>
<path d="M134.061 142.557L132.26 144.416C134.795 145.882 136.818 147.972 138.243 150.588L140.045 148.729C137.51 147.263 135.487 145.173 134.061 142.557Z" fill="#0066CC"/>
<path d="M143.84 149.037C145.867 150.17 146.643 152.801 145.526 154.929C144.409 157.057 141.848 157.824 139.821 156.691C137.794 155.559 137.018 152.928 138.135 150.8C139.252 148.672 141.813 147.905 143.84 149.037Z" stroke="#FF2626" stroke-width="2"/>
<path d="M135.7 138.317C135.855 142.485 132.713 145.939 128.749 146.1C124.784 146.257 121.397 143.065 121.238 138.902C121.083 134.734 124.225 131.281 128.189 131.12C132.154 130.963 135.541 134.154 135.7 138.317Z" stroke="#0066CC" stroke-width="2"/>
<path d="M121.411 139.373V136.741C118.611 137.554 115.749 137.554 112.95 136.741V139.373C115.749 138.56 118.611 138.56 121.411 139.373Z" fill="#0066CC"/>
<path d="M99.8094 134.574L101.611 132.716C99.0755 131.25 97.0525 129.159 95.6274 126.544L93.8257 128.402C96.3613 129.868 98.3843 131.959 99.8094 134.574Z" fill="#0066CC"/>
<path d="M112.7 138.317C112.855 142.485 109.713 145.939 105.749 146.1C101.784 146.257 98.397 143.065 98.2382 138.902C98.0831 134.734 101.225 131.281 105.189 131.12C109.154 130.963 112.541 134.154 112.7 138.317Z" stroke="#0066CC" stroke-width="2"/>
<path d="M94.0349 120.425C96.065 121.551 96.8489 124.18 95.7378 126.311C94.6266 128.443 92.0682 129.218 90.0381 128.091C88.0079 126.965 87.224 124.336 88.3352 122.205C89.4464 120.074 92.0048 119.299 94.0349 120.425Z" stroke="#FF2626" stroke-width="2"/>
<path d="M247.427 42.0135L250.767 40.7313C251.256 44.7508 252.813 48.4585 255.367 51.6856L252.027 52.9677C251.537 48.9482 249.98 45.2405 247.427 42.0135Z" fill="#0066CC"/>
<path d="M256.529 67.1311C252.168 67.0187 248.684 63.4752 248.701 59.2616C248.718 55.0479 252.229 51.6847 256.59 51.7971C260.951 51.9095 264.435 55.453 264.418 59.6667C264.401 63.8803 260.89 67.2435 256.529 67.1311Z" stroke="#FF2626" stroke-width="2"/>
<path d="M252.793 37.9822C249.722 42.1078 243.723 42.9726 239.382 39.8326C235.042 36.6925 234.08 30.7927 237.152 26.6671C240.224 22.5415 246.222 21.6767 250.563 24.8167C254.903 27.9568 255.865 33.8565 252.793 37.9822Z" stroke="#0066CC" stroke-width="2"/>
<path d="M224.685 25.5823L226.069 22.3406C229.311 24.9074 233.064 26.5091 237.165 27.076L235.782 30.3178C232.54 27.7509 228.786 26.1493 224.685 25.5823Z" fill="#0066CC"/>
<path d="M215.587 28.0795C211.548 26.3555 209.674 21.8113 211.316 17.9634C212.958 14.1155 217.535 12.3245 221.575 14.0485C225.615 15.7725 227.489 20.3167 225.847 24.1645C224.205 28.0124 219.627 29.8034 215.587 28.0795Z" stroke="#0066CC" stroke-width="2"/>
<path d="M36.4951 110.954C38.417 115.172 36.6501 120.166 32.6034 122.128C28.5567 124.089 23.702 122.305 21.7802 118.087C19.8583 113.868 21.6252 108.874 25.6719 106.913C29.7186 104.951 34.5733 106.735 36.4951 110.954Z" stroke="#0066CC" stroke-width="2"/>
<path d="M30.9952 135.1H27.2697C28.4203 130.882 28.4203 126.567 27.2697 122.345H30.9952C29.8446 126.563 29.8446 130.878 30.9952 135.1Z" fill="#0066CC"/>
<path d="M39.1446 145.319C39.1446 151.068 34.634 155.676 29.1347 155.676C23.6354 155.676 19.1248 151.068 19.1248 145.319C19.1248 139.57 23.6354 134.962 29.1347 134.962C34.634 134.962 39.1446 139.57 39.1446 145.319Z" stroke="#FF2626" stroke-width="2"/>
<path d="M143.844 50.8998L141.632 48.6185C144.738 46.8197 147.222 44.262 148.966 41.0532L151.178 43.3345C148.072 45.1333 145.587 47.691 143.844 50.8998Z" fill="#0066CC"/>
<path d="M144.256 54.1227C144.256 57.4418 141.655 60.0791 138.512 60.0791C135.369 60.0791 132.768 57.4418 132.768 54.1227C132.768 50.8037 135.369 48.1664 138.512 48.1664C141.655 48.1664 144.256 50.8037 144.256 54.1227Z" stroke="#0066CC" stroke-width="2"/>
<path d="M128.212 67.0283L126.001 64.747C129.107 62.9481 131.591 60.3905 133.335 57.1816L135.547 59.4629C132.44 61.2618 129.956 63.8194 128.212 67.0283Z" fill="#0066CC"/>
<path d="M129.465 71.947C129.465 76.6838 125.75 80.4704 121.233 80.4704C116.715 80.4704 113 76.6838 113 71.947C113 67.2102 116.715 63.4236 121.233 63.4236C125.75 63.4236 129.465 67.2102 129.465 71.947Z" stroke="#FF2626" stroke-width="2"/>
<path d="M163.806 36.5234C163.806 41.2602 160.092 45.0468 155.574 45.0468C151.056 45.0468 147.341 41.2602 147.341 36.5234C147.341 31.7866 151.056 28 155.574 28C160.092 28 163.806 31.7866 163.806 36.5234Z" stroke="#FF2626" stroke-width="2"/>
<path d="M54.3263 27.5549L51.4448 26.0368C53.9024 23.2938 55.5045 20.0026 56.185 16.3199L59.0665 17.838C56.6089 20.581 55.0068 23.8722 54.3263 27.5549Z" fill="#0066CC"/>
<path d="M67.3102 8.71945C68.5378 12.4737 66.5733 16.4288 63.0045 17.5957C59.4357 18.7627 55.5141 16.7323 54.2865 12.978C53.0589 9.22371 55.0234 5.26867 58.5922 4.10173C62.161 2.93478 66.0826 4.96518 67.3102 8.71945Z" stroke="#FF2626" stroke-width="2"/>
<path d="M56.3593 31.0061C57.5869 34.7603 55.6224 38.7154 52.0536 39.8823C48.4848 41.0493 44.5632 39.0189 43.3356 35.2646C42.108 31.5103 44.0725 27.5553 47.6413 26.3883C51.2101 25.2214 55.1317 27.2518 56.3593 31.0061Z" stroke="#0066CC" stroke-width="2"/>
<path d="M33.3719 26.2397L34.7999 23.3124C37.5207 25.883 40.7604 27.5863 44.3652 28.3517L42.9372 31.279C40.2165 28.7083 36.9768 27.005 33.3719 26.2397Z" fill="#0066CC"/>
<path d="M34.3532 19.4959C35.5808 23.2502 33.6163 27.2053 30.0475 28.3722C26.4787 29.5391 22.5571 27.5087 21.3295 23.7545C20.1019 20.0002 22.0664 16.0452 25.6352 14.8782C29.204 13.7113 33.1256 15.7417 34.3532 19.4959Z" stroke="#0066CC" stroke-width="2"/>
<path d="M56.9985 49.8474L53.9516 50.8436C53.7632 47.0822 52.6092 43.5528 50.5403 40.4109L53.5871 39.4146C53.7755 43.1761 54.9296 46.7055 56.9985 49.8474Z" fill="#0066CC"/>
<path d="M64.0766 54.607C65.3042 58.3613 63.3397 62.3163 59.7709 63.4833C56.2021 64.6502 52.2805 62.6198 51.0529 58.8656C49.8253 55.1113 51.7898 51.1562 55.3586 49.9893C58.9274 48.8224 62.849 50.8527 64.0766 54.607Z" stroke="#FF2626" stroke-width="2"/>
</svg>
