<svg width="398" height="324" viewBox="0 0 398 324" fill="none" xmlns="http://www.w3.org/2000/svg">
<path d="M157.771 197.578C156.729 197.578 155.676 197.561 154.643 197.529L154.667 196.779C156.15 196.825 157.664 196.838 159.155 196.817L159.165 197.568C158.701 197.575 158.236 197.578 157.771 197.578ZM163.684 197.404L163.64 196.654C165.126 196.566 166.631 196.443 168.113 196.288L168.191 197.035C166.698 197.191 165.182 197.316 163.684 197.404ZM150.128 197.287C148.63 197.172 147.116 197.021 145.628 196.839L145.72 196.093C147.196 196.274 148.699 196.424 150.185 196.538L150.128 197.287ZM172.676 196.461L172.564 195.718C174.04 195.494 175.527 195.234 176.984 194.945L177.13 195.681C175.662 195.973 174.164 196.235 172.676 196.461ZM141.154 196.186C139.674 195.935 138.18 195.647 136.714 195.328L136.873 194.594C138.328 194.91 139.811 195.196 141.279 195.445L141.154 196.186ZM181.544 194.698L181.364 193.968C182.813 193.61 184.27 193.214 185.695 192.791L185.908 193.512C184.472 193.938 183.004 194.337 181.544 194.698ZM132.318 194.267C130.866 193.881 129.405 193.456 127.976 193.004L128.202 192.288C129.621 192.736 131.07 193.158 132.511 193.541L132.318 194.267ZM190.213 192.125L189.966 191.416C191.373 190.927 192.787 190.399 194.17 189.845L194.449 190.542C193.055 191.1 191.63 191.633 190.213 192.125ZM123.685 191.537C122.275 191.019 120.856 190.459 119.468 189.875L119.76 189.182C121.137 189.762 122.545 190.317 123.944 190.832L123.685 191.537ZM198.599 188.769L198.288 188.086C199.638 187.472 200.995 186.817 202.322 186.139L202.664 186.808C201.327 187.491 199.959 188.151 198.599 188.769ZM206.635 184.661L206.263 184.009C207.558 183.269 208.851 182.492 210.105 181.699L210.506 182.334C209.243 183.133 207.94 183.916 206.635 184.661ZM214.267 179.831L213.838 179.216C215.057 178.364 216.274 177.471 217.455 176.564L217.912 177.159C216.723 178.074 215.496 178.973 214.267 179.831ZM99.7886 178.773C98.5763 177.893 97.3653 176.97 96.1889 176.031L96.6576 175.444C97.825 176.376 99.0268 177.291 100.23 178.165L99.7886 178.773ZM221.432 174.324L220.948 173.749C222.084 172.79 223.215 171.79 224.31 170.778L224.82 171.33C223.717 172.35 222.577 173.357 221.432 174.324ZM92.7187 173.127C91.5897 172.138 90.468 171.11 89.3849 170.07L89.905 169.528C90.9799 170.56 92.093 171.581 93.2135 172.562L92.7187 173.127ZM228.069 168.184L227.534 167.656C228.582 166.594 229.619 165.495 230.614 164.39L231.173 164.892C230.169 166.006 229.125 167.114 228.069 168.184ZM86.1945 166.864C85.1586 165.775 84.1356 164.649 83.1538 163.518L83.7211 163.025C84.6954 164.148 85.7106 165.266 86.7388 166.347L86.1945 166.864ZM234.123 161.463L233.543 160.986C234.489 159.834 235.421 158.645 236.314 157.452L236.915 157.902C236.016 159.104 235.077 160.302 234.123 161.463ZM80.2691 160.037C79.3388 158.861 78.4228 157.647 77.5465 156.429L78.156 155.99C79.0258 157.199 79.9348 158.404 80.8581 159.571L80.2691 160.037ZM239.542 154.216L238.921 153.794C239.758 152.56 240.579 151.291 241.359 150.02L241.999 150.413C241.212 151.694 240.386 152.973 239.542 154.216ZM74.9921 152.702C74.1737 151.447 73.3727 150.156 72.6111 148.864L73.2581 148.482C74.014 149.765 74.8089 151.046 75.6211 152.291L74.9921 152.702ZM244.28 146.5L243.622 146.137C244.343 144.832 245.044 143.492 245.705 142.153L246.379 142.486C245.712 143.835 245.006 145.185 244.28 146.5ZM248.291 138.379L247.603 138.078C248.201 136.71 248.776 135.31 249.311 133.916L250.012 134.186C249.473 135.59 248.894 137.001 248.291 138.379ZM66.5588 136.758C65.983 135.376 65.4316 133.962 64.9199 132.555L65.6259 132.298C66.1335 133.694 66.6807 135.097 67.2519 136.469L66.5588 136.758ZM251.539 129.916L250.826 129.68C251.294 128.267 251.737 126.823 252.14 125.388L252.863 125.591C252.457 127.037 252.011 128.493 251.539 129.916ZM63.4731 128.269C63.0262 126.838 62.6063 125.375 62.225 123.922L62.9516 123.731C63.3299 125.174 63.7467 126.625 64.1901 128.046L63.4731 128.269ZM253.987 121.21L253.255 121.039C253.591 119.592 253.899 118.113 254.169 116.645L254.908 116.781C254.636 118.26 254.326 119.75 253.987 121.21ZM61.1791 119.522C60.8659 118.054 60.5824 116.559 60.3366 115.078L61.0775 114.955C61.3216 116.425 61.6028 117.909 61.9137 119.365L61.1791 119.522ZM255.624 112.316L254.879 112.214C255.081 110.742 255.252 109.242 255.386 107.754L256.135 107.822C255.999 109.321 255.827 110.833 255.624 112.316ZM59.6989 110.601C59.5217 109.113 59.3763 107.599 59.2664 106.099L60.0157 106.044C60.1245 107.533 60.269 109.036 60.4448 110.512L59.6989 110.601ZM256.44 103.31L255.69 103.276C255.757 101.788 255.791 100.278 255.791 98.7889H256.542C256.542 100.289 256.508 101.81 256.44 103.31ZM59.0389 101.582C59.0132 100.66 59.0002 99.7207 59 98.7889C59 98.2108 59.005 97.6338 59.0149 97.0579L59.766 97.0711C59.7561 97.6426 59.7511 98.2152 59.7511 98.7889C59.7513 99.7137 59.7643 100.647 59.7896 101.561L59.0389 101.582ZM59.9442 92.5862L59.1946 92.5393C59.2883 91.0382 59.4177 89.5222 59.5789 88.0331L60.3256 88.1139C60.1655 89.5919 60.0374 91.0964 59.9442 92.5862ZM255.306 88.003C255.156 86.522 254.95 85.7999 254.732 84.3252L255.475 84.2156C255.694 85.7014 255.882 86.8356 256.034 88.3278L255.306 88.003ZM60.9104 83.664L60.1681 83.5492C60.3982 82.0631 60.6656 80.5652 60.9629 79.0966L61.6989 79.2455C61.4041 80.7029 61.1387 82.1894 60.9104 83.664ZM253.974 79.9019C253.687 78.4365 253.364 76.9613 253.013 75.5175L253.743 75.34C254.096 76.7948 254.422 78.2813 254.711 79.7578L253.974 79.9019ZM62.6895 74.8681L61.961 74.6854C62.3257 73.2304 62.7297 71.7633 63.1617 70.3246L63.8809 70.5407C63.4524 71.9684 63.0515 73.4243 62.6895 74.8681ZM251.851 71.1819C251.432 69.7515 250.974 68.3126 250.491 66.9048L251.201 66.6605C251.688 68.0792 252.15 69.5294 252.572 70.9706L251.851 71.1819ZM65.2751 66.2612L64.5666 66.0121C65.0657 64.592 65.6047 63.1651 66.1684 61.771L66.8648 62.0527C66.3053 63.436 65.7704 64.8521 65.2751 66.2612ZM248.934 62.6948C248.386 61.3123 247.799 59.9248 247.19 58.5706L247.875 58.2621C248.489 59.6267 249.08 61.0249 249.632 62.4178L248.934 62.6948ZM68.6463 57.9234L67.9638 57.6097C68.5911 56.2433 69.2588 54.8731 69.9483 53.5371L70.6158 53.8816C69.9314 55.2075 69.2689 56.5673 68.6463 57.9234ZM245.258 54.5294C244.586 53.2031 243.874 51.8742 243.141 50.5798L243.795 50.2097C244.533 51.5141 245.25 52.8532 245.928 54.1897L245.258 54.5294ZM72.7688 49.9357L72.1178 49.5608C72.8671 48.2595 73.6573 46.957 74.4665 45.6896L75.0995 46.0938C74.2965 47.3516 73.5122 48.6443 72.7688 49.9357ZM240.845 46.7297C240.052 45.466 239.221 44.2071 238.375 42.9878L238.992 42.5597C239.844 43.7884 240.682 45.0568 241.481 46.3302L240.845 46.7297ZM77.6034 42.3636L76.9894 41.9308C77.8553 40.7025 78.7606 39.4782 79.6808 38.2919L80.2742 38.7523C79.3612 39.9298 78.4625 41.1447 77.6034 42.3636ZM235.736 39.3616C234.831 38.1758 233.888 36.9971 232.934 35.8581L233.51 35.3755C234.471 36.5233 235.421 37.7109 236.333 38.9056L235.736 39.3616ZM83.1065 35.2677L82.5347 34.7806C83.5064 33.639 84.5192 32.5028 85.5448 31.4034L86.0939 31.9159C85.0761 33.007 84.071 34.1348 83.1065 35.2677ZM229.975 32.485C228.966 31.3866 227.919 30.2978 226.864 29.2495L227.394 28.7165C228.457 29.7731 229.511 30.8699 230.528 31.9766L229.975 32.485ZM89.2298 28.7047L88.7046 28.1677C89.7786 27.1168 90.8901 26.0777 92.0078 25.0796L92.508 25.6401C91.3988 26.6305 90.2958 27.6617 89.2298 28.7047ZM223.61 26.1581C222.504 25.155 221.363 24.1657 220.217 23.2176L220.696 22.6388C221.85 23.594 223.001 24.5908 224.115 25.6016L223.61 26.1581ZM95.9216 22.7279L95.4474 22.1454C96.609 21.1992 97.8096 20.266 99.0159 19.3717L99.4633 19.9751C98.266 20.8629 97.0745 21.7889 95.9216 22.7279ZM103.126 17.3876L102.706 16.7644C103.95 15.9277 105.23 15.1084 106.511 14.3287L106.901 14.9706C105.63 15.7442 104.359 16.5575 103.126 17.3876ZM110.782 12.7294L110.422 12.0702C111.737 11.3503 113.086 10.6519 114.43 9.99398L114.76 10.6689C113.426 11.3217 112.088 12.0148 110.782 12.7294ZM201.43 10.9888C200.094 10.3228 198.724 9.67944 197.361 9.07657L197.665 8.38952C199.039 8.99697 200.418 9.64532 201.765 10.3164L201.43 10.9888ZM118.827 8.79357L118.529 8.1043C119.903 7.5084 121.31 6.93689 122.708 6.40556L122.975 7.10801C121.587 7.63515 120.191 8.20225 118.827 8.79357ZM193.207 7.35324C191.816 6.81384 190.393 6.29918 188.976 5.82378L189.215 5.11142C190.642 5.59067 192.077 6.10917 193.478 6.65297L193.207 7.35324ZM127.205 5.61159L126.971 4.89776C128.399 4.42969 129.855 3.98896 131.3 3.58821L131.501 4.31195C130.067 4.70976 128.622 5.14701 127.205 5.61159ZM184.689 4.49462C183.257 4.08617 181.796 3.70578 180.346 3.36408L180.519 2.63301C181.979 2.97727 183.451 3.36059 184.895 3.77199L184.689 4.49462ZM135.851 3.21167L135.684 2.47931C137.148 2.14496 138.638 1.84031 140.115 1.574L140.248 2.31315C138.783 2.57762 137.304 2.87988 135.851 3.21167ZM175.956 2.43529C174.493 2.16073 173.004 1.91643 171.528 1.70918L171.632 0.965266C173.119 1.17417 174.621 1.4203 176.095 1.69689L175.956 2.43529ZM144.682 1.61784L144.582 0.873201C146.069 0.674751 147.581 0.507847 149.076 0.377629L149.142 1.12594C147.658 1.25542 146.157 1.42086 144.682 1.61784ZM167.071 1.18683C165.591 1.04744 164.085 0.939964 162.595 0.867882L162.631 0.117386C164.133 0.190201 165.65 0.298414 167.141 0.43892L167.071 1.18683ZM153.62 0.837802L153.589 0.087306C154.969 0.0297154 156.376 0.000368111 157.771 0L158.111 0.000552379L158.109 0.751799L157.771 0.751247C156.387 0.751592 154.99 0.780764 153.62 0.837802Z" fill="#CCCCCC"/>
<rect x="99" y="25" width="118" height="264" rx="12" fill="white" stroke="#CCCCCC" stroke-width="2"/>
<path d="M168.741 236.893C168.741 242.633 164.089 247.286 158.35 247.286C152.611 247.286 147.959 242.633 147.959 236.893C147.959 231.153 152.611 226.5 158.35 226.5C164.089 226.5 168.741 231.153 168.741 236.893Z" fill="white" stroke="#0066CC"/>
<path d="M165.207 235.817H159.425V230.035H157.274V235.817H151.492V237.969H157.274V243.752H159.425V237.969H165.207V235.817Z" fill="#0066CC"/>
<path d="M192.7 237.269L187.067 234.639V236.142H173.922V238.396H187.067V239.898L192.7 237.269Z" fill="#0066CC"/>
<path d="M124 237.269L129.633 234.639V236.142H142.778V238.396H129.633V239.898L124 237.269Z" fill="#0066CC"/>
<path d="M86.5246 80.7422C94.5106 82.4949 99.7448 89.5653 99.7448 89.5653C99.7448 89.5653 92.031 93.7939 84.0449 92.0412C76.0588 90.2885 70.8247 83.2182 70.8247 83.2182C70.8247 83.2182 78.5385 78.9895 86.5246 80.7422Z" fill="#8ED258"/>
<path d="M51.6007 45.4144C58.1678 50.2853 66.9365 49.5881 66.9365 49.5881C66.9365 49.5881 65.0576 40.9935 58.4905 36.1226C51.9233 31.2517 43.1547 31.9488 43.1547 31.9488C43.1547 31.9488 45.0335 40.5434 51.6007 45.4144Z" fill="#8ED258"/>
<path d="M53.0116 42.1381C61.144 42.9823 67.1393 49.4197 67.1393 49.4197C67.1393 49.4197 59.9492 54.4883 51.8168 53.6441C43.6843 52.7999 37.6891 46.3625 37.6891 46.3625C37.6891 46.3625 44.8791 41.2939 53.0116 42.1381Z" fill="#FD7E14"/>
<path d="M82.0224 49.2928C79.6827 57.1286 83.327 65.1355 83.327 65.1355C83.327 65.1355 90.7649 60.4381 93.1046 52.6024C95.4444 44.7666 91.8 36.7597 91.8 36.7597C91.8 36.7597 84.3622 41.4571 82.0224 49.2928Z" fill="#FF7214"/>
<path d="M83.1743 177.682L83.8663 177.389C82.3296 173.841 81.8824 169.916 82.5813 166.113C83.692 160.567 87.4288 155.972 91.0426 151.527C91.7134 150.702 92.382 149.88 93.0319 149.055C95.7383 145.7 98.0838 142.07 100.029 138.224C107.112 123.835 106.62 105.115 98.7142 88.1474C92.4423 74.6875 81.6636 61.874 65.7627 48.9749L65.2896 49.5584C81.0999 62.3839 91.8105 75.1105 98.0333 88.4649C105.844 105.228 106.339 123.705 99.3554 137.892C97.4329 141.691 95.1157 145.277 92.442 148.59C91.7943 149.412 91.1282 150.231 90.4598 151.053C86.7885 155.568 82.992 160.237 81.8448 165.966C81.1167 169.917 81.5795 173.995 83.1743 177.682Z" fill="#62CC0E"/>
<path d="M30.5768 43.0464C34.4433 43.8084 38.1955 41.2912 38.9577 37.424C39.7198 33.5569 37.2033 29.8041 33.3368 29.0421C29.4703 28.2801 25.7181 30.7973 24.9559 34.6645C24.1938 38.5317 26.7103 42.2844 30.5768 43.0464Z" fill="#FD7E14"/>
<rect x="126.21" y="111" width="63" height="72" rx="5" fill="#8ED258"/>
<path d="M173.347 138.44C172.015 137.288 170.372 136.556 168.625 136.333C166.878 136.111 165.105 136.41 163.527 137.191C162.156 137.854 160.681 138.276 159.168 138.438C159.13 135.159 159.732 131.903 160.94 128.854L161.138 128.342H158.505L158.43 128.619C158.136 129.697 157.905 130.791 157.737 131.896C157.595 131.417 157.411 130.952 157.187 130.505C155.34 126.844 151.073 125.346 150.893 125.284L150.529 125.159L150.413 125.526C150.355 125.708 149.023 130.03 150.869 133.692C152.191 136.314 154.754 137.826 156.169 138.496C154.378 138.381 152.627 137.912 151.017 137.118C150.013 136.6 148.884 136.376 147.759 136.471C146.634 136.566 145.559 136.977 144.656 137.655C139.74 141.391 136.921 146.867 136.921 152.68C136.921 160.315 141.865 167.308 149.517 170.494C150.207 170.78 150.947 170.927 151.694 170.927C152.732 170.927 153.75 170.647 154.643 170.118C155.829 169.428 157.176 169.063 158.548 169.06C159.92 169.057 161.269 169.417 162.458 170.102C163.226 170.556 164.09 170.824 164.98 170.887C165.87 170.95 166.763 170.805 167.588 170.463C175.195 167.265 180.11 160.284 180.11 152.68C180.11 147.236 177.708 142.179 173.347 138.44ZM159.08 129.094H160.046C158.959 132.006 158.405 135.091 158.41 138.199H158.238C158.005 135.138 158.29 132.06 159.08 129.094ZM151.54 133.354C150.138 130.574 150.753 127.26 151.025 126.142C152.085 126.587 155.111 128.059 156.516 130.844C157.917 133.623 157.303 136.936 157.031 138.055C155.97 137.608 152.941 136.133 151.54 133.354ZM167.297 169.771C166.58 170.067 165.804 170.193 165.03 170.138C164.256 170.083 163.506 169.849 162.838 169.454C161.534 168.701 160.053 168.306 158.546 168.309C157.04 168.312 155.561 168.713 154.259 169.472C153.593 169.869 152.844 170.105 152.071 170.162C151.298 170.219 150.522 170.095 149.805 169.801C142.435 166.732 137.672 160.011 137.672 152.68C137.672 147.104 140.383 141.845 145.11 138.253C146.017 137.568 147.123 137.199 148.259 137.201C149.099 137.201 149.926 137.401 150.673 137.785C152.73 138.767 154.978 139.283 157.258 139.297C159.537 139.31 161.792 138.821 163.861 137.864C165.307 137.148 166.932 136.875 168.532 137.079C170.133 137.283 171.638 137.955 172.858 139.01C177.05 142.605 179.359 147.459 179.359 152.68C179.359 159.981 174.624 166.689 167.297 169.771Z" fill="white"/>
<path d="M111.792 177.555C111.792 180.48 109.292 182.781 106.377 182.538L70.6678 179.561C68.5946 179.389 67 177.656 67 175.575V117.354C67 115.222 68.6714 113.465 70.8002 113.359L106.542 111.571C109.398 111.429 111.792 113.706 111.792 116.565V177.555Z" fill="#8ED258"/>
<path d="M89.2734 131.341V130.459H89.6239V127.711C89.6252 127.508 89.5705 127.308 89.4658 127.133C89.3611 126.958 89.2105 126.816 89.0303 126.721C87.4802 125.912 85.8144 125.913 84.0791 126.725C83.8875 126.816 83.7258 126.959 83.6126 127.139C83.4994 127.318 83.4395 127.526 83.4399 127.738V130.459H83.7903V131.257C82.5004 131.619 81.3648 132.393 80.5575 133.463C79.7502 134.532 79.3159 135.836 79.3212 137.176V143.121L79.9887 143.343L79.3212 143.788V145.575L79.9887 145.797L79.3212 146.243V148.029L79.9887 148.251L79.3212 148.697V162.303C79.3224 163.364 79.7445 164.381 80.4947 165.132C81.245 165.882 82.2623 166.305 83.3234 166.306H89.2235C90.2822 166.305 91.2972 165.883 92.0459 165.135C92.7945 164.386 93.2156 163.371 93.2168 162.312V148.697L92.5493 148.251L93.2168 148.029V146.243L92.5493 145.797L93.2168 145.575V143.788L92.5493 143.343L93.2168 143.121V136.869C93.2123 135.653 92.8306 134.468 92.1243 133.477C91.418 132.487 90.4219 131.741 89.2734 131.341ZM84.3971 127.405C85.931 126.689 87.3331 126.682 88.6826 127.387C88.7406 127.419 88.789 127.466 88.8225 127.523C88.8559 127.58 88.8733 127.645 88.8727 127.711V129.182H84.191V127.738C84.1903 127.669 84.2094 127.601 84.2458 127.542C84.2823 127.483 84.3348 127.435 84.3971 127.405ZM92.4656 142.579L90.8549 143.116L92.4656 144.19V145.033L90.8549 145.57L92.4656 146.645V147.488L90.8549 148.024L92.4656 149.099V162.312C92.4647 163.172 92.1228 163.996 91.515 164.604C90.9072 165.212 90.0831 165.554 89.2235 165.555H83.3234C82.4614 165.554 81.6351 165.211 81.0256 164.601C80.4161 163.991 80.0733 163.165 80.0723 162.303V149.099L81.6831 148.024L80.0723 147.488V146.645L81.6831 145.57L80.0723 145.033V144.19L81.6831 143.116L80.0723 142.579V137.176C80.0676 135.955 80.4788 134.768 81.2382 133.812C81.9977 132.855 83.0601 132.186 84.2506 131.914L84.5414 131.847V130.459H88.5223V131.897L88.7932 131.976C89.8504 132.287 90.7789 132.932 91.4406 133.814C92.1023 134.695 92.4618 135.767 92.4656 136.869V142.579Z" fill="white"/>
<path d="M203.763 177.555C203.763 180.48 206.263 182.781 209.178 182.538L244.888 179.561C246.961 179.389 248.555 177.656 248.555 175.575V117.354C248.555 115.222 246.884 113.465 244.755 113.359L209.013 111.571C206.157 111.429 203.763 113.706 203.763 116.565V177.555Z" fill="#8ED258"/>
<path d="M245.808 141.628L243.917 141.25L244.362 140.359L243.495 140.186L243.645 139.284L242.698 139.126V138.27L241.929 138.05L242.659 137.139H241.393L241.658 136.478L240.722 136.323L241.039 135.209H240.027V134.17H239.651C238.468 134.17 237.808 135.576 237.592 136.139C231.06 137.278 212.094 150.417 209.93 151.928C209.031 151.636 207.697 152.32 207.418 152.472L206.978 152.712L207.613 153.348L207.424 153.917L208.591 154.354L208.335 154.993L209.07 155.606L208.41 156.102L209.404 156.698L209.229 157.57L210.339 157.729V158.601L210.983 158.73L210.662 159.856H211.377V160.747H212.076L212.392 161.696L212.717 161.63C213.473 161.479 214.12 160.434 214.373 159.97C220.663 158.847 240.085 145.181 241.975 143.842C244.182 144.107 244.993 143.517 245.08 143.448L245.439 143.16L244.581 142.446L245.808 141.628ZM241.927 143.079L241.781 143.059L241.66 143.145C241.445 143.297 220.146 158.39 214.074 159.257L213.879 159.285L213.791 159.461C213.559 159.936 213.244 160.366 212.862 160.732L212.617 159.996H212.129V159.105H211.657L211.929 158.154L211.09 157.986V157.077L210.122 156.939L210.244 156.326L209.754 156.032L210.281 155.637L209.235 154.766L209.573 153.921L208.366 153.468L208.473 153.146L208.24 152.912C208.804 152.678 209.486 152.503 209.779 152.679L209.989 152.804L210.188 152.664C210.401 152.515 231.556 137.716 237.921 136.848L238.159 136.815L238.23 136.586C238.339 136.231 238.728 135.334 239.276 135.027V135.96H240.044L239.768 136.925L240.613 137.066L240.283 137.89H241.096L240.638 138.463L241.947 138.837V139.762L242.781 139.901L242.634 140.78L243.251 140.903L242.806 141.794L243.882 142.009L243.328 142.379L244.125 143.043C243.401 143.191 242.656 143.203 241.927 143.079Z" fill="white"/>
<path d="M193.621 60.0044H121.515V60.7556H193.621V60.0044Z" fill="white"/>
<path d="M193.796 265.095H121.689V265.846H193.796V265.095Z" fill="white"/>
<path d="M289.443 69.4486L279.071 79.2217L283.83 85.9229L294.428 75.2002C294.887 75.169 295.35 75.0715 295.803 74.8993C298.266 73.9627 299.503 71.2078 298.565 68.7462C297.628 66.2846 294.872 65.0484 292.409 65.985C290.839 66.5824 289.77 67.92 289.443 69.4486Z" fill="#F0C9A5"/>
<path d="M323.441 315.322L315.958 315.322L312.399 286.474L323.442 286.475L323.441 315.322Z" fill="#F0C9A5"/>
<path d="M323.704 323.124L300.695 323.124V322.833C300.695 317.889 304.705 313.881 309.651 313.881L313.854 310.694L321.696 313.882L323.705 313.882L323.704 323.124Z" fill="#212529"/>
<path d="M306.001 307.425L298.987 310.032L285.59 284.234L295.94 280.387L306.001 307.425Z" fill="#F0C9A5"/>
<path d="M308.969 314.646L287.402 322.663L287.301 322.39C285.577 317.756 287.937 312.603 292.573 310.879L295.401 306.427L303.863 306.682L305.745 305.983L308.969 314.646Z" fill="#212529"/>
<path d="M291.829 165.997L276.644 252.323L290.88 305.922L304.168 300.704L302.27 296.435L305.117 290.743L300.846 262.284L300.839 244.096L312.71 207.737L316.031 267.502L310.811 297.384L311.794 305.922L327.421 307.819L325.522 301.653L335.488 271.77L333.59 266.079L346.877 196.354L343.555 174.061L291.829 165.997Z" fill="#212529"/>
<path d="M336.674 80.8566H317.756L311.998 90.343L305.829 88.9201L302.703 90.343L288.745 93.189L293.016 118.328L293.965 147.261L293.49 159.594C288.501 163.238 289.789 168.259 290.895 173.859C290.895 173.859 338.572 186.891 346.165 182.729V177.351L341.657 141.332L358.266 100.541C358.995 94.9565 353.092 93.4478 347.589 92.2403L341.894 90.343L336.674 80.8566Z" fill="#0066CC"/>
<path d="M293.016 96.5092L288.745 93.1889L279.028 96.5092L282.576 90.8173V88.0741L288.27 86.5484L288.745 82.2796L293.016 78.9313L286.022 70.8641L280.915 75.1666L277.83 75.1648L273.585 79.4075L258.368 100.175C255.132 104.591 256.063 110.915 260.611 113.962C262.36 115.134 264.462 115.956 266.916 115.956H293.825L293.016 96.5092Z" fill="#0066CC"/>
<path d="M325.425 77.8895C317.573 77.8895 311.207 71.527 311.207 63.6785C311.207 55.8299 317.573 49.4674 325.425 49.4674C333.277 49.4674 339.643 55.8299 339.643 63.6785C339.643 71.527 333.277 77.8895 325.425 77.8895Z" fill="#F0C9A5"/>
<path d="M357.755 190.802L358.092 176.559L349.978 175.231L350.158 190.303C349.857 190.651 349.601 191.049 349.405 191.492C348.34 193.901 349.431 196.717 351.841 197.781C354.252 198.845 357.069 197.755 358.134 195.346C358.813 193.81 358.612 192.11 357.755 190.802Z" fill="#F0C9A5"/>
<path d="M357.994 95.9893C361.195 95.8059 363.783 98.5605 363.399 101.742L371.164 144.987L372.399 147.585L370.983 149.047L370.685 152.398L358.862 183.607L344.088 184.154L349.592 118.863L353.418 99.4627C354.095 97.4824 355.904 96.1091 357.994 95.9893Z" fill="#0066CC"/>
<path d="M343.002 183.728C342.86 193.982 347.273 196.173 354.392 194.027C360.414 192.212 365.781 190.015 365.781 183.728C365.781 177.441 362.12 168.143 354.392 171.26C347.477 167.465 339.534 176.458 343.002 183.728Z" fill="#8ED258"/>
<path d="M354.802 171.515C355.71 169.862 355.773 167.842 354.929 166.149C354.176 164.641 352.687 163.519 351.046 163.166C350.152 162.973 349.771 164.345 350.667 164.538C351.943 164.812 352.689 170.056 353.301 171.215C353.958 172.461 354.245 169.573 353.572 170.797C353.131 171.6 354.36 172.319 354.802 171.515Z" fill="#212529"/>
<path d="M281.057 59.9303C281.057 66.2173 285.328 72.3754 292.446 70.2298C298.468 68.4145 306.143 69.167 300.176 58.5652C308.132 54.5896 300.174 44.3454 292.446 47.4624C285.531 43.6678 281.057 53.6432 281.057 59.9303Z" fill="#FD7E14"/>
<path d="M292.856 47.7179C295.626 48.3657 294.202 48.6446 292.983 45.0023C292.448 43.4044 290.742 42.3716 289.1 42.0184C288.207 41.8262 287.825 43.1976 288.722 43.3905C289.997 43.6649 291.093 44.4652 291.704 45.6238C292.362 46.8701 292.3 45.7759 291.627 46.9997C291.185 47.8028 292.414 48.5216 292.856 47.7179Z" fill="#212529"/>
<path d="M357.037 312.515C358.406 312.601 359.163 310.9 358.127 309.909L358.024 309.499C358.037 309.466 358.051 309.433 358.065 309.401C359.45 306.1 364.144 306.123 365.517 309.428C366.736 312.363 368.288 315.302 368.67 318.404C368.841 319.774 368.764 321.169 368.46 322.513C371.316 316.277 372.819 309.468 372.819 302.621C372.819 300.9 372.725 299.18 372.532 297.463C372.374 296.06 372.155 294.665 371.873 293.282C370.344 285.81 367.034 278.693 362.26 272.748C359.965 271.494 358.051 269.534 356.895 267.185C356.48 266.337 356.154 265.426 356 264.497C356.261 264.531 356.985 260.555 356.788 260.311C357.152 259.759 357.803 259.485 358.201 258.946C360.178 256.267 362.902 256.735 364.324 260.376C367.362 261.908 367.391 264.449 365.527 266.894C364.341 268.449 364.178 270.553 363.138 272.217C363.245 272.354 363.356 272.487 363.463 272.624C365.426 275.141 367.124 277.845 368.555 280.687C368.151 277.529 368.748 273.724 369.766 271.272C370.925 268.477 373.097 266.124 375.01 263.708C377.308 260.806 382.019 262.073 382.424 265.751C382.428 265.787 382.432 265.822 382.436 265.858C382.152 266.018 381.873 266.188 381.601 266.368C380.05 267.393 380.586 269.796 382.424 270.08L382.466 270.086C382.363 271.109 382.187 272.123 381.93 273.12C384.384 282.606 379.086 286.061 371.521 286.216C371.355 286.302 371.192 286.388 371.025 286.469C371.791 288.626 372.404 290.838 372.857 293.081C373.264 295.063 373.547 297.065 373.705 299.077C373.902 301.615 373.885 304.166 373.671 306.699L373.684 306.609C374.228 303.819 375.743 301.213 377.944 299.406C381.223 296.715 385.855 295.723 389.392 293.559C391.094 292.518 393.276 293.864 392.979 295.837L392.964 295.931C392.438 296.145 391.924 296.394 391.427 296.672C391.143 296.832 390.865 297.002 390.593 297.182C389.042 298.207 389.578 300.61 391.416 300.894L391.457 300.9C391.487 300.904 391.513 300.909 391.543 300.913C390.639 303.057 389.381 305.047 387.805 306.763C386.271 315.044 379.68 315.83 372.63 313.418H372.626C371.855 316.774 370.729 320.052 369.282 323.176H357.336C357.293 323.043 357.255 322.906 357.216 322.774C358.321 322.842 359.434 322.778 360.522 322.577C359.635 321.49 358.749 320.394 357.863 319.307C357.841 319.286 357.824 319.264 357.807 319.243C357.357 318.687 356.904 318.134 356.454 317.578L356.454 317.577C356.426 315.87 356.631 314.167 357.037 312.515Z" fill="#F2F2F2"/>
<path d="M244 323C244 323.555 244.319 324 244.717 324H397.283C397.681 324 398 323.555 398 323C398 322.445 397.681 322 397.283 322H244.717C244.319 322 244 322.445 244 323Z" fill="#CCCCCC"/>
<path d="M313.55 52.287C312.688 52.711 311.879 53.2411 311.15 53.8507C310.938 54.0296 312.946 54.2682 312.748 54.4537C314.173 56.7463 308.233 59.6154 310.759 59.7546C311.263 58.6811 319.039 56.1698 319.881 55.3416C319.761 56.2957 316.612 57.4818 316.725 58.4294C319.556 58.2504 325.867 57.1903 329.321 55.7789C327.24 59.9237 327.224 63.1813 331.972 64.3928C335.526 64.3928 338.007 67.9118 336.812 71.2569L335.95 73.6694L339.265 70.3563C340.643 68.9785 343.313 65.7188 344.192 62.2387C344.823 59.7393 344.309 57.1204 342.995 54.902C342.947 54.8201 342.903 54.741 342.864 54.6657C343.613 55.0103 344.396 55.2753 345.198 55.4542C345.231 54.0097 339.623 51.3328 339.265 50.478C337.601 46.4957 340.027 46.5024 333.298 46.5024C332.718 46.1159 331.553 46.7762 329.984 46.5024C327.096 45.9985 325.902 44.0286 322.316 44.7819C319.222 45.4318 316.211 46.3852 313.876 47.3578L312.748 47.8276C312.065 48.9209 311.786 49.9413 311.826 50.869C311.886 50.8557 311.952 50.8425 312.012 50.8358C313.185 50.6702 312.396 52.0352 313.55 52.287Z" fill="#212529"/>
</svg>
