<svg width="199" height="200" viewBox="0 0 199 200" fill="none" xmlns="http://www.w3.org/2000/svg">
<g clip-path="url(#clip0_59_2014)">
<path d="M115.867 76.011H106.873C106.372 76.011 105.966 75.6057 105.966 75.1051V66.4876H97.3305C96.8295 66.4876 96.424 66.0823 96.424 65.5817V56.6065C96.424 56.1059 96.8295 55.7007 97.3305 55.7007H105.966V47.0831C105.966 46.5825 106.372 46.1772 106.873 46.1772H115.867C116.368 46.1772 116.773 46.5825 116.773 47.0831V55.7007H125.409C125.91 55.7007 126.315 56.1059 126.315 56.6065V65.5817C126.315 66.0823 125.91 66.4876 125.409 66.4876H116.773V75.1051C116.773 75.6057 116.368 76.011 115.867 76.011ZM107.779 74.2112H114.96V65.5936C114.96 65.093 115.366 64.6878 115.867 64.6878H124.502V57.5124H115.867C115.366 57.5124 114.96 57.1071 114.96 56.6065V47.989H107.779V56.6065C107.779 57.1071 107.374 57.5124 106.873 57.5124H98.237V64.6878H106.873C107.374 64.6878 107.779 65.093 107.779 65.5936V74.2112Z" fill="#007FFE"/>
<rect x="55" y="23.0605" width="80.303" height="87.9394" rx="11" stroke="#007FFE" stroke-width="2"/>
<path d="M87.2056 43.7978C87.2056 41.0364 89.4441 38.7979 92.2056 38.7979H135.303V83.2827H92.2056C89.4441 83.2827 87.2056 81.0441 87.2056 78.2827V43.7978Z" stroke="#007FFE" stroke-width="2"/>
<rect x="64.3334" y="1" width="61.2183" height="21.8384" rx="5" stroke="#007FFE" stroke-width="2"/>
<path d="M44.49 155.675C33.2142 155.675 24.3705 151.57 24.3705 146.333C24.3705 141.096 33.2142 137 44.49 137C55.7657 137 64.6094 141.106 64.6094 146.333C64.6094 151.56 55.7758 155.675 44.49 155.675ZM44.49 138.473C34.4101 138.473 25.888 142.071 25.888 146.333C25.888 150.594 34.4101 154.203 44.49 154.203C54.5698 154.203 63.0919 150.604 63.0919 146.333C63.0919 142.061 54.5798 138.473 44.49 138.473Z" fill="#007FFE"/>
<path d="M58.9615 152.798C58.8912 152.798 58.8309 152.798 58.7605 152.769L25.9885 144.256C25.7473 144.197 25.5463 144.012 25.4659 143.778C25.3855 143.544 25.4257 143.29 25.5765 143.095C26.4809 141.935 27.8577 140.881 29.6767 139.965C29.8476 139.877 30.0385 139.857 30.2194 139.906L63.0015 148.429C63.2427 148.498 63.4437 148.673 63.5241 148.907C63.6045 149.141 63.5643 149.395 63.4135 149.59C62.509 150.751 61.1322 151.804 59.3132 152.72C59.2027 152.779 59.0821 152.808 58.9615 152.808V152.798ZM27.5864 143.134L58.8711 151.267C59.8961 150.731 60.7403 150.156 61.4136 149.541L30.1189 141.408C29.0938 141.944 28.2497 142.52 27.5763 143.134H27.5864Z" fill="#007FFE"/>
<path d="M44.49 161.156C33.2142 161.156 24.3705 157.05 24.3705 151.813C24.3705 151.784 24.3705 151.765 24.3705 151.735V151.706L24.4308 147.035C24.4308 146.655 24.7423 146.343 25.1343 146.313C25.5262 146.284 25.8779 146.547 25.9483 146.918C26.0588 147.513 26.3302 148.088 26.7523 148.644C29.2245 151.921 36.5205 154.213 44.5 154.213C52.4795 154.213 59.7755 151.921 62.2377 148.644C62.7703 147.942 63.0517 147.22 63.0919 146.489C63.112 146.069 63.4638 145.757 63.8858 145.767C64.3079 145.787 64.6295 146.128 64.6094 146.538C64.5592 147.669 64.5793 148.849 64.5994 149.99C64.5994 150.585 64.6195 151.209 64.6195 151.804C64.6195 157.041 55.7858 161.146 44.5 161.146L44.49 161.156ZM25.9181 149.99L25.898 151.716C25.898 151.716 25.898 151.765 25.898 151.794V151.813C25.898 156.075 34.4101 159.674 44.49 159.674C54.5698 159.674 63.0919 156.075 63.0919 151.804C63.0919 151.219 63.0919 150.604 63.0718 150.009V149.98C60.0167 153.403 52.6905 155.675 44.49 155.675C36.2894 155.675 28.9833 153.413 25.9181 149.99Z" fill="#007FFE"/>
<path d="M68.8705 179.51C57.5847 179.51 48.751 175.404 48.751 170.167C48.751 164.93 57.5847 160.824 68.8705 160.824C80.1563 160.824 88.99 164.93 88.99 170.167C88.99 175.404 80.1563 179.51 68.8705 179.51ZM68.8705 162.307C58.7907 162.307 50.2685 165.905 50.2685 170.177C50.2685 174.448 58.7806 178.037 68.8705 178.037C78.9604 178.037 87.4725 174.438 87.4725 170.177C87.4725 165.915 78.9604 162.307 68.8705 162.307Z" fill="#007FFE"/>
<path d="M83.332 176.623C83.2717 176.623 83.2013 176.623 83.131 176.594L50.359 168.07C50.1178 168.002 49.9168 167.826 49.8364 167.592C49.756 167.358 49.7962 167.105 49.9469 166.91C50.8514 165.74 52.2383 164.696 54.0472 163.789C54.2181 163.701 54.409 163.682 54.5899 163.731L87.3619 172.244C87.6031 172.303 87.8041 172.488 87.8845 172.712C87.9649 172.946 87.9247 173.2 87.7739 173.395C86.8594 174.565 85.4826 175.618 83.6737 176.525C83.5631 176.584 83.4425 176.603 83.3219 176.603L83.332 176.623ZM51.9569 166.968L83.2415 175.102C84.2465 174.575 85.1108 173.99 85.7741 173.375L54.4894 165.252C53.4844 165.779 52.6202 166.364 51.9569 166.968Z" fill="#007FFE"/>
<path d="M68.8705 184.99C57.5847 184.99 48.751 180.885 48.751 175.657C48.751 175.609 48.751 175.57 48.751 175.521L48.8113 170.869C48.8113 170.489 49.1229 170.177 49.5148 170.148C49.9067 170.118 50.2585 170.382 50.3288 170.752C50.4394 171.337 50.7007 171.922 51.1328 172.488C53.605 175.765 60.9011 178.047 68.8805 178.047C76.86 178.047 84.146 175.765 86.6182 172.488C87.1509 171.786 87.4323 171.064 87.4725 170.333C87.4926 169.913 87.8443 169.592 88.2664 169.621C88.6885 169.64 89.0101 169.982 88.99 170.391C88.9397 171.523 88.9598 172.703 88.9799 173.853C88.9799 174.448 89 175.072 89 175.667C89 180.904 80.1663 185 68.8805 185L68.8705 184.99ZM50.2987 173.834L50.2786 175.56V175.657C50.2786 179.919 58.7907 183.518 68.8705 183.518C78.9503 183.518 87.4725 179.919 87.4725 175.657C87.4725 175.072 87.4725 174.458 87.4524 173.863V173.834C84.3972 177.257 77.061 179.529 68.8705 179.529C60.68 179.529 53.3638 177.267 50.2987 173.844V173.834Z" fill="#007FFE"/>
<path d="M20.1094 179.51C8.83367 179.51 0 175.404 0 170.167C0 164.93 8.83367 160.824 20.1094 160.824C31.3852 160.824 40.2289 164.93 40.2289 170.167C40.2289 175.404 31.3952 179.51 20.1094 179.51ZM20.1094 162.307C10.0296 162.307 1.5175 165.905 1.5175 170.177C1.5175 174.448 10.0296 178.037 20.1094 178.037C30.1893 178.037 38.7114 174.438 38.7114 170.177C38.7114 165.915 30.1993 162.307 20.1094 162.307Z" fill="#007FFE"/>
<path d="M34.581 176.623C34.5106 176.623 34.4503 176.623 34.38 176.594L1.60795 168.08C1.36676 168.012 1.16576 167.836 1.08537 167.602C1.00497 167.368 1.04517 167.115 1.19591 166.92C2.10038 165.749 3.48724 164.706 5.29618 163.799C5.46703 163.711 5.65797 163.692 5.83887 163.74L38.6109 172.254C38.8521 172.312 39.0531 172.498 39.1335 172.722C39.2139 172.956 39.1737 173.21 39.0229 173.405C38.1084 174.575 36.7316 175.628 34.9227 176.535C34.8121 176.594 34.6915 176.613 34.5709 176.613L34.581 176.623ZM3.20585 166.968L34.4905 175.102C35.4955 174.575 36.3598 173.99 37.023 173.375L5.73837 165.242C4.7334 165.769 3.86913 166.354 3.20585 166.959V166.968Z" fill="#007FFE"/>
<path d="M20.1094 184.99C8.83367 184.99 0 180.885 0 175.657C0 175.609 0 175.57 0 175.521L0.0602981 170.869C0.0602981 170.489 0.361789 170.177 0.753726 170.148C1.14566 170.118 1.4974 170.382 1.56775 170.752C1.6783 171.337 1.94964 171.922 2.37173 172.488C4.84395 175.765 12.14 178.047 20.1094 178.047C28.0788 178.047 35.3849 175.765 37.8572 172.488C38.3898 171.786 38.6712 171.054 38.7114 170.323C38.7315 169.913 39.0832 169.592 39.5053 169.621C39.9274 169.64 40.249 169.982 40.2289 170.391C40.1786 171.523 40.1987 172.722 40.2188 173.873C40.2188 174.458 40.2389 175.072 40.2389 175.667C40.2389 180.904 31.4053 185 20.1195 185L20.1094 184.99ZM1.54765 173.834L1.52755 175.56C1.52755 175.56 1.52755 175.599 1.52755 175.618V175.648C1.52755 179.909 10.0396 183.508 20.1195 183.508C30.1993 183.508 38.7214 179.909 38.7214 175.648C38.7214 175.063 38.7214 174.458 38.7013 173.883V173.824C35.6362 177.247 28.31 179.51 20.1195 179.51C11.929 179.51 4.61281 177.247 1.54765 173.824V173.834Z" fill="#007FFE"/>
<path d="M162.362 147.341C160.16 145.14 155.002 148.291 151.143 152.15C147.283 156.009 144.132 161.166 146.334 163.368C146.837 163.872 147.494 164.095 148.254 164.095C150.823 164.095 154.576 161.538 157.553 158.56C161.413 154.701 164.564 149.543 162.362 147.341ZM155.949 156.956C151.742 161.163 148.348 162.179 147.936 161.765C147.524 161.353 148.537 157.958 152.744 153.751C156.39 150.106 159.427 148.859 160.44 148.859C160.596 148.859 160.704 148.888 160.758 148.942C161.17 149.354 160.155 152.749 155.949 156.956Z" fill="#007FFE"/>
<path d="M162.363 147.34L150.342 135.32C148.201 133.18 145.355 132 142.328 132C139.301 132 136.455 133.179 134.314 135.32C129.895 139.738 129.895 146.928 134.314 151.347L146.334 163.368C146.439 163.474 146.564 163.557 146.702 163.614C146.839 163.671 146.987 163.7 147.136 163.7C147.285 163.7 147.432 163.671 147.57 163.614C147.708 163.557 147.833 163.473 147.938 163.367C148.381 162.925 148.381 162.208 147.938 161.765C147.527 161.353 148.54 157.958 152.747 153.751C156.954 149.544 160.347 148.531 160.761 148.942C161.204 149.385 161.921 149.385 162.363 148.942C162.468 148.837 162.552 148.712 162.609 148.575C162.666 148.437 162.695 148.29 162.695 148.141C162.695 147.992 162.666 147.845 162.609 147.707C162.552 147.57 162.468 147.445 162.363 147.34ZM151.143 152.148C148.773 154.517 146.671 157.375 145.91 159.738L135.916 149.744C132.381 146.209 132.381 140.457 135.916 136.922C137.628 135.21 139.905 134.267 142.327 134.267C144.749 134.267 147.026 135.211 148.738 136.922L158.733 146.916C156.37 147.677 153.513 149.78 151.143 152.148ZM178.844 152.15C174.985 148.289 169.826 145.135 167.625 147.341C165.423 149.543 168.574 154.7 172.434 158.56C175.412 161.538 179.164 164.095 181.734 164.095C182.493 164.095 183.151 163.87 183.653 163.368C185.855 161.166 182.703 156.009 178.844 152.15ZM182.051 161.766C181.64 162.175 178.244 161.163 174.038 156.957C169.831 152.75 168.817 149.356 169.229 148.943C169.64 148.531 173.036 149.545 177.243 153.752C181.45 157.959 182.463 161.354 182.051 161.766Z" fill="#007FFE"/>
<path d="M195.675 135.321C193.534 133.18 190.688 132.001 187.661 132.001C184.634 132.001 181.788 133.18 179.647 135.321L167.627 147.341C167.522 147.446 167.438 147.571 167.381 147.708C167.324 147.846 167.295 147.993 167.295 148.142C167.295 148.291 167.324 148.438 167.381 148.576C167.438 148.713 167.522 148.838 167.627 148.943C168.069 149.387 168.787 149.387 169.23 148.943C169.642 148.534 173.038 149.546 177.244 153.752C181.449 157.959 182.464 161.355 182.051 161.766C181.608 162.209 181.608 162.926 182.051 163.368C182.156 163.474 182.281 163.557 182.419 163.614C182.556 163.671 182.704 163.701 182.852 163.701C183.143 163.701 183.431 163.589 183.655 163.37L195.675 151.348C200.094 146.929 200.094 139.74 195.675 135.321ZM194.071 149.745L184.078 159.739C183.316 157.376 181.214 154.519 178.845 152.149C176.476 149.78 173.618 147.678 171.255 146.917L181.249 136.923C182.961 135.212 185.238 134.268 187.66 134.268C190.082 134.268 192.359 135.211 194.071 136.923C197.606 140.458 197.606 146.21 194.071 149.745ZM159.327 164.867C157.452 164.867 155.927 166.392 155.927 168.267C155.927 170.141 157.452 171.667 159.327 171.667C161.202 171.667 162.727 170.141 162.727 168.267C162.727 166.392 161.201 164.867 159.327 164.867ZM159.327 169.4C158.701 169.4 158.193 168.891 158.193 168.267C158.193 167.642 158.701 167.133 159.327 167.133C159.952 167.133 160.46 167.642 160.46 168.267C160.46 168.891 159.951 169.4 159.327 169.4ZM169.527 169.4C167.027 169.4 164.993 171.433 164.993 173.933C164.993 176.434 167.027 178.467 169.527 178.467C172.027 178.467 174.06 176.433 174.06 173.933C174.06 171.433 172.027 169.4 169.527 169.4ZM169.527 176.2C168.277 176.2 167.26 175.183 167.26 173.933C167.26 172.683 168.277 171.667 169.527 171.667C170.777 171.667 171.793 172.683 171.793 173.933C171.793 175.183 170.777 176.2 169.527 176.2ZM169.527 183C167.652 183 166.127 184.526 166.127 186.4C166.127 188.275 167.652 189.8 169.527 189.8C171.402 189.8 172.927 188.275 172.927 186.4C172.927 184.526 171.401 183 169.527 183ZM169.527 187.533C168.901 187.533 168.393 187.025 168.393 186.4C168.393 185.776 168.901 185.267 169.527 185.267C170.152 185.267 170.66 185.776 170.66 186.4C170.66 187.025 170.151 187.533 169.527 187.533ZM167.26 156.933C164.76 156.933 162.727 158.967 162.727 161.467C162.727 163.967 164.76 166 167.26 166C169.76 166 171.793 163.967 171.793 161.467C171.793 158.967 169.76 156.933 167.26 156.933ZM167.26 163.733C166.01 163.733 164.993 162.717 164.993 161.467C164.993 160.217 166.01 159.2 167.26 159.2C168.51 159.2 169.527 160.216 169.527 161.467C169.527 162.717 168.51 163.733 167.26 163.733ZM159.327 176.2C156.827 176.2 154.793 178.233 154.793 180.733C154.793 183.233 156.827 185.267 159.327 185.267C161.827 185.267 163.86 183.233 163.86 180.733C163.86 178.233 161.827 176.2 159.327 176.2ZM159.327 183C158.077 183 157.06 181.983 157.06 180.733C157.06 179.483 158.077 178.467 159.327 178.467C160.577 178.467 161.593 179.483 161.593 180.733C161.593 181.983 160.577 183 159.327 183ZM161.593 190.933C159.093 190.933 157.06 192.967 157.06 195.467C157.06 197.967 159.093 200 161.593 200C164.093 200 166.127 197.967 166.127 195.467C166.127 192.967 164.094 190.933 161.593 190.933ZM161.593 197.733C160.343 197.733 159.327 196.717 159.327 195.467C159.327 194.216 160.343 193.2 161.593 193.2C162.843 193.2 163.86 194.216 163.86 195.467C163.86 196.717 162.843 197.733 161.593 197.733Z" fill="#007FFE"/>
</g>
<defs>
<clipPath id="clip0_59_2014">
<rect width="199" height="200" fill="white"/>
</clipPath>
</defs>
</svg>
