<svg width="208" height="208" viewBox="0 0 208 208" fill="none" xmlns="http://www.w3.org/2000/svg">
<g clip-path="url(#clip0_301_360)">
<path fill-rule="evenodd" clip-rule="evenodd" d="M160.16 5.2H47.84C24.2906 5.2 5.2 24.2906 5.2 47.84V160.16C5.2 183.709 24.2906 202.8 47.84 202.8H160.16C183.709 202.8 202.8 183.709 202.8 160.16V47.84C202.8 24.2906 183.709 5.2 160.16 5.2ZM47.84 0C21.4187 0 0 21.4187 0 47.84V160.16C0 186.581 21.4187 208 47.84 208H160.16C186.581 208 208 186.581 208 160.16V47.84C208 21.4187 186.581 0 160.16 0H47.84Z" fill="#0066CC"/>
<path d="M45.1094 137.06C44.789 137.06 44.5373 136.981 44.3543 136.823C44.1941 136.665 44.0683 136.462 43.9767 136.214L39.0686 120.544C39.0228 120.431 38.9999 120.318 38.9999 120.206C38.9999 120.003 39.0686 119.833 39.2059 119.698C39.366 119.54 39.5491 119.461 39.755 119.461H42.7754C43.0729 119.461 43.3017 119.54 43.4619 119.698C43.6221 119.856 43.725 120.003 43.7708 120.138L46.8942 130.596L50.2235 120.206C50.2692 120.048 50.3722 119.89 50.5324 119.732C50.7154 119.551 50.9671 119.461 51.2875 119.461H53.2439C53.5642 119.461 53.8045 119.551 53.9647 119.732C54.1477 119.89 54.2621 120.048 54.3079 120.206L57.6372 130.596L60.7606 120.138C60.7835 120.003 60.875 119.856 61.0352 119.698C61.2182 119.54 61.447 119.461 61.7216 119.461H64.742C64.9479 119.461 65.1196 119.54 65.2569 119.698C65.417 119.833 65.4971 120.003 65.4971 120.206C65.4971 120.318 65.4857 120.431 65.4628 120.544L60.5203 136.214C60.4517 136.462 60.3258 136.665 60.1428 136.823C59.9826 136.981 59.7423 137.06 59.422 137.06H56.7791C56.4588 137.06 56.2071 136.981 56.024 136.823C55.841 136.665 55.7037 136.462 55.6122 136.214L52.2828 126.196L48.8849 136.214C48.8162 136.462 48.6904 136.665 48.5073 136.823C48.3243 136.981 48.0726 137.06 47.7522 137.06H45.1094Z" fill="#0066CC"/>
<path d="M69.482 137.06C69.2532 137.06 69.0587 136.981 68.8985 136.823C68.7384 136.665 68.6583 136.462 68.6583 136.214V120.307C68.6583 120.059 68.7384 119.856 68.8985 119.698C69.0587 119.54 69.2532 119.461 69.482 119.461H72.9143C73.166 119.461 73.372 119.54 73.5321 119.698C73.6923 119.856 73.7724 120.059 73.7724 120.307V136.214C73.7724 136.462 73.6923 136.665 73.5321 136.823C73.372 136.981 73.166 137.06 72.9143 137.06H69.482ZM69.3791 116.753C69.1503 116.753 68.9558 116.675 68.7956 116.517C68.6354 116.359 68.5553 116.156 68.5553 115.907V113.2C68.5553 112.952 68.6354 112.749 68.7956 112.591C68.9558 112.41 69.1503 112.32 69.3791 112.32H72.983C73.2347 112.32 73.4406 112.41 73.6008 112.591C73.7838 112.749 73.8754 112.952 73.8754 113.2V115.907C73.8754 116.156 73.7838 116.359 73.6008 116.517C73.4406 116.675 73.2347 116.753 72.983 116.753H69.3791Z" fill="#0066CC"/>
<path d="M86.6576 137.06C85.239 137.06 84.0262 136.835 83.0194 136.383C82.0126 135.91 81.2461 135.188 80.7198 134.217C80.2164 133.247 79.9647 132.029 79.9647 130.562V123.455H77.2875C77.0358 123.455 76.8299 123.376 76.6697 123.218C76.5095 123.06 76.4294 122.857 76.4294 122.609V120.307C76.4294 120.059 76.5095 119.856 76.6697 119.698C76.8299 119.54 77.0358 119.461 77.2875 119.461H79.9647V113.877C79.9647 113.628 80.0448 113.425 80.205 113.267C80.388 113.11 80.5939 113.031 80.8228 113.031H84.1864C84.4381 113.031 84.644 113.11 84.8042 113.267C84.9644 113.425 85.0445 113.628 85.0445 113.877V119.461H89.3348C89.5636 119.461 89.7581 119.54 89.9183 119.698C90.0785 119.856 90.1586 120.059 90.1586 120.307V122.609C90.1586 122.857 90.0785 123.06 89.9183 123.218C89.7581 123.376 89.5636 123.455 89.3348 123.455H85.0445V130.156C85.0445 131.013 85.1932 131.69 85.4907 132.187C85.811 132.661 86.3602 132.897 87.1381 132.897H89.6437C89.8725 132.897 90.067 132.976 90.2272 133.134C90.3874 133.292 90.4675 133.484 90.4675 133.71V136.214C90.4675 136.462 90.3874 136.665 90.2272 136.823C90.067 136.981 89.8725 137.06 89.6437 137.06H86.6576Z" fill="#0066CC"/>
<path d="M94.3199 137.06C94.0682 137.06 93.8623 136.981 93.7021 136.823C93.5419 136.665 93.4619 136.462 93.4619 136.214V113.877C93.4619 113.628 93.5419 113.425 93.7021 113.267C93.8623 113.11 94.0682 113.031 94.3199 113.031H98.0268C98.2556 113.031 98.4501 113.11 98.6103 113.267C98.7704 113.425 98.8505 113.628 98.8505 113.877V121.492C99.4683 120.77 100.223 120.194 101.116 119.766C102.008 119.337 103.084 119.123 104.342 119.123C105.692 119.123 106.882 119.427 107.912 120.036C108.964 120.623 109.788 121.492 110.383 122.642C110.978 123.771 111.275 125.147 111.275 126.772V136.214C111.275 136.462 111.195 136.665 111.035 136.823C110.875 136.981 110.669 137.06 110.417 137.06H106.676C106.447 137.06 106.253 136.981 106.093 136.823C105.932 136.665 105.852 136.462 105.852 136.214V126.975C105.852 125.779 105.555 124.854 104.96 124.199C104.365 123.522 103.518 123.184 102.42 123.184C101.345 123.184 100.475 123.522 99.8116 124.199C99.1709 124.854 98.8505 125.779 98.8505 126.975V136.214C98.8505 136.462 98.7704 136.665 98.6103 136.823C98.4501 136.981 98.2556 137.06 98.0268 137.06H94.3199Z" fill="#0066CC"/>
<path d="M123.552 137.399C121.652 137.399 120.062 137.094 118.781 136.485C117.499 135.853 116.515 134.962 115.829 133.811C115.165 132.661 114.799 131.318 114.731 129.784C114.708 129.332 114.696 128.825 114.696 128.261C114.696 127.674 114.708 127.166 114.731 126.738C114.799 125.181 115.188 123.838 115.898 122.71C116.607 121.559 117.602 120.679 118.884 120.07C120.165 119.438 121.721 119.123 123.552 119.123C125.359 119.123 126.904 119.438 128.185 120.07C129.467 120.679 130.462 121.559 131.171 122.71C131.881 123.838 132.27 125.181 132.338 126.738C132.384 127.166 132.407 127.674 132.407 128.261C132.407 128.825 132.384 129.332 132.338 129.784C132.27 131.318 131.892 132.661 131.206 133.811C130.542 134.962 129.57 135.853 128.288 136.485C127.007 137.094 125.428 137.399 123.552 137.399ZM123.552 133.676C124.673 133.676 125.519 133.337 126.092 132.661C126.664 131.961 126.972 130.946 127.018 129.614C127.041 129.276 127.053 128.825 127.053 128.261C127.053 127.697 127.041 127.245 127.018 126.907C126.972 125.598 126.664 124.594 126.092 123.895C125.519 123.195 124.673 122.846 123.552 122.846C122.43 122.846 121.572 123.195 120.977 123.895C120.405 124.594 120.096 125.598 120.051 126.907C120.028 127.245 120.016 127.697 120.016 128.261C120.016 128.825 120.028 129.276 120.051 129.614C120.096 130.946 120.405 131.961 120.977 132.661C121.572 133.337 122.43 133.676 123.552 133.676Z" fill="#0066CC"/>
<path d="M142.552 137.399C141.225 137.399 140.047 137.105 139.017 136.519C138.01 135.91 137.221 135.041 136.649 133.913C136.1 132.762 135.825 131.374 135.825 129.75V120.307C135.825 120.059 135.905 119.856 136.065 119.698C136.225 119.54 136.42 119.461 136.649 119.461H140.287C140.539 119.461 140.745 119.54 140.905 119.698C141.065 119.856 141.145 120.059 141.145 120.307V129.547C141.145 132.074 142.266 133.337 144.509 133.337C145.584 133.337 146.431 133.01 147.049 132.356C147.689 131.679 148.01 130.743 148.01 129.547V120.307C148.01 120.059 148.09 119.856 148.25 119.698C148.41 119.54 148.616 119.461 148.868 119.461H152.506C152.735 119.461 152.929 119.54 153.089 119.698C153.25 119.856 153.33 120.059 153.33 120.307V136.214C153.33 136.462 153.25 136.665 153.089 136.823C152.929 136.981 152.735 137.06 152.506 137.06H149.142C148.891 137.06 148.685 136.981 148.524 136.823C148.364 136.665 148.284 136.462 148.284 136.214V134.894C147.689 135.707 146.923 136.327 145.985 136.756C145.046 137.184 143.902 137.399 142.552 137.399Z" fill="#0066CC"/>
<path d="M166.23 137.06C164.811 137.06 163.599 136.835 162.592 136.383C161.585 135.91 160.819 135.188 160.292 134.217C159.789 133.247 159.537 132.029 159.537 130.562V123.455H156.86C156.608 123.455 156.402 123.376 156.242 123.218C156.082 123.06 156.002 122.857 156.002 122.609V120.307C156.002 120.059 156.082 119.856 156.242 119.698C156.402 119.54 156.608 119.461 156.86 119.461H159.537V113.877C159.537 113.628 159.617 113.425 159.777 113.267C159.961 113.11 160.166 113.031 160.395 113.031H163.759C164.011 113.031 164.217 113.11 164.377 113.267C164.537 113.425 164.617 113.628 164.617 113.877V119.461H168.907C169.136 119.461 169.331 119.54 169.491 119.698C169.651 119.856 169.731 120.059 169.731 120.307V122.609C169.731 122.857 169.651 123.06 169.491 123.218C169.331 123.376 169.136 123.455 168.907 123.455H164.617V130.156C164.617 131.013 164.766 131.69 165.063 132.187C165.383 132.661 165.933 132.897 166.711 132.897H169.216C169.445 132.897 169.64 132.976 169.8 133.134C169.96 133.292 170.04 133.484 170.04 133.71V136.214C170.04 136.462 169.96 136.665 169.8 136.823C169.64 136.981 169.445 137.06 169.216 137.06H166.23Z" fill="#0066CC"/>
<path d="M65.712 177.674C65.4603 177.674 65.2544 177.595 65.0942 177.437C64.934 177.279 64.854 177.076 64.854 176.828V154.49C64.854 154.242 64.934 154.039 65.0942 153.881C65.2544 153.723 65.4603 153.644 65.712 153.644H69.1443C69.3731 153.644 69.5676 153.723 69.7278 153.881C69.888 154.039 69.9681 154.242 69.9681 154.49V176.828C69.9681 177.076 69.888 177.279 69.7278 177.437C69.5676 177.595 69.3731 177.674 69.1443 177.674H65.712Z" fill="#0066CC"/>
<path d="M82.4749 178.012C80.5758 178.012 78.9855 177.708 77.7041 177.099C76.4227 176.467 75.4388 175.576 74.7523 174.425C74.0888 173.274 73.7226 171.932 73.654 170.397C73.6311 169.946 73.6197 169.438 73.6197 168.874C73.6197 168.288 73.6311 167.78 73.654 167.351C73.7226 165.794 74.1116 164.452 74.821 163.324C75.5303 162.173 76.5257 161.293 77.807 160.684C79.0884 160.052 80.6444 159.736 82.4749 159.736C84.2826 159.736 85.8271 160.052 87.1085 160.684C88.3899 161.293 89.3853 162.173 90.0946 163.324C90.8039 164.452 91.1929 165.794 91.2616 167.351C91.3073 167.78 91.3302 168.288 91.3302 168.874C91.3302 169.438 91.3073 169.946 91.2616 170.397C91.1929 171.932 90.8154 173.274 90.1289 174.425C89.4653 175.576 88.4929 176.467 87.2115 177.099C85.9301 177.708 84.3513 178.012 82.4749 178.012ZM82.4749 174.29C83.5962 174.29 84.4428 173.951 85.0148 173.274C85.5869 172.575 85.8958 171.559 85.9415 170.228C85.9644 169.89 85.9759 169.438 85.9759 168.874C85.9759 168.31 85.9644 167.859 85.9415 167.521C85.8958 166.212 85.5869 165.208 85.0148 164.508C84.4428 163.809 83.5962 163.459 82.4749 163.459C81.3537 163.459 80.4957 163.809 79.9007 164.508C79.3287 165.208 79.0198 166.212 78.974 167.521C78.9511 167.859 78.9397 168.31 78.9397 168.874C78.9397 169.438 78.9511 169.89 78.974 170.228C79.0198 171.559 79.3287 172.575 79.9007 173.274C80.4957 173.951 81.3537 174.29 82.4749 174.29Z" fill="#0066CC"/>
<path d="M103.295 185.12C101.601 185.12 100.194 184.894 99.073 184.443C97.9517 184.014 97.0594 183.484 96.3958 182.852C95.7551 182.243 95.2974 181.634 95.0229 181.025C94.7483 180.415 94.5995 179.942 94.5767 179.603C94.5538 179.355 94.6339 179.152 94.8169 178.994C95 178.836 95.2059 178.757 95.4347 178.757H99.1073C99.3132 178.757 99.4848 178.802 99.6221 178.892C99.7823 179.005 99.9081 179.186 99.9997 179.434C100.114 179.705 100.274 179.987 100.48 180.28C100.686 180.596 100.995 180.855 101.407 181.058C101.842 181.262 102.414 181.363 103.123 181.363C103.924 181.363 104.587 181.25 105.114 181.025C105.64 180.799 106.029 180.415 106.281 179.874C106.555 179.332 106.693 178.599 106.693 177.674V175.406C106.143 175.993 105.446 176.478 104.599 176.862C103.775 177.245 102.757 177.437 101.544 177.437C100.354 177.437 99.3018 177.257 98.3865 176.896C97.4941 176.512 96.7504 175.982 96.1555 175.305C95.5606 174.605 95.103 173.771 94.7826 172.8C94.4623 171.83 94.2792 170.736 94.2334 169.517C94.2106 168.908 94.2106 168.31 94.2334 167.724C94.2792 166.55 94.4623 165.479 94.7826 164.508C95.103 163.538 95.5606 162.703 96.1555 162.004C96.7504 161.282 97.4941 160.729 98.3865 160.345C99.3018 159.939 100.354 159.736 101.544 159.736C102.803 159.736 103.878 159.973 104.771 160.447C105.663 160.921 106.395 161.507 106.967 162.207V160.921C106.967 160.695 107.047 160.503 107.207 160.345C107.368 160.165 107.562 160.075 107.791 160.075H111.155C111.383 160.075 111.578 160.165 111.738 160.345C111.921 160.503 112.013 160.695 112.013 160.921L112.047 177.2C112.047 178.892 111.715 180.325 111.052 181.498C110.388 182.672 109.404 183.563 108.1 184.172C106.818 184.804 105.217 185.12 103.295 185.12ZM103.123 173.477C103.947 173.477 104.61 173.297 105.114 172.936C105.64 172.552 106.029 172.078 106.281 171.514C106.532 170.928 106.67 170.318 106.693 169.687C106.715 169.438 106.727 169.089 106.727 168.637C106.727 168.164 106.715 167.803 106.693 167.554C106.67 166.923 106.532 166.325 106.281 165.761C106.029 165.174 105.64 164.7 105.114 164.339C104.61 163.978 103.947 163.798 103.123 163.798C102.254 163.798 101.567 163.989 101.064 164.373C100.56 164.734 100.194 165.219 99.9653 165.828C99.7365 166.438 99.5992 167.103 99.5535 167.825C99.5306 168.367 99.5306 168.897 99.5535 169.416C99.5992 170.16 99.7365 170.837 99.9653 171.447C100.194 172.056 100.56 172.552 101.064 172.936C101.567 173.297 102.254 173.477 103.123 173.477Z" fill="#0066CC"/>
<path d="M117.195 177.674C116.967 177.674 116.772 177.595 116.612 177.437C116.452 177.279 116.372 177.076 116.372 176.828V160.921C116.372 160.673 116.452 160.47 116.612 160.312C116.772 160.154 116.967 160.075 117.195 160.075H120.628C120.879 160.075 121.085 160.154 121.245 160.312C121.406 160.47 121.486 160.673 121.486 160.921V176.828C121.486 177.076 121.406 177.279 121.245 177.437C121.085 177.595 120.879 177.674 120.628 177.674H117.195ZM117.092 157.367C116.864 157.367 116.669 157.288 116.509 157.13C116.349 156.972 116.269 156.769 116.269 156.521V153.813C116.269 153.565 116.349 153.362 116.509 153.204C116.669 153.024 116.864 152.933 117.092 152.933H120.696C120.948 152.933 121.154 153.024 121.314 153.204C121.497 153.362 121.589 153.565 121.589 153.813V156.521C121.589 156.769 121.497 156.972 121.314 157.13C121.154 157.288 120.948 157.367 120.696 157.367H117.092Z" fill="#0066CC"/>
<path d="M127.485 177.674C127.257 177.674 127.062 177.595 126.902 177.437C126.742 177.279 126.662 177.076 126.662 176.828V160.921C126.662 160.673 126.742 160.47 126.902 160.312C127.062 160.154 127.257 160.075 127.485 160.075H130.849C131.101 160.075 131.307 160.154 131.467 160.312C131.627 160.47 131.707 160.673 131.707 160.921V162.241C132.302 161.519 133.069 160.921 134.007 160.447C134.945 159.973 136.089 159.736 137.439 159.736C138.789 159.736 139.968 160.041 140.974 160.65C142.004 161.237 142.805 162.105 143.377 163.256C143.972 164.384 144.269 165.761 144.269 167.385V176.828C144.269 177.076 144.178 177.279 143.995 177.437C143.835 177.595 143.64 177.674 143.411 177.674H139.773C139.521 177.674 139.315 177.595 139.155 177.437C138.995 177.279 138.915 177.076 138.915 176.828V167.588C138.915 166.392 138.618 165.467 138.023 164.813C137.451 164.136 136.604 163.798 135.483 163.798C134.407 163.798 133.549 164.136 132.908 164.813C132.268 165.467 131.947 166.392 131.947 167.588V176.828C131.947 177.076 131.867 177.279 131.707 177.437C131.547 177.595 131.353 177.674 131.124 177.674H127.485Z" fill="#0066CC"/>
<path fill-rule="evenodd" clip-rule="evenodd" d="M105.838 85.0386L122.385 68.4923C123.4 67.4769 123.4 65.8307 122.385 64.8154C121.369 63.8 119.723 63.8 118.708 64.8154L106.6 76.9232V22.8801H101.4V76.9232L89.2921 64.8154C88.2768 63.8 86.6305 63.8 85.6152 64.8154C84.5998 65.8307 84.5998 67.4769 85.6152 68.4923L102.161 85.0386C103.177 86.054 104.823 86.054 105.838 85.0386ZM75.4 68.6404C75.4 67.2044 74.2359 66.0404 72.8 66.0404C71.364 66.0404 70.2 67.2044 70.2 68.6404C70.2 77.6047 73.761 86.2019 80.0997 92.5406C86.4385 98.8793 95.0356 102.44 104 102.44C112.964 102.44 121.561 98.8793 127.9 92.5406C134.239 86.2019 137.8 77.6047 137.8 68.6404C137.8 67.2044 136.636 66.0404 135.2 66.0404C133.764 66.0404 132.6 67.2044 132.6 68.6404C132.6 76.2256 129.587 83.5001 124.223 88.8636C118.86 94.2272 111.585 97.2404 104 97.2404C96.4148 97.2404 89.1402 94.2272 83.7767 88.8636C78.4132 83.5001 75.4 76.2256 75.4 68.6404Z" fill="#0066CC"/>
<path d="M144.63 88.0261L67.0362 26.4157C65.9116 25.5228 64.2762 25.7106 63.3832 26.8351C62.4903 27.9597 62.6781 29.5952 63.8027 30.4881L141.397 92.0985C142.521 92.9914 144.157 92.8036 145.049 91.6791C145.942 90.5545 145.755 88.919 144.63 88.0261Z" fill="#FF2626"/>
<path d="M68.5699 91.8642L146.164 30.2537C147.288 29.3608 147.476 27.7253 146.583 26.6008C145.69 25.4762 144.055 25.2884 142.93 26.1813L65.3364 87.7918C64.2118 88.6847 64.0241 90.3202 64.917 91.4447C65.8099 92.5693 67.4454 92.7571 68.5699 91.8642Z" fill="#FF2626"/>
</g>
<defs>
<clipPath id="clip0_301_360">
<rect width="208" height="208" fill="white"/>
</clipPath>
</defs>
</svg>
