<?xml version="1.0" encoding="UTF-8"?>
<svg id="Layer_5" data-name="Layer 5" xmlns="http://www.w3.org/2000/svg" viewBox="0 0 400 420">
  <defs>
    <style>
      .cls-1, .cls-2, .cls-3 {
        fill: #fff;
      }

      .cls-2 {
        opacity: .3;
      }

      .cls-2, .cls-3 {
        isolation: isolate;
      }

      .cls-3 {
        opacity: .9;
      }
    </style>
  </defs>
  <g>
    <g>
      <path class="cls-3" d="M322.41,42.57c-6.15,0-12.91-.95-20.66-2.9-1.27-.45-1.93-1.64-1.7-2.92.21-1.18,1.1-2.01,2.17-2.01.17,0,.34.02.51.06,3.87.87,7.67,1.31,11.28,1.31,8.18,0,15.75-2.2,23.16-6.74,3.53-2.16,5.97-4.38,7.28-6.62-2.96-.5-5.52-2.47-7.54-5.76-1.98-3.24-2.61-6.61-1.83-9.76.77-3.1,2.86-5.76,6.03-7.71,2.39-1.46,4.77-2.2,7.08-2.2,4.45,0,8.48,2.74,11.65,7.91,6.53,10.66,2.16,21.74-11.99,30.4-7.62,4.67-15.95,6.94-25.45,6.94h0ZM300.3,6.47c-6.15,0-12.91-.95-20.66-2.9-1.27-.45-1.93-1.64-1.71-2.91.21-1.18,1.1-2.01,2.17-2.01.17,0,.34.02.52.06,3.87.87,7.67,1.31,11.28,1.31,8.18,0,15.75-2.2,23.16-6.74,3.53-2.16,5.97-4.38,7.28-6.62-2.96-.5-5.52-2.47-7.54-5.76-1.98-3.24-2.61-6.61-1.83-9.76.77-3.1,2.86-5.76,6.04-7.71,2.39-1.46,4.77-2.2,7.08-2.2,4.45,0,8.48,2.74,11.65,7.91,6.53,10.66,2.16,21.73-11.99,30.4-7.62,4.67-15.95,6.94-25.44,6.94h0Z"/>
      <path class="cls-2" d="M336.88-30.34c-4.51-7.36-10.7-9.45-17.35-5.38-5.95,3.64-7.66,9.92-3.88,16.09,2.18,3.56,4.97,5.45,8.22,5.42-1.03,2.59-3.54,5.43-8.29,8.35-10.23,6.26-21.54,8.62-35.19,5.55-1.53-.37-2.18,2.31-.5,2.92,17.01,4.28,31.78,4.38,45.34-3.92,14.03-8.59,17.77-19.05,11.66-29.02ZM358.99,5.76c-4.51-7.36-10.69-9.45-17.35-5.38-5.94,3.64-7.66,9.92-3.88,16.09,2.18,3.56,4.97,5.45,8.22,5.42-1.03,2.59-3.54,5.43-8.3,8.35-10.22,6.26-21.54,8.62-35.19,5.55-1.53-.37-2.18,2.31-.5,2.92,17.01,4.28,31.78,4.38,45.34-3.92,14.03-8.59,17.77-19.05,11.66-29.02Z"/>
    </g>
    <g>
      <path class="cls-3" d="M67.36,117.14c-1.81,0-3.14-1.11-3.29-2.77-2.54-23.3-12.22-41.62-29.59-56.01-6.32-5.23-12.04-8.22-17.03-8.9,1.3,5.35-.42,11.08-5.04,16.66-4.65,5.61-10.39,8.58-16.61,8.58-4.98,0-9.98-1.96-14.46-5.67-11.05-9.15-11.45-21.58-1.09-34.09,6.64-8.02,14.73-12.08,24.06-12.08,10.34,0,21.63,5.01,33.56,14.89,20.17,16.7,30.49,40.02,33.46,75.6-.04,2.5-2.07,3.8-3.96,3.8h0ZM115.95,58.45c-1.81,0-3.14-1.11-3.29-2.77-2.54-23.3-12.22-41.63-29.59-56.01-6.31-5.23-12.03-8.22-17.03-8.9,1.3,5.35-.42,11.08-5.04,16.66-4.65,5.61-10.39,8.58-16.61,8.58-4.98,0-9.98-1.96-14.46-5.67-11.05-9.15-11.45-21.58-1.09-34.09,6.64-8.02,14.73-12.08,24.06-12.08,10.34,0,21.63,5.01,33.56,14.89,20.17,16.71,30.49,40.02,33.46,75.6-.04,2.5-2.07,3.8-3.96,3.8h0Z"/>
      <path class="cls-2" d="M-18.99,35.58c-9.91,11.97-9.87,23.72.96,32.68,9.66,8,21.35,7.26,29.66-2.77,4.8-5.79,6.38-11.64,4.43-17.16,5.01.24,11.31,2.86,19.05,9.26,16.62,13.76,27.22,31.65,29.95,56.69.27,2.82,5.21,2.36,5.26-.85-2.62-31.46-11.07-56.67-33.1-74.91C14.42,19.63-5.56,19.36-18.99,35.58ZM29.61-23.11c-9.91,11.97-9.87,23.72.96,32.68,9.66,8,21.35,7.26,29.66-2.77,4.8-5.79,6.38-11.64,4.43-17.16,5.01.24,11.31,2.86,19.05,9.26,16.62,13.76,27.22,31.65,29.95,56.69.27,2.82,5.21,2.36,5.26-.85-2.62-31.46-11.07-56.67-33.1-74.91-22.81-18.88-42.78-19.15-56.21-2.94Z"/>
    </g>
    <g>
      <path class="cls-3" d="M357.92,458.77c-7.14,0-14.96-1.2-23.22-3.56-23.93-6.84-40.2-20.95-48.35-41.92-8.28-21.29-7.74-48.67,1.62-81.38,16.59-57.99,56.29-101.34,128.73-140.55,1.02-.43,1.97-.63,2.92-.63,3.83,0,6.62,3.06,7.4,6.08.73,2.8-.3,5.37-2.67,6.69-47.43,27.25-77.53,65.1-92,115.7-5.59,19.54-6.42,35.35-2.47,47.03,6.42-5.51,14.42-8.31,23.78-8.31,5.13,0,10.72.85,16.6,2.53,29.08,8.32,42.49,32.51,34.16,61.62-6.86,24-22.95,36.68-46.5,36.68h0ZM188.13,410.2c-7.14,0-14.96-1.2-23.22-3.56-23.93-6.85-40.2-20.95-48.35-41.92-8.28-21.29-7.74-48.67,1.62-81.38,16.59-57.99,56.29-101.34,128.73-140.55,1.02-.43,1.97-.63,2.92-.63,3.83,0,6.62,3.06,7.4,6.08.73,2.81-.3,5.37-2.67,6.69-47.43,27.25-77.53,65.1-92,115.7-5.59,19.54-6.42,35.35-2.47,47.03,6.42-5.51,14.42-8.31,23.79-8.31,5.13,0,10.72.85,16.59,2.53,14.38,4.11,25.18,12.17,31.23,23.31,5.95,10.96,6.97,24.21,2.93,38.32-6.86,23.99-22.95,36.68-46.5,36.68h0Z"/>
      <path class="cls-2" d="M334.97,454.25c34.63,9.91,59.53-1.12,68.49-32.43,8-27.96-4.44-52.08-33.48-60.39-16.76-4.79-30.64-2.72-40.54,6.55-4.14-10.86-4.45-26.68,1.95-49.05,13.76-48.09,41.87-87.23,92.48-116.3,5.75-3.2.17-13.26-6.7-10.38-64.34,34.83-110.01,76.2-128.25,139.94-18.87,65.98-.87,108.64,46.05,122.06ZM165.19,405.68c34.63,9.9,59.53-1.12,68.49-32.43,8-27.96-4.44-52.08-33.48-60.39-16.76-4.79-30.64-2.72-40.54,6.55-4.14-10.86-4.45-26.68,1.95-49.05,13.76-48.09,41.87-87.23,92.48-116.3,5.75-3.2.17-13.26-6.7-10.38-64.34,34.82-110.01,76.2-128.25,139.94-18.88,65.98-.87,108.63,46.05,122.06Z"/>
    </g>
  </g>
  <g>
    <path class="cls-1" d="M281.91,0h19.48c-5.98,1.33-12.42,1.4-19.48,0Z"/>
    <path class="cls-1" d="M353.7,0c1.94,1.25,3.73,3.18,5.31,5.76,6.11,9.98,2.38,20.43-11.66,29.03-13.55,8.3-28.32,8.2-45.33,3.92-1.68-.61-1.04-3.29.5-2.92,13.65,3.07,24.96.72,35.19-5.55,4.75-2.91,7.26-5.75,8.29-8.34-3.25.03-6.04-1.86-8.22-5.42-3.78-6.18-2.07-12.45,3.88-16.09.23-.14.46-.27.68-.39h-19.41c-12.92,6.96-26.98,6.65-43.02,2.6-1.2-.43-1.22-1.92-.56-2.6H103.4c9.38,15.27,13.77,33.6,15.53,54.74-.05,3.21-4.99,3.67-5.26.85C111.01,31.21,100.89,13.62,85.02,0h-20.65c-.86,2.26-2.25,4.54-4.12,6.8-8.32,10.04-20,10.77-29.67,2.77C27.05,6.65,24.67,3.43,23.41,0H0v24.18c10.86-1.64,23.54,2.98,37.24,14.33,22.04,18.25,30.48,43.46,33.1,74.92-.05,3.21-5,3.67-5.26.85-2.73-25.04-13.33-42.93-29.95-56.69-7.73-6.4-14.04-9.02-19.05-9.26,1.95,5.52.37,11.36-4.43,17.16-3.43,4.14-7.45,6.7-11.65,7.71v346.8h290.5c-11.13-21.27-12.12-50.88-1.56-87.8,16.57-57.92,55.78-97.36,111.06-130.21V0h-46.3ZM254.1,154.07c-50.61,29.07-78.72,68.21-92.48,116.3-6.4,22.36-6.09,38.18-1.95,49.04,9.9-9.26,23.79-11.34,40.55-6.55,29.04,8.31,41.47,32.44,33.47,60.39-8.95,31.31-33.86,42.34-68.49,32.43-46.91-13.42-64.92-56.07-46.04-122.05,18.23-63.75,63.9-105.12,128.24-139.95,6.87-2.87,12.45,7.19,6.7,10.39Z"/>
    <path class="cls-1" d="M400,218.33v164.83c-5.84-10.03-15.99-17.72-30-21.73-16.76-4.79-30.64-2.71-40.54,6.55-4.15-10.86-4.45-26.68,1.94-49.04,11.42-39.92,32.73-73.67,68.6-100.61Z"/>
  </g>
</svg>